<svg id="Capa_1" data-name="Capa 1" xmlns="http://www.w3.org/2000/svg" viewBox="0 0 500 500"><defs><style>.cls-1{fill:none;stroke:#828181;stroke-miterlimit:10;stroke-width:2px;}.cls-2{fill:#e83b18;}</style></defs><circle class="cls-1" cx="250" cy="250" r="249"/><rect class="cls-2" x="236.64" y="232.63" width="26.72" height="26.72"/><path class="cls-2" d="M386.92,111.72h-16V85H344.17v26.72H167.83V85H141.11v26.72h-16A40.12,40.12,0,0,0,85,151.8V386.92A40.13,40.13,0,0,0,125.08,427H262.52a117.55,117.55,0,0,1-23.82-26.72H125.08a13.36,13.36,0,0,1-13.36-13.36V210.58H400.28V238.7A117.55,117.55,0,0,1,427,262.52V151.8A40.12,40.12,0,0,0,386.92,111.72Zm13.36,72.14H111.72V151.8a13.36,13.36,0,0,1,13.36-13.36h16v26.72h26.72V138.44H344.17v26.72h26.72V138.44h16a13.36,13.36,0,0,1,13.36,13.36Z" transform="translate(-6 -6)"/><path class="cls-2" d="M336.82,246.65A90.18,90.18,0,1,0,427,336.82,90.27,90.27,0,0,0,336.82,246.65Zm0,153.63a63.46,63.46,0,1,1,63.46-63.46A63.46,63.46,0,0,1,336.82,400.28Z" transform="translate(-6 -6)"/><polygon class="cls-2" points="343.52 286.07 316.8 286.07 316.8 344.18 366.23 344.18 366.23 317.46 343.52 317.46 343.52 286.07"/><rect class="cls-2" x="183.2" y="286.07" width="26.72" height="26.72"/><rect class="cls-2" x="129.77" y="286.07" width="26.72" height="26.72"/><rect class="cls-2" x="129.77" y="232.63" width="26.72" height="26.72"/><rect class="cls-2" x="129.77" y="339.51" width="26.72" height="26.72"/><rect class="cls-2" x="183.2" y="232.63" width="26.72" height="26.72"/><rect class="cls-2" x="183.2" y="339.51" width="26.72" height="26.72"/></svg>