<svg id="Layer_1" data-name="Layer 1" xmlns="http://www.w3.org/2000/svg" viewBox="0 0 26.62 14.53"><defs><style>.cls-1{fill:#5a5858;}</style></defs><path class="cls-1" d="M26.65,7.26a7.2,7.2,0,0,0-5.75.35L17.59,9.24,11.5,7a.34.34,0,0,0-.28,0l-1.68,1a.32.32,0,0,0-.11.44.29.29,0,0,0,.11.11l4.05,2.61L8.86,13.53,6.13,11.64a3.79,3.79,0,0,0-3.53-.4l-1.29.51a.32.32,0,0,0-.18.42.42.42,0,0,0,.09.14l5,4.09a3.83,3.83,0,0,0,2.4.86h.11a2,2,0,0,0,.72-.13l4.41-1.7-2.07,5.48a.33.33,0,0,0,.19.42l.11,0h2.7a.31.31,0,0,0,.28-.16L19.84,13l6.85-2.72a1.64,1.64,0,0,0,0-3.06ZM10.32,8.33l1.1-.66,5.36,2-2.51,1.23ZM14.65,20.7H12.6L15.14,14l4.4-1.74Zm11.8-11-6.09,2.41.21-.37a.32.32,0,0,0-.12-.44.31.31,0,0,0-.28,0l-5.4,2.13a.31.31,0,0,0-.18.19l-.38,1-5,1.9a1.48,1.48,0,0,1-.51.09,3.12,3.12,0,0,1-2.08-.72L2.06,12.15l.78-.31a3.13,3.13,0,0,1,2.92.34l2.89,2a.35.35,0,0,0,.33,0l12.21-6a6.6,6.6,0,0,1,5.24-.32A1,1,0,0,1,27,9.14a1,1,0,0,1-.57.58Z" transform="translate(-1.1 -6.82)"/></svg>