<svg id="Layer_1" data-name="Layer 1" xmlns="http://www.w3.org/2000/svg" viewBox="0 0 34.92 19.05"><defs><style>.cls-1{fill:#595757;}</style></defs><path class="cls-1" d="M37.05,5.77a9.48,9.48,0,0,0-7.54.46L25.16,8.37l-8-2.93a.4.4,0,0,0-.37,0l-2.2,1.34a.42.42,0,0,0-.14.58.44.44,0,0,0,.13.14L19.92,11,13.72,14l-3.58-2.48A4.94,4.94,0,0,0,5.51,11l-1.7.67a.44.44,0,0,0-.24.56.52.52,0,0,0,.13.17l6.61,5.37a5,5,0,0,0,3.15,1.13h.14a2.75,2.75,0,0,0,1-.17l5.78-2.23-2.72,7.19a.43.43,0,0,0,.25.55l.15,0h3.54a.44.44,0,0,0,.37-.21l6.19-10.69,9-3.56A2.15,2.15,0,0,0,38.31,7a2.13,2.13,0,0,0-1.26-1.23ZM15.64,7.18l1.43-.87,7,2.58-3.3,1.62ZM21.31,23.4H18.63L22,14.59l5.77-2.28ZM36.79,9l-8,3.16.28-.48a.41.41,0,0,0-.16-.58.4.4,0,0,0-.37,0l-7.08,2.79a.45.45,0,0,0-.24.25l-.5,1.31-6.49,2.5a1.88,1.88,0,0,1-.66.12,4.16,4.16,0,0,1-2.73-.94l-6-4.91,1-.4a4.08,4.08,0,0,1,3.84.44l3.78,2.61a.44.44,0,0,0,.43,0L29.89,7a8.65,8.65,0,0,1,6.87-.42,1.29,1.29,0,0,1,.77,1.66,1.28,1.28,0,0,1-.74.77Z" transform="translate(-3.54 -5.2)"/></svg>