<?xml version="1.0" encoding="UTF-8"?>
<svg version="1.1" xmlns="http://www.w3.org/2000/svg" width="512" height="512">
<path d="M0 0 C168.96 0 337.92 0 512 0 C512 168.96 512 337.92 512 512 C343.04 512 174.08 512 0 512 C0 343.04 0 174.08 0 0 Z " fill="#001B94" transform="translate(0,0)"/>
<path d="M0 0 C3.12578143 1.6720747 5.39281175 3.7856235 7 7 C7.42766537 11.18618599 7.44703752 14.88240621 5.875 18.8125 C2.98497124 22.18420022 0.39804671 24.78430268 -4.21484375 25.19921875 C-8.44108735 24.95309807 -10.55342616 24.35155813 -13.9375 21.6875 C-16.68640695 18.10559095 -17.82166884 16.18144394 -18.5 11.6875 C-17.83398123 6.77561156 -15.58855833 4.29106127 -12 1 C-8.27533151 -0.86233425 -4.05504687 -0.57130829 0 0 Z " fill="#F8F9FC" transform="translate(310,153)"/>
<path d="M0 0 C3.78580423 2.03850997 7.05061257 4.10122513 9 8 C9.53984503 13.57839862 9.22031416 17.22505142 6 22 C2.43756869 25.14332174 -1.09679535 25.63107472 -5.7109375 25.4921875 C-9.72326905 24.62946775 -12.44515635 22.12512125 -15 19 C-16.20643566 15.38069302 -16.32268559 12.80768995 -16 9 C-12.32317126 1.9187002 -8.0382172 -0.98714948 0 0 Z " fill="#F9FAFC" transform="translate(151,310)"/>
<path d="M0 0 C3.78580423 2.03850997 7.05061257 4.10122513 9 8 C9.53984503 13.57839862 9.22031416 17.22505142 6 22 C2.43756869 25.14332174 -1.09679535 25.63107472 -5.7109375 25.4921875 C-9.72326905 24.62946775 -12.44515635 22.12512125 -15 19 C-16.20643566 15.38069302 -16.32268559 12.80768995 -16 9 C-12.32317126 1.9187002 -8.0382172 -0.98714948 0 0 Z " fill="#F9FAFC" transform="translate(110,310)"/>
<path d="M0 0 C3.78171013 2.03630545 7.09528802 4.08475871 9 8 C9.73940087 12.77415625 9.45664981 16.10300929 7.25 20.4375 C4.65393889 23.39412515 2.73176435 24.70087707 -1.1484375 25.37109375 C-5.28770068 25.49454546 -8.12211901 25.39741725 -11.4375 22.75 C-14.81439385 19.12601636 -15.82874435 17.54130086 -16.375 12.625 C-15.92515417 8.27649031 -14.79790424 6.32723747 -12 3 C-8.07324125 -0.18385844 -4.98824428 -0.6125914 0 0 Z " fill="#F9FAFC" transform="translate(350,194)"/>
<path d="M0 0 C3.11116179 1.71239349 5.38689318 3.77378636 7 7 C7.42766537 11.18618599 7.44703752 14.88240621 5.875 18.8125 C2.98497124 22.18420022 0.39804671 24.78430268 -4.21484375 25.19921875 C-8.44108735 24.95309807 -10.55342616 24.35155813 -13.9375 21.6875 C-16.7857003 17.9762087 -18.40441589 15.37846477 -18.0625 10.625 C-17.54121102 7.04113826 -16.64028552 4.99704648 -14.0625 2.4375 C-9.67432373 -0.7949426 -5.25122021 -1.18325192 0 0 Z " fill="#F8F9FC" transform="translate(269,153)"/>
<path d="M0 0 C3.11116179 1.71239349 5.38689318 3.77378636 7 7 C7.42766537 11.18618599 7.44703752 14.88240621 5.875 18.8125 C2.98497124 22.18420022 0.39804671 24.78430268 -4.21484375 25.19921875 C-8.44108735 24.95309807 -10.55342616 24.35155813 -13.9375 21.6875 C-16.7857003 17.9762087 -18.40441589 15.37846477 -18.0625 10.625 C-17.54121102 7.04113826 -16.64028552 4.99704648 -14.0625 2.4375 C-9.67432373 -0.7949426 -5.25122021 -1.18325192 0 0 Z " fill="#F8F9FC" transform="translate(228,153)"/>
<path d="M0 0 C4.62170982 1.72181346 7.51550538 3.69991315 10 8 C10.72912122 12.03883999 10.4237502 15.09196386 8.6875 18.8125 C6.21886433 22.01258327 4.89329386 23.70223538 1 25 C-5.70527386 25.78228195 -5.70527386 25.78228195 -9.04296875 23.765625 C-13.37131306 20.16015881 -14.80489394 17.98357832 -15.375 12.1875 C-15.34474442 8.90174372 -14.77009012 7.17038793 -12.6875 4.625 C-8.32590922 0.36484157 -6.05681685 -0.51328956 0 0 Z " fill="#FAFAFD" transform="translate(192,352)"/>
<path d="M0 0 C3.43761572 2.12108204 5.77560839 4.1042085 7 8 C7.45599783 13.01597611 7.12987123 16.00671602 4 20 C1.76626666 22.43082746 0.15337617 23.81126572 -3.1484375 24.3515625 C-7.84371509 24.52315072 -11.35424002 24.21684704 -15 21 C-17.63824342 17.08812183 -18.60013158 13.61343427 -18.421875 8.9609375 C-17.6380264 5.31749306 -15.67324109 3.55173013 -13 1 C-8.63759734 -1.6983934 -4.84522333 -1.20265365 0 0 Z " fill="#FAFBFD" transform="translate(253,253)"/>
<path d="M0 0 C3.43615111 2.12017834 5.80717883 4.09622164 7 8 C7.86284183 14.57916897 7.86284183 14.57916897 5.76171875 18.0390625 C3.27934709 21.03269185 1.74958615 22.75013795 -2 24 C-10.835 24.57 -10.835 24.57 -15 21 C-17.63824342 17.08812183 -18.60013158 13.61343427 -18.421875 8.9609375 C-17.6380264 5.31749306 -15.67324109 3.55173013 -13 1 C-8.63759734 -1.6983934 -4.84522333 -1.20265365 0 0 Z " fill="#FAFAFD" transform="translate(282,224)"/>
<path d="M0 0 C3.12001504 1.68818449 5.39047471 3.78094941 7 7 C7.51093875 11.05831354 7.91678528 15.19576657 6.0234375 18.921875 C3.72352962 21.77206759 1.36547747 23.64254905 -2 25 C-5.17964157 25.32952649 -7.9659482 25.00785112 -11 24 C-14.75436095 20.88434776 -17.75356839 17.16859814 -18.3125 12.25 C-17.8541314 7.48296652 -15.69537635 4.51862435 -12.1640625 1.35546875 C-8.34328798 -1.03768785 -4.34459741 -0.75260743 0 0 Z " fill="#F9FAFC" transform="translate(187,153)"/>
<path d="M0 0 C3.12001504 1.68818449 5.39047471 3.78094941 7 7 C7.51093875 11.05831354 7.91678528 15.19576657 6.0234375 18.921875 C2.82383199 22.88703029 0.08894374 24.72752908 -4.875 25.375 C-10.18011457 24.73838625 -13.04095734 22.16094638 -16.375 18.125 C-18.21019695 14.59577511 -18.651794 12.91076402 -18 9 C-13.62738301 1.03559048 -8.93787047 -1.54829252 0 0 Z " fill="#F9FAFC" transform="translate(352,153)"/>
<path d="M0 0 C3.12001504 1.68818449 5.39047471 3.78094941 7 7 C7.51093875 11.05831354 7.91678528 15.19576657 6.0234375 18.921875 C2.82383199 22.88703029 0.08894374 24.72752908 -4.875 25.375 C-10.18011457 24.73838625 -13.04095734 22.16094638 -16.375 18.125 C-18.21019695 14.59577511 -18.651794 12.91076402 -18 9 C-13.62738301 1.03559048 -8.93787047 -1.54829252 0 0 Z " fill="#F9FAFC" transform="translate(381,124)"/>
<path d="M0 0 C3.29110633 2.10070617 4.8333853 3.75007795 7 7 C7.4353464 12.39829539 7.41010171 15.57949778 4 20 C1.09478883 23.38941303 -1.28280182 23.91632688 -5.75 24.4375 C-10.22242033 24.4044322 -12.45245693 22.55752835 -15.65234375 19.60546875 C-18.25139521 16.50920745 -18.39501004 12.99840829 -18.3515625 9.06640625 C-17.71315462 5.31398662 -15.72210538 3.59837332 -13 1 C-8.6420065 -1.69566608 -4.84052715 -1.21013179 0 0 Z " fill="#FBFBFD" transform="translate(195,394)"/>
<path d="M0 0 C3.00685978 1.79132072 4.52657334 3.24682123 6.375 6.1875 C7.30118795 10.3553458 7.32631144 13.91352692 6 18 C3.59638187 21.49487502 0.89990865 23.61094021 -3.2890625 24.46875 C-7.90083814 24.65383799 -11.44284711 24.13866432 -15 21 C-17.63824342 17.08812183 -18.60013158 13.61343427 -18.421875 8.9609375 C-17.6380264 5.31749306 -15.67324109 3.55173013 -13 1 C-8.63317982 -1.70112588 -4.84990364 -1.19515482 0 0 Z " fill="#FBFBFD" transform="translate(224,282)"/>
<path d="M0 0 C3.43761572 2.12108204 5.77560839 4.1042085 7 8 C7.46931049 12.2237944 7.28387834 14.45327135 5.3125 18.25 C2.54131763 21.54546012 0.45309777 23.64101008 -3.921875 24.28125 C-8.39638862 24.48310776 -11.49302023 24.00598266 -15 21 C-17.63824342 17.08812183 -18.60013158 13.61343427 -18.421875 8.9609375 C-17.6380264 5.31749306 -15.67324109 3.55173013 -13 1 C-8.63759734 -1.6983934 -4.84522333 -1.20265365 0 0 Z " fill="#FBFBFD" transform="translate(311,195)"/>
<path d="M0 0 C3.00685978 1.79132072 4.52657334 3.24682123 6.375 6.1875 C7.28714788 10.29216545 7.15950553 13.94906928 6 18 C3.80176185 20.70552388 2.10443333 22.44778333 -1 24 C-5.21226823 24.43032996 -8.91059104 24.42629046 -12.875 22.875 C-15.68985619 20.39130336 -16.80619986 18.58140041 -18 15 C-18.20284449 10.39948705 -17.61641015 6.99900955 -15.1875 3.0625 C-10.35355965 -1.49521518 -6.2615951 -1.54303594 0 0 Z " fill="#FBFBFD" transform="translate(195,311)"/>
<path d="M0 0 C3.93472545 1.59601314 6.6084335 3.41265025 9 7 C9.65237324 11.37433428 10.03401151 16.01269906 7.94921875 20.01953125 C5.56029553 22.9158364 3.565062 24.8310287 -0.20703125 25.23828125 C-7.24770268 25.43884011 -7.24770268 25.43884011 -11 23.25 C-14.63342269 19.16239947 -15.55004761 15.71538057 -15.4609375 10.32421875 C-14.65549538 6.26287923 -12.05462619 3.65894922 -9 1 C-5.88111322 -0.55944339 -3.4545855 -0.28316275 0 0 Z " fill="#E6E9F4" transform="translate(409,93)"/>
<path d="M0 0 C4.08998175 1.80720124 6.66247347 4.19069751 9 8 C9.62819266 13.0255413 9.03320735 15.95572354 6 20 C3.24705395 23.21177039 0.96958591 23.86947882 -3.25 24.4375 C-8.1843364 23.86182742 -10.79803186 21.71753928 -14 18 C-15.23534045 14.29397865 -15.45528745 11.90246386 -15 8 C-10.91704021 1.64314568 -7.65816344 -0.51919752 0 0 Z " fill="#F9F9FC" transform="translate(348,318)"/>
<path d="M0 0 C4.08998175 1.80720124 6.66247347 4.19069751 9 8 C9.62819266 13.0255413 9.03320735 15.95572354 6 20 C3.24705395 23.21177039 0.96958591 23.86947882 -3.25 24.4375 C-8.1843364 23.86182742 -10.79803186 21.71753928 -14 18 C-15.23534045 14.29397865 -15.45528745 11.90246386 -15 8 C-10.91704021 1.64314568 -7.65816344 -0.51919752 0 0 Z " fill="#F9F9FC" transform="translate(348,277)"/>
<path d="M0 0 C4.08998175 1.80720124 6.66247347 4.19069751 9 8 C9.62819266 13.0255413 9.03320735 15.95572354 6 20 C3.24705395 23.21177039 0.96958591 23.86947882 -3.25 24.4375 C-8.1843364 23.86182742 -10.79803186 21.71753928 -14 18 C-15.23534045 14.29397865 -15.45528745 11.90246386 -15 8 C-10.91704021 1.64314568 -7.65816344 -0.51919752 0 0 Z " fill="#F9F9FC" transform="translate(348,235)"/>
</svg>
