<?xml version="1.0" encoding="UTF-8"?>
<svg version="1.1" xmlns="http://www.w3.org/2000/svg" width="512" height="512">
<path d="M0 0 C168.96 0 337.92 0 512 0 C512 168.96 512 337.92 512 512 C343.04 512 174.08 512 0 512 C0 343.04 0 174.08 0 0 Z " fill="#981342" transform="translate(0,0)"/>
<path d="M0 0 C1.14984375 0.25136719 2.2996875 0.50273438 3.484375 0.76171875 C8.95865003 2.04858191 13.90158106 3.64688357 19 6 C20.2375 6.433125 21.475 6.86625 22.75 7.3125 C27.2166551 8.95171905 31.25133311 11.26574654 35.39453125 13.5859375 C37.49410904 14.72543849 39.54331093 15.72248896 41.75 16.625 C47.53230863 19.07136134 52.75537108 22.45736191 58.04736328 25.80541992 C72.83460211 35.08391238 87.8162848 42.05465832 104.55322266 47.08666992 C112.25017691 49.46862677 120.66069965 52.65523409 126 59 C126.82788086 60.82739258 126.82788086 60.82739258 127.46484375 62.89453125 C127.70557617 63.6743335 127.94630859 64.45413574 128.19433594 65.25756836 C128.43958008 66.1006958 128.68482422 66.94382324 128.9375 67.8125 C129.19692383 68.69107666 129.45634766 69.56965332 129.72363281 70.47485352 C132.85356293 81.46548482 134.866946 92.72591632 136.41650391 104.04150391 C137.59053333 112.40980246 139.55846993 120.3792273 141.875 128.5 C142.38353516 130.32337891 142.38353516 130.32337891 142.90234375 132.18359375 C144.53540297 138.0017553 146.23353835 143.79162424 148.0390625 149.55859375 C150.09073857 156.1720072 151.8351777 162.84238891 153.5 169.5625 C153.80188232 170.77977783 154.10376465 171.99705566 154.41479492 173.2512207 C156.91421554 183.44684386 159.2400453 193.64908001 161 204 C161.11714355 204.68433105 161.23428711 205.36866211 161.35498047 206.07373047 C164.51480765 225.45995103 164.06420482 245.52936784 160.41455078 264.79394531 C160.01531039 266.91852494 159.65738482 269.04632497 159.30859375 271.1796875 C158.08027582 278.15653337 156.34499652 284.16297715 153.19140625 290.5078125 C152.04916415 292.89715828 151.21622098 295.22234828 150.4375 297.75 C149.38036771 301.06740961 148.04728795 303.94147398 146.2265625 306.9296875 C144.58994346 309.69213364 143.12119795 312.53420124 141.625 315.375 C135.44308126 326.87469831 135.44308126 326.87469831 132 331 C131.34 331 130.68 331 130 331 C129.71125 331.7425 129.4225 332.485 129.125 333.25 C128.17697356 335.56739797 127.15154089 337.77917115 126 340 C125.34 340 124.68 340 124 340 C123.75507813 340.7115625 123.51015625 341.423125 123.2578125 342.15625 C119.5979989 350.43061119 112.97565924 356.94220845 105 361 C104.34 361 103.68 361 103 361 C102.10961503 358.54787027 101.75525853 356.72391952 102.60302734 354.21630859 C103.570349 352.16887173 104.60724074 350.17764835 105.6875 348.1875 C106.04005859 347.51396484 106.39261719 346.84042969 106.75585938 346.14648438 C108.19042269 343.40586525 109.63752512 340.67235567 111.10546875 337.94946289 C114.60955657 331.26254897 115.83756871 324.39236382 117 317 C117.10586426 316.32759277 117.21172852 315.65518555 117.32080078 314.96240234 C120.32724772 295.01312607 118.85200266 275.89640647 116 256 C115.86078125 255.00838867 115.7215625 254.01677734 115.578125 252.99511719 C113.1924922 236.36747748 109.28110044 220.23072204 105 204 C104.63476315 202.59131511 104.27006021 201.18249151 103.90625 199.7734375 C102.9639295 196.174748 101.9916997 192.58531019 101 189 C100.7740918 188.18257324 100.54818359 187.36514648 100.31542969 186.52294922 C98.23342448 179.00875456 96.11916895 171.5037846 94 164 C93.59501507 162.56283595 93.19006874 161.12566102 92.78515625 159.68847656 C91.70210321 155.84644085 90.61455628 152.00569668 89.5244751 148.16564941 C89.09896771 146.66491714 88.67456921 145.16386992 88.25140381 143.66247559 C86.86990194 138.76411 85.45138985 133.87809721 84 129 C83.79588501 128.303302 83.59177002 127.606604 83.38146973 126.88879395 C82.77452574 124.83927224 82.14481423 122.79816678 81.5078125 120.7578125 C81.14574707 119.57590332 80.78368164 118.39399414 80.41064453 117.17626953 C78.79059136 113.52848625 76.98912605 111.61981318 74 109 C73.22736816 108.31276855 72.45473633 107.62553711 71.65869141 106.91748047 C68.44431342 104.5992321 65.0526386 102.95226876 61.4609375 101.3203125 C60.73943512 100.98506561 60.01793274 100.64981873 59.27456665 100.30441284 C56.97765893 99.23809429 54.6767141 98.18089866 52.375 97.125 C42.74974364 92.69250489 33.21151576 88.25791771 24 83 C23.28972656 82.59958496 22.57945312 82.19916992 21.84765625 81.78662109 C19.99811756 80.74033924 18.1541757 79.68504626 16.3125 78.625 C15.69439453 78.27050781 15.07628906 77.91601562 14.43945312 77.55078125 C12.95904256 76.70155349 11.47942681 75.85094038 10 75 C10 74.34 10 73.68 10 73 C9.03578125 72.76925781 8.0715625 72.53851563 7.078125 72.30078125 C2.28609613 70.92939409 -1.89606173 68.57041927 -6.25 66.1875 C-7.94819017 65.27932404 -9.64740256 64.3730568 -11.34765625 63.46875 C-12.15605957 63.03820312 -12.96446289 62.60765625 -13.79736328 62.1640625 C-36.30074466 50.27134221 -65.06087816 43.5738419 -90.37890625 49.1640625 C-96.10994548 50.9918455 -101.53131981 53.51546382 -107 56 C-108.66232898 56.6774102 -110.32735336 57.34848221 -112 58 C-108.61921133 46.90324868 -101.29894934 38.60829285 -93.37011719 30.42578125 C-92.10246272 29.1066255 -90.86610786 27.75758353 -89.6328125 26.40625 C-82.64805055 18.97465143 -74.53113316 13.48798027 -66 8 C-65.30447021 7.55180908 -64.60894043 7.10361816 -63.89233398 6.6418457 C-44.48430724 -5.69347653 -21.72145707 -4.79931276 0 0 Z " fill="#BA9365" transform="translate(219,92)"/>
<path d="M0 0 C1.14984375 0.25136719 2.2996875 0.50273438 3.484375 0.76171875 C8.95865003 2.04858191 13.90158106 3.64688357 19 6 C20.2375 6.433125 21.475 6.86625 22.75 7.3125 C27.2166551 8.95171905 31.25133311 11.26574654 35.39453125 13.5859375 C37.49410904 14.72543849 39.54331093 15.72248896 41.75 16.625 C47.53230863 19.07136134 52.75537108 22.45736191 58.04736328 25.80541992 C72.83460211 35.08391238 87.8162848 42.05465832 104.55322266 47.08666992 C120.72063206 52.08995698 120.72063206 52.08995698 124.27563477 58.18823242 C124.63419556 59.08505737 124.63419556 59.08505737 125 60 C124.12730469 60.19851562 123.25460937 60.39703125 122.35546875 60.6015625 C118.05672178 62.3931241 116.15358057 64.79212418 113.3125 68.375 C112.26375307 69.65141377 111.21292952 70.92612383 110.16015625 72.19921875 C109.63437988 72.83907715 109.10860352 73.47893555 108.56689453 74.13818359 C106.22823612 76.91702576 103.74277862 79.5475204 101.25 82.1875 C96.90167433 86.86305134 93.14496143 91.73673038 89.55859375 97.015625 C89.04425781 97.67046875 88.52992188 98.3253125 88 99 C87.34 99 86.68 99 86 99 C84.19695845 104.30094216 82.49276376 109.60308488 81 115 C80.55269531 114.61328125 80.10539063 114.2265625 79.64453125 113.828125 C79.03996094 113.30734375 78.43539062 112.7865625 77.8125 112.25 C77.22082031 111.73953125 76.62914062 111.2290625 76.01953125 110.703125 C75.35308594 110.14109375 74.68664062 109.5790625 74 109 C73.28884033 108.3807666 72.57768066 107.7615332 71.8449707 107.12353516 C68.5761676 104.68364419 65.15362343 102.9981531 61.4609375 101.3203125 C60.73943512 100.98506561 60.01793274 100.64981873 59.27456665 100.30441284 C56.97765893 99.23809429 54.6767141 98.18089866 52.375 97.125 C42.74974364 92.69250489 33.21151576 88.25791771 24 83 C23.28972656 82.59958496 22.57945312 82.19916992 21.84765625 81.78662109 C19.99811756 80.74033924 18.1541757 79.68504626 16.3125 78.625 C15.69439453 78.27050781 15.07628906 77.91601562 14.43945312 77.55078125 C12.95904256 76.70155349 11.47942681 75.85094038 10 75 C10 74.34 10 73.68 10 73 C9.03578125 72.76925781 8.0715625 72.53851563 7.078125 72.30078125 C2.28609613 70.92939409 -1.89606173 68.57041927 -6.25 66.1875 C-7.94819017 65.27932404 -9.64740256 64.3730568 -11.34765625 63.46875 C-12.15605957 63.03820312 -12.96446289 62.60765625 -13.79736328 62.1640625 C-36.30074466 50.27134221 -65.06087816 43.5738419 -90.37890625 49.1640625 C-96.10994548 50.9918455 -101.53131981 53.51546382 -107 56 C-108.66232898 56.6774102 -110.32735336 57.34848221 -112 58 C-108.61921133 46.90324868 -101.29894934 38.60829285 -93.37011719 30.42578125 C-92.10246272 29.1066255 -90.86610786 27.75758353 -89.6328125 26.40625 C-82.64805055 18.97465143 -74.53113316 13.48798027 -66 8 C-65.30447021 7.55180908 -64.60894043 7.10361816 -63.89233398 6.6418457 C-44.48430724 -5.69347653 -21.72145707 -4.79931276 0 0 Z " fill="#FCD89F" transform="translate(219,92)"/>
<path d="M0 0 C1.65 0 3.3 0 5 0 C4.4740625 1.5778125 4.4740625 1.5778125 3.9375 3.1875 C3.02893791 6.88231917 2.94711916 8.45849172 4 12 C4.185625 12.763125 4.37125 13.52625 4.5625 14.3125 C4.706875 14.869375 4.85125 15.42625 5 16 C3.50260417 17.171875 2.00520833 18.34375 0.5078125 19.515625 C-1.10431255 20.94104479 -1.10431255 20.94104479 -1.9765625 22.96875 C-3.16251298 25.32254484 -4.48892981 26.5627462 -6.5 28.25 C-7.1084375 28.77078125 -7.716875 29.2915625 -8.34375 29.828125 C-10 31 -10 31 -12 31 C-13.30279747 27.37878336 -13.00049382 26.00121625 -11.5234375 22.36328125 C-10.82128258 21.00569275 -10.10439309 19.65565069 -9.375 18.3125 C-9.00761719 17.60931641 -8.64023437 16.90613281 -8.26171875 16.18164062 C-7.52568098 14.77283851 -6.78454688 13.36668609 -6.03808594 11.96337891 C-4.64644081 9.3312975 -3.32075307 6.66822657 -2 4 C-1.33333333 2.66666667 -0.66666667 1.33333333 0 0 Z " fill="#DAB995" transform="translate(334,422)"/>
<path d="M0 0 C0.99 0.33 1.98 0.66 3 1 C3 2.32 3 3.64 3 5 C3.66 5.33 4.32 5.66 5 6 C4.34 7.32 3.68 8.64 3 10 C3.66 10.33 4.32 10.66 5 11 C-1.435 13.97 -1.435 13.97 -8 17 C-8 13.59680268 -7.2193148 12.06738744 -5.6875 9.0625 C-5.25824219 8.20785156 -4.82898438 7.35320312 -4.38671875 6.47265625 C-3.08146834 4.14526607 -1.65352511 2.08993936 0 0 Z " fill="#FAD49F" transform="translate(116,133)"/>
<path d="M0 0 C7.27021355 10.90532032 9.70055741 29.1564475 9 42 C8.67 42 8.34 42 8 42 C7.84144531 41.25621094 7.68289063 40.51242188 7.51953125 39.74609375 C7.28621094 38.65425781 7.05289062 37.56242187 6.8125 36.4375 C6.544375 35.179375 6.27625 33.92125 6 32.625 C5.24774376 29.12073967 4.47071627 25.62246576 3.6875 22.125 C3.4608667 21.1047876 3.2342334 20.0845752 3.00073242 19.03344727 C2.54676742 16.99132943 2.08868578 14.95012179 1.6262207 12.90991211 C1.41570068 11.95866455 1.20518066 11.00741699 0.98828125 10.02734375 C0.79790283 9.17906006 0.60752441 8.33077637 0.41137695 7.45678711 C-0.01245701 4.9256054 -0.07238395 2.56147635 0 0 Z " fill="#EDC097" transform="translate(345,155)"/>
<path d="M0 0 C2.89589652 -0.02706445 5.79153795 -0.04687029 8.6875 -0.0625 C9.91243164 -0.07506836 9.91243164 -0.07506836 11.16210938 -0.08789062 C15.24499084 -0.10442051 19.01651707 -0.03035098 23 1 C18.25 5 18.25 5 16 5 C16 4.34 16 3.68 16 3 C15.09636719 3.03480469 14.19273437 3.06960937 13.26171875 3.10546875 C12.08222656 3.13253906 10.90273437 3.15960938 9.6875 3.1875 C8.51574219 3.22230469 7.34398437 3.25710937 6.13671875 3.29296875 C2.6443554 2.96678288 2.20155439 2.5016352 0 0 Z " fill="#ECBA90" transform="translate(184,89)"/>
<path d="M0 0 C1.32 0.33 2.64 0.66 4 1 C4 1.66 4 2.32 4 3 C4.66 2.67 5.32 2.34 6 2 C5.67 1.34 5.34 0.68 5 0 C7.97 0 10.94 0 14 0 C13.67 0.66 13.34 1.32 13 2 C13.66 2.66 14.32 3.32 15 4 C14.34 4 13.68 4 13 4 C13 4.66 13 5.32 13 6 C7.06 5.01 7.06 5.01 1 4 C0.67 2.68 0.34 1.36 0 0 Z " fill="#F6CD9B" transform="translate(165,137)"/>
<path d="M0 0 C6.93 0 13.86 0 21 0 C18 3 18 3 14.20703125 3.29296875 C12.74190067 3.2730801 11.27691633 3.23737968 9.8125 3.1875 C9.06291016 3.17396484 8.31332031 3.16042969 7.54101562 3.14648438 C5.69370233 3.11118539 3.84675934 3.05737917 2 3 C2 2.34 2 1.68 2 1 C1.34 0.67 0.68 0.34 0 0 Z " fill="#9D2049" transform="translate(137,139)"/>
<path d="M0 0 C0.55171875 0.38929688 1.1034375 0.77859375 1.671875 1.1796875 C0.38559789 2.35229361 -0.90732283 3.5176158 -2.203125 4.6796875 C-2.92242187 5.329375 -3.64171875 5.9790625 -4.3828125 6.6484375 C-6.328125 8.1796875 -6.328125 8.1796875 -8.328125 8.1796875 C-8.328125 7.5196875 -8.328125 6.8596875 -8.328125 6.1796875 C-9.978125 6.1796875 -11.628125 6.1796875 -13.328125 6.1796875 C-12.998125 5.1896875 -12.668125 4.1996875 -12.328125 3.1796875 C-12.328125 3.8396875 -12.328125 4.4996875 -12.328125 5.1796875 C-11.31492187 4.49519531 -11.31492187 4.49519531 -10.28125 3.796875 C-9.38921875 3.22195313 -8.4971875 2.64703125 -7.578125 2.0546875 C-6.69640625 1.47460938 -5.8146875 0.89453125 -4.90625 0.296875 C-2.328125 -0.8203125 -2.328125 -0.8203125 0 0 Z " fill="#9D2447" transform="translate(334.328125,447.8203125)"/>
<path d="M0 0 C1.65 0 3.3 0 5 0 C4.01 0.495 4.01 0.495 3 1 C3.185625 1.78375 3.37125 2.5675 3.5625 3.375 C4 6 4 6 3 8 C-0.77545388 6.90931332 -3.47043472 6.0916909 -6 3 C-5.195625 2.87625 -4.39125 2.7525 -3.5625 2.625 C-2.716875 2.41875 -1.87125 2.2125 -1 2 C-0.67 1.34 -0.34 0.68 0 0 Z " fill="#FADB9D" transform="translate(259,176)"/>
<path d="M0 0 C0.66 0.99 1.32 1.98 2 3 C1.49339844 3.79664063 1.49339844 3.79664063 0.9765625 4.609375 C0.30753906 5.66898438 0.30753906 5.66898438 -0.375 6.75 C-0.81585938 7.44609375 -1.25671875 8.1421875 -1.7109375 8.859375 C-2.91880906 10.86517383 -3.98387737 12.89178296 -5 15 C-5.33 15 -5.66 15 -6 15 C-6.17563129 10.5214021 -6.22085338 6.97415868 -4 3 C-3.01 2.67 -2.02 2.34 -1 2 C-0.67 1.34 -0.34 0.68 0 0 Z " fill="#9F2249" transform="translate(113,133)"/>
<path d="M0 0 C2 3 2 3 2 6 C2.66 6 3.32 6 4 6 C3.25 7.9375 3.25 7.9375 2 10 C-0.125 10.75 -0.125 10.75 -2 11 C-3.14947895 7.44706507 -3.0868937 6.20023331 -1.5625 2.6875 C-1.046875 1.800625 -0.53125 0.91375 0 0 Z " fill="#DAB295" transform="translate(324,442)"/>
<path d="M0 0 C0.99 1.485 0.99 1.485 2 3 C2.66 3.66 3.32 4.32 4 5 C4.90238747 7.70716242 5.11851302 9.23776768 5.09765625 12.01171875 C5.09443359 12.76904297 5.09121094 13.52636719 5.08789062 14.30664062 C5.07951172 15.09232422 5.07113281 15.87800781 5.0625 16.6875 C5.05798828 17.48478516 5.05347656 18.28207031 5.04882812 19.10351562 C5.0370585 21.06904257 5.01912348 23.03453085 5 25 C4.67 25 4.34 25 4 25 C0.74031891 8.29157175 0.74031891 8.29157175 0 0 Z " fill="#BD7F69" transform="translate(329,312)"/>
<path d="M0 0 C1.78139294 3.23606752 2.77180919 6.42657245 3.6875 10 C3.95949219 11.03125 4.23148437 12.0625 4.51171875 13.125 C4.98122716 15.88946552 4.93214283 17.39750728 4 20 C3.34 18.68 2.68 17.36 2 16 C1.34 17.32 0.68 18.64 0 20 C0 17.69 0 15.38 0 13 C0.66 13 1.32 13 2 13 C1.67 11.783125 1.34 10.56625 1 9.3125 C0.19677787 6.12789396 -0.20641973 3.3027157 0 0 Z " fill="#BB8267" transform="translate(371,260)"/>
<path d="M0 0 C0.70769531 0.38285156 1.41539062 0.76570312 2.14453125 1.16015625 C2.85996094 1.54042969 3.57539063 1.92070312 4.3125 2.3125 C4.85519531 2.61285156 5.39789063 2.91320312 5.95703125 3.22265625 C5.95703125 4.21265625 5.95703125 5.20265625 5.95703125 6.22265625 C3.31703125 5.56265625 0.67703125 4.90265625 -2.04296875 4.22265625 C-2.04296875 3.56265625 -2.04296875 2.90265625 -2.04296875 2.22265625 C-3.03296875 2.22265625 -4.02296875 2.22265625 -5.04296875 2.22265625 C-5.04296875 1.56265625 -5.04296875 0.90265625 -5.04296875 0.22265625 C-2.04296875 -0.77734375 -2.04296875 -0.77734375 0 0 Z " fill="#9C1D45" transform="translate(285.04296875,194.77734375)"/>
<path d="M0 0 C1.65 0.33 3.3 0.66 5 1 C2.1875 8.09821429 2.1875 8.09821429 -1 11 C-1.0270043 9.54176788 -1.04639787 8.08339325 -1.0625 6.625 C-1.07410156 5.81289063 -1.08570313 5.00078125 -1.09765625 4.1640625 C-1 2 -1 2 0 0 Z " fill="#9A1E45" transform="translate(323,434)"/>
<path d="M0 0 C3.62958344 6.04930573 3.13917321 13.18051258 3 20 C2.67 20 2.34 20 2 20 C1.46535565 17.79496964 0.94785565 15.58577828 0.4375 13.375 C0.14746094 12.14523438 -0.14257812 10.91546875 -0.44140625 9.6484375 C-0.99059728 6.06141357 -0.81517436 3.50902871 0 0 Z " fill="#E6AF8F" transform="translate(351,177)"/>
<path d="M0 0 C-0.99 1.485 -0.99 1.485 -2 3 C-4.64 2.01 -7.28 1.02 -10 0 C-10 -0.66 -10 -1.32 -10 -2 C-5.82412255 -3.39195915 -3.86525224 -1.82323219 0 0 Z " fill="#F7CF9A" transform="translate(274,116)"/>
<path d="M0 0 C0.33 0.66 0.66 1.32 1 2 C1.66 2.33 2.32 2.66 3 3 C0.03 4.65 -2.94 6.3 -6 8 C-5 3 -5 3 -2.4375 1.1875 C-1.633125 0.795625 -0.82875 0.40375 0 0 Z " fill="#9D2047" transform="translate(150,98)"/>
<path d="M0 0 C0.33 0.66 0.66 1.32 1 2 C0.525625 2.763125 0.05125 3.52625 -0.4375 4.3125 C-2.12749356 7.21928892 -2.28205672 8.70933821 -2 12 C-3.65 12.66 -5.3 13.32 -7 14 C-5.53967505 8.68972746 -3.01679014 4.53669968 0 0 Z " fill="#F4C299" transform="translate(114,136)"/>
<path d="M0 0 C0.66 0.33 1.32 0.66 2 1 C0.92646259 2.4655595 -0.1592554 3.92220152 -1.25 5.375 C-1.85328125 6.18710937 -2.4565625 6.99921875 -3.078125 7.8359375 C-4.97181904 9.96826778 -6.38328518 10.94636704 -9 12 C-8.67 11.01 -8.34 10.02 -8 9 C-7.34 9 -6.68 9 -6 9 C-5.7525 8.2575 -5.505 7.515 -5.25 6.75 C-3.90852699 3.79875938 -2.39094474 2.15185026 0 0 Z " fill="#BD9070" transform="translate(337,438)"/>
<path d="M0 0 C1.32 0.33 2.64 0.66 4 1 C4.125 4.375 4.125 4.375 4 8 C3.34 8.66 2.68 9.32 2 10 C0.68373308 6.38026598 0 3.90432869 0 0 Z " fill="#BA8464" transform="translate(305,224)"/>
<path d="M0 0 C7.71428571 4 7.71428571 4 9 8 C7.02 8.33 5.04 8.66 3 9 C3 8.34 3 7.68 3 7 C3.99 7 4.98 7 6 7 C6 6.34 6 5.68 6 5 C5.38125 4.9175 4.7625 4.835 4.125 4.75 C2 4 2 4 0.75 1.9375 C0.5025 1.298125 0.255 0.65875 0 0 Z " fill="#F2C39A" transform="translate(335,144)"/>
<path d="M0 0 C0.66 0.33 1.32 0.66 2 1 C1.38722388 3.96175123 0.74627478 5.38058783 -1 8 C-1 8.99 -1 9.98 -1 11 C-1.66 11 -2.32 11 -3 11 C-3.75 9.4375 -3.75 9.4375 -4 7 C-2.86915563 4.49713591 -1.47860484 2.32992278 0 0 Z " fill="#FAD9A0" transform="translate(115,136)"/>
<path d="M0 0 C1.80330533 3.60661066 2.46599103 6.08393425 3 10 C1.68 10 0.36 10 -1 10 C-0.67 6.7 -0.34 3.4 0 0 Z " fill="#9D2249" transform="translate(308,238)"/>
<path d="M0 0 C2.95662966 0.22743305 4.55033688 0.61235938 6.8125 2.5625 C7.204375 3.036875 7.59625 3.51125 8 4 C7.67 4.66 7.34 5.32 7 6 C6.34 6 5.68 6 5 6 C5 5.34 5 4.68 5 4 C2.69 3.34 0.38 2.68 -2 2 C-1.34 1.34 -0.68 0.68 0 0 Z " fill="#F3C89A" transform="translate(224,161)"/>
<path d="M0 0 C2.475 0.99 2.475 0.99 5 2 C5.33 1.34 5.66 0.68 6 0 C6.66 1.65 7.32 3.3 8 5 C7.01 5.495 7.01 5.495 6 6 C4.0546875 5.22265625 4.0546875 5.22265625 1.875 4.0625 C1.15054688 3.68222656 0.42609375 3.30195312 -0.3203125 2.91015625 C-0.87460938 2.60980469 -1.42890625 2.30945313 -2 2 C-1.34 1.34 -0.68 0.68 0 0 Z " fill="#A02848" transform="translate(248,100)"/>
<path d="M0 0 C1.65 0 3.3 0 5 0 C4.67 0.66 4.34 1.32 4 2 C3.01 1.67 2.02 1.34 1 1 C0.855625 1.78375 0.71125 2.5675 0.5625 3.375 C0 6 0 6 -1 8 C-1.66 8 -2.32 8 -3 8 C-1.125 2.25 -1.125 2.25 0 0 Z " fill="#D4A68D" transform="translate(334,422)"/>
<path d="M0 0 C0.99 0.33 1.98 0.66 3 1 C3 1.66 3 2.32 3 3 C4.65 3.33 6.3 3.66 8 4 C8 4.66 8 5.32 8 6 C4.22454612 4.90931332 1.52956528 4.0916909 -1 1 C-0.67 0.67 -0.34 0.34 0 0 Z " fill="#F2BE98" transform="translate(254,178)"/>
<path d="M0 0 C2.96175123 0.61277612 4.38058783 1.25372522 7 3 C6 4 6 4 2.9375 4.0625 C1.4834375 4.0315625 1.4834375 4.0315625 0 4 C0 2.68 0 1.36 0 0 Z " fill="#9F2549" transform="translate(189,147)"/>
<path d="M0 0 C3.9492568 0.55105909 7.34920174 1.38935371 11 3 C10.67 3.66 10.34 4.32 10 5 C6.51329166 3.8905928 3.22515763 2.73662334 0 1 C0 0.67 0 0.34 0 0 Z " fill="#F6C59D" transform="translate(293,129)"/>
<path d="M0 0 C0.33 0.66 0.66 1.32 1 2 C3.02463255 2.65213292 3.02463255 2.65213292 5 3 C4.67 3.99 4.34 4.98 4 6 C0.62496331 4.8141763 -1.64722731 3.72426311 -4 1 C-2 0 -2 0 0 0 Z " fill="#9F2A49" transform="translate(275,113)"/>
<path d="M0 0 C2 3 2 3 2 6 C2.66 6 3.32 6 4 6 C3.67 6.99 3.34 7.98 3 9 C1.35 7.68 -0.3 6.36 -2 5 C-1.34 3.35 -0.68 1.7 0 0 Z " fill="#D5A98C" transform="translate(324,442)"/>
<path d="M0 0 C2 4 2 4 2 6 C-0.5 7.625 -0.5 7.625 -3 9 C-2.01 6.03 -1.02 3.06 0 0 Z " fill="#9E2A4C" transform="translate(373,378)"/>
<path d="M0 0 C0.33 0.99 0.66 1.98 1 3 C2.32 2.67 3.64 2.34 5 2 C5.33 3.32 5.66 4.64 6 6 C0.25 4.125 0.25 4.125 -2 3 C-2 2.34 -2 1.68 -2 1 C-1.34 0.67 -0.68 0.34 0 0 Z " fill="#F8C99E" transform="translate(211,153)"/>
<path d="M0 0 C5.75 1.75 5.75 1.75 8 4 C5.69 4.33 3.38 4.66 1 5 C1.66 4.67 2.32 4.34 3 4 C3 3.34 3 2.68 3 2 C2.01 2 1.02 2 0 2 C0 1.34 0 0.68 0 0 Z " fill="#9C2144" transform="translate(201,152)"/>
<path d="M0 0 C0.66 0.33 1.32 0.66 2 1 C1.34 2.98 0.68 4.96 0 7 C-0.66 7 -1.32 7 -2 7 C-2.33 7.99 -2.66 8.98 -3 10 C-3.33 9.01 -3.66 8.02 -4 7 C-3.01 6.67 -2.02 6.34 -1 6 C-0.67 4.02 -0.34 2.04 0 0 Z " fill="#BB8568" transform="translate(351,416)"/>
<path d="M0 0 C0.66 0.99 1.32 1.98 2 3 C0.68 4.32 -0.64 5.64 -2 7 C-2.33 6.01 -2.66 5.02 -3 4 C-1.5625 1.8125 -1.5625 1.8125 0 0 Z " fill="#B78862" transform="translate(356,409)"/>
<path d="M0 0 C0.99 0.33 1.98 0.66 3 1 C2.67 2.98 2.34 4.96 2 7 C1.01 6.34 0.02 5.68 -1 5 C-0.67 3.35 -0.34 1.7 0 0 Z " fill="#F6D19B" transform="translate(298,200)"/>
<path d="M0 0 C2.97 0.495 2.97 0.495 6 1 C3.03312999 2.64826111 0.34373475 3.44271087 -3 4 C-2.67 3.34 -2.34 2.68 -2 2 C-1.34 2 -0.68 2 0 2 C0 1.34 0 0.68 0 0 Z " fill="#A1294D" transform="translate(223,164)"/>
<path d="M0 0 C2.16874252 0.50603992 3.99967627 0.99983813 6 2 C6 2.99 6 3.98 6 5 C3.69 4.34 1.38 3.68 -1 3 C-0.67 2.01 -0.34 1.02 0 0 Z " fill="#F3C89C" transform="translate(194,146)"/>
<path d="M0 0 C0.99 0.33 1.98 0.66 3 1 C3 2.65 3 4.3 3 6 C2.01 6.495 2.01 6.495 1 7 C0.34 5.02 -0.32 3.04 -1 1 C-0.67 0.67 -0.34 0.34 0 0 Z " fill="#F3C993" transform="translate(116,133)"/>
<path d="M0 0 C0.33 0.66 0.66 1.32 1 2 C0.0625 4.125 0.0625 4.125 -1 6 C-2.32 6 -3.64 6 -5 6 C-4.1875 3.5625 -4.1875 3.5625 -3 1 C-2.01 0.67 -1.02 0.34 0 0 Z " fill="#9D2448" transform="translate(366,400)"/>
<path d="M0 0 C0 3.90838866 -1.50567876 5.11594107 -4 8 C-4.99 7.67 -5.98 7.34 -7 7 C-4.69 4.69 -2.38 2.38 0 0 Z " fill="#F1C096" transform="translate(137,111)"/>
</svg>
