<svg id="Layer_1" data-name="Layer 1" xmlns="http://www.w3.org/2000/svg" xmlns:xlink="http://www.w3.org/1999/xlink" viewBox="0 0 635.25 472.5"><defs><style>.cls-1{fill:url(#linear-gradient);}.cls-2,.cls-9{fill:#fad10e;}.cls-3{fill:#eb7024;}.cls-4{fill:#fad633;}.cls-12,.cls-13,.cls-14,.cls-15,.cls-17,.cls-5,.cls-6{fill:none;}.cls-12,.cls-13,.cls-15,.cls-16,.cls-5,.cls-6,.cls-9{stroke:#292216;}.cls-12,.cls-13,.cls-14,.cls-5,.cls-6,.cls-9{stroke-miterlimit:10;}.cls-12,.cls-14,.cls-16,.cls-5,.cls-9{stroke-width:3.12px;}.cls-6{stroke-width:4.69px;}.cls-7{fill:#dd7726;}.cls-8{fill:url(#linear-gradient-2);}.cls-10,.cls-16{fill:#292216;}.cls-11{fill:#f78f20;}.cls-12,.cls-14,.cls-16{stroke-linecap:round;}.cls-13{stroke-width:1.56px;}.cls-14{stroke:#2c2115;}.cls-15{stroke-miterlimit:10;stroke-width:3.12px;}.cls-16{stroke-linejoin:round;}.cls-18{isolation:isolate;}.cls-19{font-size:3.63px;fill:#010101;font-family:ArialMT, Arial;}</style><linearGradient id="linear-gradient" x1="125.67" y1="175.25" x2="395.12" y2="247.45" gradientTransform="matrix(1, 0, 0, -1, 130.54, 529.97)" gradientUnits="userSpaceOnUse"><stop offset="0.03" stop-color="#fac928"/><stop offset="0.06" stop-color="#f6bf26"/><stop offset="0.23" stop-color="#e88b27"/><stop offset="0.41" stop-color="#dd5f2a"/><stop offset="0.57" stop-color="#d23d2c"/><stop offset="0.73" stop-color="#cb202f"/><stop offset="0.88" stop-color="#c62030"/><stop offset="0.99" stop-color="#c52031"/></linearGradient><linearGradient id="linear-gradient-2" x1="367.47" y1="357.93" x2="494.18" y2="357.93" gradientTransform="matrix(1, 0, 0, -1, 0, 514)" gradientUnits="userSpaceOnUse"><stop offset="0.03" stop-color="#f28322"/><stop offset="0.48" stop-color="#dc472a"/><stop offset="0.82" stop-color="#cb202e"/><stop offset="0.99" stop-color="#c52031"/></linearGradient></defs><g id="sun"><circle id="sun-2" data-name="sun" class="cls-1" cx="390.93" cy="318.62" r="139.44"/></g><g id="ribbons"><g id="left"><path id="bg_yel_l" class="cls-2" d="M244.41,316.3c-25.12-10.8-25.12-26.69-18.76-38.92,3.93-9.54,1.42-18.53-5.85-17.74-6.11.67-9.44,5.66-5.84,20.25,4.72,17.16-3.48,33.08-26.78,30.72s-23.61-28.36-23.49-34.84c.24-10.95-5.66-27.87-18.77-20.79-11.65,6.3,4.72,23.94,7.08,25.85,5.66,3.87,23.89,29.54,5.36,40.59-18.67,9.68-29.87-3.64-34.9-12.29-2.39-4.48-14.37-9.78-12.31,14.77,2.23,25.85-8.93,36.08-29.82,29-12-4.05-22.46-8.71-26.36-9.77-1.73-.49-6.12-1.67-15.89,5.51s-23.64,3-26.24-6.12c1.18.4,10.44.24,15-12.29s11-21.79,19.58-21.55c4.45.13,14.56,3.42,17.41,8.93,1.27,3.09,14.31,11.87,19.82,7.75s4.06-7.57,2.79-21.28.54-18.52,5.14-21.43c4.84-3.05,10.32-5.9,23.79.55s19,5.84,21,1.66,0-9-2.45-11.2-10.6-12.25-6.91-26.75,15-19.83,25.73-19.34,22.85,4,32.45,20.4c8.5,15.13,12.65,9,14,7.23s2.57-4.81-.54-10.47c-4.09-7.23-1.33-20.64,12.38-22.37s26.24,12.05,29.69,20.1,4.33,9.62,5.75,24.58c.91,10.44,6.45,14.1,10,14.1s12-6.51,8-29.75c3.09,2.84,13.47,24.64,13.47,24.64l-3,20.88-12.44,12.14C262.6,309.13,259.06,311.34,244.41,316.3Z" transform="translate(130.54 15.97)"/><path id="bg_orange_l" class="cls-3" d="M12.26,342.88l1.7-.1s3.36,3.18,6.44,2.94,12.26-3.3,13.65-5.05,7.45-6.51,8.21-7.69,7.2-3.12,8.71-2.63,6.75,1.78,10.11,4,15.5,9.69,22,10.71,12.38.34,15.77-6,4.08-15.13,3.35-19.22.25-13.65,1.85-15.37,5.39-4.27,7.72-3.45,9.41,4.69,9.41,4.69l9.69,3.3s11.35,1.57,14.92-1.46,7.66-6.81,8.14-12.35-3.9-16.55-3.9-16.55l2,2.09s10.41,9.86,11.83,17.73,4.45,12.44-2.33,20c-5.9,6.57-17.43,7.08-23.28,5.18-9.17-3-16.86-16.05-16.86-16.05a6.55,6.55,0,0,0-5.9-2.48c-3.78.49-5.08,7.87-5.08,7.87l-.27,11.78s1,11.86-1.61,18.82S99,358.16,83.06,353.5a207.18,207.18,0,0,1-27.34-10.05l-6.2-.63-9.6,4.51s-9.14,7.35-18.94,3.81C13.8,348.57,12.26,342.88,12.26,342.88Z" transform="translate(130.54 15.97)"/><path id="bg_yel_r" class="cls-4" d="M194.11,257.92s2.78.9,5.14-2.88a8.32,8.32,0,0,0,.43-8.63c-.88-1.93-4.3-7.17-2.58-11.41s6.24-15.16,19.34-12.41,22.1,14.77,23.79,18.8,6,15.53,6.42,24.39,3.69,14.65,9,15.68,10.44-9.5,10.11-17.85-1.6-12.05-1.6-12.05l6.68,10.05,4.94,33.56-9.29,4.27s-21.34,3-25.4-15.13-7.47-30.81-7.47-30.81l-9.51-13.11L212,239.88l-3.78,7.62s0,8.9-3.66,11.26-10.63-.94-10.63-.94" transform="translate(130.54 15.97)"/><path id="bg_orange_r" class="cls-3" d="M172.28,233.58l4.85,5.9s5.9,6.84,5.32,15.71-1.3,25.64,1.79,30.36,8.5,10.74,15.47,9.44,9.56-16.31,9-20.79,2.17-15.38,10.17-14.65c7.59.67,11.1,4.27,7.56,16.31s-9.68,16.89,2.61,31c10.62,7.56,15.82,9.68,15.82,9.68l11.81,1.3,11.35-8.5.94-8.05-2.85-1.79s-16.19,1.55-21.52-8.14-9.32-34.14-10.05-35.93-7.71-18.76-19.19-16.49c-9.65,1.9-6.38,8.26-7.53,13.41s-6.75,11.23-14,5.44-11.92-15.25-11.92-15.25Z" transform="translate(130.54 15.97)"/><path id="div_l" class="cls-5" d="M14,342.69a9.32,9.32,0,0,0,7.56,2.85,27.92,27.92,0,0,0,17.16-9.14c5.51-6.24,11.2-9,22.7-1.82s26,14.89,33.57,8.9,7.51-14,6.93-26.54c-.75-16,8.17-16.56,10.81-15.41,4.24,1.85,24.82,14.47,35.68,4.15s2.36-25.76-.48-29.39" transform="translate(130.54 15.97)"/><path id="div_r_b" class="cls-5" d="M170.74,232.61s11.93,9.45,11.59,20.61-2.72,32,6.45,38.35c2.78,1.88,6,3.73,9.05,3.54s9.81-1.36,10.47-18.13,7-18.13,12.68-17.52" transform="translate(130.54 15.97)"/><path id="div_r_t" class="cls-5" d="M191.59,256.52s8.75,6.84,13.81,1.15a10.64,10.64,0,0,0,2.21-4.45c.66-3-.25-10.2,4.08-13.13s21-6.15,26.64,33.17c4.08,24.34,13.95,26.3,28.51,26.24" transform="translate(130.54 15.97)"/><path id="outline" class="cls-6" d="M244.41,316.3c-25.12-10.8-25.12-26.69-18.76-38.92,3.93-9.54,1.42-18.53-5.85-17.74-6.11.67-9.44,5.66-5.84,20.25,4.72,17.16-3.48,33.08-26.78,30.72s-23.61-28.36-23.49-34.84c.24-10.95-5.66-27.87-18.77-20.79-11.65,6.3,4.72,23.94,7.08,25.85,5.66,3.87,23.89,29.54,5.36,40.59-18.67,9.68-29.87-3.64-34.9-12.29-2.39-4.48-14.37-9.78-12.31,14.77,2.23,25.85-8.93,36.08-29.82,29-12-4.05-22.46-8.71-26.36-9.77-1.73-.49-6.12-1.67-15.89,5.51s-23.64,3-26.24-6.12c1.18.4,10.44.24,15-12.29s11-21.79,19.58-21.55c4.45.13,14.56,3.42,17.41,8.93,1.27,3.09,14.31,11.87,19.82,7.75s4.06-7.57,2.79-21.28.54-18.52,5.14-21.43c4.84-3.05,10.32-5.9,23.79.55s19,5.84,21,1.66,0-9-2.45-11.2-10.6-12.25-6.91-26.75,15-19.83,25.73-19.34,22.85,4,32.45,20.4c8.5,15.13,12.65,9,14,7.23s2.57-4.81-.54-10.47c-4.09-7.23-1.33-20.64,12.38-22.37s26.24,12.05,29.69,20.1,4.33,9.62,5.75,24.58c.91,10.44,6.45,14.1,10,14.1s12-6.51,8-29.75c3.09,2.84,13.47,24.64,13.47,24.64l-3,20.88-12.44,12.14C262.6,309.13,259.06,311.34,244.41,316.3Z" transform="translate(130.54 15.97)"/></g><g id="right"><path id="bg_orange_l-2" data-name="bg_orange_l" class="cls-7" d="M347.2,245.26S366.36,235,355,213c3.08,2,11.92,13.23,12.53,16.68s4.84,6.26.48,16.19a19.59,19.59,0,0,1-13.59,11.47Z" transform="translate(130.54 15.97)"/><path id="bg_yellow" class="cls-2" d="M355,257.22s32.29-10.56.63-44c-7.08-6.63-6-14.35-5.2-16.37S356.31,184,362,184s15.28-.78,18.76,1.73,10.42,5.66,12.93,9,7.72,7.56,13.71,4.72,6.63-12.29.79-20.34-10.87-16.71-8.05-22.52,8.83-12,24.72-11.35,17.8-18.92,17.8-18.92l4.27-21.91s6-15.44,18.43-17.34,19.86-2.85,19.86-2.85-15.14,3.48-18.28,17.65-2.06,36.41-2.06,36.41-3.48,17.16-22.22,16.37-25.7,8.21-23.79,20.16c1.09,7.23,12.44,11.81,10.56,24.43s-13.07,19.55-19.06,17.49c-9.78.79-26.64-22.21-36.57-17.34s-4.57,15-4.57,15a119.47,119.47,0,0,0,14.65,17.95c9.29,9.44,8.84,18.43,2.51,21.28s-11.8,2.05-12.28,12.77-10.72,13.08-10.72,13.08Z" transform="translate(130.54 15.97)"/><path id="bg_gradient" class="cls-8" d="M379,226.47s-16.86-16.71-9.78-23.64a12.3,12.3,0,0,1,14.65-2.51l18.92,14s8.84,5.06,16.37.3,13.41-13.22,8.84-24.91S411.27,174,423.26,159c3-1.72,4.09-4.72,26.48-5.05,4.27-1.73,19.71-5.06,15.14-29.94-2.51-25.69,9-40.65,29.3-39.71-4.57,2.06-10.08,2.91-14.92,10.78a32.42,32.42,0,0,0-4.94,15.07s6.78,33.08-6.29,45.7c-12,13.05-27.88,8.9-30.91,15.26s-.3,9.17-.3,9.17,17.65,20.46.33,38.29c-17.79,18.91-32.63,3.15-32.63,3.15S389.39,210.3,384,212.39a10.18,10.18,0,0,0-6.44,6.81Z" transform="translate(130.54 15.97)"/><path id="outline-2" data-name="outline" class="cls-6" d="M347.14,245.14s19.31-10.8,8.11-31.75c-10-8.84-5.6-30.81,13.86-30,8.66.15,19,4.57,24.58,11.35s13.95,5.9,16.37,2.12,3.7-9.45-3.87-19.47-15.44-29.87,16.47-32.62c13.55-1.09,17.34-2.61,20.64-23.1s4.33-39.47,50.33-37.35c0,0-21.64,8.51-18.67,28.91,2.45,16.86,2.06,28-4,38.77-5.66,10.08-14.59,13.56-23.73,14.5s-14,7.63-9.53,15.28,9.83,16.32,5.9,26.15-9.81,17.32-19.31,20c-11.74,3.24-21-6.39-23.88-8.26s-13.8-11.35-20.1-5.36,1.67,14.89,3.54,17.4,7.81,8.6,7.24,13.71-2.06,8.36-9.78,10.42c-4.09,1.18-6.84,1.09-7.48,10.32s-5.2,11.74-10.71,12.44-9.84-7-9.84-7l-6.54-26.4h.43Z" transform="translate(130.54 15.97)"/><path id="div_l-2" data-name="div_l" class="cls-5" d="M354.07,212.15s16.46,14.26,15.68,27.48-15.44,17.56-15.44,17.56" transform="translate(130.54 15.97)"/><path id="div_r" class="cls-5" d="M382.13,229.46s-18.28-14.89-14-24.33,14.65-6,16.38-4.72,11.5,8.5,14.41,11.11,15.28,11.5,25.75-1.28.64-24.91-1.81-28.66c-8.45-8.44-6.24-26.94,16.07-26.94,20.94.55,25.21-11.59,25.91-15.43,1.93-10.48-9.84-55.94,29.39-54.91" transform="translate(130.54 15.97)"/></g></g><g id="fish"><path id="body" class="cls-9" d="M200.77,370.18c6.14,3.78,20.79,12.77,36.41,12.29A57.82,57.82,0,0,1,257,384.83s12.78,3.78,31.66,2.84,31.21-5.2,37.81-8.5,28.36-37.35,28.36-37.35,10.41-28.36,10.86-37.35c1.42-14.65,0-51.52-50.57-92.65,0,0-31.66-24.58-32.15-51.52s32.15-34.5,43.5-23.15c5.66-31.21-47.28-52-64.05-3.78-12.53-30.27-62.17-25.07-67.83,9.44,6.15-5.66,42.56-9,50.58,16.55,2.84,8.51,3.3,35.45,3.3,43.5.48,18.92,0,36.41,12.77,46.34,15.59,11.8,13.23,45.85,6.14,50.12-1.87.94-8.89,4.72-11.8,8.05a16.3,16.3,0,0,0-9.93,8.05,10.21,10.21,0,0,1-3.78,1.88c-14.11-.76-68.07-6-80.85,26.94l1.88.94s4.72,10.41,15.13,13.22C188,361.67,200.77,370.18,200.77,370.18Z" transform="translate(130.54 15.97)"/><g id="scales"><g id="below_ribbon"><path class="cls-10" d="M267.57,366a6,6,0,0,1,2.66,2.57,5.75,5.75,0,0,1,.6,1.88,5,5,0,0,1-.15,2,5.48,5.48,0,0,1-.39.94,7,7,0,0,1-.58.84,5.2,5.2,0,0,1-1.54,1.24,6.44,6.44,0,0,1-3.63.76c.54-.27,1.09-.48,1.6-.76a9.33,9.33,0,0,0,1.4-.9,5,5,0,0,0,1.75-2.49,5.31,5.31,0,0,0-.12-3.05A9.1,9.1,0,0,0,267.57,366Z" transform="translate(130.54 15.97)"/><path class="cls-10" d="M263.84,375.87a3.65,3.65,0,0,1,1.85.66,5,5,0,0,1,1.36,1.49,6.18,6.18,0,0,1,.79,4,5,5,0,0,1-.67,2,4.56,4.56,0,0,1-1.39,1.54,4.86,4.86,0,0,1-1.91.76,5.21,5.21,0,0,1-1.93-.09,8.91,8.91,0,0,0,1.72-.58,4.26,4.26,0,0,0,1.39-.94,4.85,4.85,0,0,0,1.37-2.84,6.35,6.35,0,0,0-.4-3.27A4.65,4.65,0,0,0,263.84,375.87Z" transform="translate(130.54 15.97)"/><path class="cls-10" d="M306.88,375.2a3.57,3.57,0,0,1,1.85.67,4.92,4.92,0,0,1,1.36,1.48,6.2,6.2,0,0,1,.79,4,4.92,4.92,0,0,1-.67,2,4.59,4.59,0,0,1-1.39,1.55,5,5,0,0,1-1.91.75,5.21,5.21,0,0,1-1.93-.09,9.64,9.64,0,0,0,1.72-.57,4.6,4.6,0,0,0,1.39-.94,4.91,4.91,0,0,0,1.37-2.85,6.35,6.35,0,0,0-.4-3.27A4.8,4.8,0,0,0,306.88,375.2Z" transform="translate(130.54 15.97)"/><path class="cls-10" d="M294.9,365.27a4.24,4.24,0,0,1,1.72.43A3.27,3.27,0,0,1,298,367a3.18,3.18,0,0,1,.37.94,5.55,5.55,0,0,1,.09,1,5.11,5.11,0,0,1-.43,1.84,8.15,8.15,0,0,1-2.11,2.88,10,10,0,0,1-2.91,1.87c.7-.9,1.42-1.75,2.09-2.63a14,14,0,0,0,1.63-2.69,4.92,4.92,0,0,0,.4-1.4,5.31,5.31,0,0,0,0-.69,2.69,2.69,0,0,0-.15-.67A4.65,4.65,0,0,0,294.9,365.27Z" transform="translate(130.54 15.97)"/><path class="cls-10" d="M276.28,376.78a1.49,1.49,0,0,1,.91-.1,3.2,3.2,0,0,1,.91.28,4.91,4.91,0,0,1,1.51,1.12,6.45,6.45,0,0,1,1.61,3.42,5.24,5.24,0,0,1-.09,1.93,5.83,5.83,0,0,1-1.94,3.15,6.89,6.89,0,0,1-1.52,1,11.87,11.87,0,0,0,1.76-2.88,5.68,5.68,0,0,0,.39-3,7,7,0,0,0-1.06-2.91,6.66,6.66,0,0,0-1-1.24,3.57,3.57,0,0,0-.64-.48A2.93,2.93,0,0,0,276.28,376.78Z" transform="translate(130.54 15.97)"/><path class="cls-10" d="M294.41,376.2a1.87,1.87,0,0,1,.91-.12,3.14,3.14,0,0,1,.91.24,6,6,0,0,1,1.6,1,6.55,6.55,0,0,1,2.06,3.21,4.83,4.83,0,0,1,.15,2,5,5,0,0,1-.57,1.87,5.76,5.76,0,0,1-2.73,2.45,9.69,9.69,0,0,0,1.7-2.9,5.22,5.22,0,0,0,.06-3,7.5,7.5,0,0,0-1.48-2.78,8.55,8.55,0,0,0-1.15-1.18A2.74,2.74,0,0,0,294.41,376.2Z" transform="translate(130.54 15.97)"/><path class="cls-10" d="M274,366.64a6.37,6.37,0,0,1,3.72,1.12,6.26,6.26,0,0,1,2.61,3.14,4.25,4.25,0,0,1,.18,2.21,3.73,3.73,0,0,1-1,1.94,6.36,6.36,0,0,1-3.45,1.88,11.31,11.31,0,0,0,2.57-2.55,3.29,3.29,0,0,0,.34-3,7.14,7.14,0,0,0-2-2.73A10.29,10.29,0,0,0,274,366.64Z" transform="translate(130.54 15.97)"/><path class="cls-10" d="M285.24,376.5a2.22,2.22,0,0,1,1-.21,4,4,0,0,1,1,.09,6.28,6.28,0,0,1,1.94.7,6,6,0,0,1,2.78,3.15,4.62,4.62,0,0,1,.24,2.21,4.7,4.7,0,0,1-.75,2,6.86,6.86,0,0,1-1.37,1.55,8.08,8.08,0,0,1-.81.6c-.28.18-.58.33-.88.49a14,14,0,0,0,2-3.15,4.21,4.21,0,0,0,.15-3.24,6.09,6.09,0,0,0-2.09-2.69,7.46,7.46,0,0,0-1.54-1A3.47,3.47,0,0,0,285.24,376.5Z" transform="translate(130.54 15.97)"/><path class="cls-10" d="M285,366.3a4.54,4.54,0,0,1,3.36,1.3A5.48,5.48,0,0,1,290,371a5.1,5.1,0,0,1-1.06,3.67,6.09,6.09,0,0,1-1.39,1.24,6,6,0,0,1-1.66.66,15.35,15.35,0,0,0,1.21-1.21,7.84,7.84,0,0,0,.91-1.3,5.17,5.17,0,0,0,.57-2.9,5.54,5.54,0,0,0-1.09-2.79A6.07,6.07,0,0,0,285,366.3Z" transform="translate(130.54 15.97)"/></g><g id="diagonal"><path class="cls-10" d="M268.05,317.27a6.2,6.2,0,0,1,3.63.76,5,5,0,0,1,1.52,1.27,4.82,4.82,0,0,1,.93,1.78,7.32,7.32,0,0,1,.19,1,8.87,8.87,0,0,1,0,1,5.8,5.8,0,0,1-.63,1.88,6.83,6.83,0,0,1-2.66,2.57c.33-.51.66-1,.93-1.51a10.29,10.29,0,0,0,.7-1.52,4.77,4.77,0,0,0,.15-3,5,5,0,0,0-1.72-2.52A9.46,9.46,0,0,0,268.05,317.27Z" transform="translate(130.54 15.97)"/><path class="cls-10" d="M270.2,327.53a5.27,5.27,0,0,1,4.15-.48,5.79,5.79,0,0,1,3.48,2.66,4.63,4.63,0,0,1,.18,4.45,5.51,5.51,0,0,1-1.36,1.69,7,7,0,0,1-1.79,1.09,15,15,0,0,0,1.27-1.54,5.83,5.83,0,0,0,.82-1.66,4.29,4.29,0,0,0,.18-1.73,3.71,3.71,0,0,0-.54-1.6,5.84,5.84,0,0,0-2.64-2.33A6.94,6.94,0,0,0,270.2,327.53Z" transform="translate(130.54 15.97)"/><path class="cls-10" d="M276.4,317.66a4.47,4.47,0,0,1,2.24-.57,6.27,6.27,0,0,1,2.33.45,7.65,7.65,0,0,1,3.61,3.09,6.89,6.89,0,0,1,.87,2.3,5.2,5.2,0,0,1-.12,2.45,4.72,4.72,0,0,1-1.24,2.06,6.22,6.22,0,0,1-1.91,1.3,8.89,8.89,0,0,0,1.34-1.72,5.12,5.12,0,0,0,.69-1.91,5.51,5.51,0,0,0-.88-3.75,8.25,8.25,0,0,0-2.87-2.82A6.49,6.49,0,0,0,276.4,317.66Z" transform="translate(130.54 15.97)"/><path class="cls-10" d="M276.22,339.33a6.15,6.15,0,0,1,3.69-.3,5.34,5.34,0,0,1,1.82.79,4.91,4.91,0,0,1,1.42,1.45,6.48,6.48,0,0,1,.46.91,4,4,0,0,1,.24,1,5.43,5.43,0,0,1-.09,2,6.48,6.48,0,0,1-1.85,3.2c.18-.57.37-1.15.49-1.72a11.2,11.2,0,0,0,.24-1.67,4.87,4.87,0,0,0-.7-3,5.1,5.1,0,0,0-2.36-1.94A13.24,13.24,0,0,0,276.22,339.33Z" transform="translate(130.54 15.97)"/><path class="cls-10" d="M283.33,327.59a6.35,6.35,0,0,1,2.21-1.27,6.14,6.14,0,0,1,2.67-.18,6.27,6.27,0,0,1,4.33,3.12,6.83,6.83,0,0,1,.57,5.26,7.12,7.12,0,0,1-1.18,2.33,7.73,7.73,0,0,1-1.82,1.79,15.23,15.23,0,0,0,1.22-2.15,10.16,10.16,0,0,0,.69-2.24,6.73,6.73,0,0,0-.72-4.33A6,6,0,0,0,288,327.2,6.9,6.9,0,0,0,283.33,327.59Z" transform="translate(130.54 15.97)"/><path class="cls-10" d="M298,347.54a6.19,6.19,0,0,1,2.21-1.27,6,6,0,0,1,2.67-.19,6.33,6.33,0,0,1,4.33,3.12,6.86,6.86,0,0,1,.57,5.27,7.42,7.42,0,0,1-1.18,2.33,7.69,7.69,0,0,1-1.82,1.78,14.14,14.14,0,0,0,1.21-2.14,9.83,9.83,0,0,0,.7-2.24,6.66,6.66,0,0,0-.73-4.33,6,6,0,0,0-3.32-2.73A7.1,7.1,0,0,0,298,347.54Z" transform="translate(130.54 15.97)"/><path class="cls-10" d="M282.4,347.48a3.81,3.81,0,0,1,1.69-.94,5.14,5.14,0,0,1,2,0,6,6,0,0,1,3.48,2,5.44,5.44,0,0,1,1.06,1.81,4.52,4.52,0,0,1,.24,2.09,4.56,4.56,0,0,1-.69,1.91,5,5,0,0,1-1.37,1.39,9.57,9.57,0,0,0,.73-1.7,4.6,4.6,0,0,0,.21-1.66,4.93,4.93,0,0,0-1.24-2.91,7,7,0,0,0-2.69-1.87A4.91,4.91,0,0,0,282.4,347.48Z" transform="translate(130.54 15.97)"/><path class="cls-10" d="M269.47,296.75a5.58,5.58,0,0,1,3.69,1.18,5.74,5.74,0,0,1,1.43,1.51,5.17,5.17,0,0,1,.72,2,5,5,0,0,1-.21,2.12,5.78,5.78,0,0,1-1,1.78,6.58,6.58,0,0,1-1.42,1.37,7,7,0,0,1-1.66,1,20.18,20.18,0,0,0,2.11-3,5.31,5.31,0,0,0,.73-3.12,4.67,4.67,0,0,0-.48-1.51,6.14,6.14,0,0,0-1-1.33A9.08,9.08,0,0,0,269.47,296.75Z" transform="translate(130.54 15.97)"/><path class="cls-10" d="M272.65,282.46a3.71,3.71,0,0,1,.85-1.87,5.54,5.54,0,0,1,1.66-1.34,5.9,5.9,0,0,1,4.3-.42,4.44,4.44,0,0,1,3.06,3.09,6.23,6.23,0,0,1-.34,4.08,9.63,9.63,0,0,0-.72-3.69,3.8,3.8,0,0,0-2.45-2.12,5.8,5.8,0,0,0-3.42.09A5.46,5.46,0,0,0,272.65,282.46Z" transform="translate(130.54 15.97)"/><path class="cls-10" d="M272.71,275.14a4.56,4.56,0,0,1-.3-1.82,2.89,2.89,0,0,1,.82-1.81,3.15,3.15,0,0,1,1.84-.94,4.21,4.21,0,0,1,2,.18,4.2,4.2,0,0,1,2.72,2.84,4,4,0,0,1,0,1.94,5.24,5.24,0,0,1-.81,1.64,8.74,8.74,0,0,0,.12-1.73,4,4,0,0,0-.37-1.51,3.45,3.45,0,0,0-2.11-1.85,3.83,3.83,0,0,0-1.43-.18,2.34,2.34,0,0,0-.66.12,3.84,3.84,0,0,0-.61.3,3,3,0,0,0-.88,1.15A5.68,5.68,0,0,0,272.71,275.14Z" transform="translate(130.54 15.97)"/><path class="cls-10" d="M272.35,306.28a4.45,4.45,0,0,1,2.45-.54,5.52,5.52,0,0,1,2.48.72,7.3,7.3,0,0,1,2,1.7,6.44,6.44,0,0,1,1.21,2.39,6,6,0,0,1,0,2.72,6.08,6.08,0,0,1-1.18,2.37,6.68,6.68,0,0,1-.88,1,9.65,9.65,0,0,1-1,.79,10.59,10.59,0,0,1-2.18,1.15,23.13,23.13,0,0,0,1.73-1.69c.27-.28.51-.61.76-.88a10.26,10.26,0,0,0,.63-.94,6.49,6.49,0,0,0,.79-2,5.46,5.46,0,0,0-.06-2.09,6.3,6.3,0,0,0-2.45-3.48A5.81,5.81,0,0,0,272.35,306.28Z" transform="translate(130.54 15.97)"/><path class="cls-10" d="M289.36,339.21a4.26,4.26,0,0,1,1.84-1.72,6.37,6.37,0,0,1,5.18-.12,5.74,5.74,0,0,1,2.24,1.57,5.45,5.45,0,0,1,1.24,2.48,6.81,6.81,0,0,1-.06,2.7,9,9,0,0,1-.94,2.39c-.21.36-.45.72-.66,1.06s-.52.66-.79,1c.06-.22.15-.4.21-.58s.15-.36.21-.57c.12-.4.31-.76.4-1.15a12.73,12.73,0,0,0,.48-2.3,6.74,6.74,0,0,0-.15-2.21,4.23,4.23,0,0,0-1-1.85,4.89,4.89,0,0,0-1.69-1.27,7.56,7.56,0,0,0-2.12-.61A5.43,5.43,0,0,0,289.36,339.21Z" transform="translate(130.54 15.97)"/><path class="cls-10" d="M330.1,350.08a10.28,10.28,0,0,1,2.09-1.91,7.34,7.34,0,0,1,2.69-1.12,5.82,5.82,0,0,1,3,.24,6.05,6.05,0,0,1,2.45,1.88,7.15,7.15,0,0,1,1.12,5.75,8.24,8.24,0,0,1-3.09,4.72,10.32,10.32,0,0,0,2-4.9,6.88,6.88,0,0,0-1.15-4.72,5,5,0,0,0-1.82-1.48,4.72,4.72,0,0,0-2.36-.4,7.32,7.32,0,0,0-2.51.64A25.63,25.63,0,0,0,330.1,350.08Z" transform="translate(130.54 15.97)"/><path class="cls-10" d="M321.56,341.09a3.88,3.88,0,0,1,1.76-1.66,5.2,5.2,0,0,1,2.45-.58,7.06,7.06,0,0,1,4.69,1.7,5.91,5.91,0,0,1,1.57,2,5.6,5.6,0,0,1,.58,2.52,6.86,6.86,0,0,1-.45,2.45,9.54,9.54,0,0,1-1.18,2.09,15.72,15.72,0,0,0,.51-2.27,7.58,7.58,0,0,0,0-2.18,5.41,5.41,0,0,0-2-3.55,7.41,7.41,0,0,0-3.84-1.66A5.08,5.08,0,0,0,321.56,341.09Z" transform="translate(130.54 15.97)"/><path class="cls-10" d="M291.54,303.86a5.9,5.9,0,0,1,2-1.18,5.22,5.22,0,0,1,2.37-.27,6.09,6.09,0,0,1,4.14,2.42,6,6,0,0,1,1.06,2.24,5.33,5.33,0,0,1,0,2.48,4.31,4.31,0,0,1-1.21,2.09,5.45,5.45,0,0,1-1.94,1.21,7.79,7.79,0,0,0,1.4-1.63,4.51,4.51,0,0,0,.63-1.88,5.08,5.08,0,0,0-1.09-3.63,6,6,0,0,0-3.21-2.18,5.65,5.65,0,0,0-2-.15A7.69,7.69,0,0,0,291.54,303.86Z" transform="translate(130.54 15.97)"/><path class="cls-10" d="M283.24,280.62a6.68,6.68,0,0,1,4.6-.73,6.48,6.48,0,0,1,5,5,6.33,6.33,0,0,1,0,2.49,6,6,0,0,1-2.73,3.78,7.61,7.61,0,0,0,1.61-4,5.82,5.82,0,0,0-1-3.81,6.5,6.5,0,0,0-3.15-2.45A8.51,8.51,0,0,0,283.24,280.62Z" transform="translate(130.54 15.97)"/><path class="cls-10" d="M283.36,274.47a5,5,0,0,1,2-1.81,6.12,6.12,0,0,1,2.76-.58,7.71,7.71,0,0,1,5.14,2.24,6.23,6.23,0,0,1,.49.55,6.92,6.92,0,0,1,.42.57l.36.64c.09.21.22.45.31.66a5.67,5.67,0,0,1,.27,2.91,6.49,6.49,0,0,1-1.09,2.6,9,9,0,0,1-1.94,1.91,15.33,15.33,0,0,0,1.33-2.24,6.64,6.64,0,0,0,.58-2.36,5.5,5.5,0,0,0-1.76-4.21A7.68,7.68,0,0,0,288,273.2a6,6,0,0,0-2.43.12A5.78,5.78,0,0,0,283.36,274.47Z" transform="translate(130.54 15.97)"/><path class="cls-10" d="M297.74,313a7.15,7.15,0,0,1,2.06-1.84,5.42,5.42,0,0,1,2.78-.73,5.49,5.49,0,0,1,2.85.79,6.92,6.92,0,0,1,2.15,2A7.52,7.52,0,0,1,308.7,316a6.74,6.74,0,0,1-.12,2.9c-.06.25-.15.46-.21.7s-.19.45-.31.67l-.36.6a4.75,4.75,0,0,1-.42.58,8,8,0,0,1-2.09,1.78,12.51,12.51,0,0,0,1.51-2.18,6.94,6.94,0,0,0,.79-2.39,6.55,6.55,0,0,0-1.06-4.63,5.6,5.6,0,0,0-3.91-2.51,5.35,5.35,0,0,0-2.45.27A12,12,0,0,0,297.74,313Z" transform="translate(130.54 15.97)"/><path class="cls-10" d="M313.51,332a8.5,8.5,0,0,1,1.91-1.67,6.29,6.29,0,0,1,2.48-.93,5.08,5.08,0,0,1,2.75.3,6.08,6.08,0,0,1,2.24,1.66,6.9,6.9,0,0,1,1.43,5.12,6.8,6.8,0,0,1-2.42,4.48,8.51,8.51,0,0,0,1.3-4.54,6.94,6.94,0,0,0-1.43-4.18,4.64,4.64,0,0,0-1.66-1.33,4.55,4.55,0,0,0-2.12-.42,7.63,7.63,0,0,0-2.27.45A18.52,18.52,0,0,0,313.51,332Z" transform="translate(130.54 15.97)"/><path class="cls-10" d="M282,285.79a1.74,1.74,0,0,1,.7-.6,2.49,2.49,0,0,1,.94-.22,4.75,4.75,0,0,1,1.84.31,6,6,0,0,1,2.91,2.36,5,5,0,0,1,.67,1.84,3.86,3.86,0,0,1-.25,2,5,5,0,0,1-1,1.58,4.85,4.85,0,0,1-1.45,1.05,7.28,7.28,0,0,0,1.39-2.93,3.69,3.69,0,0,0-.57-2.76,6.67,6.67,0,0,0-2.18-2.11,5.14,5.14,0,0,0-1.42-.64,2.32,2.32,0,0,0-.79-.09A4.68,4.68,0,0,0,282,285.79Z" transform="translate(130.54 15.97)"/><path class="cls-10" d="M286.12,294.33a5.9,5.9,0,0,1,2.06-1.09,5.31,5.31,0,0,1,2.42-.12,5.87,5.87,0,0,1,4,2.78,6.06,6.06,0,0,1,.79,2.42,5.33,5.33,0,0,1-.42,2.48,5.51,5.51,0,0,1-1.49,1.94,6,6,0,0,1-2,1.15,10.94,10.94,0,0,0,1.51-1.63,6,6,0,0,0,.94-1.85,4.84,4.84,0,0,0-.52-3.78,5.54,5.54,0,0,0-3.05-2.45,5.62,5.62,0,0,0-2.06-.28A8.09,8.09,0,0,0,286.12,294.33Z" transform="translate(130.54 15.97)"/><path class="cls-10" d="M305.13,323.35a5.48,5.48,0,0,1,1.84-1.87,6.16,6.16,0,0,1,5.39-.46,5,5,0,0,1,1.27.67,5,5,0,0,1,1.06,1,5.26,5.26,0,0,1,1.18,2.63,7.24,7.24,0,0,1-.15,2.79,8.67,8.67,0,0,1-1,2.45,12.28,12.28,0,0,1-1.57,2.09c.09-.22.15-.4.24-.61s.18-.39.24-.58c.15-.39.33-.78.46-1.18a9.78,9.78,0,0,0,.57-2.39,7.58,7.58,0,0,0-.06-2.33,4.36,4.36,0,0,0-1-2,4.8,4.8,0,0,0-1.75-1.34,6.31,6.31,0,0,0-2.24-.51A6.58,6.58,0,0,0,305.13,323.35Z" transform="translate(130.54 15.97)"/><path class="cls-10" d="M333.43,332.62a10,10,0,0,1,2.09-1.91,7.18,7.18,0,0,1,2.69-1.12,5.82,5.82,0,0,1,3,.24,6,6,0,0,1,2.45,1.88,7.13,7.13,0,0,1,1.12,5.75,8.27,8.27,0,0,1-3.09,4.72,10.37,10.37,0,0,0,2-4.9,6.91,6.91,0,0,0-1.15-4.73,5.09,5.09,0,0,0-1.82-1.48,4.83,4.83,0,0,0-2.36-.39,7.54,7.54,0,0,0-2.51.63A15.31,15.31,0,0,0,333.43,332.62Z" transform="translate(130.54 15.97)"/><path class="cls-10" d="M324.86,323.6a3.86,3.86,0,0,1,1.76-1.67,5.32,5.32,0,0,1,2.45-.57,7.05,7.05,0,0,1,4.69,1.69,5.94,5.94,0,0,1,1.57,2,5.56,5.56,0,0,1,.58,2.51,6.78,6.78,0,0,1-.45,2.45,8.78,8.78,0,0,1-1.19,2.09,14.29,14.29,0,0,0,.52-2.27,7.58,7.58,0,0,0,0-2.18,5.41,5.41,0,0,0-2-3.54,7.33,7.33,0,0,0-3.84-1.66A5.07,5.07,0,0,0,324.86,323.6Z" transform="translate(130.54 15.97)"/><path class="cls-10" d="M292.2,285.31a9.7,9.7,0,0,1,2.27-1.09,9.08,9.08,0,0,1,2.55-.43,7.75,7.75,0,0,1,5,1.67,6.53,6.53,0,0,1,2.45,4.66,5.45,5.45,0,0,1-.54,2.6,4.7,4.7,0,0,1-1.7,1.91,5.59,5.59,0,0,0,1.12-4.36,6.3,6.3,0,0,0-2.24-3.69,7.67,7.67,0,0,0-4.12-1.64,12.09,12.09,0,0,0-2.33,0A11.36,11.36,0,0,0,292.2,285.31Z" transform="translate(130.54 15.97)"/><path class="cls-10" d="M301.07,295.54a7.19,7.19,0,0,1,2.06-1.85,5.52,5.52,0,0,1,2.78-.73,5.58,5.58,0,0,1,2.85.79,7,7,0,0,1,2.15,2A7.54,7.54,0,0,1,312,298.5a6.8,6.8,0,0,1-.12,2.91c-.06.24-.15.45-.21.7s-.19.45-.31.66l-.36.61a4,4,0,0,1-.42.57,8.05,8.05,0,0,1-2.09,1.79,12.9,12.9,0,0,0,1.51-2.18,7.08,7.08,0,0,0,.79-2.39,6.54,6.54,0,0,0-1.06-4.63,5.61,5.61,0,0,0-3.91-2.52,5.23,5.23,0,0,0-2.45.28A10.48,10.48,0,0,0,301.07,295.54Z" transform="translate(130.54 15.97)"/><path class="cls-10" d="M316.81,314.48a7.92,7.92,0,0,1,2-1.69,6.55,6.55,0,0,1,2.57-.88,5.93,5.93,0,0,1,2.82.34,6.08,6.08,0,0,1,2.36,1.6,6.24,6.24,0,0,1,1.57,5.3,5.94,5.94,0,0,1-1.09,2.54,6.2,6.2,0,0,1-2,1.72,9.52,9.52,0,0,0,1.43-2.08,5.69,5.69,0,0,0,.57-2.3,5.91,5.91,0,0,0-1.51-4.21A5.34,5.34,0,0,0,321.5,313a7.79,7.79,0,0,0-2.36.4A13.29,13.29,0,0,0,316.81,314.48Z" transform="translate(130.54 15.97)"/><path class="cls-10" d="M308.46,305.89a4.36,4.36,0,0,1,2-1.54,7.29,7.29,0,0,1,5.15-.1,6.25,6.25,0,0,1,2.3,1.46,4.72,4.72,0,0,1,1.27,2.45,6.07,6.07,0,0,1-.12,2.66,3.62,3.62,0,0,1-.18.61,5,5,0,0,1-.24.6l-.28.58-.3.54-.15.28-.18.24-.36.51c-.25.34-.55.64-.82.94a19.21,19.21,0,0,0,1.45-4.51,5.88,5.88,0,0,0-.09-2.18,4.11,4.11,0,0,0-1-1.78,4.88,4.88,0,0,0-1.75-1.18,8.09,8.09,0,0,0-2.15-.55A6.67,6.67,0,0,0,308.46,305.89Z" transform="translate(130.54 15.97)"/><path class="cls-10" d="M326.1,311.64a8.16,8.16,0,0,1,7-2.54,7,7,0,0,1,2.55.88c.21.12.39.27.57.39s.37.3.52.45a8.1,8.1,0,0,1,.84,1.09,6.94,6.94,0,0,1,.85,2.54,9.27,9.27,0,0,1-.06,2.58,10.13,10.13,0,0,1-.7,2.39,15.76,15.76,0,0,0-.33-4.75,5.48,5.48,0,0,0-2.42-3.48,7.08,7.08,0,0,0-4.3-.91A11.38,11.38,0,0,0,326.1,311.64Z" transform="translate(130.54 15.97)"/><path class="cls-10" d="M315,304.86a5.31,5.31,0,0,1,.85-2.63,6.26,6.26,0,0,1,2.12-2,7.33,7.33,0,0,1,5.69-.61,6.65,6.65,0,0,1,2.57,1.49,5.86,5.86,0,0,1,1.61,2.45,7.62,7.62,0,0,1,.39,2.81,9.09,9.09,0,0,1-.63,2.7,15.81,15.81,0,0,0-.06-2.67,8.8,8.8,0,0,0-.73-2.42,5.76,5.76,0,0,0-3.57-3,7,7,0,0,0-4.79.24,6.36,6.36,0,0,0-2.05,1.39A7.92,7.92,0,0,0,315,304.86Z" transform="translate(130.54 15.97)"/><path class="cls-10" d="M314.69,352.53a10.56,10.56,0,0,1,2.09-1.91,7.67,7.67,0,0,1,2.69-1.12,5.72,5.72,0,0,1,3,.25,6,6,0,0,1,2.45,1.87,7.11,7.11,0,0,1,1.12,5.75A8.17,8.17,0,0,1,323,362.1a10.4,10.4,0,0,0,2-4.91,6.88,6.88,0,0,0-1.15-4.72A5,5,0,0,0,322,351a4.76,4.76,0,0,0-2.36-.4,7.61,7.61,0,0,0-2.52.64A24.92,24.92,0,0,0,314.69,352.53Z" transform="translate(130.54 15.97)"/><path class="cls-10" d="M306.4,343.24a3.93,3.93,0,0,1,1.75-1.67,5.39,5.39,0,0,1,2.46-.57,7.05,7.05,0,0,1,4.69,1.69,6.17,6.17,0,0,1,1.57,2,5.73,5.73,0,0,1,.58,2.51,6.88,6.88,0,0,1-.46,2.46,8.53,8.53,0,0,1-1.18,2.08,15.19,15.19,0,0,0,.52-2.27,7.51,7.51,0,0,0,0-2.17,5.45,5.45,0,0,0-2-3.55,7.41,7.41,0,0,0-3.85-1.66A5.17,5.17,0,0,0,306.4,343.24Z" transform="translate(130.54 15.97)"/><path class="cls-10" d="M280,304.16a4.12,4.12,0,0,1,2.14-.78,5.09,5.09,0,0,1,2.33.3,6.16,6.16,0,0,1,3.58,3.15,5.27,5.27,0,0,1,.51,2.45,4.59,4.59,0,0,1-.76,2.36,6.94,6.94,0,0,1-3.63,2.72,17.35,17.35,0,0,0,1.55-1.54,8.68,8.68,0,0,0,1.12-1.69,4.22,4.22,0,0,0-.07-3.67,6,6,0,0,0-2.72-2.72A5.47,5.47,0,0,0,280,304.16Z" transform="translate(130.54 15.97)"/><path class="cls-10" d="M284,314.36a5.75,5.75,0,0,1,2.15-1.69,5.16,5.16,0,0,1,2.81-.39,6.64,6.64,0,0,1,4.67,3.17,6.52,6.52,0,0,1,.9,2.76,6.24,6.24,0,0,1-.42,2.87,6.59,6.59,0,0,1-1.63,2.3,8.56,8.56,0,0,1-2.3,1.43A13.31,13.31,0,0,0,292,322.9a6.43,6.43,0,0,0,1.09-2.21,5.7,5.7,0,0,0-.64-4.54,6.21,6.21,0,0,0-3.66-2.82,5,5,0,0,0-2.39,0A8.57,8.57,0,0,0,284,314.36Z" transform="translate(130.54 15.97)"/><path class="cls-10" d="M298.32,334.25a8.14,8.14,0,0,1,2-1.67,6.67,6.67,0,0,1,2.52-.9,5.76,5.76,0,0,1,2.75.3,6.05,6.05,0,0,1,2.3,1.6,6.48,6.48,0,0,1,1.51,5.18,6.21,6.21,0,0,1-2.81,4.33,7.58,7.58,0,0,0,1.69-4.42,6.16,6.16,0,0,0-1.48-4.15,5.22,5.22,0,0,0-1.72-1.3,4.78,4.78,0,0,0-2.15-.42,6.86,6.86,0,0,0-2.3.42A13.55,13.55,0,0,0,298.32,334.25Z" transform="translate(130.54 15.97)"/><path class="cls-10" d="M272.26,286a1.7,1.7,0,0,1,.69-.6,2.57,2.57,0,0,1,.94-.21,4.8,4.8,0,0,1,1.85.3,5.93,5.93,0,0,1,2.9,2.36,4.67,4.67,0,0,1,.67,1.85,3.94,3.94,0,0,1-.24,2,5.12,5.12,0,0,1-2.48,2.64,7.51,7.51,0,0,0,1.39-2.94,3.66,3.66,0,0,0-.58-2.75,6.51,6.51,0,0,0-2.18-2.12,5.45,5.45,0,0,0-1.42-.64,2.26,2.26,0,0,0-.79-.09A3.63,3.63,0,0,0,272.26,286Z" transform="translate(130.54 15.97)"/><path class="cls-10" d="M276.13,294.33a6,6,0,0,1,2.06-1.09,5.32,5.32,0,0,1,2.42-.12,5.89,5.89,0,0,1,4,2.78,6.21,6.21,0,0,1,.78,2.42,5.33,5.33,0,0,1-.42,2.48,5.49,5.49,0,0,1-1.48,1.94,6.15,6.15,0,0,1-2,1.15,10.94,10.94,0,0,0,1.51-1.63,5.78,5.78,0,0,0,.94-1.85,4.88,4.88,0,0,0-.51-3.78,5.64,5.64,0,0,0-5.12-2.73A8.09,8.09,0,0,0,276.13,294.33Z" transform="translate(130.54 15.97)"/><path class="cls-10" d="M290,324.9a4.62,4.62,0,0,1,2-1.33,6.12,6.12,0,0,1,2.48-.31,6.71,6.71,0,0,1,4.54,2.21,5.73,5.73,0,0,1,1.21,2.33,5.92,5.92,0,0,1,.06,2.58,7.82,7.82,0,0,1-.84,2.33,9.2,9.2,0,0,1-1.43,1.93,18.63,18.63,0,0,0,.76-2.21,10,10,0,0,0,.4-2.21,6,6,0,0,0-.25-2.08,5.46,5.46,0,0,0-1-1.79,6.78,6.78,0,0,0-3.6-2.06A7,7,0,0,0,290,324.9Z" transform="translate(130.54 15.97)"/></g><g id="top_half"><path class="cls-10" d="M279,270.6a4.13,4.13,0,0,1,.6-2.21,6,6,0,0,1,1.67-1.7,6.8,6.8,0,0,1,4.66-1,6,6,0,0,1,2.3.88,5.57,5.57,0,0,1,1.69,1.76,5.94,5.94,0,0,1,.82,2.21,8.22,8.22,0,0,1,0,2.27,13.85,13.85,0,0,0-.7-2.09,8.54,8.54,0,0,0-1.05-1.76,5.38,5.38,0,0,0-3.3-1.87,6.62,6.62,0,0,0-3.88.57A5.29,5.29,0,0,0,279,270.6Z" transform="translate(130.54 15.97)"/><path class="cls-10" d="M270.83,264.15a4.17,4.17,0,0,1,.61-2.21,5.93,5.93,0,0,1,1.66-1.69,6.73,6.73,0,0,1,4.67-1,5.86,5.86,0,0,1,2.3.87,5.57,5.57,0,0,1,1.69,1.76,6.19,6.19,0,0,1,.82,2.21,8.22,8.22,0,0,1,0,2.27,15.53,15.53,0,0,0-.7-2.09,8.08,8.08,0,0,0-1.06-1.75,5.37,5.37,0,0,0-3.3-1.88,6.68,6.68,0,0,0-3.87.57A5.38,5.38,0,0,0,270.83,264.15Z" transform="translate(130.54 15.97)"/><path class="cls-10" d="M323.92,300.14a5.31,5.31,0,0,1,.85-2.63,6.26,6.26,0,0,1,2.12-2,7.33,7.33,0,0,1,5.69-.61,6.53,6.53,0,0,1,2.57,1.49,6,6,0,0,1,1.61,2.45,7.59,7.59,0,0,1,.39,2.81,8.81,8.81,0,0,1-.64,2.7,15.81,15.81,0,0,0-.06-2.67,8.36,8.36,0,0,0-.72-2.42,5.81,5.81,0,0,0-3.57-3,7.06,7.06,0,0,0-4.79.25,6.21,6.21,0,0,0-2.05,1.39A6.37,6.37,0,0,0,323.92,300.14Z" transform="translate(130.54 15.97)"/><path class="cls-10" d="M308.24,295.33a5.38,5.38,0,0,1,.85-2.64,6.34,6.34,0,0,1,2.12-2,7.29,7.29,0,0,1,5.69-.61,6.63,6.63,0,0,1,2.57,1.48,6,6,0,0,1,1.61,2.45,7.64,7.64,0,0,1,.39,2.82,9,9,0,0,1-.63,2.69,15.72,15.72,0,0,0-.06-2.66,8.6,8.6,0,0,0-.73-2.42,5.81,5.81,0,0,0-3.57-3,7.08,7.08,0,0,0-4.78.24,6.33,6.33,0,0,0-2.06,1.4A6.66,6.66,0,0,0,308.24,295.33Z" transform="translate(130.54 15.97)"/><path class="cls-10" d="M316.66,288.58a5.62,5.62,0,0,1,1-2.82,6.9,6.9,0,0,1,2.3-2.09,9,9,0,0,1,6.08-.94,8.7,8.7,0,0,1,2.91,1.18,7.89,7.89,0,0,1,2.24,2.18,7.6,7.6,0,0,1,1.21,2.82,9,9,0,0,1,.15,3,14.76,14.76,0,0,0-.82-2.76,8.62,8.62,0,0,0-1.45-2.36,8.09,8.09,0,0,0-4.57-2.63,9.08,9.08,0,0,0-5.3.51A7,7,0,0,0,316.66,288.58Z" transform="translate(130.54 15.97)"/><path class="cls-10" d="M335.33,291.78a5.53,5.53,0,0,1,.91-2.9,7.15,7.15,0,0,1,2.3-2.18,8.89,8.89,0,0,1,6.21-1,8.31,8.31,0,0,1,3,1.21,8,8,0,0,1,2.3,2.24,7.78,7.78,0,0,1,1.18,2.91,8.6,8.6,0,0,1,.06,3,18.1,18.1,0,0,0-.93-2.72,9,9,0,0,0-1.49-2.27,7.94,7.94,0,0,0-4.45-2.51,9.15,9.15,0,0,0-5.17.45A7.36,7.36,0,0,0,335.33,291.78Z" transform="translate(130.54 15.97)"/><path class="cls-10" d="M344.78,285.4a5.45,5.45,0,0,1,.91-2.91,7.16,7.16,0,0,1,2.3-2.18,8.85,8.85,0,0,1,6.2-1,8.45,8.45,0,0,1,3,1.22,8.28,8.28,0,0,1,2.3,2.23,8,8,0,0,1,1.18,2.91,9.17,9.17,0,0,1,.06,3,18.24,18.24,0,0,0-.94-2.73,9.16,9.16,0,0,0-1.48-2.27,8,8,0,0,0-4.45-2.51,9.27,9.27,0,0,0-5.18.45A7.43,7.43,0,0,0,344.78,285.4Z" transform="translate(130.54 15.97)"/><path class="cls-10" d="M339.81,279a3,3,0,0,1-.81-1.24,4.05,4.05,0,0,1-.19-1.51,7,7,0,0,1,.85-2.91,8.58,8.58,0,0,1,4.54-4,8.21,8.21,0,0,1,1.55-.4,9.56,9.56,0,0,1,1.6,0,6.71,6.71,0,0,1,2.94,1.09,9.11,9.11,0,0,1,2.18,2.06,10.82,10.82,0,0,1,1.39,2.54c-.18-.15-.34-.33-.52-.48s-.33-.34-.51-.49c-.36-.3-.67-.63-1.06-.9a11.09,11.09,0,0,0-2.21-1.43,6.24,6.24,0,0,0-2.36-.6,5.81,5.81,0,0,0-2.36.39,9.22,9.22,0,0,0-3.94,3.06,7.42,7.42,0,0,0-1.21,2.27l-.09.3-.06.3,0,.15v.16c0,.12,0,.21,0,.33A3.62,3.62,0,0,0,339.81,279Z" transform="translate(130.54 15.97)"/><path class="cls-10" d="M326.28,281.8a5.53,5.53,0,0,1,.91-2.91,7.26,7.26,0,0,1,2.3-2.18,8.89,8.89,0,0,1,6.21-1,8.31,8.31,0,0,1,3,1.21,8.18,8.18,0,0,1,2.3,2.24,7.78,7.78,0,0,1,1.18,2.91,8.66,8.66,0,0,1,.06,3,18.23,18.23,0,0,0-.93-2.73,9,9,0,0,0-1.49-2.27,7.94,7.94,0,0,0-4.45-2.51,9.24,9.24,0,0,0-5.17.45A7,7,0,0,0,326.28,281.8Z" transform="translate(130.54 15.97)"/><path class="cls-10" d="M307.76,280.28a5.36,5.36,0,0,1,.88-2.84,7.08,7.08,0,0,1,2.21-2.18,8.57,8.57,0,0,1,6.11-1.15,7.55,7.55,0,0,1,3,1.27,6.59,6.59,0,0,1,2.06,2.48,7.27,7.27,0,0,1,.66,3l0,.75a7.12,7.12,0,0,1-.09.76,7.39,7.39,0,0,1-.36,1.42,16.28,16.28,0,0,0-.43-2.81,7.68,7.68,0,0,0-1.06-2.42A6.17,6.17,0,0,0,316.6,276a8.85,8.85,0,0,0-5.06.61A7.36,7.36,0,0,0,307.76,280.28Z" transform="translate(130.54 15.97)"/><path class="cls-10" d="M303.19,269.17a5.39,5.39,0,0,1,.88-2.84,7.19,7.19,0,0,1,2.21-2.18,8.62,8.62,0,0,1,6.11-1.15,7.7,7.7,0,0,1,3,1.27,6.59,6.59,0,0,1,2.06,2.48,7.27,7.27,0,0,1,.66,3l0,.76a7.25,7.25,0,0,1-.09.75,7.68,7.68,0,0,1-.36,1.43,16.25,16.25,0,0,0-.43-2.82,7.78,7.78,0,0,0-1.06-2.42,6.13,6.13,0,0,0-4.08-2.63,8.84,8.84,0,0,0-5.06.6A7.36,7.36,0,0,0,303.19,269.17Z" transform="translate(130.54 15.97)"/><path class="cls-10" d="M279.67,247a5.34,5.34,0,0,1-.75-2.91,7.09,7.09,0,0,1,.72-3,8.64,8.64,0,0,1,4.57-4.21,7.08,7.08,0,0,1,3.21-.48,6.41,6.41,0,0,1,3.06,1,7.4,7.4,0,0,1,2.18,2.21l.36.67a4.47,4.47,0,0,1,.3.7,8.08,8.08,0,0,1,.46,1.39,17.92,17.92,0,0,0-1.85-2.15,7.2,7.2,0,0,0-2.18-1.48,6.08,6.08,0,0,0-4.84-.06,8.61,8.61,0,0,0-4,3.17A7,7,0,0,0,279.67,247Z" transform="translate(130.54 15.97)"/><path class="cls-10" d="M288.57,214.33a5.35,5.35,0,0,1-.76-2.91,7.14,7.14,0,0,1,.73-3,8.64,8.64,0,0,1,4.57-4.21,7.22,7.22,0,0,1,3.21-.48,6.31,6.31,0,0,1,3.06,1,7.29,7.29,0,0,1,2.18,2.21l.36.66a4.91,4.91,0,0,1,.3.7,9.42,9.42,0,0,1,.46,1.39,18.73,18.73,0,0,0-1.85-2.15,7.2,7.2,0,0,0-2.18-1.48,6.08,6.08,0,0,0-4.84-.06,8.61,8.61,0,0,0-4,3.17A7.17,7.17,0,0,0,288.57,214.33Z" transform="translate(130.54 15.97)"/><path class="cls-10" d="M283.09,206a3.74,3.74,0,0,1-.51-2.36,5,5,0,0,1,1-2.4,7,7,0,0,1,4.36-2.57,6.9,6.9,0,0,1,2.6,0,5.38,5.38,0,0,1,2.36,1.12,4.77,4.77,0,0,1,1.51,2.06,5.93,5.93,0,0,1,.4,2.36,11.88,11.88,0,0,0-1.18-1.91,5.43,5.43,0,0,0-1.55-1.3,5.72,5.72,0,0,0-3.81-.51,7.31,7.31,0,0,0-3.57,1.69,4.73,4.73,0,0,0-1.18,1.61l-.19.48-.12.52-.06.54C283.09,205.61,283.12,205.8,283.09,206Z" transform="translate(130.54 15.97)"/><path class="cls-10" d="M295.56,259.25a5.48,5.48,0,0,1,.88-2.85,7.3,7.3,0,0,1,2.21-2.18,8.64,8.64,0,0,1,6.11-1.15,7.7,7.7,0,0,1,3,1.27,6.62,6.62,0,0,1,2.06,2.49,7.19,7.19,0,0,1,.66,3l0,.76c0,.24-.06.48-.09.76a7.78,7.78,0,0,1-.36,1.42,17.26,17.26,0,0,0-.42-2.82,8.39,8.39,0,0,0-1.06-2.42,6.15,6.15,0,0,0-4.09-2.63,8.89,8.89,0,0,0-5,.6A7.33,7.33,0,0,0,295.56,259.25Z" transform="translate(130.54 15.97)"/><path class="cls-10" d="M305.91,253.62a5.17,5.17,0,0,1,0-3.09,7.13,7.13,0,0,1,1.61-2.78,9.33,9.33,0,0,1,5.75-2.82,8.06,8.06,0,0,1,3.27.3,7.27,7.27,0,0,1,2.84,1.67,7.62,7.62,0,0,1,1.79,2.66,9.49,9.49,0,0,1,.57,3,19,19,0,0,0-1.39-2.57,7.63,7.63,0,0,0-1.91-2,7.29,7.29,0,0,0-5-1.24,9.42,9.42,0,0,0-4.9,2A7.06,7.06,0,0,0,305.91,253.62Z" transform="translate(130.54 15.97)"/><path class="cls-10" d="M295.38,244.45a7.08,7.08,0,0,1-.42-2.88,6.7,6.7,0,0,1,.94-2.9,7.15,7.15,0,0,1,2.17-2.21,8.25,8.25,0,0,1,2.91-1.15,7.6,7.6,0,0,1,5.93,1.36,7.34,7.34,0,0,1,2,2.3,7.8,7.8,0,0,1,.82,2.78,12.81,12.81,0,0,0-1.58-2.24,7.66,7.66,0,0,0-2-1.6,7.35,7.35,0,0,0-4.79-.73,7,7,0,0,0-4.2,2.36,6.6,6.6,0,0,0-1.24,2.21A9.25,9.25,0,0,0,295.38,244.45Z" transform="translate(130.54 15.97)"/><path class="cls-10" d="M327.07,257.79a4.88,4.88,0,0,1-.6-3,6.8,6.8,0,0,1,1.06-3,9.07,9.07,0,0,1,5.08-3.84,7.89,7.89,0,0,1,3.27-.31,7.33,7.33,0,0,1,3.12,1.09,7.56,7.56,0,0,1,2.24,2.27,9.59,9.59,0,0,1,1.15,2.85,16.93,16.93,0,0,0-1.88-2.27,8.09,8.09,0,0,0-2.24-1.54,7.12,7.12,0,0,0-5.12-.28,9.52,9.52,0,0,0-4.44,2.91A6.49,6.49,0,0,0,327.07,257.79Z" transform="translate(130.54 15.97)"/><path class="cls-10" d="M317.78,246.81a5.55,5.55,0,0,1-.7-2.91,7.08,7.08,0,0,1,.85-3,8.5,8.5,0,0,1,4.81-3.94,7.76,7.76,0,0,1,3.21-.27,6.6,6.6,0,0,1,3,1.18,7.39,7.39,0,0,1,2.09,2.27l.36.66a5.46,5.46,0,0,1,.3.7,8.62,8.62,0,0,1,.43,1.42,19.62,19.62,0,0,0-1.82-2.21,9.46,9.46,0,0,0-2.12-1.57,6.45,6.45,0,0,0-4.87-.36,8.31,8.31,0,0,0-4.15,2.93A7,7,0,0,0,317.78,246.81Z" transform="translate(130.54 15.97)"/><path class="cls-10" d="M280.49,261.24a5.22,5.22,0,0,1-.3-3,7.19,7.19,0,0,1,1.18-2.88,8.58,8.58,0,0,1,5.17-3.45,7.38,7.38,0,0,1,3.24,0,6.37,6.37,0,0,1,2.88,1.49,8,8,0,0,1,1.81,2.51l.28.69a7.38,7.38,0,0,1,.21.73,8.13,8.13,0,0,1,.24,1.45,20.17,20.17,0,0,0-1.51-2.42,8.33,8.33,0,0,0-1.91-1.81,6.2,6.2,0,0,0-4.78-.82,8.82,8.82,0,0,0-4.42,2.54A7.17,7.17,0,0,0,280.49,261.24Z" transform="translate(130.54 15.97)"/><path class="cls-10" d="M291.3,274.29a5.47,5.47,0,0,1,.87-2.85,7.26,7.26,0,0,1,2.21-2.17,8.6,8.6,0,0,1,6.12-1.15,7.51,7.51,0,0,1,3,1.27,6.42,6.42,0,0,1,2.06,2.48,7.28,7.28,0,0,1,.67,3l0,.75a7.43,7.43,0,0,1-.09.76,8.46,8.46,0,0,1-.37,1.42,17,17,0,0,0-.42-2.81,7.91,7.91,0,0,0-1.06-2.42,6.12,6.12,0,0,0-4.09-2.64,8.81,8.81,0,0,0-5.05.61A7.22,7.22,0,0,0,291.3,274.29Z" transform="translate(130.54 15.97)"/><path class="cls-10" d="M309.49,264.54a5.46,5.46,0,0,1,.87-2.84,7.3,7.3,0,0,1,2.21-2.18,8.66,8.66,0,0,1,6.12-1.15,7.44,7.44,0,0,1,3,1.27,6.5,6.5,0,0,1,2.06,2.48,7.13,7.13,0,0,1,.67,3l0,.76a7.25,7.25,0,0,1-.09.75,7.7,7.7,0,0,1-.37,1.43,17.26,17.26,0,0,0-.42-2.82,8,8,0,0,0-1.06-2.42,6.15,6.15,0,0,0-4.09-2.63,8.72,8.72,0,0,0-5.05.6A7.43,7.43,0,0,0,309.49,264.54Z" transform="translate(130.54 15.97)"/><path class="cls-10" d="M287.66,264.21a4.78,4.78,0,0,1,.79-2.57,5.9,5.9,0,0,1,2-1.94,7.66,7.66,0,0,1,5.54-.79,7.74,7.74,0,0,1,4.63,3.15,6.88,6.88,0,0,1,1,2.57,8,8,0,0,1,0,2.67,10,10,0,0,0-2.21-4.33,7.44,7.44,0,0,0-3.88-2.21,7.78,7.78,0,0,0-4.45.27,6.63,6.63,0,0,0-2,1.21A7.19,7.19,0,0,0,287.66,264.21Z" transform="translate(130.54 15.97)"/><path class="cls-10" d="M284.91,223.65a6.37,6.37,0,0,1,1.72-4.33,6.08,6.08,0,0,1,4.57-1.9,6.33,6.33,0,0,1,2.49.6,6.24,6.24,0,0,1,2,1.55A6.87,6.87,0,0,1,297.2,224a11.19,11.19,0,0,0-2.61-3.36,5.63,5.63,0,0,0-3.45-1.34,5.91,5.91,0,0,0-3.54,1.12A10.49,10.49,0,0,0,284.91,223.65Z" transform="translate(130.54 15.97)"/><path class="cls-10" d="M287.51,235.55a6,6,0,0,1,1.91-4.33,5.54,5.54,0,0,1,2.24-1.27,6.31,6.31,0,0,1,2.6-.24,6.21,6.21,0,0,1,2.45.84,6.47,6.47,0,0,1,1.85,1.76,6.91,6.91,0,0,1,1.18,4.6,11.57,11.57,0,0,0-2.3-3.63,5.89,5.89,0,0,0-3.42-1.67,5.77,5.77,0,0,0-3.69.82A8,8,0,0,0,287.51,235.55Z" transform="translate(130.54 15.97)"/><path class="cls-10" d="M293.81,229.16a6,6,0,0,1,1.9-4.33,5.8,5.8,0,0,1,2.24-1.27,6.36,6.36,0,0,1,2.61-.24,6.17,6.17,0,0,1,2.45.85,6.4,6.4,0,0,1,1.84,1.75,6.93,6.93,0,0,1,1.19,4.6,11.59,11.59,0,0,0-2.31-3.63,5.78,5.78,0,0,0-7.11-.85A7.89,7.89,0,0,0,293.81,229.16Z" transform="translate(130.54 15.97)"/><path class="cls-10" d="M278.52,217.18a6,6,0,0,1,1.91-4.33,5.54,5.54,0,0,1,2.24-1.27,6.15,6.15,0,0,1,2.6-.25,6.08,6.08,0,0,1,4.3,2.61,6.89,6.89,0,0,1,1.18,4.6,11.46,11.46,0,0,0-2.3-3.63,5.89,5.89,0,0,0-3.42-1.67,5.77,5.77,0,0,0-3.69.82A7.84,7.84,0,0,0,278.52,217.18Z" transform="translate(130.54 15.97)"/><path class="cls-10" d="M297.05,216.87a6,6,0,0,1,1.9-4.33,5.86,5.86,0,0,1,2.24-1.27,6.36,6.36,0,0,1,2.61-.24,6.17,6.17,0,0,1,2.45.85,6.4,6.4,0,0,1,1.84,1.75,6.86,6.86,0,0,1,1.18,4.6,11.4,11.4,0,0,0-2.3-3.63,5.88,5.88,0,0,0-3.42-1.66,5.77,5.77,0,0,0-3.69.82A7.79,7.79,0,0,0,297.05,216.87Z" transform="translate(130.54 15.97)"/><path class="cls-10" d="M277.58,230.74a6,6,0,0,1,1.91-4.33,5.61,5.61,0,0,1,2.24-1.27,6.17,6.17,0,0,1,2.6-.25,6.32,6.32,0,0,1,2.46.85,6.43,6.43,0,0,1,1.84,1.76,6.89,6.89,0,0,1,1.18,4.6,11.18,11.18,0,0,0-2.3-3.63,5.89,5.89,0,0,0-3.42-1.67,5.77,5.77,0,0,0-3.69.82A7.84,7.84,0,0,0,277.58,230.74Z" transform="translate(130.54 15.97)"/><path class="cls-10" d="M271.2,224.5a6,6,0,0,1,1.9-4.33,5.8,5.8,0,0,1,2.24-1.27,6.36,6.36,0,0,1,2.61-.24,6.17,6.17,0,0,1,2.45.85,6.43,6.43,0,0,1,1.85,1.75,7,7,0,0,1,1.18,4.6,11.76,11.76,0,0,0-2.3-3.63,5.88,5.88,0,0,0-3.42-1.66,5.77,5.77,0,0,0-3.7.81A8.1,8.1,0,0,0,271.2,224.5Z" transform="translate(130.54 15.97)"/><path class="cls-10" d="M269.53,236.73a6,6,0,0,1,1.91-4.33,5.61,5.61,0,0,1,2.24-1.27,6.31,6.31,0,0,1,2.6-.24,6.21,6.21,0,0,1,2.45.84,6.34,6.34,0,0,1,1.85,1.76,6.91,6.91,0,0,1,1.18,4.6,11.4,11.4,0,0,0-2.3-3.63,5.89,5.89,0,0,0-3.42-1.67,5.77,5.77,0,0,0-3.69.82A8,8,0,0,0,269.53,236.73Z" transform="translate(130.54 15.97)"/><path class="cls-10" d="M264,216.33a6,6,0,0,1,1.91-4.33,5.61,5.61,0,0,1,2.24-1.27,6.33,6.33,0,0,1,2.6-.24,6.21,6.21,0,0,1,2.45.84,6.34,6.34,0,0,1,1.85,1.76,6.91,6.91,0,0,1,1.18,4.6,11.4,11.4,0,0,0-2.3-3.63,5.89,5.89,0,0,0-3.42-1.67,5.77,5.77,0,0,0-3.69.82A7.76,7.76,0,0,0,264,216.33Z" transform="translate(130.54 15.97)"/><path class="cls-10" d="M255,209.22a6,6,0,0,1,1.91-4.33,5.61,5.61,0,0,1,2.24-1.27,6.17,6.17,0,0,1,2.6-.25,6.32,6.32,0,0,1,2.46.85A6.43,6.43,0,0,1,266,206a6.89,6.89,0,0,1,1.18,4.6,11.18,11.18,0,0,0-2.3-3.63,5.89,5.89,0,0,0-3.42-1.67,5.77,5.77,0,0,0-3.69.82A8.05,8.05,0,0,0,255,209.22Z" transform="translate(130.54 15.97)"/><path class="cls-10" d="M256.06,197.32A6,6,0,0,1,258,193a5.73,5.73,0,0,1,2.24-1.27,6.33,6.33,0,0,1,2.6-.24,6.17,6.17,0,0,1,2.46.85,6.4,6.4,0,0,1,1.84,1.75,6.91,6.91,0,0,1,1.18,4.6,11.4,11.4,0,0,0-2.3-3.63,5.88,5.88,0,0,0-3.42-1.66,5.76,5.76,0,0,0-3.69.81A8.2,8.2,0,0,0,256.06,197.32Z" transform="translate(130.54 15.97)"/><path class="cls-10" d="M264.27,192.75a6,6,0,0,1,1.9-4.33,5.8,5.8,0,0,1,2.24-1.27,6.36,6.36,0,0,1,2.61-.24,6.17,6.17,0,0,1,2.45.85,6.4,6.4,0,0,1,1.84,1.75,6.85,6.85,0,0,1,1.18,4.6,11.4,11.4,0,0,0-2.3-3.63,5.82,5.82,0,0,0-3.42-1.66,5.76,5.76,0,0,0-3.69.81A8.1,8.1,0,0,0,264.27,192.75Z" transform="translate(130.54 15.97)"/><path class="cls-10" d="M257.64,161.79a5.71,5.71,0,0,1,.42-1.85,5.2,5.2,0,0,1,1-1.66,4.51,4.51,0,0,1,1.7-1.19,4.35,4.35,0,0,1,2-.33,5.3,5.3,0,0,1,3.58,1.79,5,5,0,0,1,1.36,3.54,7.85,7.85,0,0,0-2.15-2.73,5.82,5.82,0,0,0-2.91-1.18,4.06,4.06,0,0,0-2.87.91,6.46,6.46,0,0,0-1.18,1.21A8.71,8.71,0,0,0,257.64,161.79Z" transform="translate(130.54 15.97)"/><path class="cls-10" d="M255.55,156.64a5.77,5.77,0,0,1,.42-1.85,5.5,5.5,0,0,1,1-1.66,4.56,4.56,0,0,1,1.7-1.18,4.37,4.37,0,0,1,2.06-.33,5.29,5.29,0,0,1,3.57,1.78,5,5,0,0,1,1.36,3.54,7.81,7.81,0,0,0-2.15-2.72,5.64,5.64,0,0,0-2.91-1.18,4,4,0,0,0-2.87.91,6.18,6.18,0,0,0-1.18,1.21A15.8,15.8,0,0,0,255.55,156.64Z" transform="translate(130.54 15.97)"/><path class="cls-10" d="M247.26,171.84a5.28,5.28,0,0,1,.39-1.79,4.43,4.43,0,0,1,1.06-1.6,3.27,3.27,0,0,1,1.88-.91,3.07,3.07,0,0,1,1,0,4.09,4.09,0,0,1,1,.3,6.3,6.3,0,0,1,2.82,2.57,6.7,6.7,0,0,1,1,3.51,13,13,0,0,0-1.88-2.84,8,8,0,0,0-2.48-1.94,2.69,2.69,0,0,0-2.69.15,5.92,5.92,0,0,0-1.16,1.09A14.75,14.75,0,0,0,247.26,171.84Z" transform="translate(130.54 15.97)"/><path class="cls-10" d="M248.29,184.24a4.08,4.08,0,0,1,1.15-2.84,3.16,3.16,0,0,1,1.54-.82,3.44,3.44,0,0,1,1.75.15,5,5,0,0,1,2.46,2.09,5.14,5.14,0,0,1,.75,2.94,16.43,16.43,0,0,0-1.66-2.27,5.56,5.56,0,0,0-2-1.42,2.25,2.25,0,0,0-2.12.18A7,7,0,0,0,248.29,184.24Z" transform="translate(130.54 15.97)"/><path class="cls-10" d="M278.37,180.73a6.81,6.81,0,0,1-.66-1.75,5.06,5.06,0,0,1,0-1.94,4.59,4.59,0,0,1,.73-1.88,5.27,5.27,0,0,1,1.45-1.45,5.06,5.06,0,0,1,3.91-.72,4.65,4.65,0,0,1,1.78.84,3.57,3.57,0,0,1,1.12,1.52,5,5,0,0,0-3.05-1.28,4.9,4.9,0,0,0-3,.82,4.57,4.57,0,0,0-1.85,2.42,7.23,7.23,0,0,0-.33,1.64A8.75,8.75,0,0,0,278.37,180.73Z" transform="translate(130.54 15.97)"/><path class="cls-10" d="M280.88,186a7,7,0,0,1-.66-1.73,5.75,5.75,0,0,1-.06-1.9,4.93,4.93,0,0,1,.69-1.88,4.71,4.71,0,0,1,1.43-1.45,5,5,0,0,1,3.87-.67,4.24,4.24,0,0,1,2.91,2.3,5.55,5.55,0,0,0-3.09-1.21,4.9,4.9,0,0,0-2.94.76,4.35,4.35,0,0,0-1.81,2.39,6.65,6.65,0,0,0-.34,1.63C280.85,184.76,280.88,185.33,280.88,186Z" transform="translate(130.54 15.97)"/><path class="cls-10" d="M249.62,191.12a6,6,0,0,1,1.9-4.33,5.68,5.68,0,0,1,2.24-1.27,6.2,6.2,0,0,1,2.61-.25,6.33,6.33,0,0,1,2.45.85,6.43,6.43,0,0,1,1.84,1.76,6.84,6.84,0,0,1,1.18,4.6,11.18,11.18,0,0,0-2.3-3.63,5.84,5.84,0,0,0-3.42-1.67,5.77,5.77,0,0,0-3.69.82A7.75,7.75,0,0,0,249.62,191.12Z" transform="translate(130.54 15.97)"/><path class="cls-10" d="M257.34,185.91a6,6,0,0,1,.3-2.21,6.39,6.39,0,0,1,1.12-2.06,5.88,5.88,0,0,1,1.9-1.51,6.47,6.47,0,0,1,2.37-.64,6.4,6.4,0,0,1,4.54,1.52,5.85,5.85,0,0,1,1.42,1.9,4.54,4.54,0,0,1,.36,2.24,6.08,6.08,0,0,0-2.63-2.93,6.34,6.34,0,0,0-3.54-.82,5.73,5.73,0,0,0-3.33,1.33,8.38,8.38,0,0,0-1.36,1.42A9.4,9.4,0,0,0,257.34,185.91Z" transform="translate(130.54 15.97)"/><path class="cls-10" d="M250.31,180.58a6.07,6.07,0,0,1,.31-2.21,6.5,6.5,0,0,1,1.12-2.06,5.88,5.88,0,0,1,1.9-1.51,6.46,6.46,0,0,1,2.36-.63,6.31,6.31,0,0,1,4.54,1.51,5.81,5.81,0,0,1,1.43,1.91,4.51,4.51,0,0,1,.36,2.24,6.15,6.15,0,0,0-2.63-2.94,6.35,6.35,0,0,0-3.55-.82,5.74,5.74,0,0,0-3.32,1.33,8.91,8.91,0,0,0-1.37,1.43A11,11,0,0,0,250.31,180.58Z" transform="translate(130.54 15.97)"/><path class="cls-10" d="M256.4,173.8a5.56,5.56,0,0,1-.09-2.27,4.89,4.89,0,0,1,1-2.21,5.38,5.38,0,0,1,1.91-1.57,6.6,6.6,0,0,1,2.33-.7,7.46,7.46,0,0,1,4.63.94,4.77,4.77,0,0,1,1.76,1.64,3.33,3.33,0,0,1,.54,2.24,4.15,4.15,0,0,0-1.24-1.64,6.14,6.14,0,0,0-1.69-.91,8.59,8.59,0,0,0-3.79-.39,6.14,6.14,0,0,0-3.36,1.39,5.2,5.2,0,0,0-1.18,1.52A13.34,13.34,0,0,0,256.4,173.8Z" transform="translate(130.54 15.97)"/><path class="cls-10" d="M248.35,167.66a6.8,6.8,0,0,1,.27-2.18,5.19,5.19,0,0,1,1.18-2,5.42,5.42,0,0,1,2-1.3,6,6,0,0,1,2.3-.42,7.17,7.17,0,0,1,4.32,1.42,4.94,4.94,0,0,1,1.49,1.75,3.3,3.3,0,0,1,.3,2.18,4.41,4.41,0,0,0-2.42-3,7.81,7.81,0,0,0-3.69-.94,5.74,5.74,0,0,0-3.51,1.12,6.11,6.11,0,0,0-1.31,1.45A9.87,9.87,0,0,0,248.35,167.66Z" transform="translate(130.54 15.97)"/><path class="cls-10" d="M245.56,160.82a7.72,7.72,0,0,1,.24-2.48,5.58,5.58,0,0,1,1.27-2.27,5.16,5.16,0,0,1,2.34-1.37,6.26,6.26,0,0,1,2.69-.06,7.44,7.44,0,0,1,4.36,2.76,6.81,6.81,0,0,1,1.15,2.3,5.8,5.8,0,0,1,.12,2.48,7.5,7.5,0,0,0-2.09-4.06,7.64,7.64,0,0,0-3.81-2.08,4.77,4.77,0,0,0-4,.81,5.7,5.7,0,0,0-1.39,1.73A13,13,0,0,0,245.56,160.82Z" transform="translate(130.54 15.97)"/><path class="cls-10" d="M268.66,162.51a6.56,6.56,0,0,1,.27-2.18,5.15,5.15,0,0,1,1.18-2,5.45,5.45,0,0,1,2-1.31,6,6,0,0,1,2.3-.42,7.24,7.24,0,0,1,4.32,1.42,5,5,0,0,1,1.49,1.76,3.29,3.29,0,0,1,.3,2.18,4.45,4.45,0,0,0-2.42-3,7.93,7.93,0,0,0-3.69-.94,5.84,5.84,0,0,0-3.52,1.12,6.35,6.35,0,0,0-1.3,1.46A12,12,0,0,0,268.66,162.51Z" transform="translate(130.54 15.97)"/><path class="cls-10" d="M268.93,185.94a6.24,6.24,0,0,1,1.69-4.06,6.13,6.13,0,0,1,4.3-1.81,6.27,6.27,0,0,1,4.33,1.69,5.41,5.41,0,0,1,1.3,1.91,4.59,4.59,0,0,1,.3,2.18,6.72,6.72,0,0,0-2.51-2.94,6.53,6.53,0,0,0-3.39-1,6,6,0,0,0-3.36,1.06A10,10,0,0,0,268.93,185.94Z" transform="translate(130.54 15.97)"/><path class="cls-10" d="M263.33,178.31a6,6,0,0,1,1.75-4.05,6.12,6.12,0,0,1,4.36-1.73,6.42,6.42,0,0,1,4.36,1.73,5.25,5.25,0,0,1,1.3,1.9,4.61,4.61,0,0,1,.3,2.21,6.78,6.78,0,0,0-2.54-3,6.4,6.4,0,0,0-3.45-1,5.9,5.9,0,0,0-3.42,1A9.9,9.9,0,0,0,263.33,178.31Z" transform="translate(130.54 15.97)"/><path class="cls-10" d="M262.75,167.14a6,6,0,0,1,1.76-4,6.1,6.1,0,0,1,4.36-1.73,6.44,6.44,0,0,1,4.36,1.73,5.51,5.51,0,0,1,1.3,1.9,4.73,4.73,0,0,1,.3,2.21,6.84,6.84,0,0,0-2.54-3,6.4,6.4,0,0,0-3.45-1,5.9,5.9,0,0,0-3.42,1A9.54,9.54,0,0,0,262.75,167.14Z" transform="translate(130.54 15.97)"/><path class="cls-10" d="M271,172.74a6,6,0,0,1,1.75-4.05,6.12,6.12,0,0,1,4.36-1.73,6.44,6.44,0,0,1,4.36,1.73,5.38,5.38,0,0,1,1.3,1.9,4.73,4.73,0,0,1,.3,2.21,6.78,6.78,0,0,0-2.54-3,6.4,6.4,0,0,0-3.45-1,5.9,5.9,0,0,0-3.42,1A10.15,10.15,0,0,0,271,172.74Z" transform="translate(130.54 15.97)"/><path class="cls-10" d="M278.13,192.24a6,6,0,0,1,1.75-4.06,6.12,6.12,0,0,1,4.36-1.73,6.42,6.42,0,0,1,4.36,1.73,5.2,5.2,0,0,1,1.3,1.91,4.58,4.58,0,0,1,.31,2.21,6.89,6.89,0,0,0-2.55-3,6.4,6.4,0,0,0-3.45-1,5.9,5.9,0,0,0-3.42,1A9.53,9.53,0,0,0,278.13,192.24Z" transform="translate(130.54 15.97)"/><path class="cls-10" d="M271.74,208.76a6,6,0,0,1,1.91-4.33,5.66,5.66,0,0,1,2.24-1.27,6.31,6.31,0,0,1,2.6-.24,6.07,6.07,0,0,1,2.45.85,6.31,6.31,0,0,1,1.85,1.75,6.91,6.91,0,0,1,1.18,4.6,11.57,11.57,0,0,0-2.3-3.63,5.88,5.88,0,0,0-3.42-1.66,5.82,5.82,0,0,0-3.69.81A8,8,0,0,0,271.74,208.76Z" transform="translate(130.54 15.97)"/><path class="cls-10" d="M263.18,203.46a6,6,0,0,1,1.9-4.32,5.82,5.82,0,0,1,2.24-1.28,6.08,6.08,0,0,1,6.9,2.37,6.84,6.84,0,0,1,1.18,4.6,11.34,11.34,0,0,0-2.3-3.64,5.88,5.88,0,0,0-3.42-1.66,5.77,5.77,0,0,0-3.69.82A7.77,7.77,0,0,0,263.18,203.46Z" transform="translate(130.54 15.97)"/><path class="cls-10" d="M273,198.35a6,6,0,0,1,1.91-4.33,5.73,5.73,0,0,1,2.24-1.27,6.33,6.33,0,0,1,2.6-.24,6.07,6.07,0,0,1,2.45.85,6.18,6.18,0,0,1,1.85,1.75,6.91,6.91,0,0,1,1.18,4.6,11.4,11.4,0,0,0-2.3-3.63,6,6,0,0,0-3.42-1.67,5.83,5.83,0,0,0-3.69.82A8,8,0,0,0,273,198.35Z" transform="translate(130.54 15.97)"/><path class="cls-10" d="M264.24,244.42a5.38,5.38,0,0,1,.06-2.36,5.71,5.71,0,0,1,1.06-2.24,5.89,5.89,0,0,1,4.54-2.24,6.09,6.09,0,0,1,2.54.45,6.69,6.69,0,0,1,4.08,5.72,11.39,11.39,0,0,0-2.93-3.18,6.33,6.33,0,0,0-3.66-1.12,5.37,5.37,0,0,0-3.48,1.36A7.81,7.81,0,0,0,264.24,244.42Z" transform="translate(130.54 15.97)"/><path class="cls-10" d="M254,223.83a5.88,5.88,0,0,1,3.05-6.29,6.58,6.58,0,0,1,2.51-.7,6.13,6.13,0,0,1,2.58.4,6.34,6.34,0,0,1,2.15,1.36,6.9,6.9,0,0,1,2,4.3,10.61,10.61,0,0,0-2.93-3.15,5.77,5.77,0,0,0-3.66-1,5.62,5.62,0,0,0-3.48,1.45A8.09,8.09,0,0,0,254,223.83Z" transform="translate(130.54 15.97)"/><path class="cls-10" d="M248.29,203.16a6,6,0,0,1,.66-4.24,5,5,0,0,1,1.64-1.66,5.18,5.18,0,0,1,2.3-.76,5.12,5.12,0,0,1,2.36.4,5.5,5.5,0,0,1,1.9,1.3,6.17,6.17,0,0,1,1.7,3.9,11.11,11.11,0,0,0-2.67-2.78,5.11,5.11,0,0,0-3.14-.94,4.37,4.37,0,0,0-2.88,1.42A9.43,9.43,0,0,0,248.29,203.16Z" transform="translate(130.54 15.97)"/><path class="cls-10" d="M249.5,215.87a5.88,5.88,0,0,1,3.05-6.29,6.41,6.41,0,0,1,2.52-.7,6.11,6.11,0,0,1,2.57.4,6.34,6.34,0,0,1,2.15,1.36,6.9,6.9,0,0,1,2,4.3,10.61,10.61,0,0,0-2.93-3.15,5.77,5.77,0,0,0-3.66-1,5.62,5.62,0,0,0-3.48,1.45A8.65,8.65,0,0,0,249.5,215.87Z" transform="translate(130.54 15.97)"/><path class="cls-10" d="M250.49,230.83a6.09,6.09,0,0,1,.88-4.48,5.79,5.79,0,0,1,1.76-1.76,5.33,5.33,0,0,1,2.45-.79,4.62,4.62,0,0,1,1.33.13,6,6,0,0,1,1.24.48,5.28,5.28,0,0,1,1.82,1.72,6.6,6.6,0,0,1,.88,2.21l.09.58a3.63,3.63,0,0,1,0,.57,7,7,0,0,1,0,1.12c-.34-.66-.64-1.33-1-1.93a9.71,9.71,0,0,0-1.18-1.61,4.1,4.1,0,0,0-3.12-1.36,4.69,4.69,0,0,0-3.15,1.57A8.84,8.84,0,0,0,250.49,230.83Z" transform="translate(130.54 15.97)"/><path class="cls-10" d="M260.69,230.37a6,6,0,0,1,1.09-4.63,5.89,5.89,0,0,1,2-1.66,6.41,6.41,0,0,1,2.51-.7,6.29,6.29,0,0,1,2.58.39,6.53,6.53,0,0,1,2.15,1.37,6.9,6.9,0,0,1,2,4.29,10.7,10.7,0,0,0-2.93-3.14,5.77,5.77,0,0,0-3.66-1,5.67,5.67,0,0,0-3.49,1.45A8.55,8.55,0,0,0,260.69,230.37Z" transform="translate(130.54 15.97)"/><path class="cls-10" d="M254,238.88a5.91,5.91,0,0,1,3.05-6.3,6.57,6.57,0,0,1,2.51-.69,6.13,6.13,0,0,1,2.58.39,6.5,6.5,0,0,1,2.15,1.36,6.93,6.93,0,0,1,2,4.3,10.86,10.86,0,0,0-2.93-3.15,5.77,5.77,0,0,0-3.66-1,5.67,5.67,0,0,0-3.48,1.45A8.24,8.24,0,0,0,254,238.88Z" transform="translate(130.54 15.97)"/><path class="cls-10" d="M306.88,234.58a6,6,0,0,1,1.91-4.33A5.73,5.73,0,0,1,311,229a6.31,6.31,0,0,1,2.6-.24,6.07,6.07,0,0,1,2.45.85,6.18,6.18,0,0,1,1.85,1.75,6.91,6.91,0,0,1,1.18,4.6,11.4,11.4,0,0,0-2.3-3.63,6,6,0,0,0-3.42-1.67,5.83,5.83,0,0,0-3.69.82A8.43,8.43,0,0,0,306.88,234.58Z" transform="translate(130.54 15.97)"/><path class="cls-10" d="M310.27,227.83a6,6,0,0,1,1.91-4.33,5.73,5.73,0,0,1,2.24-1.27A6.31,6.31,0,0,1,317,222a6.07,6.07,0,0,1,2.45.85,6.18,6.18,0,0,1,1.85,1.75,6.91,6.91,0,0,1,1.18,4.6,11.4,11.4,0,0,0-2.3-3.63,6,6,0,0,0-3.42-1.67,5.83,5.83,0,0,0-3.69.82A8,8,0,0,0,310.27,227.83Z" transform="translate(130.54 15.97)"/><path class="cls-10" d="M286.66,249.32a4.76,4.76,0,0,1,.79-2.57,5.9,5.9,0,0,1,2-1.94A7.66,7.66,0,0,1,295,244a7.74,7.74,0,0,1,4.63,3.15,6.88,6.88,0,0,1,1,2.57,8,8,0,0,1,0,2.67,10,10,0,0,0-2.21-4.33,7.44,7.44,0,0,0-3.88-2.21,7.78,7.78,0,0,0-4.45.27,6.43,6.43,0,0,0-2,1.21A7.19,7.19,0,0,0,286.66,249.32Z" transform="translate(130.54 15.97)"/><path class="cls-10" d="M268,257.43c-.09-.21-.15-.39-.24-.6s-.09-.43-.15-.67,0-.45-.07-.7a5.85,5.85,0,0,1,.07-.72,4.12,4.12,0,0,1,1.54-2.48,5.67,5.67,0,0,1,2.72-1.15,6.67,6.67,0,0,1,2.94.18,7.26,7.26,0,0,1,.7.24l.66.3c.21.12.42.27.64.4l.57.45a6.21,6.21,0,0,1,1.67,2.39,6.82,6.82,0,0,1,.45,2.75l0,.67a5.57,5.57,0,0,1-.12.67,9.21,9.21,0,0,1-.36,1.27,22.73,22.73,0,0,0-.4-2.51,8.44,8.44,0,0,0-.88-2.21,5.78,5.78,0,0,0-3.42-2.64,5.63,5.63,0,0,0-4.26.4,3.78,3.78,0,0,0-1.52,1.57A5.59,5.59,0,0,0,268,257.43Z" transform="translate(130.54 15.97)"/><path class="cls-10" d="M272.2,251.07a5.3,5.3,0,0,1,.72-2.57,6.84,6.84,0,0,1,1.85-2.09,7.06,7.06,0,0,1,5.51-1.27,7.23,7.23,0,0,1,1.42.49l.33.18a2.77,2.77,0,0,1,.31.21,4.47,4.47,0,0,1,.6.45,5.37,5.37,0,0,1,1.58,2.49,8.17,8.17,0,0,1-.28,5.32c-.12-.87-.15-1.72-.33-2.54a8.21,8.21,0,0,0-.76-2.24,4.73,4.73,0,0,0-3.27-2.54,6.66,6.66,0,0,0-4.32.66A7.69,7.69,0,0,0,272.2,251.07Z" transform="translate(130.54 15.97)"/><path class="cls-10" d="M259.91,248.14a5.24,5.24,0,0,1,.72-2.57,6.47,6.47,0,0,1,1.94-2,6.4,6.4,0,0,1,2.7-1,6.81,6.81,0,0,1,2.9.27c.24.06.45.18.7.27a6,6,0,0,1,.66.37c.21.12.4.3.61.45a6.12,6.12,0,0,1,1.94,3.06,8.73,8.73,0,0,1-.34,5.3,14,14,0,0,0-1.06-4.79,5.81,5.81,0,0,0-1.27-1.78,4.68,4.68,0,0,0-1.81-1.06,5.07,5.07,0,0,0-2.12-.27,6,6,0,0,0-2.15.51A6.78,6.78,0,0,0,259.91,248.14Z" transform="translate(130.54 15.97)"/><path class="cls-10" d="M318.57,274.62a5.51,5.51,0,0,1,.72-2.72,6.73,6.73,0,0,1,2-2.18,8.37,8.37,0,0,1,5.69-1.45,7.82,7.82,0,0,1,2.91.9,6.54,6.54,0,0,1,2.24,2,6.76,6.76,0,0,1,1,2.76,7.55,7.55,0,0,1-.15,2.81,13.46,13.46,0,0,0-.72-2.57,7.09,7.09,0,0,0-1.33-2.09,6.48,6.48,0,0,0-4.18-2,8.42,8.42,0,0,0-4.69.85A7.07,7.07,0,0,0,318.57,274.62Z" transform="translate(130.54 15.97)"/><path class="cls-10" d="M327.4,268.54a5.49,5.49,0,0,1,.73-2.72,6.62,6.62,0,0,1,2-2.18,8.43,8.43,0,0,1,5.69-1.46,7.73,7.73,0,0,1,2.9.91,6.27,6.27,0,0,1,2.24,2,6.6,6.6,0,0,1,1.06,2.75,8.05,8.05,0,0,1-.15,2.82,13.25,13.25,0,0,0-.72-2.57,6.8,6.8,0,0,0-1.34-2.09,6.45,6.45,0,0,0-4.17-2,8.47,8.47,0,0,0-4.7.85A7.31,7.31,0,0,0,327.4,268.54Z" transform="translate(130.54 15.97)"/><path class="cls-10" d="M299.16,284.22a5.51,5.51,0,0,1,1-3,6.37,6.37,0,0,1,2.55-2.06,7.77,7.77,0,0,1,6.53.12,3.79,3.79,0,0,1,.73.43,6.67,6.67,0,0,1,.7.48l.33.27.3.31.3.3c.1.12.19.21.28.33a8.06,8.06,0,0,1,1.45,3,9.56,9.56,0,0,1,.3,3.18c0,.27,0,.51-.06.78s-.09.52-.12.76a11.46,11.46,0,0,1-.39,1.48,27,27,0,0,0-.34-3,12.14,12.14,0,0,0-.78-2.76,7.65,7.65,0,0,0-3.51-3.87,7.24,7.24,0,0,0-5.18-.45A6.49,6.49,0,0,0,299.16,284.22Z" transform="translate(130.54 15.97)"/></g></g><g id="ribbon_top"><path id="bg_yellow-2" data-name="bg_yellow" class="cls-4" d="M255.61,307.8l-.48,2.36s-5.21,19.37,10.41,40.65c14.19,15.13,35,9.92,35,9.92L292,364.52l-9,1.87h-5.2l-8.05-.93-8.06-2.85-6.62-4.72-4.73-6.63-2.84-7.08L246.11,338l-.49-8v-9.44l1.42-6.15,1.43-2.84,4.81-3.3Z" transform="translate(130.54 15.97)"/><path id="bg_orange" class="cls-3" d="M256.06,307.8l2.61-3,4.26-2.91,2.12-.69.49.94s0,16.07,7.08,30.72,4.27,13.22,17.95,24.12c3.3,1.42,7.57,2.85,10.41,2.85a2.85,2.85,0,0,1-1.42,1.27s-15.44,2-24.28-2.91A40.17,40.17,0,0,1,256,331.31C254.73,325.9,253.25,314.39,256.06,307.8Z" transform="translate(130.54 15.97)"/><path id="outline-3" data-name="outline" class="cls-5" d="M265.54,301.17c-.49,5.2,5.66,57.2,35.92,58.63-9.92,9-63.8,18.91-54.84-44.92.48-2.85,8-7.57,9.23-7.33C257.24,306.13,261.75,301.17,265.54,301.17Z" transform="translate(130.54 15.97)"/><path id="div" class="cls-5" d="M256.06,307.31c-4.26,7.57-3.3,61.44,44.92,53.42" transform="translate(130.54 15.97)"/></g><g id="ribbon_bottom"><path id="bg_c" class="cls-4" d="M304.76,358.37c.94-.48,8.06-1.42,16.56,1.88,3.78,1.42,20.34,4.27,27.42-2.85-.94,3.3-7.08,18.44-29.78,25.07-9.44,2.36-23.64-17-34-16.56A46.18,46.18,0,0,0,304.76,358.37Z" transform="translate(130.54 15.97)"/><path id="bg_t" class="cls-11" d="M302.4,359.8s.94-.49,2.85-1.43,7.08-.48,9.44,0,7.08,2.36,10.87,2.85,6.14.94,6.14.94l7.08-.49,4.73-.94,4.78-2.66-1.15,2.36-2.85,3.39-2.78,1.91s-8.08,5.57-26.39-2.18C313.27,362.61,307.12,358.37,302.4,359.8Z" transform="translate(130.54 15.97)"/><path id="bg_b" class="cls-11" d="M286.39,365.82l4.21,1.54,5.2,2.85,9.93,7.08s8.75,6.51,12.41,5.39,18.31-4.42,27.79-19.1c-2.85,3.3-6.09,6.35-6.09,6.35l-4.78,2.64-3.78,1.15s-10,3.45-28-5.78A37.56,37.56,0,0,0,286.39,365.82Z" transform="translate(130.54 15.97)"/><path id="outline-4" data-name="outline" class="cls-5" d="M304.76,358.37c.94-.48,8.06-1.42,16.56,1.88,3.78,1.42,20.34,4.27,27.42-2.85-.94,3.3-7.08,18.44-29.78,25.07-9.44,2.36-23.64-17-34-16.56A46.18,46.18,0,0,0,304.76,358.37Z" transform="translate(130.54 15.97)"/><path id="div_t_c" class="cls-5" d="M301,360.25s3.78-1.88,9.44.94c0,0,29.42,16.61,37.93-3.24" transform="translate(130.54 15.97)"/><path id="div_b_c" class="cls-12" d="M286.79,366.15s6.84-2.24,17.73,2.48,30.72,12.78,42.56-7.08" transform="translate(130.54 15.97)"/></g><g id="bellyFin"><path id="bg_orange-2" data-name="bg_orange" class="cls-11" d="M335.42,362.16c9.36-4.21,16.56-31.66,5.27-55.88-1.66-3.24,2.73-4.54,5-1.3.81-3,5.23-3.42,7.38.61,1.67-3.73,6.72-4.73,8.48.15,2.69-1.64,6.65-2.24,7.77,1.84,2.7-4.05,6.48-3.66,6.81.67C376.5,312.82,355.82,365.36,335.42,362.16Z" transform="translate(130.54 15.97)"/><path id="bg_yellow-3" data-name="bg_yellow" class="cls-4" d="M361.67,305.62s-.46,10.65-2.12,17.64-3.66,17.19-8.9,25.67a38.36,38.36,0,0,1-10.17,11.29,11,11,0,0,1-3.27,1.45l2.15-1.18a17.4,17.4,0,0,0,5-4.45,46.11,46.11,0,0,0,5.24-11.44c.61-2.84,2.72-10.56,3.09-15.59s1.27-15.28.66-22.06a7.45,7.45,0,0,1-.06-1.82l1.7-1.87,1.63-.76,1.39-.06,1.37.36,1.12,1Z" transform="translate(130.54 15.97)"/><path id="outline-5" data-name="outline" class="cls-13" d="M335.42,362.16c9.36-4.21,16.56-31.66,5.27-55.88-1.66-3.24,2.73-4.54,5-1.3.81-3,5.23-3.42,7.38.61,1.67-3.73,6.72-4.73,8.48.15,2.69-1.64,6.65-2.24,7.77,1.84,2.7-4.05,6.48-3.66,6.81.67C376.5,312.82,355.82,365.36,335.42,362.16Z" transform="translate(130.54 15.97)"/><path id="div_cen_left" class="cls-13" d="M353.07,305.5c.79,7.17,1.73,51-16.95,56.47" transform="translate(130.54 15.97)"/><path id="dive_cen_right" class="cls-13" d="M361.73,305.83c-.4,7.32-4.94,51-26.09,56.27" transform="translate(130.54 15.97)"/><path id="div_left_orange" class="cls-13" d="M345.59,304.83c5.39,6.33,6.69,50.58-9.68,57.08" transform="translate(130.54 15.97)"/><path id="div_right_orange" class="cls-13" d="M369.38,307.34c-.72,3.88-11.13,50.15-33.26,54.69" transform="translate(130.54 15.97)"/></g><g id="headFin"><path class="cls-14" d="M226.28,348.11s19.07,4,19.86,9.69,1,7.87.54,10.17-5.2,6.63-23.24-6" transform="translate(130.54 15.97)"/><path class="cls-14" d="M225.31,354.56a10.84,10.84,0,0,1,3,1.06c8.26,4.36,14.38,9.53,18.22,6.87" transform="translate(130.54 15.97)"/></g><g id="eye"><ellipse id="ball" class="cls-15" cx="216.19" cy="335.62" rx="5.51" ry="8.54" transform="translate(-40.82 447.39) rotate(-71.1)"/><path id="Pupil" class="cls-10" d="M215.78,329.89s4.54,8.26-3.72,9.87a33.66,33.66,0,0,1-3.55-3.12l-.87-3,.6-1.93,2.73-1.43,3-.63Z" transform="translate(130.54 15.97)"/></g><path id="mouth" class="cls-16" d="M163,345.15s11,1.36,16.44-.31c-3.42,1.52-9.93,2.61-15.59,1.88A7.27,7.27,0,0,0,163,345.15Z" transform="translate(130.54 15.97)"/></g><g id="Bhutan_Airlines" data-name="Bhutan Airlines"><path id="SVGID_1_" class="cls-17" d="M414.27,302.65A153.88,153.88,0,1,1,260.39,148.77,153.87,153.87,0,0,1,414.27,302.65Z" transform="translate(130.54 15.97)"/><text class="cls-19" transform="translate(0 3.12)"> </text></g></svg>