<?xml version="1.0" encoding="UTF-8"?>
<svg version="1.1" xmlns="http://www.w3.org/2000/svg" width="640" height="480">
<path d="M0 0 C211.2 0 422.4 0 640 0 C640 158.4 640 316.8 640 480 C428.8 480 217.6 480 0 480 C0 321.6 0 163.2 0 0 Z " fill="#D71A21" transform="translate(0,0)"/>
<path d="M0 0 C6.47630923 -0.36658354 6.47630923 -0.36658354 8.875 1.3125 C11.60516858 5.40775286 11.15160106 9.82514191 11.17578125 14.54296875 C11.19899049 16.27410055 11.22310826 18.00522037 11.24804688 19.73632812 C11.28305845 22.45719298 11.31245107 25.17761964 11.32592773 27.89868164 C11.34150434 30.53064856 11.38178291 33.1613427 11.42578125 35.79296875 C11.42387283 36.5953447 11.42196442 37.39772064 11.41999817 38.22441101 C11.55404268 44.48750259 13.08392089 49.92069081 17.4823761 54.56535339 C22.57684496 58.98928379 26.86491895 59.15899064 33.3269043 59.20532227 C34.17590302 59.21522186 35.02490173 59.22512146 35.89962769 59.23532104 C38.70779627 59.26692583 41.51598178 59.29168948 44.32421875 59.31640625 C46.27049704 59.33697666 48.21677088 59.35797315 50.16304016 59.37937927 C55.28728628 59.43459099 60.41157265 59.48400427 65.53588867 59.53222656 C70.76419663 59.58244813 75.99244608 59.63813078 81.22070312 59.69335938 C91.48041877 59.80092995 101.74018521 59.90237741 112 60 C112.14840332 58.72423096 112.29680664 57.44846191 112.44970703 56.1340332 C113.86060719 44.00504077 126.69305992 34.7786663 135.44140625 27.33984375 C136.67503179 26.27935864 137.84968251 25.15031749 139 24 C141.625 23.875 141.625 23.875 144 24 C144 24.66 144 25.32 144 26 C142.390625 27.55078125 142.390625 27.55078125 140.25 29.3125 C135.13250736 33.67821938 131.49493915 37.14359349 130.79467773 44.01464844 C130.73969116 45.05153809 130.73969116 45.05153809 130.68359375 46.109375 C130.64169922 46.86347656 130.59980469 47.61757812 130.55664062 48.39453125 C130.51732422 49.17183594 130.47800781 49.94914062 130.4375 50.75 C130.37272461 51.93916016 130.37272461 51.93916016 130.30664062 53.15234375 C130.20097009 55.10137815 130.10002034 57.05066748 130 59 C132.20904631 58.91224337 134.41728593 58.80405633 136.625 58.6875 C138.46964844 58.60048828 138.46964844 58.60048828 140.3515625 58.51171875 C145.12217469 57.84260719 148.58056794 56.41943206 152 53 C152.46162427 50.56747339 152.46162427 50.56747339 152.625 47.875 C152.69976562 46.96492188 152.77453125 46.05484375 152.8515625 45.1171875 C152.92503906 44.06917969 152.92503906 44.06917969 153 43 C154.98 44.32 156.96 45.64 159 47 C159.40089844 46.56429687 159.80179688 46.12859375 160.21484375 45.6796875 C171.55191984 33.80275064 171.55191984 33.80275064 179.75 33.3125 C183.30658471 33.55499441 184.03531403 34.02795694 187 36.375 C190.1564988 40.51790468 190.41624432 42.75532159 190 48 C187.8378213 54.82052471 184.24178939 59.49721139 179.125 64.375 C178.52558594 64.97699219 177.92617188 65.57898438 177.30859375 66.19921875 C172.87662755 70.53504685 168.8993732 73.9491338 162.4375 74.0625 C158.92434565 72.97661593 157.19579527 71.85987191 155 68.8984375 C153.19404554 65.46994582 152.56642906 61.80437428 152 58 C151.443125 58.56847656 150.88625 59.13695312 150.3125 59.72265625 C145.98871115 64.09757099 141.61824696 68.3230218 136.921875 72.296875 C136.28765625 72.85890625 135.6534375 73.4209375 135 74 C134.14704346 74.67611328 133.29408691 75.35222656 132.4152832 76.04882812 C129.12510474 80.06901182 129.33244085 82.88345299 129.43359375 87.921875 C129.42795914 88.781297 129.42232452 89.64071899 129.41651917 90.52618408 C129.40009554 93.26801317 129.41556775 96.00822777 129.4375 98.75 C129.4541714 101.47734458 129.46306316 104.20360634 129.44776917 106.93096924 C129.43859493 108.62396636 129.44729458 110.31719447 129.47740173 112.00994873 C129.44297613 119.54872059 127.03603814 126.42822598 121.8125 132 C121.21050781 132.64710938 120.60851562 133.29421875 119.98828125 133.9609375 C119.33214844 134.63382813 118.67601562 135.30671875 118 136 C117.27167969 136.75539062 116.54335938 137.51078125 115.79296875 138.2890625 C113.5613329 140.56251776 111.2949015 142.79054696 109 145 C108.03320312 145.94166016 108.03320312 145.94166016 107.046875 146.90234375 C102.70984606 150.90938135 102.70984606 150.90938135 99.0625 151.375 C98.381875 151.25125 97.70125 151.1275 97 151 C97.875 149.97916667 98.75 148.95833333 99.625 147.9375 C100.16898437 147.29941406 100.71296875 146.66132813 101.2734375 146.00390625 C102.38991078 144.70808998 103.5193839 143.42331318 104.6640625 142.15234375 C105.18742187 141.56582031 105.71078125 140.97929687 106.25 140.375 C106.72953125 139.84648437 107.2090625 139.31796875 107.703125 138.7734375 C110.5051316 134.94177787 111.25188311 131.24349613 111.31884766 126.56713867 C111.33871735 125.50641647 111.35858704 124.44569427 111.37905884 123.35282898 C111.39061005 122.2193251 111.40216125 121.08582123 111.4140625 119.91796875 C111.43342865 118.74865311 111.4527948 117.57933746 111.4727478 116.37458801 C111.53245195 112.64563251 111.57889297 108.91664599 111.625 105.1875 C111.66318815 102.6568877 111.70224037 100.12628827 111.7421875 97.59570312 C111.83814609 91.39724989 111.92322058 85.19871887 112 79 C110.99046265 79.00888245 109.98092529 79.01776489 108.9407959 79.0269165 C99.40728986 79.10815149 89.87385443 79.16803686 80.34008026 79.20724869 C75.43913805 79.22808595 70.5384762 79.25633285 65.63769531 79.30175781 C60.90441651 79.34535356 56.17140666 79.36916613 51.4379425 79.37950897 C49.63588734 79.38687575 47.83384619 79.40126133 46.03190613 79.42292023 C43.49946772 79.45213733 40.96812784 79.45594846 38.43554688 79.45410156 C37.69754852 79.46848267 36.95955017 79.48286377 36.19918823 79.49768066 C28.98487239 79.44108804 22.82576905 76.39516752 17.44140625 71.59765625 C5.94369318 58.85357862 6.55388029 43.78233993 6.56420898 27.71679688 C6.56062041 25.13111144 6.53323246 22.54644057 6.50390625 19.9609375 C6.51208878 19.18052094 6.5202713 18.40010437 6.52870178 17.59603882 C6.43420925 10.55371387 3.84644979 5.76967468 0 0 Z " fill="#FEFBFB" transform="translate(229,117)"/>
<path d="M0 0 C15.91826071 -1.03191606 15.91826071 -1.03191606 20.4375 2.5625 C23.32399237 5.71208412 23.91465834 8.7329168 24 13 C24.66 13 25.32 13 26 13 C26.165 12.13375 26.33 11.2675 26.5 10.375 C28.7660255 5.27644261 33.0693796 2.4653102 38 0 C46.32239142 -0.92178386 53.16313493 -0.04953106 60 5 C62.05742993 7.24784669 63.44275081 9.35267637 65 12 C65.515625 11.29875 66.03125 10.5975 66.5625 9.875 C74.66576899 0.31729811 74.66576899 0.31729811 80.50390625 -0.23828125 C89.15478248 -0.44820034 95.14526807 0.81565624 101.875 6.375 C107.18180346 12.9304631 107.41841437 18.31970157 107.37109375 26.4609375 C107.38847614 28.72916818 107.40606052 30.99739731 107.42382812 33.265625 C107.43389417 36.82262015 107.43749783 40.37951464 107.43579102 43.93652344 C107.43937158 47.38246308 107.46675329 50.82763507 107.49609375 54.2734375 C107.48791122 55.32888763 107.4797287 56.38433777 107.47129822 57.47177124 C107.53750922 64.07659318 108.46247609 68.37378996 112 74 C112.66 74.33 113.32 74.66 114 75 C114 75.66 114 76.32 114 77 C110.5627834 77.11604679 107.12606914 77.18719508 103.6875 77.25 C102.71103516 77.28351563 101.73457031 77.31703125 100.72851562 77.3515625 C99.79072266 77.36445313 98.85292969 77.37734375 97.88671875 77.390625 C96.59060669 77.4220459 96.59060669 77.4220459 95.26831055 77.45410156 C93 77 93 77 91.31958008 75.35058594 C87.78669069 69.05740203 87.71940834 63.35085074 87.7265625 56.30859375 C87.70628316 54.20897895 87.68543257 52.10936961 87.6640625 50.00976562 C87.64142563 46.71585458 87.62497284 43.42215922 87.61914062 40.12817383 C87.60962672 36.93792274 87.57587575 33.74863022 87.5390625 30.55859375 C87.54663071 29.08343544 87.54663071 29.08343544 87.55435181 27.57847595 C87.49197338 23.24582797 87.40781278 20.68420005 85.15380859 16.90258789 C82.35448228 14.42977561 80.37971485 14.04298659 76.6875 13.625 C72.93430711 14.00668063 71.06869094 14.75216704 68.25494385 17.25128174 C65.6561696 20.87257841 66.19282389 25.23310977 66.2734375 29.5234375 C66.27244049 30.54297516 66.27144348 31.56251282 66.27041626 32.61294556 C66.27509033 34.76645716 66.29450467 36.91998039 66.32763672 39.07324219 C66.37474355 42.35712248 66.36876682 45.63774351 66.35546875 48.921875 C66.36662639 51.0182484 66.38084873 53.11460819 66.3984375 55.2109375 C66.39661469 56.18719086 66.39479187 57.16344421 66.39291382 58.16928101 C66.52020366 64.34085462 67.58358012 67.86304421 71 73 C71 73.66 71 74.32 71 75 C71.66 75 72.32 75 73 75 C73 75.66 73 76.32 73 77 C69.5627834 77.11604679 66.12606914 77.18719508 62.6875 77.25 C61.71103516 77.28351563 60.73457031 77.31703125 59.72851562 77.3515625 C58.79072266 77.36445313 57.85292969 77.37734375 56.88671875 77.390625 C55.59060669 77.4220459 55.59060669 77.4220459 54.26831055 77.45410156 C52 77 52 77 50.25708008 75.16308594 C48.28650219 71.77226828 47.87171684 69.08632541 47.84228516 65.24072266 C47.83202301 64.27607086 47.82176086 63.31141907 47.81118774 62.3175354 C47.80388641 61.27688934 47.79658508 60.23624329 47.7890625 59.1640625 C47.7609967 56.96353419 47.73233226 54.76301345 47.703125 52.5625 C47.66184231 49.09082223 47.62495668 45.61928621 47.59863281 42.14746094 C47.57103436 38.7985309 47.52516516 35.45024474 47.4765625 32.1015625 C47.47330963 31.0649649 47.47005676 30.02836731 47.46670532 28.96035767 C47.39192916 21.97897043 47.39192916 21.97897043 44 16 C41.04880248 13.70462415 37.86181261 13.67149026 34.1953125 13.44140625 C30.65774225 14.34153533 28.17191531 16.1316837 26 19 C25.1263673 22.42314866 25.20562198 25.75241213 25.2734375 29.26953125 C25.27244049 30.26450119 25.27144348 31.25947113 25.27041626 32.28459167 C25.27509026 34.3868306 25.29450423 36.48908144 25.32763672 38.59106445 C25.37469211 41.79155868 25.36877339 44.98870229 25.35546875 48.18945312 C25.36662835 50.23699885 25.38085192 52.28453063 25.3984375 54.33203125 C25.39661469 55.28124954 25.39479187 56.23046783 25.39291382 57.20845032 C25.56051813 65.15796819 27.90127631 70.88153157 33 77 C29.58378212 77.14539953 26.16836009 77.23409725 22.75 77.3125 C21.78191406 77.35439453 20.81382812 77.39628906 19.81640625 77.43945312 C12.66533678 77.56274743 12.66533678 77.56274743 9.390625 74.79296875 C7.19770688 70.38865287 6.87538123 66.30846698 6.84228516 61.43457031 C6.83202301 60.34283508 6.82176086 59.25109985 6.81118774 58.12628174 C6.80388641 56.95539001 6.79658508 55.78449829 6.7890625 54.578125 C6.76099131 52.0833268 6.73232683 49.58853522 6.703125 47.09375 C6.66191096 43.17252812 6.62500962 39.25142947 6.59863281 35.33007812 C6.57092886 31.53750294 6.52505549 27.74548391 6.4765625 23.953125 C6.47330963 22.7903302 6.47005676 21.6275354 6.46670532 20.42950439 C6.37208383 14.12190333 6.24616047 7.60840488 3 2 C2.01 1.67 1.02 1.34 0 1 C0 0.67 0 0.34 0 0 Z " fill="#FEF9F9" transform="translate(146,312)"/>
<path d="M0 0 C0.10054688 0.57105469 0.20109375 1.14210937 0.3046875 1.73046875 C1.89331625 8.57462961 4.96250247 13.07090313 9.50732422 18.26831055 C12.73174626 22.08929263 14.07552804 24.96867052 14 30 C12.34765625 32.43359375 12.34765625 32.43359375 10.0625 34.4375 C9.31097656 35.11683594 8.55945313 35.79617187 7.78515625 36.49609375 C7.19605469 36.99238281 6.60695313 37.48867187 6 38 C2.125 36.125 2.125 36.125 1 35 C0.93941406 36.16917969 0.87882812 37.33835938 0.81640625 38.54296875 C0.73195966 40.09115614 0.64731375 41.63933268 0.5625 43.1875 C0.52318359 43.95642578 0.48386719 44.72535156 0.44335938 45.51757812 C0.10254779 51.62597044 0.10254779 51.62597044 -0.7421875 54.70703125 C-1.12772546 58.13598247 0.36920219 59.72719831 2.3125 62.5 C7.9993519 70.71305995 8.44622401 76.94926293 8.5625 86.8125 C8.61212891 88.05837891 8.66175781 89.30425781 8.71289062 90.58789062 C8.77984362 96.59771859 8.81172087 100.91138594 4.75390625 105.58203125 C3.52671238 106.74728179 2.27708135 107.88965013 1 109 C-0.22589844 110.32644531 -0.22589844 110.32644531 -1.4765625 111.6796875 C-2.54003906 112.76636719 -2.54003906 112.76636719 -3.625 113.875 C-4.33914063 114.61492187 -5.05328125 115.35484375 -5.7890625 116.1171875 C-11.08035397 120.62319897 -16.53069964 120.29407481 -23.15625 120.265625 C-24.13613892 120.26753845 -25.11602783 120.2694519 -26.12561035 120.27142334 C-28.19328061 120.27278175 -30.2609595 120.26910935 -32.32861328 120.26074219 C-35.48880213 120.25003793 -38.64842253 120.26064926 -41.80859375 120.2734375 C-43.82031375 120.27211584 -45.8320334 120.26955333 -47.84375 120.265625 C-49.25799255 120.27169769 -49.25799255 120.27169769 -50.70080566 120.27789307 C-57.01187827 120.23290637 -61.0132094 119.85063292 -65.79296875 115.3984375 C-68.70720319 111.64586165 -68.58216014 108.21337094 -68.3125 103.625 C-68.28994141 102.88894531 -68.26738281 102.15289062 -68.24414062 101.39453125 C-68.18572927 99.59546158 -68.09606337 97.79745247 -68 96 C-67.34 96 -66.68 96 -66 96 C-65.4225 96.66 -64.845 97.32 -64.25 98 C-62.13080406 100.23715183 -62.13080406 100.23715183 -59.125 100.5 C-51.27642811 99.2442285 -45.88341391 92.14995797 -40.5625 86.75 C-39.33176758 85.51830078 -39.33176758 85.51830078 -38.07617188 84.26171875 C-28.87267249 75.5041923 -28.87267249 75.5041923 -22 65 C-32.56809955 53.75287353 -32.56809955 53.75287353 -45.8125 47.4375 C-48.93370874 47.75693204 -48.93370874 47.75693204 -50.875 49.3125 C-53.24106377 52.86159565 -53.11705976 56.06627015 -53.09765625 60.19921875 C-53.09443359 61.40771484 -53.09121094 62.61621094 -53.08789062 63.86132812 C-53.07951172 65.12396484 -53.07113281 66.38660156 -53.0625 67.6875 C-53.05798828 68.96173828 -53.05347656 70.23597656 -53.04882812 71.54882812 C-53.03702873 74.69926564 -53.02056597 77.84960949 -53 81 C-60.44923219 74.77385294 -60.44923219 74.77385294 -63.375 71.25 C-64.09816406 70.39148438 -64.09816406 70.39148438 -64.8359375 69.515625 C-67.57101484 65.95451759 -67.53396748 62.31885462 -67 58 C-64.15735258 50.95517813 -58.58362836 46.13403639 -51.71264648 42.93505859 C-42.60905012 39.79701755 -27.46977317 39.85156007 -18.5390625 43.49609375 C-15.50636949 45.16511587 -12.77283601 46.93671125 -10 49 C-8.67552475 49.68409614 -7.34343077 50.35392261 -6 51 C-5.8835138 47.27109745 -5.81265424 43.54266486 -5.75 39.8125 C-5.71648437 38.75740234 -5.68296875 37.70230469 -5.6484375 36.61523438 C-5.50213224 30.42612407 -5.50213224 30.42612407 -7.9375 24.875 C-8.618125 24.25625 -9.29875 23.6375 -10 23 C-12.13015035 19.91128199 -12.53686122 16.8370394 -12.453125 13.08984375 C-11.59872204 9.1492784 -8.81568809 6.72597254 -6 4 C-5.2575 3.195625 -4.515 2.39125 -3.75 1.5625 C-2 0 -2 0 0 0 Z " fill="#FDF8F8" transform="translate(318,44)"/>
<path d="M0 0 C7.79204064 -0.10187788 15.58390788 -0.17166589 23.37646484 -0.21972656 C26.0243166 -0.2397738 28.67212446 -0.26701884 31.31982422 -0.30175781 C35.13780588 -0.35057744 38.95519936 -0.37303881 42.7734375 -0.390625 C43.94675629 -0.41127014 45.12007507 -0.43191528 46.32894897 -0.45318604 C54.97062728 -0.45551631 62.21674093 0.78020505 68.9375 6.5 C69.618125 7.325 70.29875 8.15 71 9 C71.598125 9.70125 72.19625 10.4025 72.8125 11.125 C74 13 74 13 74 16 C73.46632813 15.80664062 72.93265625 15.61328125 72.3828125 15.4140625 C71.63773437 15.15367187 70.89265625 14.89328125 70.125 14.625 C69.40570313 14.36976563 68.68640625 14.11453125 67.9453125 13.8515625 C58.77626439 11.2005645 49.89575188 10.61032239 40.375 10.375 C39.08464844 10.33632813 37.79429688 10.29765625 36.46484375 10.2578125 C33.3100313 10.16433658 30.15521273 10.07857687 27 10 C27.33 10.66 27.66 11.32 28 12 C28.08372659 13.52148326 28.10730027 15.04655778 28.09765625 16.5703125 C28.09443359 17.46621094 28.09121094 18.36210937 28.08789062 19.28515625 C28.07951172 20.22230469 28.07113281 21.15945313 28.0625 22.125 C28.05798828 23.06988281 28.05347656 24.01476562 28.04882812 24.98828125 C28.03702357 27.32558387 28.02055759 29.66276061 28 32 C29.134375 31.95359375 30.26875 31.9071875 31.4375 31.859375 C41.49939835 31.56822694 47.92162335 31.5840203 55.875 38.5 C57.69552243 40.64179109 58.9464524 42.41401954 60 45 C59.11183594 44.68289063 58.22367188 44.36578125 57.30859375 44.0390625 C51.68153328 42.43133094 45.87444641 42.53359774 40.0625 42.375 C38.90169922 42.33632813 37.74089844 42.29765625 36.54492188 42.2578125 C33.69676831 42.16404613 30.84861262 42.07834083 28 42 C28.09406385 46.71428123 28.20027064 51.42808061 28.31738281 56.1418457 C28.35549419 57.74300796 28.39037713 59.34425063 28.421875 60.94555664 C28.46791611 63.25696414 28.52584208 65.56782644 28.5859375 67.87890625 C28.59748871 68.58648575 28.60903992 69.29406525 28.62094116 70.02308655 C28.77079661 77.50981066 28.77079661 77.50981066 32 84 C34.42746404 84.13825999 36.82441003 84.21312671 39.25390625 84.23828125 C40.35532204 84.25038887 40.35532204 84.25038887 41.47898865 84.26274109 C43.04008613 84.27660405 44.60121421 84.28731626 46.16235352 84.29516602 C48.52876366 84.31225635 50.89373132 84.35610325 53.25976562 84.40039062 C61.03757319 84.47956536 67.33293496 84.48761263 74 80 C74.66 79.67 75.32 79.34 76 79 C76.45763495 84.72043683 75.71653644 87.59883843 72 92 C66.44551339 96.98526273 60.96481697 96.61313487 53.7421875 96.6015625 C52.56157745 96.61013275 51.38096741 96.618703 50.1645813 96.62753296 C47.67501386 96.63899538 45.18537944 96.64003785 42.69580078 96.63134766 C38.88068323 96.62500944 35.06864242 96.67202903 31.25390625 96.72265625 C28.83333725 96.72720066 26.4127599 96.72860996 23.9921875 96.7265625 C22.85047089 96.74498199 21.70875427 96.76340149 20.53244019 96.78237915 C17.56742037 96.74758063 14.89119012 96.65797781 12 96 C7.09658428 90.89877248 6.87598541 85.85355085 6.88989258 79.05102539 C6.88934991 77.61743671 6.88876291 76.18384805 6.88813782 74.7502594 C6.88956598 73.99286531 6.89099415 73.23547123 6.89246559 72.45512581 C6.89600591 68.41467892 6.87014345 64.37436763 6.84960938 60.33398438 C6.825372 55.20585577 6.80948267 50.07812883 6.82495117 44.94995117 C6.83671085 40.79523041 6.81895236 36.64150277 6.78250694 32.48693657 C6.77397093 30.91515675 6.77584865 29.34327995 6.789011 27.77153206 C6.87227794 17.0160968 5.45513111 9.51732364 0 0 Z " fill="#FEF9F9" transform="translate(67,293)"/>
<path d="M0 0 C3.18513194 2.60496219 6.14478343 5.28956686 8 9 C8.09842663 10.58627582 8.13552158 12.17655521 8.1418457 13.76586914 C8.14888016 14.7577272 8.15591461 15.74958527 8.16316223 16.77149963 C8.16732651 17.84850632 8.17149078 18.925513 8.17578125 20.03515625 C8.19899252 22.31185807 8.22311037 24.5885508 8.24804688 26.86523438 C8.28306907 30.45733608 8.31244975 34.0491063 8.32592773 37.64135742 C8.34147663 41.10636827 8.38174729 44.57040513 8.42578125 48.03515625 C8.42387283 49.09799332 8.42196442 50.16083038 8.41999817 51.25587463 C8.5559937 59.6173783 10.40688065 66.56791275 16 73 C12.58378212 73.14539953 9.16836009 73.23409725 5.75 73.3125 C4.78191406 73.35439453 3.81382812 73.39628906 2.81640625 73.43945312 C-4.35484548 73.5630954 -4.35484548 73.5630954 -7.671875 70.66796875 C-9 68 -9 68 -9 65 C-9.51949219 65.40992188 -10.03898437 65.81984375 -10.57421875 66.2421875 C-11.27160156 66.78101563 -11.96898437 67.31984375 -12.6875 67.875 C-13.37199219 68.40867187 -14.05648438 68.94234375 -14.76171875 69.4921875 C-20.82657634 73.57776346 -26.87208144 73.86903287 -34 73 C-38.97126066 71.34559015 -42.05272865 68.6141262 -44.5 64 C-46.941439 57.4015162 -47.58003213 50.00076061 -44.96484375 43.37890625 C-40.47882986 35.96886102 -34.0042508 32.3341716 -26.30078125 28.84375 C-25.45281982 28.45703125 -24.6048584 28.0703125 -23.73120117 27.671875 C-22.01775631 26.90142673 -20.29526431 26.15073751 -18.5637207 25.421875 C-14.57662122 23.65356815 -12.43265827 22.64485898 -9.953125 18.94921875 C-8.8083814 15.4070818 -8.58124331 12.69901746 -9 9 C-10.06747548 7.20190496 -10.06747548 7.20190496 -12 6 C-16.91011175 5.21333323 -22.52383558 4.7874692 -27.08203125 7.01953125 C-28.86098507 8.4450174 -28.86098507 8.4450174 -31 11 C-31.99409348 12.00587184 -32.99274866 13.00730431 -34 14 C-34.4705135 9.9026116 -34.69577977 6.07907531 -34 2 C-26.08639983 -7.24216079 -9.44636676 -5.53310107 0 0 Z " fill="#FEF9F9" transform="translate(393,316)"/>
<path d="M0 0 C3.72214126 2.90019624 6.40303594 5.758638 7.63671875 10.390625 C8.1342431 17.42230245 5.36744887 22.65712492 1 28 C-5.2968685 34.37895058 -12.96545522 38.33847476 -20.875 42.3359375 C-23.99884397 43.80432234 -23.99884397 43.80432234 -26 46 C-25.78539055 52.31204263 -23.42458725 56.68076006 -19 61 C-14.11564223 64.07258948 -8.55988887 63.72773414 -3 63 C1.03960993 61.16381367 3.91362437 58.12300917 7 55 C7.10807131 56.93627769 7.1856225 58.87427756 7.25 60.8125 C7.29640625 61.89144531 7.3428125 62.97039062 7.390625 64.08203125 C7 67 7 67 5.484375 68.69921875 C-4.52947413 73.942319 -15.611094 75.14359471 -26.5546875 71.96875 C-36.44039206 67.44094639 -43.30640428 59.86291886 -47.15234375 49.70703125 C-49.77763173 38.22593313 -49.76947796 24.48181555 -44 14 C-43.56429688 13.19433594 -43.12859375 12.38867188 -42.6796875 11.55859375 C-38.36179098 4.39749215 -32.27705215 -0.90143586 -24.2578125 -3.52734375 C-15.77340663 -5.303491 -7.45975935 -4.545189 0 0 Z " fill="#FDF8F9" transform="translate(505,316)"/>
<path d="M0 0 C3.25 -0.375 3.25 -0.375 7 0 C10.97879369 4.52415978 11.55757549 8.44535385 11.46875 14.2578125 C11.47579956 15.04211639 11.48284912 15.82642029 11.4901123 16.63449097 C11.51934619 19.96191002 11.5031143 23.28872923 11.49072266 26.61621094 C11.47610969 41.3986837 12.79209607 53.68376779 23.66015625 64.6796875 C29.72045989 70.22921384 36.80361239 74.08780318 45.1105957 74.17700195 C46.15210281 74.18983719 47.19360992 74.20267242 48.26667786 74.21589661 C49.95418404 74.22697701 49.95418404 74.22697701 51.67578125 74.23828125 C52.83369675 74.246353 53.99161224 74.25442474 55.18461609 74.26274109 C57.63665266 74.27657855 60.08870847 74.28730221 62.54077148 74.29516602 C66.28731822 74.31238427 70.03298386 74.35627576 73.77929688 74.40039062 C76.16145184 74.41051714 78.54361431 74.41903337 80.92578125 74.42578125 C82.04471268 74.44328934 83.1636441 74.46079742 84.31648254 74.47883606 C90.5222186 74.46156115 94.30089208 74.206019 99 70 C100.78075744 67.65263792 101.04964549 65.77433868 101.6875 62.875 C100.59957769 56.74307423 96.32411785 53.26948098 92 49 C90 47 90 47 89.77294922 44.66162109 C89.78342285 43.70852051 89.79389648 42.75541992 89.8046875 41.7734375 C89.81113281 40.7421875 89.81757813 39.7109375 89.82421875 38.6484375 C89.84935547 37.02808594 89.84935547 37.02808594 89.875 35.375 C89.88402344 34.28703125 89.89304687 33.1990625 89.90234375 32.078125 C89.92596591 29.38519848 89.95890444 26.69270745 90 24 C90.66 24 91.32 24 92 24 C93.23298489 25.43292839 94.45962285 26.87238004 95.63671875 28.3515625 C97.13452925 30.22210559 97.13452925 30.22210559 99.625 32.5625 C105.77750446 38.87691247 105.4889511 44.37919682 105.4375 52.8125 C105.45748047 53.96298828 105.47746094 55.11347656 105.49804688 56.29882812 C105.49078734 68.9667134 100.72174518 75.17767456 92 84 C81.55157728 94.12605759 72.62806929 95.2006458 58.4375 95.3125 C57.23802734 95.34150391 56.03855469 95.37050781 54.80273438 95.40039062 C41.20977523 95.49575407 30.17106889 92.17678171 20 83 C12.8101881 75.44252726 6.90235644 65.81376718 6.8581543 55.17480469 C6.85111984 54.2199115 6.84408539 53.26501831 6.83683777 52.28118896 C6.83059135 50.74207855 6.83059135 50.74207855 6.82421875 49.171875 C6.80101732 46.98827164 6.77689985 44.80467786 6.75195312 42.62109375 C6.71688078 39.18694675 6.68751233 35.75315176 6.67407227 32.31884766 C6.65854366 28.99859214 6.61830028 25.67935853 6.57421875 22.359375 C6.57612717 21.34139832 6.57803558 20.32342163 6.58000183 19.27459717 C6.44519213 11.36548687 4.32488196 6.48732294 0 0 Z " fill="#FDF8F8" transform="translate(220,179)"/>
<path d="M0 0 C3.46273878 1.62325755 5.51743624 3.36657516 8.0625 6.25 C8.73410156 6.99765625 9.40570313 7.7453125 10.09765625 8.515625 C14.78217123 14.63338995 15.45762555 19.50214524 15.43359375 26.97265625 C15.4388356 27.93215683 15.44407745 28.89165741 15.44947815 29.88023376 C15.45588669 31.90834591 15.45457651 33.93649528 15.44604492 35.96459961 C15.4375937 39.02852874 15.46621771 42.09055444 15.49804688 45.15429688 C15.55433031 60.71135553 14.15387333 73.81952405 3.328125 85.859375 C-8.10442433 96.90106794 -23.20769619 100.63941451 -38.62329102 100.93041992 C-45.54557862 100.73445704 -49.58457553 99.271293 -54.4375 94.3125 C-55.8469367 92.74486852 -57.21317896 91.15300684 -58.55810547 89.52978516 C-60.18003274 87.80899337 -61.89644379 86.56175202 -63.84765625 85.23046875 C-65.40806641 84.12638672 -65.40806641 84.12638672 -67 83 C-67 82.34 -67 81.68 -67 81 C-65.26882935 80.98598145 -65.26882935 80.98598145 -63.50268555 80.97167969 C-59.17288254 80.93145519 -54.84376611 80.86561031 -50.5144043 80.79248047 C-48.64958596 80.76445746 -46.78465296 80.7431512 -44.91967773 80.72900391 C-25.87723617 80.57597062 -14.56624663 76.93500005 -0.94555664 63.32128906 C5.52195776 56.59534731 10.36925117 48.88698909 11.375 39.5 C10.91020454 35.16190905 9.74536573 33.37891166 7 30 C6.42121094 29.53650146 5.84242188 29.07300293 5.24609375 28.59545898 C2.19435536 26.08884453 0.25562911 24.2248666 -0.56811523 20.27783203 C-0.68768786 17.17905553 -0.61237655 14.15839154 -0.4375 11.0625 C-0.40591797 9.99708984 -0.37433594 8.93167969 -0.34179688 7.83398438 C-0.25973625 5.21976725 -0.14502211 2.6113542 0 0 Z " fill="#FDF8F8" transform="translate(372,193)"/>
<path d="M0 0 C1.32 0.66 2.64 1.32 4 2 C4 5.96 4 9.92 4 14 C2.30729167 12.50260417 0.61458333 11.00520833 -1.078125 9.5078125 C-5.36344051 6.14575602 -8.5296375 5.52841703 -14 6 C-17.35161246 7.38214122 -17.35161246 7.38214122 -20 9 C-20.44978403 12.77818583 -20.21695192 14.63583071 -18.25 17.9375 C-14.80827877 21.70465619 -10.27711783 23.88076597 -5.875 26.3515625 C1.3754275 30.50873696 6.33043329 35.99129988 9 44 C9.98611013 51.67757172 8.52432608 57.69977022 4 64 C-2.77321707 71.09321157 -10.71811025 73.95888118 -20.375 74.5 C-26.93179294 74.34991604 -32.12817652 71.76321105 -38 69 C-38 64.71 -38 60.42 -38 56 C-37.2575 56.763125 -36.515 57.52625 -35.75 58.3125 C-31.46192338 62.50312034 -29.28021484 64.42966894 -23.125 64.4375 C-17.73156527 64.29937545 -14.91804574 63.71183281 -11 60 C-8.6432367 56.78623186 -8.68089169 53.90907679 -9 50 C-9.63215742 47.25141979 -9.63215742 47.25141979 -11 45 C-12.30675077 44.28262657 -13.64737516 43.62660057 -15 43 C-25.20727934 37.54364052 -33.39755707 32.79903164 -37.3359375 21.48046875 C-38.78913241 16.05235837 -38.78114496 11.85627136 -36 6.8125 C-27.81977766 -5.06050842 -12.23643583 -5.47750105 0 0 Z " fill="#FDF8F8" transform="translate(558,315)"/>
<path d="M0 0 C0.33 0 0.66 0 1 0 C1 5.28 1 10.56 1 16 C6.61 16 12.22 16 18 16 C18 19.96 18 23.92 18 28 C17.236875 27.690625 16.47375 27.38125 15.6875 27.0625 C12.413598 26.1191723 9.6423855 25.7111229 6.26953125 25.43359375 C5.28186768 25.35036865 4.2942041 25.26714355 3.27661133 25.18139648 C2.14968872 25.09160522 2.14968872 25.09160522 1 25 C1.01492523 32.42442988 1.05674215 39.84820785 1.13209057 47.27228546 C1.16625777 50.7203476 1.19145428 54.16797156 1.19555664 57.61621094 C1.20068736 61.58828767 1.24590249 65.55944043 1.29296875 69.53125 C1.2890361 70.75863892 1.28510345 71.98602783 1.28105164 73.25061035 C1.40596306 80.63091894 2.40164021 85.19838338 7 91 C7.33 91.66 7.66 92.32 8 93 C4.58397985 93.17446934 1.16910363 93.28089623 -2.25 93.375 C-3.21808594 93.42527344 -4.18617188 93.47554688 -5.18359375 93.52734375 C-6.11816406 93.54667969 -7.05273438 93.56601562 -8.015625 93.5859375 C-8.87446289 93.6173584 -9.73330078 93.6487793 -10.61816406 93.68115234 C-13.45793658 92.86904028 -14.76585989 91.73879989 -16.25811768 89.18759155 C-18.02504532 83.97744452 -17.47704804 78.28901728 -17.390625 72.8515625 C-17.3831563 71.47009096 -17.37746634 70.08860876 -17.37347412 68.7071228 C-17.35826689 65.08683562 -17.31902917 61.4671995 -17.2746582 57.84716797 C-17.23359831 54.14689947 -17.21544037 50.44652484 -17.1953125 46.74609375 C-17.15252847 39.49706591 -17.08222075 32.24870746 -17 25 C-21.29 25 -25.58 25 -30 25 C-26.69150329 22.51862747 -23.50841432 20.54796058 -19.9375 18.5 C-12.05620493 13.81792028 -5.11170301 7.66755451 0 0 Z " fill="#FEF9F9" transform="translate(438,296)"/>
<path d="M0 0 C2.54283234 -0.10871967 5.08095088 -0.18762401 7.625 -0.25 C8.33785156 -0.28351563 9.05070312 -0.31703125 9.78515625 -0.3515625 C14.98329748 -0.44694124 17.91552727 0.50605345 22 4 C23.48548227 6.29829332 24.09373061 8.38188843 25 11 C25.556875 10.2575 26.11375 9.515 26.6875 8.75 C29.67360518 5.198956 33.14492204 1.29167791 37.98828125 0.796875 C42.86887512 0.69844285 45.99896563 0.8741919 50 4 C51 5 51 5 51.09765625 7.94140625 C51.08605469 9.13636719 51.07445312 10.33132813 51.0625 11.5625 C51.05347656 12.76003906 51.04445313 13.95757812 51.03515625 15.19140625 C51.02355469 16.11824219 51.01195312 17.04507812 51 18 C50.2575 17.505 49.515 17.01 48.75 16.5 C43.82476642 14.0608367 38.33530685 14.19714945 33 15 C29.77490829 16.63987714 27.64037216 18.71925569 26 22 C25.86388069 25.02973414 25.78715909 28.03522517 25.76171875 31.06640625 C25.753647 31.97446518 25.74557526 32.88252411 25.73725891 33.81809998 C25.72340957 35.74565723 25.71269123 37.67323909 25.70483398 39.60083008 C25.68770958 42.52669069 25.64384241 45.45139508 25.59960938 48.37695312 C25.58947445 50.25259588 25.58096086 52.12824823 25.57421875 54.00390625 C25.55671066 54.8698793 25.53920258 55.73585236 25.52116394 56.62806702 C25.54835912 64.37822626 27.85385444 71.08193261 33 77 C29.58378212 77.14539953 26.16836009 77.23409725 22.75 77.3125 C21.78191406 77.35439453 20.81382812 77.39628906 19.81640625 77.43945312 C12.61419942 77.5636291 12.61419942 77.5636291 9.390625 74.60546875 C7.3214502 70.72867215 6.8693075 68.67955315 6.84228516 64.25268555 C6.82689194 62.44522102 6.82689194 62.44522102 6.81118774 60.60124207 C6.80388641 59.29294937 6.79658508 57.98465668 6.7890625 56.63671875 C6.77610019 55.28391196 6.76228426 53.9311131 6.74765015 52.57832336 C6.68605 46.8287367 6.63203763 41.07917073 6.59863281 35.3293457 C6.57765096 31.81256469 6.54231782 28.2961709 6.49787521 24.77961159 C6.47687906 22.79169063 6.47167129 20.80362317 6.46670532 18.81559753 C6.45013885 17.6011647 6.43357239 16.38673187 6.41650391 15.13549805 C6.40841705 14.06897507 6.4003302 13.00245209 6.39199829 11.90361023 C5.9477483 8.61296118 4.80648886 6.7472103 3 4 C3 3.34 3 2.68 3 2 C2.01 1.67 1.02 1.34 0 1 C0 0.67 0 0.34 0 0 Z " fill="#FEFAFA" transform="translate(299,312)"/>
<path d="M0 0 C1.2065625 0.0309375 1.2065625 0.0309375 2.4375 0.0625 C1.5625 1.08333333 0.6875 2.10416667 -0.1875 3.125 C-1.00347656 4.08212891 -1.00347656 4.08212891 -1.8359375 5.05859375 C-2.95241078 6.35441002 -4.0818839 7.63918682 -5.2265625 8.91015625 C-5.74992187 9.49667969 -6.27328125 10.08320312 -6.8125 10.6875 C-7.53179687 11.48027344 -7.53179687 11.48027344 -8.265625 12.2890625 C-11.36149654 16.52257358 -11.81222764 20.4709138 -11.81787109 25.62182617 C-11.82830948 27.58492989 -11.82830948 27.58492989 -11.83895874 29.58769226 C-11.8382777 30.2826499 -11.83759666 30.97760754 -11.83689499 31.6936245 C-11.83592421 33.88547747 -11.84893858 36.07684737 -11.86587524 38.26863098 C-11.91196581 44.49814071 -11.93672173 50.72760088 -11.94335938 56.95727539 C-11.94840755 60.77581701 -11.9728256 64.59385534 -12.00868607 68.41222572 C-12.01841071 69.85808587 -12.02085655 71.30401593 -12.01551437 72.74989891 C-11.97712266 83.65669564 -12.9576396 93.04195344 -20.8125 101.25 C-21.59882813 102.07371094 -22.38515625 102.89742188 -23.1953125 103.74609375 C-25.93219363 106.42426291 -28.71587768 108.99927337 -31.65234375 111.45703125 C-32.94582169 112.54418756 -34.20880703 113.66849682 -35.44140625 114.82421875 C-39.928196 118.98152502 -39.928196 118.98152502 -43.5 119.4375 C-44.5209375 119.251875 -44.5209375 119.251875 -45.5625 119.0625 C-40.20091548 112.50331069 -40.20091548 112.50331069 -36.9375 110.25 C-32.47062506 106.13577308 -30.83680881 100.63966199 -30.20288086 94.68383789 C-30.09535753 91.48229336 -30.04958127 88.29113091 -30.0766449 85.08792114 C-30.09415943 82.95002364 -30.08626675 80.8134486 -30.0723877 78.67553711 C-30.04724288 74.13776412 -30.05251012 69.60031409 -30.0625 65.0625 C-30.07409248 59.79672062 -30.07262113 54.53159796 -30.03843689 49.26589966 C-30.03142606 47.17744681 -30.04790733 45.09007614 -30.06555176 43.00170898 C-30.01505353 33.44529354 -28.94477148 25.55869763 -22.390625 18.26953125 C-21.2137806 17.12153027 -20.02062713 15.99003265 -18.8125 14.875 C-18.19286377 14.27985596 -17.57322754 13.68471191 -16.93481445 13.0715332 C-12.59740054 8.93361879 -8.15592288 4.9146212 -3.5625 1.0625 C-2.5625 0.0625 -2.5625 0.0625 0 0 Z " fill="#FEFBFB" transform="translate(370.5625,43.9375)"/>
<path d="M0 0 C2.54283234 -0.10871967 5.08095088 -0.18762401 7.625 -0.25 C8.33785156 -0.28351563 9.05070312 -0.31703125 9.78515625 -0.3515625 C14.98152712 -0.44690875 17.97122401 0.43199311 22 4 C26.05534326 9.78939359 25.38884536 15.99590108 25.3359375 22.7734375 C25.34844928 25.31510672 25.36148637 27.85677341 25.375 30.3984375 C25.3789298 34.39012693 25.37497662 38.38138088 25.36035156 42.37304688 C25.3517671 46.23605506 25.37348833 50.098021 25.3984375 53.9609375 C25.38509369 55.14763031 25.37174988 56.33432312 25.35800171 57.55697632 C25.42277574 64.84867213 26.48389784 69.26192282 31 75 C31.495 75.99 31.495 75.99 32 77 C28.56265937 77.08703823 25.12560163 77.14040272 21.6875 77.1875 C20.71103516 77.21263672 19.73457031 77.23777344 18.72851562 77.26367188 C17.79072266 77.27333984 16.85292969 77.28300781 15.88671875 77.29296875 C14.59060669 77.31653442 14.59060669 77.31653442 13.26831055 77.34057617 C11 77 11 77 9.31958008 75.91918945 C4.8548704 69.42574213 5.70468736 61.37223593 5.69140625 53.83984375 C5.66625781 51.24674243 5.64085962 48.65364353 5.61523438 46.06054688 C5.58444772 41.98985825 5.56219412 37.91914969 5.54370117 33.84838867 C5.52473094 29.90786179 5.48263617 25.96770075 5.44140625 22.02734375 C5.44129044 20.81159164 5.44117462 19.59583954 5.4410553 18.34324646 C5.36976606 10.25389948 5.36976606 10.25389948 2 3 C1.34 2.01 0.68 1.02 0 0 Z " fill="#FDF8F8" transform="translate(263,312)"/>
<path d="M0 0 C4.63140154 2.03063639 7.74466826 7.02708578 10.89599609 10.83129883 C12.06582031 12.2312207 12.06582031 12.2312207 13.25927734 13.65942383 C19.38706079 21.45248413 19.38706079 21.45248413 19.39599609 26.51879883 C19.23099609 27.61192383 19.06599609 28.70504883 18.89599609 29.83129883 C15.83705007 31.60309609 13.64824475 32.07727866 10.12744141 32.05834961 C9.18676819 32.05819855 8.24609497 32.05804749 7.2769165 32.05789185 C5.76578278 32.04240799 5.76578278 32.04240799 4.22412109 32.02661133 C3.18656677 32.02378143 2.14901245 32.02095154 1.08001709 32.01803589 C-2.23144092 32.00684748 -5.54262774 31.9817451 -8.85400391 31.95629883 C-11.10009375 31.94626731 -13.34618783 31.93714176 -15.59228516 31.92895508 C-21.09628382 31.90691253 -26.60012449 31.87344815 -32.10400391 31.83129883 C-28.8994636 28.06230312 -25.69104025 24.31338882 -22.29931641 20.71020508 C-21.29964844 19.64769531 -21.29964844 19.64769531 -20.27978516 18.5637207 C-19.60302734 17.84764648 -18.92626953 17.13157227 -18.22900391 16.39379883 C-17.55998047 15.6815918 -16.89095703 14.96938477 -16.20166016 14.2355957 C-14.85775681 12.81012597 -13.50786626 11.39027553 -12.15185547 9.97631836 C-10.7359196 8.49319812 -9.3378372 6.9929015 -7.95458984 5.47924805 C-7.25881836 4.73819824 -6.56304687 3.99714844 -5.84619141 3.23364258 C-5.22341309 2.5568042 -4.60063477 1.87996582 -3.95898438 1.18261719 C-2.10400391 -0.16870117 -2.10400391 -0.16870117 0 0 Z " fill="#D71C23" transform="translate(302.10400390625,114.168701171875)"/>
<path d="M0 0 C0.09889302 4.50229474 0.17147709 9.00395727 0.21972656 13.50708008 C0.2398398 15.03876762 0.2671345 16.57037839 0.30175781 18.10180664 C0.35029315 20.30374073 0.37296996 22.50465982 0.390625 24.70703125 C0.41127014 25.39150833 0.43191528 26.07598541 0.45318604 26.78120422 C0.45468434 29.95728044 0.42275186 31.56426892 -1.83691406 33.89331055 C-6.10973676 36.07939467 -10.25926508 36.70728706 -15 36 C-17.96858157 33.79259319 -18.82865791 32.51402627 -20 29 C-20.79014036 22.43276786 -19.77588222 17.44662656 -16 12 C-12.69460662 7.97495135 -5.67058417 0 0 0 Z " fill="#D71F26" transform="translate(383,344)"/>
<path d="M0 0 C3.36836489 1.45761081 5.56505752 3.3240226 8.125 5.9375 C8.80820312 6.62714844 9.49140625 7.31679687 10.1953125 8.02734375 C12.51649674 10.56456894 13.89547882 12.36125944 14.45703125 15.79296875 C13.84225988 20.10687724 11.63717369 22.32562992 8.6875 25.3125 C8.18798828 25.84939453 7.68847656 26.38628906 7.17382812 26.93945312 C4.82820497 29.40313414 3.27019866 30.90993378 0 32 C-0.38800781 31.14148438 -0.77601563 30.28296875 -1.17578125 29.3984375 C-3.16048016 25.70103268 -5.45664166 22.78048539 -8.1875 19.625 C-8.88262695 18.80708984 -8.88262695 18.80708984 -9.59179688 17.97265625 C-10.72246778 16.64382653 -11.86047774 15.3212472 -13 14 C-8.88380164 9.08064098 -4.59589638 4.47352044 0 0 Z " fill="#FDF9F9" transform="translate(287,205)"/>
<path d="M0 0 C3.62809719 1.52761987 5.94346298 3.70607139 8.6875 6.5 C9.47511719 7.2940625 10.26273437 8.088125 11.07421875 8.90625 C13.26029386 11.28299698 13.89791093 12.46403238 14.5 15.625 C13.73933385 20.75949649 10.5595157 23.40355986 7 27 C6.25363281 27.80244141 6.25363281 27.80244141 5.4921875 28.62109375 C4.37895126 29.7976578 3.19542395 30.90704096 2 32 C1.34 32 0.68 32 0 32 C-0.474375 30.88625 -0.94875 29.7725 -1.4375 28.625 C-4.25266944 22.91276529 -8.62847975 18.55833735 -13 14 C-8.88380164 9.08064098 -4.59589638 4.47352044 0 0 Z " fill="#FEF9F9" transform="translate(258,205)"/>
<path d="M0 0 C2.94110293 1.98204763 4.65930263 3.46834313 5.44921875 7.01953125 C5.83145985 14.54572674 2.90861913 20.86233509 -1.6875 26.6875 C-4.12379711 29.32073592 -6.70337041 31.2528752 -9.70703125 33.20703125 C-10.91516479 33.99750854 -10.91516479 33.99750854 -12.14770508 34.80395508 C-12.7589624 35.1986499 -13.37021973 35.59334473 -14 36 C-14.11795981 32.54196269 -14.18782752 29.08445443 -14.25 25.625 C-14.28351563 24.65949219 -14.31703125 23.69398438 -14.3515625 22.69921875 C-14.45949773 14.65804383 -12.84438557 7.9821398 -8.125 1.375 C-5.13654144 -0.55870848 -3.49284518 -0.64154299 0 0 Z " fill="#D71E25" transform="translate(491,318)"/>
<path d="M0 0 C2.39386981 1.81353774 2.85397566 2.96936445 3.26953125 5.90234375 C3.4281984 9.05805711 3.2006721 11.47825255 2.0625 14.4375 C-1.28474852 16.97329433 -4.8645456 17.32648324 -9 17 C-11.92143417 15.23496686 -13.47923817 14.04152365 -15 11 C-15.43023798 7.12785818 -15.31669086 5.47503629 -13.125 2.1875 C-9.09988631 -1.95599939 -5.35896048 -1.23668319 0 0 Z " fill="#FDF7F7" transform="translate(284,289)"/>
<path d="M0 0 C2.625 1.5 2.625 1.5 4 4 C4.36472537 6.80348604 4.23419754 9.14279005 4 12 C3 13 3 13 0.2421875 13.33203125 C-3.87807589 12.91007657 -5.06090513 11.65793347 -7.875 8.6875 C-8.65617187 7.88699219 -9.43734375 7.08648437 -10.2421875 6.26171875 C-12 4 -12 4 -12 1 C-8.2941599 -0.85292005 -4.04532833 -0.45020589 0 0 Z " fill="#D71F25" transform="translate(403,166)"/>
<path d="M0 0 C9.24 0 18.48 0 28 0 C28 0.66 28 1.32 28 2 C19.42 2 10.84 2 2 2 C1.67 2.66 1.34 3.32 1 4 C0.67 2.68 0.34 1.36 0 0 Z " fill="#DA3036" transform="translate(94,303)"/>
<path d="M0 0 C-1.37154504 2.95409701 -2.98863724 5.44008376 -5 8 C-5.75 6.25 -5.75 6.25 -6 4 C-2.77777778 0 -2.77777778 0 0 0 Z " fill="#DA2B32" transform="translate(484,358)"/>
<path d="M0 0 C-0.8353125 0.37125 -0.8353125 0.37125 -1.6875 0.75 C-4.39971127 2.21606015 -6.63587365 4.02989471 -9 6 C-9 3 -9 3 -7.875 1.3125 C-5.23540902 -0.53521368 -3.14195927 -0.20946395 0 0 Z " fill="#DB3037" transform="translate(491,318)"/>
</svg>
