<?xml version="1.0" encoding="utf-8"?>
<!-- Generator: Adobe Illustrator 24.3.0, SVG Export Plug-In . SVG Version: 6.00 Build 0)  -->
<svg version="1.1" id="Layer_1" xmlns="http://www.w3.org/2000/svg" xmlns:xlink="http://www.w3.org/1999/xlink" x="0px" y="0px"
	 viewBox="0 0 512 512" style="enable-background:new 0 0 512 512;" xml:space="preserve">
<style type="text/css">
	.st0{fill:url(#sun_1_);}
	.st1{fill:#FAD10E;}
	.st2{fill:#EB7024;}
	.st3{fill:#FAD633;}
	.st4{fill:none;stroke:#292216;stroke-width:3.1236;stroke-miterlimit:10;}
	.st5{fill:none;stroke:#292216;stroke-width:4.6854;stroke-miterlimit:10;}
	.st6{fill:#DD7726;}
	.st7{fill:url(#bg_x5F_gradient_1_);}
	.st8{fill:#FAD10E;stroke:#292216;stroke-width:3.1236;stroke-miterlimit:10;}
	.st9{fill:#292216;}
	.st10{fill:#F78F20;}
	.st11{fill:none;stroke:#292216;stroke-width:3.1236;stroke-linecap:round;stroke-miterlimit:10;}
	.st12{fill:none;stroke:#292216;stroke-width:1.5618;stroke-miterlimit:10;}
	.st13{fill:none;stroke:#2C2115;stroke-width:3.1236;stroke-linecap:round;stroke-miterlimit:10;}
	.st14{fill:none;stroke:#292216;stroke-width:3.1237;stroke-miterlimit:10.0004;}
	.st15{fill:#292216;stroke:#292216;stroke-width:3.1236;stroke-linecap:round;stroke-linejoin:round;stroke-miterlimit:10;}
	.st16{fill:none;}
</style>
<g id="sun_2_">
	
		<linearGradient id="sun_1_" gradientUnits="userSpaceOnUse" x1="125.6685" y1="175.2505" x2="395.1157" y2="247.4486" gradientTransform="matrix(1 0 0 -1 0 514)">
		<stop  offset="2.702703e-02" style="stop-color:#FAC928"/>
		<stop  offset="5.582658e-02" style="stop-color:#F6BF26"/>
		<stop  offset="0.2334" style="stop-color:#E88B27"/>
		<stop  offset="0.4073" style="stop-color:#DD5F2A"/>
		<stop  offset="0.5739" style="stop-color:#D23D2C"/>
		<stop  offset="0.7311" style="stop-color:#CB202F"/>
		<stop  offset="0.8753" style="stop-color:#C62030"/>
		<stop  offset="0.9944" style="stop-color:#C52031"/>
	</linearGradient>
	<circle id="sun" class="st0" cx="260.4" cy="302.7" r="139.4"/>
</g>
<g id="ribbons">
	<g id="left_2_">
		<path id="bg_x5F_yel_x5F_l_2_" class="st1" d="M244.4,316.3c-25.1-10.8-25.1-26.7-18.8-38.9c3.9-9.5,1.4-18.5-5.8-17.7
			c-6.1,0.7-9.4,5.7-5.8,20.2c4.7,17.2-3.5,33.1-26.8,30.7s-23.6-28.4-23.5-34.8c0.2-11-5.7-27.9-18.8-20.8
			c-11.7,6.3,4.7,23.9,7.1,25.8c5.7,3.9,23.9,29.5,5.4,40.6c-18.7,9.7-29.9-3.6-34.9-12.3c-2.4-4.5-14.4-9.8-12.3,14.8
			c2.2,25.8-8.9,36.1-29.8,29c-12-4.1-22.5-8.7-26.4-9.8c-1.7-0.5-6.1-1.7-15.9,5.5s-23.6,3-26.2-6.1c1.2,0.4,10.4,0.2,15-12.3
			s11-21.8,19.6-21.6c4.4,0.1,14.6,3.4,17.4,8.9c1.3,3.1,14.3,11.9,19.8,7.7c5.5-4.1,4.1-7.6,2.8-21.3c-1.3-13.7,0.5-18.5,5.1-21.4
			c4.8-3.1,10.3-5.9,23.8,0.5c13.5,6.4,18.9,5.8,21,1.7c2.1-4.2,0-9-2.5-11.2c-2.5-2.2-10.6-12.3-6.9-26.8
			c3.7-14.5,15-19.8,25.7-19.3c10.7,0.5,22.9,4,32.4,20.4c8.5,15.1,12.7,9,14,7.2c1.4-1.7,2.6-4.8-0.5-10.5
			c-4.1-7.2-1.3-20.6,12.4-22.4c13.7-1.7,26.2,12,29.7,20.1c3.5,8.1,4.3,9.6,5.8,24.6c0.9,10.4,6.4,14.1,10,14.1
			c3.6,0,12-6.5,8-29.8c3.1,2.8,13.5,24.6,13.5,24.6l-3,20.9l-12.4,12.1C262.6,309.1,259.1,311.3,244.4,316.3z"/>
		<path id="bg_x5F_orange_x5F_l_3_" class="st2" d="M12.3,342.9l1.7-0.1c0,0,3.4,3.2,6.4,2.9c3.1-0.2,12.3-3.3,13.7-5.1
			c1.4-1.8,7.4-6.5,8.2-7.7c0.8-1.2,7.2-3.1,8.7-2.6c1.5,0.5,6.7,1.8,10.1,4c3.4,2.2,15.5,9.7,22,10.7c6.5,1,12.4,0.3,15.8-6
			c3.4-6.3,4.1-15.1,3.4-19.2s0.2-13.7,1.8-15.4c1.6-1.7,5.4-4.3,7.7-3.5c2.3,0.8,9.4,4.7,9.4,4.7l9.7,3.3c0,0,11.4,1.6,14.9-1.5
			c3.5-3,7.7-6.8,8.1-12.3c0.5-5.6-3.9-16.6-3.9-16.6l2,2.1c0,0,10.4,9.9,11.8,17.7s4.4,12.4-2.3,20c-5.9,6.6-17.4,7.1-23.3,5.2
			c-9.2-3-16.9-16-16.9-16s-2.1-3-5.9-2.5c-3.8,0.5-5.1,7.9-5.1,7.9l-0.3,11.8c0,0,1.1,11.9-1.6,18.8c-2.7,7-9.6,14.6-25.5,9.9
			c-15.9-4.7-27.3-10-27.3-10l-6.2-0.6l-9.6,4.5c0,0-9.1,7.4-18.9,3.8C13.8,348.6,12.3,342.9,12.3,342.9z"/>
		<path id="bg_x5F_yel_x5F_r_2_" class="st3" d="M194.1,257.9c0,0,2.8,0.9,5.1-2.9c2.4-3.8,1.3-6.7,0.4-8.6
			c-0.9-1.9-4.3-7.2-2.6-11.4c1.7-4.3,6.2-15.2,19.3-12.4c13.1,2.8,22.1,14.8,23.8,18.8c1.7,4,6,15.5,6.4,24.4
			c0.5,8.9,3.7,14.6,9,15.7c5.3,1,10.4-9.5,10.1-17.9c-0.3-8.4-1.6-12-1.6-12l6.7,10l4.9,33.6l-9.3,4.3c0,0-21.3,3-25.4-15.1
			c-4.1-18.2-7.5-30.8-7.5-30.8l-9.5-13.1l-12.1-0.5l-3.8,7.6c0,0,0,8.9-3.7,11.3c-3.7,2.4-10.6-0.9-10.6-0.9"/>
		<path id="bg_x5F_orange_x5F_r_2_" class="st2" d="M172.3,233.6l4.8,5.9c0,0,5.9,6.8,5.3,15.7c-0.6,8.9-1.3,25.6,1.8,30.4
			c3.1,4.7,8.5,10.7,15.5,9.4c7-1.3,9.6-16.3,9-20.8c-0.6-4.5,2.2-15.4,10.2-14.6c7.6,0.7,11.1,4.3,7.6,16.3
			c-3.5,12-9.7,16.9,2.6,31c10.6,7.6,15.8,9.7,15.8,9.7l11.8,1.3l11.4-8.5l0.9-8.1l-2.8-1.8c0,0-16.2,1.5-21.5-8.1
			s-9.3-34.1-10-35.9c-0.7-1.8-7.7-18.8-19.2-16.5c-9.7,1.9-6.4,8.3-7.5,13.4c-1.2,5.2-6.7,11.2-14,5.4
			c-7.2-5.8-11.9-15.3-11.9-15.3L172.3,233.6z"/>
		<path id="div_x5F_l_4_" class="st4" d="M14,342.7c0,0,3,3.4,7.6,2.8s11.7-2.9,17.2-9.1c5.5-6.2,11.2-9,22.7-1.8
			c11.5,7.2,26,14.9,33.6,8.9c7.6-6,7.5-14,6.9-26.5c-0.8-16,8.2-16.6,10.8-15.4c4.2,1.8,24.8,14.5,35.7,4.1
			c10.9-10.3,2.4-25.8-0.5-29.4"/>
		<path id="div_x5F_r_x5F_b_2_" class="st4" d="M170.7,232.6c0,0,11.9,9.4,11.6,20.6c-0.4,11.2-2.7,32,6.4,38.3c2.8,1.9,6,3.7,9,3.5
			c3-0.2,9.8-1.4,10.5-18.1c0.6-16.8,7-18.1,12.7-17.5"/>
		<path id="div_x5F_r_x5F_t_2_" class="st4" d="M191.6,256.5c0,0,8.7,6.8,13.8,1.2c1.6-1.8,2.1-3.9,2.2-4.4c0.7-3-0.2-10.2,4.1-13.1
			c4.3-3,21-6.1,26.6,33.2c4.1,24.3,14,26.3,28.5,26.2"/>
		<path id="outline_9_" class="st5" d="M244.4,316.3c-25.1-10.8-25.1-26.7-18.8-38.9c3.9-9.5,1.4-18.5-5.8-17.7
			c-6.1,0.7-9.4,5.7-5.8,20.2c4.7,17.2-3.5,33.1-26.8,30.7s-23.6-28.4-23.5-34.8c0.2-11-5.7-27.9-18.8-20.8
			c-11.7,6.3,4.7,23.9,7.1,25.8c5.7,3.9,23.9,29.5,5.4,40.6c-18.7,9.7-29.9-3.6-34.9-12.3c-2.4-4.5-14.4-9.8-12.3,14.8
			c2.2,25.8-8.9,36.1-29.8,29c-12-4.1-22.5-8.7-26.4-9.8c-1.7-0.5-6.1-1.7-15.9,5.5s-23.6,3-26.2-6.1c1.2,0.4,10.4,0.2,15-12.3
			s11-21.8,19.6-21.6c4.4,0.1,14.6,3.4,17.4,8.9c1.3,3.1,14.3,11.9,19.8,7.7c5.5-4.1,4.1-7.6,2.8-21.3c-1.3-13.7,0.5-18.5,5.1-21.4
			c4.8-3.1,10.3-5.9,23.8,0.5c13.5,6.4,18.9,5.8,21,1.7c2.1-4.2,0-9-2.5-11.2c-2.5-2.2-10.6-12.3-6.9-26.8
			c3.7-14.5,15-19.8,25.7-19.3c10.7,0.5,22.9,4,32.4,20.4c8.5,15.1,12.7,9,14,7.2c1.4-1.7,2.6-4.8-0.5-10.5
			c-4.1-7.2-1.3-20.6,12.4-22.4c13.7-1.7,26.2,12,29.7,20.1c3.5,8.1,4.3,9.6,5.8,24.6c0.9,10.4,6.4,14.1,10,14.1
			c3.6,0,12-6.5,8-29.8c3.1,2.8,13.5,24.6,13.5,24.6l-3,20.9l-12.4,12.1C262.6,309.1,259.1,311.3,244.4,316.3z"/>
	</g>
	<g id="right_2_">
		<path id="bg_x5F_orange_x5F_l_1_" class="st6" d="M347.2,245.3c0,0,19.2-10.3,7.8-32.3c3.1,2,11.9,13.2,12.5,16.7
			c0.6,3.4,4.8,6.3,0.5,16.2c-4.4,9.9-13.6,11.5-13.6,11.5L347.2,245.3z"/>
		<path id="bg_x5F_yellow_8_" class="st1" d="M355,257.2c0,0,32.3-10.6,0.6-43.9c-7.1-6.6-6-14.3-5.2-16.4S356.3,184,362,184
			s15.3-0.8,18.8,1.7c3.5,2.5,10.4,5.7,12.9,9c2.5,3.3,7.7,7.6,13.7,4.7c6-2.8,6.6-12.3,0.8-20.3c-5.8-8.1-10.9-16.7-8.1-22.5
			c2.8-5.8,8.8-12,24.7-11.4c15.9,0.6,17.8-18.9,17.8-18.9l4.3-21.9c0,0,6-15.4,18.4-17.3c12.4-1.9,19.9-2.8,19.9-2.8
			s-15.1,3.5-18.3,17.6c-3.1,14.2-2.1,36.4-2.1,36.4s-3.5,17.2-22.2,16.4c-18.8-0.8-25.7,8.2-23.8,20.2c1.1,7.2,12.4,11.8,10.6,24.4
			c-1.9,12.6-13.1,19.6-19.1,17.5c-9.8,0.8-26.6-22.2-36.6-17.3c-9.9,4.9-4.6,15-4.6,15s5.4,8.5,14.6,17.9
			c9.3,9.4,8.8,18.4,2.5,21.3c-6.3,2.8-11.8,2.1-12.3,12.8c-0.5,10.7-10.7,13.1-10.7,13.1L355,257.2z"/>
		
			<linearGradient id="bg_x5F_gradient_1_" gradientUnits="userSpaceOnUse" x1="367.4656" y1="357.9313" x2="494.1768" y2="357.9313" gradientTransform="matrix(1 0 0 -1 0 514)">
			<stop  offset="2.702703e-02" style="stop-color:#F28322"/>
			<stop  offset="0.4789" style="stop-color:#DC472A"/>
			<stop  offset="0.8183" style="stop-color:#CB202E"/>
			<stop  offset="0.9944" style="stop-color:#C52031"/>
		</linearGradient>
		<path id="bg_x5F_gradient_2_" class="st7" d="M379,226.5c0,0-16.9-16.7-9.8-23.6c7.1-6.9,14.6-2.5,14.6-2.5l18.9,14
			c0,0,8.8,5.1,16.4,0.3s13.4-13.2,8.8-24.9c-4.6-11.7-16.7-15.8-4.7-30.7c3-1.7,4.1-4.7,26.5-5.1c4.3-1.7,19.7-5.1,15.1-29.9
			c-2.5-25.7,9-40.6,29.3-39.7c-4.6,2.1-10.1,2.9-14.9,10.8s-4.9,15.1-4.9,15.1s6.8,33.1-6.3,45.7c-12,13-27.9,8.9-30.9,15.3
			c-3.1,6.4-0.3,9.2-0.3,9.2s17.6,20.5,0.3,38.3c-17.8,18.9-32.6,3.1-32.6,3.1s-15.1-11.4-20.6-9.3c-5.4,2.1-6.4,6.8-6.4,6.8
			L379,226.5z"/>
		<path id="outline_8_" class="st5" d="M347.1,245.1c0,0,19.3-10.8,8.1-31.8c-10-8.8-5.6-30.8,13.9-30c8.7,0.2,19,4.6,24.6,11.4
			c5.6,6.8,14,5.9,16.4,2.1c2.5-3.8,3.7-9.4-3.9-19.5s-15.4-29.9,16.5-32.6c13.6-1.1,17.3-2.6,20.6-23.1
			c3.3-20.5,4.3-39.5,50.3-37.3c0,0-21.6,8.5-18.7,28.9c2.5,16.9,2.1,28-4,38.8c-5.7,10.1-14.6,13.6-23.7,14.5
			c-9.1,0.9-14,7.6-9.5,15.3c4.5,7.6,9.8,16.3,5.9,26.2c-3.9,9.8-9.8,17.3-19.3,19.9c-11.7,3.2-21-6.4-23.9-8.3
			c-2.7-1.8-13.8-11.4-20.1-5.4c-6.3,6,1.7,14.9,3.5,17.4c1.9,2.5,7.8,8.6,7.2,13.7c-0.5,5.1-2.1,8.4-9.8,10.4
			c-4.1,1.2-6.8,1.1-7.5,10.3c-0.6,9.2-5.2,11.7-10.7,12.4c-5.5,0.7-9.8-7-9.8-7l-6.5-26.4L347.1,245.1L347.1,245.1z"/>
		<path id="div_x5F_l_1_" class="st4" d="M354.1,212.2c0,0,16.5,14.3,15.7,27.5c-0.8,13.2-15.4,17.6-15.4,17.6"/>
		<path id="div_x5F_r_2_" class="st4" d="M382.1,229.5c0,0-18.3-14.9-14-24.3c4.3-9.4,14.6-6,16.4-4.7c1.7,1.3,11.5,8.5,14.4,11.1
			c2.9,2.6,15.3,11.5,25.8-1.3c10.5-12.8,0.6-24.9-1.8-28.7c-8.4-8.4-6.2-26.9,16.1-26.9c20.9,0.5,25.2-11.6,25.9-15.4
			c1.9-10.5-9.8-55.9,29.4-54.9"/>
	</g>
</g>
<g id="fish">
	<path id="body" class="st8" d="M200.8,370.2c6.1,3.8,20.8,12.8,36.4,12.3c11.8-0.5,19.9,2.4,19.9,2.4s12.8,3.8,31.7,2.8
		c18.9-0.9,31.2-5.2,37.8-8.5c6.6-3.3,28.4-37.3,28.4-37.3s10.4-28.4,10.9-37.3c1.4-14.6,0-51.5-50.6-92.6c0,0-31.7-24.6-32.1-51.5
		c-0.5-26.9,32.1-34.5,43.5-23.2c5.7-31.2-47.3-52-64-3.8c-12.5-30.3-62.2-25.1-67.8,9.4c6.1-5.7,42.6-9,50.6,16.6
		c2.8,8.5,3.3,35.4,3.3,43.5c0.5,18.9,0,36.4,12.8,46.3c15.6,11.8,13.2,45.9,6.1,50.1c-1.9,0.9-8.9,4.7-11.8,8.1
		c-6.6,1.9-9,6.6-9.9,8.1c-0.1,0.1-1.9,1.4-3.8,1.9c-14.1-0.8-68.1-6-80.8,26.9c1.9,0.9,1.9,0.9,1.9,0.9s4.7,10.4,15.1,13.2
		C188,361.7,200.8,370.2,200.8,370.2z"/>
	<g id="scales">
		<g id="below_x5F_ribbon">
			<g>
				<path class="st9" d="M267.6,366c1.1,0.5,2.1,1.4,2.7,2.6c0.3,0.6,0.5,1.2,0.6,1.9s0,1.4-0.2,2c-0.1,0.3-0.2,0.6-0.4,0.9
					c-0.2,0.3-0.4,0.6-0.6,0.8c-0.5,0.5-1,0.9-1.5,1.2c-1.2,0.6-2.4,0.8-3.6,0.8c0.5-0.3,1.1-0.5,1.6-0.8c0.5-0.3,1-0.6,1.4-0.9
					c0.8-0.7,1.5-1.5,1.8-2.5c0.3-1,0.2-2-0.1-3.1C268.9,368,268.3,367,267.6,366z"/>
			</g>
			<g>
				<path class="st9" d="M263.8,375.9c0.6,0,1.3,0.3,1.8,0.7c0.5,0.4,1,0.9,1.4,1.5c0.7,1.2,1,2.6,0.8,4c-0.1,0.7-0.3,1.4-0.7,2
					c-0.3,0.6-0.8,1.2-1.4,1.5c-0.6,0.4-1.2,0.6-1.9,0.8c-0.7,0.1-1.3,0.1-1.9-0.1c0.6-0.2,1.2-0.3,1.7-0.6c0.5-0.2,1-0.5,1.4-0.9
					c0.8-0.8,1.2-1.8,1.4-2.8c0.2-1.1,0-2.2-0.4-3.3C265.7,377.4,265,376.5,263.8,375.9z"/>
			</g>
			<g>
				<path class="st9" d="M306.9,375.2c0.6,0,1.3,0.3,1.8,0.7c0.5,0.4,1,0.9,1.4,1.5c0.7,1.2,1,2.6,0.8,4c-0.1,0.7-0.3,1.4-0.7,2
					c-0.3,0.6-0.8,1.2-1.4,1.5c-0.6,0.4-1.2,0.6-1.9,0.8c-0.7,0.1-1.3,0.1-1.9-0.1c0.6-0.2,1.2-0.3,1.7-0.6c0.5-0.2,1-0.5,1.4-0.9
					c0.8-0.8,1.2-1.8,1.4-2.8c0.2-1.1,0-2.2-0.4-3.3C308.7,376.8,308,375.8,306.9,375.2z"/>
			</g>
			<g>
				<path class="st9" d="M294.9,365.3c0.6,0,1.2,0.2,1.7,0.4c0.5,0.3,1.1,0.7,1.4,1.3c0.2,0.3,0.3,0.6,0.4,0.9
					c0.1,0.3,0.1,0.7,0.1,1c0,0.7-0.2,1.3-0.4,1.8c-0.5,1.2-1.2,2.1-2.1,2.9c-0.9,0.8-1.8,1.5-2.9,1.9c0.7-0.9,1.4-1.8,2.1-2.6
					c0.6-0.9,1.2-1.8,1.6-2.7c0.2-0.5,0.3-0.9,0.4-1.4c0-0.2,0-0.5,0-0.7c0-0.2-0.1-0.5-0.2-0.7
					C296.7,366.6,295.9,365.9,294.9,365.3z"/>
			</g>
			<g>
				<path class="st9" d="M276.3,376.8c0.3-0.1,0.6-0.2,0.9-0.1c0.3,0,0.6,0.2,0.9,0.3c0.6,0.3,1.1,0.7,1.5,1.1
					c0.8,0.9,1.4,2.1,1.6,3.4c0.1,0.6,0.1,1.3-0.1,1.9c-0.2,0.6-0.4,1.2-0.7,1.8c-0.3,0.5-0.8,1-1.2,1.4c-0.5,0.4-1,0.7-1.5,1
					c0.7-0.9,1.4-1.9,1.8-2.9c0.4-1,0.5-2,0.4-3c-0.1-1-0.5-2-1.1-2.9c-0.3-0.5-0.6-0.9-1-1.2c-0.2-0.2-0.4-0.4-0.6-0.5
					C276.8,376.9,276.6,376.8,276.3,376.8z"/>
			</g>
			<g>
				<path class="st9" d="M294.4,376.2c0.3-0.1,0.6-0.2,0.9-0.1c0.3,0,0.6,0.1,0.9,0.2c0.6,0.2,1.1,0.6,1.6,1c1,0.8,1.7,1.9,2.1,3.2
					c0.2,0.6,0.2,1.3,0.2,2c-0.1,0.7-0.3,1.3-0.6,1.9c-0.6,1.2-1.6,2-2.7,2.5c0.7-1,1.4-1.9,1.7-2.9c0.3-1,0.3-2,0.1-3
					c-0.3-1-0.8-1.9-1.5-2.8c-0.3-0.4-0.7-0.8-1.2-1.2C295.5,376.6,295,376.3,294.4,376.2z"/>
			</g>
			<g>
				<path class="st9" d="M274,366.6c1.3-0.1,2.6,0.4,3.7,1.1c1.1,0.7,2.1,1.8,2.6,3.1c0.2,0.7,0.3,1.5,0.2,2.2
					c-0.1,0.7-0.5,1.4-1,1.9c-0.9,1.1-2.2,1.6-3.5,1.9c1-0.8,2-1.6,2.6-2.5c0.6-0.9,0.7-2,0.3-3c-0.4-1-1.1-1.9-2-2.7
					C276.1,367.8,275.1,367.2,274,366.6z"/>
			</g>
			<g>
				<path class="st9" d="M285.2,376.5c0.3-0.2,0.6-0.2,1-0.2c0.3,0,0.7,0,1,0.1c0.7,0.1,1.3,0.4,1.9,0.7c1.2,0.7,2.3,1.8,2.8,3.1
					c0.2,0.7,0.4,1.5,0.2,2.2c-0.1,0.8-0.4,1.4-0.8,2c-0.4,0.6-0.8,1.1-1.4,1.5c-0.2,0.2-0.5,0.4-0.8,0.6c-0.3,0.2-0.6,0.3-0.9,0.5
					c0.8-1,1.6-2.1,2-3.1c0.5-1.1,0.5-2.2,0.2-3.2c-0.4-1-1.2-2-2.1-2.7c-0.5-0.4-1-0.7-1.5-1C286.5,376.7,285.9,376.5,285.2,376.5z
					"/>
			</g>
			<g>
				<path class="st9" d="M285,366.3c1.2-0.1,2.5,0.4,3.4,1.3c0.9,0.9,1.5,2.1,1.7,3.4c0.2,1.3-0.3,2.7-1.1,3.7
					c-0.4,0.5-0.9,0.9-1.4,1.2c-0.5,0.3-1.1,0.5-1.7,0.7c0.4-0.4,0.8-0.8,1.2-1.2c0.4-0.4,0.7-0.8,0.9-1.3c0.5-0.9,0.7-1.9,0.6-2.9
					c-0.1-1-0.5-2-1.1-2.8C286.9,367.5,286.1,366.8,285,366.3z"/>
			</g>
		</g>
		<g id="diagonal">
			<g>
				<path class="st9" d="M268,317.3c1.2-0.1,2.5,0.1,3.6,0.8c0.6,0.3,1.1,0.7,1.5,1.3c0.4,0.5,0.8,1.1,0.9,1.8
					c0.1,0.3,0.2,0.7,0.2,1c0,0.3,0,0.7,0,1c-0.1,0.7-0.3,1.3-0.6,1.9c-0.6,1.1-1.6,2-2.7,2.6c0.3-0.5,0.7-1,0.9-1.5s0.5-1,0.7-1.5
					c0.4-1,0.5-2.1,0.2-3c-0.3-1-0.9-1.8-1.7-2.5C270.2,318.2,269.2,317.7,268,317.3z"/>
			</g>
			<g>
				<path class="st9" d="M270.2,327.5c1.2-0.7,2.7-0.9,4.1-0.5s2.7,1.3,3.5,2.7c0.4,0.7,0.6,1.4,0.7,2.2c0,0.8-0.2,1.6-0.5,2.2
					c-0.3,0.7-0.8,1.2-1.4,1.7c-0.5,0.5-1.2,0.8-1.8,1.1c0.5-0.5,0.9-1,1.3-1.5c0.4-0.5,0.7-1.1,0.8-1.7c0.2-0.6,0.2-1.2,0.2-1.7
					c-0.1-0.6-0.2-1.1-0.5-1.6c-0.6-1-1.5-1.8-2.6-2.3C272.9,327.6,271.6,327.4,270.2,327.5z"/>
			</g>
			<g>
				<path class="st9" d="M276.4,317.7c0.7-0.4,1.5-0.6,2.2-0.6c0.8,0,1.6,0.2,2.3,0.5c1.5,0.6,2.8,1.7,3.6,3.1
					c0.4,0.7,0.7,1.5,0.9,2.3c0.2,0.8,0.1,1.7-0.1,2.5s-0.7,1.5-1.2,2.1c-0.5,0.5-1.2,1-1.9,1.3c0.5-0.5,1-1.1,1.3-1.7
					c0.4-0.6,0.6-1.2,0.7-1.9c0.2-1.3-0.2-2.6-0.9-3.8c-0.7-1.2-1.7-2.1-2.9-2.8C279.3,317.9,277.9,317.5,276.4,317.7z"/>
			</g>
			<g>
				<path class="st9" d="M276.2,339.3c1.1-0.5,2.4-0.6,3.7-0.3c0.6,0.2,1.2,0.4,1.8,0.8c0.5,0.4,1.1,0.9,1.4,1.5
					c0.2,0.3,0.3,0.6,0.5,0.9c0.1,0.3,0.2,0.7,0.2,1c0.1,0.7,0.1,1.3-0.1,2c-0.3,1.3-1,2.4-1.8,3.2c0.2-0.6,0.4-1.2,0.5-1.7
					c0.1-0.6,0.2-1.1,0.2-1.7c0.1-1.1-0.2-2.1-0.7-3c-0.5-0.8-1.4-1.5-2.4-1.9C278.6,339.7,277.4,339.5,276.2,339.3z"/>
			</g>
			<g>
				<path class="st9" d="M283.3,327.6c0.6-0.6,1.4-1,2.2-1.3c0.8-0.2,1.8-0.3,2.7-0.2c1.8,0.3,3.4,1.5,4.3,3.1s1.1,3.6,0.6,5.3
					c-0.2,0.8-0.7,1.6-1.2,2.3c-0.5,0.7-1.1,1.3-1.8,1.8c0.5-0.7,0.9-1.4,1.2-2.1c0.3-0.7,0.5-1.5,0.7-2.2c0.2-1.5,0-3-0.7-4.3
					c-0.7-1.3-1.9-2.3-3.3-2.7C286.5,326.7,284.9,327,283.3,327.6z"/>
			</g>
			<g>
				<path class="st9" d="M298,347.5c0.6-0.6,1.4-1,2.2-1.3c0.8-0.2,1.8-0.3,2.7-0.2c1.8,0.3,3.4,1.5,4.3,3.1s1.1,3.6,0.6,5.3
					c-0.2,0.8-0.7,1.6-1.2,2.3c-0.5,0.7-1.1,1.3-1.8,1.8c0.5-0.7,0.9-1.4,1.2-2.1c0.3-0.7,0.5-1.5,0.7-2.2c0.2-1.5,0-3-0.7-4.3
					c-0.7-1.3-1.9-2.3-3.3-2.7C301.2,346.7,299.6,346.9,298,347.5z"/>
			</g>
			<g>
				<path class="st9" d="M282.4,347.5c0.5-0.5,1.1-0.8,1.7-0.9c0.7-0.2,1.4-0.2,2,0c1.3,0.2,2.6,1,3.5,2c0.5,0.5,0.8,1.1,1.1,1.8
					c0.2,0.7,0.3,1.4,0.2,2.1c-0.1,0.7-0.3,1.4-0.7,1.9c-0.4,0.5-0.8,1-1.4,1.4c0.3-0.6,0.5-1.1,0.7-1.7c0.2-0.6,0.2-1.1,0.2-1.7
					c-0.1-1.1-0.5-2.1-1.2-2.9c-0.7-0.8-1.7-1.5-2.7-1.9C284.8,347.2,283.6,347.1,282.4,347.5z"/>
			</g>
			<g>
				<path class="st9" d="M269.5,296.7c1.3-0.1,2.6,0.4,3.7,1.2c0.5,0.4,1,0.9,1.4,1.5c0.4,0.6,0.6,1.3,0.7,2c0.1,0.7,0,1.5-0.2,2.1
					s-0.6,1.3-1,1.8c-0.4,0.5-0.9,1-1.4,1.4c-0.5,0.4-1.1,0.7-1.7,1c0.8-1,1.6-1.9,2.1-3c0.5-1,0.8-2.1,0.7-3.1
					c-0.1-0.5-0.2-1-0.5-1.5c-0.2-0.5-0.6-0.9-1-1.3C271.7,297.9,270.7,297.3,269.5,296.7z"/>
			</g>
			<g>
				<path class="st9" d="M272.7,282.5c0.1-0.7,0.4-1.3,0.8-1.9s1-1,1.7-1.3c1.3-0.7,2.8-0.8,4.3-0.4c0.7,0.2,1.4,0.6,1.9,1.2
					c0.5,0.5,0.9,1.2,1.1,1.9c0.4,1.4,0.2,2.8-0.3,4.1c-0.1-1.3-0.2-2.6-0.7-3.7c-0.5-1.1-1.4-1.8-2.5-2.1c-1.1-0.3-2.3-0.3-3.4,0.1
					C274.5,280.6,273.4,281.3,272.7,282.5z"/>
			</g>
			<g>
				<path class="st9" d="M272.7,275.1c-0.2-0.5-0.3-1.2-0.3-1.8c0.1-0.6,0.3-1.3,0.8-1.8c0.5-0.5,1.2-0.8,1.8-0.9
					c0.7-0.1,1.4,0,2,0.2c0.6,0.2,1.2,0.6,1.7,1.1c0.5,0.5,0.8,1.1,1,1.8c0.2,0.7,0.2,1.3,0,1.9c-0.2,0.6-0.5,1.2-0.8,1.6
					c0.1-0.6,0.2-1.2,0.1-1.7c0-0.5-0.2-1.1-0.4-1.5c-0.4-0.9-1.2-1.5-2.1-1.8c-0.5-0.2-0.9-0.2-1.4-0.2c-0.2,0-0.5,0.1-0.7,0.1
					c-0.2,0.1-0.4,0.2-0.6,0.3c-0.4,0.3-0.7,0.7-0.9,1.2C272.9,274,272.8,274.5,272.7,275.1z"/>
			</g>
			<g>
				<path class="st9" d="M272.3,306.3c0.7-0.4,1.6-0.6,2.5-0.5c0.9,0,1.7,0.3,2.5,0.7c0.8,0.4,1.5,1,2,1.7c0.6,0.7,1,1.5,1.2,2.4
					c0.2,0.9,0.2,1.8,0,2.7c-0.2,0.9-0.6,1.7-1.2,2.4c-0.2,0.4-0.6,0.7-0.9,1c-0.3,0.3-0.6,0.5-1,0.8c-0.7,0.5-1.4,0.8-2.2,1.2
					c0.6-0.6,1.2-1.1,1.7-1.7c0.3-0.3,0.5-0.6,0.8-0.9c0.2-0.3,0.5-0.6,0.6-0.9c0.4-0.6,0.7-1.3,0.8-2c0.1-0.7,0.1-1.4-0.1-2.1
					c-0.3-1.4-1.2-2.6-2.5-3.5C275.5,306.6,274,306,272.3,306.3z"/>
			</g>
			<g>
				<path class="st9" d="M289.4,339.2c0.4-0.7,1.1-1.3,1.8-1.7c0.8-0.4,1.7-0.6,2.5-0.6c0.9,0,1.8,0.1,2.6,0.5
					c0.8,0.3,1.6,0.9,2.2,1.6c0.6,0.7,1.1,1.6,1.2,2.5c0.2,0.9,0.1,1.8-0.1,2.7c-0.2,0.8-0.5,1.7-0.9,2.4c-0.2,0.4-0.5,0.7-0.7,1.1
					c-0.2,0.3-0.5,0.7-0.8,1c0.1-0.2,0.2-0.4,0.2-0.6c0.1-0.2,0.2-0.4,0.2-0.6c0.1-0.4,0.3-0.8,0.4-1.2c0.2-0.8,0.4-1.5,0.5-2.3
					c0.1-0.8,0-1.5-0.2-2.2c-0.2-0.7-0.5-1.3-1-1.8c-0.5-0.5-1.1-1-1.7-1.3c-0.7-0.3-1.4-0.5-2.1-0.6
					C292.2,337.8,290.6,338.1,289.4,339.2z"/>
			</g>
			<g>
				<path class="st9" d="M330.1,350.1c0.6-0.7,1.3-1.4,2.1-1.9c0.8-0.5,1.7-0.9,2.7-1.1c1-0.2,2.1-0.1,3,0.2c1,0.4,1.8,1.1,2.5,1.9
					c1.2,1.7,1.5,3.8,1.1,5.8c-0.4,1.9-1.6,3.6-3.1,4.7c1.1-1.5,1.8-3.2,2-4.9c0.2-1.7-0.2-3.4-1.2-4.7c-0.5-0.6-1.1-1.2-1.8-1.5
					c-0.7-0.3-1.5-0.5-2.4-0.4c-0.8,0.1-1.7,0.3-2.5,0.6C331.7,349.1,330.9,349.6,330.1,350.1z"/>
			</g>
			<g>
				<path class="st9" d="M321.6,341.1c0.4-0.7,1-1.3,1.8-1.7c0.8-0.4,1.6-0.6,2.5-0.6c1.7,0,3.4,0.6,4.7,1.7c0.7,0.6,1.2,1.2,1.6,2
					c0.4,0.8,0.6,1.7,0.6,2.5c0,0.8-0.2,1.7-0.5,2.5c-0.3,0.8-0.7,1.5-1.2,2.1c0.2-0.8,0.4-1.5,0.5-2.3c0.1-0.8,0.1-1.5,0-2.2
					c-0.2-1.4-0.9-2.7-2-3.5c-1.1-0.9-2.4-1.5-3.8-1.7C324.3,339.8,322.8,340.1,321.6,341.1z"/>
			</g>
			<g>
				<path class="st9" d="M291.5,303.9c0.5-0.5,1.2-0.9,2-1.2c0.7-0.3,1.5-0.4,2.4-0.3c1.6,0.2,3.1,1.1,4.1,2.4
					c0.5,0.7,0.9,1.4,1.1,2.2c0.2,0.8,0.2,1.7,0,2.5c-0.2,0.8-0.6,1.5-1.2,2.1c-0.6,0.5-1.2,1-1.9,1.2c0.5-0.5,1.1-1.1,1.4-1.6
					c0.4-0.6,0.6-1.2,0.6-1.9c0.2-1.3-0.3-2.6-1.1-3.6c-0.8-1-1.9-1.8-3.2-2.2c-0.6-0.2-1.3-0.2-2-0.2
					C293,303.4,292.2,303.6,291.5,303.9z"/>
			</g>
			<g>
				<path class="st9" d="M283.2,280.6c1.3-0.8,3-1.1,4.6-0.7c1.6,0.3,3.1,1.3,4,2.7c0.5,0.7,0.8,1.5,1,2.3s0.2,1.7,0,2.5
					c-0.4,1.6-1.4,3-2.7,3.8c0.9-1.2,1.5-2.6,1.6-4c0.1-1.4-0.3-2.7-1-3.8c-0.8-1.1-1.8-2-3.1-2.5
					C286.2,280.5,284.8,280.4,283.2,280.6z"/>
			</g>
			<g>
				<path class="st9" d="M283.4,274.5c0.5-0.8,1.2-1.4,2-1.8c0.8-0.4,1.8-0.6,2.8-0.6c1.9,0.1,3.8,0.9,5.1,2.2
					c0.2,0.2,0.3,0.4,0.5,0.5c0.2,0.2,0.3,0.4,0.4,0.6c0.1,0.2,0.2,0.4,0.4,0.6c0.1,0.2,0.2,0.5,0.3,0.7c0.3,0.9,0.5,1.9,0.3,2.9
					c-0.2,1-0.6,1.8-1.1,2.6c-0.5,0.8-1.2,1.4-1.9,1.9c0.5-0.8,1-1.5,1.3-2.2c0.3-0.8,0.5-1.6,0.6-2.4c0.1-1.6-0.6-3.1-1.8-4.2
					c-1.1-1.1-2.6-1.9-4.2-2.1c-0.8-0.1-1.6-0.1-2.4,0.1C284.8,273.5,284.1,273.9,283.4,274.5z"/>
			</g>
			<g>
				<path class="st9" d="M297.7,313c0.5-0.7,1.2-1.4,2.1-1.8c0.8-0.5,1.8-0.8,2.8-0.7c1,0,2,0.3,2.8,0.8s1.6,1.2,2.1,2
					c0.5,0.8,0.9,1.8,1.1,2.7c0.2,1,0.1,2-0.1,2.9c-0.1,0.2-0.2,0.5-0.2,0.7c-0.1,0.2-0.2,0.5-0.3,0.7l-0.4,0.6
					c-0.1,0.2-0.3,0.4-0.4,0.6c-0.6,0.7-1.3,1.3-2.1,1.8c0.6-0.7,1.1-1.4,1.5-2.2c0.4-0.8,0.7-1.6,0.8-2.4c0.2-1.6-0.2-3.3-1.1-4.6
					c-0.9-1.3-2.3-2.3-3.9-2.5c-0.8-0.1-1.6,0-2.5,0.3C299.3,312.1,298.5,312.5,297.7,313z"/>
			</g>
			<g>
				<path class="st9" d="M313.5,332c0.5-0.6,1.2-1.2,1.9-1.7c0.7-0.5,1.6-0.8,2.5-0.9c0.9-0.2,1.9-0.1,2.8,0.3
					c0.9,0.4,1.6,1,2.2,1.7c1.2,1.5,1.6,3.4,1.4,5.1c-0.2,1.8-1.1,3.4-2.4,4.5c0.9-1.5,1.3-3,1.3-4.5c0-1.5-0.5-3-1.4-4.2
					c-0.5-0.6-1-1-1.7-1.3c-0.6-0.3-1.4-0.5-2.1-0.4s-1.5,0.2-2.3,0.5C315,331.2,314.3,331.6,313.5,332z"/>
			</g>
			<g>
				<path class="st9" d="M282,285.8c0.2-0.2,0.4-0.5,0.7-0.6c0.3-0.1,0.6-0.2,0.9-0.2c0.6,0,1.3,0.1,1.8,0.3
					c1.2,0.5,2.2,1.3,2.9,2.4c0.3,0.5,0.6,1.2,0.7,1.8c0.1,0.7,0,1.4-0.2,2c-0.2,0.6-0.6,1.1-1,1.6s-0.9,0.8-1.5,1.1
					c0.7-1,1.2-1.9,1.4-2.9c0.2-1,0-1.9-0.6-2.8c-0.5-0.8-1.3-1.6-2.2-2.1c-0.5-0.3-0.9-0.5-1.4-0.6c-0.2-0.1-0.5-0.1-0.8-0.1
					C282.5,285.6,282.3,285.7,282,285.8z"/>
			</g>
			<g>
				<path class="st9" d="M286.1,294.3c0.6-0.5,1.3-0.8,2.1-1.1c0.8-0.2,1.6-0.3,2.4-0.1c1.6,0.3,3.2,1.3,4,2.8
					c0.4,0.7,0.7,1.6,0.8,2.4c0.1,0.8-0.1,1.7-0.4,2.5s-0.9,1.4-1.5,1.9c-0.6,0.5-1.3,0.9-2,1.2c0.6-0.5,1.1-1.1,1.5-1.6
					c0.4-0.6,0.8-1.2,0.9-1.8c0.4-1.3,0.2-2.7-0.5-3.8c-0.7-1.2-1.8-2-3.1-2.5c-0.6-0.2-1.3-0.3-2.1-0.3
					C287.6,293.9,286.9,294.1,286.1,294.3z"/>
			</g>
			<g>
				<path class="st9" d="M305.1,323.4c0.4-0.8,1.1-1.4,1.8-1.9c0.8-0.5,1.7-0.8,2.6-0.8c0.9-0.1,1.9,0.1,2.8,0.4
					c0.5,0.2,0.9,0.4,1.3,0.7c0.4,0.3,0.8,0.6,1.1,1c0.6,0.8,1,1.7,1.2,2.6c0.2,0.9,0.1,1.9-0.2,2.8c-0.2,0.9-0.6,1.7-1,2.5
					s-1,1.5-1.6,2.1c0.1-0.2,0.2-0.4,0.2-0.6s0.2-0.4,0.2-0.6c0.2-0.4,0.3-0.8,0.5-1.2c0.3-0.8,0.5-1.6,0.6-2.4
					c0.1-0.8,0.1-1.6-0.1-2.3c-0.2-0.7-0.5-1.4-1-2c-0.5-0.6-1.1-1-1.8-1.3c-0.7-0.3-1.5-0.5-2.2-0.5
					C308.1,321.7,306.5,322.2,305.1,323.4z"/>
			</g>
			<g>
				<path class="st9" d="M333.4,332.6c0.6-0.7,1.3-1.4,2.1-1.9c0.8-0.5,1.7-0.9,2.7-1.1c1-0.2,2.1-0.1,3,0.2c1,0.4,1.8,1.1,2.5,1.9
					c1.2,1.7,1.5,3.8,1.1,5.8c-0.4,1.9-1.6,3.6-3.1,4.7c1.1-1.5,1.8-3.2,2-4.9c0.2-1.7-0.2-3.4-1.2-4.7c-0.5-0.6-1.1-1.2-1.8-1.5
					c-0.7-0.3-1.5-0.5-2.4-0.4c-0.8,0.1-1.7,0.3-2.5,0.6C335,331.6,334.2,332.1,333.4,332.6z"/>
			</g>
			<g>
				<path class="st9" d="M324.9,323.6c0.4-0.7,1-1.3,1.8-1.7c0.8-0.4,1.6-0.6,2.5-0.6c1.7,0,3.4,0.6,4.7,1.7c0.7,0.6,1.2,1.2,1.6,2
					c0.4,0.8,0.6,1.7,0.6,2.5s-0.2,1.7-0.5,2.5c-0.3,0.8-0.7,1.5-1.2,2.1c0.2-0.8,0.4-1.5,0.5-2.3c0.1-0.8,0.1-1.5,0-2.2
					c-0.2-1.4-0.9-2.7-2-3.5c-1.1-0.9-2.4-1.5-3.8-1.7C327.6,322.3,326.1,322.6,324.9,323.6z"/>
			</g>
			<g>
				<path class="st9" d="M292.2,285.3c0.7-0.5,1.5-0.8,2.3-1.1c0.8-0.2,1.7-0.4,2.5-0.4c1.7,0,3.5,0.5,5,1.7
					c1.4,1.1,2.4,2.8,2.5,4.7c0,0.9-0.2,1.8-0.5,2.6c-0.4,0.8-1,1.5-1.7,1.9c1-1.3,1.4-2.9,1.1-4.4c-0.3-1.5-1.1-2.8-2.2-3.7
					s-2.6-1.5-4.1-1.6c-0.8-0.1-1.5-0.1-2.3,0C293.8,284.9,293,285.1,292.2,285.3z"/>
			</g>
			<g>
				<path class="st9" d="M301.1,295.5c0.5-0.7,1.2-1.4,2.1-1.8c0.8-0.5,1.8-0.8,2.8-0.7c1,0,2,0.3,2.8,0.8c0.8,0.5,1.6,1.2,2.1,2
					c0.5,0.8,0.9,1.8,1.1,2.7c0.2,1,0.1,2-0.1,2.9c-0.1,0.2-0.2,0.5-0.2,0.7c-0.1,0.2-0.2,0.5-0.3,0.7l-0.4,0.6
					c-0.1,0.2-0.3,0.4-0.4,0.6c-0.6,0.7-1.3,1.3-2.1,1.8c0.6-0.7,1.1-1.4,1.5-2.2c0.4-0.8,0.7-1.6,0.8-2.4c0.2-1.6-0.2-3.3-1.1-4.6
					s-2.3-2.3-3.9-2.5c-0.8-0.1-1.6,0-2.5,0.3C302.6,294.6,301.8,295,301.1,295.5z"/>
			</g>
			<g>
				<path class="st9" d="M316.8,314.5c0.6-0.7,1.2-1.2,2-1.7c0.8-0.5,1.7-0.8,2.6-0.9c0.9-0.1,1.9,0,2.8,0.3s1.7,0.9,2.4,1.6
					c1.3,1.4,1.9,3.4,1.6,5.3c-0.2,0.9-0.5,1.8-1.1,2.5c-0.5,0.7-1.2,1.3-2,1.7c0.6-0.7,1.1-1.3,1.4-2.1c0.4-0.7,0.5-1.5,0.6-2.3
					c0.1-1.5-0.5-3.1-1.5-4.2c-1-1.2-2.5-1.8-4.1-1.8c-0.8,0-1.6,0.2-2.4,0.4C318.4,313.7,317.6,314.1,316.8,314.5z"/>
			</g>
			<g>
				<path class="st9" d="M308.5,305.9c0.5-0.7,1.2-1.2,2-1.5c0.8-0.3,1.7-0.5,2.5-0.5c0.9,0,1.8,0.1,2.6,0.4
					c0.8,0.3,1.6,0.8,2.3,1.5c0.6,0.7,1.1,1.5,1.3,2.5c0.2,0.9,0.1,1.8-0.1,2.7c0,0.2-0.1,0.4-0.2,0.6c-0.1,0.2-0.2,0.4-0.2,0.6
					l-0.3,0.6l-0.3,0.5l-0.2,0.3l-0.2,0.2c-0.1,0.2-0.2,0.3-0.4,0.5c-0.2,0.3-0.5,0.6-0.8,0.9c0.6-1.5,1.2-3,1.5-4.5
					c0.1-0.8,0.1-1.5-0.1-2.2c-0.2-0.7-0.5-1.3-1-1.8c-0.5-0.5-1.1-0.9-1.8-1.2c-0.7-0.3-1.4-0.5-2.1-0.5
					C311.4,304.8,309.8,305,308.5,305.9z"/>
			</g>
			<g>
				<path class="st9" d="M326.1,311.6c1.1-1.3,2.7-2.1,4.4-2.5c0.8-0.2,1.8-0.2,2.6-0.1c0.9,0.1,1.8,0.4,2.5,0.9
					c0.2,0.1,0.4,0.3,0.6,0.4c0.2,0.2,0.4,0.3,0.5,0.5c0.3,0.3,0.6,0.7,0.8,1.1c0.5,0.8,0.7,1.7,0.8,2.5c0.1,0.9,0.1,1.7-0.1,2.6
					c-0.1,0.8-0.4,1.6-0.7,2.4c0.1-1.7,0.1-3.3-0.3-4.8c-0.4-1.5-1.2-2.8-2.4-3.5c-1.2-0.8-2.8-1-4.3-0.9
					C329.1,310.4,327.6,310.9,326.1,311.6z"/>
			</g>
			<g>
				<path class="st9" d="M315,304.9c0-0.9,0.3-1.8,0.8-2.6c0.5-0.8,1.3-1.5,2.1-2c1.7-1,3.8-1.2,5.7-0.6c0.9,0.3,1.8,0.8,2.6,1.5
					c0.7,0.7,1.3,1.5,1.6,2.5c0.3,0.9,0.4,1.9,0.4,2.8c-0.1,0.9-0.3,1.8-0.6,2.7c0-0.9,0.1-1.8-0.1-2.7c-0.1-0.8-0.4-1.7-0.7-2.4
					c-0.7-1.5-2-2.5-3.6-3c-1.5-0.5-3.3-0.4-4.8,0.2c-0.8,0.3-1.5,0.8-2.1,1.4C315.8,303.3,315.4,304,315,304.9z"/>
			</g>
			<g>
				<path class="st9" d="M314.7,352.5c0.6-0.7,1.3-1.4,2.1-1.9c0.8-0.5,1.7-0.9,2.7-1.1c1-0.2,2.1-0.1,3,0.2c1,0.4,1.8,1.1,2.5,1.9
					c1.2,1.7,1.5,3.8,1.1,5.8c-0.4,1.9-1.6,3.6-3.1,4.7c1.1-1.5,1.8-3.2,2-4.9c0.2-1.7-0.2-3.4-1.2-4.7c-0.5-0.6-1.1-1.2-1.8-1.5
					c-0.7-0.3-1.5-0.5-2.4-0.4c-0.8,0.1-1.7,0.3-2.5,0.6C316.3,351.6,315.5,352,314.7,352.5z"/>
			</g>
			<g>
				<path class="st9" d="M306.4,343.2c0.4-0.7,1-1.3,1.8-1.7c0.8-0.4,1.6-0.6,2.5-0.6c1.7,0,3.4,0.6,4.7,1.7c0.7,0.6,1.2,1.2,1.6,2
					c0.4,0.8,0.6,1.7,0.6,2.5s-0.2,1.7-0.5,2.5c-0.3,0.8-0.7,1.5-1.2,2.1c0.2-0.8,0.4-1.5,0.5-2.3c0.1-0.8,0.1-1.5,0-2.2
					c-0.2-1.4-0.9-2.7-2-3.5c-1.1-0.9-2.4-1.5-3.8-1.7C309.1,341.9,307.6,342.2,306.4,343.2z"/>
			</g>
			<g>
				<path class="st9" d="M280,304.2c0.6-0.5,1.4-0.7,2.1-0.8c0.8-0.1,1.6,0,2.3,0.3c1.5,0.5,2.8,1.6,3.6,3.1
					c0.4,0.8,0.5,1.6,0.5,2.5c0,0.8-0.3,1.7-0.8,2.4c-0.9,1.4-2.2,2.2-3.6,2.7c0.5-0.5,1.1-1,1.5-1.5c0.5-0.5,0.8-1.1,1.1-1.7
					c0.5-1.2,0.5-2.5-0.1-3.7c-0.5-1.2-1.5-2.1-2.7-2.7C282.9,304.1,281.4,303.8,280,304.2z"/>
			</g>
			<g>
				<path class="st9" d="M284,314.4c0.5-0.7,1.3-1.3,2.1-1.7c0.8-0.4,1.8-0.5,2.8-0.4c1.9,0.3,3.7,1.5,4.7,3.2
					c0.5,0.8,0.8,1.8,0.9,2.8s-0.1,2-0.4,2.9s-1,1.7-1.6,2.3c-0.7,0.6-1.5,1.1-2.3,1.4c0.7-0.6,1.3-1.2,1.8-1.9
					c0.5-0.7,0.9-1.4,1.1-2.2c0.5-1.5,0.2-3.2-0.6-4.5c-0.8-1.3-2.1-2.4-3.7-2.8c-0.8-0.2-1.6-0.2-2.4,0
					C285.5,313.5,284.8,313.9,284,314.4z"/>
			</g>
			<g>
				<path class="st9" d="M298.3,334.2c0.5-0.6,1.2-1.2,2-1.7s1.6-0.8,2.5-0.9s1.9,0,2.8,0.3c0.9,0.3,1.7,0.9,2.3,1.6
					c1.2,1.4,1.8,3.4,1.5,5.2c-0.1,0.9-0.5,1.8-1,2.5c-0.5,0.7-1.1,1.4-1.8,1.8c1-1.3,1.7-2.9,1.7-4.4c0-1.5-0.5-3-1.5-4.1
					c-0.5-0.5-1.1-1-1.7-1.3s-1.4-0.5-2.1-0.4c-0.8,0-1.5,0.2-2.3,0.4C299.8,333.5,299.1,333.9,298.3,334.2z"/>
			</g>
			<g>
				<path class="st9" d="M272.3,286c0.2-0.2,0.4-0.5,0.7-0.6c0.3-0.1,0.6-0.2,0.9-0.2c0.6,0,1.3,0.1,1.8,0.3
					c1.2,0.5,2.2,1.3,2.9,2.4c0.3,0.5,0.6,1.2,0.7,1.8c0.1,0.7,0,1.4-0.2,2c-0.2,0.6-0.6,1.1-1,1.6s-0.9,0.8-1.5,1.1
					c0.7-1,1.2-1.9,1.4-2.9c0.2-1,0-1.9-0.6-2.8c-0.5-0.8-1.3-1.6-2.2-2.1c-0.5-0.3-0.9-0.5-1.4-0.6c-0.2-0.1-0.5-0.1-0.8-0.1
					C272.8,285.8,272.5,285.9,272.3,286z"/>
			</g>
			<g>
				<path class="st9" d="M276.1,294.3c0.6-0.5,1.3-0.8,2.1-1.1c0.8-0.2,1.6-0.3,2.4-0.1c1.6,0.3,3.2,1.3,4,2.8
					c0.4,0.7,0.7,1.6,0.8,2.4c0.1,0.8-0.1,1.7-0.4,2.5c-0.3,0.8-0.9,1.4-1.5,1.9c-0.6,0.5-1.3,0.9-2,1.2c0.6-0.5,1.1-1.1,1.5-1.6
					c0.4-0.6,0.8-1.2,0.9-1.8c0.4-1.3,0.2-2.7-0.5-3.8c-0.7-1.2-1.8-2-3.1-2.5c-0.6-0.2-1.3-0.3-2.1-0.3
					C277.6,293.9,276.9,294.1,276.1,294.3z"/>
			</g>
			<g>
				<path class="st9" d="M290,324.9c0.5-0.6,1.2-1.1,2-1.3c0.8-0.3,1.6-0.4,2.5-0.3c1.7,0.1,3.4,0.9,4.5,2.2c0.6,0.7,1,1.5,1.2,2.3
					c0.2,0.8,0.2,1.8,0.1,2.6c-0.2,0.8-0.5,1.6-0.8,2.3c-0.4,0.7-0.9,1.4-1.4,1.9c0.3-0.8,0.6-1.5,0.8-2.2c0.2-0.7,0.4-1.5,0.4-2.2
					c0-0.7,0-1.4-0.2-2.1c-0.2-0.7-0.5-1.2-1-1.8c-0.9-1-2.2-1.7-3.6-2.1C293,324.1,291.4,324.1,290,324.9z"/>
			</g>
		</g>
		<g id="top_x5F_half">
			<g>
				<path class="st9" d="M279,270.6c0-0.8,0.2-1.5,0.6-2.2c0.4-0.7,1-1.2,1.7-1.7c1.3-0.9,3-1.2,4.7-1c0.8,0.1,1.6,0.4,2.3,0.9
					c0.7,0.5,1.3,1.1,1.7,1.8c0.4,0.7,0.7,1.5,0.8,2.2c0.1,0.8,0.1,1.5,0,2.3c-0.2-0.7-0.4-1.4-0.7-2.1c-0.3-0.6-0.6-1.2-1.1-1.8
					c-0.8-1-2-1.7-3.3-1.9c-1.3-0.2-2.7,0-3.9,0.6C280.6,268.2,279.6,269.2,279,270.6z"/>
			</g>
			<g>
				<path class="st9" d="M270.8,264.2c0-0.8,0.2-1.5,0.6-2.2c0.4-0.7,1-1.2,1.7-1.7c1.3-0.9,3-1.2,4.7-1c0.8,0.1,1.6,0.4,2.3,0.9
					c0.7,0.5,1.3,1.1,1.7,1.8c0.4,0.7,0.7,1.5,0.8,2.2c0.1,0.8,0.1,1.5,0,2.3c-0.2-0.7-0.4-1.4-0.7-2.1c-0.3-0.6-0.6-1.2-1.1-1.8
					c-0.8-1-2-1.7-3.3-1.9c-1.3-0.2-2.7,0-3.9,0.6C272.5,261.8,271.4,262.7,270.8,264.2z"/>
			</g>
			<g>
				<path class="st9" d="M323.9,300.1c0-0.9,0.3-1.8,0.8-2.6c0.5-0.8,1.3-1.5,2.1-2c1.7-1,3.8-1.2,5.7-0.6c0.9,0.3,1.8,0.8,2.6,1.5
					c0.7,0.7,1.3,1.5,1.6,2.5c0.3,0.9,0.4,1.9,0.4,2.8c-0.1,0.9-0.3,1.8-0.6,2.7c0-0.9,0.1-1.8-0.1-2.7c-0.1-0.8-0.4-1.7-0.7-2.4
					c-0.7-1.5-2-2.5-3.6-3c-1.5-0.5-3.3-0.4-4.8,0.2c-0.8,0.3-1.5,0.8-2.1,1.4C324.7,298.5,324.3,299.3,323.9,300.1z"/>
			</g>
			<g>
				<path class="st9" d="M308.2,295.3c0-0.9,0.3-1.8,0.8-2.6c0.5-0.8,1.3-1.5,2.1-2c1.7-1,3.8-1.2,5.7-0.6c0.9,0.3,1.8,0.8,2.6,1.5
					c0.7,0.7,1.3,1.5,1.6,2.5c0.3,0.9,0.4,1.9,0.4,2.8c-0.1,0.9-0.3,1.8-0.6,2.7c0-0.9,0.1-1.8-0.1-2.7c-0.1-0.8-0.4-1.7-0.7-2.4
					c-0.7-1.5-2-2.5-3.6-3c-1.5-0.5-3.3-0.4-4.8,0.2c-0.8,0.3-1.5,0.8-2.1,1.4C309,293.7,308.6,294.5,308.2,295.3z"/>
			</g>
			<g>
				<path class="st9" d="M316.7,288.6c0.1-1,0.4-2,1-2.8s1.4-1.6,2.3-2.1c1.8-1,4-1.3,6.1-0.9c1,0.2,2,0.6,2.9,1.2
					c0.9,0.6,1.7,1.3,2.2,2.2c0.6,0.8,1,1.8,1.2,2.8c0.2,1,0.3,2,0.2,3c-0.2-1-0.5-1.9-0.8-2.8c-0.4-0.9-0.8-1.7-1.5-2.4
					c-1.2-1.4-2.8-2.3-4.6-2.6c-1.8-0.4-3.6-0.2-5.3,0.5C318.8,285.4,317.4,286.7,316.7,288.6z"/>
			</g>
			<g>
				<path class="st9" d="M335.3,291.8c0-1,0.3-2,0.9-2.9c0.6-0.9,1.4-1.6,2.3-2.2c1.8-1.1,4.1-1.4,6.2-1c1.1,0.2,2.1,0.6,3,1.2
					c0.9,0.6,1.7,1.4,2.3,2.2c0.6,0.9,1,1.9,1.2,2.9c0.2,1,0.2,2,0.1,3c-0.3-1-0.5-1.9-0.9-2.7c-0.4-0.8-0.9-1.6-1.5-2.3
					c-1.2-1.3-2.8-2.2-4.4-2.5c-1.7-0.3-3.5-0.2-5.2,0.5C337.6,288.7,336.1,290,335.3,291.8z"/>
			</g>
			<g>
				<path class="st9" d="M344.8,285.4c0-1,0.3-2,0.9-2.9c0.6-0.9,1.4-1.6,2.3-2.2c1.8-1.1,4.1-1.4,6.2-1c1.1,0.2,2.1,0.6,3,1.2
					c0.9,0.6,1.7,1.4,2.3,2.2c0.6,0.9,1,1.9,1.2,2.9c0.2,1,0.2,2,0.1,3c-0.3-1-0.5-1.9-0.9-2.7c-0.4-0.8-0.9-1.6-1.5-2.3
					c-1.2-1.3-2.8-2.2-4.4-2.5c-1.7-0.3-3.5-0.2-5.2,0.5C347,282.3,345.6,283.6,344.8,285.4z"/>
			</g>
			<g>
				<path class="st9" d="M339.8,279c-0.4-0.3-0.6-0.8-0.8-1.2c-0.2-0.5-0.2-1-0.2-1.5c0-1,0.4-2,0.8-2.9c1-1.8,2.5-3.3,4.5-4
					c0.5-0.2,1-0.3,1.5-0.4c0.5-0.1,1.1-0.1,1.6,0c1.1,0.1,2.1,0.5,2.9,1.1c0.8,0.6,1.6,1.3,2.2,2.1c0.6,0.8,1,1.6,1.4,2.5
					c-0.2-0.2-0.3-0.3-0.5-0.5c-0.2-0.2-0.3-0.3-0.5-0.5c-0.4-0.3-0.7-0.6-1.1-0.9c-0.7-0.6-1.5-1.1-2.2-1.4
					c-0.8-0.4-1.6-0.6-2.4-0.6c-0.8,0-1.6,0.1-2.4,0.4c-1.5,0.6-2.9,1.7-3.9,3.1c-0.5,0.7-1,1.5-1.2,2.3l-0.1,0.3l-0.1,0.3l0,0.2
					v0.2c0,0.1,0,0.2,0,0.3C339.5,278.1,339.6,278.5,339.8,279z"/>
			</g>
			<g>
				<path class="st9" d="M326.3,281.8c0-1,0.3-2,0.9-2.9c0.6-0.9,1.4-1.6,2.3-2.2c1.8-1.1,4.1-1.4,6.2-1c1.1,0.2,2.1,0.6,3,1.2
					c0.9,0.6,1.7,1.4,2.3,2.2c0.6,0.9,1,1.9,1.2,2.9c0.2,1,0.2,2,0.1,3c-0.3-1-0.5-1.9-0.9-2.7c-0.4-0.8-0.9-1.6-1.5-2.3
					c-1.2-1.3-2.8-2.2-4.4-2.5c-1.7-0.3-3.5-0.2-5.2,0.5C328.5,278.7,327.1,279.9,326.3,281.8z"/>
			</g>
			<g>
				<path class="st9" d="M307.8,280.3c0-1,0.3-2,0.9-2.8c0.5-0.9,1.3-1.6,2.2-2.2c1.8-1.1,4-1.5,6.1-1.2c1.1,0.2,2.1,0.6,3,1.3
					s1.6,1.5,2.1,2.5s0.7,2,0.7,3l0,0.8c0,0.2-0.1,0.5-0.1,0.8c-0.1,0.5-0.2,1-0.4,1.4c-0.1-1-0.2-1.9-0.4-2.8
					c-0.2-0.9-0.6-1.7-1.1-2.4c-0.9-1.4-2.4-2.3-4.1-2.6s-3.5-0.1-5.1,0.6C310,277.3,308.5,278.5,307.8,280.3z"/>
			</g>
			<g>
				<path class="st9" d="M303.2,269.2c0-1,0.3-2,0.9-2.8c0.5-0.9,1.3-1.6,2.2-2.2c1.8-1.1,4-1.5,6.1-1.2c1.1,0.2,2.1,0.6,3,1.3
					c0.9,0.6,1.6,1.5,2.1,2.5c0.5,1,0.7,2,0.7,3l0,0.8c0,0.2-0.1,0.5-0.1,0.8c-0.1,0.5-0.2,1-0.4,1.4c-0.1-1-0.2-1.9-0.4-2.8
					c-0.2-0.9-0.6-1.7-1.1-2.4c-0.9-1.4-2.4-2.3-4.1-2.6s-3.5-0.1-5.1,0.6C305.4,266.1,304,267.4,303.2,269.2z"/>
			</g>
			<g>
				<path class="st9" d="M279.7,247c-0.5-0.8-0.8-1.8-0.8-2.9c0-1,0.3-2.1,0.7-3c0.9-1.9,2.6-3.4,4.6-4.2c1-0.4,2.1-0.6,3.2-0.5
					c1.1,0.1,2.2,0.4,3.1,1c0.9,0.6,1.6,1.4,2.2,2.2l0.4,0.7c0.1,0.2,0.2,0.5,0.3,0.7c0.2,0.5,0.3,0.9,0.5,1.4
					c-0.6-0.8-1.2-1.5-1.8-2.1s-1.4-1.2-2.2-1.5c-1.5-0.7-3.3-0.7-4.8-0.1s-3,1.8-4,3.2C279.9,243.3,279.4,245.1,279.7,247z"/>
			</g>
			<g>
				<path class="st9" d="M288.6,214.3c-0.5-0.8-0.8-1.8-0.8-2.9c0-1,0.3-2.1,0.7-3c0.9-1.9,2.6-3.4,4.6-4.2c1-0.4,2.1-0.6,3.2-0.5
					c1.1,0.1,2.2,0.4,3.1,1c0.9,0.6,1.6,1.4,2.2,2.2l0.4,0.7c0.1,0.2,0.2,0.5,0.3,0.7c0.2,0.5,0.3,0.9,0.5,1.4
					c-0.6-0.8-1.2-1.5-1.8-2.1s-1.4-1.2-2.2-1.5c-1.5-0.7-3.3-0.7-4.8-0.1s-3,1.8-4,3.2C288.8,210.6,288.3,212.4,288.6,214.3z"/>
			</g>
			<g>
				<path class="st9" d="M283.1,206c-0.4-0.7-0.6-1.5-0.5-2.4c0.1-0.8,0.5-1.7,1-2.4c1.1-1.4,2.7-2.3,4.4-2.6c0.8-0.2,1.7-0.2,2.6,0
					c0.8,0.2,1.7,0.5,2.4,1.1c0.7,0.5,1.2,1.3,1.5,2.1s0.4,1.6,0.4,2.4c-0.4-0.7-0.7-1.4-1.2-1.9c-0.5-0.5-1-1-1.5-1.3
					c-1.2-0.6-2.5-0.8-3.8-0.5c-1.3,0.2-2.6,0.8-3.6,1.7c-0.5,0.5-0.9,1-1.2,1.6c-0.1,0.2-0.1,0.3-0.2,0.5l-0.1,0.5l-0.1,0.5
					C283.1,205.6,283.1,205.8,283.1,206z"/>
			</g>
			<g>
				<path class="st9" d="M295.6,259.2c0-1,0.3-2,0.9-2.8c0.5-0.9,1.3-1.6,2.2-2.2c1.8-1.1,4-1.5,6.1-1.2c1.1,0.2,2.1,0.6,3,1.3
					c0.9,0.6,1.6,1.5,2.1,2.5c0.5,1,0.7,2,0.7,3l0,0.8c0,0.2-0.1,0.5-0.1,0.8c-0.1,0.5-0.2,1-0.4,1.4c-0.1-1-0.2-1.9-0.4-2.8
					c-0.2-0.9-0.6-1.7-1.1-2.4c-0.9-1.4-2.4-2.3-4.1-2.6s-3.5-0.1-5.1,0.6C297.8,256.2,296.3,257.5,295.6,259.2z"/>
			</g>
			<g>
				<path class="st9" d="M305.9,253.6c-0.3-1-0.3-2.1,0-3.1c0.3-1,0.9-2,1.6-2.8c1.5-1.6,3.6-2.6,5.8-2.8c1.1-0.1,2.2,0,3.3,0.3
					s2.1,0.9,2.8,1.7c0.8,0.8,1.4,1.7,1.8,2.7c0.4,1,0.5,2,0.6,3c-0.4-0.9-0.9-1.8-1.4-2.6c-0.5-0.8-1.2-1.5-1.9-2
					c-1.5-1-3.2-1.4-5-1.2c-1.8,0.2-3.5,0.9-4.9,2C307.1,250,306.1,251.6,305.9,253.6z"/>
			</g>
			<g>
				<path class="st9" d="M295.4,244.4c-0.3-0.9-0.5-1.9-0.4-2.9c0.1-1,0.4-2,0.9-2.9c0.5-0.9,1.3-1.6,2.2-2.2
					c0.9-0.6,1.9-0.9,2.9-1.2c2.1-0.4,4.3,0.1,5.9,1.4c0.8,0.6,1.5,1.4,2,2.3c0.5,0.9,0.7,1.8,0.8,2.8c-0.5-0.8-1-1.6-1.6-2.2
					c-0.6-0.7-1.3-1.2-2-1.6c-1.5-0.8-3.2-1-4.8-0.7c-1.6,0.3-3.1,1.1-4.2,2.4c-0.5,0.6-1,1.4-1.2,2.2
					C295.6,242.6,295.4,243.5,295.4,244.4z"/>
			</g>
			<g>
				<path class="st9" d="M327.1,257.8c-0.5-0.9-0.7-2-0.6-3c0.1-1.1,0.5-2.1,1.1-3c1.2-1.8,3-3.2,5.1-3.8c1.1-0.3,2.2-0.5,3.3-0.3
					c1.1,0.1,2.2,0.5,3.1,1.1c0.9,0.6,1.7,1.4,2.2,2.3c0.5,0.9,0.9,1.8,1.2,2.8c-0.6-0.8-1.2-1.6-1.9-2.3c-0.7-0.7-1.5-1.2-2.2-1.5
					c-1.6-0.8-3.4-0.8-5.1-0.3c-1.7,0.5-3.3,1.5-4.4,2.9C327.5,254,326.8,255.8,327.1,257.8z"/>
			</g>
			<g>
				<path class="st9" d="M317.8,246.8c-0.5-0.8-0.7-1.9-0.7-2.9c0-1,0.4-2.1,0.8-3c1-1.8,2.8-3.3,4.8-3.9c1-0.3,2.1-0.4,3.2-0.3
					c1.1,0.2,2.1,0.5,3,1.2c0.9,0.6,1.6,1.4,2.1,2.3l0.4,0.7c0.1,0.2,0.2,0.5,0.3,0.7c0.2,0.5,0.3,0.9,0.4,1.4
					c-0.6-0.8-1.2-1.5-1.8-2.2c-0.7-0.6-1.4-1.2-2.1-1.6c-1.5-0.8-3.3-0.8-4.9-0.4c-1.6,0.5-3.1,1.5-4.1,2.9
					C318.1,243.1,317.5,244.8,317.8,246.8z"/>
			</g>
			<g>
				<path class="st9" d="M280.5,261.2c-0.4-0.9-0.5-2-0.3-3c0.2-1,0.6-2,1.2-2.9c1.2-1.7,3.1-3,5.2-3.5c1.1-0.2,2.2-0.2,3.2,0
					c1.1,0.2,2.1,0.8,2.9,1.5c0.8,0.7,1.4,1.6,1.8,2.5l0.3,0.7c0.1,0.2,0.2,0.5,0.2,0.7c0.2,0.5,0.2,1,0.2,1.5
					c-0.5-0.8-0.9-1.7-1.5-2.4c-0.6-0.7-1.2-1.4-1.9-1.8c-1.4-0.9-3.1-1.2-4.8-0.8c-1.6,0.4-3.2,1.3-4.4,2.5
					C281.3,257.6,280.5,259.3,280.5,261.2z"/>
			</g>
			<g>
				<path class="st9" d="M291.3,274.3c0-1,0.3-2,0.9-2.8c0.5-0.9,1.3-1.6,2.2-2.2c1.8-1.1,4-1.5,6.1-1.2c1.1,0.2,2.1,0.6,3,1.3
					c0.9,0.6,1.6,1.5,2.1,2.5s0.7,2,0.7,3l0,0.8c0,0.2-0.1,0.5-0.1,0.8c-0.1,0.5-0.2,1-0.4,1.4c-0.1-1-0.2-1.9-0.4-2.8
					c-0.2-0.9-0.6-1.7-1.1-2.4c-0.9-1.4-2.4-2.3-4.1-2.6s-3.5-0.1-5.1,0.6C293.5,271.3,292.1,272.5,291.3,274.3z"/>
			</g>
			<g>
				<path class="st9" d="M309.5,264.5c0-1,0.3-2,0.9-2.8c0.5-0.9,1.3-1.6,2.2-2.2c1.8-1.1,4-1.5,6.1-1.2c1.1,0.2,2.1,0.6,3,1.3
					c0.9,0.6,1.6,1.5,2.1,2.5c0.5,1,0.7,2,0.7,3l0,0.8c0,0.2-0.1,0.5-0.1,0.8c-0.1,0.5-0.2,1-0.4,1.4c-0.1-1-0.2-1.9-0.4-2.8
					c-0.2-0.9-0.6-1.7-1.1-2.4c-0.9-1.4-2.4-2.3-4.1-2.6s-3.5-0.1-5.1,0.6C311.7,261.5,310.3,262.8,309.5,264.5z"/>
			</g>
			<g>
				<path class="st9" d="M287.7,264.2c0-0.9,0.3-1.8,0.8-2.6c0.5-0.8,1.2-1.5,2-1.9c1.6-1,3.7-1.2,5.5-0.8c1.9,0.4,3.6,1.6,4.6,3.1
					c0.5,0.8,0.9,1.7,1,2.6s0.2,1.8,0,2.7c-0.5-1.7-1.1-3.2-2.2-4.3c-1-1.1-2.4-1.9-3.9-2.2c-1.5-0.3-3-0.3-4.4,0.3
					c-0.7,0.3-1.4,0.7-2,1.2C288.6,262.8,288.1,263.5,287.7,264.2z"/>
			</g>
			<g>
				<path class="st9" d="M284.9,223.7c0-1.5,0.6-3.1,1.7-4.3c1.1-1.2,2.8-2,4.6-1.9c0.9,0,1.7,0.2,2.5,0.6c0.8,0.4,1.5,0.9,2,1.5
					c1.1,1.3,1.5,2.9,1.5,4.4c-0.8-1.3-1.5-2.5-2.6-3.4c-1-0.8-2.2-1.3-3.5-1.3c-1.2,0-2.5,0.4-3.5,1.1
					C286.5,221.2,285.7,222.3,284.9,223.7z"/>
			</g>
			<g>
				<path class="st9" d="M287.5,235.5c0-1.5,0.7-3.2,1.9-4.3c0.6-0.6,1.4-1,2.2-1.3c0.8-0.3,1.7-0.3,2.6-0.2
					c0.9,0.1,1.7,0.4,2.5,0.8s1.4,1.1,1.8,1.8c1,1.4,1.3,3.1,1.2,4.6c-0.6-1.4-1.3-2.7-2.3-3.6c-1-0.9-2.1-1.5-3.4-1.7
					c-1.2-0.2-2.5,0.1-3.7,0.8C289.2,233.1,288.3,234.2,287.5,235.5z"/>
			</g>
			<g>
				<path class="st9" d="M293.8,229.2c0-1.5,0.7-3.2,1.9-4.3c0.6-0.6,1.4-1,2.2-1.3c0.8-0.3,1.7-0.3,2.6-0.2
					c0.9,0.1,1.7,0.4,2.5,0.8c0.7,0.5,1.4,1.1,1.8,1.8c1,1.4,1.3,3.1,1.2,4.6c-0.6-1.4-1.3-2.7-2.3-3.6s-2.1-1.5-3.4-1.7
					c-1.2-0.2-2.5,0.1-3.7,0.8C295.5,226.7,294.6,227.8,293.8,229.2z"/>
			</g>
			<g>
				<path class="st9" d="M278.5,217.2c0-1.5,0.7-3.2,1.9-4.3c0.6-0.6,1.4-1,2.2-1.3c0.8-0.3,1.7-0.3,2.6-0.2
					c0.9,0.1,1.7,0.4,2.5,0.8c0.7,0.5,1.4,1.1,1.8,1.8c1,1.4,1.3,3.1,1.2,4.6c-0.6-1.4-1.3-2.7-2.3-3.6c-1-0.9-2.1-1.5-3.4-1.7
					c-1.2-0.2-2.5,0.1-3.7,0.8C280.2,214.7,279.3,215.8,278.5,217.2z"/>
			</g>
			<g>
				<path class="st9" d="M297,216.9c0-1.5,0.7-3.2,1.9-4.3c0.6-0.6,1.4-1,2.2-1.3c0.8-0.3,1.7-0.3,2.6-0.2c0.9,0.1,1.7,0.4,2.5,0.8
					c0.7,0.5,1.4,1.1,1.8,1.8c1,1.4,1.3,3.1,1.2,4.6c-0.6-1.4-1.3-2.7-2.3-3.6c-1-0.9-2.1-1.5-3.4-1.7c-1.2-0.2-2.5,0.1-3.7,0.8
					C298.7,214.4,297.8,215.5,297,216.9z"/>
			</g>
			<g>
				<path class="st9" d="M277.6,230.7c0-1.5,0.7-3.2,1.9-4.3c0.6-0.6,1.4-1,2.2-1.3c0.8-0.3,1.7-0.3,2.6-0.2
					c0.9,0.1,1.7,0.4,2.5,0.8c0.7,0.5,1.4,1.1,1.8,1.8c1,1.4,1.3,3.1,1.2,4.6c-0.6-1.4-1.3-2.7-2.3-3.6c-1-0.9-2.1-1.5-3.4-1.7
					c-1.2-0.2-2.5,0.1-3.7,0.8C279.3,228.3,278.3,229.4,277.6,230.7z"/>
			</g>
			<g>
				<path class="st9" d="M271.2,224.5c0-1.5,0.7-3.2,1.9-4.3c0.6-0.6,1.4-1,2.2-1.3c0.8-0.3,1.7-0.3,2.6-0.2
					c0.9,0.1,1.7,0.4,2.5,0.8c0.7,0.5,1.4,1.1,1.8,1.8c1,1.4,1.3,3.1,1.2,4.6c-0.6-1.4-1.3-2.7-2.3-3.6c-1-0.9-2.1-1.5-3.4-1.7
					c-1.2-0.2-2.5,0.1-3.7,0.8C272.9,222,272,223.1,271.2,224.5z"/>
			</g>
			<g>
				<path class="st9" d="M269.5,236.7c0-1.5,0.7-3.2,1.9-4.3c0.6-0.6,1.4-1,2.2-1.3c0.8-0.3,1.7-0.3,2.6-0.2
					c0.9,0.1,1.7,0.4,2.5,0.8c0.7,0.5,1.4,1.1,1.8,1.8c1,1.4,1.3,3.1,1.2,4.6c-0.6-1.4-1.3-2.7-2.3-3.6c-1-0.9-2.1-1.5-3.4-1.7
					c-1.2-0.2-2.5,0.1-3.7,0.8C271.2,234.2,270.3,235.4,269.5,236.7z"/>
			</g>
			<g>
				<path class="st9" d="M264,216.3c0-1.5,0.7-3.2,1.9-4.3c0.6-0.6,1.4-1,2.2-1.3c0.8-0.3,1.7-0.3,2.6-0.2c0.9,0.1,1.7,0.4,2.5,0.8
					c0.7,0.5,1.4,1.1,1.8,1.8c1,1.4,1.3,3.1,1.2,4.6c-0.6-1.4-1.3-2.7-2.3-3.6s-2.1-1.5-3.4-1.7c-1.2-0.2-2.5,0.1-3.7,0.8
					C265.6,213.8,264.7,215,264,216.3z"/>
			</g>
			<g>
				<path class="st9" d="M255,209.2c0-1.5,0.7-3.2,1.9-4.3c0.6-0.6,1.4-1,2.2-1.3c0.8-0.3,1.7-0.3,2.6-0.2c0.9,0.1,1.7,0.4,2.5,0.8
					c0.7,0.5,1.4,1.1,1.8,1.8c1,1.4,1.3,3.1,1.2,4.6c-0.6-1.4-1.3-2.7-2.3-3.6s-2.1-1.5-3.4-1.7c-1.2-0.2-2.5,0.1-3.7,0.8
					C256.7,206.8,255.7,207.9,255,209.2z"/>
			</g>
			<g>
				<path class="st9" d="M256.1,197.3c0-1.5,0.7-3.2,1.9-4.3c0.6-0.6,1.4-1,2.2-1.3c0.8-0.3,1.7-0.3,2.6-0.2
					c0.9,0.1,1.7,0.4,2.5,0.8c0.7,0.5,1.4,1.1,1.8,1.8c1,1.4,1.3,3.1,1.2,4.6c-0.6-1.4-1.3-2.7-2.3-3.6s-2.1-1.5-3.4-1.7
					c-1.2-0.2-2.5,0.1-3.7,0.8C257.8,194.9,256.8,196,256.1,197.3z"/>
			</g>
			<g>
				<path class="st9" d="M264.3,192.7c0-1.5,0.7-3.2,1.9-4.3c0.6-0.6,1.4-1,2.2-1.3c0.8-0.3,1.7-0.3,2.6-0.2
					c0.9,0.1,1.7,0.4,2.5,0.8c0.7,0.5,1.4,1.1,1.8,1.8c1,1.4,1.3,3.1,1.2,4.6c-0.6-1.4-1.3-2.7-2.3-3.6s-2.1-1.5-3.4-1.7
					c-1.2-0.2-2.5,0.1-3.7,0.8C266,190.3,265,191.4,264.3,192.7z"/>
			</g>
			<g>
				<path class="st9" d="M257.6,161.8c0-0.6,0.2-1.2,0.4-1.8s0.6-1.2,1-1.7c0.5-0.5,1-0.9,1.7-1.2c0.6-0.3,1.4-0.4,2.1-0.3
					c1.4,0.1,2.7,0.8,3.6,1.8c0.9,1,1.4,2.3,1.4,3.5c-0.5-1.1-1.3-2-2.1-2.7c-0.9-0.7-1.9-1.1-2.9-1.2c-1-0.1-2,0.2-2.9,0.9
					c-0.4,0.3-0.8,0.7-1.2,1.2C258.3,160.7,258,161.2,257.6,161.8z"/>
			</g>
			<g>
				<path class="st9" d="M255.5,156.6c0-0.6,0.2-1.2,0.4-1.8c0.2-0.6,0.6-1.2,1-1.7c0.5-0.5,1-0.9,1.7-1.2c0.6-0.3,1.4-0.4,2.1-0.3
					c1.4,0.1,2.7,0.8,3.6,1.8c0.9,1,1.4,2.3,1.4,3.5c-0.5-1.1-1.3-2-2.1-2.7c-0.9-0.7-1.9-1.1-2.9-1.2c-1-0.1-2,0.2-2.9,0.9
					c-0.4,0.3-0.8,0.7-1.2,1.2C256.2,155.6,255.9,156.1,255.5,156.6z"/>
			</g>
			<g>
				<path class="st9" d="M247.3,171.8c0-0.6,0.2-1.2,0.4-1.8s0.6-1.2,1.1-1.6c0.5-0.5,1.2-0.8,1.9-0.9c0.4-0.1,0.7,0,1.1,0
					c0.3,0.1,0.7,0.2,1,0.3c1.2,0.5,2.2,1.5,2.8,2.6c0.6,1.1,1,2.3,1,3.5c-0.5-1.1-1.2-2-1.9-2.8c-0.7-0.8-1.6-1.5-2.5-1.9
					c-0.9-0.4-1.8-0.4-2.7,0.2c-0.4,0.3-0.8,0.7-1.2,1.1C247.9,170.8,247.6,171.3,247.3,171.8z"/>
			</g>
			<g>
				<path class="st9" d="M248.3,184.2c0-1,0.3-2,1.2-2.8c0.4-0.4,1-0.7,1.5-0.8c0.6-0.1,1.2,0,1.8,0.2c1.1,0.4,1.9,1.2,2.5,2.1
					c0.5,0.9,0.8,1.9,0.8,2.9c-0.5-0.8-1.1-1.6-1.7-2.3c-0.6-0.6-1.3-1.2-2-1.4c-0.7-0.3-1.5-0.2-2.1,0.2
					C249.4,182.7,248.9,183.4,248.3,184.2z"/>
			</g>
			<g>
				<path class="st9" d="M278.4,180.7c-0.3-0.5-0.5-1.1-0.7-1.8c-0.1-0.6-0.2-1.3,0-1.9c0.1-0.7,0.3-1.3,0.7-1.9
					c0.4-0.6,0.9-1.1,1.5-1.5c1.2-0.8,2.6-1,3.9-0.7c0.7,0.2,1.3,0.5,1.8,0.8c0.5,0.4,0.9,0.9,1.1,1.5c-0.9-0.8-2-1.2-3.1-1.3
					c-1.1-0.1-2.1,0.2-3,0.8c-0.8,0.5-1.5,1.4-1.8,2.4c-0.2,0.5-0.3,1.1-0.3,1.6C278.3,179.5,278.4,180.1,278.4,180.7z"/>
			</g>
			<g>
				<path class="st9" d="M280.9,186c-0.3-0.5-0.5-1.1-0.7-1.7c-0.1-0.6-0.2-1.3-0.1-1.9c0.1-0.6,0.3-1.3,0.7-1.9
					c0.4-0.6,0.8-1.1,1.4-1.5c1.2-0.8,2.6-1,3.9-0.7c1.3,0.3,2.4,1.2,2.9,2.3c-1-0.8-2-1.2-3.1-1.2c-1.1-0.1-2.1,0.2-2.9,0.8
					c-0.8,0.5-1.5,1.4-1.8,2.4c-0.2,0.5-0.3,1.1-0.3,1.6C280.9,184.8,280.9,185.3,280.9,186z"/>
			</g>
			<g>
				<path class="st9" d="M249.6,191.1c0-1.5,0.7-3.2,1.9-4.3c0.6-0.6,1.4-1,2.2-1.3c0.8-0.3,1.7-0.3,2.6-0.2
					c0.9,0.1,1.7,0.4,2.5,0.8c0.7,0.5,1.4,1.1,1.8,1.8c1,1.4,1.3,3.1,1.2,4.6c-0.6-1.4-1.3-2.7-2.3-3.6s-2.1-1.5-3.4-1.7
					c-1.2-0.2-2.5,0.1-3.7,0.8C251.3,188.6,250.4,189.8,249.6,191.1z"/>
			</g>
			<g>
				<path class="st9" d="M257.3,185.9c0-0.7,0.1-1.5,0.3-2.2s0.6-1.4,1.1-2.1c0.5-0.6,1.2-1.2,1.9-1.5c0.7-0.4,1.5-0.6,2.4-0.6
					c1.6-0.1,3.3,0.5,4.5,1.5c0.6,0.5,1.1,1.2,1.4,1.9c0.3,0.7,0.5,1.5,0.4,2.2c-0.6-1.4-1.5-2.3-2.6-2.9s-2.3-0.9-3.5-0.8
					c-1.2,0.1-2.4,0.5-3.3,1.3c-0.5,0.4-0.9,0.9-1.4,1.4C258.1,184.6,257.7,185.2,257.3,185.9z"/>
			</g>
			<g>
				<path class="st9" d="M250.3,180.6c0-0.7,0.1-1.5,0.3-2.2c0.2-0.7,0.6-1.4,1.1-2.1c0.5-0.6,1.2-1.2,1.9-1.5
					c0.7-0.4,1.5-0.6,2.4-0.6c1.6-0.1,3.3,0.5,4.5,1.5c0.6,0.5,1.1,1.2,1.4,1.9c0.3,0.7,0.5,1.5,0.4,2.2c-0.6-1.4-1.5-2.3-2.6-2.9
					c-1.1-0.6-2.3-0.9-3.5-0.8c-1.2,0.1-2.4,0.5-3.3,1.3c-0.5,0.4-0.9,0.9-1.4,1.4C251,179.3,250.7,179.9,250.3,180.6z"/>
			</g>
			<g>
				<path class="st9" d="M256.4,173.8c-0.2-0.7-0.2-1.5-0.1-2.3c0.1-0.8,0.5-1.5,1-2.2c0.5-0.7,1.2-1.2,1.9-1.6
					c0.7-0.4,1.5-0.6,2.3-0.7c1.6-0.2,3.2,0.1,4.6,0.9c0.7,0.4,1.3,0.9,1.8,1.6c0.4,0.7,0.7,1.5,0.5,2.2c-0.3-0.7-0.7-1.2-1.2-1.6
					c-0.5-0.4-1.1-0.7-1.7-0.9c-1.2-0.4-2.5-0.5-3.8-0.4c-1.2,0.2-2.4,0.6-3.4,1.4c-0.5,0.4-0.9,0.9-1.2,1.5
					C256.9,172.4,256.6,173.1,256.4,173.8z"/>
			</g>
			<g>
				<path class="st9" d="M248.3,167.7c0-0.7,0.1-1.5,0.3-2.2c0.2-0.7,0.6-1.4,1.2-2s1.2-1,2-1.3c0.7-0.3,1.5-0.4,2.3-0.4
					c1.5,0,3.1,0.5,4.3,1.4c0.6,0.5,1.2,1.1,1.5,1.8c0.3,0.7,0.5,1.5,0.3,2.2c-0.3-1.4-1.3-2.4-2.4-3c-1.1-0.6-2.4-0.9-3.7-0.9
					c-1.3,0-2.5,0.4-3.5,1.1c-0.5,0.4-0.9,0.9-1.3,1.5C248.9,166.4,248.6,167,248.3,167.7z"/>
			</g>
			<g>
				<path class="st9" d="M245.6,160.8c-0.1-0.8,0-1.7,0.2-2.5c0.2-0.8,0.7-1.6,1.3-2.3c0.6-0.7,1.5-1.1,2.3-1.4
					c0.9-0.2,1.8-0.2,2.7-0.1c1.8,0.4,3.3,1.4,4.4,2.8c0.5,0.7,0.9,1.5,1.2,2.3c0.2,0.8,0.3,1.7,0.1,2.5c-0.3-1.6-1-3-2.1-4.1
					c-1.1-1.1-2.4-1.8-3.8-2.1c-1.4-0.3-2.9-0.1-4,0.8c-0.5,0.5-1,1-1.4,1.7C246.1,159.3,245.8,160,245.6,160.8z"/>
			</g>
			<g>
				<path class="st9" d="M268.7,162.5c0-0.7,0.1-1.5,0.3-2.2c0.2-0.7,0.6-1.4,1.2-2s1.2-1,2-1.3c0.7-0.3,1.5-0.4,2.3-0.4
					c1.5,0,3.1,0.5,4.3,1.4c0.6,0.5,1.2,1.1,1.5,1.8c0.3,0.7,0.5,1.5,0.3,2.2c-0.3-1.4-1.3-2.4-2.4-3c-1.1-0.6-2.4-0.9-3.7-0.9
					s-2.5,0.4-3.5,1.1c-0.5,0.4-0.9,0.9-1.3,1.5C269.2,161.2,268.9,161.8,268.7,162.5z"/>
			</g>
			<g>
				<path class="st9" d="M268.9,185.9c0.1-1.4,0.6-2.9,1.7-4.1c1.1-1.1,2.7-1.8,4.3-1.8c1.6,0,3.2,0.6,4.3,1.7
					c0.6,0.5,1,1.2,1.3,1.9c0.3,0.7,0.4,1.5,0.3,2.2c-0.6-1.3-1.5-2.3-2.5-2.9c-1-0.6-2.2-1-3.4-1c-1.2,0-2.3,0.4-3.4,1.1
					C270.6,183.7,269.7,184.7,268.9,185.9z"/>
			</g>
			<g>
				<path class="st9" d="M263.3,178.3c0.1-1.5,0.6-3,1.8-4.1c1.1-1.1,2.8-1.8,4.4-1.7c1.6,0,3.2,0.6,4.4,1.7c0.6,0.5,1,1.2,1.3,1.9
					c0.3,0.7,0.4,1.5,0.3,2.2c-0.6-1.3-1.5-2.3-2.5-3c-1.1-0.7-2.2-1-3.5-1c-1.2,0-2.4,0.3-3.4,1C265,176,264.1,177.1,263.3,178.3z"
					/>
			</g>
			<g>
				<path class="st9" d="M262.8,167.1c0.1-1.5,0.6-3,1.8-4.1c1.1-1.1,2.8-1.8,4.4-1.7c1.6,0,3.2,0.6,4.4,1.7c0.6,0.5,1,1.2,1.3,1.9
					c0.3,0.7,0.4,1.5,0.3,2.2c-0.6-1.3-1.5-2.3-2.5-3c-1.1-0.7-2.2-1-3.5-1c-1.2,0-2.4,0.3-3.4,1
					C264.4,164.9,263.5,165.9,262.8,167.1z"/>
			</g>
			<g>
				<path class="st9" d="M271,172.7c0.1-1.5,0.6-3,1.8-4.1c1.1-1.1,2.8-1.8,4.4-1.7c1.6,0,3.2,0.6,4.4,1.7c0.6,0.5,1,1.2,1.3,1.9
					c0.3,0.7,0.4,1.5,0.3,2.2c-0.6-1.3-1.5-2.3-2.5-3c-1.1-0.7-2.2-1-3.5-1c-1.2,0-2.4,0.3-3.4,1C272.6,170.5,271.8,171.5,271,172.7
					z"/>
			</g>
			<g>
				<path class="st9" d="M278.1,192.2c0.1-1.5,0.6-3,1.8-4.1c1.1-1.1,2.8-1.8,4.4-1.7c1.6,0,3.2,0.6,4.4,1.7c0.6,0.5,1,1.2,1.3,1.9
					c0.3,0.7,0.4,1.5,0.3,2.2c-0.6-1.3-1.5-2.3-2.5-3c-1.1-0.7-2.2-1-3.5-1c-1.2,0-2.4,0.3-3.4,1C279.8,190,278.9,191,278.1,192.2z"
					/>
			</g>
			<g>
				<path class="st9" d="M271.7,208.8c0-1.5,0.7-3.2,1.9-4.3c0.6-0.6,1.4-1,2.2-1.3c0.8-0.3,1.7-0.3,2.6-0.2
					c0.9,0.1,1.7,0.4,2.5,0.8c0.7,0.5,1.4,1.1,1.8,1.8c1,1.4,1.3,3.1,1.2,4.6c-0.6-1.4-1.3-2.7-2.3-3.6s-2.1-1.5-3.4-1.7
					c-1.2-0.2-2.5,0.1-3.7,0.8C273.4,206.3,272.5,207.4,271.7,208.8z"/>
			</g>
			<g>
				<path class="st9" d="M263.2,203.5c0-1.5,0.7-3.2,1.9-4.3c0.6-0.6,1.4-1,2.2-1.3c0.8-0.3,1.7-0.3,2.6-0.2
					c0.9,0.1,1.7,0.4,2.5,0.8c0.7,0.5,1.4,1.1,1.8,1.8c1,1.4,1.3,3.1,1.2,4.6c-0.6-1.4-1.3-2.7-2.3-3.6s-2.1-1.5-3.4-1.7
					c-1.2-0.2-2.5,0.1-3.7,0.8C264.8,201,263.9,202.1,263.2,203.5z"/>
			</g>
			<g>
				<path class="st9" d="M273,198.3c0-1.5,0.7-3.2,1.9-4.3c0.6-0.6,1.4-1,2.2-1.3c0.8-0.3,1.7-0.3,2.6-0.2c0.9,0.1,1.7,0.4,2.5,0.8
					c0.7,0.5,1.4,1.1,1.8,1.8c1,1.4,1.3,3.1,1.2,4.6c-0.6-1.4-1.3-2.7-2.3-3.6c-1-0.9-2.1-1.5-3.4-1.7c-1.2-0.2-2.5,0.1-3.7,0.8
					C274.7,195.9,273.8,197,273,198.3z"/>
			</g>
			<g>
				<path class="st9" d="M264.2,244.4c-0.2-0.8-0.1-1.6,0.1-2.4c0.2-0.8,0.5-1.6,1.1-2.2c1-1.4,2.8-2.2,4.5-2.2
					c0.9,0,1.8,0.1,2.5,0.5c0.8,0.3,1.5,0.8,2.1,1.4c1.2,1.2,1.8,2.8,2,4.3c-0.9-1.3-1.8-2.4-2.9-3.2c-1.1-0.8-2.4-1.2-3.7-1.1
					s-2.5,0.5-3.5,1.4C265.4,241.7,264.7,242.9,264.2,244.4z"/>
			</g>
			<g>
				<path class="st9" d="M254,223.8c-0.3-1.5,0.1-3.3,1.1-4.6c0.5-0.7,1.2-1.3,2-1.7c0.8-0.4,1.6-0.6,2.5-0.7
					c0.9-0.1,1.8,0.1,2.6,0.4c0.8,0.3,1.5,0.8,2.1,1.4c1.2,1.2,1.8,2.8,2,4.3c-0.9-1.3-1.8-2.4-2.9-3.1c-1.1-0.8-2.4-1.1-3.7-1
					c-1.3,0.1-2.5,0.6-3.5,1.5C255.2,221.1,254.5,222.4,254,223.8z"/>
			</g>
			<g>
				<path class="st9" d="M248.3,203.2c-0.3-1.4-0.1-2.9,0.7-4.2c0.4-0.7,1-1.2,1.6-1.7c0.7-0.4,1.5-0.7,2.3-0.8
					c0.8-0.1,1.6,0.1,2.4,0.4c0.7,0.3,1.4,0.8,1.9,1.3c1.1,1.1,1.6,2.5,1.7,3.9c-0.8-1.1-1.7-2.1-2.7-2.8c-1-0.7-2.1-1-3.1-0.9
					s-2.1,0.6-2.9,1.4C249.3,200.7,248.8,201.9,248.3,203.2z"/>
			</g>
			<g>
				<path class="st9" d="M249.5,215.9c-0.3-1.5,0.1-3.3,1.1-4.6c0.5-0.7,1.2-1.3,2-1.7c0.8-0.4,1.6-0.6,2.5-0.7
					c0.9-0.1,1.8,0.1,2.6,0.4s1.5,0.8,2.1,1.4c1.2,1.2,1.8,2.8,2,4.3c-0.9-1.3-1.8-2.4-2.9-3.1c-1.1-0.8-2.4-1.1-3.7-1
					c-1.3,0.1-2.5,0.6-3.5,1.5C250.7,213.1,250,214.4,249.5,215.9z"/>
			</g>
			<g>
				<path class="st9" d="M250.5,230.8c-0.3-1.5,0-3.1,0.9-4.5c0.5-0.7,1-1.3,1.8-1.8s1.6-0.7,2.5-0.8c0.5,0,0.9,0,1.3,0.1
					c0.4,0.1,0.8,0.3,1.2,0.5c0.8,0.4,1.4,1.1,1.8,1.7c0.5,0.7,0.7,1.5,0.9,2.2l0.1,0.6c0,0.2,0,0.4,0,0.6c0,0.4,0,0.8,0,1.1
					c-0.3-0.7-0.6-1.3-1-1.9c-0.4-0.6-0.8-1.2-1.2-1.6c-0.9-0.9-2-1.4-3.1-1.4c-1.1,0-2.3,0.6-3.1,1.6
					C251.6,228.2,251,229.4,250.5,230.8z"/>
			</g>
			<g>
				<path class="st9" d="M260.7,230.4c-0.3-1.5,0.1-3.3,1.1-4.6c0.5-0.7,1.2-1.3,2-1.7c0.8-0.4,1.6-0.6,2.5-0.7
					c0.9-0.1,1.8,0.1,2.6,0.4s1.5,0.8,2.1,1.4c1.2,1.2,1.8,2.8,2,4.3c-0.9-1.3-1.8-2.4-2.9-3.1c-1.1-0.8-2.4-1.1-3.7-1
					c-1.3,0.1-2.5,0.6-3.5,1.5C261.9,227.6,261.2,228.9,260.7,230.4z"/>
			</g>
			<g>
				<path class="st9" d="M254,238.9c-0.3-1.5,0.1-3.3,1.1-4.6c0.5-0.7,1.2-1.3,2-1.7c0.8-0.4,1.6-0.6,2.5-0.7
					c0.9-0.1,1.8,0.1,2.6,0.4c0.8,0.3,1.5,0.8,2.1,1.4c1.2,1.2,1.8,2.8,2,4.3c-0.9-1.3-1.8-2.4-2.9-3.1c-1.1-0.8-2.4-1.1-3.7-1
					c-1.3,0.1-2.5,0.6-3.5,1.5C255.2,236.2,254.5,237.4,254,238.9z"/>
			</g>
			<g>
				<path class="st9" d="M306.9,234.6c0-1.5,0.7-3.2,1.9-4.3c0.6-0.6,1.4-1,2.2-1.3c0.8-0.3,1.7-0.3,2.6-0.2
					c0.9,0.1,1.7,0.4,2.5,0.8c0.7,0.5,1.4,1.1,1.8,1.8c1,1.4,1.3,3.1,1.2,4.6c-0.6-1.4-1.3-2.7-2.3-3.6s-2.1-1.5-3.4-1.7
					c-1.2-0.2-2.5,0.1-3.7,0.8C308.6,232.1,307.6,233.2,306.9,234.6z"/>
			</g>
			<g>
				<path class="st9" d="M310.3,227.8c0-1.5,0.7-3.2,1.9-4.3c0.6-0.6,1.4-1,2.2-1.3c0.8-0.3,1.7-0.3,2.6-0.2
					c0.9,0.1,1.7,0.4,2.5,0.8s1.4,1.1,1.8,1.8c1,1.4,1.3,3.1,1.2,4.6c-0.6-1.4-1.3-2.7-2.3-3.6c-1-0.9-2.1-1.5-3.4-1.7
					c-1.2-0.2-2.5,0.1-3.7,0.8C312,225.3,311,226.5,310.3,227.8z"/>
			</g>
			<g>
				<path class="st9" d="M286.7,249.3c0-0.9,0.3-1.8,0.8-2.6c0.5-0.8,1.2-1.5,2-1.9c1.6-1,3.7-1.2,5.5-0.8c1.9,0.4,3.6,1.6,4.6,3.1
					c0.5,0.8,0.9,1.7,1,2.6s0.2,1.8,0,2.7c-0.5-1.7-1.1-3.2-2.2-4.3c-1-1.1-2.4-1.9-3.9-2.2c-1.5-0.3-3-0.3-4.4,0.3
					c-0.7,0.3-1.4,0.7-2,1.2C287.6,247.9,287.1,248.6,286.7,249.3z"/>
			</g>
			<g>
				<path class="st9" d="M268,257.4c-0.1-0.2-0.2-0.4-0.2-0.6c-0.1-0.2-0.1-0.4-0.2-0.7c0-0.2,0-0.5-0.1-0.7c0-0.2,0-0.5,0.1-0.7
					c0.2-1,0.8-1.9,1.5-2.5c0.8-0.6,1.8-1,2.7-1.2s2-0.1,2.9,0.2c0.2,0.1,0.5,0.2,0.7,0.2c0.2,0.1,0.5,0.2,0.7,0.3
					c0.2,0.1,0.4,0.3,0.6,0.4c0.2,0.2,0.4,0.3,0.6,0.5c0.7,0.7,1.3,1.5,1.7,2.4c0.4,0.9,0.5,1.8,0.5,2.8l0,0.7
					c0,0.2-0.1,0.5-0.1,0.7c-0.1,0.5-0.2,0.8-0.4,1.3c-0.1-0.9-0.2-1.7-0.4-2.5c-0.2-0.8-0.5-1.5-0.9-2.2c-0.8-1.3-2-2.2-3.4-2.6
					c-1.4-0.4-3-0.3-4.3,0.4c-0.6,0.4-1.2,0.9-1.5,1.6C268.1,255.7,268,256.6,268,257.4z"/>
			</g>
			<g>
				<path class="st9" d="M272.2,251.1c0-0.9,0.3-1.8,0.7-2.6c0.5-0.8,1.1-1.5,1.8-2.1c1.5-1.1,3.5-1.7,5.5-1.3
					c0.5,0.1,1,0.3,1.4,0.5l0.3,0.2c0.1,0.1,0.2,0.2,0.3,0.2c0.2,0.1,0.4,0.3,0.6,0.5c0.8,0.7,1.3,1.5,1.6,2.5
					c0.6,1.8,0.3,3.7-0.3,5.3c-0.1-0.9-0.2-1.7-0.3-2.5c-0.2-0.8-0.4-1.6-0.8-2.2c-0.7-1.4-1.9-2.2-3.3-2.5c-1.4-0.3-3,0-4.3,0.7
					C274.2,248.4,273,249.5,272.2,251.1z"/>
			</g>
			<g>
				<path class="st9" d="M259.9,248.1c0-0.9,0.3-1.8,0.7-2.6s1.2-1.5,1.9-2c0.8-0.5,1.7-0.9,2.7-1c1-0.1,2,0,2.9,0.3
					c0.2,0.1,0.5,0.2,0.7,0.3c0.2,0.1,0.5,0.2,0.7,0.4s0.4,0.3,0.6,0.5c0.2,0.2,0.4,0.3,0.5,0.5c0.7,0.7,1.1,1.6,1.4,2.5
					c0.5,1.8,0.3,3.7-0.3,5.3c-0.2-1.7-0.4-3.4-1.1-4.8c-0.3-0.7-0.8-1.3-1.3-1.8c-0.5-0.5-1.2-0.8-1.8-1.1
					c-0.7-0.2-1.4-0.3-2.1-0.3c-0.7,0-1.5,0.2-2.1,0.5C261.9,245.4,260.7,246.6,259.9,248.1z"/>
			</g>
			<g>
				<path class="st9" d="M318.6,274.6c0-0.9,0.2-1.9,0.7-2.7c0.5-0.8,1.2-1.6,2-2.2c1.6-1.2,3.7-1.7,5.7-1.5c1,0.1,2,0.4,2.9,0.9
					c0.9,0.5,1.7,1.2,2.2,2c0.6,0.8,0.9,1.8,1.1,2.8c0.1,1,0.1,1.9-0.2,2.8c-0.2-0.9-0.4-1.8-0.7-2.6c-0.3-0.8-0.8-1.5-1.3-2.1
					c-1.1-1.2-2.6-1.8-4.2-2c-1.6-0.2-3.2,0.1-4.7,0.8C320.6,271.7,319.3,272.9,318.6,274.6z"/>
			</g>
			<g>
				<path class="st9" d="M327.4,268.5c0-0.9,0.2-1.9,0.7-2.7c0.5-0.8,1.2-1.6,2-2.2c1.6-1.2,3.7-1.7,5.7-1.5c1,0.1,2,0.4,2.9,0.9
					c0.9,0.5,1.7,1.2,2.2,2c0.6,0.8,0.9,1.8,1.1,2.8c0.1,1,0.1,1.9-0.2,2.8c-0.2-0.9-0.4-1.8-0.7-2.6c-0.3-0.8-0.8-1.5-1.3-2.1
					c-1.1-1.2-2.6-1.8-4.2-2c-1.6-0.2-3.2,0.1-4.7,0.8C329.4,265.6,328.2,266.8,327.4,268.5z"/>
			</g>
			<g>
				<path class="st9" d="M299.2,284.2c0-1,0.4-2.1,1-3c0.6-0.9,1.5-1.6,2.5-2.1c2-0.9,4.5-0.9,6.5,0.1c0.2,0.1,0.5,0.2,0.7,0.4
					c0.2,0.2,0.5,0.3,0.7,0.5l0.3,0.3c0.1,0.1,0.2,0.2,0.3,0.3l0.3,0.3c0.1,0.1,0.2,0.2,0.3,0.3c0.7,0.9,1.2,1.9,1.5,3
					c0.3,1.1,0.4,2.1,0.3,3.2c0,0.3,0,0.5-0.1,0.8c0,0.2-0.1,0.5-0.1,0.8c-0.1,0.5-0.2,1-0.4,1.5c-0.1-1-0.2-2-0.3-3
					c-0.2-1-0.4-1.9-0.8-2.8c-0.7-1.7-1.9-3.1-3.5-3.9c-1.6-0.8-3.5-0.9-5.2-0.5C301.5,281.1,300,282.3,299.2,284.2z"/>
			</g>
		</g>
	</g>
	<g id="ribbon_x5F_top">
		<path id="bg_x5F_yellow_1_" class="st3" d="M255.6,307.8l-0.5,2.4c0,0-5.2,19.4,10.4,40.6c14.2,15.1,35,9.9,35,9.9l-8.5,3.8
			l-9,1.9h-5.2l-8.1-0.9l-8.1-2.8l-6.6-4.7l-4.7-6.6l-2.8-7.1l-1.4-6.1l-0.5-8.1v-9.4l1.4-6.1l1.4-2.8l4.8-3.3L255.6,307.8z"/>
		<path id="bg_x5F_orange_1_" class="st2" d="M256.1,307.8l2.6-3l4.3-2.9l2.1-0.7l0.5,0.9c0,0,0,16.1,7.1,30.7s4.3,13.2,17.9,24.1
			c3.3,1.4,7.6,2.8,10.4,2.8c-0.5,0.9-1.4,1.3-1.4,1.3s-15.4,2.1-24.3-2.9s-17-14.7-19.3-26.9C254.7,325.9,253.2,314.4,256.1,307.8z
			"/>
		<path id="outline_2_" class="st4" d="M265.5,301.2c-0.5,5.2,5.7,57.2,35.9,58.6c-9.9,9-63.8,18.9-54.8-44.9
			c0.5-2.8,8.1-7.6,9.2-7.3C257.2,306.1,261.8,301.2,265.5,301.2z"/>
		<path id="div" class="st4" d="M256.1,307.3c-4.3,7.6-3.3,61.4,44.9,53.4"/>
	</g>
	<g id="ribbon_x5F_bottom">
		<path id="bg_x5F_c" class="st3" d="M304.8,358.4c0.9-0.5,8.1-1.4,16.6,1.9c3.8,1.4,20.3,4.3,27.4-2.8c-0.9,3.3-7.1,18.4-29.8,25.1
			c-9.4,2.4-23.6-17-34-16.6C285.8,365.9,295.8,364.5,304.8,358.4z"/>
		<path id="bg_x5F_t" class="st10" d="M302.4,359.8c0,0,0.9-0.5,2.8-1.4c1.9-0.9,7.1-0.5,9.4,0c2.4,0.5,7.1,2.4,10.9,2.8
			s6.1,0.9,6.1,0.9l7.1-0.5l4.7-0.9l4.8-2.7l-1.2,2.4l-2.8,3.4l-2.8,1.9c0,0-8.1,5.6-26.4-2.2C313.3,362.6,307.1,358.4,302.4,359.8z
			"/>
		<path id="bg_x5F_b" class="st10" d="M286.4,365.8l4.2,1.5l5.2,2.8l9.9,7.1c0,0,8.7,6.5,12.4,5.4c3.7-1.1,18.3-4.4,27.8-19.1
			c-2.8,3.3-6.1,6.4-6.1,6.4l-4.8,2.6l-3.8,1.2c0,0-10,3.5-28-5.8C293.8,364.6,286.4,365.8,286.4,365.8z"/>
		<path id="outline_1_" class="st4" d="M304.8,358.4c0.9-0.5,8.1-1.4,16.6,1.9c3.8,1.4,20.3,4.3,27.4-2.8
			c-0.9,3.3-7.1,18.4-29.8,25.1c-9.4,2.4-23.6-17-34-16.6C285.8,365.9,295.8,364.5,304.8,358.4z"/>
		<path id="div_x5F_t_x5F_c" class="st4" d="M301,360.2c0,0,3.8-1.9,9.4,0.9c0,0,29.4,16.6,37.9-3.2"/>
		<path id="div_x5F_b_x5F_c" class="st11" d="M286.8,366.2c0,0,6.8-2.2,17.7,2.5c10.9,4.7,30.7,12.8,42.6-7.1"/>
	</g>
	<g id="bellyFin">
		<path id="bg_x5F_orange" class="st10" d="M335.4,362.2c9.4-4.2,16.6-31.7,5.3-55.9c-1.7-3.2,2.7-4.5,5-1.3c0.8-3,5.2-3.4,7.4,0.6
			c1.7-3.7,6.7-4.7,8.5,0.2c2.7-1.6,6.7-2.2,7.8,1.8c2.7-4.1,6.5-3.7,6.8,0.7C376.5,312.8,355.8,365.4,335.4,362.2z"/>
		<path id="bg_x5F_yellow" class="st3" d="M361.7,305.6c0,0-0.5,10.7-2.1,17.6c-1.7,7-3.7,17.2-8.9,25.7c-3.4,5.5-7.3,9.4-10.2,11.3
			c-1.6,1.1-3.3,1.5-3.3,1.5l2.1-1.2c0,0,3.2-1.8,5-4.4c1.8-2.6,4.6-8.6,5.2-11.4c0.6-2.8,2.7-10.6,3.1-15.6
			c0.4-5,1.3-15.3,0.7-22.1c-0.2-1.3-0.1-1.8-0.1-1.8l1.7-1.9l1.6-0.8l1.4-0.1l1.4,0.4l1.1,1L361.7,305.6z"/>
		<path id="outline" class="st12" d="M335.4,362.2c9.4-4.2,16.6-31.7,5.3-55.9c-1.7-3.2,2.7-4.5,5-1.3c0.8-3,5.2-3.4,7.4,0.6
			c1.7-3.7,6.7-4.7,8.5,0.2c2.7-1.6,6.7-2.2,7.8,1.8c2.7-4.1,6.5-3.7,6.8,0.7C376.5,312.8,355.8,365.4,335.4,362.2z"/>
		<path id="div_x5F_cen_x5F_left" class="st12" d="M353.1,305.5c0.8,7.2,1.7,51-16.9,56.5"/>
		<path id="dive_x5F_cen_x5F_right" class="st12" d="M361.7,305.8c-0.4,7.3-4.9,51-26.1,56.3"/>
		<path id="div_x5F_left_x5F_orange" class="st12" d="M345.6,304.8c5.4,6.3,6.7,50.6-9.7,57.1"/>
		<path id="div_x5F_right_x5F_orange" class="st12" d="M369.4,307.3c-0.7,3.9-11.1,50.2-33.3,54.7"/>
	</g>
	<g id="headFin">
		<path class="st13" d="M226.3,348.1c0,0,19.1,4,19.9,9.7s1,7.9,0.5,10.2c-0.5,2.3-5.2,6.6-23.2-6"/>
		<path class="st13" d="M225.3,354.6c0,0,1.4,0.2,3,1.1c8.3,4.4,14.4,9.5,18.2,6.9"/>
	</g>
	<g id="eye">
		
			<ellipse id="ball" transform="matrix(0.324 -0.9461 0.9461 0.324 -171.363 431.4135)" class="st14" cx="216.2" cy="335.6" rx="5.5" ry="8.5"/>
		<path id="Pupil" class="st9" d="M215.8,329.9c0,0,4.5,8.3-3.7,9.9c-1.2-0.8-3.5-3.1-3.5-3.1l-0.9-3l0.6-1.9l2.7-1.4l3-0.6
			L215.8,329.9z"/>
	</g>
	<path id="mouth" class="st15" d="M163,345.1c0,0,11,1.4,16.4-0.3c-3.4,1.5-9.9,2.6-15.6,1.9C163.4,345.8,163,345.1,163,345.1z"/>
</g>
<g id="Bhutan_Airlines">
	<path id="SVGID_x5F_1_x5F_" class="st16" d="M414.3,302.7c0,85-68.9,153.9-153.9,153.9s-153.9-68.9-153.9-153.9
		s68.9-153.9,153.9-153.9S414.3,217.7,414.3,302.7z"/>
	<text transform="matrix(1 0 0 1 -130.541 -12.856)" style="fill:#010101; font-family:'ArialMT'; font-size:3.6321px;"> </text>
</g>
</svg>
