<?xml version="1.0" encoding="UTF-8"?>
<svg version="1.1" xmlns="http://www.w3.org/2000/svg" width="512" height="512">
<path d="M0 0 C168.96 0 337.92 0 512 0 C512 168.96 512 337.92 512 512 C343.04 512 174.08 512 0 512 C0 343.04 0 174.08 0 0 Z " fill="#FEFEFE" transform="translate(0,0)"/>
<path d="M0 0 C1.85431641 0.0165564 1.85431641 0.0165564 3.74609375 0.03344727 C5.35677734 0.04782837 5.35677734 0.04782837 7 0.0625 C4.70776258 13.92749358 2.128634 27.7273977 -0.6015625 41.51171875 C-0.76309563 42.32729374 -0.92462875 43.14286873 -1.09105682 43.98315811 C-2.09497645 49.04702835 -3.10259963 54.11015693 -4.11151123 59.17303467 C-5.47172869 65.99934411 -6.82913185 72.82620853 -8.1832695 79.65372658 C-8.65024151 82.00463873 -9.11952487 84.35508072 -9.58901978 86.70549011 C-9.87926723 88.16651526 -10.16942288 89.62755864 -10.45947266 91.08862305 C-10.83442368 92.96979073 -10.83442368 92.96979073 -11.21694946 94.88896179 C-11.85514197 98.19289969 -12.40890752 101.50701639 -12.95211792 104.82783508 C-13.94450158 110.84296691 -15.09940459 116.81576287 -16.30664062 122.79101562 C-16.52805222 123.89515305 -16.74946381 124.99929047 -16.97758484 126.1368866 C-17.4541389 128.51210058 -17.93158072 130.8871366 -18.40983582 133.26200867 C-19.16851297 137.02964871 -19.92471263 140.79777878 -20.68029785 144.56604004 C-22.42067166 153.24322944 -24.16464043 161.91969483 -25.90880585 170.59612274 C-27.63709505 179.1938007 -29.36382241 187.79178817 -31.0879364 196.39030457 C-31.82970091 200.08624849 -32.57379722 203.78171787 -33.31799316 207.47717285 C-33.77656355 209.76275363 -34.23502463 212.04835633 -34.69335938 214.33398438 C-34.89809372 215.34732346 -35.10282806 216.36066254 -35.31376648 217.40470886 C-36.50785756 223.37429369 -37.57764976 229.35319018 -38.54936981 235.36307526 C-39.24554386 239.53338938 -40.0867371 243.6714372 -40.9375 247.8125 C-42.10957826 253.54266039 -43.23039101 259.27895577 -44.29443359 265.03027344 C-46.22892718 275.40386115 -48.31197559 285.74748902 -50.38671875 296.09375 C-50.81175661 298.21706456 -51.23670681 300.34039667 -51.66157532 302.46374512 C-52.77717096 308.03793176 -53.89391599 313.6118875 -55.01092529 319.18579102 C-56.11928212 324.71747645 -57.22659326 330.24937117 -58.33398438 335.78125 C-58.7714079 337.96606551 -59.20883667 340.15087996 -59.64627075 342.33569336 C-60.51219198 346.66069839 -61.37795096 350.98573587 -62.24362183 355.31079102 C-64.08651828 364.51682663 -65.93039881 373.72264995 -67.78392696 382.92655182 C-68.52403687 386.60244231 -69.26274379 390.27861404 -70.00129128 393.95481873 C-70.34038897 395.64064372 -70.68018332 397.32632878 -71.02075768 399.01185608 C-71.48804157 401.32460493 -71.95288084 403.63783355 -72.41723633 405.95117188 C-72.6762825 407.2363269 -72.93532867 408.52148193 -73.20222473 409.84558105 C-74.22190781 415.23547102 -75.09819 420.65163998 -76 426.0625 C-215.92 426.0625 -355.84 426.0625 -500 426.0625 C-496.65279381 423.38473505 -493.36960582 420.8889399 -489.875 418.4375 C-484.77094273 414.74856493 -480.14922687 410.70978806 -475.54296875 406.421875 C-473.44277536 404.47330848 -471.31029212 402.60085538 -469.125 400.75 C-460.47977261 393.22776091 -452.2925012 384.89964503 -445 376.0625 C-444.32831787 375.25353271 -444.32831787 375.25353271 -443.64306641 374.42822266 C-437.00542415 366.41771344 -430.58533935 358.27564893 -424.38012695 349.92602539 C-417.92475907 341.2454755 -411.19425675 332.78795051 -404.41748047 324.35717773 C-399.56361687 318.31635318 -394.8152693 312.2202952 -390.19140625 306 C-382.24082308 295.34253379 -373.99648437 284.90095759 -365.82763672 274.41064453 C-364.01013402 272.07552017 -362.19424212 269.7391529 -360.37890625 267.40234375 C-355.10163181 260.6099762 -349.82023226 253.82129636 -344.5 247.0625 C-336.20845445 236.52795744 -327.97193318 225.94972716 -319.8125 215.3125 C-316.46777813 210.95455619 -313.08989006 206.62535456 -309.6875 202.3125 C-305.64091261 197.18080221 -301.64980374 192.00952102 -297.6875 186.8125 C-291.43744837 178.61569575 -285.11720373 170.47516973 -278.77929688 162.34619141 C-276.98113348 160.03828521 -275.18546443 157.7284607 -273.390625 155.41796875 C-268.10969307 148.62019632 -262.82416955 141.82648371 -257.5 135.0625 C-248.21210917 123.25917449 -239.00204246 111.39732097 -229.89282227 99.45556641 C-224.23673171 92.04802813 -218.50984976 84.69617954 -212.77929688 77.34619141 C-210.98113348 75.03828521 -209.18546443 72.7284607 -207.390625 70.41796875 C-201.58445815 62.94421585 -195.77350308 55.47484032 -189.90600586 48.04907227 C-187.7099075 45.26404426 -185.54008212 42.46398457 -183.4140625 39.625 C-171.47322896 23.70084151 -157.08195813 11.05864568 -137 7.0625 C-133.57245966 6.6678513 -130.14445587 6.48585361 -126.69921875 6.31640625 C-125.69379028 6.26076004 -124.68836182 6.20511383 -123.65246582 6.14778137 C-120.33116923 5.96598704 -117.0093985 5.79541144 -113.6875 5.625 C-111.35128584 5.49946447 -109.01510467 5.37331345 -106.67895508 5.24658203 C-99.11991966 4.83973884 -91.56005673 4.44983653 -84 4.0625 C-82.00160885 3.95976038 -80.00321769 3.85702076 -78.00482655 3.75428104 C-66.90356285 3.18393814 -55.80216405 2.6162969 -44.69995117 2.06469727 C-42.33511848 1.94688213 -39.97029084 1.82896537 -37.60546875 1.7109375 C-36.48601364 1.65515533 -35.36655853 1.59937317 -34.21318054 1.54190063 C-28.09310817 1.23274136 -21.97774158 0.88516002 -15.86328125 0.48046875 C-10.55886854 0.13618605 -5.31496435 -0.04745504 0 0 Z " fill="#103380" transform="translate(503,46.9375)"/>
<path d="M0 0 C0.0960981 0.98310402 0.0960981 0.98310402 0.19413757 1.98606873 C1.0236951 10.4700325 1.85505963 18.95381866 2.6875 27.4375 C2.75492527 28.12478054 2.82235054 28.81206108 2.891819 29.5201683 C4.88285162 49.81131253 6.91625271 70.0975319 9.00302124 90.37908936 C10.22536656 102.2689041 11.41057886 114.15973811 12.5 126.0625 C13.77064731 139.92758689 15.18796255 153.77630915 16.625 167.625 C16.73545654 168.69517365 16.84591309 169.76534729 16.9597168 170.86795044 C17.27572013 173.92521197 17.59442145 176.98217939 17.9140625 180.0390625 C18.0087381 180.95635635 18.1034137 181.87365021 18.20095825 182.81874084 C18.6673155 187.24461803 19.22908577 191.61450433 20 196 C21.19697902 209.30412743 18.18423134 223.28682126 10 234 C9.52175781 234.63164062 9.04351562 235.26328125 8.55078125 235.9140625 C0.63072928 244.97125039 -12.6673996 249.21466678 -24 252 C-24.67740234 252.18191895 -25.35480469 252.36383789 -26.05273438 252.55126953 C-39.54634754 256.07354322 -53.0163646 256.40088783 -66.875 256.4375 C-67.74950806 256.44358276 -68.62401611 256.44966553 -69.52502441 256.45593262 C-84.0470772 256.52194504 -97.70901881 255.21890677 -111.5 250.3125 C-112.14324219 250.08755859 -112.78648437 249.86261719 -113.44921875 249.63085938 C-114.96979218 249.09752392 -116.4855591 248.55050797 -118 248 C-117.42608045 243.46216977 -116.22072505 239.85880484 -114.27734375 235.7265625 C-113.47006836 233.99599609 -113.47006836 233.99599609 -112.64648438 232.23046875 C-112.08251953 231.04066406 -111.51855469 229.85085938 -110.9375 228.625 C-110.36325687 227.40005599 -109.78968251 226.17479823 -109.21679688 224.94921875 C-107.81773993 221.96299637 -106.41196133 218.98013695 -105 216 C-104.41226807 216.15017578 -103.82453613 216.30035156 -103.21899414 216.45507812 C-93.67834269 218.79799088 -83.81803313 220.57732945 -74 221 C-73.25669434 221.03786621 -72.51338867 221.07573242 -71.74755859 221.11474609 C-59.56197769 221.67497552 -50.79544553 221.63877395 -41.0625 213.5625 C-36.88094708 208.36723728 -35.53581857 203.70970763 -35.3125 197.125 C-35.27833984 196.43664062 -35.24417969 195.74828125 -35.20898438 195.0390625 C-35.12735909 193.35991387 -35.0619843 191.67998832 -35 190 C-35.66 190 -36.32 190 -37 190 C-37.26425781 190.59039062 -37.52851563 191.18078125 -37.80078125 191.7890625 C-42.63628587 200.70403193 -52.91229466 204.04996058 -62 207 C-72.27937872 209.3491655 -87.38832485 210.27925569 -96.94140625 205.375 C-111.5045741 195.64779871 -116.72575579 181.69892803 -120.21972656 165.23193359 C-121.80288091 157.06523309 -122.57528616 148.76092992 -123.5 140.5 C-123.92774468 136.76394608 -124.36012649 133.02843511 -124.79296875 129.29296875 C-124.8969548 128.39059982 -125.00094086 127.4882309 -125.108078 126.55851746 C-126.00924305 118.78874749 -127.03067582 111.04094923 -128.1875 103.3046875 C-129.90225457 91.50314133 -129.90225457 91.50314133 -127.09375 86.82421875 C-126.24620501 85.76478751 -125.38061839 84.71960383 -124.5 83.6875 C-124.04077148 83.12119873 -123.58154297 82.55489746 -123.10839844 81.97143555 C-121.75232701 80.30273264 -120.37703355 78.6514049 -119 77 C-117.74633418 75.44043972 -116.49603193 73.87816621 -115.25 72.3125 C-114.610625 71.51714844 -113.97125 70.72179687 -113.3125 69.90234375 C-105.69855032 60.34632245 -98.22209457 50.68427209 -90.9375 40.875 C-86.30240967 34.63731047 -81.48466395 28.57172448 -76.53881836 22.57763672 C-75.78097046 21.65748779 -75.78097046 21.65748779 -75.0078125 20.71875 C-74.51055664 20.11933594 -74.01330078 19.51992187 -73.50097656 18.90234375 C-72.43894285 17.55631794 -71.42953103 16.16799073 -70.45996094 14.75390625 C-69.70247559 13.65369141 -69.70247559 13.65369141 -68.9296875 12.53125 C-68.48608887 11.85642578 -68.04249023 11.18160156 -67.58544922 10.48632812 C-66 9 -66 9 -63.48413086 8.68359375 C-60.14962906 9.1083126 -58.36444907 10.50121136 -55.6875 12.5 C-54.80449219 13.1496875 -53.92148438 13.799375 -53.01171875 14.46875 C-52.34785156 14.9740625 -51.68398437 15.479375 -51 16 C-51.495 10.555 -51.495 10.555 -52 5 C-42.41307922 3.56532297 -32.83045828 2.369224 -23.1875 1.375 C-21.32061523 1.17390625 -21.32061523 1.17390625 -19.41601562 0.96875 C-18.19978516 0.84242188 -16.98355469 0.71609375 -15.73046875 0.5859375 C-14.65176514 0.4729834 -13.57306152 0.3600293 -12.46166992 0.24365234 C-8.2997701 -0.04928623 -4.16992873 -0.04959084 0 0 Z " fill="#FCFDFD" transform="translate(301,191)"/>
<path d="M0 0 C14.82105802 14.41976583 17.20862495 32.18879537 19.46337891 51.64941406 C19.86195039 55.01755285 20.37010339 58.26197466 21.2265625 61.54296875 C24.98416267 77.95871629 21.8273216 93.03630074 18.5390625 109.23046875 C18.04419283 111.74627904 17.55089869 114.26239969 17.05908203 116.77880859 C15.46301049 124.89501843 13.82060975 133.00140947 12.1640625 141.10546875 C12.01857971 141.81743408 11.87309692 142.52939941 11.72320557 143.26293945 C9.0871312 156.15683644 6.44386529 169.04944855 3.74026871 181.92937851 C3.32586877 183.90378956 2.91273875 185.87846701 2.49963379 187.85314941 C1.99538296 190.26105158 1.48849158 192.66840298 0.97839355 195.07507324 C-0.20800328 200.74501811 -1.22645758 206.34382856 -1.8359375 212.10546875 C-21.27297006 221.31002503 -52.197871 223.26765368 -72.91796875 217.52880859 C-83.6433739 213.35555577 -92.43986911 206.00063293 -98.0234375 195.91796875 C-106.22130033 177.12423941 -109.25913468 158.21670015 -111.0234375 137.91796875 C-111.26401874 135.35279151 -111.50712776 132.78785016 -111.75268555 130.22314453 C-112.23531637 125.17018874 -112.70836413 120.11648565 -113.17480469 115.06201172 C-114.10145397 105.15254808 -115.23243348 95.2675795 -116.39511108 85.38345337 C-123.04113943 28.69795178 -123.04113943 28.69795178 -107.1484375 8.41796875 C-100.36676882 1.08269447 -92.27347146 -3.03354655 -82.8359375 -5.89453125 C-81.72992188 -6.24386719 -80.62390625 -6.59320313 -79.484375 -6.953125 C-55.27242592 -14.28113176 -20.90638982 -17.32349263 0 0 Z " fill="#FCFCFD" transform="translate(439.8359375,190.89453125)"/>
<path d="M0 0 C3.76360296 0.08113156 5.89068489 0.23252875 9.3125 1.875 C13.98935542 8.11080723 14.07127344 17.73420596 15.0625 25.25 C15.23394531 26.54373535 15.40539062 27.8374707 15.58203125 29.17041016 C17.6070782 44.80224164 18.98562882 60.49928645 20.41940308 76.19390869 C21.00961891 82.59791946 21.65523428 88.99481152 22.328125 95.390625 C22.51563892 97.18961443 22.7031391 98.9886053 22.890625 100.78759766 C23.15813032 103.35053816 23.42803311 105.9130765 23.70703125 108.47479248 C27.01829264 138.91013417 27.01829264 138.91013417 22.1875 145.375 C18.80978355 148.17367934 15.66970156 149.05357432 11.25 148.8359375 C7.10083017 147.90866091 4.66643473 145.74555158 2.1875 142.375 C-0.15080784 134.76051038 -0.43434728 126.30667434 -1.21643066 118.41622925 C-1.62111798 114.33633976 -2.03996055 110.25792465 -2.4609375 106.1796875 C-2.55793945 105.23973434 -2.65494141 104.29978119 -2.75488281 103.3313446 C-3.64601486 94.79097323 -4.60735102 86.2591169 -5.57790756 77.72749519 C-5.85226448 75.31413755 -6.12564723 72.90067151 -6.39871216 70.48716736 C-6.58269804 68.86148019 -6.76668853 67.23579355 -6.95068359 65.61010742 C-7.04222528 64.80115996 -7.13376698 63.99221251 -7.22808266 63.15875149 C-7.68870978 59.09315002 -8.15218299 55.0279071 -8.62139893 50.96328735 C-9.07122667 47.06638961 -9.51412758 43.16875949 -9.95243454 39.27054977 C-10.11658637 37.82216348 -10.2832612 36.37406038 -10.45274734 34.9262886 C-13.36952238 9.97791502 -13.36952238 9.97791502 -9.9375 4.6875 C-6.38767689 0.8244572 -5.29168447 0.06524888 0 0 Z " fill="#103380" transform="translate(388.8125,220.625)"/>
<path d="M0 0 C4.77831159 4.23221884 5.76929051 10.71579175 6.64453125 16.7890625 C6.82493706 17.98784531 6.82493706 17.98784531 7.00898743 19.21084595 C8.81556652 31.70998179 10.09126258 44.2840383 11.40454102 56.84277344 C11.71623047 59.81984698 12.03538957 62.79596425 12.36157227 65.77148438 C15.46759022 94.13351132 15.46759022 94.13351132 15.64453125 107.2265625 C15.66553391 108.05723236 15.68653656 108.88790222 15.70817566 109.7437439 C15.68577816 113.5226623 15.33640114 115.70424638 13.28393555 118.91943359 C9.43740154 122.62217612 6.03874929 122.26979901 0.88671875 122.22265625 C-2.75816768 121.83759589 -4.39815596 120.65363704 -6.8125 117.9375 C-7.32554687 117.42058594 -7.83859375 116.90367187 -8.3671875 116.37109375 C-10.56016449 112.67859466 -10.60812138 108.97702565 -10.9375 104.75 C-11.01097656 103.95658203 -11.08445313 103.16316406 -11.16015625 102.34570312 C-11.58335942 97.56796209 -11.8778699 92.78922242 -12.13056946 87.99958801 C-12.60217881 79.21467247 -13.43402268 70.51551054 -14.48376465 61.78192139 C-14.75789878 59.4966533 -15.0248763 57.2106419 -15.29003906 54.92431641 C-15.91562346 49.5363561 -16.54676822 44.1490961 -17.19384766 38.76367188 C-18.2001753 30.36905864 -19.00997034 22.02052021 -19.1875 13.5625 C-19.21360352 12.86560059 -19.23970703 12.16870117 -19.26660156 11.45068359 C-19.28319182 6.65965335 -18.15966684 4.31600736 -14.8125 0.9375 C-10.4773397 -2.31387022 -4.82723257 -1.82362119 0 0 Z " fill="#133582" transform="translate(245.8125,236.0625)"/>
<path d="M0 0 C2.4377963 -0.05397335 4.87439685 -0.09365616 7.3125 -0.125 C8.00279297 -0.14175781 8.69308594 -0.15851563 9.40429688 -0.17578125 C13.17135396 -0.21217794 14.78431704 -0.14378864 18 2 C18.29296875 4.75 18.29296875 4.75 18.1875 8 C18.16042969 9.0725 18.13335937 10.145 18.10546875 11.25 C18.07066406 12.1575 18.03585937 13.065 18 14 C18 14.66 18 15.32 18 16 C18.66 16.66 19.32 17.32 20 18 C20.30059943 20.36509361 20.49515012 22.74441881 20.625 25.125 C20.69976562 26.40632813 20.77453125 27.68765625 20.8515625 29.0078125 C20.90054687 29.99523437 20.94953125 30.98265625 21 32 C18.69 32 16.38 32 14 32 C13.67 28.04 13.34 24.08 13 20 C12.34 20.33 11.68 20.66 11 21 C11 24.96 11 28.92 11 33 C8.36 33 5.72 33 3 33 C2.91697632 32.03344482 2.91697632 32.03344482 2.83227539 31.04736328 C2.57639449 28.07318054 2.31945266 25.09909033 2.0625 22.125 C1.93198242 20.60519531 1.93198242 20.60519531 1.79882812 19.0546875 C1.24870345 12.69769126 0.65372378 6.34719156 0 0 Z " fill="#1E3E87" transform="translate(414,370)"/>
<path d="M0 0 C1.23556641 0.01740234 1.23556641 0.01740234 2.49609375 0.03515625 C3.32238281 0.04417969 4.14867187 0.05320312 5 0.0625 C5.63808594 0.07410156 6.27617187 0.08570313 6.93359375 0.09765625 C8.11231632 4.46949886 9.2744321 8.84559025 10.43359375 13.22265625 C10.76746094 14.46015625 11.10132813 15.69765625 11.4453125 16.97265625 C11.76113281 18.17148437 12.07695312 19.3703125 12.40234375 20.60546875 C12.84223633 22.25506592 12.84223633 22.25506592 13.29101562 23.93798828 C13.93074801 27.08366326 14.05164494 29.89762571 13.93359375 33.09765625 C11.62359375 33.09765625 9.31359375 33.09765625 6.93359375 33.09765625 C6.93359375 31.11765625 6.93359375 29.13765625 6.93359375 27.09765625 C5.61359375 27.09765625 4.29359375 27.09765625 2.93359375 27.09765625 C2.93359375 29.40765625 2.93359375 31.71765625 2.93359375 34.09765625 C0.62359375 34.09765625 -1.68640625 34.09765625 -4.06640625 34.09765625 C-3.948447 29.41607724 -3.82422076 24.73472337 -3.6940918 20.0534668 C-3.65068479 18.45976325 -3.60901406 16.86601145 -3.5690918 15.2722168 C-3.51152818 12.98601717 -3.44779476 10.70006176 -3.3828125 8.4140625 C-3.36610001 7.69738907 -3.34938751 6.98071564 -3.33216858 6.24232483 C-3.14819131 0.14878031 -3.14819131 0.14878031 0 0 Z " fill="#214189" transform="translate(385.06640625,372.90234375)"/>
<path d="M0 0 C0.33 0 0.66 0 1 0 C3.0921321 8.36852839 1.61673919 15.78553171 -0.3125 24 C-1.78154245 30.38212402 -3.16428196 36.76137391 -4.34960938 43.203125 C-6.07690106 52.5071714 -7.93151108 61.78452841 -9.79296875 71.0625 C-10.14748994 72.83323495 -10.50192453 74.60398723 -10.85627747 76.37475586 C-11.77765543 80.97787404 -12.70018915 85.58075981 -13.62298584 90.18359375 C-14.5690338 94.90350264 -15.51395806 99.62363647 -16.45898438 104.34375 C-18.30490633 113.5627172 -20.15205259 122.78143861 -22 132 C-22.99 131.34 -23.98 130.68 -25 130 C-24.33552254 121.92475309 -22.67945693 114.08753584 -21.02047729 106.17184448 C-20.48627218 103.62197433 -19.95745709 101.07103535 -19.42993164 98.51977539 C-18.48345975 93.94527907 -17.53311642 89.3715967 -16.58184814 84.7980957 C-14.85898707 76.5128924 -13.14254496 68.22638917 -11.4375 59.9375 C-11.25059601 59.02926483 -11.06369202 58.12102966 -10.87112427 57.18527222 C-6.96771652 38.17450052 -3.42170635 19.10271623 0 0 Z " fill="#365495" transform="translate(463,269)"/>
<path d="M0 0 C1.65 0.33 3.3 0.66 5 1 C4.30261719 1.6703125 3.60523438 2.340625 2.88671875 3.03125 C-0.39390001 6.31532811 -3.28154173 9.88534551 -6.1875 13.5 C-6.75919922 14.20777588 -7.33089844 14.91555176 -7.91992188 15.64477539 C-13.05030928 22.01835025 -18.04868267 28.48642586 -23 35 C-35.89218767 51.92653247 -35.89218767 51.92653247 -41.75390625 59.1875 C-44.99422269 63.24493972 -48.18471759 67.34066281 -51.375 71.4375 C-51.9949585 72.23212646 -52.61491699 73.02675293 -53.25366211 73.84545898 C-54.12970093 74.97189819 -54.12970093 74.97189819 -55.0234375 76.12109375 C-55.54856934 76.7958374 -56.07370117 77.47058105 -56.61474609 78.16577148 C-59.12243928 81.48623304 -60.3373331 83.91355411 -61 88 C-61.33 88 -61.66 88 -62 88 C-62 86.35 -62 84.7 -62 83 C-62.66 82.67 -63.32 82.34 -64 82 C-63.46632812 81.35675781 -62.93265625 80.71351563 -62.3828125 80.05078125 C-57.77123737 74.45785017 -53.26830367 68.80069555 -48.86694336 63.04125977 C-45.84077309 59.08369318 -42.77474184 55.16006157 -39.6875 51.25 C-35.08676759 45.4160984 -30.56516786 39.52469865 -26.06079102 33.61621094 C-20.31781469 26.09028721 -14.50223911 18.62143913 -8.68066406 11.15625 C-5.78400825 7.43991297 -2.89213399 3.71985643 0 0 Z " fill="#27458C" transform="translate(233,198)"/>
<path d="M0 0 C2.64 0 5.28 0 8 0 C8.06058594 1.14597656 8.12117188 2.29195313 8.18359375 3.47265625 C8.26806989 5.00261297 8.35271427 6.53256041 8.4375 8.0625 C8.47681641 8.81466797 8.51613281 9.56683594 8.55664062 10.34179688 C8.81570832 14.94523051 9.34135502 19.43339479 10 24 C10.06056151 25.64485066 10.08781955 27.29172957 10.0625 28.9375 C10.05347656 29.70964844 10.04445313 30.48179687 10.03515625 31.27734375 C10.02355469 31.84582031 10.01195312 32.41429687 10 33 C7.36 33 4.72 33 2 33 C1.34 22.11 0.68 11.22 0 0 Z " fill="#1D3D87" transform="translate(401,372)"/>
<path d="M0 0 C0.33 0 0.66 0 1 0 C3.11851799 8.47407196 1.57230334 15.99270118 -0.375 24.3125 C-2.10010099 31.84978717 -3.68165787 39.37990792 -5 47 C-5.33 47 -5.66 47 -6 47 C-7.39523963 31.05809533 -3.2923329 15.49264453 0 0 Z " fill="#395595" transform="translate(463,269)"/>
<path d="M0 0 C0.33 0 0.66 0 1 0 C0.77033264 14.00970866 -2.03562254 27.34589778 -5 41 C-5.66 41 -6.32 41 -7 41 C-7 42.32 -7 43.64 -7 45 C-7.66 45 -8.32 45 -9 45 C-7.71193755 36.048395 -6.13035402 27.17537726 -4.34057617 18.31176758 C-3.93035392 16.27705525 -3.52647624 14.24114705 -3.12304688 12.20507812 C-2.86458984 10.91666016 -2.60613281 9.62824219 -2.33984375 8.30078125 C-2.10644287 7.13716064 -1.87304199 5.97354004 -1.63256836 4.7746582 C-1 2 -1 2 0 0 Z " fill="#22428A" transform="translate(457,305)"/>
<path d="M0 0 C1.58203125 1.453125 1.58203125 1.453125 3 4 C2.94759077 6.99264313 2.31909332 9.83160327 1.6875 12.75 C1.53087891 13.54277344 1.37425781 14.33554687 1.21289062 15.15234375 C0.82474328 17.10484249 0.41449744 19.05292487 0 21 C-0.99 20.34 -1.98 19.68 -3 19 C-2.37679879 12.56025419 -1.35991738 6.32427599 0 0 Z " fill="#3D5998" transform="translate(441,380)"/>
<path d="M0 0 C0.33 0 0.66 0 1 0 C2.8613156 7.44526242 2.06663468 13.76677863 0 21 C-0.99 20.34 -1.98 19.68 -3 19 C-2.37679879 12.56025419 -1.35991738 6.32427599 0 0 Z " fill="#445F9C" transform="translate(463,269)"/>
<path d="M0 0 C0.33 0 0.66 0 1 0 C0.40546697 16.8929385 0.40546697 16.8929385 -3 24 C-3.33 24 -3.66 24 -4 24 C-4.15265182 18.88284537 -3.62944468 14.17484605 -2.5625 9.1875 C-2.42779297 8.52041016 -2.29308594 7.85332031 -2.15429688 7.16601562 C-1.14608434 2.29216867 -1.14608434 2.29216867 0 0 Z " fill="#1B3A85" transform="translate(457,305)"/>
<path d="M0 0 C-1.44950405 4.35647645 -3.67747112 7.31757289 -6.625 10.8125 C-7.85089844 12.27623047 -7.85089844 12.27623047 -9.1015625 13.76953125 C-10.04128906 14.87361328 -10.04128906 14.87361328 -11 16 C-11.33 15.34 -11.66 14.68 -12 14 C-5.1372549 0 -5.1372549 0 0 0 Z " fill="#1D3E87" transform="translate(203,240)"/>
<path d="M0 0 C1 2 1 2 0.25 4.375 C-1 7 -1 7 -2.5625 9 C-4.23332631 11.32462791 -4.60987369 13.19109059 -5 16 C-5.33 16 -5.66 16 -6 16 C-6 14.35 -6 12.7 -6 11 C-6.66 10.67 -7.32 10.34 -8 10 C-5.36 6.7 -2.72 3.4 0 0 Z " fill="#2F4D90" transform="translate(177,270)"/>
<path d="M0 0 C3.03703704 4.55555556 3.03703704 4.55555556 4 7 C3.67 8.32 3.34 9.64 3 11 C0.03 10.67 -2.94 10.34 -6 10 C-6 9.67 -6 9.34 -6 9 C-3.69 9 -1.38 9 1 9 C0.67 8.34 0.34 7.68 0 7 C-0.04022391 4.6670134 -0.04320247 2.33293334 0 0 Z " fill="#A7B4D0" transform="translate(434,393)"/>
<path d="M0 0 C0.66 0.33 1.32 0.66 2 1 C2 3.31 2 5.62 2 8 C-0.88437779 6.70700306 -2.87219421 5.34058637 -5 3 C-3.68 3 -2.36 3 -1 3 C-0.67 2.01 -0.34 1.02 0 0 Z " fill="#3B5595" transform="translate(248,199)"/>
<path d="M0 0 C0.66 0.33 1.32 0.66 2 1 C-0.31 3.97 -2.62 6.94 -5 10 C-5.33 9.34 -5.66 8.68 -6 8 C-5.06553465 5.96855359 -4.06775224 3.96466413 -3 2 C-2.01 2 -1.02 2 0 2 C0 1.34 0 0.68 0 0 Z " fill="#1C3B86" transform="translate(183,264)"/>
<path d="M0 0 C-0.33 3.3 -0.66 6.6 -1 10 C-3 8 -3 8 -3.125 4.375 C-3.08375 3.26125 -3.0425 2.1475 -3 1 C-1 0 -1 0 0 0 Z " fill="#324F92" transform="translate(455,326)"/>
<path d="M0 0 C0.99 0.33 1.98 0.66 3 1 C2.67 3.97 2.34 6.94 2 10 C1.67 10 1.34 10 1 10 C0.67 6.7 0.34 3.4 0 0 Z " fill="#385495" transform="translate(458,295)"/>
<path d="M0 0 C0.33 0 0.66 0 1 0 C0.67 2.97 0.34 5.94 0 9 C-0.66 8.67 -1.32 8.34 -2 8 C-1.125 1.125 -1.125 1.125 0 0 Z " fill="#183A85" transform="translate(444,375)"/>
</svg>
