<?xml version="1.0" encoding="UTF-8"?>
<svg version="1.1" xmlns="http://www.w3.org/2000/svg" width="512" height="512">
<path d="M0 0 C168.96 0 337.92 0 512 0 C512 168.96 512 337.92 512 512 C343.04 512 174.08 512 0 512 C0 343.04 0 174.08 0 0 Z " fill="#FFFEFE" transform="translate(0,0)"/>
<path d="M0 0 C3.7031524 0.03723757 7.4053198 0.04101306 11.10864258 0.04052734 C13.46737526 0.05033521 15.82610118 0.06198189 18.18481445 0.07568359 C19.28979782 0.07790924 20.39478119 0.08013489 21.5332489 0.08242798 C23.05303093 0.10156754 23.05303093 0.10156754 24.60351562 0.12109375 C25.4950383 0.12871735 26.38656097 0.13634094 27.30509949 0.14419556 C29.4543457 0.41162109 29.4543457 0.41162109 31.4543457 2.41162109 C31.4543457 6.5337053 30.27095572 8.86534409 27.7668457 11.97412109 C11.39562722 32.74240545 11.60879391 62.95770294 14.3918457 87.91162109 C16.60096546 105.50319835 21.71350769 123.83038497 28.53662109 140.17675781 C30.28218505 144.4275938 31.70297328 148.79901749 33.1652832 153.15380859 C34.6346428 157.41969129 36.36750534 161.38949238 38.43676758 165.39746094 C40.17388546 168.83585406 41.66897223 172.37979401 43.2043457 175.91162109 C46.71112022 183.8859077 50.4983787 191.68011746 54.4543457 199.43945312 C55.46562422 201.43386422 56.46226451 203.43494146 57.4543457 205.43896484 C61.28683321 213.1769218 65.2551855 220.82202949 69.34472656 228.42700195 C71.36425805 232.21597854 73.29829126 236.043055 75.20825195 239.88818359 C75.91281561 241.30193363 76.61740618 242.71567024 77.32202148 244.12939453 C77.67693665 244.84236694 78.03185181 245.55533936 78.39752197 246.28991699 C80.04662376 249.60069242 81.70180788 252.90841952 83.35668945 256.21630859 C84.01761092 257.53806954 84.67849911 258.85984712 85.33935547 260.18164062 C85.67363556 260.85020081 86.00791565 261.51876099 86.35232544 262.20758057 C107.42466227 304.35225423 128.4969991 346.4969279 149.56933594 388.64160156 C149.89884499 389.30061777 150.22835403 389.95963398 150.56784821 390.63862038 C151.21921642 391.9413606 151.87057861 393.24410383 152.52193451 394.5468502 C154.21113359 397.92531829 155.90045879 401.30372325 157.58996582 404.68203735 C157.94411057 405.3902211 158.29825531 406.09840485 158.66313171 406.82804871 C159.3322508 408.16608133 160.00140647 409.50409566 160.67060852 410.84208679 C162.61602194 414.73243553 164.55805109 418.62445797 166.49825287 422.51740837 C169.29156009 428.12172363 172.11212192 433.71092201 174.96777344 439.28375244 C176.56779418 442.40917274 178.15854914 445.53926311 179.74829102 448.66992188 C180.56252562 450.26773367 181.38099233 451.86339487 182.20336914 453.45703125 C183.41294518 455.80349475 184.60689246 458.15735127 185.7980957 460.51318359 C186.16672729 461.21947906 186.53535889 461.92577454 186.91516113 462.6534729 C188.92633222 466.67309072 190.25136039 469.82065387 189.4543457 474.41162109 C187.83618164 476.75561523 187.83618164 476.75561523 185.4543457 478.41162109 C182.62719727 478.91333008 182.62719727 478.91333008 179.3449707 478.90771484 C178.12745117 478.9106958 176.90993164 478.91367676 175.65551758 478.91674805 C174.35163086 478.89443115 173.04774414 478.87211426 171.7043457 478.84912109 C170.7009314 478.8388942 170.7009314 478.8388942 169.67724609 478.82846069 C118.32243984 478.28771471 72.72950111 461.56817735 36.1965332 425.16162109 C26.03880916 414.36669665 17.52162439 401.8120598 9.4543457 389.41162109 C9.03427246 388.76700928 8.61419922 388.12239746 8.18139648 387.45825195 C0.85317215 375.98183856 -4.97366526 363.64885479 -11.00854492 351.46533203 C-15.1949295 343.02090403 -19.43450383 334.61887836 -23.92025757 326.32867432 C-30.5456543 314.06624872 -30.5456543 314.06624872 -30.5456543 309.41162109 C-31.2056543 309.41162109 -31.8656543 309.41162109 -32.5456543 309.41162109 C-33.21919929 307.97733108 -33.8842513 306.53905053 -34.5456543 305.09912109 C-34.9169043 304.29861328 -35.2881543 303.49810547 -35.6706543 302.67333984 C-36.5456543 300.41162109 -36.5456543 300.41162109 -36.5456543 297.41162109 C-37.2056543 297.41162109 -37.8656543 297.41162109 -38.5456543 297.41162109 C-38.83698242 296.79867188 -39.12831055 296.18572266 -39.4284668 295.55419922 C-40.79923735 292.67256364 -42.17244672 289.79209609 -43.5456543 286.91162109 C-44.00327148 285.94869141 -44.46088867 284.98576172 -44.93237305 283.99365234 C-48.61438801 276.27655248 -52.41929727 268.6246605 -56.25561523 260.98364258 C-58.89949058 255.7124036 -61.5340338 250.43649142 -64.1706543 245.16162109 C-65.38412182 242.73450069 -66.59770145 240.30743634 -67.8112793 237.88037109 C-68.43172404 236.6394867 -69.05216674 235.39860128 -69.67260742 234.15771484 C-69.98141846 233.54009277 -70.29022949 232.9224707 -70.60839844 232.28613281 C-71.54516602 230.41259766 -72.48193359 228.5390625 -73.41870117 226.66552734 C-73.88053031 225.74187331 -73.88053031 225.74187331 -74.35168934 224.79955959 C-74.96830045 223.56633168 -75.58490246 222.33309921 -76.20149517 221.0998621 C-77.69904186 218.10467032 -79.19677496 215.10957213 -80.69477844 212.11460876 C-83.14997517 207.20559434 -85.60447688 202.29626436 -88.05029297 197.38256836 C-91.23370612 190.98981147 -94.44588172 184.62360516 -97.8581543 178.34912109 C-103.00123653 168.76709633 -107.60741142 158.93352654 -112.25195312 149.10327148 C-113.94757499 145.57539243 -115.71919441 142.08820499 -117.50830078 138.60693359 C-123.45087344 126.03088903 -121.4985537 110.34286527 -117.1550293 97.59521484 C-114.55370674 90.56545031 -111.09802797 83.99712665 -107.5456543 77.41162109 C-106.79959627 76.00604253 -106.05482145 74.59978216 -105.3112793 73.19287109 C-104.18015422 71.05326128 -103.0473164 68.91473087 -101.90649414 66.78027344 C-99.66834867 62.58435285 -97.51477729 58.35773522 -95.42480469 54.08618164 C-85.29848164 33.41745273 -72.27852982 15.74824106 -50.5456543 6.41162109 C-49.85181641 6.10111816 -49.15797852 5.79061523 -48.44311523 5.47070312 C-32.94680021 -0.19352122 -16.27045948 -0.16981706 0 0 Z " fill="#FF6300" transform="translate(318.545654296875,18.58837890625)"/>
<path d="M0 0 C6.8971922 2.62093304 9.60558671 12.04488315 12.4765625 18.3737793 C12.97929687 19.50855713 13.48203125 20.64333496 14 21.8125 C14.78890625 23.59297729 14.78890625 23.59297729 15.59375 25.40942383 C20.24771227 36.11797895 23.99643498 46.94564466 27.125 58.1875 C27.33060547 58.92000977 27.53621094 59.65251953 27.74804688 60.40722656 C30.54652385 70.54110529 32.55784312 80.7994887 34.125 91.1875 C34.28379639 92.18716797 34.28379639 92.18716797 34.44580078 93.20703125 C36.27301539 105.13749745 36.3084945 117.08401119 36.3125 129.125 C36.31399551 130.3427562 36.31399551 130.3427562 36.31552124 131.58511353 C36.31519655 133.9201162 36.30614685 136.25488124 36.29296875 138.58984375 C36.29176025 139.29638092 36.29055176 140.00291809 36.28930664 140.73086548 C36.25778128 144.0407753 36.0668516 147.01139262 35.125 150.1875 C34.9984041 152.06111927 34.89733088 153.93652574 34.8125 155.8125 C32.45599103 188.18730784 17.91797249 221.81355822 -1.875 247.1875 C-2.57882813 248.11304688 -3.28265625 249.03859375 -4.0078125 249.9921875 C-34.66028604 289.01470916 -81.05519087 310.4777654 -129.63354492 316.53125 C-136.68677314 317.24492021 -143.72699969 317.40373943 -150.8125 317.4375 C-152.47635742 317.4684375 -152.47635742 317.4684375 -154.17382812 317.5 C-155.23923828 317.50515625 -156.30464844 317.5103125 -157.40234375 317.515625 C-158.35874756 317.5249707 -159.31515137 317.53431641 -160.30053711 317.54394531 C-163.4237975 317.11151666 -164.7678249 316.54445804 -166.875 314.1875 C-167.58328264 309.45180823 -166.34250844 306.44014521 -164.12890625 302.29296875 C-163.54302734 301.18058838 -162.95714844 300.06820801 -162.35351562 298.92211914 C-161.71506915 297.73962437 -161.07639275 296.55725371 -160.4375 295.375 C-159.79117452 294.15742581 -159.14599857 292.93924075 -158.50195312 291.72045898 C-157.22442046 289.30765692 -155.9402833 286.89859526 -154.64892578 284.49316406 C-152.74458661 280.94447807 -150.85714164 277.38717319 -148.97412109 273.82714844 C-148.25334089 272.46499873 -147.53106153 271.103641 -146.80712891 269.74316406 C-143.72437785 263.94293775 -140.77167501 258.0830856 -137.875 252.1875 C-137.215 252.1875 -136.555 252.1875 -135.875 252.1875 C-135.71221558 251.12390259 -135.71221558 251.12390259 -135.54614258 250.03881836 C-134.80347486 246.88362874 -133.63897402 244.43739897 -132.13671875 241.56640625 C-131.57009521 240.47763184 -131.00347168 239.38885742 -130.41967773 238.26708984 C-129.50037476 236.52613037 -129.50037476 236.52613037 -128.5625 234.75 C-127.92422357 233.53093809 -127.28628829 232.31169751 -126.64868164 231.09228516 C-122.31174825 222.81917894 -117.86659568 214.60667672 -113.35961914 206.42504883 C-108.89857803 198.30359005 -104.63222298 190.08526438 -100.41381836 181.83544922 C-97.54011756 176.24935246 -94.50372753 170.83246913 -91.23242188 165.47021484 C-89.32955686 162.27025299 -87.68104497 158.97530879 -86.0625 155.625 C-82.79220989 148.96111904 -79.37022856 142.39140803 -75.84448242 135.85913086 C-73.96991594 132.36227049 -72.25177538 128.9192859 -70.875 125.1875 C-70.215 125.1875 -69.555 125.1875 -68.875 125.1875 C-68.76486572 124.4752124 -68.65473145 123.7629248 -68.54125977 123.02905273 C-67.8148789 119.93108757 -66.69086781 117.53910395 -65.21484375 114.72265625 C-64.67239014 113.68230225 -64.12993652 112.64194824 -63.57104492 111.57006836 C-62.70056519 109.92663452 -62.70056519 109.92663452 -61.8125 108.25 C-61.22122314 107.12279541 -60.62994629 105.99559082 -60.02075195 104.83422852 C-56.38455182 97.93603335 -52.61584863 91.14563733 -48.6875 84.41015625 C-46.32610556 80.21155623 -44.21311807 75.90983043 -42.09350586 71.58569336 C-38.84271124 65.00740086 -35.3054035 58.59610911 -31.73120117 52.18896484 C-29.34319503 47.9000345 -27.04568667 43.59101863 -24.87548828 39.18798828 C-22.66937033 34.77682906 -20.30135735 30.44766575 -17.96679688 26.10351562 C-17.58201172 25.38228516 -17.19722656 24.66105469 -16.80078125 23.91796875 C-16.45442627 23.27239014 -16.10807129 22.62681152 -15.7512207 21.96166992 C-14.74590472 20.02781112 -14.74590472 20.02781112 -13.875 17.1875 C-13.215 17.1875 -12.555 17.1875 -11.875 17.1875 C-11.75898438 16.45789063 -11.64296875 15.72828125 -11.5234375 14.9765625 C-10.86396699 12.14004478 -9.93124382 10.08669365 -8.5 7.5625 C-7.86964844 6.42941406 -7.86964844 6.42941406 -7.2265625 5.2734375 C-3.9777799 0.25942043 -3.9777799 0.25942043 0 0 Z " fill="#FF6301" transform="translate(171.875,179.8125)"/>
</svg>
