<?xml version="1.0" encoding="UTF-8"?>
<svg version="1.1" xmlns="http://www.w3.org/2000/svg" width="512" height="512">
<path d="M0 0 C168.96 0 337.92 0 512 0 C512 168.96 512 337.92 512 512 C343.04 512 174.08 512 0 512 C0 343.04 0 174.08 0 0 Z " fill="#FEFEFE" transform="translate(0,0)"/>
<path d="M0 0 C0.33 0 0.66 0 1 0 C1.17835515 4.54805635 0.99785435 7.8794254 -1 12 C0.07701172 12.37318359 0.07701172 12.37318359 1.17578125 12.75390625 C18.33000213 20.32264271 30.12664453 39.51595179 37.25 56.125 C40.78635835 65.42028829 45 76.98242438 45 87 C45.9472998 86.68248779 46.89459961 86.36497559 47.87060547 86.0378418 C51.42981162 84.84534603 54.98970902 83.6549252 58.54980469 82.46508789 C60.0822167 81.95262125 61.6144478 81.43961332 63.14648438 80.92602539 C78.65110247 75.72914459 78.65110247 75.72914459 86.12768555 73.57226562 C88.20249353 72.96793977 88.20249353 72.96793977 90.9375 71.8125 C93 71 93 71 96 71 C92.34289391 57.21367243 85.38408863 47.11969984 73.02685547 39.8371582 C67.8157207 36.87528358 62.5176316 34.27566698 57 31.9375 C56.19199951 31.59460938 55.38399902 31.25171875 54.55151367 30.8984375 C46.56846221 27.62907686 38.44888469 25.64434119 30 24 C30 23.67 30 23.34 30 23 C55.94732003 22.37642009 55.94732003 22.37642009 68 26 C69.54494141 26.43505859 69.54494141 26.43505859 71.12109375 26.87890625 C86.01315992 31.41292385 97.16033358 38.95467588 104.84765625 52.7109375 C107.1643342 57.31288082 108.08558523 60.89056188 108 66 C108.91523438 65.71125 109.83046875 65.4225 110.7734375 65.125 C111.96195312 64.75375 113.15046875 64.3825 114.375 64 C115.55835938 63.62875 116.74171875 63.2575 117.9609375 62.875 C121 62 121 62 123 62 C121.02 59.03 119.04 56.06 117 53 C120.45959095 51.84680302 122.04879257 52.50743689 125.4609375 53.453125 C130.56010228 54.55140664 135.80274488 54.69893949 141 55 C139.88559348 58.34321955 139.02527657 59.06019619 136.375 61.25 C132.36904549 64.64463291 128.66850322 68.24791063 125 72 C124.00114876 73.00114745 123.00150263 74.00150489 122 75 C121.92557943 71.13013042 121.95297814 67.7264085 123 64 C122.40832031 64.27714844 121.81664062 64.55429688 121.20703125 64.83984375 C120.41683594 65.20207031 119.62664062 65.56429687 118.8125 65.9375 C118.03519531 66.29714844 117.25789063 66.65679687 116.45703125 67.02734375 C113.97561196 68.00965441 111.62645164 68.55681544 109 69 C109.03480469 69.77601562 109.06960938 70.55203125 109.10546875 71.3515625 C109.86203992 101.54235507 93.8059655 126.93839861 73.828125 148.12109375 C69.44446394 152.65735061 64.74720015 156.84964319 60 161 C60 156.92735965 62.08025775 154.86864095 64.4375 151.75 C76.06656621 135.88690969 85.4711218 118.57440541 92 100 C92.3403125 99.0925 92.680625 98.185 93.03125 97.25 C94.32026046 92.9255778 94.96704975 88.58294864 95.625 84.125 C95.7590625 83.24585938 95.893125 82.36671875 96.03125 81.4609375 C96.35887059 79.30800222 96.68008508 77.15409378 97 75 C95.98421875 75.44730469 94.9684375 75.89460938 93.921875 76.35546875 C87.53116678 79.16373165 81.14118975 81.96359698 74.6875 84.625 C67.51833512 87.59188641 60.4341828 90.70518408 53.5625 94.3125 C50 96 50 96 46 96 C46.24169922 97.47533203 46.24169922 97.47533203 46.48828125 98.98046875 C49.52066196 120.42181555 46.14416461 143.54255446 42.0625 164.625 C41.8717691 165.61941101 41.8717691 165.61941101 41.67718506 166.63391113 C40.30824539 173.68288628 38.7951012 180.37519298 36 187 C36.61101562 186.97679687 37.22203125 186.95359375 37.8515625 186.9296875 C48.62943729 186.71716603 59.2991252 187.81307776 70 189 C70.8780127 189.09651855 71.75602539 189.19303711 72.66064453 189.29248047 C83.42766392 190.54216882 94.94075534 191.94075534 103 200 C102.68965557 208.06895511 98.68571618 212.68509139 93 218 C92.40445312 218.60070312 91.80890625 219.20140625 91.1953125 219.8203125 C77.89846859 232.64395911 60.99800608 241.95171174 45 251 C44.19240234 251.45987305 43.38480469 251.91974609 42.55273438 252.39355469 C40.05976143 253.81084531 37.56234961 255.21987859 35.0625 256.625 C33.89811401 257.28290527 33.89811401 257.28290527 32.71020508 257.95410156 C27.23484003 261 27.23484003 261 25 261 C23.65041677 257.61870723 22.91250983 254.65514484 23 251 C25.12708908 246.85603372 27.95468201 243.50265373 31 240 C31.98419922 238.61361328 31.98419922 238.61361328 32.98828125 237.19921875 C35 235 35 235 37.25390625 234.4765625 C38.39666016 234.55003906 38.39666016 234.55003906 39.5625 234.625 C40.70912109 234.67527344 40.70912109 234.67527344 41.87890625 234.7265625 C44 235 44 235 47 236 C49.7039577 228.74847707 50.99322726 221.66331719 52 214 C49.16580388 214.28463081 46.33285146 214.57750619 43.5 214.875 C42.70851563 214.95363281 41.91703125 215.03226563 41.1015625 215.11328125 C38.72705553 215.36630248 36.36594073 215.67730412 34 216 C33.26571777 216.06751465 32.53143555 216.1350293 31.77490234 216.20458984 C28.78417679 216.64856378 26.56725425 217.25561138 24.69433594 219.71337891 C23.50504933 222.05741073 22.55133936 224.41521059 21.625 226.875 C20.86700557 228.70727432 20.10517331 230.53796488 19.33984375 232.3671875 C18.95554199 233.30530273 18.57124023 234.24341797 18.17529297 235.20996094 C5.63750892 264.97352474 -13.1150546 293.04320746 -34.96484375 316.78125 C-36.7954442 318.77699099 -38.55836483 320.81230611 -40.3125 322.875 C-48.44029962 332.16659541 -57.3028891 340.37615503 -67 348 C-68.05751982 348.86923538 -69.11344818 349.74040973 -70.16796875 350.61328125 C-87.56377032 364.86422266 -107.54972707 376.17491316 -129 383 C-130.175625 383.3815625 -131.35125 383.763125 -132.5625 384.15625 C-140.08527209 386.46587301 -147.13934202 387.76850815 -155 388 C-156.09957031 388.03996094 -157.19914063 388.07992188 -158.33203125 388.12109375 C-180.61664212 388.54627712 -200.17035594 382.80669115 -216.68920898 367.41308594 C-222.94020602 361.32497795 -229.07039355 354.3055853 -232 346 C-232.79265259 346.2945105 -232.79265259 346.2945105 -233.60131836 346.5949707 C-236.0461457 347.50234855 -238.49181625 348.40743312 -240.9375 349.3125 C-242.18370117 349.7755957 -242.18370117 349.7755957 -243.45507812 350.24804688 C-249.90523255 352.6323452 -256.40278749 354.82959221 -262.94140625 356.95703125 C-265.97005316 357.9455166 -268.98507321 358.9704271 -272 360 C-273.22976563 360.40863281 -274.45953125 360.81726563 -275.7265625 361.23828125 C-292.7606947 367.09768268 -306.92871301 376.94859666 -321 388 C-321.88945312 388.68707031 -322.77890625 389.37414062 -323.6953125 390.08203125 C-327.49665876 393.06163434 -331.18150343 396.14635119 -334.80078125 399.34375 C-335.47294678 399.93551025 -336.1451123 400.52727051 -336.83764648 401.13696289 C-338.17266637 402.31680371 -339.50185722 403.50328084 -340.82446289 404.69702148 C-341.43668701 405.23915283 -342.04891113 405.78128418 -342.6796875 406.33984375 C-343.22351074 406.82831787 -343.76733398 407.31679199 -344.32763672 407.82006836 C-346.99952156 409.70520988 -349.14680091 410.12289457 -352.359375 409.66015625 C-353.14828125 409.46292969 -353.9371875 409.26570313 -354.75 409.0625 C-355.94882812 408.77052734 -355.94882812 408.77052734 -357.171875 408.47265625 C-357.77515625 408.31667969 -358.3784375 408.16070312 -359 408 C-359 403.76842865 -356.6141226 401.83318196 -353.9375 398.8125 C-353.40165283 398.19955078 -352.86580566 397.58660156 -352.3137207 396.95507812 C-327.52745823 368.80646205 -297.95917221 339.14017602 -261 328 C-257.5703125 327.84765625 -257.5703125 327.84765625 -255 328 C-254.61908203 326.92492187 -254.61908203 326.92492187 -254.23046875 325.828125 C-252.91042618 322.79412239 -251.24436781 320.43031964 -249.3125 317.75 C-246.31919514 313.12680036 -245.34401699 310.51710347 -246.46484375 305.1484375 C-246.72974609 304.08496094 -246.72974609 304.08496094 -247 303 C-248.3898682 294.38624893 -248.08984686 285.69517992 -248 277 C-248.60585937 277.19335938 -249.21171875 277.38671875 -249.8359375 277.5859375 C-255.83842217 279.45132504 -261.8158897 280.88159707 -268 282 C-267.43848214 277.97688965 -266.75913736 273.99046546 -266 270 C-265.82984375 268.90365234 -265.82984375 268.90365234 -265.65625 267.78515625 C-265.1875 266 -265.1875 266 -263 263 C-258.33409673 260.97528809 -253.14451058 259 -248 259 C-247.97421875 258.34 -247.9484375 257.68 -247.921875 257 C-246.96696247 240.33243581 -245.56712138 218.13424275 -238 203 C-238.74765625 203.144375 -239.4953125 203.28875 -240.265625 203.4375 C-241.25046875 203.623125 -242.2353125 203.80875 -243.25 204 C-244.22453125 204.185625 -245.1990625 204.37125 -246.203125 204.5625 C-249 205 -249 205 -253 205 C-254.17171756 201.71010914 -255.33651088 198.41780898 -256.5 195.125 C-256.83386719 194.18785156 -257.16773438 193.25070313 -257.51171875 192.28515625 C-257.82753906 191.38925781 -258.14335937 190.49335938 -258.46875 189.5703125 C-258.76201172 188.74289551 -259.05527344 187.91547852 -259.35742188 187.06298828 C-260 185 -260 185 -260 183 C-249.39701014 180.22235505 -238.79582332 177.89501154 -228 176 C-227.87794189 175.28191162 -227.75588379 174.56382324 -227.63012695 173.82397461 C-222.40070407 150.38781248 -206.42367204 126.64746601 -193 107 C-192.59072266 106.39784668 -192.18144531 105.79569336 -191.75976562 105.17529297 C-181.99246231 90.89788622 -171.00071414 77.45576768 -159 65 C-158.33838867 64.31115723 -157.67677734 63.62231445 -156.99511719 62.91259766 C-147.54629506 53.12887524 -137.9771992 44.04285094 -127 36 C-126.25492188 35.41089844 -125.50984375 34.82179687 -124.7421875 34.21484375 C-123 33 -123 33 -121 33 C-121 33.66 -121 34.32 -121 35 C-121.66 35 -122.32 35 -123 35 C-123.24878906 35.58007812 -123.49757812 36.16015625 -123.75390625 36.7578125 C-125.17917068 39.32239488 -126.78973824 40.87870788 -128.9375 42.875 C-134.94818989 48.76066754 -139.93382797 55.30819525 -145 62 C-145.66902344 62.86987549 -145.66902344 62.86987549 -146.3515625 63.75732422 C-170.30407775 94.93236325 -188.18134806 130.94326323 -201 168 C-192.82678154 165.55742897 -185.03016135 162.7739731 -177.375 159 C-176.71306641 158.6803125 -176.05113281 158.360625 -175.36914062 158.03125 C-158.22056594 149.32532058 -149.39693525 125.97389246 -140.70703125 109.93359375 C-140.17819336 108.95817627 -139.64935547 107.98275879 -139.10449219 106.9777832 C-138.10926942 105.13655806 -137.11868736 103.29281338 -136.13378906 101.44604492 C-134.78727558 98.94479846 -133.4051639 96.46871905 -132 94 C-131.29665527 92.72866211 -131.29665527 92.72866211 -130.57910156 91.43164062 C-128.15009806 87.36334296 -126.94908618 85.3597843 -122.4140625 83.640625 C-121.16367188 83.51171875 -119.91328125 83.3828125 -118.625 83.25 C-106.70675065 81.54925395 -101.66239635 75.98185464 -94 67 C-93.34 66.34 -92.68 65.68 -92 65 C-89.63848823 72.0845353 -90.25413158 78.10740858 -93.55957031 84.72729492 C-95.01136039 87.48350043 -96.48155082 90.229645 -97.95263672 92.97558594 C-103.67836793 104.04266361 -106.89397608 116.00195185 -110 128 C-102.13053403 118.93742144 -94.28671052 109.85390333 -86.48388672 100.73388672 C-83.49074584 97.23647202 -80.4937777 93.74233609 -77.49755859 90.24755859 C-75.00885709 87.34447817 -72.52102448 84.4406633 -70.03515625 81.53515625 C-64.33272169 74.87231166 -58.60614311 68.23128295 -52.85791016 61.60791016 C-47.20992892 55.09645732 -41.60318688 48.54999602 -36 42 C-34.51715104 40.26658383 -33.03413743 38.53331026 -31.55053711 36.80053711 C-30.56388533 35.64812135 -29.57771446 34.49529367 -28.59204102 33.34204102 C-25.88986124 30.18542996 -23.16897858 27.04684165 -20.42578125 23.92578125 C-19.83337646 23.2495874 -19.24097168 22.57339355 -18.63061523 21.87670898 C-17.48656766 20.57229429 -16.33910336 19.27086591 -15.18774414 17.97290039 C-14.66946045 17.38114014 -14.15117676 16.78937988 -13.6171875 16.1796875 C-12.93052002 15.40214111 -12.93052002 15.40214111 -12.22998047 14.60888672 C-10.91410922 12.99709276 -10.91410922 12.99709276 -9.98486328 10.92236328 C-8.58694854 8.19376124 -6.39538432 6.88208768 -4 5 C-2.64843325 3.34808509 -1.31037934 1.68477344 0 0 Z " fill="#FE0202" transform="translate(366,48)"/>
<path d="M0 0 C1.36032081 4.08096242 -0.23737234 6.23828053 -2.05078125 9.87890625 C-2.38008133 10.55845871 -2.70938141 11.23801117 -3.04866028 11.93815613 C-4.12574605 14.15177644 -5.21805082 16.35741844 -6.3125 18.5625 C-7.0605041 20.08294879 -7.80838796 21.60345674 -8.55615234 23.12402344 C-22.64489343 51.6640835 -39.23611131 78.60166908 -61 102 C-62.17122148 103.35022913 -63.33807233 104.70426491 -64.5 106.0625 C-81.95514221 125.99979546 -108.54075153 147.70619466 -136 151 C-154.2820026 152.17275196 -167.72189143 150.70007759 -182.0625 138.65625 C-188.64366897 132.70519295 -193.19105127 126.03098355 -197.4375 118.3125 C-197.78014893 117.69479736 -198.12279785 117.07709473 -198.47583008 116.44067383 C-200.65489983 112.28305539 -202.06897686 108.71695613 -202 104 C-200.63734691 101.33940186 -198.78603869 99.29606341 -196.75 97.125 C-196.20150391 96.51567627 -195.65300781 95.90635254 -195.08789062 95.27856445 C-190.17013303 89.93283744 -184.80835571 85.35626678 -179 81 C-178.06671875 80.26394531 -177.1334375 79.52789062 -176.171875 78.76953125 C-169.05218376 73.23939675 -161.61057039 68.55749408 -153.81884766 64.06005859 C-152.17195055 63.10021601 -150.54372324 62.10851499 -148.91796875 61.11328125 C-128.55957622 48.89824573 -105.87908187 40.06887378 -84 31 C-82.38649216 30.32475995 -80.77319142 29.64902467 -79.16015625 28.97265625 C-71.43473178 25.74548217 -63.6594579 22.69345161 -55.8046875 19.79296875 C-51.96365325 18.37002105 -48.14122686 16.90187424 -44.3203125 15.42578125 C-29.68924858 9.78961474 -15.01786211 4.53165149 0 0 Z " fill="#FEFDFD" transform="translate(356,273)"/>
<path d="M0 0 C9.48075857 4.34789495 13.56650216 17.82737058 17 27 C23.25041126 45.22332743 24.4988816 62.8685301 24 82 C23.40687012 82.1858667 22.81374023 82.3717334 22.20263672 82.56323242 C11.78136778 85.83563592 1.40263225 89.14572188 -8.859375 92.890625 C-11.98910226 93.99615055 -15.13391459 94.98235857 -18.3125 95.9375 C-23.35422993 97.45307457 -28.29985116 99.15218197 -33.25 100.9375 C-39.83345367 103.30972708 -46.46006585 105.39527599 -53.20410156 107.26342773 C-57.65048812 108.5156776 -61.76732555 110.16326997 -66 112 C-68.23934329 112.74133511 -70.48945368 113.45108126 -72.75 114.125 C-74.41289062 114.62386719 -74.41289062 114.62386719 -76.109375 115.1328125 C-77.06328125 115.41898437 -78.0171875 115.70515625 -79 116 C-80.485 116.495 -80.485 116.495 -82 117 C-83.89470816 117.0685495 -85.7916834 117.08480372 -87.6875 117.0625 C-88.68136719 117.05347656 -89.67523438 117.04445313 -90.69921875 117.03515625 C-91.45847656 117.02355469 -92.21773438 117.01195312 -93 117 C-91.70891619 114.23344582 -90.2935196 111.95037933 -88.34765625 109.6015625 C-87.82429688 108.96476562 -87.3009375 108.32796875 -86.76171875 107.671875 C-86.20097656 106.99640625 -85.64023437 106.3209375 -85.0625 105.625 C-83.87535508 104.18046525 -82.68917258 102.73513907 -81.50390625 101.2890625 C-80.91109863 100.5662207 -80.31829102 99.84337891 -79.70751953 99.09863281 C-77.26500456 96.0966513 -74.87877773 93.05256619 -72.5 90 C-68.01861146 84.25942578 -63.4404224 78.6030528 -58.8359375 72.9609375 C-55.34469917 68.67548382 -51.90181112 64.35670547 -48.5 60 C-44.0179989 54.25989332 -39.44043443 48.60306754 -34.8359375 42.9609375 C-31.34469564 38.67547948 -27.90199293 34.35656713 -24.5 30 C-20.44642279 24.81258637 -16.33697701 19.67355673 -12.1875 14.5625 C-11.66027344 13.91216797 -11.13304687 13.26183594 -10.58984375 12.59179688 C-7.1256615 8.33592651 -3.58579505 4.15394793 0 0 Z " fill="#FEFCFC" transform="translate(361,63)"/>
<path d="M0 0 C3.17165615 1.37235122 5.68697621 3.2611161 8.36450195 5.42773438 C22.64371181 16.97217393 36.55753617 20.10933049 54.39575195 22.25 C56.4065968 22.49319182 58.41621595 22.74645209 60.42578125 23 C61.61598877 23.144375 62.80619629 23.28875 64.0324707 23.4375 C67 24 67 24 70 26 C69.9417344 30.84332839 69.32362908 35.31851199 66 39 C59.73429436 42.43349814 52.30826889 43.58234164 45.40478516 45.16552734 C39.842829 46.52869715 34.4350795 48.33063764 29 50.125 C26.90663625 50.80197679 24.81289659 51.47779247 22.71875 52.15234375 C21.7390625 52.46929199 20.759375 52.78624023 19.75 53.11279297 C10.89096544 55.97090124 2.00276096 58.71947406 -6.9375 61.3125 C-17.38298594 64.34593306 -27.71827275 67.72628809 -38.07128906 71.05859375 C-42.19018051 72.38257219 -46.31159541 73.69804574 -50.4375 75 C-52.29181641 75.5878125 -52.29181641 75.5878125 -54.18359375 76.1875 C-57 77 -57 77 -59 77 C-57.68228463 65.27415496 -56.29312115 53.58092713 -54 42 C-53.8462793 41.20754883 -53.69255859 40.41509766 -53.53417969 39.59863281 C-52.4807075 34.49267341 -51.28874452 29.70065019 -49 25 C-46.3203125 23.484375 -46.3203125 23.484375 -43.125 22.75 C-41.96355469 22.45351562 -40.80210937 22.15703125 -39.60546875 21.8515625 C-38.41566406 21.57054687 -37.22585937 21.28953125 -36 21 C-25.049108 17.98882641 -13.72495966 14.75495428 -6 6 C-5.34 6 -4.68 6 -4 6 C-3.566875 5.071875 -3.566875 5.071875 -3.125 4.125 C-2 2 -2 2 0 0 Z " fill="#FEFCFC" transform="translate(205,221)"/>
<path d="M0 0 C-2.76818182 65.76818182 -2.76818182 65.76818182 -14 77 C-37.70137005 79.16028112 -57.76333302 68.16619405 -76.60083008 54.70898438 C-78.86875502 53.09348884 -81.16231456 51.52862615 -83.4765625 49.98046875 C-84.16621094 49.51576172 -84.85585938 49.05105469 -85.56640625 48.57226562 C-86.97474844 47.6249083 -88.38637614 46.68242193 -89.80078125 45.74414062 C-91.56918418 44.54667922 -93.2899233 43.279375 -95 42 C-95 41.34 -95 40.68 -95 40 C-92.92264157 39.07639985 -90.84517618 38.15304153 -88.76757812 37.22998047 C-86.88579888 36.39367103 -85.00429858 35.55673373 -83.12304688 34.71923828 C-61.36037652 25.04028006 -61.36037652 25.04028006 -54.1875 22.375 C-46.25862872 19.42668133 -38.62285317 15.8185428 -30.92431641 12.32373047 C-25.43813768 9.84033916 -19.94062829 7.38307055 -14.4375 4.9375 C-13.34856445 4.44813965 -12.25962891 3.9587793 -11.13769531 3.45458984 C-10.1215918 3.00422363 -9.10548828 2.55385742 -8.05859375 2.08984375 C-6.70205688 1.48450806 -6.70205688 1.48450806 -5.31811523 0.86694336 C-3 0 -3 0 0 0 Z " fill="#FEFCFC" transform="translate(385,157)"/>
<path d="M0 0 C0.96486328 0.19916016 0.96486328 0.19916016 1.94921875 0.40234375 C9.28249857 1.83552397 16.54553378 2.54965069 24 3 C22.88559348 6.34321955 22.02527657 7.06019619 19.375 9.25 C15.36904549 12.64463291 11.66850322 16.24791063 8 20 C7.00114876 21.00114745 6.00150263 22.00150489 5 23 C4.92557943 19.13013042 4.95297814 15.7264085 6 12 C5.39671875 12.27714844 4.7934375 12.55429688 4.171875 12.83984375 C3.37265625 13.20207031 2.5734375 13.56429687 1.75 13.9375 C0.96109375 14.29714844 0.1721875 14.65679687 -0.640625 15.02734375 C-2.75823698 15.90033279 -4.76669362 16.51338508 -7 17 C-6.00302665 14.37752662 -5.46152265 13.23076132 -2.90625 11.953125 C-2.1121875 11.72109375 -1.318125 11.4890625 -0.5 11.25 C0.2940625 11.00765625 1.088125 10.7653125 1.90625 10.515625 C4 10 4 10 6 10 C5.566875 9.36191406 5.13375 8.72382812 4.6875 8.06640625 C4.130625 7.24011719 3.57375 6.41382812 3 5.5625 C2.443125 4.73878906 1.88625 3.91507812 1.3125 3.06640625 C0 1 0 1 0 0 Z " fill="#FE0909" transform="translate(483,100)"/>
<path d="M0 0 C-0.30830925 2.00401011 -0.64963394 4.00291344 -1 6 C-1.12246094 6.76957031 -1.24492187 7.53914063 -1.37109375 8.33203125 C-1.51675781 9.12996094 -1.66242188 9.92789062 -1.8125 10.75 C-1.94269531 11.50796875 -2.07289063 12.2659375 -2.20703125 13.046875 C-3 15 -3 15 -7 17 C-7 11.72 -7 6.44 -7 1 C-4 0 -4 0 0 0 Z " fill="#FDE8E8" transform="translate(152,317)"/>
<path d="M0 0 C-1 2 -1 2 -2.92578125 2.81640625 C-4.10720703 3.18572266 -4.10720703 3.18572266 -5.3125 3.5625 C-6.09238281 3.81128906 -6.87226563 4.06007813 -7.67578125 4.31640625 C-9.77386182 4.93348877 -11.87386388 5.4891435 -14 6 C-13.00629727 3.40563017 -12.44293474 2.2328139 -9.94140625 0.91796875 C-9.15636719 0.67691406 -8.37132812 0.43585938 -7.5625 0.1875 C-6.78003906 -0.06644531 -5.99757813 -0.32039063 -5.19140625 -0.58203125 C-3 -1 -3 -1 0 0 Z " fill="#FD2929" transform="translate(490,111)"/>
</svg>
