<?xml version="1.0" encoding="UTF-8"?>
<svg version="1.1" xmlns="http://www.w3.org/2000/svg" width="512" height="512">
<path d="M0 0 C168.96 0 337.92 0 512 0 C512 168.96 512 337.92 512 512 C343.04 512 174.08 512 0 512 C0 343.04 0 174.08 0 0 Z " fill="#47143C" transform="translate(0,0)"/>
<path d="M0 0 C4.50082665 1.4317072 7.46176118 3.91862645 10.8125 7.125 C11.36728027 7.64852051 11.92206055 8.17204102 12.49365234 8.71142578 C14.3391106 10.46412696 16.17032821 12.23083261 18 14 C18.65564941 14.62841797 19.31129883 15.25683594 19.98681641 15.90429688 C29.14760851 24.71520525 37.49422833 33.74145191 45 44 C45.70890381 44.9576123 45.70890381 44.9576123 46.43212891 45.93457031 C47.85953943 47.86669794 49.27647136 49.80588264 50.6875 51.75 C51.12239746 52.34699707 51.55729492 52.94399414 52.00537109 53.55908203 C55 57.76136088 55 57.76136088 55 60 C55.56920166 59.88406494 56.13840332 59.76812988 56.72485352 59.64868164 C59.33698427 59.1178729 61.94973262 58.59016581 64.5625 58.0625 C65.45775391 57.88009766 66.35300781 57.69769531 67.27539062 57.50976562 C82.38147378 54.46641554 97.37975606 53.90663375 112.75 53.8125 C113.86149414 53.79952881 114.97298828 53.78655762 116.11816406 53.77319336 C123.911321 53.76455477 131.33491578 54.6109986 139 56 C140.23628479 60.8570117 140.21415048 65.66503416 140.2734375 70.64453125 C140.28569366 71.59530548 140.29794983 72.54607971 140.31057739 73.52566528 C140.34271399 76.62130252 140.36140963 79.71672757 140.375 82.8125 C140.38055908 83.86124298 140.38611816 84.90998596 140.3918457 85.99050903 C140.44117464 104.42526031 138.77697711 121.9649343 135 140 C135.74838135 140.27602051 136.4967627 140.55204102 137.26782227 140.83642578 C139.76167308 141.89850182 141.57871259 142.97897759 143.71484375 144.6171875 C144.39345459 145.13498779 145.07206543 145.65278809 145.77124023 146.1862793 C146.48610596 146.74355713 147.20097168 147.30083496 147.9375 147.875 C148.69039307 148.45870361 149.44328613 149.04240723 150.21899414 149.64379883 C160.88627057 157.97285692 170.88498157 166.71686959 180.5 176.25 C181.254021 176.99467529 182.00804199 177.73935059 182.78491211 178.5065918 C187.30714291 183.0551117 191.31136309 187.75133264 195 193 C193.69884734 195.81110386 192.27094196 198.05407351 190.2421875 200.390625 C189.70319824 201.01372559 189.16420898 201.63682617 188.60888672 202.27880859 C188.0367041 202.92930176 187.46452148 203.57979492 186.875 204.25 C185.99158936 205.25861084 185.99158936 205.25861084 185.09033203 206.28759766 C178.5002164 213.76460058 171.69920555 220.40745506 163.9140625 226.6484375 C160.9391818 229.0490785 158.03433993 231.52053615 155.125 234 C149.03374704 239.10002544 142.60256366 243.59119136 136 248 C136.42031369 253.61893033 136.98085906 259.14306904 138 264.6875 C140.2687172 277.84494764 140.16325894 291.28171676 140.13037109 304.5949707 C140.12492671 307.22287553 140.13039876 309.85061538 140.13671875 312.47851562 C140.13605921 314.16666704 140.13478063 315.85481835 140.1328125 317.54296875 C140.13483673 318.32004684 140.13686096 319.09712494 140.13894653 319.89775085 C140.12240284 323.72269944 139.92735896 327.28181548 139 331 C129.38221318 332.79128716 120.01992433 333.36193371 110.25 333.3125 C109.53710815 333.31134186 108.82421631 333.31018372 108.08972168 333.30899048 C90.22376893 333.2520371 72.26844621 331.84065789 55 327 C54.72849121 327.73863281 54.45698242 328.47726562 54.17724609 329.23828125 C52.31035571 333.61784657 49.45246173 337.19346789 46.625 341 C46.00230225 341.84216064 45.37960449 342.68432129 44.73803711 343.55200195 C40.03477314 349.82082959 35.02454311 355.63922249 29.59765625 361.28515625 C27.47030335 363.50847996 25.47052451 365.76511884 23.5 368.125 C18.81306359 373.55076383 13.38122645 378.27859696 8 383 C7.13632812 383.78890625 6.27265625 384.5778125 5.3828125 385.390625 C3 387 3 387 0.98046875 386.96875 C-14.12118852 379.58174605 -28.0073989 362.19878327 -38 349 C-38.48871582 348.3611084 -38.97743164 347.7222168 -39.48095703 347.06396484 C-49.9588648 333.3581906 -49.9588648 333.3581906 -53 328 C-56.56284363 328.45568601 -60.12520279 328.91506343 -63.6875 329.375 C-65.16959961 329.56449219 -65.16959961 329.56449219 -66.68164062 329.7578125 C-67.67744141 329.88671875 -68.67324219 330.015625 -69.69921875 330.1484375 C-70.73699463 330.28241943 -71.77477051 330.41640137 -72.84399414 330.55444336 C-74.90616393 330.84557509 -76.96361173 331.17308006 -79.01342773 331.54125977 C-87.7980934 333.10178975 -96.34808767 333.2745149 -105.23950195 333.20581055 C-107.69427849 333.1874493 -110.14867716 333.18530244 -112.60351562 333.18554688 C-134.86366827 333.13633173 -134.86366827 333.13633173 -137 331 C-138.37642937 321.24616596 -138.281367 311.39474661 -138.3125 301.5625 C-138.31644775 300.65858521 -138.32039551 299.75467041 -138.32446289 298.82336426 C-138.3545757 284.02291992 -137.25517186 269.94095211 -134.3671875 255.39550781 C-133.96993021 252.80382664 -133.68943042 250.61204516 -134 248 C-135.50418772 246.23073318 -135.50418772 246.23073318 -137.6640625 244.87109375 C-138.44918213 244.31776367 -139.23430176 243.76443359 -140.04321289 243.19433594 C-140.89520264 242.61458008 -141.74719238 242.03482422 -142.625 241.4375 C-144.38953304 240.1849448 -146.15123453 238.92839161 -147.91015625 237.66796875 C-149.21750732 236.73476807 -149.21750732 236.73476807 -150.55126953 235.78271484 C-159.91850315 228.96321934 -168.22007525 220.95214149 -176.4375 212.8125 C-177.18330322 212.07612305 -177.92910645 211.33974609 -178.69750977 210.58105469 C-189.26345332 199.95221155 -189.26345332 199.95221155 -192 195 C-191.61799729 190.77075493 -188.87447647 188.08755677 -186.1875 185 C-185.45696411 184.14994385 -185.45696411 184.14994385 -184.71166992 183.28271484 C-177.12673381 174.57242805 -168.91508497 166.34892139 -160 159 C-159.46503906 158.5565625 -158.93007812 158.113125 -158.37890625 157.65625 C-151.99204773 152.38194103 -145.77165997 147.31367295 -138.5625 143.1875 C-134.69931516 140.94228312 -134.69931516 140.94228312 -133.1875 136.875 C-133.455625 135.59625 -133.72375 134.3175 -134 133 C-134.29917212 131.04279921 -134.58987843 129.08429696 -134.875 127.125 C-135.04821777 126.04178467 -135.22143555 124.95856934 -135.39990234 123.8425293 C-137.4599888 110.65143866 -138.29886466 97.86818884 -138.20581055 84.5300293 C-138.1872614 81.77708884 -138.18530374 79.0244816 -138.18554688 76.27148438 C-138.18063976 74.49999711 -138.174815 72.72851209 -138.16796875 70.95703125 C-138.16685593 70.14450394 -138.1657431 69.33197662 -138.16459656 68.49482727 C-138.12899153 64.22253332 -137.84409752 60.2078577 -137 56 C-128.35556475 54.0344907 -120.0313554 53.68697445 -111.1875 53.75 C-110.51113495 53.75276947 -109.8347699 53.75553894 -109.13790894 53.75839233 C-92.57362202 53.83754242 -76.3458127 55.0063886 -60.1171875 58.4140625 C-56.87343751 59.12315645 -56.87343751 59.12315645 -53 59 C-51.38217336 57.05982444 -50.08273704 55.24779038 -48.75 53.125 C-47.95199811 51.91612944 -47.1511812 50.70911275 -46.34765625 49.50390625 C-45.95078613 48.90465332 -45.55391602 48.30540039 -45.14501953 47.68798828 C-42.36167308 43.58477776 -39.17489687 39.802037 -36 36 C-35.56316895 35.47293457 -35.12633789 34.94586914 -34.67626953 34.40283203 C-24.4048782 22.04401754 -13.62232471 10.9699788 -1 1 C-0.67 0.67 -0.34 0.34 0 0 Z " fill="#B6944F" transform="translate(255,60)"/>
<path d="M0 0 C3.47384828 1.26810271 6.4499006 3.26600771 9.56689453 5.23168945 C10.2778125 5.67295166 10.98873047 6.11421387 11.72119141 6.56884766 C16.16932926 9.38710663 20.08016903 12.41325446 24.00439453 15.91918945 C27.20459917 18.73922138 27.20459917 18.73922138 31.10205078 20.13793945 C33.20566307 19.90374007 34.99998416 19.40768667 37.00439453 18.73168945 C46.02488423 16.40167366 54.75796918 16.53860865 64.00439453 16.73168945 C64.32432067 26.51905941 64.10038205 35.26051848 61.56298828 44.77856445 C60.95597354 47.98767737 60.92566349 49.65996654 62.00439453 52.73168945 C63.448323 54.81449897 64.89583695 56.72472984 66.50439453 58.66918945 C70.27722631 63.41329981 73.85329605 68.23345734 77.19189453 73.29418945 C77.59021484 73.87740967 77.98853516 74.46062988 78.39892578 75.06152344 C81.01780896 79.09877209 81.01780896 79.09877209 80.96142578 81.7590332 C76.68255713 90.57874206 70.84382501 98.52922405 64.88720703 106.27075195 C61.67857594 110.09935429 61.67857594 110.09935429 61.31689453 114.85668945 C61.54376953 116.13543945 61.77064453 117.41418945 62.00439453 118.73168945 C62.26308784 121.09081794 62.4954532 123.45142311 62.72314453 125.8137207 C62.91397981 127.81145248 62.91397981 127.81145248 64.00439453 129.73168945 C64.07634322 132.61539278 64.09731161 135.47408609 64.06689453 138.35668945 C64.06238281 139.15848633 64.05787109 139.9602832 64.05322266 140.78637695 C64.04142621 142.76817951 64.02349058 144.74994379 64.00439453 146.73168945 C54.41556633 147.10366986 45.91428903 146.40915799 36.56298828 144.2902832 C31.96660262 143.56878688 28.71180241 143.57632334 24.79345703 146.2277832 C24.07931641 146.86844727 23.36517578 147.50911133 22.62939453 148.16918945 C18.17744383 151.89608882 13.57047553 155.16160938 8.69189453 158.29418945 C8.0101416 158.74785889 7.32838867 159.20152832 6.62597656 159.66894531 C1.81066908 162.71153259 1.81066908 162.71153259 -1.49560547 162.79418945 C-5.12110638 161.25335157 -8.37027817 159.29137159 -11.68310547 157.16918945 C-12.39208984 156.72462402 -13.10107422 156.28005859 -13.83154297 155.82202148 C-17.98663757 153.17210801 -21.76936648 150.34614139 -25.49560547 147.10668945 C-28.42476653 144.6730816 -30.32575373 143.22424684 -34.18310547 143.10668945 C-37.91895016 143.71912301 -41.37072949 144.65058609 -44.99560547 145.73168945 C-51.95210315 146.95851366 -58.95549267 146.83889929 -65.99560547 146.73168945 C-66.33917816 137.87514884 -65.93306082 129.76779107 -64.06274414 121.10083008 C-62.87330548 115.94549495 -62.87330548 115.94549495 -62.99560547 110.73168945 C-64.4072649 108.61567385 -65.79799038 106.78168892 -67.43310547 104.85668945 C-71.34686779 100.00144553 -74.91264988 95.04396469 -78.18310547 89.73168945 C-78.58134521 89.1092334 -78.97958496 88.48677734 -79.38989258 87.84545898 C-80.96363009 85.23565108 -81.9981788 83.28667132 -81.98388672 80.2043457 C-80.67960374 76.94106062 -78.93332295 74.08184384 -76.99560547 71.16918945 C-76.60131348 70.55785156 -76.20702148 69.94651367 -75.80078125 69.31665039 C-73.79164686 66.24852979 -71.71221328 63.31860076 -69.36279297 60.5012207 C-63.96611767 54.34543096 -63.96611767 54.34543096 -62.80810547 46.60668945 C-63.15056892 44.9696104 -63.54648567 43.34277618 -63.99560547 41.73168945 C-65.98644247 33.29907272 -66.2028532 25.36701156 -65.99560547 16.73168945 C-57.62296428 16.33853935 -50.01402975 17.03314219 -41.82202148 18.66455078 C-34.70175533 20.35791923 -34.70175533 20.35791923 -28.22607422 17.89575195 C-27.22189453 17.05786133 -26.21771484 16.2199707 -25.18310547 15.35668945 C-20.11811084 11.27307001 -14.92057867 7.54164461 -9.43310547 4.04418945 C-8.75465576 3.59833496 -8.07620605 3.15248047 -7.37719727 2.69311523 C-2.54347296 -0.34197171 -2.54347296 -0.34197171 0 0 Z " fill="#47143C" transform="translate(256.99560546875,172.268310546875)"/>
<path d="M0 0 C3.24712611 3.02243658 5.59713369 6.21587308 8 9.9375 C9.96827357 12.97832889 11.79349317 15.77780007 14.26171875 18.43359375 C16.61233455 21.90405349 16.25384511 24.00869216 15.8125 28.125 C15.69519531 29.34445312 15.57789063 30.56390625 15.45703125 31.8203125 C15 35 15 35 14 38 C13.91733514 39.91906917 13.89259337 41.84089474 13.90234375 43.76171875 C13.90717773 45.43911133 13.90717773 45.43911133 13.91210938 47.15039062 C13.92048828 48.31763672 13.92886719 49.48488281 13.9375 50.6875 C13.94201172 51.86634766 13.94652344 53.04519531 13.95117188 54.25976562 C13.96296727 57.17322789 13.9794273 60.08658863 14 63 C17.64568361 63.08977248 21.29095054 63.14606813 24.9375 63.1875 C26.02820801 63.20103516 27.11891602 63.21457031 28.24267578 63.22851562 C34.92990456 63.23244524 40.89738734 62.58426376 47.375 61 C51.13233451 60.16703081 53.99823496 59.54451693 57.62890625 61.1953125 C59.9375 63.125 59.9375 63.125 62.2421875 65.41796875 C65.72074779 68.67480777 69.4865682 70.99699939 73.5625 73.4375 C74.33625977 73.90325439 75.11001953 74.36900879 75.90722656 74.84887695 C98.7539412 88.45271416 122.96073708 98.3917377 149 104 C150.28261719 104.28875 151.56523437 104.5775 152.88671875 104.875 C170.25341862 108.36637053 188.35543684 107.75533089 206 108 C205.80467307 88.35785619 205.41756959 69.23521422 201 50 C200.8035791 49.12327637 200.6071582 48.24655273 200.40478516 47.34326172 C198.13871565 37.36486188 195.39188232 27.62741019 192.015625 17.96875 C191.68046875 16.9890625 191.3453125 16.009375 191 15 C190.72800781 14.31421875 190.45601562 13.6284375 190.17578125 12.921875 C189.90073051 9.91465356 191.33378197 8.23739939 192.9375 5.75 C193.50339844 4.85796875 194.06929687 3.9659375 194.65234375 3.046875 C195.09707031 2.37140625 195.54179687 1.6959375 196 1 C199.27041484 3.64334415 200.42507266 7.03817551 201.8125 10.875 C202.06821777 11.5747998 202.32393555 12.27459961 202.58740234 12.99560547 C208.40269115 29.2833875 212.51233788 45.88669485 215 63 C215.18095215 64.23161865 215.3619043 65.4632373 215.54833984 66.73217773 C217.0990079 78.03039838 217.23759685 89.17428511 217.125 100.5625 C217.11493344 102.36392722 217.10581419 104.16536 217.09765625 105.96679688 C217.07597219 110.31133918 217.04165287 114.65560517 217 119 C211.0447556 120.82936495 204.60569368 120.19638259 198.4375 120.1875 C197.73815338 120.18722809 197.03880676 120.18695618 196.31826782 120.18667603 C185.09652512 120.16657431 174.11001139 119.62472311 163 118 C162.30326172 117.90879883 161.60652344 117.81759766 160.88867188 117.72363281 C139.22902195 114.88416629 118.08122667 108.49878074 98 100 C97.26523437 99.68981934 96.53046875 99.37963867 95.7734375 99.06005859 C81.35278282 92.8624545 66.99192392 85.10901368 54.82104492 75.14868164 C50.84255315 72.63912221 46.63656466 73.6975542 42.19140625 74.51904297 C38.76906258 75.03480315 35.5228213 75.12952501 32.0625 75.1328125 C30.75539062 75.13410156 29.44828125 75.13539063 28.1015625 75.13671875 C27.42770508 75.13462402 26.75384766 75.1325293 26.05957031 75.13037109 C24.00578426 75.12501508 21.95221685 75.13033445 19.8984375 75.13671875 C18.59132812 75.13542969 17.28421875 75.13414062 15.9375 75.1328125 C14.75027344 75.13168457 13.56304687 75.13055664 12.33984375 75.12939453 C9.1410504 75.00546467 6.14063777 74.60171656 3 74 C2.02927726 71.08783178 1.91140076 69.42443313 1.99755859 66.41186523 C2.02022797 65.48337265 2.04289734 64.55488007 2.06625366 63.59825134 C2.09337433 62.59516434 2.120495 61.59207733 2.1484375 60.55859375 C2.18546475 58.42646396 2.22055842 56.29429988 2.25390625 54.16210938 C2.30922897 50.80627236 2.37456582 47.45227624 2.47314453 44.09741211 C2.56470944 40.85500759 2.61030373 37.61451316 2.6484375 34.37109375 C2.68770355 33.38217636 2.7269696 32.39325897 2.76742554 31.37437439 C2.79516184 24.35571353 1.00834011 20.67596768 -3.58920288 15.37367249 C-5 13 -5 13 -4.77310181 9.84080505 C-3.7364807 6.03168385 -2.07398551 3.34513792 0 0 Z " fill="#49163D" transform="translate(169,264)"/>
<path d="M0 0 C2.98887007 1.39913185 5.9553202 2.81625403 8.87890625 4.34765625 C5.4713033 7.94944246 2.04818957 10.73522065 -2.12109375 13.41015625 C-5.15825005 15.3664878 -7.93201775 17.17150596 -10.578125 19.63671875 C-14.05550941 21.97634144 -15.73187028 21.42261372 -19.80859375 20.66015625 C-27.56764045 19.3776848 -35.2655754 18.98092426 -43.12109375 18.72265625 C-44.29760498 18.68309814 -45.47411621 18.64354004 -46.6862793 18.6027832 C-49.49775972 18.51215718 -52.30927109 18.42683532 -55.12109375 18.34765625 C-54.60965392 35.5463708 -54.60965392 35.5463708 -52.5234375 52.60546875 C-51.5244739 59.41393913 -51.5244739 59.41393913 -53.7734375 62.93359375 C-54.90458984 64.31417969 -54.90458984 64.31417969 -56.05859375 65.72265625 C-61.44169378 72.55361721 -65.85298543 79.78017623 -70.12109375 87.34765625 C-70.53004883 88.06840332 -70.93900391 88.78915039 -71.36035156 89.53173828 C-84.35641064 112.65752009 -93.19438903 138.08266977 -97.12109375 164.34765625 C-97.2917334 165.41540283 -97.46237305 166.48314941 -97.63818359 167.58325195 C-99.05071747 177.0651817 -99.3661654 186.22133622 -99.24609375 195.78515625 C-99.2360222 197.21028002 -99.22690389 198.63541085 -99.21875 200.06054688 C-99.19711667 203.48973471 -99.16282872 206.91864692 -99.12109375 210.34765625 C-69.61455838 211.01229462 -40.2698764 208.45248578 -12.58911133 197.49511719 C-8.0245105 195.74146348 -4.98062086 194.85513773 -0.12109375 196.34765625 C2.37282217 197.49338515 4.53691178 198.89561968 6.87890625 200.34765625 C6.87890625 201.00765625 6.87890625 201.66765625 6.87890625 202.34765625 C-24.71471194 216.0206946 -58.17523214 222.40410295 -92.55859375 222.59765625 C-93.71439941 222.60700195 -94.87020508 222.61634766 -96.06103516 222.62597656 C-97.69758057 222.61969238 -97.69758057 222.61969238 -99.3671875 222.61328125 C-100.33325928 222.61102539 -101.29933105 222.60876953 -102.29467773 222.60644531 C-105.47076278 222.31564026 -108.14067859 221.45769899 -111.12109375 220.34765625 C-111.44807385 194.95387826 -111.02639126 170.19132874 -105.12109375 145.34765625 C-104.93144043 144.54489258 -104.74178711 143.74212891 -104.54638672 142.91503906 C-98.1293504 116.23001562 -88.01499026 88.73213587 -71.38671875 66.62109375 C-70.96197266 66.05124756 -70.53722656 65.48140137 -70.09960938 64.89428711 C-68.96400031 63.40684686 -67.78639408 61.95172373 -66.60546875 60.5 C-64.78407067 56.63192565 -65.15700984 54.61752619 -65.7578125 50.48120117 C-66.20725777 46.60443364 -66.24886426 42.78989596 -66.25390625 38.890625 C-66.25583984 37.75611153 -66.25583984 37.75611153 -66.2578125 36.59867859 C-66.2578125 35.03721984 -66.25566969 33.47575973 -66.25146484 31.91430664 C-66.24606605 29.52288591 -66.2514582 27.1316497 -66.2578125 24.74023438 C-66.2571523 23.20703084 -66.25587236 21.67382742 -66.25390625 20.140625 C-66.25593048 19.4322197 -66.25795471 18.72381439 -66.26004028 17.99394226 C-66.24270475 14.31983299 -65.99388361 10.92072098 -65.12109375 7.34765625 C-58.44682073 6.33810235 -51.92732453 6.19801974 -45.18359375 6.22265625 C-44.08055908 6.21878906 -42.97752441 6.21492187 -41.84106445 6.2109375 C-36.90098943 6.21669307 -32.03879738 6.28247939 -27.12890625 6.85546875 C-19.60729635 7.72913267 -14.95713302 7.9345736 -8.43359375 3.28515625 C-7.54285156 2.51042969 -6.65210938 1.73570312 -5.734375 0.9375 C-3.12109375 -0.65234375 -3.12109375 -0.65234375 0 0 Z " fill="#49163D" transform="translate(237.12109375,161.65234375)"/>
<path d="M0 0 C2.96159207 0.01861076 5.92287622 0.02050661 8.88452148 0.02026367 C10.76798776 0.02516767 12.65145191 0.03099104 14.53491211 0.0378418 C15.42013046 0.03895462 16.30534882 0.04006744 17.21739197 0.04121399 C23.36015382 0.089646 23.36015382 0.089646 24.47631836 1.20581055 C24.59020406 3.83054091 24.64052106 6.42781156 24.64428711 9.0534668 C24.64927971 10.25959877 24.64927971 10.25959877 24.65437317 11.49009705 C24.659454 13.20595731 24.66178114 14.92182753 24.66162109 16.63769531 C24.6637659 19.20550178 24.6817897 21.77284832 24.70092773 24.34057617 C24.73748947 34.80713452 24.07640804 44.85696828 22.47631836 55.20581055 C22.3196167 56.25293213 22.16291504 57.30005371 22.00146484 58.37890625 C20.21682394 69.86938808 18.12449137 81.1454765 14.47631836 92.20581055 C14.22962402 92.99262207 13.98292969 93.77943359 13.72875977 94.59008789 C6.73488257 116.81929829 -2.50883133 141.41665289 -18.12036133 159.15649414 C-21.58992737 164.04593492 -21.13589126 168.99622995 -20.97680664 174.79174805 C-20.96736023 175.88927399 -20.95791382 176.98679993 -20.94818115 178.11758423 C-20.9137094 181.60609431 -20.84489346 185.0928747 -20.77368164 188.58081055 C-20.72379117 192.08993333 -20.68089785 195.59904569 -20.64202881 199.10830688 C-20.61552235 201.2885736 -20.58124456 203.46876173 -20.53863525 205.64877319 C-20.52242126 206.62714142 -20.50620728 207.60550964 -20.48950195 208.61352539 C-20.4635495 209.91089127 -20.4635495 209.91089127 -20.43707275 211.23446655 C-20.52368164 213.20581055 -20.52368164 213.20581055 -21.52368164 214.20581055 C-29.10558648 215.34149671 -36.61916293 215.35544956 -44.27368164 215.33081055 C-46.05258789 215.33661133 -46.05258789 215.33661133 -47.86743164 215.3425293 C-53.82840609 215.33602168 -59.61366075 215.11257219 -65.53930664 214.44799805 C-69.6976381 214.09335774 -71.17861381 214.03943856 -75.02368164 215.89331055 C-75.84868164 216.65643555 -76.67368164 217.41956055 -77.52368164 218.20581055 C-81.9842336 222.23118671 -81.9842336 222.23118671 -85.09790039 222.0847168 C-88.5538142 220.83257411 -91.38328754 219.11467755 -94.52368164 217.20581055 C-88.10362442 210.35219102 -79.1070538 202.05533264 -69.62133789 200.61206055 C-65.31985515 200.9604371 -61.60375899 201.84578477 -57.52368164 203.20581055 C-55.53303724 203.35567465 -53.53832773 203.45409092 -51.54321289 203.5222168 C-50.37983398 203.56411133 -49.21645508 203.60600586 -48.01782227 203.64916992 C-46.80288086 203.68848633 -45.58793945 203.72780273 -44.33618164 203.76831055 C-43.10963867 203.81149414 -41.8830957 203.85467773 -40.61938477 203.89916992 C-37.58759783 204.00534145 -34.55572849 204.10739007 -31.52368164 204.20581055 C-31.63480213 199.91366881 -31.76512881 195.62230824 -31.89868164 191.33081055 C-31.92961914 190.12682617 -31.96055664 188.9228418 -31.99243164 187.68237305 C-32.1968938 181.41220001 -32.62829315 175.49125866 -34.1081543 169.38500977 C-34.92854206 165.08255315 -34.98466431 162.90998879 -32.53930664 159.17456055 C-31.62452876 158.01268749 -30.70207327 156.85683468 -29.77368164 155.70581055 C-18.2237116 140.63413933 -9.80866193 123.67581368 -2.52368164 106.20581055 C-2.01212524 104.98788818 -2.01212524 104.98788818 -1.49023438 103.74536133 C10.52392005 74.52634714 13.48358258 43.45269618 12.47631836 12.20581055 C-18.79939998 11.47709948 -50.41647675 12.98415344 -79.25439453 26.64916992 C-84.27686048 27.88114651 -89.32619656 23.67491942 -93.52368164 21.20581055 C-93.52368164 20.54581055 -93.52368164 19.88581055 -93.52368164 19.20581055 C-78.3046191 12.52098181 -63.10046358 8.14461509 -46.89868164 4.51831055 C-45.55942627 4.21449463 -45.55942627 4.21449463 -44.19311523 3.90454102 C-29.41348244 0.70988089 -15.06979255 -0.09832845 0 0 Z " fill="#48163C" transform="translate(361.523681640625,123.794189453125)"/>
<path d="M0 0 C0.8635611 -0.0033284 1.72712219 -0.0066568 2.61685181 -0.01008606 C4.46135933 -0.01516835 6.30587611 -0.01749399 8.15039062 -0.01733398 C10.90251257 -0.01947368 13.65420171 -0.0374808 16.40625 -0.05664062 C32.23615354 -0.10874766 47.82694054 0.90145818 63.2890625 4.48046875 C64.26053223 4.70065674 65.23200195 4.92084473 66.23291016 5.14770508 C93.31000208 11.42745757 122.89807643 21.75776008 144.9699707 38.97753906 C151.87750506 44.31758446 156.42976151 46.14441598 165.16455078 45.09179688 C166.74071853 44.88096975 168.31654926 44.66761238 169.89208984 44.45214844 C175.34182391 43.88055982 180.81507787 43.97321288 186.2890625 43.98046875 C187.40007324 43.96846436 188.51108398 43.95645996 189.65576172 43.9440918 C190.71424316 43.9419165 191.77272461 43.93974121 192.86328125 43.9375 C193.80131592 43.93339111 194.73935059 43.92928223 195.70581055 43.92504883 C199.18096324 44.21657374 202.2815438 45.12631837 205.6015625 46.16796875 C205.58601822 46.77216644 205.57047394 47.37636414 205.55445862 47.99887085 C205.39877888 54.32593608 205.29368381 60.65245163 205.21704102 66.98095703 C205.18198494 69.33795292 205.13432494 71.69479819 205.07348633 74.05126953 C204.98791556 77.4525276 204.94872391 80.85176273 204.91796875 84.25390625 C204.88183975 85.29598236 204.84571075 86.33805847 204.80848694 87.41171265 C204.80469602 94.58377146 206.51041732 98.49983474 211.08213806 104.03311157 C212.6015625 106.16796875 212.6015625 106.16796875 212.7265625 109.91796875 C211.59610025 113.18374858 210.29210813 116.15438741 208.6015625 119.16796875 C207.9415625 119.16796875 207.2815625 119.16796875 206.6015625 119.16796875 C204.77935917 116.62180896 203.23260696 113.94508591 201.6328125 111.25390625 C199.73445972 108.14196871 199.73445972 108.14196871 197.2578125 105.83203125 C193.92456585 102.39604755 191.6522084 99.57641148 191.54785156 94.61376953 C191.93902456 89.44169075 192.78520454 84.36410352 193.65234375 79.25390625 C194.56913232 73.84510908 194.88864796 68.64635453 194.7890625 63.16796875 C194.77681641 62.45044434 194.76457031 61.73291992 194.75195312 60.99365234 C194.71490175 59.38473676 194.66056118 57.77622909 194.6015625 56.16796875 C181.97699554 55.92335927 169.4902293 55.83950251 157.171875 59.06640625 C152.03148589 59.21263176 149.64816633 56.95040586 145.7265625 53.85546875 C144.22259178 52.73441082 142.71466975 51.61863709 141.203125 50.5078125 C140.0569873 49.66259033 140.0569873 49.66259033 138.88769531 48.80029297 C127.68875235 40.80412331 115.22056187 34.57456659 102.6015625 29.16796875 C101.81330078 28.83023438 101.02503906 28.4925 100.21289062 28.14453125 C68.7614277 14.91751285 36.34888132 11.79639104 2.6015625 11.16796875 C2.12208499 34.62302524 3.98688349 56.34320633 9.6015625 79.16796875 C9.84777344 80.18117188 10.09398437 81.194375 10.34765625 82.23828125 C12.00150144 88.64809932 14.27217977 94.76030021 16.7109375 100.90625 C17.93153331 105.37641448 17.50645937 108.39377752 15.41015625 112.50390625 C14.95769531 113.17679687 14.50523437 113.8496875 14.0390625 114.54296875 C13.58402344 115.23132813 13.12898438 115.9196875 12.66015625 116.62890625 C12.13615234 117.39074219 12.13615234 117.39074219 11.6015625 118.16796875 C5.94378137 115.33907819 3.69009351 102.35951922 1.72363281 96.65966797 C-6.29251461 71.71472878 -9.60212997 45.74560988 -9.52880859 19.64038086 C-9.52333749 17.31292525 -9.52884945 14.98565374 -9.53515625 12.65820312 C-9.53449721 11.17578082 -9.53321969 9.69335864 -9.53125 8.2109375 C-9.53327423 7.51630905 -9.53529846 6.8216806 -9.53738403 6.10600281 C-9.50055466 -1.31841011 -6.55138155 0.00876203 0 0 Z " fill="#48163C" transform="translate(135.3984375,123.83203125)"/>
<path d="M0 0 C1.97261047 1.20452881 1.97261047 1.20452881 4 3 C4.47428894 5.17388916 4.47428894 5.17388916 4.43823242 7.72753906 C4.43470261 8.68573547 4.43117279 9.64393188 4.42753601 10.63116455 C4.40375381 11.6655365 4.37997162 12.69990845 4.35546875 13.765625 C4.34743729 14.83238464 4.33940582 15.89914429 4.33113098 16.99822998 C4.30208732 20.41598741 4.24587349 23.8326285 4.1875 27.25 C4.14489698 30.65294619 4.10796109 34.05586091 4.07600403 37.45892334 C4.0544354 39.57705268 4.02585069 41.69512547 3.98930359 43.81304932 C3.91985327 49.00488445 4.0799325 53.88622998 5 59 C11.73510206 59.88832074 18.23357725 60.08104308 25.01953125 59.95703125 C27.1139231 59.9346684 29.20832476 59.91321028 31.30273438 59.89257812 C34.57278228 59.85533721 37.84232436 59.81196376 41.11206055 59.75317383 C44.2896267 59.69882603 47.46661772 59.66964743 50.64453125 59.64453125 C51.62372025 59.62074905 52.60290924 59.59696686 53.61177063 59.57246399 C60.40588935 59.54615711 60.40588935 59.54615711 63.6472168 62.0222168 C64.09363525 62.67488525 64.54005371 63.32755371 65 64 C54.6196496 67.56212496 44.24902166 70.56722738 33.5 72.8125 C32.52289063 73.0189917 31.54578125 73.2254834 30.5390625 73.43823242 C19.77558963 75.60861089 9.27440843 76.14976565 -1.6875 76.0625 C-3.33008789 76.05573242 -3.33008789 76.05573242 -5.00585938 76.04882812 C-7.67063309 76.03719156 -10.33528517 76.02084564 -13 76 C-14.00100639 50.78946877 -9.51412511 24.73826703 -1 1 C-0.67 0.67 -0.34 0.34 0 0 Z " fill="#49173D" transform="translate(159,287)"/>
<path d="M0 0 C8.05389679 25.53256642 12.4769125 50.23053448 12 77 C-14.99840567 77.85437993 -39.51167905 73.92328555 -65 65 C-65 64.34 -65 63.68 -65 63 C-61.93123014 60.95415342 -61.36369043 60.75303571 -57.91845703 60.78881836 C-56.69039841 60.79388649 -56.69039841 60.79388649 -55.43753052 60.79905701 C-54.55322357 60.81251663 -53.66891663 60.82597626 -52.7578125 60.83984375 C-51.3787825 60.8476461 -51.3787825 60.8476461 -49.97189331 60.85560608 C-47.02276907 60.87342862 -44.07399076 60.90452483 -41.125 60.9375 C-37.2734635 60.97431239 -33.42195841 61.0046636 -29.5703125 61.02734375 C-28.64688049 61.03293304 -27.72344849 61.03852234 -26.77203369 61.04428101 C-19.80129114 61.05970889 -12.93596389 60.7417924 -6 60 C-3.21692125 42.40253617 -3.05716172 24.49824711 -5.07421875 6.79296875 C-4.98020736 3.2551718 -3.98416336 0 0 0 Z " fill="#49163D" transform="translate(354,286)"/>
<path d="M0 0 C1.59134766 0.00676758 1.59134766 0.00676758 3.21484375 0.01367188 C5.80995598 0.02536157 8.40494709 0.04174724 11 0.0625 C11.8679733 27.03396647 7.35933861 51.85468135 -2 77.0625 C-4.015625 75.41796875 -4.015625 75.41796875 -6 73.0625 C-6.171875 70.48828125 -6.171875 70.48828125 -5.75 67.375 C-4.08769792 50.97476191 -4.28437925 34.33197787 -7 18.0625 C-16.73243863 16.20870217 -26.29296689 15.86978274 -36.1875 15.875 C-37.3621582 15.87435547 -38.53681641 15.87371094 -39.74707031 15.87304688 C-46.4001406 15.91408067 -52.87190747 16.2619523 -59.4699707 17.14331055 C-62.59512698 17.04349131 -63.80004462 16.23662294 -66 14.0625 C-66 13.4025 -66 12.7425 -66 12.0625 C-50.88987433 7.09969349 -35.68645618 3.67457006 -20 1.0625 C-19.30068359 0.94543701 -18.60136719 0.82837402 -17.88085938 0.70776367 C-11.93977244 -0.1633612 -5.99224867 -0.04874796 0 0 Z " fill="#49163D" transform="translate(355,143.9375)"/>
<path d="M0 0 C12.19947282 -0.22499028 23.93571262 -0.00798632 36 2 C36.80018555 2.12890625 37.60037109 2.2578125 38.42480469 2.390625 C51.35075852 4.51463111 63.61410051 7.75340589 76 12 C75 15 75 15 73 16 C70.02842592 16.07517263 67.08034846 16.09101979 64.109375 16.0625 C63.21317444 16.05871338 62.31697388 16.05492676 61.39361572 16.05102539 C57.55922781 16.03473325 53.72494656 16.00699244 49.890625 15.97949219 C38.87103424 15.90719515 27.98140554 15.95459633 17 17 C16.0281788 23.43897016 15.89821818 29.67128405 15.97265625 36.17578125 C15.98528949 38.32356617 15.99765138 40.47135271 16.00976562 42.61914062 C16.03468113 45.98125301 16.06280344 49.34328054 16.09594727 52.70532227 C16.12604727 55.96631427 16.1438802 59.2271952 16.16015625 62.48828125 C16.17361588 63.49764236 16.1870755 64.50700348 16.20094299 65.54695129 C16.20432175 66.48189926 16.2077005 67.41684723 16.21118164 68.38012695 C16.22236778 69.61301201 16.22236778 69.61301201 16.23377991 70.87080383 C16 73 16 73 14 76 C13.34 76 12.68 76 12 76 C8.13484765 66.90149978 5.83985043 57.58315944 3.75 47.9375 C3.36303955 46.18228027 3.36303955 46.18228027 2.96826172 44.39160156 C0.53700886 32.8322317 -0.17314761 21.47572571 -0.0625 9.6875 C-0.05573242 8.27307617 -0.05573242 8.27307617 -0.04882812 6.83007812 C-0.03727094 4.5533121 -0.02098783 2.27669511 0 0 Z " fill="#48153C" transform="translate(147,144)"/>
<path d="M0 0 C4.26499516 1.3960238 6.74892357 3.36346048 9.9140625 6.515625 C11.29537354 7.88787231 11.29537354 7.88787231 12.70458984 9.2878418 C13.67889167 10.27440713 14.6523466 11.26180946 15.625 12.25 C16.11832825 12.74698395 16.61165649 13.2439679 17.11993408 13.75601196 C24.70311579 21.40539335 31.70385084 29.25225293 38 38 C38.80635533 39.07590002 39.61495282 40.15012325 40.42578125 41.22265625 C46 48.68382988 46 48.68382988 46 51 C41.73383684 52.13764351 38.43513689 53 34 53 C32.02734375 50.83203125 32.02734375 50.83203125 29.9375 47.8125 C29.14800606 46.70584613 28.35489138 45.60176837 27.55859375 44.5 C27.14335449 43.92378906 26.72811523 43.34757812 26.30029297 42.75390625 C15.16626761 27.30896815 15.16626761 27.30896815 0 17 C-11.46577309 27.96246379 -21.68784048 39.15835871 -31 52 C-31.495 52.495 -31.495 52.495 -32 53 C-33.99609375 52.9140625 -33.99609375 52.9140625 -36.4375 52.625 C-37.64212891 52.48964844 -37.64212891 52.48964844 -38.87109375 52.3515625 C-41 52 -41 52 -43 51 C-42.05712263 44.76816987 -36.79473073 39.83102461 -33 35 C-32.30519531 34.10796875 -31.61039063 33.2159375 -30.89453125 32.296875 C-21.59431934 20.6410747 -11.36579731 9.66354656 0 0 Z " fill="#48153C" transform="translate(255,72)"/>
<path d="M0 0 C2.45823172 3.68734758 3.01242616 6.69699971 4 11 C2.37562145 12.33409037 0.75045282 13.66721874 -0.875 15 C-1.88820312 15.83273438 -2.90140625 16.66546875 -3.9453125 17.5234375 C-5.75430562 18.99006364 -7.57739912 20.44001155 -9.4296875 21.8515625 C-15.02910456 26.13125163 -20.14091289 30.84104708 -25.1875 35.75 C-25.87231445 36.40049316 -26.55712891 37.05098633 -27.26269531 37.72119141 C-27.89143555 38.34429199 -28.52017578 38.96739258 -29.16796875 39.609375 C-29.73797607 40.16592773 -30.3079834 40.72248047 -30.89526367 41.29589844 C-32.22382882 42.95448354 -32.22382882 42.95448354 -31.78417969 45.07055664 C-26.20034762 58.8093564 -7.57212433 69.51473266 4 78 C3.01 81.63 2.02 85.26 1 89 C-16.363107 82.0547572 -38.72854959 61.40717562 -49 46 C-48.88844356 41.68648423 -45.55564546 38.9476645 -42.75 36 C-42.21205811 35.42894531 -41.67411621 34.85789063 -41.11987305 34.26953125 C-28.74279331 21.28139256 -15.04774328 9.79633991 0 0 Z " fill="#47153C" transform="translate(124,209)"/>
<path d="M0 0 C1.93617756 2.01264587 3.45874973 3.87074444 5.0625 6.125 C6.02727562 7.41346363 6.99481407 8.69986228 7.96484375 9.984375 C8.46226074 10.64888672 8.95967773 11.31339844 9.47216797 11.99804688 C19.4129113 25.42265757 19.4129113 25.42265757 32 36 C37.10894636 35.34586143 39.90747432 31.62236099 43.375 28.125 C44.07238281 27.42697266 44.76976562 26.72894531 45.48828125 26.00976562 C53.24438744 18.03626406 59.68232727 9.12951571 66 0 C70.02854781 0.564661 74.01977172 1.15570915 78 2 C76.74220772 5.4603397 75.32233946 8.17554141 73.05859375 11.07421875 C72.18968506 12.19195679 72.18968506 12.19195679 71.30322266 13.33227539 C70.68753418 14.10949951 70.0718457 14.88672363 69.4375 15.6875 C68.80634277 16.4911499 68.17518555 17.2947998 67.52490234 18.12280273 C62.89741333 23.97187793 58.07784119 29.53762327 53 35 C51.6439588 36.56087343 50.28977367 38.12336141 48.9375 39.6875 C45.74471688 43.29617671 42.34664124 46.48679433 38.6640625 49.58984375 C36.8974177 51.04770773 36.8974177 51.04770773 35 53 C24.69379251 51.92291684 12.73034277 35.26765009 6.375 27.5625 C4.90660663 25.71629009 3.44878446 23.86163738 2 22 C1.56880859 21.45102051 1.13761719 20.90204102 0.69335938 20.33642578 C-0.66765107 18.60303587 -2.02276568 16.86524318 -3.375 15.125 C-3.79217285 14.5894751 -4.2093457 14.0539502 -4.63916016 13.50219727 C-11 5.22739602 -11 5.22739602 -11 2 C-3.85631815 -0.65811418 -3.85631815 -0.65811418 0 0 Z " fill="#48153C" transform="translate(223,382)"/>
<path d="M0 0 C3.8099955 1.90499775 7.17446161 4.09722907 10.625 6.5625 C11.24455566 7.00505127 11.86411133 7.44760254 12.50244141 7.90356445 C18.02048116 11.90689016 23.01765859 16.35157213 28 21 C29.26699298 22.08782226 30.53770696 23.17132897 31.8125 24.25 C35.62265454 27.58290726 39.26072612 31.08250666 42.875 34.625 C43.44710205 35.17575195 44.0192041 35.72650391 44.60864258 36.29394531 C47.66667743 39.32684313 49.7550437 41.76084502 51 46 C50.39671875 46.59167969 49.7934375 47.18335938 49.171875 47.79296875 C44.34479969 52.51884846 44.34479969 52.51884846 39.9375 57.625 C37.62123062 60.46429795 35.02117367 62.70051655 32.234375 65.0703125 C30.75799309 66.34536961 29.30885497 67.65274809 27.890625 68.9921875 C22.40793265 74.15348064 16.59086496 78.64250583 10.5 83.0625 C9.69771973 83.64725098 8.89543945 84.23200195 8.06884766 84.83447266 C6.93648682 85.64537354 6.93648682 85.64537354 5.78125 86.47265625 C5.10126953 86.96000244 4.42128906 87.44734863 3.72070312 87.94946289 C2 89 2 89 0 89 C-0.99 85.37 -1.98 81.74 -3 78 C-1.98421875 77.26136719 -0.9684375 76.52273438 0.078125 75.76171875 C12.37612767 66.73358385 23.32423362 56.91839743 34 46 C29.30592318 31.25476433 8.82480978 20.00490284 -3 11 C-2.01 7.37 -1.02 3.74 0 0 Z " fill="#47153C" transform="translate(387,209)"/>
<path d="M0 0 C4.08041019 0.85299795 6.77508189 2.8311175 10 5.375 C10.56162842 5.81183105 11.12325684 6.24866211 11.7019043 6.69873047 C17.75846026 11.47999932 23.40266611 16.69513941 29 22 C27.57583017 31.2261437 15.1378598 38.29355833 8.13671875 43.71484375 C5.73698844 45.46309061 3.6458312 46.74279153 1 48 C-0.7093778 44.28048329 -2.38854861 40.54807827 -4.0625 36.8125 C-4.54783203 35.75740234 -5.03316406 34.70230469 -5.53320312 33.61523438 C-5.98759766 32.59365234 -6.44199219 31.57207031 -6.91015625 30.51953125 C-7.33433838 29.58214111 -7.75852051 28.64475098 -8.19555664 27.67895508 C-9.58418267 23.05455648 -7.91059842 19.46258342 -6.15234375 15.13671875 C-5.61577148 13.80737305 -5.61577148 13.80737305 -5.06835938 12.45117188 C-4.50858398 11.0831543 -4.50858398 11.0831543 -3.9375 9.6875 C-3.56044922 8.75615234 -3.18339844 7.82480469 -2.79492188 6.86523438 C-1.86716875 4.57521083 -0.93541999 2.28690004 0 0 Z " fill="#48153C" transform="translate(380,230)"/>
<path d="M0 0 C0.88300781 0.35771484 1.76601563 0.71542969 2.67578125 1.08398438 C3.57941406 1.45716797 4.48304688 1.83035156 5.4140625 2.21484375 C6.34089844 2.59189453 7.26773438 2.96894531 8.22265625 3.35742188 C10.49708729 4.28360771 12.76905917 5.21537043 15.0390625 6.15234375 C12.04075471 14.61025678 5.21129835 21.07528834 -0.7109375 27.65234375 C-1.17040771 28.16869385 -1.62987793 28.68504395 -2.10327148 29.21704102 C-4.51272409 31.85003752 -6.61380913 33.83851766 -9.9609375 35.15234375 C-16.5188301 28.29636512 -22.97401641 21.42102433 -28.7734375 13.90234375 C-29.19931152 13.35425049 -29.62518555 12.80615723 -30.06396484 12.24145508 C-32.9609375 8.41136377 -32.9609375 8.41136377 -32.9609375 6.15234375 C-29.42945738 4.60704117 -25.88443644 3.09560654 -22.3359375 1.58984375 C-21.33691406 1.15220703 -20.33789062 0.71457031 -19.30859375 0.26367188 C-17.84873047 -0.35024414 -17.84873047 -0.35024414 -16.359375 -0.9765625 C-15.46911621 -1.3588501 -14.57885742 -1.7411377 -13.66162109 -2.13500977 C-8.75588471 -3.42951749 -4.56633764 -1.86804722 0 0 Z " fill="#47153C" transform="translate(264.9609375,371.84765625)"/>
<path d="M0 0 C10.62868401 4.81864416 18.74945001 17.52335969 25 27 C25 27.66 25 28.32 25 29 C21.49066025 30.54838337 17.96608419 32.05854993 14.4375 33.5625 C13.44685547 34.00013672 12.45621094 34.43777344 11.43554688 34.88867188 C3.59276131 38.19775416 -0.90757029 38.28614768 -8.83984375 35.15234375 C-10.5427205 34.42253943 -12.24190918 33.68407573 -13.9375 32.9375 C-14.81212891 32.56044922 -15.68675781 32.18339844 -16.58789062 31.79492188 C-18.72864676 30.87077032 -20.86573647 29.9390249 -23 29 C-19.16170813 21.10966399 -12.9613943 14.74220725 -7.08984375 8.30859375 C-4.64054972 5.60292502 -2.30662349 2.82747396 0 0 Z " fill="#48153C" transform="translate(255,100)"/>
<path d="M0 0 C3 1 3 1 4.18261719 2.96191406 C5.38571056 5.71922271 6.58273408 8.47728317 7.75 11.25 C8.17410156 12.20519531 8.59820312 13.16039062 9.03515625 14.14453125 C9.43089844 15.07136719 9.82664063 15.99820313 10.234375 16.953125 C10.59756836 17.80036133 10.96076172 18.64759766 11.33496094 19.52050781 C12.53919232 24.01029265 10.84791146 27.69164642 9.15234375 31.86328125 C8.79462891 32.74951172 8.43691406 33.63574219 8.06835938 34.54882812 C7.69517578 35.46083984 7.32199219 36.37285156 6.9375 37.3125 C6.37192383 38.70952148 6.37192383 38.70952148 5.79492188 40.13476562 C4.86716875 42.42478917 3.93541999 44.71309996 3 47 C-0.98249505 47 -2.88172996 45.11640023 -5.875 42.75 C-6.43856201 42.31123535 -7.00212402 41.8724707 -7.58276367 41.42041016 C-14.04534494 36.30505672 -20.03609149 30.68084248 -26 25 C-22.40879061 16.61414404 -13.533939 10.41810975 -6.5625 4.8125 C-5.95954102 4.3187085 -5.35658203 3.82491699 -4.73535156 3.31616211 C-3.00390625 1.95703125 -3.00390625 1.95703125 0 0 Z " fill="#47153C" transform="translate(129,230)"/>
<path d="M0 0 C4.82380802 -0.0246519 9.64757967 -0.04283693 14.47143555 -0.05493164 C16.11369464 -0.05997174 17.75594923 -0.06680378 19.39819336 -0.07543945 C21.75375479 -0.08751926 24.10925709 -0.09323139 26.46484375 -0.09765625 C27.20339096 -0.10281754 27.94193817 -0.10797882 28.7028656 -0.11329651 C30.46898088 -0.1134925 32.23497146 -0.06194719 34 0 C35 1 35 1 35.11352539 4.05102539 C35.11336634 5.39991271 35.10767612 6.74880614 35.09765625 8.09765625 C35.0962413 8.80651474 35.09482635 9.51537323 35.09336853 10.24571228 C35.08775443 12.51801712 35.07519963 14.79022475 35.0625 17.0625 C35.05748681 18.59960796 35.05292359 20.13671745 35.04882812 21.67382812 C35.03778042 25.44925642 35.02050641 29.22461171 35 33 C34.34 33 33.68 33 33 33 C33 22.77 33 12.54 33 2 C23.26197335 2.07907548 23.26197335 2.07907548 13.52416992 2.18017578 C12.31349854 2.1851709 11.10282715 2.19016602 9.85546875 2.1953125 C8.61434326 2.20578613 7.37321777 2.21625977 6.09448242 2.22705078 C3 2 3 2 0 0 Z " fill="#AD894D" transform="translate(340,135)"/>
<path d="M0 0 C0.33 0 0.66 0 1 0 C1 5.61 1 11.22 1 17 C-3.95 17 -8.9 17 -14 17 C-14 16.67 -14 16.34 -14 16 C-8.06 15.505 -8.06 15.505 -2 15 C-1.34 10.05 -0.68 5.1 0 0 Z " fill="#5D2E40" transform="translate(320,302)"/>
<path d="M0 0 C0.99 0.33 1.98 0.66 3 1 C-0.63 4.63 -4.26 8.26 -8 12 C-8.99 11.67 -9.98 11.34 -11 11 C-7.37 7.37 -3.74 3.74 0 0 Z " fill="#4F1E3D" transform="translate(91,235)"/>
<path d="M0 0 C0.33 0 0.66 0 1 0 C1.38063221 2.3260857 1.71269945 4.66055264 2 7 C1.67 7.33 1.34 7.66 1 8 C0.76572222 10.01594582 0.58663876 12.038474 0.4375 14.0625 C0.35371094 15.16722656 0.26992187 16.27195312 0.18359375 17.41015625 C0.12300781 18.26480469 0.06242188 19.11945313 0 20 C3.63 20 7.26 20 11 20 C11 20.33 11 20.66 11 21 C7.04 21 3.08 21 -1 21 C-1.02719556 18.62492145 -1.04693247 16.25016036 -1.0625 13.875 C-1.07087891 13.20984375 -1.07925781 12.5446875 -1.08789062 11.859375 C-1.10782292 7.79318646 -0.78890161 3.9879908 0 0 Z " fill="#6B3E42" transform="translate(192,298)"/>
</svg>
