<?xml version="1.0" encoding="utf-8"?>
<!-- Generator: Adobe Illustrator 16.0.0, SVG Export Plug-In . SVG Version: 6.00 Build 0)  -->
<!DOCTYPE svg PUBLIC "-//W3C//DTD SVG 1.1//EN" "http://www.w3.org/Graphics/SVG/1.1/DTD/svg11.dtd">
<svg version="1.1" id="Capa_1" xmlns="http://www.w3.org/2000/svg" xmlns:xlink="http://www.w3.org/1999/xlink" x="0px" y="0px"
	 width="800px" height="600px" viewBox="0 0 800 600" enable-background="new 0 0 800 600" xml:space="preserve">
<g>
	<g>
		<path fill="#FFFFFF" d="M663.937,257.885c-2.455-0.398-4.939-0.582-7.426-0.55H233.223l9.23-4.293
			c9.022-4.271,17.229-10.082,24.255-17.172L385.409,117.17c15.633-14.923,18.259-38.931,6.225-56.882
			c-14.007-19.129-40.869-23.283-60-9.275c-1.545,1.132-3.015,2.366-4.395,3.694L112.59,269.355
			c-16.774,16.756-16.79,43.938-0.033,60.712c0.011,0.011,0.022,0.022,0.033,0.033l214.648,214.648
			c16.788,16.741,43.969,16.704,60.712-0.084c1.317-1.321,2.548-2.728,3.683-4.209c12.035-17.951,9.409-41.958-6.225-56.882
			L266.923,364.659c-6.299-6.305-13.541-11.592-21.465-15.669l-12.879-5.796h421.569c21.931,0.814,41.171-14.505,45.291-36.061
			C703.234,283.73,687.34,261.682,663.937,257.885z"/>
	</g>
</g>
</svg>
