<svg id="Layer_1" data-name="Layer 1" xmlns="http://www.w3.org/2000/svg" viewBox="0 0 512 512"><defs><style>.cls-1{fill:#333;}.cls-2{fill:#f9f9f9;}</style></defs><circle id="background" class="cls-1" cx="256" cy="256" r="256"/><path class="cls-2" d="M297.35,126.26a46.87,46.87,0,1,1-46.86-46.87A46.91,46.91,0,0,1,297.35,126.26Z" transform="translate(5.5 -4.5)"/><path class="cls-2" d="M320.09,432.74a12.12,12.12,0,0,1-10.43,4,8.42,8.42,0,0,1-6.47-4.21c-2.37-3.94-3.11-10.73-2.14-19.6,1.28-11.66,5.47-27.06,12.45-45.81a3.94,3.94,0,0,0-1.05-4.29l-26.89-24.38,27.34-34.6c8.54,3.44,36,16.45,43,42.81,6.35,24.06-5.71,53-35.79,86.1Z" transform="translate(5.5 -4.5)"/><path class="cls-2" d="M200.23,412.91c1,8.87.23,15.66-2.14,19.6a8.48,8.48,0,0,1-6.47,4.21,12,12,0,0,1-10.43-4c-30.06-33.07-42.12-62-35.81-86,3.4-12.94,12-24.22,25.57-33.51a93.25,93.25,0,0,1,17.41-9.35l27.34,34.6-26.88,24.36a4,4,0,0,0-1,4.29C194.76,385.85,199,401.25,200.23,412.91Z" transform="translate(5.5 -4.5)"/><path class="cls-2" d="M307.68,276.41V297.8L278.32,335H223l-29.39-37.18V276.41Z" transform="translate(5.5 -4.5)"/><path class="cls-2" d="M389.41,274.48a17,17,0,0,1-29,10.29l-46.07-46.08a3.92,3.92,0,0,0-6.71,2.77v27.11H193.62V241.46a4,4,0,0,0-2.42-3.63,3.91,3.91,0,0,0-4.28.86l-46.38,46.38A17,17,0,0,1,116.48,261l57-57A78,78,0,0,1,229,181H272.2a77.94,77.94,0,0,1,55.47,23l56.85,56.78a16.94,16.94,0,0,1,4.89,13.77Z" transform="translate(5.5 -4.5)"/></svg>