<?xml version="1.0" encoding="utf-8"?>
<!-- Generator: Adobe Illustrator 16.0.0, SVG Export Plug-In . SVG Version: 6.00 Build 0)  -->
<!DOCTYPE svg PUBLIC "-//W3C//DTD SVG 1.1//EN" "http://www.w3.org/Graphics/SVG/1.1/DTD/svg11.dtd">
<svg version="1.1" id="Layer_1" xmlns="http://www.w3.org/2000/svg" xmlns:xlink="http://www.w3.org/1999/xlink" x="0px" y="0px"
	 width="512px" height="512px" viewBox="0 0 512 512" enable-background="new 0 0 512 512" xml:space="preserve">
<path fill="#FFFFFF" stroke="#FFFFFF" stroke-miterlimit="10" d="M261.6,63.84c-1.76-0.16-8.8-0.16-10.56,0
	C147.2,66.4,63.68,151.52,63.68,256c0,71.68,39.52,136.96,103.04,170.4c2.24,1.119,4.8,1.76,7.36,1.76c5.76,0,11.36-3.04,14.24-8.48
	c4-7.84,0.96-17.6-6.72-21.6c-23.04-12.16-42.56-29.44-56.96-50.08c10.72-5.76,23.36-10.72,37.12-14.72
	c2.08,6.56,8.32,11.04,15.2,11.04c1.12,0,2.24-0.158,3.52-0.32c8.48-1.92,13.92-10.56,12.158-19.2c-4.96-21.6-7.36-44.8-7.36-68.8
	c0-13.92,0.8-27.2,2.4-39.68c22.4,4.32,46.4,6.56,71.041,6.56c22.88,0,45.439-1.92,66.72-5.6c0.96,7.36,1.601,15.04,1.92,22.882
	c0.479,8.8,8,15.36,16.8,15.2c8.801-0.48,15.52-8,15.2-16.8c-0.479-9.76-1.28-19.2-2.399-28.32c16.959-4.64,32.64-10.56,46.56-17.6
	c6.399,15.2,10.56,31.68,12.16,48.96c0.8,8.8,8.479,15.2,17.439,14.4c8.8-0.8,15.2-8.48,14.4-17.28
	C438.88,140.8,359.359,66.4,261.6,63.84L261.6,63.84z M156.16,301.76c-17.44,4.641-33.28,10.721-47.04,18.4
	c-8.8-19.84-13.44-41.6-13.44-64.16c0-23.36,4.96-45.44,14.08-65.44c13.92,7.36,29.6,13.6,46.72,18.4
	c-2.24,15.04-3.2,30.72-3.2,47.04C153.28,271.68,154.24,286.88,156.16,301.76L156.16,301.76z M162.08,177.44
	c-13.28-4-25.6-8.96-36.32-14.72c15.84-22.24,37.44-40.16,62.4-51.84C176.96,129.12,168,151.68,162.08,177.44z M258.721,190.88
	c-22.721,0-44.961-1.92-65.601-6.08c12.64-54.4,38.72-88.64,62.88-89.12h0.48h0.32c23.841,0.32,50.72,33.44,63.36,89.92
	C300.641,189.12,279.84,190.88,258.721,190.88L258.721,190.88z M351.359,178.56c-5.76-26.08-14.56-48.96-25.76-67.2
	c25.28,12,46.721,30.4,62.4,53.28C376.96,170.08,364.641,174.72,351.359,178.56z"/>
<path fill="#FFFFFF" d="M412.905,447.523H243.609c-19.531,0-35.422-15.892-35.422-35.423V306.812
	c0-19.531,15.892-35.423,35.422-35.423h169.298c19.531,0,35.423,15.892,35.423,35.423v105.289
	C448.328,431.634,432.437,447.523,412.905,447.523L412.905,447.523z M243.609,303.391c-1.891,0-3.422,1.531-3.422,3.422v105.29
	c0,1.891,1.531,3.422,3.422,3.422h169.298c1.892,0,3.423-1.531,3.423-3.422v-105.29c0-1.891-1.531-3.422-3.423-3.422H243.609z"/>
<path fill="#FFFFFF" d="M287.938,367.453h-16c-8.844,0-16-7.165-16-16v-16c0-8.836,7.156-16,16-16h16c8.844,0,16,7.164,16,16v16
	C303.938,360.29,296.781,367.453,287.938,367.453z"/>
<path fill="#FFFFFF" d="M384.359,399.391h-32.17c-8.844,0-16-7.165-16-16s7.156-16,16-16h32.17c8.844,0,16.001,7.165,16.001,16
	S393.203,399.391,384.359,399.391z"/>
</svg>
