<?xml version="1.0" encoding="utf-8"?>
<!-- Generator: Adobe Illustrator 16.0.0, SVG Export Plug-In . SVG Version: 6.00 Build 0)  -->
<!DOCTYPE svg PUBLIC "-//W3C//DTD SVG 1.1//EN" "http://www.w3.org/Graphics/SVG/1.1/DTD/svg11.dtd">
<svg version="1.1" id="Layer_1" xmlns="http://www.w3.org/2000/svg" xmlns:xlink="http://www.w3.org/1999/xlink" x="0px" y="0px"
	 width="445px" height="515px" viewBox="0 0 445 515" enable-background="new 0 0 445 515" xml:space="preserve">
<path fill="#EF6614" d="M46.011,481.954l123.502-449.9c0,0,13.487-18.054,22.394,3.393c9.876,23.781,43.429,96.359,43.429,96.359
	l26.465-99.752c0,0,12.215-19,21.035-1.357l96.358,211.04l4.752,11.536c0,0,8.143,12.892-2.036,19L155.941,498.239
	c0,0-16.286,13.573-16.286-9.499l24.429-91.609l-100.43,99.752C63.654,496.883,41.261,514.525,46.011,481.954z"/>
<path fill="#EAEAEA" d="M74.512,456.847l194.752-196.111c0,0,2.376-2.544-2.713-9.5l-85.502-187.29L74.512,456.847z"/>
<path fill="#EEEEEE" d="M248.906,160.984l42.073,92.965c0,0,5.429,11.367-2.036,16.965l-95.001,95.001l-25.108,89.573
	l192.718-190.682c0,0,6.107-3.394,0.678-9.5L275.371,63.947L248.906,160.984z"/>
</svg>
