<svg id="Layer_1" height="512" viewBox="0 0 64 64" width="512" xmlns="http://www.w3.org/2000/svg"><g><g><path d="m63.9 39.7c0-.8-.6-1.5-1.4-1.7l.1-6 .5-25c0-1.2-1.6-1.7-2.3-.7-.9 1.6-1.6 3.3-1.8 5.2l-2.7 20.5-.2 1.5c-.1.7.5 1.4 1.2 1.4h1.6c.3 0 .6.1.9.3.2.2.4.5.4.9v1.8h-.6c-.5 0-.9.2-1.3.5-.3.3-.5.8-.5 1.3l.1 15.5c0 1 .8 1.8 1.8 1.8v1.2-1.2h2.6c1 0 1.8-.8 1.8-1.8z"/></g><path d="m33.2 17.1c-8.2 0-14.8 6.7-14.8 14.8 0 8.2 6.6 14.8 14.8 14.8s14.8-6.6 14.8-14.8c0-8.1-6.6-14.8-14.8-14.8zm0 5c-5.4 0-9.8 4.4-9.8 9.8 0 .6-.5 1.2-1.2 1.2s-1.2-.5-1.2-1.2c0-6.7 5.5-12.2 12.2-12.2.7 0 1.2.5 1.2 1.2s-.5 1.2-1.2 1.2zm0-5c-8.2 0-14.8 6.7-14.8 14.8 0 8.2 6.6 14.8 14.8 14.8s14.8-6.6 14.8-14.8c0-8.1-6.6-14.8-14.8-14.8zm0 5c-5.4 0-9.8 4.4-9.8 9.8 0 .6-.5 1.2-1.2 1.2s-1.2-.5-1.2-1.2c0-6.7 5.5-12.2 12.2-12.2.7 0 1.2.5 1.2 1.2s-.5 1.2-1.2 1.2zm0-10.8c-11.4 0-20.7 9.3-20.7 20.7s9.3 20.7 20.7 20.7 20.7-9.3 20.7-20.7c0-11.5-9.3-20.7-20.7-20.7zm0 37.8c-9.5 0-17.2-7.7-17.2-17.2s7.7-17.2 17.2-17.2 17.2 7.7 17.2 17.2-7.7 17.2-17.2 17.2zm0-32c-8.2 0-14.8 6.7-14.8 14.8 0 8.2 6.6 14.8 14.8 14.8s14.8-6.6 14.8-14.8c0-8.1-6.6-14.8-14.8-14.8zm0 5c-5.4 0-9.8 4.4-9.8 9.8 0 .6-.5 1.2-1.2 1.2s-1.2-.5-1.2-1.2c0-6.7 5.5-12.2 12.2-12.2.7 0 1.2.5 1.2 1.2s-.5 1.2-1.2 1.2z"/><g><path d="m12.5 6.9-.1 13.4c0 3.4-2.8 6.1-6.2 6.1-3.4 0-6.2-2.7-6.2-6.1v-13.4c0-.6.5-1.1 1.1-1.1s1.1.5 1.1 1.1v11.3c0 .7.6 1.3 1.3 1.3h.3c.7 0 1.3-.6 1.3-1.3v-11.3c0-.6.5-1.1 1.1-1.1h.2c.6 0 1.1.5 1.1 1.1v11.3c0 .7.6 1.3 1.3 1.3h.2c.7 0 1.3-.6 1.3-1.3v-11.3c0-.6.5-1.1 1.1-1.1s1.1.5 1.1 1.1z"/><path d="m7.4 58.3h-2.3c-1.6 0-2.9-1.3-2.9-2.9v-11.7c0-1.6 1.3-2.9 2.9-2.9h2.3c1.6 0 2.9 1.3 2.9 2.9v11.6c.1 1.6-1.3 3-2.9 3z"/><path d="m8.4 28.4v10.5c-.7-.2-1.4-.4-2.2-.4s-1.5.1-2.1.4v-10.5c.7.2 1.4.3 2.2.3h.1c.6 0 1.4-.1 2-.3z"/></g></g></svg>