<svg id="Layer_1" viewBox="0 0 512 512" xmlns="http://www.w3.org/2000/svg" data-name="Layer 1"><path d="m439.911 303.155v-226.729c0-16.114-13.109-29.224-29.224-29.224h-37.532v-14.26c0-13.238-10.782-24.008-24.036-24.008s-24.007 10.77-24.007 24.008v14.26h-35.408v-14.26c0-13.238-10.782-24.008-24.036-24.008s-24.008 10.77-24.008 24.008v14.26h-35.408v-14.26c0-13.238-10.782-24.008-24.036-24.008s-24.008 10.77-24.008 24.008v14.26h-35.408v-14.26c0-13.238-10.782-24.008-24.036-24.008s-24.008 10.77-24.008 24.008v14.26h-37.532c-16.114 0-29.224 13.11-29.224 29.224v362.692c0 16.129 13.109 29.252 29.224 29.252h285.4c19.042 21.279 46.698 34.696 77.433 34.696 57.314 0 103.943-46.617 103.943-103.916 0-43.202-26.496-80.328-64.089-95.995zm-331.111-255.953h-20.044v-14.26c0-5.519 4.489-10.008 10.008-10.008s10.036 4.489 10.036 10.008zm83.452 0h-20.043v-14.26c0-5.519 4.489-10.008 10.008-10.008s10.036 4.489 10.036 10.008v14.26zm83.452 0h-20.044v-14.26c0-5.519 4.489-10.008 10.008-10.008s10.036 4.489 10.036 10.008zm63.408-14.26c0-5.519 4.489-10.008 10.008-10.008s10.036 4.489 10.036 10.008v14.26h-20.044z" fill="#eceff1"/><path d="m313.842 341.181c-1.245-1.14-2.898-1.841-4.72-1.841h-38.069c-3.866 0-7 3.134-7 7v38.069c0 3.866 3.134 7 7 7h25.376c1.368-18.5 7.597-35.668 17.413-50.228z" fill="#8ac9fe"/><path d="m410.687 47.202h-71.576v21.684c0 5.519 4.489 10.008 10.008 10.008 3.866 0 7 3.134 7 7s-3.134 7-7 7c-13.238 0-24.008-10.77-24.008-24.008v-21.684h-69.452v21.684c0 5.519 4.489 10.008 10.008 10.008 3.866 0 7 3.134 7 7s-3.134 7-7 7c-13.238 0-24.008-10.77-24.008-24.008v-21.684h-69.452v21.684c0 5.519 4.489 10.008 10.008 10.008 3.866 0 7 3.134 7 7s-3.134 7-7 7c-13.238 0-24.008-10.77-24.008-24.008v-21.684h-69.452v21.684c0 5.519 4.489 10.008 10.008 10.008 3.866 0 7 3.134 7 7s-3.134 7-7 7c-13.238 0-24.008-10.77-24.008-24.008v-21.684h-37.532c-16.114 0-29.224 13.11-29.224 29.224v56.325h431.911v-56.325c0-16.114-13.109-29.224-29.224-29.224z" fill="#fe646f"/><path d="m410.687 47.202h-15c16.114 0 29.224 13.11 29.224 29.224v56.325h15v-56.325c0-16.114-13.109-29.224-29.224-29.224z" fill="#fd4755"/><rect fill="#8ac9fe" height="52.069" rx="7" width="52.069" x="128.444" y="339.312"/><rect fill="#8ac9fe" height="52.069" rx="7" width="52.069" x="60.611" y="257.136"/><rect fill="#8ac9fe" height="52.069" rx="7" width="52.069" x="60.611" y="174.931"/><rect fill="#8ac9fe" height="52.069" rx="7" width="52.069" x="60.611" y="339.312"/><rect fill="#8ac9fe" height="52.069" rx="7" width="52.069" x="264.053" y="257.136"/><path d="m271.053 309.205h38.069c3.866 0 7-3.134 7-7v-38.069c0-3.866-3.134-7-7-7h-1.587c.072.403.116.817.116 1.241v38.069c0 3.866-3.134 7-7 7h-36.482c.586 3.273 3.442 5.759 6.884 5.759z" fill="#60b7ff"/><rect fill="#8ac9fe" height="52.069" rx="7" width="52.069" x="264.053" y="174.931"/><rect fill="#8ac9fe" height="52.069" rx="7" width="52.069" x="331.858" y="174.931"/><rect fill="#8ac9fe" height="52.069" rx="7" width="52.069" x="196.249" y="174.931"/><rect fill="#8ac9fe" height="52.069" rx="7" width="52.069" x="196.249" y="257.136"/><rect fill="#8ac9fe" height="52.069" rx="7" width="52.069" x="128.444" y="257.136"/><rect fill="#8ac9fe" height="52.069" rx="7" width="52.069" x="128.444" y="174.931"/><rect fill="#8ac9fe" height="52.069" rx="7" width="52.069" x="196.249" y="339.312"/><g fill="#60b7ff"><path d="m105.68 174.931h-1.587c.072.403.116.817.116 1.241v38.069c0 3.866-3.134 7-7 7h-36.482c.586 3.273 3.442 5.759 6.884 5.759h38.069c3.866 0 7-3.134 7-7v-38.069c0-3.866-3.134-7-7-7z"/><path d="m173.513 339.312h-1.587c.072.403.116.817.116 1.241v38.069c0 3.866-3.134 7-7 7h-36.482c.586 3.273 3.442 5.759 6.884 5.759h38.069c3.866 0 7-3.134 7-7v-38.069c0-3.866-3.134-7-7-7z"/><path d="m105.68 257.136h-1.587c.072.403.116.817.116 1.241v38.069c0 3.866-3.134 7-7 7h-36.482c.586 3.273 3.442 5.759 6.884 5.759h38.069c3.866 0 7-3.134 7-7v-38.069c0-3.866-3.134-7-7-7z"/><path d="m338.858 227.001h38.069c3.866 0 7-3.134 7-7v-38.069c0-3.866-3.134-7-7-7h-1.587c.072.403.116.817.116 1.241v38.069c0 3.866-3.134 7-7 7h-36.482c.586 3.273 3.442 5.759 6.884 5.759z"/><path d="m271.053 227.001h38.069c3.866 0 7-3.134 7-7v-38.069c0-3.866-3.134-7-7-7h-1.587c.072.403.116.817.116 1.241v38.069c0 3.866-3.134 7-7 7h-36.482c.586 3.273 3.442 5.759 6.884 5.759z"/><path d="m105.68 339.312h-1.587c.072.403.116.817.116 1.241v38.069c0 3.866-3.134 7-7 7h-36.482c.586 3.273 3.442 5.759 6.884 5.759h38.069c3.866 0 7-3.134 7-7v-38.069c0-3.866-3.134-7-7-7z"/><path d="m173.513 257.136h-1.587c.072.403.116.817.116 1.241v38.069c0 3.866-3.134 7-7 7h-36.482c.586 3.273 3.442 5.759 6.884 5.759h38.069c3.866 0 7-3.134 7-7v-38.069c0-3.866-3.134-7-7-7z"/><path d="m173.513 174.931h-1.587c.072.403.116.817.116 1.241v38.069c0 3.866-3.134 7-7 7h-36.482c.586 3.273 3.442 5.759 6.884 5.759h38.069c3.866 0 7-3.134 7-7v-38.069c0-3.866-3.134-7-7-7z"/><path d="m241.318 174.931h-1.587c.072.403.116.817.116 1.241v38.069c0 3.866-3.134 7-7 7h-36.482c.586 3.273 3.442 5.759 6.884 5.759h38.069c3.866 0 7-3.134 7-7v-38.069c0-3.866-3.134-7-7-7z"/><path d="m241.318 257.136h-1.587c.072.403.116.817.116 1.241v38.069c0 3.866-3.134 7-7 7h-36.482c.586 3.273 3.442 5.759 6.884 5.759h38.069c3.866 0 7-3.134 7-7v-38.069c0-3.866-3.134-7-7-7z"/><path d="m241.318 339.312h-1.587c.072.403.116.817.116 1.241v38.069c0 3.866-3.134 7-7 7h-36.482c.586 3.273 3.442 5.759 6.884 5.759h38.069c3.866 0 7-3.134 7-7v-38.069c0-3.866-3.134-7-7-7z"/></g><path d="m356.119 85.894c0 3.866-3.134 7-7 7-13.238 0-24.008-10.77-24.008-24.008v-35.943c0-13.238 10.769-24.008 24.008-24.008s24.036 10.77 24.036 24.008v14.26h-14v-14.26c0-5.519-4.502-10.008-10.036-10.008s-10.008 4.489-10.008 10.008v35.943c0 5.519 4.489 10.008 10.008 10.008 3.866 0 7 3.134 7 7zm-90.452-7c-5.519 0-10.008-4.489-10.008-10.008v-35.943c0-5.519 4.489-10.008 10.008-10.008s10.036 4.489 10.036 10.008v14.26h14v-14.26c0-13.238-10.782-24.008-24.036-24.008s-24.008 10.77-24.008 24.008v35.943c0 13.238 10.769 24.008 24.008 24.008 3.866 0 7-3.134 7-7s-3.134-7-7-7zm-83.452 0c-5.519 0-10.008-4.489-10.008-10.008v-35.943c0-5.519 4.489-10.008 10.008-10.008s10.036 4.489 10.036 10.008v14.26h14v-14.26c0-13.238-10.782-24.008-24.036-24.008s-24.008 10.77-24.008 24.008v35.943c0 13.238 10.769 24.008 24.008 24.008 3.866 0 7-3.134 7-7s-3.134-7-7-7zm-83.452 0c-5.519 0-10.008-4.489-10.008-10.008v-35.943c0-5.519 4.489-10.008 10.008-10.008s10.036 4.489 10.036 10.008v14.26h14v-14.26c0-13.238-10.782-24.008-24.036-24.008s-24.008 10.77-24.008 24.008v35.943c0 13.238 10.769 24.008 24.008 24.008 3.866 0 7-3.134 7-7s-3.134-7-7-7z" fill="#9facba"/><g fill="#fd4755"><path d="m182.215 92.894c-5.87 0-11.252-2.121-15.427-5.632.694 7.924 7.337 14.143 15.442 14.143 8.566 0 15.511-6.944 15.511-15.511s-6.944-15.511-15.511-15.511c-3.357 0-6.457 1.078-8.995 2.89 1.63 3.322 5.038 5.62 8.981 5.62 3.866 0 7 3.134 7 7s-3.134 7-7 7z"/><path d="m349.119 92.894c-5.856 0-11.227-2.11-15.398-5.606.706 7.912 7.344 14.117 15.44 14.117 8.566 0 15.511-6.944 15.511-15.511s-6.944-15.511-15.511-15.511c-3.366 0-6.474 1.084-9.016 2.906 1.633 3.314 5.036 5.605 8.974 5.605 3.866 0 7 3.134 7 7s-3.134 7-7 7z"/><path d="m98.764 92.894c-5.877 0-11.265-2.126-15.442-5.645.688 7.931 7.333 14.156 15.442 14.156 8.566 0 15.511-6.944 15.511-15.511s-6.944-15.511-15.511-15.511c-3.353 0-6.448 1.074-8.985 2.883 1.628 3.326 5.038 5.628 8.985 5.628 3.866 0 7 3.134 7 7s-3.134 7-7 7z"/><path d="m265.667 92.894c-5.863 0-11.239-2.115-15.413-5.619.7 7.918 7.341 14.13 15.441 14.13 8.566 0 15.511-6.944 15.511-15.511s-6.944-15.511-15.511-15.511c-3.362 0-6.465 1.081-9.006 2.898 1.631 3.318 5.037 5.613 8.977 5.613 3.866 0 7 3.134 7 7s-3.134 7-7 7z"/></g><path d="m400.057 295.205c-57.3 0-103.916 46.629-103.916 103.944s46.616 103.916 103.916 103.916 103.943-46.617 103.943-103.916-46.629-103.944-103.943-103.944z" fill="#6cf5c2"/><path d="m400.057 295.206c-2.014 0-4.013.064-5.999.177 54.532 3.12 97.942 48.466 97.942 103.767s-43.41 100.619-97.942 103.738c1.986.114 3.985.177 5.999.177 57.314 0 103.943-46.617 103.943-103.916s-46.628-103.944-103.943-103.944z" fill="#00e499"/><g fill="#60b7ff"><path d="m307.652 351.633c1.864-3.611 3.931-7.101 6.19-10.452-1.245-1.14-2.898-1.841-4.72-1.841h-1.587c.072.403.116.817.116 1.241v11.052z"/><path d="m297.017 385.65h-32.848c.586 3.273 3.442 5.759 6.884 5.759h25.376c.143-1.935.339-3.855.587-5.759z"/></g><path d="m338.858 309.205h9.164c10.878-6.322 23.001-10.725 35.905-12.745v-32.324c0-3.866-3.134-7-7-7h-38.069c-3.866 0-7 3.134-7 7v38.069c0 3.866 3.134 7 7 7z" fill="#8ac9fe"/><g fill="#60b7ff"><path d="m375.456 296.446c0 .612-.086 1.202-.234 1.768 2.858-.704 5.76-1.293 8.705-1.754v-32.324c0-3.866-3.134-7-7-7h-1.587c.072.403.116.817.116 1.241z"/><path d="m338.858 309.205h9.164c3.693-2.146 7.529-4.073 11.491-5.759h-27.539c.586 3.273 3.442 5.759 6.884 5.759z"/></g><path d="m356.092 411.027c-4.706-4.592-4.819-12.16-.227-16.866 4.592-4.734 12.161-4.847 16.866-.255l13.663 13.294 40.903-41.3c4.677-4.649 12.217-4.62 16.866.057s4.621 12.217-.028 16.866l-49.237 49.521c-4.592 4.592-12.047 4.649-16.724.113l-22.081-21.43z" fill="#fff"/><path d="m304.772 440.59h-267.548c-16.114 0-29.224-13.123-29.224-29.252v27.779c0 16.129 13.109 29.252 29.224 29.252h285.4c-7.336-8.198-13.392-17.563-17.852-27.779z" fill="#d2d9db"/><path d="m439.911 303.155v-170.404h-15v165.466c5.161 1.271 10.172 2.927 15 4.938z" fill="#d2d9db"/></svg>