<svg id="Layer_1" data-name="Layer 1" xmlns="http://www.w3.org/2000/svg" viewBox="0 0 512 512"><defs><style>.cls-1{fill:#333;}.cls-2{fill:#fff;}</style></defs><circle id="background" class="cls-1" cx="256" cy="256" r="256"/><g id="Icon"><g id="BoyReaching"><path class="cls-2" d="M399.54,115.79a27.75,27.75,0,0,0-36.41,5.47c-17.28,20.56-49.85,50.28-95.73,54.41H245.78c-45.87-4.13-78.44-33.85-95.72-54.41a27.67,27.67,0,1,0-42,36C125.38,177,154.47,203.48,195.08,218V414.06a25.39,25.39,0,0,0,50.78,0V334.69h21.76v79.44a25.39,25.39,0,0,0,50.78,0V218.06c40.6-14.51,69.69-41,87-60.74a27.88,27.88,0,0,0-5.9-41.53Z" transform="translate(-0.5 -0.5)"/><circle class="cls-2" cx="256.09" cy="119.7" r="44.8"/></g></g></svg>