<?xml version="1.0" encoding="utf-8"?>
<!-- Generator: Adobe Illustrator 16.0.0, SVG Export Plug-In . SVG Version: 6.00 Build 0)  -->
<!DOCTYPE svg PUBLIC "-//W3C//DTD SVG 1.1//EN" "http://www.w3.org/Graphics/SVG/1.1/DTD/svg11.dtd">
<svg version="1.1" id="Layer_2" xmlns="http://www.w3.org/2000/svg" xmlns:xlink="http://www.w3.org/1999/xlink" x="0px" y="0px"
	 width="512px" height="512px" viewBox="0 0 512 512" enable-background="new 0 0 512 512" xml:space="preserve">
<path fill="#FF0B00" d="M256,21.333C126.397,21.333,21.333,126.397,21.333,256c0,129.603,105.063,234.667,234.667,234.667
	c129.604,0,234.667-105.064,234.667-234.667C490.514,126.46,385.539,21.486,256,21.333z M256,448c-106.039,0-192-85.961-192-192
	c0-106.039,85.961-192,192-192c106.039,0,192,85.961,192,192C447.871,361.985,361.984,447.871,256,448z"/>
<path fill="#FF0B00" d="M277.334,247.168V128c0-11.782-9.552-21.333-21.334-21.333s-21.333,9.551-21.333,21.333v128
	c0.001,5.658,2.25,11.083,6.251,15.082l64,64.001c8.475,8.185,21.979,7.95,30.164-0.524c7.986-8.267,7.986-21.374,0-29.641
	L277.334,247.168z"/>
</svg>
