<?xml version="1.0" encoding="utf-8"?>
<!-- Generator: Adobe Illustrator 16.0.0, SVG Export Plug-In . SVG Version: 6.00 Build 0)  -->
<!DOCTYPE svg PUBLIC "-//W3C//DTD SVG 1.1//EN" "http://www.w3.org/Graphics/SVG/1.1/DTD/svg11.dtd">
<svg version="1.1" id="Layer_1" xmlns="http://www.w3.org/2000/svg" xmlns:xlink="http://www.w3.org/1999/xlink" x="0px" y="0px"
	 width="512px" height="512px" viewBox="0 0 512 512" enable-background="new 0 0 512 512" xml:space="preserve">
<circle fill="none" stroke="#FFFBFA" stroke-width="20" stroke-miterlimit="10" cx="263.464" cy="257.403" r="217.5"/>
<path fill="#F9F7F7" d="M286.55,257.409l98.128-99.676c6.374-6.476,6.374-16.975,0-23.451c-6.375-6.476-16.711-6.476-23.086,0
	l-98.128,99.677l-98.127-99.677c-6.375-6.476-16.711-6.476-23.087,0c-6.375,6.476-6.375,16.975,0,23.451l98.128,99.676
	l-98.128,99.678c-6.234,6.615-6.01,17.11,0.502,23.442c6.315,6.142,16.273,6.139,22.585-0.008l98.127-99.661l98.128,99.661
	c6.375,6.477,16.711,6.477,23.086,0c6.374-6.476,6.374-16.975,0-23.449L286.55,257.409z"/>
</svg>
