<?xml version="1.0" encoding="utf-8"?>
<!-- Generator: Adobe Illustrator 16.0.0, SVG Export Plug-In . SVG Version: 6.00 Build 0)  -->
<!DOCTYPE svg PUBLIC "-//W3C//DTD SVG 1.1//EN" "http://www.w3.org/Graphics/SVG/1.1/DTD/svg11.dtd">
<svg version="1.1" id="Layer_1" xmlns="http://www.w3.org/2000/svg" xmlns:xlink="http://www.w3.org/1999/xlink" x="0px" y="0px"
	 width="800px" height="600px" viewBox="0 0 800 600" enable-background="new 0 0 800 600" xml:space="preserve">
<path fill="#F9F7F7" d="M454.968,300.009L688.61,66.367c15.18-15.179,15.18-39.789,0-54.968c-15.179-15.179-39.789-15.179-54.968,0
	L400,245.041L166.357,11.398c-15.179-15.179-39.789-15.179-54.968,0c-15.179,15.179-15.179,39.789,0,54.968l233.643,233.643
	L111.389,533.651c-14.844,15.504-14.31,40.105,1.194,54.95c15.037,14.396,38.748,14.389,53.774-0.019L400,354.978l233.643,233.605
	c15.179,15.18,39.789,15.18,54.968,0c15.18-15.179,15.18-39.789,0-54.968L454.968,300.009z"/>
</svg>
