<?xml version="1.0" encoding="utf-8"?>
<!-- Generator: Adobe Illustrator 16.0.0, SVG Export Plug-In . SVG Version: 6.00 Build 0)  -->
<!DOCTYPE svg PUBLIC "-//W3C//DTD SVG 1.1//EN" "http://www.w3.org/Graphics/SVG/1.1/DTD/svg11.dtd">
<svg version="1.1" id="Layer_1" xmlns="http://www.w3.org/2000/svg" xmlns:xlink="http://www.w3.org/1999/xlink" x="0px" y="0px"
	 width="512px" height="512px" viewBox="0 0 512 512" enable-background="new 0 0 512 512" xml:space="preserve">
<path fill="#666565" d="M384,464H192c-26.51,0-48-21.49-48-48V160c0-26.51,21.49-48,48-48h192c26.51,0,48,21.49,48,48v256
	C432,442.51,410.51,464,384,464z M192,144c-8.836,0-16,7.164-16,16v256c0,8.837,7.164,16,16,16h192c8.836,0,16-7.163,16-16V160
	c0-8.836-7.164-16-16-16H192z"/>
<path fill="#666565" d="M96,304c-8.836,0-16-7.164-16-16V96c0-26.51,21.49-48,48-48h160c8.836,0,16,7.164,16,16s-7.164,16-16,16H128
	c-8.836,0-16,7.164-16,16v192C112,296.836,104.836,304,96,304z"/>
</svg>
