<?xml version="1.0" encoding="utf-8"?>
<!-- Generator: Adobe Illustrator 16.0.0, SVG Export Plug-In . SVG Version: 6.00 Build 0)  -->
<!DOCTYPE svg PUBLIC "-//W3C//DTD SVG 1.1//EN" "http://www.w3.org/Graphics/SVG/1.1/DTD/svg11.dtd">
<svg version="1.1" id="Layer_1" xmlns="http://www.w3.org/2000/svg" xmlns:xlink="http://www.w3.org/1999/xlink" x="0px" y="0px"
	 width="100px" height="100px" viewBox="0 0 100 100" enable-background="new 0 0 100 100" xml:space="preserve">
<path fill="#FFFFFF" d="M62.204,70.197c0.009,0.201-0.006,0.39-0.05,0.563c-0.043,0.174-0.109,0.327-0.206,0.465
	c-0.097,0.135-0.22,0.248-0.371,0.336c-0.153,0.088-0.335,0.146-0.55,0.182c-0.211,0.031-0.396,0.027-0.555-0.012
	c-0.156-0.041-0.289-0.111-0.396-0.217c-0.104-0.104-0.188-0.236-0.244-0.396c-0.06-0.159-0.093-0.341-0.104-0.543
	c-0.013-0.272,0.021-0.517,0.102-0.73c0.08-0.216,0.209-0.394,0.388-0.532c0.179-0.142,0.408-0.23,0.692-0.275
	c0.279-0.042,0.516-0.023,0.701,0.061c0.188,0.084,0.33,0.221,0.429,0.407S62.189,69.924,62.204,70.197z"/>
<path fill="#FFFFFF" d="M65.133,70.854l-0.693,0.142l-1.306-1.754l-0.016,0.003c0.012,0.082,0.022,0.164,0.034,0.247
	c0.013,0.082,0.021,0.166,0.033,0.249c0.014,0.08,0.022,0.162,0.033,0.246l0.114,1.23l-0.487,0.1l-0.242-2.617l0.688-0.141
	l1.302,1.732l0.012-0.002c-0.01-0.081-0.021-0.16-0.028-0.24c-0.013-0.078-0.021-0.156-0.034-0.236
	c-0.009-0.078-0.02-0.158-0.027-0.237l-0.117-1.241l0.492-0.1L65.133,70.854z"/>
<path fill="#0C6C82" d="M100,91.35c0,6.711-0.896,9.15-7.857,9.15H9.608c-6.963,0-9.607-2-9.607-8.15V9.151
	C0.001,2.44,1.646,0,8.608,0h82.533C98.104,0,100,2.44,100,9.151V91.35z"/>
<circle fill="#0892B2" cx="51.537" cy="50.25" r="25.905"/>
<path fill="#E7ECEE" d="M1.843,74.814H36.03c0,0,0.687-3.75-3.861-3.793c0,0,0.205-1.766-2.982-1.766
	c-3.187,0-2.645,1.766-2.645,1.766s-1.602-1.984-6.458-0.619c0,0,2.745-2.559-0.991-3.527c-3.734-0.973-6.77,0.484-6.551,2.646
	c0,0-1.109-1.457-3.432-0.528c-2.318,0.926-2.613,2.338-0.682,3.044C8.427,72.037,1.178,71.598,1.843,74.814z"/>
<g>
	<path fill="#FFFFFF" d="M36.58,50.021c0.011,0.514,0.229,0.739,0.654,0.686c0.426-0.057,0.632-0.339,0.619-0.852l-0.138-6.088
		l1.164-0.152l0.136,6.011c0.014,0.64-0.132,1.15-0.436,1.539c-0.307,0.379-0.758,0.607-1.354,0.688
		c-0.597,0.076-1.056-0.031-1.377-0.328c-0.32-0.307-0.488-0.777-0.502-1.417l-0.137-6.013l1.229-0.161L36.58,50.021z"/>
	<path fill="#FFFFFF" d="M41.536,43.268c0.61-0.081,1.073,0.025,1.387,0.316s0.478,0.756,0.492,1.395l0.022,1.026
		c0.015,0.639-0.127,1.144-0.426,1.515c-0.299,0.371-0.753,0.598-1.365,0.679l-0.582,0.073l0.067,2.969l-1.229,0.16l-0.18-7.896
		L41.536,43.268z M41.041,47.144l0.582-0.076c0.199-0.025,0.35-0.103,0.441-0.229c0.104-0.126,0.149-0.325,0.145-0.595l-0.025-1.184
		c-0.007-0.271-0.063-0.456-0.17-0.555c-0.1-0.1-0.25-0.137-0.451-0.111l-0.582,0.076L41.041,47.144z"/>
	<path fill="#FFFFFF" d="M49.122,42.274l0.024,1.128L47.86,43.57l0.152,6.767l-1.229,0.161l-0.153-6.767l-1.285,0.168l-0.025-1.128
		L49.122,42.274z"/>
	<path fill="#FFFFFF" d="M49.604,44.111c-0.014-0.631,0.136-1.141,0.449-1.529s0.771-0.622,1.372-0.7
		c0.604-0.079,1.072,0.034,1.398,0.337c0.328,0.304,0.502,0.772,0.516,1.403l0.093,4.105c0.017,0.631-0.136,1.142-0.447,1.527
		c-0.312,0.387-0.771,0.621-1.375,0.699c-0.604,0.08-1.069-0.033-1.398-0.337c-0.328-0.304-0.499-0.771-0.514-1.403L49.604,44.111z
		 M50.932,48.134c0.012,0.52,0.23,0.751,0.654,0.695c0.426-0.057,0.631-0.344,0.621-0.861l-0.099-4.263
		c-0.012-0.519-0.229-0.75-0.653-0.695c-0.427,0.055-0.634,0.343-0.621,0.861L50.932,48.134z"/>
</g>
<g>
	<path fill="#FFFFFF" d="M53.317,55.643c-0.018-0.771,0.169-1.394,0.547-1.869c0.386-0.473,0.944-0.759,1.682-0.855
		c0.736-0.095,1.308,0.041,1.71,0.412c0.402,0.372,0.612,0.943,0.625,1.715l0.115,5.016c0.021,0.772-0.165,1.395-0.548,1.871
		c-0.382,0.471-0.941,0.757-1.679,0.852c-0.738,0.097-1.31-0.037-1.71-0.41c-0.402-0.369-0.614-0.942-0.627-1.715L53.317,55.643z
		 M54.937,60.56c0.016,0.63,0.281,0.913,0.8,0.847c0.518-0.068,0.772-0.417,0.756-1.054l-0.118-5.208
		c-0.014-0.631-0.28-0.917-0.799-0.847c-0.518,0.069-0.773,0.418-0.756,1.053L54.937,60.56z"/>
	<path fill="#FFFFFF" d="M62.348,56.439l0.028,1.379l-1.938,0.253l0.09,3.981l-1.502,0.196l-0.219-9.645l3.977-0.517l0.029,1.376
		l-2.474,0.324l0.065,2.908L62.348,56.439z"/>
	<path fill="#FFFFFF" d="M67.045,55.825l0.032,1.378l-1.94,0.253l0.089,3.982l-1.503,0.195l-0.218-9.646l3.976-0.519l0.028,1.379
		l-2.472,0.323l0.066,2.91L67.045,55.825z"/>
</g>
<g>
	<path fill="#FFFFFF" d="M42.346,56.891c-0.015-0.549,0.113-0.988,0.377-1.314c0.265-0.329,0.656-0.528,1.18-0.596
		c0.521-0.069,0.924,0.029,1.2,0.283c0.278,0.259,0.425,0.659,0.436,1.209l0.081,3.494c0.013,0.547-0.114,0.987-0.379,1.313
		c-0.267,0.33-0.659,0.526-1.179,0.598c-0.523,0.067-0.924-0.028-1.201-0.286c-0.277-0.258-0.422-0.66-0.435-1.207L42.346,56.891z
		 M49.041,54.384l-3.92,11.178l-0.977,0.128l3.917-11.178L49.041,54.384z M43.48,60.323c0.011,0.447,0.197,0.642,0.558,0.597
		c0.36-0.046,0.538-0.294,0.526-0.74l-0.084-3.645c-0.01-0.449-0.196-0.646-0.56-0.599c-0.36,0.048-0.536,0.294-0.524,0.74
		L43.48,60.323z M47.66,60.095c-0.013-0.546,0.114-0.983,0.378-1.313c0.266-0.327,0.658-0.524,1.18-0.595
		c0.521-0.069,0.923,0.027,1.201,0.284c0.276,0.259,0.422,0.66,0.436,1.208l0.08,3.497c0.014,0.546-0.113,0.983-0.379,1.311
		c-0.27,0.331-0.659,0.527-1.18,0.597c-0.521,0.069-0.924-0.029-1.202-0.283c-0.274-0.26-0.422-0.661-0.436-1.208L47.66,60.095z
		 M48.794,63.527c0.012,0.448,0.197,0.646,0.56,0.597c0.361-0.045,0.536-0.29,0.526-0.737l-0.085-3.646
		c-0.009-0.446-0.196-0.642-0.558-0.597c-0.362,0.045-0.535,0.293-0.526,0.74L48.794,63.527z"/>
	<path fill="#FFFFFF" d="M34.699,64.69l1.989-0.513c0.126,0.449,0.352,0.786,0.676,1.01s0.671,0.309,1.042,0.252
		c0.424-0.063,0.756-0.289,0.997-0.676c0.244-0.388,0.313-0.93,0.208-1.622c-0.099-0.648-0.315-1.115-0.656-1.396
		s-0.743-0.386-1.209-0.315c-0.583,0.088-1.066,0.423-1.452,1.007l-1.681,0.009l0.214-5.661l5.361-0.806l0.286,1.899l-3.825,0.573
		l-0.048,1.844c0.418-0.294,0.863-0.476,1.334-0.546c0.9-0.136,1.712,0.076,2.435,0.638c0.725,0.561,1.164,1.362,1.32,2.407
		c0.131,0.87-0.004,1.686-0.408,2.442c-0.548,1.038-1.432,1.647-2.654,1.832c-0.977,0.146-1.813,0.003-2.507-0.43
		C35.427,66.208,34.953,65.558,34.699,64.69z"/>
</g>
<g>
	<g>
		<g>
			<defs>
				<rect id="SVGID_1_" x="8.227" y="23.457" width="13.273" height="6.803"/>
			</defs>
			<clipPath id="SVGID_2_">
				<use xlink:href="#SVGID_1_"  overflow="visible"/>
			</clipPath>
			<g clip-path="url(#SVGID_2_)">
				<path fill="#FFFFFF" d="M8.323,29.998h2.425c0.025,0,0.05,0.01,0.068,0.028c0.019,0.018,0.028,0.041,0.028,0.066
					c0,0.014-0.002,0.025-0.007,0.037s-0.012,0.021-0.021,0.031c-0.009,0.009-0.02,0.016-0.031,0.021
					c-0.011,0.006-0.024,0.008-0.037,0.008H8.322c-0.012,0-0.025-0.002-0.037-0.008c-0.012-0.006-0.022-0.013-0.031-0.021
					c-0.009-0.01-0.016-0.021-0.021-0.031c-0.005-0.012-0.007-0.023-0.007-0.037c0-0.025,0.01-0.05,0.028-0.066
					C8.272,30.008,8.297,29.998,8.323,29.998L8.323,29.998z"/>
				<path fill="#FFFFFF" d="M18.979,29.998h2.426c0.025,0,0.049,0.011,0.067,0.028c0.018,0.019,0.028,0.043,0.028,0.067
					c0,0.025-0.01,0.05-0.028,0.067s-0.042,0.027-0.067,0.027h-2.426c-0.025,0-0.049-0.01-0.067-0.027s-0.027-0.042-0.027-0.067
					c0-0.024,0.01-0.05,0.027-0.067S18.954,29.998,18.979,29.998L18.979,29.998z"/>
				<path fill="#FFFFFF" d="M14.863,23.457c0.025,0,0.049,0.011,0.067,0.028c0.018,0.019,0.028,0.043,0.028,0.067v2.427
					c0.001,0.014,0,0.025-0.003,0.039c-0.004,0.014-0.011,0.024-0.02,0.037c-0.009,0.01-0.02,0.019-0.033,0.022
					c-0.012,0.006-0.026,0.009-0.04,0.009c-0.014,0-0.027-0.003-0.04-0.009c-0.013-0.005-0.023-0.015-0.033-0.022
					c-0.01-0.012-0.016-0.022-0.02-0.037c-0.004-0.014-0.005-0.025-0.003-0.039v-2.428c0-0.023,0.01-0.05,0.028-0.066
					C14.813,23.467,14.837,23.457,14.863,23.457L14.863,23.457z"/>
				<path fill="#FFFFFF" d="M19.488,25.373c0.019,0,0.037,0.006,0.053,0.017c0.015,0.012,0.027,0.025,0.035,0.043
					c0.008,0.02,0.009,0.037,0.005,0.055c-0.004,0.02-0.012,0.037-0.025,0.051l-1.715,1.714c-0.018,0.019-0.042,0.026-0.067,0.026
					s-0.049-0.01-0.067-0.026c-0.009-0.009-0.017-0.021-0.021-0.03c-0.004-0.012-0.007-0.023-0.007-0.037
					c0-0.013,0.002-0.024,0.007-0.037c0.005-0.012,0.012-0.021,0.021-0.029l1.713-1.717c0.009-0.008,0.019-0.017,0.031-0.021
					C19.463,25.375,19.476,25.373,19.488,25.373L19.488,25.373z"/>
				<path fill="#FFFFFF" d="M10.237,25.373c0.025,0,0.05,0.01,0.069,0.026l1.714,1.717c0.018,0.018,0.027,0.042,0.027,0.066
					s-0.01,0.049-0.027,0.066c-0.019,0.02-0.042,0.025-0.068,0.025c-0.026,0-0.05-0.01-0.068-0.025l-1.714-1.715
					c-0.018-0.02-0.028-0.042-0.028-0.068c0-0.025,0.01-0.05,0.028-0.066c0.009-0.008,0.019-0.018,0.031-0.021
					C10.212,25.375,10.226,25.373,10.237,25.373L10.237,25.373z"/>
				<path fill="#FFFFFF" d="M8.855,27.411c0.013,0,0.026,0.002,0.038,0.007l2.228,0.96c0.011,0.005,0.022,0.012,0.031,0.021
					c0.009,0.009,0.016,0.02,0.021,0.031c0.005,0.012,0.007,0.022,0.007,0.035c0,0.014-0.002,0.025-0.008,0.037
					c-0.01,0.021-0.029,0.042-0.052,0.053c-0.023,0.01-0.05,0.008-0.073,0L8.82,27.597c-0.012-0.007-0.022-0.014-0.031-0.021
					c-0.009-0.01-0.016-0.02-0.021-0.031c-0.005-0.011-0.007-0.023-0.007-0.037c0-0.013,0.003-0.025,0.008-0.037
					c0.007-0.017,0.02-0.031,0.035-0.041C8.818,27.416,8.836,27.411,8.855,27.411L8.855,27.411z"/>
				<path fill="#FFFFFF" d="M17.451,23.996c0.013,0,0.026,0.003,0.038,0.007c0.023,0.01,0.042,0.029,0.051,0.053
					c0.009,0.023,0.009,0.051-0.001,0.073l-0.959,2.228c-0.005,0.014-0.012,0.022-0.021,0.031c-0.009,0.01-0.02,0.016-0.031,0.021
					c-0.012,0.004-0.024,0.007-0.037,0.006c-0.013,0-0.025-0.002-0.037-0.008c-0.012-0.006-0.022-0.012-0.031-0.021
					c-0.009-0.009-0.016-0.02-0.021-0.031c-0.004-0.012-0.007-0.022-0.007-0.037c0-0.012,0.003-0.023,0.008-0.035l0.964-2.232
					c0.008-0.016,0.02-0.029,0.035-0.039C17.416,24.001,17.434,23.996,17.451,23.996z"/>
				<path fill="#FFFFFF" d="M20.94,27.581c0.02,0,0.038,0.006,0.054,0.018c0.016,0.01,0.028,0.024,0.035,0.043
					c0.005,0.012,0.007,0.023,0.007,0.036s-0.003,0.025-0.008,0.037c-0.005,0.013-0.012,0.022-0.021,0.031
					c-0.009,0.009-0.02,0.017-0.032,0.021l-2.253,0.896c-0.012,0.005-0.024,0.007-0.037,0.007s-0.025-0.003-0.037-0.008
					c-0.012-0.005-0.022-0.013-0.031-0.021c-0.009-0.011-0.016-0.021-0.02-0.033c-0.005-0.01-0.007-0.023-0.007-0.037
					c0-0.012,0.003-0.023,0.008-0.035c0.005-0.012,0.012-0.021,0.021-0.031c0.009-0.009,0.02-0.016,0.031-0.02l2.253-0.897
					C20.917,27.583,20.929,27.581,20.94,27.581L20.94,27.581z"/>
				<path fill="#FFFFFF" d="M12.445,23.92c0.019,0,0.038,0.006,0.054,0.017c0.016,0.013,0.028,0.026,0.035,0.045l0.897,2.252
					c0.009,0.023,0.009,0.052-0.001,0.074c-0.01,0.022-0.029,0.041-0.052,0.051s-0.05,0.01-0.073-0.002
					c-0.023-0.01-0.042-0.027-0.051-0.053l-0.898-2.252c-0.005-0.011-0.007-0.023-0.007-0.037c0-0.013,0.002-0.023,0.008-0.037
					c0.005-0.011,0.012-0.021,0.021-0.028c0.009-0.011,0.02-0.017,0.032-0.021C12.421,23.923,12.434,23.92,12.445,23.92
					L12.445,23.92z"/>
			</g>
		</g>
	</g>
</g>
<g>
	<g>
		<g>
			<defs>
				<rect id="SVGID_3_" x="8.227" y="30.192" width="13.273" height="6.803"/>
			</defs>
			<clipPath id="SVGID_4_">
				<use xlink:href="#SVGID_3_"  overflow="visible"/>
			</clipPath>
			<g clip-path="url(#SVGID_4_)">
				<path fill="#FFFFFF" d="M14.862,36.995c-0.025,0-0.05-0.012-0.067-0.029c-0.017-0.017-0.028-0.042-0.028-0.066v-2.426
					c-0.001-0.014,0-0.025,0.003-0.041c0.004-0.013,0.011-0.023,0.02-0.035c0.009-0.01,0.02-0.019,0.033-0.022
					c0.013-0.005,0.026-0.009,0.04-0.009c0.014,0,0.027,0.003,0.04,0.009c0.013,0.006,0.024,0.015,0.033,0.022
					c0.009,0.012,0.016,0.022,0.02,0.035c0.004,0.014,0.005,0.027,0.003,0.041v2.426c0,0.024-0.01,0.051-0.028,0.067
					C14.913,36.985,14.888,36.995,14.862,36.995L14.862,36.995z"/>
				<path fill="#FFFFFF" d="M10.237,35.079c-0.019,0-0.037-0.008-0.053-0.018c-0.016-0.012-0.028-0.025-0.035-0.043
					c-0.007-0.019-0.009-0.035-0.006-0.056c0.004-0.021,0.013-0.036,0.026-0.049l1.714-1.714c0.018-0.02,0.042-0.027,0.067-0.027
					c0.025,0,0.049,0.012,0.067,0.027c0.009,0.009,0.016,0.019,0.021,0.029c0.005,0.014,0.007,0.024,0.007,0.037
					c0,0.014-0.002,0.025-0.007,0.037s-0.012,0.022-0.021,0.03l-1.715,1.716c-0.008,0.01-0.019,0.016-0.031,0.021
					C10.263,35.076,10.25,35.079,10.237,35.079L10.237,35.079z"/>
				<path fill="#FFFFFF" d="M19.487,35.079c-0.025,0-0.05-0.01-0.069-0.028l-1.714-1.716c-0.018-0.018-0.027-0.042-0.027-0.066
					s0.01-0.05,0.027-0.066c0.018-0.02,0.042-0.028,0.068-0.028s0.05,0.011,0.068,0.028l1.714,1.714
					c0.018,0.019,0.027,0.043,0.027,0.067s-0.01,0.051-0.027,0.067c-0.009,0.009-0.019,0.017-0.031,0.021
					C19.513,35.076,19.5,35.079,19.487,35.079L19.487,35.079z"/>
				<path fill="#FFFFFF" d="M20.871,33.041c-0.013,0-0.026-0.003-0.038-0.008l-2.228-0.96c-0.011-0.004-0.022-0.012-0.031-0.021
					c-0.009-0.009-0.016-0.02-0.021-0.031c-0.004-0.012-0.007-0.022-0.006-0.037c0-0.012,0.002-0.023,0.008-0.035
					c0.01-0.023,0.029-0.043,0.052-0.053c0.023-0.008,0.05-0.008,0.073,0l2.227,0.961c0.012,0.004,0.022,0.013,0.031,0.021
					c0.009,0.01,0.016,0.021,0.021,0.032c0.004,0.012,0.007,0.022,0.007,0.036c0,0.013-0.003,0.025-0.008,0.037
					c-0.007,0.018-0.02,0.031-0.035,0.041C20.908,33.035,20.889,33.041,20.871,33.041L20.871,33.041z"/>
				<path fill="#FFFFFF" d="M12.274,36.456c-0.013,0-0.026-0.003-0.038-0.008c-0.023-0.01-0.042-0.029-0.051-0.053
					c-0.009-0.022-0.009-0.049,0.001-0.072l0.959-2.229c0.005-0.011,0.012-0.021,0.021-0.028c0.009-0.01,0.02-0.018,0.031-0.021
					c0.011-0.005,0.024-0.007,0.037-0.007c0.013,0,0.025,0.002,0.037,0.008c0.012,0.005,0.022,0.013,0.031,0.021
					c0.009,0.011,0.016,0.021,0.021,0.031c0.004,0.012,0.007,0.024,0.007,0.037c0,0.014-0.003,0.025-0.008,0.037l-0.962,2.232
					c-0.008,0.016-0.02,0.029-0.035,0.039C12.311,36.45,12.292,36.456,12.274,36.456z"/>
				<path fill="#FFFFFF" d="M8.786,32.871c-0.02,0-0.038-0.006-0.054-0.017c-0.016-0.013-0.028-0.025-0.035-0.043
					c-0.005-0.014-0.007-0.024-0.007-0.037c0-0.012,0.003-0.025,0.008-0.037c0.005-0.012,0.012-0.021,0.021-0.03
					c0.009-0.009,0.02-0.017,0.032-0.021l2.253-0.896c0.012-0.005,0.024-0.007,0.037-0.007s0.025,0.003,0.037,0.008
					c0.012,0.005,0.022,0.012,0.031,0.021c0.009,0.01,0.016,0.021,0.02,0.031c0.005,0.012,0.007,0.024,0.007,0.037
					c0,0.014-0.003,0.025-0.008,0.037s-0.012,0.021-0.021,0.031c-0.009,0.008-0.02,0.016-0.031,0.02l-2.253,0.897
					C8.81,32.869,8.796,32.871,8.786,32.871L8.786,32.871z"/>
				<path fill="#FFFFFF" d="M17.28,36.531c-0.02,0-0.039-0.005-0.054-0.017c-0.016-0.012-0.028-0.025-0.035-0.046l-0.897-2.253
					c-0.01-0.021-0.009-0.05,0.001-0.072c0.01-0.022,0.029-0.041,0.053-0.052c0.023-0.009,0.049-0.008,0.073,0.001
					c0.023,0.012,0.042,0.029,0.051,0.053l0.897,2.254c0.004,0.012,0.007,0.022,0.006,0.037c0,0.013-0.002,0.023-0.007,0.037
					c-0.005,0.012-0.012,0.021-0.021,0.028c-0.009,0.011-0.02,0.017-0.031,0.021C17.305,36.528,17.292,36.531,17.28,36.531
					L17.28,36.531z"/>
			</g>
		</g>
	</g>
</g>
<circle fill="#FFB300" cx="14.809" cy="30.192" r="3.368"/>
<linearGradient id="SVGID_5_" gradientUnits="userSpaceOnUse" x1="65.2773" y1="-435.3511" x2="65.0052" y2="-429.1309" gradientTransform="matrix(1 0 0 -1 12 -416)">
	<stop  offset="0" style="stop-color:#FFFFFF;stop-opacity:0"/>
	<stop  offset="0.23" style="stop-color:#FFFFFF;stop-opacity:0.27"/>
	<stop  offset="0.51" style="stop-color:#FFFFFF;stop-opacity:0.58"/>
	<stop  offset="0.74" style="stop-color:#FFFFFF;stop-opacity:0.81"/>
	<stop  offset="0.9" style="stop-color:#FFFFFF;stop-opacity:0.95"/>
	<stop  offset="0.99" style="stop-color:#FFFFFF"/>
</linearGradient>
<path fill="url(#SVGID_5_)" d="M96,16.24c-1.25-0.374-2.524-0.496-3.77-0.102c-0.564,0.178-1.129,0.465-1.717,0.389
	c-0.824-0.104-1.359-0.858-1.869-1.496c-0.514-0.637-1.293-1.272-2.084-1.021c-0.643,0.204-0.982,0.913-1.596,1.188
	c-0.773,0.349-1.699-0.126-2.219-0.782c-0.521-0.656-0.781-1.471-1.238-2.167c-0.818-1.247-2.293-2.06-3.813-2.103
	c-1.521-0.043-3.049,0.687-3.953,1.885c-0.379,0.501-0.693,1.109-1.281,1.353c-1.086,0.446-2.27-0.647-3.426-0.438
	c-2.045,0.373-1.887,4.093-3.947,4.347c-0.76,0.094-1.463-0.382-2.221-0.478c-1.176-0.146-2.273,0.645-3.012,1.555
	c-0.504,0.623-0.912,1.318-1.393,1.959L96,16.24z"/>
<linearGradient id="SVGID_6_" gradientUnits="userSpaceOnUse" x1="74.4619" y1="-468.3809" x2="73.7063" y2="-464.1711" gradientTransform="matrix(1 0 0 -1 12 -416)">
	<stop  offset="0" style="stop-color:#FFFFFF;stop-opacity:0"/>
	<stop  offset="0.23" style="stop-color:#FFFFFF;stop-opacity:0.27"/>
	<stop  offset="0.51" style="stop-color:#FFFFFF;stop-opacity:0.58"/>
	<stop  offset="0.74" style="stop-color:#FFFFFF;stop-opacity:0.81"/>
	<stop  offset="0.9" style="stop-color:#FFFFFF;stop-opacity:0.95"/>
	<stop  offset="0.99" style="stop-color:#FFFFFF"/>
</linearGradient>
<path fill="url(#SVGID_6_)" d="M76.391,54.01c0.61-0.5,1.264-0.812,1.961-0.726c0.316,0.041,0.646,0.162,0.944,0.001
	c0.42-0.221,0.61-0.89,0.803-1.463c0.192-0.575,0.527-1.193,0.97-1.139c0.359,0.048,0.622,0.528,0.975,0.636
	c0.447,0.132,0.876-0.391,1.07-0.979c0.193-0.589,0.234-1.257,0.392-1.868c0.281-1.092,0.958-1.966,1.749-2.259
	c0.791-0.294,1.676-0.001,2.291,0.758c0.257,0.32,0.493,0.73,0.83,0.813c0.62,0.154,1.111-0.885,1.741-0.923
	c1.114-0.067,1.468,2.801,2.578,2.64c0.408-0.059,0.721-0.544,1.105-0.745c0.598-0.314,1.267,0.101,1.759,0.668
	c0.337,0.39,0.634,0.852,0.96,1.257L76.391,54.01z"/>
<linearGradient id="SVGID_7_" gradientUnits="userSpaceOnUse" x1="70.3232" y1="-497.2344" x2="36.3059" y2="-478.5005" gradientTransform="matrix(1 0 0 -1 12 -416)">
	<stop  offset="0" style="stop-color:#F3850B"/>
	<stop  offset="1" style="stop-color:#E83819"/>
</linearGradient>
<path fill="url(#SVGID_7_)" d="M74.799,64.921L48.61,68.764c-0.448,0.073-0.858,0.307-1.154,0.653
	c-0.296,0.351-0.458,0.789-0.457,1.24l0.071,2.868c0.001,0.211,0.049,0.416,0.138,0.604c0.089,0.188,0.219,0.354,0.379,0.487
	c0.161,0.133,0.349,0.229,0.552,0.281c0.203,0.052,0.416,0.062,0.624,0.022l26.188-3.841c0.449-0.073,0.858-0.307,1.155-0.654
	c0.296-0.348,0.458-0.787,0.456-1.24l-0.07-2.862c0-0.212-0.048-0.418-0.137-0.607c-0.089-0.188-0.218-0.356-0.379-0.489
	c-0.16-0.134-0.35-0.229-0.552-0.283C75.221,64.893,75.008,64.884,74.799,64.921z"/>
<g>
	<path fill="#FFFFFF" d="M52.705,71.084c0.009,0.2-0.007,0.39-0.051,0.563c-0.043,0.173-0.11,0.326-0.209,0.461
		c-0.094,0.138-0.219,0.249-0.369,0.337c-0.152,0.088-0.333,0.146-0.547,0.182c-0.213,0.031-0.396,0.027-0.555-0.012
		c-0.158-0.041-0.291-0.111-0.398-0.217c-0.105-0.104-0.188-0.234-0.245-0.395c-0.06-0.158-0.091-0.34-0.101-0.545
		c-0.014-0.271,0.021-0.515,0.099-0.729c0.08-0.216,0.209-0.395,0.388-0.534c0.18-0.141,0.409-0.231,0.692-0.274
		c0.282-0.043,0.517-0.022,0.7,0.061c0.188,0.083,0.33,0.221,0.429,0.409C52.639,70.58,52.689,70.809,52.705,71.084z M50.811,71.377
		c0.008,0.183,0.037,0.338,0.09,0.463c0.052,0.125,0.129,0.217,0.229,0.271c0.1,0.058,0.229,0.072,0.381,0.049
		c0.156-0.022,0.282-0.079,0.377-0.165c0.094-0.086,0.159-0.197,0.197-0.338s0.055-0.301,0.045-0.482
		c-0.013-0.275-0.072-0.485-0.184-0.627c-0.108-0.145-0.28-0.196-0.514-0.16c-0.154,0.022-0.281,0.08-0.375,0.167
		c-0.095,0.086-0.162,0.198-0.199,0.339C50.814,71.029,50.8,71.191,50.811,71.377z"/>
	<path fill="#FFFFFF" d="M55.607,71.961l-0.699,0.106l-1.225-1.813l-0.015,0.002c0.009,0.082,0.017,0.164,0.022,0.248
		c0.008,0.084,0.016,0.168,0.021,0.25s0.016,0.164,0.021,0.248l0.059,1.235l-0.492,0.076l-0.121-2.625l0.695-0.108l1.218,1.793
		l0.013-0.002c-0.006-0.082-0.012-0.162-0.02-0.242c-0.007-0.08-0.016-0.157-0.021-0.237c-0.006-0.079-0.012-0.158-0.019-0.239
		l-0.057-1.244l0.495-0.072L55.607,71.961z"/>
	<g>
		<path fill="#FFFFFF" d="M58.143,71.688L57.6,71.756l-0.057-2.629l1.494-0.192l0.01,0.457l-0.949,0.124l0.014,0.678l0.885-0.113
			l0.01,0.453l-0.885,0.115L58.143,71.688z"/>
		<path fill="#FFFFFF" d="M59.604,71.5l-0.056-2.629l0.554-0.07l0.045,2.168l1.058-0.137l0.01,0.461L59.604,71.5z"/>
		<path fill="#FFFFFF" d="M61.666,71.232l-0.057-2.629l0.555-0.072l0.055,2.631L61.666,71.232z"/>
		<path fill="#FFFFFF" d="M63.835,69.471l1.034-0.133l0.027,1.361c-0.137,0.063-0.275,0.117-0.424,0.164
			c-0.146,0.047-0.313,0.08-0.5,0.105c-0.261,0.033-0.479,0.01-0.664-0.07c-0.182-0.08-0.324-0.214-0.422-0.402
			s-0.148-0.432-0.154-0.725c-0.006-0.275,0.039-0.521,0.142-0.736c0.103-0.216,0.253-0.392,0.452-0.525
			c0.201-0.137,0.447-0.225,0.738-0.264c0.141-0.018,0.275-0.02,0.41-0.007s0.258,0.035,0.367,0.069l-0.174,0.47
			c-0.08-0.03-0.173-0.054-0.273-0.065c-0.104-0.017-0.211-0.017-0.321-0.002c-0.16,0.021-0.302,0.076-0.417,0.166
			c-0.116,0.09-0.205,0.205-0.27,0.35c-0.063,0.143-0.09,0.303-0.087,0.482c0.005,0.17,0.03,0.319,0.079,0.447
			c0.049,0.126,0.125,0.221,0.227,0.282C63.708,70.5,63.837,70.521,64,70.5c0.078-0.01,0.145-0.021,0.195-0.037
			c0.056-0.016,0.104-0.028,0.154-0.045l-0.013-0.547l-0.495,0.063L63.835,69.471z"/>
		<path fill="#FFFFFF" d="M67.659,70.459l-0.554,0.07l-0.021-1.133l-1.033,0.132l0.024,1.136l-0.554,0.069l-0.056-2.628l0.552-0.068
			l0.021,1.027l1.033-0.134l-0.021-1.029l0.551-0.071L67.659,70.459z"/>
		<path fill="#FFFFFF" d="M69.325,70.244l-0.556,0.07l-0.045-2.164l-0.707,0.091l-0.011-0.463l1.97-0.254l0.01,0.463l-0.709,0.093
			L69.325,70.244z"/>
		<path fill="#FFFFFF" d="M71.957,69.17c0.003,0.154-0.031,0.297-0.104,0.422c-0.072,0.123-0.181,0.228-0.322,0.308
			c-0.141,0.081-0.313,0.135-0.518,0.161c-0.093,0.013-0.182,0.02-0.269,0.02c-0.086-0.002-0.169-0.01-0.249-0.021
			c-0.079-0.014-0.154-0.033-0.229-0.059l-0.011-0.521c0.125,0.039,0.253,0.071,0.39,0.101c0.135,0.026,0.268,0.031,0.396,0.017
			c0.09-0.013,0.163-0.033,0.216-0.063c0.056-0.031,0.097-0.068,0.12-0.115c0.023-0.045,0.035-0.095,0.033-0.147
			c-0.001-0.063-0.023-0.118-0.068-0.159s-0.107-0.077-0.185-0.107c-0.076-0.028-0.165-0.063-0.263-0.099
			c-0.062-0.021-0.129-0.047-0.199-0.079c-0.072-0.031-0.141-0.072-0.207-0.126c-0.065-0.052-0.119-0.114-0.163-0.196
			c-0.041-0.08-0.063-0.182-0.065-0.301c-0.005-0.158,0.028-0.298,0.098-0.419c0.068-0.118,0.168-0.219,0.301-0.294
			c0.132-0.076,0.289-0.128,0.47-0.148c0.136-0.02,0.267-0.021,0.388-0.002c0.127,0.016,0.256,0.043,0.393,0.086l-0.172,0.455
			c-0.118-0.031-0.229-0.058-0.323-0.069c-0.095-0.017-0.192-0.017-0.292-0.004c-0.068,0.009-0.127,0.028-0.176,0.057
			c-0.049,0.029-0.086,0.063-0.108,0.106c-0.024,0.045-0.034,0.092-0.034,0.145c0.002,0.063,0.021,0.113,0.057,0.151
			c0.037,0.038,0.095,0.069,0.169,0.103c0.071,0.029,0.163,0.063,0.276,0.103c0.135,0.048,0.248,0.1,0.344,0.155
			c0.098,0.058,0.173,0.127,0.226,0.215C71.928,68.92,71.954,69.034,71.957,69.17z"/>
	</g>
</g>
<linearGradient id="SVGID_8_" gradientUnits="userSpaceOnUse" x1="75.2949" y1="-449.52" x2="12.7061" y2="-414.8618" gradientTransform="matrix(1 0 0 -1 12 -416)">
	<stop  offset="0" style="stop-color:#F3850B"/>
	<stop  offset="1" style="stop-color:#E83819"/>
</linearGradient>
<path fill="url(#SVGID_8_)" d="M77.582,6.7l-52.935,5.31c-0.824,0.094-1.58,0.401-2.127,0.869c-0.548,0.469-0.852,1.063-0.854,1.678
	l0.094,3.898c0,0.285,0.085,0.566,0.247,0.824c0.162,0.257,0.397,0.484,0.691,0.669c0.292,0.183,0.637,0.315,1.009,0.392
	c0.372,0.076,0.762,0.09,1.145,0.044l52.934-5.307c0.825-0.093,1.582-0.401,2.129-0.869c0.548-0.468,0.853-1.063,0.854-1.679
	l-0.097-3.891c0.003-0.287-0.08-0.568-0.24-0.828c-0.161-0.26-0.396-0.487-0.69-0.672c-0.293-0.185-0.638-0.318-1.011-0.396
	C78.355,6.666,77.965,6.652,77.582,6.7L77.582,6.7z"/>
<text transform="matrix(0.9954 -0.0961 0.0961 0.9954 23.9878 17.6631)" fill="#FFFFFF" font-family="'SinkinSans-800Black'" font-size="4">Book Now, Save More!</text>
<g>
	
		<linearGradient id="SVGID_9_" gradientUnits="userSpaceOnUse" x1="1765.3965" y1="541.3574" x2="1745.9709" y2="551.562" gradientTransform="matrix(-1 0 0 1 1826.3105 -511)">
		<stop  offset="0" style="stop-color:#303B45"/>
		<stop  offset="0.1467" style="stop-color:#384551"/>
		<stop  offset="0.4113" style="stop-color:#4E6170"/>
		<stop  offset="0.7608" style="stop-color:#718DA3"/>
		<stop  offset="1" style="stop-color:#8CAECA"/>
	</linearGradient>
	<path fill="url(#SVGID_9_)" d="M80.877,39.479c-2.073-1.414-10.856-7.424-12.114-8.576l-7.142,3.404c0,0,5.247,1.033,8.668,2.401
		c2.925,1.169,8.255,3.095,9.735,3.627c0.242,0.087,0.518,0.046,0.713-0.108l0.16-0.125C81.11,39.936,81.103,39.632,80.877,39.479z"
		/>
	<path fill="#EAEEEF" d="M68.763,30.902c1.258,1.152,10.041,7.162,12.114,8.576c0.146,0.099,0.199,0.258,0.166,0.403
		C80.038,39.217,69.331,32.119,68.763,30.902z"/>
	<path fill="#EAEEEF" d="M76.998,37.65c0,0-2.031,0.225-2.396,0.704c-0.361,0.48-0.729,0.876-0.527,1.028
		C74.272,39.534,77.629,37.802,76.998,37.65z"/>
	<path fill="#7895AD" d="M74.604,38.354c0.361-0.479,2.395-0.704,2.395-0.704s-2.227,1.216-2.424,1.246
		C74.574,38.896,74.847,38.444,74.604,38.354z"/>
	<g>
		<path fill="#EAEEEF" d="M73.002,36.17c0,0-2.03,0.226-2.396,0.705c-0.361,0.48-0.729,0.875-0.527,1.027
			C70.276,38.054,73.633,36.321,73.002,36.17z"/>
		<path fill="#7895AD" d="M70.606,36.875c0.363-0.479,2.396-0.705,2.396-0.705s-2.228,1.216-2.425,1.246
			C70.577,37.416,70.849,36.965,70.606,36.875z"/>
	</g>
	<g>
		<path fill="#EAEEEF" d="M69.006,34.771c0,0-2.03,0.225-2.396,0.705c-0.361,0.479-0.729,0.875-0.527,1.027
			C66.283,36.655,69.638,34.923,69.006,34.771z"/>
		<path fill="#7895AD" d="M66.61,35.476c0.361-0.48,2.396-0.705,2.396-0.705s-2.228,1.216-2.425,1.246
			C66.581,36.017,66.854,35.565,66.61,35.476z"/>
	</g>
	<path fill="#EAEEEF" d="M53.576,37.736l-2.446-1.774l-3.905,0.214l5.238,1.926c0.077,0.028,0.159,0.042,0.242,0.042
		c0.193-0.001,0.563-0.015,0.813-0.092C53.666,38.005,53.7,37.826,53.576,37.736z"/>
	<path fill="#7895AD" d="M52.463,38.102l-5.238-1.926l3.741-0.205l2.435,1.766c0.123,0.09,0.092,0.269-0.06,0.315
		c-0.204,0.063-0.485,0.084-0.688,0.09C52.587,38.137,52.523,38.124,52.463,38.102z"/>
	<polygon fill="#7895AD" points="50.936,31.708 48.337,25.219 46.579,25.934 46.014,34.442 	"/>
	
		<linearGradient id="SVGID_10_" gradientUnits="userSpaceOnUse" x1="1765.7383" y1="538.6553" x2="1763.8936" y2="542.714" gradientTransform="matrix(-1 0 0 1 1826.3105 -511)">
		<stop  offset="0" style="stop-color:#EAEEEF"/>
		<stop  offset="0.4048" style="stop-color:#DEE6EB"/>
		<stop  offset="1" style="stop-color:#C5D6E3"/>
	</linearGradient>
	<path fill="url(#SVGID_10_)" d="M43.253,35.812c0.39,0.28,6.782,1.209,11.231,0.357c4.45-0.852,4.948-1.193,4.948-1.193
		s1.088,0.29,2.895-0.154c1.805-0.444,6.283-2.235,6.783-2.637c0.498-0.402,1.339-1.283,1.339-1.283s7.995-2.447,9.459-4.583
		c1.463-2.136-0.935-2.563-0.935-2.563s0.119-1.082-2.477-1.281c-2.596-0.199-5.846,1.281-7.737,1.965
		c-1.891,0.684-10.262,3.702-10.262,3.702S41.292,34.398,43.253,35.812z"/>
	<g>
		
			<linearGradient id="SVGID_11_" gradientUnits="userSpaceOnUse" x1="1779.9834" y1="545.1055" x2="1779.9834" y2="545.1055" gradientTransform="matrix(-1 0 0 1 1826.3105 -511)">
			<stop  offset="0" style="stop-color:#8CAECA"/>
			<stop  offset="0.0156" style="stop-color:#86A7C2"/>
			<stop  offset="0.0503" style="stop-color:#7E9DB6"/>
			<stop  offset="0.0988" style="stop-color:#7997AF"/>
			<stop  offset="0.2296" style="stop-color:#7895AD"/>
			<stop  offset="0.6081" style="stop-color:#809FB9"/>
			<stop  offset="1" style="stop-color:#8CAECA"/>
		</linearGradient>
		<path fill="url(#SVGID_11_)" d="M46.32,34.105c0.008,0,0.013,0,0.013,0S46.328,34.106,46.32,34.105z"/>
		
			<linearGradient id="SVGID_12_" gradientUnits="userSpaceOnUse" x1="1764.5322" y1="534.9922" x2="1764.6013" y2="547.5848" gradientTransform="matrix(-1 0 0 1 1826.3105 -511)">
			<stop  offset="0" style="stop-color:#8CAECA"/>
			<stop  offset="0.0156" style="stop-color:#86A7C2"/>
			<stop  offset="0.0503" style="stop-color:#7E9DB6"/>
			<stop  offset="0.0988" style="stop-color:#7997AF"/>
			<stop  offset="0.2296" style="stop-color:#7895AD"/>
			<stop  offset="0.6081" style="stop-color:#809FB9"/>
			<stop  offset="1" style="stop-color:#8CAECA"/>
		</linearGradient>
		<path fill="url(#SVGID_12_)" d="M43.253,35.812c-0.071-0.051-0.116-0.108-0.14-0.171c0.641,0.323,1.104,0.171,1.104,0.171
			c-0.124-0.531,0.249-1.111,0.249-1.111c0.384-0.665,1.718-0.604,1.854-0.596c-0.08-0.002-0.545,0.03-0.828,1.044
			c-0.311,1.111,3.641,0.767,7.749-0.448c4.105-1.213,3.857-2.544,3.857-2.544c0.498-1.709,5.942-3.417,5.942-3.417l0.56,0.749
			c-1.182,0.778-1.058,1.671-1.058,1.671c3.33-0.769,3.858-2.107,3.858-2.107c0.343,0.37,0.156,1.111,0.156,1.111
			s10.144-3.617,11.946-4.271c1.806-0.655,1.291-1.802,1.291-1.802l0,0c0.521,0.343,0.947,1.006,0.108,2.229
			c-1.463,2.136-9.459,4.583-9.459,4.583s-0.84,0.88-1.338,1.283c-0.5,0.402-4.979,2.193-6.783,2.637
			c-1.807,0.444-2.895,0.154-2.895,0.154s-0.498,0.342-4.948,1.193C50.033,37.021,43.643,36.093,43.253,35.812z"/>
		
			<linearGradient id="SVGID_13_" gradientUnits="userSpaceOnUse" x1="1748.0459" y1="533.6348" x2="1748.052" y2="534.752" gradientTransform="matrix(-1 0 0 1 1826.3105 -511)">
			<stop  offset="0" style="stop-color:#8CAECA"/>
			<stop  offset="0.0156" style="stop-color:#86A7C2"/>
			<stop  offset="0.0503" style="stop-color:#7E9DB6"/>
			<stop  offset="0.0988" style="stop-color:#7997AF"/>
			<stop  offset="0.2296" style="stop-color:#7895AD"/>
			<stop  offset="0.6081" style="stop-color:#809FB9"/>
			<stop  offset="1" style="stop-color:#8CAECA"/>
		</linearGradient>
		<path fill="url(#SVGID_13_)" d="M77.548,22.63c1.512,0.362,1.43,1.125,1.43,1.125l-0.436-0.113
			C78.544,22.958,77.549,22.63,77.548,22.63z"/>
	</g>
	<path fill="#001B4B" d="M71.077,24.7l0.123-0.045c0.074-0.027,0.126-0.094,0.128-0.167l0.009-0.303
		c0.004-0.134-0.145-0.228-0.277-0.178l-0.134,0.048c-0.075,0.028-0.127,0.097-0.127,0.173v0.3
		C70.799,24.66,70.942,24.75,71.077,24.7z"/>
	<path fill="#001B4B" d="M70.104,25.061l0.123-0.045c0.074-0.028,0.125-0.094,0.127-0.167l0.011-0.303
		c0.004-0.134-0.146-0.228-0.278-0.178l-0.133,0.049c-0.077,0.028-0.128,0.097-0.128,0.173v0.3
		C69.826,25.02,69.974,25.11,70.104,25.061z"/>
	<path fill="#001B4B" d="M69.134,25.421l0.124-0.045c0.075-0.028,0.125-0.094,0.128-0.167l0.01-0.304
		c0.004-0.133-0.145-0.229-0.278-0.177l-0.132,0.049c-0.077,0.028-0.129,0.097-0.129,0.173v0.3
		C68.854,25.38,69.001,25.471,69.134,25.421z"/>
	<path fill="#001B4B" d="M68.163,25.782l0.123-0.045c0.074-0.028,0.126-0.094,0.128-0.168l0.008-0.303
		c0.004-0.133-0.144-0.228-0.276-0.178l-0.133,0.049c-0.076,0.028-0.129,0.096-0.129,0.173v0.299
		C67.884,25.741,68.028,25.831,68.163,25.782z"/>
	<path fill="#001B4B" d="M67.19,26.143l0.123-0.045c0.074-0.028,0.125-0.094,0.127-0.168l0.011-0.303
		c0.004-0.133-0.144-0.227-0.279-0.177l-0.132,0.049c-0.077,0.028-0.128,0.096-0.128,0.172v0.3
		C66.912,26.102,67.06,26.191,67.19,26.143z"/>
	<path fill="#001B4B" d="M66.222,26.503l0.122-0.045c0.075-0.028,0.125-0.094,0.128-0.168l0.01-0.303
		c0.004-0.133-0.145-0.227-0.278-0.178l-0.134,0.049c-0.076,0.028-0.127,0.096-0.127,0.172v0.3
		C65.94,26.462,66.087,26.552,66.222,26.503z"/>
	<path fill="#001B4B" d="M65.249,26.864l0.123-0.045c0.074-0.028,0.126-0.094,0.128-0.168l0.009-0.303
		c0.004-0.133-0.144-0.227-0.277-0.177l-0.133,0.049c-0.076,0.028-0.129,0.096-0.129,0.172v0.3
		C64.972,26.823,65.115,26.913,65.249,26.864z"/>
	<path fill="#001B4B" d="M64.276,27.225l0.123-0.045c0.076-0.028,0.125-0.094,0.127-0.168l0.011-0.303
		c0.004-0.133-0.146-0.228-0.279-0.178l-0.132,0.048c-0.077,0.028-0.128,0.097-0.128,0.173v0.3
		C63.998,27.183,64.146,27.273,64.276,27.225z"/>
	<path fill="#001B4B" d="M63.308,27.585l0.123-0.045c0.074-0.028,0.125-0.094,0.127-0.168l0.01-0.303
		c0.004-0.133-0.146-0.227-0.279-0.177l-0.133,0.048c-0.076,0.029-0.127,0.097-0.127,0.173v0.3
		C63.024,27.544,63.173,27.634,63.308,27.585z"/>
	<path fill="#001B4B" d="M62.335,27.946l0.123-0.045c0.075-0.028,0.125-0.094,0.128-0.168l0.011-0.303
		c0.004-0.133-0.146-0.227-0.279-0.178L62.185,27.3c-0.076,0.028-0.127,0.097-0.127,0.173v0.3
		C62.058,27.904,62.2,27.995,62.335,27.946z"/>
	<path fill="#001B4B" d="M61.362,28.306l0.123-0.045c0.074-0.028,0.125-0.094,0.127-0.168l0.01-0.303
		c0.005-0.134-0.145-0.227-0.278-0.177l-0.132,0.048c-0.077,0.029-0.128,0.097-0.128,0.173v0.3
		C61.084,28.265,61.229,28.355,61.362,28.306z"/>
	<path fill="#001B4B" d="M60.394,28.667l0.123-0.046c0.073-0.027,0.125-0.093,0.127-0.167l0.01-0.303
		c0.004-0.134-0.145-0.228-0.279-0.178l-0.132,0.048c-0.077,0.028-0.128,0.097-0.128,0.173v0.3
		C60.11,28.625,60.258,28.716,60.394,28.667z"/>
	<path fill="#001B4B" d="M59.42,29.027l0.124-0.046c0.075-0.027,0.125-0.093,0.127-0.167l0.01-0.303
		c0.004-0.134-0.145-0.227-0.277-0.177l-0.133,0.048c-0.078,0.029-0.127,0.097-0.127,0.173v0.3
		C59.144,28.986,59.287,29.076,59.42,29.027z"/>
	<path fill="#001B4B" d="M58.449,29.388l0.122-0.046c0.074-0.027,0.127-0.093,0.129-0.167l0.009-0.303
		c0.003-0.134-0.146-0.227-0.278-0.178l-0.133,0.048c-0.076,0.028-0.128,0.097-0.128,0.173v0.3
		C58.17,29.347,58.313,29.437,58.449,29.388z"/>
	<path fill="#001B4B" d="M57.479,29.749l0.123-0.046c0.074-0.027,0.125-0.094,0.127-0.167l0.01-0.303
		c0.004-0.134-0.146-0.228-0.279-0.177l-0.132,0.048c-0.077,0.028-0.127,0.097-0.127,0.173v0.3
		C57.199,29.708,57.344,29.797,57.479,29.749z"/>
	<path fill="#001B4B" d="M56.506,30.108l0.123-0.045c0.076-0.028,0.126-0.094,0.128-0.167l0.01-0.303
		c0.004-0.134-0.145-0.228-0.277-0.178l-0.133,0.048c-0.078,0.028-0.129,0.097-0.129,0.173v0.3
		C56.228,30.068,56.373,30.158,56.506,30.108z"/>
	<path fill="#001B4B" d="M55.534,30.469l0.124-0.045c0.074-0.028,0.125-0.094,0.128-0.167l0.009-0.303
		c0.003-0.134-0.145-0.228-0.279-0.178l-0.132,0.049c-0.077,0.028-0.128,0.097-0.128,0.173v0.3
		C55.256,30.428,55.4,30.519,55.534,30.469z"/>
	<path fill="#001B4B" d="M54.563,30.83l0.123-0.045c0.076-0.028,0.127-0.094,0.127-0.168l0.01-0.303
		c0.006-0.133-0.143-0.227-0.277-0.177l-0.132,0.049c-0.077,0.028-0.128,0.096-0.128,0.173v0.3
		C54.284,30.789,54.43,30.879,54.563,30.83z"/>
	<path fill="#001B4B" d="M53.592,31.19l0.123-0.045c0.075-0.028,0.126-0.094,0.128-0.168l0.009-0.303
		c0.004-0.133-0.144-0.228-0.279-0.178l-0.131,0.049c-0.078,0.028-0.129,0.096-0.129,0.173v0.299
		C53.313,31.149,53.458,31.239,53.592,31.19z"/>
	<path fill="#001B4B" d="M52.62,31.551l0.124-0.045c0.074-0.028,0.125-0.094,0.127-0.168l0.009-0.303
		c0.004-0.133-0.144-0.227-0.278-0.177l-0.133,0.049c-0.076,0.028-0.127,0.096-0.127,0.172v0.3
		C52.342,31.51,52.486,31.6,52.62,31.551z"/>
	<path fill="#001B4B" d="M51.648,31.911l0.123-0.045c0.076-0.028,0.127-0.094,0.129-0.168l0.009-0.303
		c0.003-0.133-0.144-0.227-0.279-0.178l-0.133,0.049c-0.076,0.028-0.127,0.096-0.127,0.172v0.3
		C51.37,31.87,51.516,31.96,51.648,31.911z"/>
	<path fill="#001B4B" d="M50.678,32.272l0.123-0.045c0.076-0.028,0.125-0.094,0.129-0.168l0.008-0.303
		c0.004-0.133-0.144-0.227-0.277-0.177l-0.133,0.048c-0.076,0.029-0.128,0.097-0.128,0.173v0.3
		C50.398,32.231,50.544,32.321,50.678,32.272z"/>
	<path fill="#001B4B" d="M49.706,32.633l0.123-0.045c0.075-0.028,0.126-0.094,0.128-0.168l0.009-0.303
		c0.005-0.133-0.144-0.228-0.278-0.178l-0.133,0.048c-0.076,0.028-0.128,0.097-0.128,0.173v0.3
		C49.427,32.591,49.572,32.682,49.706,32.633z"/>
	<g>
		<path fill="#001B4B" d="M75.491,23.396c-0.6,0.05-0.953,0.144-0.953,0.144c0.305-0.42,0.813-0.617,1.375-0.687L75.491,23.396z"/>
		<path fill="#001B4B" d="M77.021,22.85c0.904,0.086,1.685,0.335,1.69,0.343h0.001c0.291,0.294,0.262,0.563,0.262,0.563
			c-0.697-0.203-1.352-0.31-1.931-0.357L77.021,22.85z"/>
		<path fill="#001B4B" d="M76.208,22.828c0.193-0.009,0.395-0.007,0.587,0.005l-0.022,0.546c-0.359-0.019-0.688-0.018-0.978-0.003
			C75.938,23.184,76.097,22.976,76.208,22.828z"/>
	</g>
	
		<linearGradient id="SVGID_14_" gradientUnits="userSpaceOnUse" x1="1752.6133" y1="549.5352" x2="1782.0776" y2="532.9614" gradientTransform="matrix(-1 0 0 1 1826.3105 -511)">
		<stop  offset="0" style="stop-color:#303B45"/>
		<stop  offset="0.1467" style="stop-color:#384551"/>
		<stop  offset="0.4113" style="stop-color:#4E6170"/>
		<stop  offset="0.7608" style="stop-color:#718DA3"/>
		<stop  offset="1" style="stop-color:#8CAECA"/>
	</linearGradient>
	<path fill="url(#SVGID_14_)" d="M63.024,28.319c0,0,0.268,0.718-0.17,1.082c-0.436,0.363-5.756,2.756-5.756,2.756
		s-5.396-3.454-6.432-3.963c-1.037-0.508-10.401-4.359-10.963-4.655c-0.56-0.296-5.757-3.001-5.788-3.343
		c-0.031-0.342,2.085-0.199,2.583,0C36.997,20.395,60.271,28.185,63.024,28.319z"/>
	<path fill="#EAEEEF" d="M58.709,27.748c-2.814-0.714-22.218-7.205-22.604-7.649c0.168,0.029,0.307,0.063,0.396,0.098
		c0.498,0.199,23.771,7.988,26.525,8.123c0,0,0.236,0.642-0.104,1.02C62.533,29.117,61.091,28.351,58.709,27.748z"/>
	<path fill="#EAEEEF" d="M36.105,31.204c0,0,1.412-0.323,1.861-0.22c0.45,0.103,8.652,2.763,8.652,2.763s-0.043,0.536-2.557,0.928
		L36.105,31.204z"/>
	<path fill="#7895AD" d="M46.538,33.878c-0.177,0.183-0.729,0.525-2.476,0.797l-7.785-3.395c0.429-0.087,1.277-0.241,1.607-0.165
		C38.336,31.217,46.51,33.869,46.538,33.878z"/>
	<g>
		
			<linearGradient id="SVGID_15_" gradientUnits="userSpaceOnUse" x1="1753.9365" y1="544.6455" x2="1753.2495" y2="547.1646" gradientTransform="matrix(-1 0 0 1 1826.3105 -511)">
			<stop  offset="0" style="stop-color:#C5D6E3"/>
			<stop  offset="0.2873" style="stop-color:#B9CEDE"/>
			<stop  offset="0.8034" style="stop-color:#9AB8D0"/>
			<stop  offset="1" style="stop-color:#8CAECA"/>
		</linearGradient>
		<path fill="url(#SVGID_15_)" d="M70.128,35.812c0-0.464,0.204-0.872,0.516-1.111l0,0l0,0c0.016-0.011,0.027-0.021,0.043-0.031
			c2.394-1.788,4.387-1.549,4.387-1.549s0.714,1.885,0.627,3.145c-1.124,1.232-4.52,0.872-4.52,0.872l0,0
			C70.59,37.081,70.128,36.51,70.128,35.812z"/>
		<path fill="#7895AD" d="M71.181,37.138L71.181,37.138c-0.223-0.021-0.426-0.114-0.594-0.26c0.007-0.001,0.016-0.002,0.021-0.003
			c1.863-0.212,3.609-1.099,4.963-2.006c0.097,0.473,0.158,0.97,0.129,1.396C74.574,37.498,71.181,37.138,71.181,37.138z"/>
		<ellipse fill="#2D364D" cx="75.069" cy="34.777" rx="1.43" ry="1.656"/>
		<ellipse fill="#000A22" cx="75.371" cy="34.701" rx="1.128" ry="1.336"/>
	</g>
	<g>
		<path fill="#EAEEEF" d="M55.302,28.891c0,0-2.03,0.225-2.395,0.705c-0.362,0.48-0.728,0.875-0.528,1.028
			C52.578,30.775,55.934,29.043,55.302,28.891z"/>
		<path fill="#7895AD" d="M52.907,29.596c0.362-0.48,2.395-0.705,2.395-0.705s-2.226,1.216-2.425,1.246
			C52.877,30.137,53.148,29.686,52.907,29.596z"/>
	</g>
	<g>
		<path fill="#EAEEEF" d="M49.923,26.281c0,0-2.03,0.225-2.394,0.705c-0.364,0.48-0.729,0.875-0.528,1.027
			C47.2,28.166,50.555,26.433,49.923,26.281z"/>
		<path fill="#7895AD" d="M47.529,26.986c0.361-0.48,2.394-0.705,2.394-0.705s-2.226,1.215-2.424,1.246
			C47.499,27.527,47.771,27.076,47.529,26.986z"/>
	</g>
	<g>
		<path fill="#EAEEEF" d="M43.982,23.756c0,0-2.03,0.226-2.395,0.706c-0.361,0.48-0.729,0.875-0.527,1.027
			C41.26,25.64,44.613,23.908,43.982,23.756z"/>
		<path fill="#7895AD" d="M41.589,24.461c0.363-0.48,2.396-0.706,2.396-0.706s-2.226,1.216-2.424,1.246
			C41.561,25.002,41.83,24.551,41.589,24.461z"/>
	</g>
	<g>
		
			<linearGradient id="SVGID_16_" gradientUnits="userSpaceOnUse" x1="1769.4297" y1="537.6572" x2="1769.2025" y2="540.6102" gradientTransform="matrix(-1 0 0 1 1826.3105 -511)">
			<stop  offset="0" style="stop-color:#C5D6E3"/>
			<stop  offset="0.2873" style="stop-color:#B9CEDE"/>
			<stop  offset="0.8034" style="stop-color:#9AB8D0"/>
			<stop  offset="1" style="stop-color:#8CAECA"/>
		</linearGradient>
		<path fill="url(#SVGID_16_)" d="M54.279,29.057c0-0.463,0.205-0.872,0.516-1.11l0,0l0,0c0.014-0.011,0.027-0.021,0.043-0.032
			c2.396-1.788,4.388-1.548,4.388-1.548s0.715,1.884,0.627,3.145c-1.125,1.231-4.521,0.873-4.521,0.873v-0.002
			C54.742,30.327,54.279,29.755,54.279,29.057z"/>
		<path fill="#7895AD" d="M55.331,30.384L55.331,30.384c-0.222-0.022-0.424-0.116-0.591-0.261c0.007-0.001,0.013-0.002,0.021-0.002
			c1.862-0.212,3.608-1.099,4.962-2.005c0.096,0.472,0.157,0.97,0.129,1.396C58.728,30.743,55.331,30.384,55.331,30.384z"/>
		<ellipse fill="#2D364D" cx="59.226" cy="28.022" rx="1.428" ry="1.656"/>
		<ellipse fill="#000A22" cx="59.522" cy="27.946" rx="1.127" ry="1.337"/>
	</g>
</g>
</svg>
