<?xml version="1.0" encoding="utf-8"?>
<!-- Generator: Adobe Illustrator 16.0.0, SVG Export Plug-In . SVG Version: 6.00 Build 0)  -->
<!DOCTYPE svg PUBLIC "-//W3C//DTD SVG 1.1//EN" "http://www.w3.org/Graphics/SVG/1.1/DTD/svg11.dtd">
<svg version="1.1" id="Layer_1" xmlns="http://www.w3.org/2000/svg" xmlns:xlink="http://www.w3.org/1999/xlink" x="0px" y="0px"
	 width="100px" height="100px" viewBox="0 0 100 100" enable-background="new 0 0 100 100" xml:space="preserve">
<path fill="#5F9EFF" d="M6.913,0h84.925c3.817,0,6.912,3.134,6.912,7v86c0,3.866-3.095,7-6.912,7H6.913C3.095,100,0,96.866,0,93V7
	C0,3.134,3.095,0,6.913,0z"/>
<g>
	<defs>
		<rect id="SVGID_1_" x="11.56" y="4.457" width="13.273" height="6.803"/>
	</defs>
	<clipPath id="SVGID_2_">
		<use xlink:href="#SVGID_1_"  overflow="visible"/>
	</clipPath>
	<g clip-path="url(#SVGID_2_)">
		<path fill="#FFFFFF" d="M11.656,10.998h2.425c0.025,0,0.05,0.01,0.068,0.028c0.019,0.018,0.028,0.042,0.028,0.068
			c0,0.012-0.002,0.025-0.007,0.037c-0.005,0.011-0.012,0.022-0.021,0.031c-0.009,0.009-0.02,0.016-0.031,0.021
			s-0.024,0.007-0.037,0.007h-2.425c-0.012,0-0.025-0.002-0.037-0.007s-0.022-0.012-0.031-0.021s-0.016-0.02-0.021-0.031
			c-0.005-0.012-0.007-0.024-0.007-0.037c0-0.026,0.01-0.05,0.028-0.068C11.606,11.008,11.631,10.998,11.656,10.998L11.656,10.998z"
			/>
		<path fill="#FFFFFF" d="M22.312,10.998h2.426c0.025,0,0.049,0.011,0.067,0.029c0.018,0.018,0.028,0.042,0.028,0.068
			c0,0.025-0.01,0.049-0.028,0.067c-0.018,0.018-0.042,0.028-0.067,0.028h-2.426c-0.025,0-0.049-0.01-0.067-0.028
			c-0.018-0.018-0.027-0.042-0.027-0.067c0-0.025,0.01-0.05,0.027-0.068S22.287,10.998,22.312,10.998L22.312,10.998z"/>
		<path fill="#FFFFFF" d="M18.197,4.457c0.025,0,0.049,0.011,0.067,0.029c0.018,0.018,0.028,0.042,0.028,0.068v2.425
			c0.001,0.014,0,0.027-0.003,0.04c-0.004,0.013-0.011,0.025-0.02,0.036c-0.009,0.01-0.02,0.019-0.033,0.024
			c-0.012,0.006-0.026,0.009-0.04,0.009s-0.027-0.003-0.04-0.009c-0.013-0.005-0.023-0.014-0.033-0.024s-0.016-0.022-0.02-0.036
			c-0.004-0.013-0.005-0.026-0.003-0.04V4.553c0-0.025,0.01-0.05,0.028-0.068S18.171,4.457,18.197,4.457L18.197,4.457z"/>
		<path fill="#FFFFFF" d="M22.822,6.373c0.019,0,0.037,0.006,0.053,0.017c0.015,0.011,0.027,0.025,0.035,0.043
			s0.009,0.037,0.005,0.055s-0.012,0.036-0.025,0.049l-1.715,1.714c-0.018,0.018-0.042,0.028-0.067,0.028
			c-0.025,0-0.049-0.01-0.067-0.028c-0.009-0.009-0.017-0.019-0.021-0.031s-0.007-0.024-0.007-0.037
			c0-0.012,0.002-0.025,0.007-0.037c0.005-0.011,0.012-0.022,0.021-0.03L22.754,6.4c0.009-0.009,0.019-0.016,0.031-0.021
			C22.797,6.375,22.809,6.373,22.822,6.373L22.822,6.373z"/>
		<path fill="#FFFFFF" d="M13.571,6.373c0.025,0,0.05,0.01,0.069,0.027l1.714,1.716c0.018,0.018,0.027,0.042,0.027,0.067
			s-0.01,0.049-0.027,0.067c-0.019,0.018-0.042,0.027-0.068,0.027s-0.05-0.01-0.068-0.027l-1.714-1.715
			c-0.018-0.018-0.028-0.042-0.028-0.068s0.01-0.05,0.028-0.068c0.009-0.008,0.019-0.016,0.031-0.02
			C13.546,6.375,13.559,6.373,13.571,6.373L13.571,6.373z"/>
		<path fill="#FFFFFF" d="M12.189,8.411c0.013,0,0.026,0.002,0.038,0.007l2.228,0.96c0.011,0.005,0.022,0.012,0.031,0.021
			c0.009,0.009,0.016,0.02,0.021,0.031c0.005,0.012,0.007,0.024,0.007,0.037c0,0.013-0.002,0.025-0.008,0.037
			c-0.01,0.023-0.029,0.042-0.052,0.051c-0.023,0.01-0.05,0.009-0.073,0l-2.227-0.959c-0.012-0.005-0.022-0.012-0.031-0.021
			c-0.009-0.009-0.016-0.02-0.021-0.031s-0.007-0.024-0.007-0.037c0-0.013,0.003-0.025,0.008-0.037
			c0.007-0.017,0.02-0.032,0.035-0.042C12.152,8.416,12.17,8.411,12.189,8.411L12.189,8.411z"/>
		<path fill="#FFFFFF" d="M20.784,4.996c0.013,0,0.026,0.003,0.038,0.007c0.023,0.01,0.042,0.029,0.051,0.053
			c0.009,0.023,0.009,0.05-0.001,0.073l-0.959,2.228c-0.005,0.012-0.012,0.022-0.021,0.031c-0.009,0.009-0.02,0.016-0.031,0.021
			c-0.012,0.004-0.024,0.007-0.037,0.006c-0.013,0-0.025-0.002-0.037-0.008c-0.012-0.005-0.022-0.012-0.031-0.021
			c-0.009-0.009-0.016-0.02-0.021-0.031c-0.004-0.012-0.007-0.024-0.007-0.037c0-0.012,0.003-0.025,0.008-0.037L20.7,5.049
			c0.008-0.016,0.02-0.03,0.035-0.039C20.749,5.001,20.767,4.996,20.784,4.996z"/>
		<path fill="#FFFFFF" d="M24.274,8.581c0.02,0,0.038,0.006,0.054,0.017c0.016,0.011,0.028,0.025,0.035,0.043
			c0.005,0.012,0.007,0.024,0.007,0.037c0,0.013-0.003,0.025-0.008,0.037s-0.012,0.022-0.021,0.031s-0.02,0.016-0.032,0.02
			l-2.253,0.897c-0.012,0.005-0.024,0.007-0.037,0.007c-0.013,0-0.025-0.003-0.037-0.008s-0.022-0.012-0.031-0.021
			c-0.009-0.009-0.016-0.02-0.02-0.032c-0.005-0.011-0.007-0.024-0.007-0.037c0-0.012,0.003-0.024,0.008-0.036
			s0.012-0.022,0.021-0.031c0.009-0.009,0.02-0.016,0.031-0.02l2.253-0.897C24.25,8.583,24.262,8.581,24.274,8.581L24.274,8.581z"/>
		<path fill="#FFFFFF" d="M15.779,4.92c0.019,0,0.038,0.006,0.054,0.017c0.016,0.011,0.028,0.026,0.035,0.044l0.897,2.253
			c0.009,0.023,0.009,0.05-0.001,0.073c-0.01,0.023-0.029,0.042-0.052,0.051s-0.05,0.009-0.073-0.001
			c-0.023-0.01-0.042-0.029-0.051-0.053L15.69,5.052c-0.005-0.011-0.007-0.024-0.007-0.037s0.002-0.025,0.008-0.037
			c0.005-0.011,0.012-0.021,0.021-0.03c0.009-0.009,0.02-0.016,0.032-0.02C15.755,4.923,15.767,4.92,15.779,4.92L15.779,4.92z"/>
	</g>
</g>
<g>
	<defs>
		<rect id="SVGID_3_" x="11.56" y="11.192" width="13.273" height="6.803"/>
	</defs>
	<clipPath id="SVGID_4_">
		<use xlink:href="#SVGID_3_"  overflow="visible"/>
	</clipPath>
	<g clip-path="url(#SVGID_4_)">
		<path fill="#FFFFFF" d="M18.196,17.995c-0.025,0-0.05-0.011-0.067-0.029s-0.028-0.042-0.028-0.067v-2.425
			c-0.001-0.014,0-0.027,0.003-0.041c0.004-0.013,0.011-0.025,0.02-0.035c0.009-0.011,0.02-0.019,0.033-0.024
			s0.026-0.009,0.04-0.009s0.027,0.003,0.04,0.009c0.013,0.006,0.024,0.014,0.033,0.024c0.009,0.01,0.016,0.022,0.02,0.035
			c0.004,0.013,0.005,0.027,0.003,0.041v2.425c0,0.025-0.01,0.05-0.028,0.068C18.246,17.985,18.221,17.995,18.196,17.995
			L18.196,17.995z"/>
		<path fill="#FFFFFF" d="M13.571,16.079c-0.019,0-0.037-0.007-0.053-0.018c-0.016-0.01-0.028-0.025-0.035-0.042
			c-0.007-0.018-0.009-0.036-0.006-0.055c0.004-0.019,0.013-0.036,0.026-0.049l1.714-1.714c0.018-0.018,0.042-0.027,0.067-0.027
			c0.025,0,0.049,0.01,0.067,0.027c0.009,0.009,0.016,0.019,0.021,0.031s0.007,0.024,0.007,0.037c0,0.012-0.002,0.025-0.007,0.037
			c-0.005,0.011-0.012,0.022-0.021,0.03l-1.715,1.716c-0.008,0.009-0.019,0.016-0.031,0.021
			C13.596,16.076,13.583,16.079,13.571,16.079L13.571,16.079z"/>
		<path fill="#FFFFFF" d="M22.821,16.079c-0.025,0-0.05-0.01-0.069-0.028l-1.714-1.716c-0.018-0.018-0.027-0.042-0.027-0.067
			c0-0.025,0.01-0.049,0.027-0.067c0.018-0.018,0.042-0.028,0.068-0.028s0.05,0.01,0.068,0.028l1.714,1.714
			c0.018,0.018,0.027,0.043,0.027,0.068c0,0.025-0.01,0.05-0.027,0.068c-0.009,0.009-0.019,0.016-0.031,0.021
			C22.846,16.076,22.834,16.079,22.821,16.079L22.821,16.079z"/>
		<path fill="#FFFFFF" d="M24.204,14.041c-0.013,0-0.026-0.003-0.038-0.008l-2.228-0.96c-0.011-0.004-0.022-0.012-0.031-0.021
			s-0.016-0.02-0.021-0.031c-0.004-0.012-0.007-0.024-0.006-0.037c0-0.012,0.002-0.025,0.008-0.037
			c0.01-0.023,0.029-0.042,0.052-0.051s0.05-0.009,0.073,0l2.227,0.96c0.012,0.004,0.022,0.012,0.031,0.021
			c0.009,0.009,0.016,0.02,0.021,0.032c0.004,0.012,0.007,0.024,0.007,0.037c0,0.012-0.003,0.025-0.008,0.037
			c-0.007,0.017-0.02,0.032-0.035,0.042C24.241,14.035,24.222,14.041,24.204,14.041L24.204,14.041z"/>
		<path fill="#FFFFFF" d="M15.608,17.456c-0.013,0-0.026-0.003-0.038-0.008c-0.023-0.01-0.042-0.029-0.051-0.052
			c-0.009-0.023-0.009-0.05,0.001-0.073l0.959-2.228c0.005-0.011,0.012-0.022,0.021-0.03c0.009-0.01,0.02-0.016,0.031-0.021
			s0.024-0.007,0.037-0.007c0.013,0,0.025,0.002,0.037,0.008c0.012,0.005,0.022,0.012,0.031,0.021
			c0.009,0.009,0.016,0.02,0.021,0.031c0.004,0.012,0.007,0.024,0.007,0.037c0,0.013-0.003,0.025-0.008,0.037l-0.962,2.232
			c-0.008,0.016-0.02,0.03-0.035,0.039C15.644,17.45,15.626,17.456,15.608,17.456z"/>
		<path fill="#FFFFFF" d="M12.119,13.871c-0.02,0-0.038-0.006-0.054-0.017c-0.016-0.011-0.028-0.025-0.035-0.043
			c-0.005-0.012-0.007-0.024-0.007-0.037c0-0.012,0.003-0.025,0.008-0.036c0.005-0.012,0.012-0.022,0.021-0.031
			s0.02-0.016,0.032-0.02l2.253-0.897c0.012-0.005,0.024-0.007,0.037-0.007c0.013,0,0.025,0.003,0.037,0.008
			s0.022,0.012,0.031,0.021c0.009,0.009,0.016,0.02,0.02,0.031c0.005,0.012,0.007,0.024,0.007,0.037
			c0,0.013-0.003,0.025-0.008,0.037s-0.012,0.022-0.021,0.031c-0.009,0.008-0.02,0.016-0.031,0.02l-2.253,0.897
			C12.143,13.869,12.13,13.871,12.119,13.871L12.119,13.871z"/>
		<path fill="#FFFFFF" d="M20.614,17.531c-0.02,0-0.039-0.005-0.054-0.016c-0.016-0.011-0.028-0.026-0.035-0.045l-0.897-2.253
			c-0.01-0.023-0.009-0.05,0.001-0.073c0.01-0.023,0.029-0.042,0.053-0.051c0.023-0.009,0.049-0.008,0.073,0.001
			c0.023,0.01,0.042,0.029,0.051,0.052l0.897,2.253c0.004,0.012,0.007,0.024,0.006,0.037c0,0.013-0.002,0.025-0.007,0.037
			c-0.005,0.012-0.012,0.022-0.021,0.03c-0.009,0.009-0.02,0.016-0.031,0.021C20.638,17.528,20.626,17.531,20.614,17.531
			L20.614,17.531z"/>
	</g>
</g>
<circle fill="#FFB300" cx="18.142" cy="11.192" r="3.368"/>
<linearGradient id="SVGID_5_" gradientUnits="userSpaceOnUse" x1="77.2793" y1="71.9805" x2="77.0072" y2="78.2006" gradientTransform="matrix(1 0 0 -1 4 95)">
	<stop  offset="0" style="stop-color:#FFFFFF;stop-opacity:0"/>
	<stop  offset="0.23" style="stop-color:#FFFFFF;stop-opacity:0.27"/>
	<stop  offset="0.51" style="stop-color:#FFFFFF;stop-opacity:0.58"/>
	<stop  offset="0.74" style="stop-color:#FFFFFF;stop-opacity:0.81"/>
	<stop  offset="0.9" style="stop-color:#FFFFFF;stop-opacity:0.95"/>
	<stop  offset="0.99" style="stop-color:#FFFFFF"/>
</linearGradient>
<path fill="url(#SVGID_5_)" d="M100,19.907c-1.25-0.374-2.525-0.496-3.769-0.102c-0.565,0.179-1.13,0.465-1.718,0.39
	c-0.824-0.105-1.359-0.859-1.869-1.497c-0.512-0.637-1.293-1.272-2.084-1.02c-0.641,0.204-0.982,0.913-1.595,1.188
	c-0.774,0.349-1.7-0.126-2.219-0.782s-0.78-1.47-1.237-2.167c-0.819-1.247-2.293-2.058-3.814-2.101s-3.049,0.685-3.953,1.883
	c-0.379,0.501-0.693,1.111-1.281,1.353c-1.086,0.446-2.27-0.648-3.427-0.438c-2.044,0.373-1.885,4.092-3.946,4.346
	c-0.76,0.094-1.463-0.382-2.221-0.477c-1.176-0.146-2.273,0.644-3.011,1.554c-0.505,0.623-0.913,1.32-1.393,1.959L100,19.907z"/>
<linearGradient id="SVGID_6_" gradientUnits="userSpaceOnUse" x1="17.3281" y1="15.8086" x2="16.4967" y2="20.441" gradientTransform="matrix(1 0 0 -1 4 95)">
	<stop  offset="0" style="stop-color:#FFFFFF;stop-opacity:0"/>
	<stop  offset="0.23" style="stop-color:#FFFFFF;stop-opacity:0.27"/>
	<stop  offset="0.51" style="stop-color:#FFFFFF;stop-opacity:0.58"/>
	<stop  offset="0.74" style="stop-color:#FFFFFF;stop-opacity:0.81"/>
	<stop  offset="0.9" style="stop-color:#FFFFFF;stop-opacity:0.95"/>
	<stop  offset="0.99" style="stop-color:#FFFFFF"/>
</linearGradient>
<path fill="url(#SVGID_6_)" d="M7.006,80c0.859-0.483,1.78-0.785,2.762-0.701c0.446,0.039,0.91,0.156,1.331,0.003
	c0.59-0.214,0.86-0.859,1.131-1.414c0.271-0.554,0.741-1.152,1.367-1.098c0.506,0.044,0.876,0.511,1.373,0.612
	c0.629,0.129,1.232-0.376,1.506-0.945c0.273-0.568,0.331-1.213,0.553-1.803c0.397-1.055,1.349-1.898,2.464-2.182
	s2.362-0.001,3.228,0.732c0.362,0.308,0.695,0.705,1.168,0.785c0.875,0.148,1.567-0.855,2.455-0.892
	c1.568-0.064,2.068,2.704,3.631,2.55c0.575-0.057,1.015-0.524,1.558-0.72c0.843-0.304,1.784,0.097,2.479,0.646
	c0.476,0.376,0.893,0.822,1.352,1.215L7.006,80z"/>
<linearGradient id="SVGID_7_" gradientUnits="userSpaceOnUse" x1="72.6914" y1="34.4341" x2="71.5517" y2="40.784" gradientTransform="matrix(1 0 0 -1 4 95)">
	<stop  offset="0" style="stop-color:#FFFFFF;stop-opacity:0"/>
	<stop  offset="0.23" style="stop-color:#FFFFFF;stop-opacity:0.27"/>
	<stop  offset="0.51" style="stop-color:#FFFFFF;stop-opacity:0.58"/>
	<stop  offset="0.74" style="stop-color:#FFFFFF;stop-opacity:0.81"/>
	<stop  offset="0.9" style="stop-color:#FFFFFF;stop-opacity:0.95"/>
	<stop  offset="0.99" style="stop-color:#FFFFFF"/>
</linearGradient>
<path fill="url(#SVGID_7_)" d="M57.057,61.677c1.179-0.663,2.441-1.075,3.787-0.96c0.611,0.052,1.248,0.213,1.825,0.002
	c0.809-0.293,1.179-1.178,1.55-1.938s1.017-1.58,1.874-1.505c0.694,0.061,1.201,0.699,1.882,0.839
	c0.863,0.176,1.691-0.516,2.066-1.295c0.375-0.781,0.453-1.664,0.758-2.473c0.544-1.445,1.849-2.602,3.377-2.99
	c1.529-0.389,3.238-0.001,4.426,1.004c0.496,0.422,0.953,0.966,1.602,1.076c1.199,0.204,2.148-1.172,3.365-1.222
	c2.151-0.089,2.836,3.708,4.979,3.495c0.788-0.078,1.392-0.719,2.136-0.986c1.155-0.416,2.445,0.133,3.397,0.885
	c0.652,0.516,1.224,1.128,1.854,1.664L57.057,61.677z"/>
<linearGradient id="SVGID_8_" gradientUnits="userSpaceOnUse" x1="32.4507" y1="57.6455" x2="67.2882" y2="19.5145" gradientTransform="matrix(1 0 0 -1 4 95)">
	<stop  offset="0" style="stop-color:#5A9BFF"/>
	<stop  offset="1" style="stop-color:#031959"/>
</linearGradient>
<path fill="url(#SVGID_8_)" d="M26.087,44.741c0-5.101,3.857-9.375,8.931-9.897l28.269-2.91c5.867-0.604,10.969,4,10.969,9.897
	v18.174c0,5.1-3.856,9.375-8.931,9.896l-28.27,2.91c-5.867,0.604-10.968-4-10.968-9.897V44.741z"/>
<linearGradient id="SVGID_9_" gradientUnits="userSpaceOnUse" x1="34.0112" y1="57.9395" x2="56.9349" y2="25.0967" gradientTransform="matrix(1 0 0 -1 4 95)">
	<stop  offset="0" style="stop-color:#FFFFFF;stop-opacity:0"/>
	<stop  offset="1" style="stop-color:#FFFFFF"/>
</linearGradient>
<path opacity="0.45" fill="url(#SVGID_9_)" enable-background="new    " d="M73.099,37.58
	c-12.166,17.525-33.69,28.381-46.168,33.512c0-0.783-0.002-1.588,0-2.375V39.425c0.016-0.698,0.29-1.368,0.772-1.885
	c0.482-0.518,1.141-0.849,1.854-0.934l35.095-3.589C68.895,32.303,71.466,34.555,73.099,37.58z"/>
<linearGradient id="SVGID_10_" gradientUnits="userSpaceOnUse" x1="70.7754" y1="8.2261" x2="25.8661" y2="32.9584" gradientTransform="matrix(1 0 0 -1 4 95)">
	<stop  offset="0" style="stop-color:#F3850B"/>
	<stop  offset="1" style="stop-color:#E83819"/>
</linearGradient>
<path fill="url(#SVGID_10_)" d="M64.857,66.838L30.253,70.68c-0.593,0.074-1.134,0.307-1.525,0.654
	c-0.391,0.349-0.605,0.789-0.604,1.24l0.094,2.869c0.002,0.211,0.065,0.417,0.183,0.605c0.118,0.188,0.289,0.354,0.501,0.487
	s0.461,0.229,0.729,0.281c0.268,0.053,0.549,0.062,0.824,0.024l34.604-3.841c0.594-0.073,1.135-0.306,1.526-0.654
	s0.605-0.789,0.603-1.241l-0.094-2.863c0-0.211-0.063-0.418-0.18-0.607s-0.288-0.356-0.501-0.49
	c-0.212-0.133-0.462-0.229-0.729-0.283C65.414,66.809,65.133,66.801,64.857,66.838z"/>
<path fill="#FFFFFF" d="M83.684,39.103c0-0.223-0.275-0.365-0.51-0.266c-0.415,0.175-0.659,0.541-0.88,0.853
	c-0.278,0.407-0.467,0.659-0.796,0.659c-0.33,0-0.519-0.249-0.797-0.659c-0.279-0.411-0.66-0.957-1.412-0.957
	s-1.119,0.531-1.41,0.957c-0.293,0.425-0.467,0.659-0.797,0.659s-0.518-0.249-0.797-0.659c-0.278-0.411-0.659-0.957-1.411-0.957
	s-1.12,0.531-1.411,0.957c-0.292,0.425-0.465,0.659-0.795,0.659s-0.518-0.249-0.797-0.659c-0.221-0.33-0.482-0.704-0.925-0.871
	c-0.05-0.022-0.104-0.033-0.157-0.031c-0.055,0.002-0.107,0.018-0.155,0.044c-0.048,0.026-0.088,0.064-0.118,0.109
	c-0.029,0.045-0.049,0.097-0.056,0.151l0,0c0.001,0.062,0.021,0.122,0.058,0.171c0.035,0.05,0.086,0.088,0.144,0.109
	c0.216,0.083,0.378,0.304,0.595,0.619c0.293,0.427,0.66,0.956,1.412,0.956s1.119-0.529,1.411-0.956
	c0.292-0.427,0.466-0.66,0.795-0.66s0.518,0.249,0.796,0.66c0.279,0.41,0.66,0.956,1.412,0.956s1.119-0.529,1.411-0.956
	c0.292-0.427,0.467-0.66,0.796-0.66c0.33,0,0.518,0.249,0.797,0.66c0.279,0.41,0.66,0.956,1.412,0.956s1.119-0.529,1.41-0.956
	c0.212-0.309,0.371-0.526,0.581-0.614c0.054-0.017,0.101-0.05,0.136-0.095c0.034-0.044,0.055-0.098,0.059-0.154V39.103z"/>
<path fill="#FFFFFF" d="M32.189,54.609c0-0.223-0.275-0.363-0.509-0.266c-0.416,0.175-0.66,0.543-0.88,0.853
	c-0.279,0.407-0.465,0.659-0.796,0.659c-0.332,0-0.518-0.248-0.795-0.659s-0.66-0.954-1.413-0.954s-1.12,0.529-1.412,0.954
	c-0.292,0.425-0.465,0.659-0.794,0.659s-0.518-0.248-0.796-0.659c-0.279-0.411-0.66-0.954-1.412-0.954s-1.12,0.529-1.411,0.954
	c-0.292,0.425-0.467,0.659-0.796,0.659c-0.33,0-0.518-0.248-0.796-0.659c-0.22-0.321-0.482-0.704-0.925-0.87
	c-0.049-0.022-0.104-0.032-0.158-0.03c-0.054,0.003-0.107,0.019-0.154,0.044c-0.047,0.027-0.087,0.064-0.118,0.109
	s-0.05,0.097-0.057,0.15c0.001,0.062,0.021,0.121,0.058,0.172c0.036,0.05,0.087,0.088,0.145,0.108
	c0.216,0.083,0.378,0.304,0.594,0.62c0.292,0.426,0.66,0.955,1.412,0.955c0.751,0,1.12-0.529,1.411-0.955
	c0.292-0.426,0.467-0.66,0.796-0.66c0.33,0,0.518,0.25,0.795,0.66s0.66,0.955,1.413,0.955S26.708,55.926,27,55.5
	c0.292-0.426,0.465-0.66,0.795-0.66s0.518,0.25,0.796,0.66s0.66,0.955,1.412,0.955s1.12-0.529,1.411-0.955
	c0.213-0.311,0.373-0.527,0.582-0.613c0.053-0.019,0.1-0.052,0.135-0.097c0.034-0.044,0.055-0.099,0.058-0.154V54.609z"/>
<linearGradient id="SVGID_11_" gradientUnits="userSpaceOnUse" x1="87.2949" y1="43.8242" x2="27.0917" y2="77.1614" gradientTransform="matrix(1 0 0 -1 4 95)">
	<stop  offset="0" style="stop-color:#F3850B"/>
	<stop  offset="1" style="stop-color:#E83819"/>
</linearGradient>
<path fill="url(#SVGID_11_)" d="M81.953,25.117l-50.919,5.31c-0.793,0.093-1.52,0.401-2.046,0.869
	c-0.527,0.468-0.819,1.063-0.822,1.678l0.091,3.898c0,0.285,0.082,0.566,0.237,0.824c0.156,0.257,0.382,0.485,0.665,0.669
	c0.282,0.183,0.613,0.316,0.971,0.392c0.357,0.076,0.733,0.09,1.101,0.044l50.919-5.307c0.794-0.092,1.521-0.401,2.048-0.869
	c0.526-0.468,0.819-1.063,0.821-1.678l-0.091-3.892c0.001-0.286-0.078-0.568-0.233-0.827c-0.154-0.259-0.381-0.488-0.663-0.672
	s-0.614-0.318-0.974-0.395C82.699,25.085,82.322,25.07,81.953,25.117L81.953,25.117z"/>
<path fill="#FFFFFF" d="M34.345,51.686c0.015,0.673,0.302,0.973,0.861,0.899s0.831-0.446,0.816-1.118l-0.181-8.012l1.53-0.2
	l0.179,7.907c0.019,0.841-0.172,1.516-0.574,2.024c-0.402,0.499-0.996,0.8-1.78,0.902s-1.388-0.042-1.81-0.433
	c-0.422-0.401-0.643-1.021-0.662-1.863l-0.179-7.907l1.619-0.211L34.345,51.686z"/>
<path fill="#FFFFFF" d="M40.865,42.798c0.804-0.105,1.413,0.033,1.824,0.416c0.412,0.382,0.628,0.994,0.647,1.835l0.03,1.35
	c0.02,0.84-0.167,1.505-0.56,1.993c-0.393,0.488-0.991,0.784-1.795,0.89l-0.765,0.1l0.088,3.902l-1.619,0.211l-0.235-10.385
	L40.865,42.798z M40.212,47.897l0.766-0.1c0.265-0.035,0.459-0.134,0.583-0.299c0.134-0.167,0.197-0.428,0.188-0.784l-0.035-1.558
	c-0.008-0.356-0.083-0.6-0.223-0.73c-0.131-0.131-0.329-0.18-0.593-0.146l-0.766,0.1L40.212,47.897z"/>
<path fill="#FFFFFF" d="M50.844,41.492l0.034,1.484l-1.692,0.221l0.202,8.901l-1.619,0.212l-0.202-8.901l-1.692,0.221l-0.034-1.483
	L50.844,41.492z"/>
<path fill="#FFFFFF" d="M51.48,43.909c-0.018-0.831,0.178-1.501,0.59-2.011s1.014-0.817,1.809-0.921
	c0.795-0.104,1.408,0.044,1.84,0.444c0.433,0.399,0.658,1.015,0.677,1.846l0.122,5.4c0.02,0.831-0.178,1.501-0.589,2.011
	c-0.411,0.51-1.015,0.817-1.81,0.921c-0.794,0.104-1.407-0.044-1.84-0.443c-0.432-0.399-0.657-1.015-0.676-1.846L51.48,43.909z
	 M53.225,49.201c0.016,0.683,0.303,0.987,0.861,0.914c0.56-0.073,0.831-0.451,0.816-1.133l-0.127-5.608
	c-0.016-0.683-0.303-0.987-0.862-0.914s-0.831,0.451-0.815,1.133L53.225,49.201z"/>
<path fill="#FFFFFF" d="M44.521,56.66c-0.012-0.535,0.111-0.963,0.37-1.284s0.643-0.516,1.152-0.582
	c0.51-0.067,0.901,0.026,1.172,0.278s0.413,0.645,0.425,1.18l0.077,3.412c0.012,0.533-0.111,0.961-0.37,1.283
	c-0.258,0.321-0.643,0.516-1.152,0.582c-0.51,0.066-0.901-0.025-1.172-0.278c-0.271-0.252-0.413-0.646-0.425-1.179L44.521,56.66z
	 M51.063,54.212l-3.826,10.916l-0.957,0.125l3.826-10.916L51.063,54.212z M45.63,60.012c0.01,0.435,0.191,0.629,0.544,0.583
	c0.354-0.046,0.525-0.287,0.515-0.722l-0.081-3.561c-0.01-0.436-0.191-0.631-0.544-0.584s-0.525,0.287-0.515,0.723L45.63,60.012z
	 M49.713,59.789c-0.012-0.533,0.111-0.961,0.37-1.283c0.258-0.321,0.643-0.516,1.152-0.582c0.511-0.066,0.901,0.026,1.173,0.278
	c0.271,0.253,0.412,0.646,0.425,1.18l0.077,3.412c0.012,0.534-0.111,0.962-0.369,1.283c-0.259,0.321-0.643,0.516-1.152,0.583
	c-0.511,0.066-0.901-0.027-1.173-0.279s-0.413-0.645-0.425-1.179L49.713,59.789z M50.822,63.141c0.01,0.436,0.191,0.631,0.545,0.584
	c0.354-0.046,0.524-0.287,0.515-0.722l-0.081-3.561c-0.01-0.436-0.191-0.63-0.544-0.583c-0.354,0.045-0.524,0.286-0.515,0.721
	L50.822,63.141z"/>
<path fill="#FFFFFF" d="M56.008,56.064c-0.02-0.83,0.178-1.501,0.589-2.012c0.411-0.51,1.015-0.816,1.81-0.92
	c0.795-0.104,1.408,0.043,1.84,0.443c0.432,0.399,0.658,1.016,0.676,1.846l0.123,5.4c0.019,0.83-0.178,1.501-0.59,2.012
	c-0.411,0.51-1.014,0.816-1.809,0.921s-1.408-0.044-1.84-0.444c-0.432-0.399-0.658-1.015-0.677-1.846L56.008,56.064z M57.751,61.357
	c0.016,0.682,0.303,0.986,0.862,0.914c0.559-0.073,0.83-0.451,0.815-1.134l-0.128-5.608c-0.015-0.682-0.302-0.986-0.861-0.914
	c-0.559,0.074-0.831,0.451-0.815,1.134L57.751,61.357z"/>
<path fill="#FFFFFF" d="M65.73,56.921l0.033,1.483l-2.09,0.273l0.098,4.287l-1.619,0.212l-0.234-10.385l4.281-0.56l0.034,1.482
	l-2.663,0.35l0.07,3.13L65.73,56.921z"/>
<path fill="#FFFFFF" d="M70.789,56.26l0.033,1.483l-2.09,0.272l0.098,4.288l-1.619,0.212l-0.234-10.385l4.281-0.561l0.033,1.483
	l-2.663,0.349l0.071,3.131L70.789,56.26z"/>
<path fill="#FFFFFF" d="M32.618,73.549c0,0.202-0.025,0.39-0.075,0.562c-0.05,0.171-0.126,0.321-0.229,0.452
	c-0.101,0.131-0.23,0.238-0.386,0.319c-0.156,0.08-0.341,0.132-0.554,0.155c-0.213,0.022-0.398,0.011-0.554-0.036
	c-0.156-0.048-0.285-0.126-0.388-0.235c-0.102-0.108-0.177-0.244-0.227-0.404c-0.05-0.162-0.075-0.344-0.075-0.548
	c0-0.272,0.044-0.514,0.132-0.725c0.089-0.212,0.227-0.384,0.411-0.516s0.419-0.212,0.705-0.243c0.284-0.03,0.517,0,0.699,0.092
	c0.184,0.092,0.319,0.234,0.408,0.428C32.574,73.042,32.618,73.275,32.618,73.549z M30.711,73.754c0,0.184,0.022,0.34,0.068,0.468
	c0.046,0.127,0.119,0.221,0.216,0.282c0.098,0.061,0.224,0.082,0.379,0.065c0.158-0.017,0.285-0.066,0.383-0.147
	c0.098-0.082,0.168-0.191,0.213-0.328c0.045-0.139,0.068-0.299,0.068-0.482c0-0.275-0.051-0.487-0.154-0.635
	c-0.103-0.146-0.271-0.208-0.506-0.183c-0.156,0.017-0.284,0.066-0.383,0.149c-0.098,0.081-0.17,0.191-0.216,0.329
	C30.733,73.409,30.711,73.57,30.711,73.754z"/>
<path fill="#FFFFFF" d="M35.479,74.559l-0.705,0.076l-1.137-1.867l-0.016,0.002c0.005,0.082,0.009,0.165,0.013,0.249
	c0.003,0.083,0.007,0.167,0.011,0.251c0.004,0.082,0.007,0.164,0.011,0.248v1.237l-0.495,0.054V72.18l0.699-0.076l1.135,1.847
	l0.013-0.001c-0.002-0.082-0.005-0.162-0.009-0.242c-0.004-0.08-0.007-0.16-0.011-0.239c-0.002-0.08-0.005-0.16-0.007-0.24v-1.245
	l0.499-0.053V74.559z"/>
<path fill="#FFFFFF" d="M38.632,73.488c0,0.155-0.038,0.295-0.112,0.418c-0.075,0.123-0.185,0.225-0.329,0.302
	c-0.143,0.078-0.317,0.128-0.522,0.149c-0.091,0.01-0.18,0.014-0.267,0.012c-0.086-0.004-0.168-0.012-0.249-0.025
	c-0.079-0.016-0.154-0.037-0.225-0.064v-0.518c0.124,0.041,0.252,0.078,0.386,0.107c0.133,0.03,0.266,0.038,0.397,0.023
	c0.09-0.01,0.163-0.029,0.218-0.059c0.056-0.031,0.097-0.068,0.122-0.112c0.025-0.045,0.038-0.095,0.038-0.147
	c0-0.066-0.022-0.121-0.066-0.162c-0.044-0.043-0.105-0.08-0.183-0.111c-0.076-0.033-0.163-0.068-0.259-0.104
	c-0.061-0.022-0.127-0.051-0.198-0.084s-0.14-0.077-0.204-0.131c-0.064-0.053-0.118-0.119-0.159-0.199
	c-0.041-0.082-0.061-0.184-0.061-0.303c0-0.158,0.036-0.296,0.107-0.415c0.071-0.119,0.173-0.216,0.306-0.288
	c0.133-0.074,0.291-0.121,0.472-0.141c0.136-0.015,0.265-0.013,0.388,0.006c0.124,0.019,0.253,0.05,0.388,0.096l-0.179,0.452
	c-0.12-0.036-0.228-0.062-0.323-0.078c-0.096-0.018-0.193-0.021-0.292-0.01c-0.069,0.007-0.128,0.024-0.177,0.053
	c-0.049,0.027-0.085,0.063-0.111,0.105c-0.025,0.042-0.037,0.09-0.037,0.143c0,0.063,0.018,0.113,0.053,0.152
	c0.037,0.038,0.092,0.073,0.165,0.104c0.074,0.031,0.166,0.068,0.275,0.109c0.134,0.049,0.248,0.104,0.341,0.162
	c0.096,0.059,0.169,0.131,0.22,0.219S38.632,73.35,38.632,73.488z"/>
<path fill="#FFFFFF" d="M40.611,74.004l-1.505,0.163v-2.629l1.505-0.162v0.456l-0.951,0.104v0.576l0.885-0.095v0.456l-0.885,0.096
	v0.678l0.951-0.102V74.004z"/>
<path fill="#FFFFFF" d="M41.159,73.945v-2.629l0.554-0.06v2.169l1.06-0.115v0.461L41.159,73.945z"/>
<path fill="#FFFFFF" d="M44.734,73.561l-1.505,0.162v-2.629l1.505-0.162v0.456l-0.951,0.103v0.577l0.885-0.095v0.456l-0.885,0.096
	v0.678l0.951-0.103V73.561z"/>
<path fill="#FFFFFF" d="M46.391,71.179c-0.106,0.011-0.2,0.042-0.282,0.093c-0.081,0.05-0.15,0.117-0.206,0.201
	c-0.055,0.084-0.097,0.182-0.125,0.295c-0.028,0.113-0.043,0.239-0.043,0.377c0,0.186,0.023,0.342,0.068,0.47
	c0.046,0.126,0.118,0.218,0.214,0.276s0.221,0.079,0.374,0.063c0.106-0.012,0.212-0.035,0.318-0.07
	c0.107-0.035,0.224-0.082,0.349-0.14v0.468c-0.116,0.061-0.229,0.106-0.341,0.139c-0.112,0.033-0.238,0.059-0.377,0.073
	c-0.27,0.029-0.491-0.003-0.665-0.096c-0.173-0.094-0.301-0.237-0.384-0.43c-0.083-0.193-0.125-0.425-0.125-0.694
	c0-0.199,0.026-0.385,0.08-0.556s0.132-0.323,0.236-0.455c0.104-0.132,0.231-0.239,0.384-0.322c0.152-0.082,0.328-0.134,0.525-0.155
	c0.13-0.014,0.26-0.012,0.39,0.008c0.131,0.019,0.256,0.05,0.375,0.095l-0.179,0.473c-0.098-0.036-0.196-0.066-0.295-0.091
	C46.583,71.176,46.487,71.168,46.391,71.179z"/>
<path fill="#FFFFFF" d="M48.624,73.141L48.07,73.2v-2.165l-0.709,0.076v-0.463l1.974-0.213v0.463l-0.71,0.077V73.141z"/>
<path fill="#FFFFFF" d="M51.232,72.859l-0.545,0.059v-2.629l1.498-0.162v0.457l-0.953,0.104v0.678l0.887-0.096v0.455l-0.887,0.096
	V72.859z"/>
<path fill="#FFFFFF" d="M52.697,72.701v-2.629l0.554-0.06v2.169l1.06-0.115v0.461L52.697,72.701z"/>
<path fill="#FFFFFF" d="M54.767,72.479V69.85l0.554-0.061v2.629L54.767,72.479z"/>
<path fill="#FFFFFF" d="M56.971,70.764l1.037-0.111v1.363c-0.137,0.061-0.279,0.111-0.428,0.155
	c-0.146,0.042-0.314,0.073-0.502,0.094c-0.26,0.028-0.48,0.001-0.661-0.083s-0.319-0.221-0.413-0.412s-0.141-0.434-0.141-0.728
	c0-0.276,0.052-0.521,0.156-0.733c0.106-0.213,0.261-0.385,0.463-0.517c0.205-0.132,0.453-0.214,0.746-0.246
	c0.139-0.015,0.275-0.015,0.409,0.001c0.135,0.016,0.257,0.041,0.366,0.077L57.82,70.09c-0.08-0.032-0.171-0.057-0.273-0.072
	c-0.103-0.018-0.21-0.02-0.322-0.008c-0.16,0.018-0.301,0.07-0.42,0.157c-0.117,0.087-0.209,0.201-0.275,0.343
	c-0.064,0.14-0.096,0.301-0.096,0.481c0,0.171,0.022,0.321,0.069,0.449c0.046,0.127,0.12,0.223,0.22,0.287
	c0.1,0.063,0.23,0.087,0.392,0.069c0.079-0.008,0.145-0.02,0.198-0.032c0.055-0.015,0.105-0.028,0.154-0.042v-0.548l-0.496,0.054
	V70.764z"/>
<path fill="#FFFFFF" d="M60.773,71.83l-0.553,0.06v-1.134l-1.035,0.111v1.135l-0.554,0.059v-2.628l0.554-0.06v1.029l1.035-0.111
	v-1.03l0.553-0.06V71.83z"/>
<path fill="#FFFFFF" d="M62.443,71.65l-0.555,0.06v-2.165l-0.709,0.076v-0.463l1.974-0.213v0.463l-0.71,0.077V71.65z"/>
<path fill="#FFFFFF" d="M65.098,70.634c0,0.155-0.037,0.296-0.112,0.419s-0.185,0.224-0.329,0.301
	c-0.143,0.078-0.316,0.128-0.521,0.15c-0.091,0.01-0.18,0.014-0.267,0.011c-0.086-0.003-0.169-0.011-0.249-0.025
	c-0.078-0.016-0.153-0.037-0.225-0.063v-0.519c0.124,0.042,0.252,0.078,0.387,0.108c0.133,0.029,0.266,0.037,0.396,0.023
	c0.09-0.01,0.163-0.029,0.218-0.06c0.056-0.03,0.097-0.067,0.122-0.112c0.024-0.045,0.037-0.094,0.037-0.148
	c0-0.065-0.021-0.119-0.066-0.161c-0.044-0.042-0.104-0.079-0.182-0.112c-0.076-0.031-0.163-0.066-0.26-0.103
	c-0.061-0.022-0.127-0.05-0.198-0.083c-0.071-0.034-0.14-0.078-0.204-0.131s-0.117-0.119-0.159-0.2
	c-0.04-0.082-0.061-0.183-0.061-0.303c0-0.157,0.036-0.296,0.107-0.415s0.173-0.215,0.306-0.288
	c0.133-0.074,0.291-0.121,0.472-0.141c0.136-0.015,0.266-0.013,0.388,0.007c0.125,0.018,0.254,0.049,0.389,0.095l-0.18,0.452
	c-0.119-0.035-0.228-0.063-0.322-0.078c-0.096-0.018-0.193-0.021-0.292-0.01c-0.069,0.008-0.128,0.025-0.177,0.053
	s-0.086,0.063-0.111,0.105s-0.037,0.09-0.037,0.143c0,0.063,0.018,0.113,0.053,0.152c0.037,0.039,0.092,0.073,0.165,0.105
	c0.073,0.031,0.165,0.067,0.275,0.108c0.134,0.05,0.247,0.104,0.341,0.163c0.096,0.058,0.17,0.131,0.221,0.219
	C65.072,70.384,65.098,70.496,65.098,70.634z"/>
<path fill="#FFFFFF" d="M32.603,35.286c0,0.175-0.043,0.332-0.128,0.47c-0.084,0.138-0.208,0.25-0.371,0.338
	c-0.161,0.086-0.357,0.142-0.587,0.166c-0.102,0.011-0.202,0.015-0.299,0.011c-0.096-0.003-0.189-0.013-0.279-0.029
	c-0.088-0.018-0.173-0.042-0.253-0.073l0.002-0.582c0.139,0.047,0.284,0.088,0.434,0.123s0.298,0.043,0.446,0.028
	c0.102-0.01,0.184-0.032,0.245-0.066c0.063-0.033,0.109-0.075,0.137-0.125c0.028-0.05,0.042-0.105,0.042-0.166
	c0-0.074-0.024-0.135-0.074-0.182s-0.117-0.089-0.205-0.126c-0.085-0.037-0.182-0.076-0.291-0.117
	c-0.068-0.025-0.143-0.056-0.223-0.094c-0.081-0.039-0.157-0.088-0.229-0.148c-0.072-0.06-0.132-0.135-0.178-0.226
	c-0.045-0.092-0.068-0.206-0.067-0.34c0-0.177,0.042-0.332,0.122-0.465c0.081-0.134,0.196-0.241,0.345-0.323
	c0.15-0.083,0.327-0.135,0.531-0.157c0.152-0.016,0.298-0.013,0.436,0.009c0.139,0.021,0.285,0.057,0.436,0.108l-0.203,0.508
	c-0.135-0.041-0.256-0.071-0.363-0.089c-0.107-0.02-0.216-0.024-0.327-0.012c-0.078,0.008-0.144,0.028-0.199,0.059
	c-0.055,0.03-0.097,0.069-0.125,0.118c-0.028,0.047-0.042,0.101-0.042,0.16c0,0.07,0.02,0.127,0.06,0.171
	c0.042,0.043,0.103,0.082,0.185,0.118c0.083,0.036,0.186,0.077,0.309,0.123c0.15,0.056,0.278,0.117,0.383,0.185
	c0.107,0.065,0.189,0.148,0.246,0.247C32.575,35.004,32.603,35.131,32.603,35.286z"/>
<path fill="#FFFFFF" d="M34.266,35.932l-0.623,0.065l0.008-2.433l-0.798,0.083l0.001-0.521l2.219-0.232l-0.002,0.521l-0.798,0.083
	L34.266,35.932z"/>
<path fill="#FFFFFF" d="M37.208,35.625l-1.692,0.177l0.01-2.955l1.692-0.177l-0.001,0.513l-1.069,0.112l-0.002,0.649l0.995-0.104
	l-0.001,0.513l-0.995,0.104l-0.002,0.762l1.069-0.112L37.208,35.625z"/>
<path fill="#FFFFFF" d="M39.622,35.373l-0.21-0.681l-1.071,0.112l-0.215,0.725l-0.671,0.07l1.047-3.075l0.762-0.08l1.031,2.857
	L39.622,35.373z M39.264,34.182l-0.211-0.665c-0.013-0.044-0.031-0.101-0.054-0.17c-0.021-0.07-0.043-0.142-0.065-0.213
	c-0.021-0.073-0.039-0.137-0.052-0.191C38.869,33,38.85,33.07,38.826,33.155c-0.023,0.083-0.045,0.162-0.067,0.237
	c-0.021,0.075-0.037,0.128-0.046,0.161l-0.213,0.709L39.264,34.182z"/>
<path fill="#FFFFFF" d="M40.665,35.264l0.01-2.954l0.623-0.065l-0.008,2.437l1.192-0.125l-0.002,0.517L40.665,35.264z"/>
<path fill="#FFFFFF" d="M44.981,33.075l0.617-1.28l0.671-0.07l-0.981,1.906l-0.004,1.15l-0.619,0.065l0.003-1.13l-0.969-1.723
	l0.675-0.071L44.981,33.075z"/>
<path fill="#FFFFFF" d="M49.302,32.88c-0.001,0.228-0.03,0.438-0.086,0.631c-0.057,0.192-0.144,0.361-0.259,0.508
	c-0.115,0.146-0.26,0.266-0.436,0.356c-0.175,0.09-0.383,0.147-0.623,0.172s-0.447,0.011-0.623-0.042
	c-0.175-0.055-0.32-0.143-0.435-0.266c-0.114-0.123-0.198-0.275-0.254-0.457c-0.056-0.181-0.083-0.386-0.083-0.615
	c0.001-0.306,0.052-0.577,0.151-0.814c0.102-0.238,0.256-0.431,0.464-0.578s0.472-0.237,0.792-0.271
	c0.319-0.033,0.581,0.002,0.785,0.105c0.206,0.104,0.358,0.265,0.457,0.481C49.253,32.311,49.303,32.573,49.302,32.88z
	 M47.157,33.104c0,0.206,0.024,0.381,0.075,0.525c0.052,0.143,0.132,0.249,0.242,0.318c0.109,0.068,0.251,0.093,0.425,0.075
	c0.177-0.019,0.32-0.073,0.431-0.164c0.11-0.092,0.19-0.215,0.24-0.369c0.051-0.155,0.078-0.335,0.078-0.542
	c0.001-0.31-0.056-0.547-0.17-0.713S48.174,32,47.91,32.028c-0.175,0.019-0.319,0.074-0.431,0.167
	c-0.11,0.091-0.191,0.214-0.244,0.369C47.184,32.717,47.158,32.897,47.157,33.104z"/>
<path fill="#FFFFFF" d="M52.307,31.094l-0.006,1.912c0,0.204-0.047,0.392-0.137,0.566c-0.089,0.172-0.224,0.315-0.404,0.43
	c-0.181,0.114-0.407,0.186-0.681,0.214c-0.388,0.041-0.684-0.028-0.887-0.206c-0.203-0.178-0.304-0.432-0.303-0.76l0.006-1.904
	l0.621-0.064l-0.007,1.808c0,0.244,0.049,0.41,0.148,0.498c0.098,0.088,0.244,0.122,0.439,0.101
	c0.137-0.014,0.246-0.049,0.332-0.105c0.086-0.056,0.148-0.136,0.189-0.238c0.04-0.102,0.061-0.23,0.061-0.382l0.006-1.805
	L52.307,31.094z"/>
<path fill="#FFFFFF" d="M53.883,30.929c0.267-0.028,0.486-0.019,0.658,0.028c0.175,0.046,0.304,0.13,0.388,0.252
	c0.084,0.122,0.126,0.282,0.125,0.482c-0.001,0.134-0.026,0.255-0.077,0.361c-0.052,0.106-0.119,0.199-0.202,0.278
	c-0.083,0.079-0.173,0.146-0.271,0.2l0.86,1.197L54.673,33.8l-0.698-1.06l-0.331,0.035l-0.003,1.133l-0.624,0.065l0.01-2.955
	L53.883,30.929z M53.837,31.447l-0.188,0.02l-0.003,0.798l0.2-0.021c0.207-0.021,0.354-0.071,0.443-0.149
	c0.09-0.079,0.135-0.187,0.135-0.321c0.001-0.14-0.047-0.234-0.143-0.284S54.037,31.426,53.837,31.447z"/>
<path fill="#FFFFFF" d="M57.937,33.459l-0.623,0.065l0.009-2.433l-0.799,0.083l0.002-0.521l2.219-0.232l-0.002,0.521l-0.797,0.083
	L57.937,33.459z"/>
<path fill="#FFFFFF" d="M60.053,30.285c0.267-0.028,0.486-0.019,0.658,0.028c0.175,0.047,0.304,0.131,0.388,0.253
	c0.084,0.122,0.126,0.282,0.125,0.481c-0.001,0.135-0.026,0.255-0.077,0.362c-0.052,0.106-0.119,0.199-0.202,0.277
	c-0.083,0.079-0.173,0.146-0.271,0.2l0.86,1.197l-0.691,0.072l-0.698-1.061l-0.331,0.035l-0.004,1.134l-0.622,0.065l0.01-2.954
	L60.053,30.285z M60.007,30.803l-0.188,0.02l-0.003,0.798l0.2-0.021c0.207-0.022,0.354-0.071,0.443-0.149
	c0.09-0.08,0.135-0.187,0.135-0.321c0.001-0.14-0.047-0.235-0.143-0.284S60.208,30.781,60.007,30.803z"/>
<path fill="#FFFFFF" d="M63.703,32.856l-0.211-0.681l-1.071,0.112l-0.216,0.725l-0.671,0.07l1.047-3.075l0.762-0.08l1.031,2.857
	L63.703,32.856z M63.346,31.666l-0.211-0.665c-0.014-0.044-0.031-0.101-0.055-0.17c-0.021-0.071-0.043-0.142-0.064-0.214
	c-0.021-0.073-0.039-0.137-0.053-0.19c-0.014,0.057-0.032,0.127-0.057,0.212c-0.023,0.083-0.045,0.163-0.066,0.237
	c-0.021,0.075-0.037,0.128-0.047,0.161l-0.214,0.709L63.346,31.666z"/>
<path fill="#FFFFFF" d="M67.061,29.552l-1.008,3.059l-0.68,0.071l-0.987-2.85l0.629-0.066l0.547,1.7
	c0.009,0.029,0.024,0.083,0.046,0.163c0.021,0.079,0.043,0.163,0.063,0.252c0.022,0.088,0.038,0.161,0.046,0.219
	c0.008-0.06,0.021-0.136,0.043-0.229c0.021-0.093,0.042-0.18,0.063-0.263c0.021-0.084,0.037-0.143,0.047-0.175l0.563-1.816
	L67.061,29.552z"/>
<path fill="#FFFFFF" d="M69.115,32.291l-1.692,0.177l0.01-2.954l1.692-0.177l-0.002,0.513l-1.069,0.112l-0.002,0.648l0.995-0.104
	l-0.002,0.513l-0.995,0.104l-0.003,0.762l1.07-0.112L69.115,32.291z"/>
<path fill="#FFFFFF" d="M69.73,32.227l0.01-2.954l0.623-0.065l-0.009,2.438l1.192-0.125l-0.002,0.518L69.73,32.227z"/>
<path fill="#FFFFFF" d="M75.569,30.111c-0.001,0.333-0.065,0.618-0.194,0.855c-0.126,0.235-0.31,0.422-0.55,0.56
	c-0.24,0.137-0.529,0.223-0.866,0.258l-0.832,0.087l0.01-2.955l0.922-0.096c0.309-0.032,0.575-0.005,0.801,0.082
	c0.227,0.085,0.402,0.229,0.525,0.432C75.509,29.536,75.57,29.795,75.569,30.111z M74.922,30.195
	c0.001-0.218-0.031-0.394-0.094-0.527c-0.063-0.135-0.156-0.229-0.281-0.284c-0.123-0.055-0.275-0.072-0.457-0.053l-0.332,0.035
	l-0.007,1.924l0.268-0.028c0.304-0.032,0.53-0.137,0.679-0.315C74.846,30.768,74.921,30.518,74.922,30.195z"/>
<path fill="#FFFFFF" d="M77.865,31.376l-1.691,0.177l0.01-2.954l1.691-0.177l-0.002,0.513l-1.068,0.112l-0.002,0.648l0.994-0.104
	l-0.002,0.514l-0.994,0.104l-0.003,0.762l1.069-0.112L77.865,31.376z"/>
<path fill="#FFFFFF" d="M80.279,31.125l-0.211-0.681l-1.071,0.112l-0.216,0.725l-0.67,0.07l1.047-3.075l0.762-0.08l1.03,2.857
	L80.279,31.125z M79.922,29.934l-0.211-0.665c-0.014-0.044-0.031-0.101-0.054-0.17c-0.021-0.07-0.044-0.142-0.065-0.213
	c-0.021-0.073-0.039-0.137-0.052-0.19c-0.014,0.057-0.032,0.127-0.058,0.212c-0.022,0.083-0.045,0.163-0.066,0.237
	c-0.021,0.075-0.037,0.128-0.047,0.161l-0.213,0.709L79.922,29.934z"/>
<path fill="#FFFFFF" d="M81.322,31.016l0.01-2.955l0.623-0.065l-0.008,2.437l1.191-0.125l-0.002,0.517L81.322,31.016z"/>
<text transform="matrix(0.9889 -0.1484 0.1484 0.9889 29.0723 68.0879)" fill="#FFFFFF" font-family="'Arial-BoldMT'" font-size="14.5961">20</text>
<image overflow="visible" width="4500" height="1363" xlink:href="E:\icon\plane12.png"  transform="matrix(0.0062 0 0 0.0066 40.125 14.5)">
</image>
<g>
	<path fill="#FFFFFF" d="M62.204,69.697c0.009,0.202-0.006,0.39-0.048,0.563c-0.043,0.173-0.111,0.327-0.208,0.463
		c-0.096,0.136-0.219,0.249-0.371,0.337c-0.153,0.088-0.335,0.147-0.548,0.181c-0.211,0.032-0.396,0.028-0.555-0.012
		c-0.157-0.04-0.29-0.111-0.397-0.217c-0.106-0.104-0.188-0.235-0.244-0.394c-0.059-0.159-0.093-0.34-0.103-0.543
		c-0.013-0.272,0.021-0.516,0.1-0.73c0.08-0.216,0.209-0.394,0.388-0.533c0.178-0.141,0.408-0.231,0.692-0.276
		c0.281-0.042,0.516-0.023,0.702,0.061c0.188,0.083,0.33,0.22,0.428,0.407C62.138,69.192,62.191,69.424,62.204,69.697z"/>
	<path fill="#FFFFFF" d="M65.133,70.353l-0.695,0.141l-1.304-1.754l-0.016,0.003c0.012,0.082,0.024,0.164,0.035,0.247
		c0.012,0.082,0.022,0.166,0.034,0.249c0.012,0.081,0.022,0.163,0.033,0.246l0.114,1.232l-0.487,0.099l-0.242-2.618l0.688-0.14
		l1.302,1.733l0.012-0.002c-0.01-0.081-0.021-0.16-0.03-0.24c-0.012-0.079-0.022-0.158-0.034-0.237
		c-0.009-0.079-0.019-0.159-0.028-0.238l-0.115-1.24l0.492-0.099L65.133,70.353z"/>
	<path fill="#89CADC" d="M100,90.849c0,6.711-0.896,9.151-7.858,9.151H9.607C2.645,100,0,98,0,91.849V8.651
		C0,1.94,1.645-0.5,8.607-0.5h82.534C98.104-0.5,100,1.94,100,8.651V90.849z"/>
	<circle fill="#A1D5E2" cx="51.537" cy="49.75" r="25.905"/>
	<g>
		
			<linearGradient id="SVGID_12_" gradientUnits="userSpaceOnUse" x1="3161.0625" y1="34.8574" x2="3141.636" y2="45.0625" gradientTransform="matrix(-1 0 0 1 3216.3105 0)">
			<stop  offset="0" style="stop-color:#303B45"/>
			<stop  offset="0.1467" style="stop-color:#384551"/>
			<stop  offset="0.4113" style="stop-color:#4E6170"/>
			<stop  offset="0.7608" style="stop-color:#718DA3"/>
			<stop  offset="1" style="stop-color:#8CAECA"/>
		</linearGradient>
		<path fill="url(#SVGID_12_)" d="M75.21,43.979c-2.074-1.414-10.857-7.424-12.115-8.576l-7.141,3.404c0,0,5.247,1.033,8.668,2.401
			c2.925,1.169,8.255,3.095,9.737,3.627c0.242,0.087,0.516,0.046,0.713-0.108l0.16-0.125C75.445,44.436,75.435,44.132,75.21,43.979z
			"/>
		<path fill="#EAEEEF" d="M63.095,35.402c1.258,1.152,10.041,7.162,12.115,8.576c0.144,0.099,0.199,0.258,0.166,0.403
			C74.371,43.717,63.664,36.619,63.095,35.402z"/>
		<path fill="#EAEEEF" d="M71.331,42.15c0,0-2.031,0.225-2.394,0.704c-0.363,0.48-0.729,0.876-0.529,1.028
			C68.607,44.034,71.962,42.302,71.331,42.15z"/>
		<path fill="#7895AD" d="M68.938,42.854c0.362-0.479,2.394-0.704,2.394-0.704s-2.225,1.216-2.424,1.246
			C68.907,43.396,69.178,42.944,68.938,42.854z"/>
		<g>
			<path fill="#EAEEEF" d="M67.335,40.67c0,0-2.031,0.226-2.395,0.705c-0.362,0.48-0.728,0.875-0.528,1.027
				C64.611,42.554,67.966,40.821,67.335,40.67z"/>
			<path fill="#7895AD" d="M64.94,41.375c0.363-0.479,2.395-0.705,2.395-0.705s-2.226,1.216-2.425,1.246
				C64.91,41.916,65.181,41.465,64.94,41.375z"/>
		</g>
		<g>
			<path fill="#EAEEEF" d="M63.339,39.271c0,0-2.032,0.225-2.395,0.705c-0.362,0.479-0.728,0.875-0.528,1.027
				S63.97,39.423,63.339,39.271z"/>
			<path fill="#7895AD" d="M60.944,39.976c0.362-0.48,2.395-0.705,2.395-0.705s-2.226,1.216-2.425,1.246
				C60.914,40.517,61.186,40.065,60.944,39.976z"/>
		</g>
		<path fill="#EAEEEF" d="M47.909,42.236l-2.446-1.774l-3.906,0.214l5.239,1.926c0.077,0.028,0.159,0.042,0.242,0.042
			c0.194-0.001,0.563-0.015,0.813-0.092C47.999,42.505,48.033,42.326,47.909,42.236z"/>
		<path fill="#7895AD" d="M46.796,42.602l-5.239-1.926l3.742-0.205l2.435,1.766c0.123,0.09,0.09,0.269-0.06,0.315
			c-0.204,0.063-0.486,0.084-0.689,0.09C46.92,42.637,46.856,42.624,46.796,42.602z"/>
		<polygon fill="#7895AD" points="45.268,36.208 42.67,29.719 40.912,30.434 40.346,38.942 		"/>
		
			<linearGradient id="SVGID_13_" gradientUnits="userSpaceOnUse" x1="3161.4043" y1="32.1548" x2="3159.5593" y2="36.2135" gradientTransform="matrix(-1 0 0 1 3216.3105 0)">
			<stop  offset="0" style="stop-color:#EAEEEF"/>
			<stop  offset="0.4048" style="stop-color:#DEE6EB"/>
			<stop  offset="1" style="stop-color:#C5D6E3"/>
		</linearGradient>
		<path fill="url(#SVGID_13_)" d="M37.586,40.313c0.389,0.28,6.782,1.209,11.232,0.357s4.948-1.193,4.948-1.193
			s1.089,0.29,2.894-0.154s6.285-2.235,6.784-2.637c0.498-0.402,1.338-1.283,1.338-1.283s7.997-2.447,9.459-4.583
			c1.463-2.136-0.933-2.563-0.933-2.563s0.119-1.082-2.477-1.281s-5.846,1.281-7.737,1.965s-10.262,3.702-10.262,3.702
			S35.625,38.898,37.586,40.313z"/>
		<g>
			
				<linearGradient id="SVGID_14_" gradientUnits="userSpaceOnUse" x1="3175.6504" y1="38.6064" x2="3175.6504" y2="38.6064" gradientTransform="matrix(-1 0 0 1 3216.3105 0)">
				<stop  offset="0" style="stop-color:#8CAECA"/>
				<stop  offset="0.0156" style="stop-color:#86A7C2"/>
				<stop  offset="0.0503" style="stop-color:#7E9DB6"/>
				<stop  offset="0.0988" style="stop-color:#7997AF"/>
				<stop  offset="0.2296" style="stop-color:#7895AD"/>
				<stop  offset="0.6081" style="stop-color:#809FB9"/>
				<stop  offset="1" style="stop-color:#8CAECA"/>
			</linearGradient>
			<path fill="url(#SVGID_14_)" d="M40.653,38.605c0.008,0,0.013,0,0.013,0S40.661,38.606,40.653,38.605z"/>
			
				<linearGradient id="SVGID_15_" gradientUnits="userSpaceOnUse" x1="3160.1934" y1="28.4917" x2="3160.2625" y2="41.0853" gradientTransform="matrix(-1 0 0 1 3216.3105 0)">
				<stop  offset="0" style="stop-color:#8CAECA"/>
				<stop  offset="0.0156" style="stop-color:#86A7C2"/>
				<stop  offset="0.0503" style="stop-color:#7E9DB6"/>
				<stop  offset="0.0988" style="stop-color:#7997AF"/>
				<stop  offset="0.2296" style="stop-color:#7895AD"/>
				<stop  offset="0.6081" style="stop-color:#809FB9"/>
				<stop  offset="1" style="stop-color:#8CAECA"/>
			</linearGradient>
			<path fill="url(#SVGID_15_)" d="M37.586,40.313c-0.071-0.051-0.116-0.108-0.139-0.171c0.64,0.323,1.103,0.171,1.103,0.171
				c-0.124-0.531,0.249-1.111,0.249-1.111c0.384-0.665,1.718-0.604,1.854-0.596c-0.08-0.002-0.544,0.03-0.828,1.044
				c-0.311,1.111,3.641,0.767,7.749-0.448c4.107-1.213,3.858-2.544,3.858-2.544c0.498-1.709,5.943-3.417,5.943-3.417l0.56,0.749
				c-1.182,0.778-1.058,1.671-1.058,1.671c3.33-0.769,3.859-2.107,3.859-2.107c0.342,0.37,0.155,1.111,0.155,1.111
				s10.144-3.617,11.948-4.271c1.805-0.655,1.291-1.802,1.291-1.802l0,0c0.519,0.343,0.947,1.006,0.109,2.229
				c-1.462,2.136-9.459,4.583-9.459,4.583s-0.84,0.88-1.338,1.283c-0.499,0.402-4.979,2.193-6.784,2.637s-2.894,0.154-2.894,0.154
				s-0.498,0.342-4.948,1.193S37.975,40.593,37.586,40.313z"/>
			
				<linearGradient id="SVGID_16_" gradientUnits="userSpaceOnUse" x1="3143.7109" y1="27.1348" x2="3143.717" y2="28.2519" gradientTransform="matrix(-1 0 0 1 3216.3105 0)">
				<stop  offset="0" style="stop-color:#8CAECA"/>
				<stop  offset="0.0156" style="stop-color:#86A7C2"/>
				<stop  offset="0.0503" style="stop-color:#7E9DB6"/>
				<stop  offset="0.0988" style="stop-color:#7997AF"/>
				<stop  offset="0.2296" style="stop-color:#7895AD"/>
				<stop  offset="0.6081" style="stop-color:#809FB9"/>
				<stop  offset="1" style="stop-color:#8CAECA"/>
			</linearGradient>
			<path fill="url(#SVGID_16_)" d="M71.881,27.13c1.511,0.362,1.428,1.125,1.428,1.125l-0.434-0.113
				C72.877,27.458,71.882,27.13,71.881,27.13z"/>
		</g>
		<path fill="#001B4B" d="M65.41,29.2l0.123-0.045c0.076-0.027,0.126-0.094,0.128-0.167l0.009-0.303
			c0.004-0.134-0.144-0.228-0.279-0.178l-0.132,0.048c-0.077,0.028-0.127,0.097-0.127,0.173v0.3
			C65.132,29.16,65.276,29.25,65.41,29.2z"/>
		<path fill="#001B4B" d="M64.439,29.561l0.122-0.045c0.075-0.028,0.126-0.094,0.128-0.167l0.009-0.303
			c0.004-0.134-0.144-0.228-0.278-0.178l-0.133,0.049c-0.077,0.028-0.128,0.097-0.128,0.173v0.3
			C64.159,29.52,64.306,29.61,64.439,29.561z"/>
		<path fill="#001B4B" d="M63.467,29.921l0.124-0.045c0.075-0.028,0.125-0.094,0.128-0.167l0.008-0.304
			c0.005-0.133-0.143-0.227-0.278-0.177l-0.132,0.049c-0.077,0.028-0.128,0.097-0.128,0.173v0.3
			C63.188,29.88,63.334,29.971,63.467,29.921z"/>
		<path fill="#001B4B" d="M62.496,30.282l0.123-0.045c0.075-0.028,0.126-0.094,0.128-0.168l0.008-0.303
			c0.004-0.133-0.143-0.228-0.278-0.178l-0.132,0.049c-0.077,0.028-0.128,0.096-0.128,0.173v0.299
			C62.217,30.241,62.362,30.331,62.496,30.282z"/>
		<path fill="#001B4B" d="M61.524,30.643l0.124-0.045c0.074-0.028,0.125-0.094,0.127-0.168l0.009-0.303
			c0.004-0.133-0.143-0.227-0.279-0.177l-0.132,0.049c-0.077,0.028-0.128,0.096-0.128,0.172v0.3
			C61.245,30.602,61.391,30.691,61.524,30.643z"/>
		<path fill="#001B4B" d="M60.553,31.003l0.124-0.045c0.075-0.028,0.125-0.094,0.127-0.168l0.009-0.303
			c0.004-0.133-0.143-0.227-0.278-0.178l-0.133,0.049c-0.077,0.028-0.127,0.096-0.127,0.172v0.3
			C60.274,30.962,60.42,31.052,60.553,31.003z"/>
		<path fill="#001B4B" d="M59.582,31.364l0.123-0.045c0.075-0.028,0.126-0.094,0.128-0.168l0.009-0.303
			c0.003-0.133-0.144-0.227-0.279-0.177l-0.132,0.049c-0.077,0.028-0.128,0.096-0.128,0.172v0.3
			C59.303,31.323,59.448,31.413,59.582,31.364z"/>
		<path fill="#001B4B" d="M58.61,31.725l0.123-0.045c0.076-0.028,0.125-0.094,0.128-0.168l0.009-0.303
			c0.004-0.133-0.144-0.228-0.279-0.178l-0.132,0.048c-0.077,0.028-0.128,0.097-0.128,0.173v0.3
			C58.331,31.683,58.477,31.773,58.61,31.725z"/>
		<path fill="#001B4B" d="M57.639,32.085l0.123-0.045c0.076-0.028,0.126-0.094,0.128-0.168l0.009-0.303
			c0.004-0.133-0.144-0.227-0.279-0.177l-0.132,0.048c-0.077,0.029-0.128,0.097-0.128,0.173v0.3
			C57.359,32.044,57.506,32.134,57.639,32.085z"/>
		<path fill="#001B4B" d="M56.668,32.446l0.123-0.045c0.075-0.028,0.125-0.094,0.128-0.168l0.009-0.303
			c0.004-0.133-0.144-0.227-0.279-0.178L56.517,31.8c-0.077,0.028-0.128,0.097-0.128,0.173v0.3
			C56.389,32.404,56.533,32.495,56.668,32.446z"/>
		<path fill="#001B4B" d="M55.696,32.806l0.123-0.045c0.075-0.028,0.126-0.094,0.128-0.168l0.008-0.303
			c0.005-0.134-0.143-0.227-0.278-0.177l-0.132,0.048c-0.077,0.029-0.128,0.097-0.128,0.173v0.3
			C55.417,32.765,55.563,32.855,55.696,32.806z"/>
		<path fill="#001B4B" d="M54.725,33.167l0.123-0.046c0.075-0.027,0.126-0.093,0.128-0.167l0.009-0.303
			c0.004-0.134-0.143-0.228-0.279-0.178l-0.132,0.048c-0.077,0.028-0.128,0.097-0.128,0.173v0.3
			C54.445,33.125,54.591,33.216,54.725,33.167z"/>
		<path fill="#001B4B" d="M53.753,33.527l0.124-0.046c0.075-0.027,0.125-0.093,0.127-0.167l0.009-0.303
			c0.004-0.134-0.144-0.227-0.278-0.177l-0.132,0.048c-0.078,0.029-0.128,0.097-0.128,0.173v0.3
			C53.475,33.486,53.62,33.576,53.753,33.527z"/>
		<path fill="#001B4B" d="M52.782,33.888l0.123-0.046c0.075-0.027,0.126-0.093,0.128-0.167l0.009-0.303
			c0.003-0.134-0.144-0.227-0.279-0.178l-0.132,0.048c-0.077,0.028-0.128,0.097-0.128,0.173v0.3
			C52.503,33.847,52.648,33.937,52.782,33.888z"/>
		<path fill="#001B4B" d="M51.811,34.249l0.123-0.046c0.076-0.027,0.125-0.094,0.128-0.167l0.009-0.303
			c0.004-0.134-0.144-0.228-0.279-0.177l-0.132,0.048c-0.077,0.028-0.127,0.097-0.127,0.173v0.3
			C51.532,34.208,51.677,34.297,51.811,34.249z"/>
		<path fill="#001B4B" d="M50.839,34.608l0.123-0.045c0.076-0.028,0.126-0.094,0.128-0.167l0.009-0.303
			c0.004-0.134-0.144-0.228-0.278-0.178l-0.133,0.048c-0.077,0.028-0.128,0.097-0.128,0.173v0.3
			C50.56,34.568,50.706,34.658,50.839,34.608z"/>
		<path fill="#001B4B" d="M49.867,34.969l0.124-0.045c0.075-0.028,0.125-0.094,0.128-0.167l0.009-0.303
			c0.003-0.134-0.144-0.228-0.28-0.178l-0.131,0.049c-0.077,0.028-0.128,0.097-0.128,0.173v0.3
			C49.589,34.928,49.733,35.019,49.867,34.969z"/>
		<path fill="#001B4B" d="M48.896,35.33l0.123-0.045c0.075-0.028,0.126-0.094,0.127-0.168l0.009-0.303
			c0.005-0.133-0.143-0.227-0.278-0.177l-0.132,0.049c-0.077,0.028-0.128,0.096-0.128,0.173v0.3
			C48.617,35.289,48.763,35.379,48.896,35.33z"/>
		<path fill="#001B4B" d="M47.925,35.69l0.123-0.045c0.075-0.028,0.126-0.094,0.128-0.168l0.009-0.303
			c0.004-0.133-0.144-0.228-0.279-0.178l-0.132,0.049c-0.077,0.028-0.128,0.096-0.128,0.173v0.299
			C47.646,35.649,47.791,35.739,47.925,35.69z"/>
		<path fill="#001B4B" d="M46.953,36.051l0.124-0.045c0.075-0.028,0.125-0.094,0.127-0.168l0.009-0.303
			c0.004-0.133-0.144-0.227-0.278-0.177l-0.133,0.049c-0.077,0.028-0.127,0.096-0.127,0.172v0.3
			C46.675,36.01,46.82,36.1,46.953,36.051z"/>
		<path fill="#001B4B" d="M45.982,36.411l0.123-0.045c0.075-0.028,0.126-0.094,0.128-0.168l0.009-0.303
			c0.003-0.133-0.144-0.227-0.279-0.178l-0.133,0.049c-0.076,0.028-0.127,0.096-0.127,0.172v0.3
			C45.703,36.37,45.849,36.46,45.982,36.411z"/>
		<path fill="#001B4B" d="M45.011,36.772l0.123-0.045c0.076-0.028,0.125-0.094,0.128-0.168l0.009-0.303
			c0.004-0.133-0.144-0.227-0.279-0.177l-0.132,0.048c-0.077,0.029-0.128,0.097-0.128,0.173v0.3
			C44.731,36.731,44.877,36.821,45.011,36.772z"/>
		<path fill="#001B4B" d="M44.039,37.133l0.123-0.045c0.076-0.028,0.126-0.094,0.128-0.168l0.009-0.303
			c0.004-0.133-0.144-0.228-0.278-0.178l-0.133,0.048c-0.077,0.028-0.128,0.097-0.128,0.173v0.3
			C43.76,37.091,43.905,37.182,44.039,37.133z"/>
		<g>
			<path fill="#001B4B" d="M69.824,27.896c-0.599,0.05-0.953,0.144-0.953,0.144c0.305-0.42,0.814-0.617,1.375-0.687L69.824,27.896z"
				/>
			<path fill="#001B4B" d="M71.355,27.35c0.904,0.086,1.683,0.335,1.69,0.343h0.001c0.291,0.294,0.262,0.563,0.262,0.563
				c-0.698-0.203-1.352-0.31-1.931-0.357L71.355,27.35z"/>
			<path fill="#001B4B" d="M70.541,27.328c0.194-0.009,0.393-0.007,0.587,0.005l-0.023,0.546c-0.36-0.019-0.689-0.018-0.977-0.003
				C70.271,27.684,70.428,27.476,70.541,27.328z"/>
		</g>
		
			<linearGradient id="SVGID_17_" gradientUnits="userSpaceOnUse" x1="3148.2793" y1="43.0352" x2="3177.7446" y2="26.4609" gradientTransform="matrix(-1 0 0 1 3216.3105 0)">
			<stop  offset="0" style="stop-color:#303B45"/>
			<stop  offset="0.1467" style="stop-color:#384551"/>
			<stop  offset="0.4113" style="stop-color:#4E6170"/>
			<stop  offset="0.7608" style="stop-color:#718DA3"/>
			<stop  offset="1" style="stop-color:#8CAECA"/>
		</linearGradient>
		<path fill="url(#SVGID_17_)" d="M57.359,32.819c0,0,0.266,0.718-0.17,1.082c-0.436,0.363-5.757,2.756-5.757,2.756
			s-5.396-3.454-6.432-3.963c-1.037-0.508-10.402-4.359-10.963-4.655c-0.56-0.296-5.757-3.001-5.788-3.343s2.085-0.199,2.583,0
			S54.605,32.685,57.359,32.819z"/>
		<path fill="#EAEEEF" d="M53.042,32.248c-2.814-0.714-22.218-7.205-22.604-7.649c0.168,0.029,0.307,0.063,0.396,0.098
			c0.498,0.199,23.772,7.988,26.526,8.123c0,0,0.237,0.642-0.105,1.02C56.866,33.617,55.424,32.851,53.042,32.248z"/>
		<path fill="#EAEEEF" d="M30.438,35.704c0,0,1.412-0.323,1.862-0.22s8.652,2.763,8.652,2.763s-0.043,0.536-2.557,0.928
			L30.438,35.704z"/>
		<path fill="#7895AD" d="M40.871,38.378c-0.176,0.183-0.729,0.525-2.476,0.797l-7.784-3.395c0.428-0.087,1.277-0.241,1.607-0.165
			C32.669,35.717,40.843,38.369,40.871,38.378z"/>
		<g>
			
				<linearGradient id="SVGID_18_" gradientUnits="userSpaceOnUse" x1="3149.6084" y1="38.1445" x2="3148.9211" y2="40.6646" gradientTransform="matrix(-1 0 0 1 3216.3105 0)">
				<stop  offset="0" style="stop-color:#C5D6E3"/>
				<stop  offset="0.2873" style="stop-color:#B9CEDE"/>
				<stop  offset="0.8034" style="stop-color:#9AB8D0"/>
				<stop  offset="1" style="stop-color:#8CAECA"/>
			</linearGradient>
			<path fill="url(#SVGID_18_)" d="M64.461,40.313c0-0.464,0.204-0.872,0.514-1.111l0,0l0,0c0.016-0.011,0.029-0.021,0.044-0.031
				c2.393-1.788,4.386-1.549,4.386-1.549s0.714,1.885,0.627,3.145c-1.124,1.232-4.52,0.872-4.52,0.872l0,0
				C64.923,41.581,64.461,41.01,64.461,40.313z"/>
			<path fill="#7895AD" d="M65.512,41.638L65.512,41.638c-0.221-0.021-0.424-0.114-0.592-0.26c0.007-0.001,0.014-0.002,0.021-0.003
				c1.863-0.212,3.61-1.099,4.963-2.006c0.096,0.473,0.157,0.97,0.128,1.396C68.907,41.998,65.512,41.638,65.512,41.638z"/>
			<ellipse fill="#2D364D" cx="69.404" cy="39.277" rx="1.428" ry="1.656"/>
			<ellipse fill="#000A22" cx="69.704" cy="39.201" rx="1.128" ry="1.336"/>
		</g>
		<g>
			<path fill="#EAEEEF" d="M49.635,33.391c0,0-2.031,0.225-2.395,0.705c-0.362,0.48-0.728,0.875-0.528,1.028
				C46.911,35.275,50.266,33.543,49.635,33.391z"/>
			<path fill="#7895AD" d="M47.24,34.096c0.363-0.48,2.395-0.705,2.395-0.705s-2.226,1.216-2.425,1.246
				C47.21,34.637,47.481,34.186,47.24,34.096z"/>
		</g>
		<g>
			<path fill="#EAEEEF" d="M44.256,30.781c0,0-2.031,0.225-2.394,0.705s-0.729,0.875-0.528,1.027
				C41.533,32.666,44.887,30.933,44.256,30.781z"/>
			<path fill="#7895AD" d="M41.862,31.486c0.362-0.48,2.394-0.705,2.394-0.705s-2.225,1.215-2.424,1.246
				C41.832,32.027,42.104,31.576,41.862,31.486z"/>
		</g>
		<g>
			<path fill="#EAEEEF" d="M38.316,28.256c0,0-2.031,0.226-2.395,0.706c-0.361,0.48-0.728,0.875-0.528,1.027
				C35.593,30.14,38.947,28.408,38.316,28.256z"/>
			<path fill="#7895AD" d="M35.922,28.961c0.363-0.48,2.395-0.706,2.395-0.706s-2.225,1.216-2.424,1.246
				C35.893,29.502,36.163,29.051,35.922,28.961z"/>
		</g>
		<g>
			
				<linearGradient id="SVGID_19_" gradientUnits="userSpaceOnUse" x1="3165.0967" y1="31.1567" x2="3164.8694" y2="34.1119" gradientTransform="matrix(-1 0 0 1 3216.3105 0)">
				<stop  offset="0" style="stop-color:#C5D6E3"/>
				<stop  offset="0.2873" style="stop-color:#B9CEDE"/>
				<stop  offset="0.8034" style="stop-color:#9AB8D0"/>
				<stop  offset="1" style="stop-color:#8CAECA"/>
			</linearGradient>
			<path fill="url(#SVGID_19_)" d="M48.613,33.557c0-0.463,0.204-0.872,0.515-1.11l0,0l0,0c0.014-0.011,0.028-0.021,0.043-0.032
				c2.394-1.788,4.386-1.548,4.386-1.548s0.715,1.884,0.627,3.145c-1.125,1.231-4.52,0.873-4.52,0.873v-0.001
				C49.075,34.827,48.613,34.255,48.613,33.557z"/>
			<path fill="#7895AD" d="M49.664,34.884L49.664,34.884c-0.221-0.022-0.424-0.116-0.591-0.261c0.007-0.001,0.013-0.002,0.021-0.002
				c1.863-0.212,3.609-1.099,4.962-2.005c0.096,0.472,0.158,0.97,0.128,1.396C53.059,35.243,49.664,34.884,49.664,34.884z"/>
			<ellipse fill="#2D364D" cx="53.557" cy="32.522" rx="1.428" ry="1.656"/>
			<ellipse fill="#000A22" cx="53.856" cy="32.446" rx="1.128" ry="1.337"/>
		</g>
	</g>
	<circle fill="#F99639" cx="73.6" cy="52.772" r="5.228"/>
	<path fill="#E7ECEE" d="M72.358,61.043h14.449c0,0,0.102-4.109-4.286-3.584c0,0,0.154-1.236-1.391-1.359
		c0,0-0.188-2.657-3.816-2.472s-2.49,3.703-2.49,3.703s-1.048,0.004-1.264,0.746c-0.215,0.741,0.284,1.081,0.284,1.081
		S72.268,59.467,72.358,61.043z"/>
	<path fill="#E7ECEE" d="M35.01,81.566h34.186c0,0,0.687-3.75-3.861-3.794c0,0,0.205-1.765-2.982-1.765s-2.645,1.765-2.645,1.765
		s-1.602-1.985-6.458-0.618c0,0,2.745-2.559-0.991-3.529c-3.735-0.971-6.77,0.485-6.551,2.647c0,0-1.11-1.456-3.431-0.529
		c-2.319,0.926-2.614,2.338-0.683,3.044C41.594,78.787,34.345,78.346,35.01,81.566z"/>
	
		<linearGradient id="SVGID_20_" gradientUnits="userSpaceOnUse" x1="82.7949" y1="60.3242" x2="22.5914" y2="93.6616" gradientTransform="matrix(1 0 0 -1 4 95)">
		<stop  offset="0" style="stop-color:#F3850B"/>
		<stop  offset="1" style="stop-color:#E83819"/>
	</linearGradient>
	<path fill="url(#SVGID_20_)" d="M77.453,8.617l-50.92,5.31c-0.793,0.093-1.52,0.401-2.046,0.869s-0.819,1.063-0.822,1.678
		l0.091,3.898c0,0.285,0.082,0.566,0.236,0.824c0.156,0.257,0.383,0.485,0.665,0.669c0.282,0.183,0.613,0.316,0.972,0.392
		c0.357,0.076,0.732,0.09,1.1,0.044l50.92-5.307c0.794-0.092,1.521-0.401,2.048-0.869c0.526-0.468,0.819-1.063,0.821-1.678
		l-0.091-3.892c0.001-0.286-0.078-0.568-0.233-0.827c-0.154-0.259-0.381-0.488-0.663-0.672s-0.614-0.318-0.974-0.395
		C78.199,8.585,77.822,8.57,77.453,8.617L77.453,8.617z"/>
	<g>
		<path fill="#FFFFFF" d="M32.934,17.354l0.617-1.28l0.672-0.07l-0.981,1.906l-0.004,1.15l-0.618,0.065l0.003-1.13l-0.969-1.723
			l0.675-0.071L32.934,17.354z"/>
		<path fill="#FFFFFF" d="M37.254,17.159c-0.001,0.228-0.029,0.438-0.086,0.631c-0.058,0.192-0.145,0.361-0.26,0.508
			c-0.114,0.146-0.26,0.266-0.436,0.356c-0.175,0.09-0.383,0.147-0.623,0.172c-0.239,0.025-0.447,0.011-0.622-0.042
			c-0.175-0.055-0.32-0.143-0.435-0.266c-0.114-0.123-0.199-0.275-0.254-0.457c-0.057-0.181-0.084-0.386-0.083-0.615
			c0.001-0.306,0.052-0.577,0.151-0.814c0.102-0.238,0.256-0.431,0.465-0.578c0.207-0.147,0.472-0.237,0.792-0.271
			c0.319-0.033,0.581,0.002,0.785,0.105c0.206,0.104,0.358,0.265,0.456,0.481C37.205,16.59,37.255,16.852,37.254,17.159z
			 M35.109,17.383c0,0.206,0.024,0.381,0.074,0.525c0.053,0.143,0.133,0.249,0.242,0.318c0.109,0.068,0.252,0.093,0.426,0.075
			c0.177-0.019,0.32-0.073,0.431-0.164c0.11-0.092,0.19-0.215,0.24-0.369c0.052-0.155,0.077-0.335,0.078-0.542
			c0.001-0.31-0.056-0.547-0.171-0.713c-0.114-0.166-0.303-0.235-0.567-0.208c-0.175,0.019-0.319,0.074-0.431,0.167
			c-0.109,0.091-0.191,0.214-0.244,0.369C35.137,16.996,35.11,17.176,35.109,17.383z"/>
		<path fill="#FFFFFF" d="M40.259,15.373l-0.006,1.912c0,0.204-0.047,0.392-0.137,0.566c-0.089,0.172-0.224,0.315-0.404,0.43
			c-0.181,0.114-0.407,0.186-0.681,0.214c-0.388,0.041-0.684-0.028-0.887-0.206c-0.203-0.178-0.305-0.432-0.303-0.76l0.006-1.904
			l0.621-0.064l-0.007,1.808c0,0.244,0.049,0.41,0.148,0.498c0.098,0.088,0.244,0.122,0.439,0.101
			c0.137-0.014,0.246-0.049,0.332-0.105c0.086-0.056,0.148-0.136,0.189-0.238c0.04-0.102,0.061-0.23,0.061-0.382l0.006-1.805
			L40.259,15.373z"/>
		<path fill="#FFFFFF" d="M41.835,15.208c0.267-0.028,0.486-0.019,0.658,0.028c0.175,0.046,0.304,0.13,0.388,0.252
			c0.084,0.122,0.126,0.282,0.125,0.482c-0.001,0.134-0.026,0.255-0.077,0.361c-0.052,0.106-0.119,0.199-0.202,0.278
			c-0.083,0.079-0.173,0.146-0.271,0.2l0.86,1.197l-0.691,0.072l-0.698-1.06l-0.331,0.035l-0.003,1.133l-0.624,0.065l0.01-2.955
			L41.835,15.208z M41.789,15.726l-0.188,0.02l-0.003,0.798l0.2-0.021c0.207-0.021,0.354-0.071,0.443-0.149
			c0.09-0.079,0.135-0.187,0.135-0.321c0.001-0.14-0.047-0.234-0.143-0.284S41.989,15.705,41.789,15.726z"/>
		<path fill="#FFFFFF" d="M45.889,17.738l-0.623,0.065l0.009-2.433l-0.799,0.083l0.002-0.521l2.219-0.232l-0.002,0.521l-0.797,0.083
			L45.889,17.738z"/>
		<path fill="#FFFFFF" d="M48.005,14.563c0.267-0.028,0.486-0.019,0.658,0.028c0.175,0.047,0.304,0.131,0.388,0.253
			c0.084,0.122,0.126,0.282,0.125,0.481c-0.001,0.135-0.026,0.255-0.077,0.362c-0.052,0.106-0.119,0.199-0.202,0.277
			c-0.083,0.079-0.173,0.146-0.271,0.2l0.86,1.197l-0.691,0.072l-0.698-1.061l-0.331,0.035l-0.004,1.134l-0.622,0.065l0.01-2.954
			L48.005,14.563z M47.959,15.082l-0.188,0.02l-0.003,0.798l0.2-0.021c0.207-0.022,0.354-0.071,0.443-0.149
			c0.09-0.08,0.135-0.187,0.135-0.321c0.001-0.14-0.047-0.235-0.143-0.284S48.16,15.06,47.959,15.082z"/>
		<path fill="#FFFFFF" d="M51.655,17.135l-0.211-0.681l-1.071,0.112l-0.216,0.725l-0.671,0.07l1.047-3.075l0.762-0.08l1.031,2.857
			L51.655,17.135z M51.298,15.944l-0.211-0.665c-0.014-0.044-0.031-0.101-0.055-0.17c-0.021-0.071-0.043-0.142-0.064-0.214
			c-0.021-0.073-0.039-0.137-0.053-0.19c-0.014,0.057-0.032,0.127-0.057,0.212c-0.023,0.083-0.045,0.163-0.066,0.237
			c-0.021,0.075-0.037,0.128-0.047,0.161l-0.214,0.709L51.298,15.944z"/>
		<path fill="#FFFFFF" d="M55.013,13.831l-1.008,3.059l-0.68,0.071l-0.987-2.85l0.629-0.066l0.547,1.7
			c0.009,0.029,0.024,0.083,0.046,0.163c0.021,0.079,0.043,0.163,0.063,0.252c0.022,0.088,0.038,0.161,0.046,0.219
			c0.008-0.06,0.021-0.136,0.043-0.229c0.021-0.093,0.042-0.18,0.063-0.263c0.021-0.084,0.037-0.143,0.047-0.175l0.563-1.816
			L55.013,13.831z"/>
		<path fill="#FFFFFF" d="M57.067,16.57l-1.692,0.177l0.01-2.954l1.692-0.177l-0.002,0.513l-1.069,0.112l-0.002,0.648l0.995-0.104
			l-0.002,0.513l-0.995,0.104l-0.003,0.762l1.07-0.112L57.067,16.57z"/>
		<path fill="#FFFFFF" d="M57.683,16.505l0.01-2.954l0.623-0.065l-0.009,2.438l1.192-0.125l-0.002,0.518L57.683,16.505z"/>
		<path fill="#FFFFFF" d="M63.521,14.39c-0.001,0.333-0.065,0.618-0.194,0.855c-0.126,0.235-0.31,0.422-0.55,0.56
			c-0.24,0.137-0.529,0.223-0.866,0.258l-0.832,0.087l0.01-2.955l0.922-0.096c0.309-0.032,0.575-0.005,0.801,0.082
			c0.227,0.085,0.402,0.229,0.525,0.432C63.461,13.815,63.522,14.074,63.521,14.39z M62.874,14.474
			c0.001-0.218-0.031-0.394-0.094-0.527c-0.063-0.135-0.156-0.229-0.281-0.284c-0.123-0.055-0.275-0.072-0.457-0.053l-0.332,0.035
			l-0.007,1.924l0.268-0.028c0.304-0.032,0.53-0.137,0.679-0.315C62.798,15.046,62.873,14.796,62.874,14.474z"/>
		<path fill="#FFFFFF" d="M65.817,15.655l-1.691,0.177l0.01-2.954l1.691-0.177l-0.002,0.513l-1.068,0.112l-0.002,0.648l0.994-0.104
			l-0.002,0.514l-0.994,0.104L64.75,15.25l1.069-0.112L65.817,15.655z"/>
		<path fill="#FFFFFF" d="M68.231,15.403l-0.211-0.681l-1.071,0.112l-0.216,0.725l-0.67,0.07l1.047-3.075l0.762-0.08l1.03,2.857
			L68.231,15.403z M67.874,14.212l-0.211-0.665c-0.014-0.044-0.031-0.101-0.054-0.17c-0.021-0.07-0.044-0.142-0.065-0.213
			c-0.021-0.073-0.039-0.137-0.052-0.19c-0.014,0.057-0.032,0.127-0.058,0.212c-0.022,0.083-0.045,0.163-0.066,0.237
			c-0.021,0.075-0.037,0.128-0.047,0.161l-0.213,0.709L67.874,14.212z"/>
		<path fill="#FFFFFF" d="M69.274,15.294l0.01-2.955l0.623-0.065l-0.008,2.437l1.191-0.125l-0.002,0.517L69.274,15.294z"/>
	</g>
	<path fill="#FFFFFF" d="M29.913,53.189c0.011,0.512,0.229,0.739,0.654,0.684c0.426-0.056,0.632-0.339,0.62-0.85l-0.138-6.09
		l1.164-0.152l0.136,6.011c0.014,0.639-0.132,1.151-0.436,1.538c-0.307,0.38-0.758,0.608-1.354,0.687
		c-0.596,0.078-1.055-0.032-1.376-0.329c-0.321-0.305-0.489-0.776-0.503-1.416l-0.136-6.011l1.229-0.161L29.913,53.189z"/>
	<path fill="#FFFFFF" d="M34.869,46.434c0.611-0.081,1.074,0.025,1.387,0.316c0.313,0.291,0.477,0.756,0.492,1.395l0.022,1.026
		c0.015,0.639-0.127,1.144-0.425,1.515c-0.299,0.37-0.753,0.596-1.365,0.677l-0.582,0.075l0.067,2.967l-1.23,0.16l-0.179-7.894
		L34.869,46.434z M34.374,50.311l0.582-0.076c0.2-0.027,0.349-0.103,0.442-0.229c0.103-0.126,0.149-0.325,0.144-0.595l-0.026-1.184
		c-0.006-0.271-0.063-0.456-0.17-0.555c-0.099-0.1-0.25-0.137-0.451-0.111l-0.582,0.076L34.374,50.311z"/>
	<path fill="#FFFFFF" d="M42.455,45.441l0.025,1.128l-1.286,0.168l0.153,6.767l-1.23,0.161l-0.153-6.767l-1.286,0.168l-0.025-1.128
		L42.455,45.441z"/>
	<path fill="#FFFFFF" d="M42.938,47.278c-0.013-0.631,0.136-1.141,0.449-1.529c0.313-0.388,0.771-0.622,1.374-0.7
		c0.604-0.079,1.071,0.034,1.398,0.337c0.329,0.304,0.501,0.772,0.515,1.403l0.093,4.105c0.016,0.632-0.135,1.142-0.447,1.529
		c-0.313,0.387-0.771,0.621-1.376,0.699c-0.604,0.08-1.069-0.033-1.398-0.337c-0.328-0.304-0.499-0.771-0.514-1.403L42.938,47.278z
		 M44.265,51.301c0.012,0.52,0.23,0.751,0.655,0.695s0.631-0.344,0.62-0.861l-0.097-4.263c-0.012-0.519-0.229-0.75-0.655-0.695
		s-0.632,0.343-0.62,0.861L44.265,51.301z"/>
	<path fill="#FFFFFF" d="M45.143,57.24c-0.009-0.38,0.079-0.684,0.262-0.912c0.184-0.229,0.456-0.366,0.818-0.413
		c0.363-0.048,0.641,0.019,0.833,0.197c0.193,0.179,0.294,0.458,0.302,0.838l0.056,2.424c0.009,0.379-0.079,0.683-0.263,0.911
		s-0.456,0.366-0.818,0.414c-0.363,0.047-0.641-0.019-0.833-0.198c-0.193-0.179-0.293-0.458-0.302-0.837L45.143,57.24z
		 M49.788,55.501l-2.718,7.754l-0.679,0.089l2.718-7.754L49.788,55.501z M45.93,59.621c0.008,0.309,0.137,0.446,0.387,0.414
		c0.251-0.032,0.373-0.204,0.365-0.513l-0.057-2.529c-0.007-0.31-0.136-0.448-0.387-0.415c-0.251,0.034-0.373,0.204-0.365,0.514
		L45.93,59.621z M48.83,59.463c-0.009-0.379,0.079-0.683,0.263-0.911s0.456-0.366,0.818-0.414c0.362-0.047,0.64,0.019,0.833,0.198
		s0.293,0.458,0.302,0.838l0.055,2.424c0.009,0.379-0.079,0.683-0.262,0.911c-0.185,0.229-0.457,0.366-0.819,0.414
		c-0.362,0.047-0.64-0.02-0.833-0.198c-0.192-0.179-0.293-0.458-0.302-0.838L48.83,59.463z M49.617,61.844
		c0.008,0.309,0.137,0.448,0.388,0.414c0.251-0.032,0.372-0.203,0.365-0.512l-0.058-2.529c-0.007-0.31-0.136-0.447-0.386-0.414
		c-0.252,0.031-0.373,0.203-0.366,0.512L49.617,61.844z"/>
	<path fill="#FFFFFF" d="M53.301,56.817c-0.014-0.59,0.127-1.066,0.418-1.429c0.293-0.362,0.721-0.58,1.286-0.654
		c0.564-0.074,1,0.031,1.307,0.315s0.468,0.722,0.479,1.311l0.088,3.836c0.014,0.59-0.126,1.066-0.419,1.43
		c-0.292,0.361-0.72,0.579-1.284,0.653c-0.565,0.074-1.001-0.03-1.308-0.315c-0.307-0.283-0.468-0.721-0.48-1.311L53.301,56.817z
		 M54.539,60.577c0.012,0.483,0.215,0.7,0.612,0.649c0.397-0.053,0.59-0.321,0.579-0.806l-0.091-3.983
		c-0.01-0.484-0.214-0.701-0.611-0.649c-0.396,0.053-0.591,0.32-0.579,0.805L54.539,60.577z"/>
	<path fill="#FFFFFF" d="M60.207,57.426l0.023,1.054l-1.484,0.194l0.069,3.045l-1.149,0.15l-0.167-7.376l3.041-0.397l0.024,1.053
		l-1.892,0.248l0.05,2.224L60.207,57.426z"/>
	<path fill="#FFFFFF" d="M63.8,56.956l0.024,1.054l-1.484,0.193l0.068,3.046l-1.149,0.15l-0.167-7.376l3.041-0.398l0.023,1.054
		l-1.891,0.248l0.05,2.224L63.8,56.956z"/>
	
		<text transform="matrix(0.9889 -0.1484 0.1484 0.9889 34.168 65.3564)" fill="#FFFFFF" font-family="'Arial-BoldMT'" font-size="10.3677">30</text>
	
		<linearGradient id="SVGID_21_" gradientUnits="userSpaceOnUse" x1="85.3652" y1="14.8716" x2="51.7965" y2="33.3585" gradientTransform="matrix(1 0 0 -1 4 95)">
		<stop  offset="0" style="stop-color:#F3850B"/>
		<stop  offset="1" style="stop-color:#E83819"/>
	</linearGradient>
	<path fill="url(#SVGID_21_)" d="M81.946,64.459L56.09,67.92c-0.443,0.066-0.848,0.276-1.14,0.589
		c-0.293,0.314-0.453,0.711-0.451,1.117l0.069,2.585c0.003,0.189,0.05,0.376,0.138,0.545s0.216,0.319,0.375,0.439
		c0.157,0.119,0.344,0.206,0.544,0.253c0.2,0.048,0.41,0.056,0.615,0.022l25.856-3.46c0.443-0.066,0.848-0.275,1.141-0.589
		c0.292-0.314,0.452-0.711,0.45-1.118l-0.069-2.58c0-0.189-0.047-0.376-0.135-0.547s-0.216-0.321-0.374-0.441
		c-0.159-0.12-0.346-0.207-0.545-0.255C82.362,64.433,82.152,64.426,81.946,64.459z"/>
	<path fill="#FFFFFF" d="M60.164,70.018c0.009,0.202-0.007,0.39-0.05,0.565c-0.043,0.173-0.111,0.326-0.208,0.461
		c-0.095,0.136-0.22,0.249-0.371,0.337c-0.152,0.088-0.333,0.147-0.546,0.181c-0.213,0.032-0.397,0.028-0.555-0.011
		c-0.158-0.041-0.291-0.112-0.399-0.217c-0.107-0.104-0.188-0.236-0.245-0.394c-0.058-0.159-0.091-0.34-0.1-0.544
		c-0.013-0.272,0.02-0.515,0.098-0.729c0.08-0.216,0.209-0.394,0.388-0.534c0.178-0.141,0.409-0.231,0.692-0.275
		c0.283-0.043,0.517-0.023,0.702,0.06c0.187,0.083,0.33,0.22,0.427,0.409C60.096,69.514,60.15,69.744,60.164,70.018z M58.268,70.311
		c0.009,0.183,0.037,0.339,0.09,0.464c0.052,0.125,0.129,0.216,0.229,0.271c0.1,0.057,0.228,0.072,0.381,0.049
		c0.156-0.024,0.282-0.08,0.376-0.166c0.095-0.085,0.16-0.198,0.198-0.337c0.038-0.141,0.054-0.301,0.045-0.484
		c-0.013-0.275-0.073-0.485-0.183-0.627c-0.109-0.143-0.281-0.196-0.514-0.16c-0.155,0.024-0.281,0.08-0.375,0.167
		c-0.094,0.086-0.162,0.199-0.2,0.339C58.274,69.965,58.259,70.127,58.268,70.311z"/>
	<path fill="#FFFFFF" d="M63.067,70.895l-0.7,0.108l-1.223-1.813l-0.015,0.003c0.008,0.082,0.017,0.164,0.023,0.248
		c0.007,0.083,0.015,0.167,0.022,0.25c0.007,0.082,0.015,0.164,0.021,0.247l0.058,1.236l-0.492,0.076l-0.121-2.625l0.695-0.109
		l1.218,1.793l0.013-0.002c-0.007-0.081-0.012-0.161-0.02-0.241c-0.007-0.08-0.016-0.159-0.021-0.239
		c-0.007-0.079-0.012-0.158-0.019-0.239l-0.057-1.244l0.495-0.074L63.067,70.895z"/>
	<g>
		<path fill="#FFFFFF" d="M65.601,70.623l-0.544,0.069l-0.055-2.628l1.494-0.194l0.01,0.457l-0.951,0.124l0.015,0.678l0.884-0.114
			l0.01,0.454l-0.885,0.115L65.601,70.623z"/>
		<path fill="#FFFFFF" d="M67.062,70.434l-0.055-2.629l0.552-0.07l0.045,2.169l1.058-0.138l0.01,0.461L67.062,70.434z"/>
		<path fill="#FFFFFF" d="M69.125,70.168l-0.055-2.629l0.553-0.072l0.055,2.629L69.125,70.168z"/>
		<path fill="#FFFFFF" d="M71.294,68.406l1.034-0.132l0.028,1.362c-0.136,0.063-0.276,0.117-0.424,0.164
			c-0.146,0.046-0.313,0.08-0.5,0.105c-0.26,0.033-0.48,0.01-0.663-0.07c-0.182-0.08-0.324-0.214-0.422-0.402
			c-0.098-0.19-0.149-0.432-0.155-0.725c-0.006-0.276,0.04-0.521,0.141-0.737c0.102-0.215,0.253-0.391,0.452-0.525
			c0.202-0.137,0.448-0.224,0.74-0.263c0.139-0.018,0.275-0.02,0.409-0.007c0.136,0.013,0.258,0.035,0.368,0.069l-0.174,0.47
			c-0.08-0.031-0.173-0.054-0.274-0.066c-0.104-0.016-0.211-0.016-0.322-0.001c-0.16,0.021-0.3,0.076-0.417,0.165
			c-0.116,0.09-0.205,0.206-0.269,0.349c-0.062,0.142-0.089,0.303-0.086,0.483c0.004,0.171,0.03,0.32,0.079,0.448
			c0.049,0.126,0.125,0.22,0.226,0.282c0.102,0.062,0.232,0.082,0.394,0.061c0.078-0.009,0.144-0.021,0.197-0.036
			c0.054-0.016,0.104-0.03,0.153-0.045l-0.012-0.548l-0.495,0.064L71.294,68.406z"/>
		<path fill="#FFFFFF" d="M75.118,69.394l-0.552,0.071l-0.023-1.133l-1.033,0.132l0.024,1.135l-0.553,0.07l-0.055-2.628l0.552-0.07
			L73.5,68l1.033-0.134l-0.021-1.029l0.551-0.072L75.118,69.394z"/>
		<path fill="#FFFFFF" d="M76.784,69.179L76.23,69.25l-0.046-2.164l-0.707,0.091l-0.01-0.463l1.969-0.254l0.01,0.463l-0.709,0.091
			L76.784,69.179z"/>
		<path fill="#FFFFFF" d="M79.416,68.106c0.003,0.155-0.031,0.297-0.104,0.422c-0.072,0.124-0.18,0.227-0.323,0.307
			c-0.141,0.081-0.313,0.135-0.518,0.161c-0.091,0.013-0.18,0.019-0.267,0.018c-0.086-0.002-0.169-0.008-0.249-0.021
			c-0.079-0.014-0.154-0.033-0.227-0.059l-0.011-0.519c0.125,0.039,0.253,0.072,0.389,0.1c0.134,0.027,0.267,0.032,0.397,0.016
			c0.09-0.012,0.163-0.033,0.216-0.063c0.056-0.032,0.096-0.069,0.12-0.115c0.023-0.045,0.035-0.095,0.033-0.149
			c-0.001-0.065-0.023-0.118-0.069-0.159c-0.044-0.041-0.106-0.077-0.184-0.108c-0.076-0.029-0.165-0.063-0.262-0.098
			c-0.061-0.021-0.129-0.047-0.2-0.079c-0.072-0.032-0.141-0.074-0.207-0.126c-0.065-0.052-0.119-0.116-0.163-0.197
			c-0.041-0.081-0.064-0.181-0.066-0.301c-0.004-0.158,0.029-0.297,0.099-0.418c0.068-0.12,0.168-0.219,0.299-0.294
			c0.132-0.077,0.289-0.128,0.47-0.15c0.135-0.018,0.265-0.019,0.387-0.001c0.126,0.015,0.256,0.043,0.392,0.086l-0.171,0.455
			c-0.119-0.032-0.229-0.057-0.324-0.07c-0.095-0.017-0.193-0.017-0.292-0.004c-0.069,0.009-0.127,0.028-0.176,0.057
			c-0.048,0.028-0.085,0.064-0.108,0.107c-0.024,0.044-0.035,0.091-0.035,0.144c0.002,0.063,0.021,0.113,0.057,0.151
			c0.037,0.038,0.094,0.07,0.168,0.102c0.073,0.03,0.165,0.064,0.277,0.103c0.135,0.047,0.249,0.099,0.344,0.156
			c0.097,0.056,0.173,0.127,0.225,0.214C79.386,67.857,79.413,67.97,79.416,68.106z"/>
	</g>
</g>
</svg>
