<svg xmlns="http://www.w3.org/2000/svg" width="100" height="100" xmlns:v="https://vecta.io/nano"><style><![CDATA[.B{fill:#7895ad}.C{fill:#eaeeef}.D{fill:#fff}]]></style><path d="M62.204 70.197c.009.201-.006.39-.05.563a1.36 1.36 0 0 1-.206.465 1.19 1.19 0 0 1-.371.336c-.153.088-.335.146-.55.182s-.396.027-.555-.012a.86.86 0 0 1-.396-.217 1.04 1.04 0 0 1-.244-.396 1.82 1.82 0 0 1-.104-.543c-.013-.272.021-.517.102-.73a1.17 1.17 0 0 1 .388-.532c.179-.142.408-.23.692-.275s.516-.023.701.061a.9.9 0 0 1 .429.407c.099.186.149.418.164.691zm2.929.657l-.693.142-1.306-1.754-.016.003.034.247.033.249.033.246.114 1.23-.487.1-.242-2.617.688-.141 1.302 1.732.012-.002-.028-.24-.034-.236-.027-.237-.117-1.241.492-.1.242 2.619z" class="D"/><path fill="#0c6c82" d="M100 91.35c0 6.711-.896 9.15-7.857 9.15H9.608c-6.963 0-9.607-2-9.607-8.15V9.151C.001 2.44 1.646 0 8.608 0h82.533C98.104 0 100 2.44 100 9.151V91.35z"/><circle fill="#0892b2" cx="51.537" cy="50.25" r="25.905"/><path fill="#e7ecee" d="M1.843 74.814H36.03s.687-3.75-3.861-3.793c0 0 .205-1.766-2.982-1.766s-2.645 1.766-2.645 1.766-1.602-1.984-6.458-.619c0 0 2.745-2.559-.991-3.527s-6.77.484-6.551 2.646c0 0-1.109-1.457-3.432-.528-2.318.926-2.613 2.338-.682 3.044-.001 0-7.25-.439-6.585 2.777z"/><path d="M36.58 50.021c.011.514.229.739.654.686s.632-.339.619-.852l-.138-6.088 1.164-.152.136 6.011c.014.64-.132 1.15-.436 1.539-.307.379-.758.607-1.354.688-.597.076-1.056-.031-1.377-.328-.32-.307-.488-.777-.502-1.417l-.137-6.013 1.229-.161.142 6.087zm4.956-6.753c.61-.081 1.073.025 1.387.316s.478.756.492 1.395l.022 1.026c.015.639-.127 1.144-.426 1.515s-.753.598-1.365.679l-.582.073.067 2.969-1.229.16-.18-7.896 1.814-.237zm-.495 3.876l.582-.076c.199-.025.35-.103.441-.229.104-.126.149-.325.145-.595l-.025-1.184c-.007-.271-.063-.456-.17-.555-.1-.1-.25-.137-.451-.111l-.582.076.06 2.674zm8.081-4.87l.024 1.128-1.286.168.152 6.767-1.229.161-.153-6.767-1.285.168-.025-1.128 3.802-.497zm.482 1.837c-.014-.631.136-1.141.449-1.529s.771-.622 1.372-.7 1.072.034 1.398.337.502.772.516 1.403l.093 4.105c.017.631-.136 1.142-.447 1.527s-.771.621-1.375.699-1.069-.033-1.398-.337-.499-.771-.514-1.403l-.094-4.102zm1.328 4.023c.012.52.23.751.654.695s.631-.344.621-.861l-.099-4.263c-.012-.519-.229-.75-.653-.695s-.634.343-.621.861l.098 4.263zm2.385 7.509c-.018-.771.169-1.394.547-1.869.386-.473.944-.759 1.682-.855s1.308.041 1.71.412.612.943.625 1.715l.115 5.016c.021.772-.165 1.395-.548 1.871-.382.471-.941.757-1.679.852s-1.31-.037-1.71-.41-.614-.942-.627-1.715l-.115-5.017zm1.62 4.917c.016.63.281.913.8.847s.772-.417.756-1.054l-.118-5.208c-.014-.631-.28-.917-.799-.847s-.773.418-.756 1.053l.117 5.209zm7.411-4.121l.028 1.379-1.938.253.09 3.981-1.502.196-.219-9.645 3.977-.517.029 1.376-2.474.324.065 2.908 1.944-.255zm4.697-.614l.032 1.378-1.94.253.089 3.982-1.503.195-.218-9.646 3.976-.519.028 1.379-2.472.323.066 2.91 1.942-.255zm-24.699 1.066c-.015-.549.113-.988.377-1.314s.656-.528 1.18-.596.924.029 1.2.283c.278.259.425.659.436 1.209l.081 3.494c.013.547-.114.987-.379 1.313s-.659.526-1.179.598-.924-.028-1.201-.286-.422-.66-.435-1.207l-.08-3.494zm6.695-2.507l-3.92 11.178-.977.128 3.917-11.178.98-.128zm-5.561 5.939c.011.447.197.642.558.597s.538-.294.526-.74l-.084-3.645c-.01-.449-.196-.646-.56-.599s-.536.294-.524.74l.084 3.647zm4.18-.228c-.013-.546.114-.983.378-1.313s.658-.524 1.18-.595.923.027 1.201.284.422.66.436 1.208l.08 3.497c.014.546-.113.983-.379 1.311s-.659.527-1.18.597-.924-.029-1.202-.283c-.274-.26-.422-.661-.436-1.208l-.078-3.498zm1.134 3.432c.012.448.197.646.56.597s.536-.29.526-.737l-.085-3.646c-.009-.446-.196-.642-.558-.597s-.535.293-.526.74l.083 3.643zM34.699 64.69l1.989-.513c.126.449.352.786.676 1.01a1.4 1.4 0 0 0 1.042.252c.424-.063.756-.289.997-.676s.313-.93.208-1.622c-.099-.648-.315-1.115-.656-1.396s-.743-.386-1.209-.315c-.583.088-1.066.423-1.452 1.007l-1.681.009.214-5.661 5.361-.806.286 1.899-3.825.573-.048 1.844c.418-.294.863-.476 1.334-.546.9-.136 1.712.076 2.435.638s1.164 1.362 1.32 2.407a3.84 3.84 0 0 1-.408 2.442c-.548 1.038-1.432 1.647-2.654 1.832-.977.146-1.813.003-2.507-.43s-1.168-1.08-1.422-1.948z" class="D"/><defs><path id="A" d="M8.227 23.457H21.5v6.803H8.227z"/></defs><clipPath id="B"><use href="#A"/></clipPath><g clip-path="url(#B)" class="D"><path d="M8.323 29.998h2.425c.025 0 .05.01.068.028s.028.041.028.066a.09.09 0 0 1-.007.037c-.005.012-.012.021-.021.031a.09.09 0 0 1-.031.021c-.011.005-.024.008-.037.008H8.322c-.012 0-.025-.002-.037-.008a.14.14 0 0 1-.031-.021c-.009-.01-.016-.021-.021-.031a.09.09 0 0 1-.007-.037c0-.025.01-.05.028-.066s.043-.028.069-.028h0zm10.656 0h2.426c.025 0 .049.011.067.028s.028.043.028.067-.01.05-.028.067-.042.027-.067.027h-2.426c-.025 0-.049-.01-.067-.027s-.027-.042-.027-.067.01-.05.027-.067.042-.028.067-.028h0zm-4.116-6.541c.025 0 .049.011.067.028s.028.043.028.067v2.427c.001.014 0 .025-.003.039s-.011.024-.02.037-.02.019-.033.022a.09.09 0 0 1-.04.009c-.014 0-.027-.003-.04-.009s-.023-.015-.033-.022c-.01-.012-.016-.022-.02-.037s-.005-.025-.003-.039v-2.428c0-.023.01-.05.028-.066s.043-.028.069-.028h0zm4.625 1.916c.019 0 .037.006.053.017s.027.025.035.043.009.037.005.055-.012.037-.025.051l-1.715 1.714c-.018.019-.042.026-.067.026s-.049-.01-.067-.026a.11.11 0 0 1-.021-.03c-.004-.012-.007-.023-.007-.037s.002-.024.007-.037.012-.021.021-.029l1.713-1.717c.009-.008.019-.017.031-.021s.025-.009.037-.009h0zm-9.251 0c.025 0 .05.01.069.026l1.714 1.717c.018.018.027.042.027.066s-.01.049-.027.066-.042.025-.068.025-.05-.01-.068-.025l-1.714-1.715c-.018-.02-.028-.042-.028-.068s.01-.05.028-.066c.009-.008.019-.018.031-.021s.025-.005.036-.005h0zm-1.382 2.038c.013 0 .026.002.038.007l2.228.96c.011.005.022.012.031.021s.016.02.021.031.007.022.007.035a.08.08 0 0 1-.008.037c-.01.021-.029.042-.052.053s-.05.008-.073 0l-2.227-.958c-.012-.007-.022-.014-.031-.021s-.016-.02-.021-.031-.007-.023-.007-.037.003-.025.008-.037a.11.11 0 0 1 .035-.041c.015-.01.032-.019.051-.019h0zm8.596-3.415c.013 0 .026.003.038.007.023.01.042.029.051.053s.009.051-.001.073l-.959 2.228c-.005.014-.012.022-.021.031a.09.09 0 0 1-.031.021c-.012.004-.024.007-.037.006a.08.08 0 0 1-.037-.008c-.012-.006-.022-.012-.031-.021s-.016-.02-.021-.031-.007-.022-.007-.037.003-.023.008-.035l.964-2.232c.008-.016.02-.029.035-.039a.08.08 0 0 1 .049-.016zm3.489 3.585c.02 0 .038.006.054.018s.028.024.035.043c.005.012.007.023.007.036s-.003.025-.008.037-.012.022-.021.031-.02.017-.032.021l-2.253.896c-.012.005-.024.007-.037.007s-.025-.003-.037-.008-.022-.013-.031-.021-.016-.021-.02-.033-.007-.023-.007-.037.003-.023.008-.035.012-.021.021-.031.02-.016.031-.02l2.253-.897c.014-.005.026-.007.037-.007h0zm-8.495-3.661c.019 0 .038.006.054.017s.028.026.035.045l.897 2.252a.1.1 0 0 1-.001.074c-.01.022-.029.041-.052.051s-.05.01-.073-.002-.042-.027-.051-.053l-.898-2.252c-.005-.011-.007-.023-.007-.037s.002-.023.008-.037.012-.021.021-.028.02-.017.032-.021.024-.009.035-.009h0z"/></g><defs><path id="C" d="M8.227 30.192H21.5v6.803H8.227z"/></defs><clipPath id="D"><use href="#C"/></clipPath><g clip-path="url(#D)" class="D"><path d="M14.862 36.995c-.025 0-.05-.012-.067-.029s-.028-.042-.028-.066v-2.426c-.001-.014 0-.025.003-.041s.011-.023.02-.035.02-.019.033-.022.026-.009.04-.009.027.003.04.009.024.015.033.022c.009.012.016.022.02.035s.005.027.003.041V36.9c0 .024-.01.051-.028.067s-.043.028-.069.028h0zm-4.625-1.916c-.019 0-.037-.008-.053-.018s-.028-.025-.035-.043-.009-.035-.006-.056a.09.09 0 0 1 .026-.049l1.714-1.714c.018-.02.042-.027.067-.027s.049.012.067.027c.009.009.016.019.021.029s.007.024.007.037a.09.09 0 0 1-.007.037c-.005.012-.012.022-.021.03l-1.715 1.716c-.008.01-.019.016-.031.021s-.021.01-.034.01h0zm9.25 0c-.025 0-.05-.01-.069-.028l-1.714-1.716c-.018-.018-.027-.042-.027-.066s.01-.05.027-.066.042-.028.068-.028.05.011.068.028l1.714 1.714c.018.019.027.043.027.067s-.01.051-.027.067c-.009.009-.019.017-.031.021a.1.1 0 0 1-.036.007h0zm1.384-2.038a.1.1 0 0 1-.038-.008l-2.228-.96a.09.09 0 0 1-.031-.021c-.009-.009-.016-.02-.021-.031s-.007-.022-.006-.037.002-.023.008-.035c.01-.023.029-.043.052-.053s.05-.008.073 0l2.227.961c.012.004.022.013.031.021s.016.021.021.032.007.022.007.036-.003.025-.008.037c-.007.018-.02.031-.035.041a.09.09 0 0 1-.052.017h0zm-8.597 3.415a.1.1 0 0 1-.038-.008c-.023-.01-.042-.029-.051-.053s-.009-.049.001-.072l.959-2.229c.005-.011.012-.021.021-.028s.02-.018.031-.021.024-.007.037-.007a.08.08 0 0 1 .037.008c.012.005.022.013.031.021a.17.17 0 0 1 .021.031c.004.012.007.024.007.037s-.003.025-.008.037l-.962 2.232c-.008.016-.02.029-.035.039a.12.12 0 0 1-.051.013zm-3.488-3.585c-.02 0-.038-.006-.054-.017s-.028-.025-.035-.043-.007-.024-.007-.037.003-.025.008-.037a.09.09 0 0 1 .021-.03c.009-.009.02-.017.032-.021l2.253-.896c.012-.005.024-.007.037-.007s.025.003.037.008.022.012.031.021.016.021.02.031.007.024.007.037-.003.025-.008.037-.012.021-.021.031-.02.016-.031.02l-2.253.897c-.013.004-.027.006-.037.006h0zm8.494 3.66c-.02 0-.039-.005-.054-.017s-.028-.025-.035-.046l-.897-2.253c-.01-.021-.009-.05.001-.072s.029-.041.053-.052.049-.008.073.001.042.029.051.053l.897 2.254c.004.012.007.022.006.037s-.002.023-.007.037-.012.021-.021.028-.02.017-.031.021-.024.009-.036.009h0z"/></g><circle fill="#ffb300" cx="14.809" cy="30.192" r="3.368"/><linearGradient id="E" gradientUnits="userSpaceOnUse" x1="77.277" y1="19.351" x2="77.005" y2="13.131"><stop offset="0" stop-color="#fff" stop-opacity="0"/><stop offset=".23" stop-color="#fff" stop-opacity=".27"/><stop offset=".51" stop-color="#fff" stop-opacity=".58"/><stop offset=".74" stop-color="#fff" stop-opacity=".81"/><stop offset=".9" stop-color="#fff" stop-opacity=".95"/><stop offset=".99" stop-color="#fff"/></linearGradient><path fill="url(#E)" d="M96 16.24c-1.25-.374-2.524-.496-3.77-.102-.564.178-1.129.465-1.717.389-.824-.104-1.359-.858-1.869-1.496s-1.293-1.272-2.084-1.021c-.643.204-.982.913-1.596 1.188-.773.349-1.699-.126-2.219-.782s-.781-1.471-1.238-2.167c-.818-1.247-2.293-2.06-3.813-2.103s-3.049.687-3.953 1.885c-.379.501-.693 1.109-1.281 1.353-1.086.446-2.27-.647-3.426-.438-2.045.373-1.887 4.093-3.947 4.347-.76.094-1.463-.382-2.221-.478-1.176-.146-2.273.645-3.012 1.555-.504.623-.912 1.318-1.393 1.959L96 16.24z"/><linearGradient id="F" gradientUnits="userSpaceOnUse" x1="86.462" y1="52.381" x2="85.706" y2="48.171"><stop offset="0" stop-color="#fff" stop-opacity="0"/><stop offset=".23" stop-color="#fff" stop-opacity=".27"/><stop offset=".51" stop-color="#fff" stop-opacity=".58"/><stop offset=".74" stop-color="#fff" stop-opacity=".81"/><stop offset=".9" stop-color="#fff" stop-opacity=".95"/><stop offset=".99" stop-color="#fff"/></linearGradient><path fill="url(#F)" d="M76.391 54.01c.61-.5 1.264-.812 1.961-.726.316.041.646.162.944.001.42-.221.61-.89.803-1.463s.527-1.193.97-1.139c.359.048.622.528.975.636.447.132.876-.391 1.07-.979s.234-1.257.392-1.868c.281-1.092.958-1.966 1.749-2.259s1.676-.001 2.291.758c.257.32.493.73.83.813.62.154 1.111-.885 1.741-.923 1.114-.067 1.468 2.801 2.578 2.64.408-.059.721-.544 1.105-.745.598-.314 1.267.101 1.759.668.337.39.634.852.96 1.257L76.391 54.01z"/><linearGradient id="G" gradientUnits="userSpaceOnUse" x1="82.323" y1="81.234" x2="48.306" y2="62.5"><stop offset="0" stop-color="#f3850b"/><stop offset="1" stop-color="#e83819"/></linearGradient><path fill="url(#G)" d="M74.799 64.921L48.61 68.764c-.448.073-.858.307-1.154.653s-.458.789-.457 1.24l.071 2.868c.001.211.049.416.138.604a1.43 1.43 0 0 0 .379.487 1.42 1.42 0 0 0 .552.281 1.43 1.43 0 0 0 .624.022l26.188-3.841c.449-.073.858-.307 1.155-.654a1.9 1.9 0 0 0 .456-1.24l-.07-2.862a1.42 1.42 0 0 0-.137-.607c-.089-.188-.218-.356-.379-.489s-.35-.229-.552-.283a1.51 1.51 0 0 0-.625-.022z"/><g class="D"><path d="M52.705 71.084c.009.2-.007.39-.051.563a1.31 1.31 0 0 1-.209.461 1.13 1.13 0 0 1-.369.337c-.152.088-.333.146-.547.182a1.45 1.45 0 0 1-.555-.012c-.158-.041-.291-.111-.398-.217a1.03 1.03 0 0 1-.245-.395 1.78 1.78 0 0 1-.101-.545 1.84 1.84 0 0 1 .099-.729 1.18 1.18 0 0 1 .388-.534 1.45 1.45 0 0 1 .692-.274c.282-.043.517-.022.7.061.188.083.33.221.429.409s.151.418.167.693zm-1.894.293c.008.183.037.338.09.463s.129.217.229.271.229.072.381.049.282-.079.377-.165.159-.197.197-.338a1.52 1.52 0 0 0 .045-.482c-.013-.275-.072-.485-.184-.627s-.28-.196-.514-.16c-.154.022-.281.08-.375.167s-.162.198-.199.339a1.32 1.32 0 0 0-.047.483zm4.796.584l-.699.106-1.225-1.813-.015.002.022.248.021.25.021.248.059 1.235-.492.076-.121-2.625.695-.108 1.218 1.793.013-.002-.02-.242-.021-.237-.019-.239-.057-1.244.495-.072.125 2.624zm2.536-.273l-.543.068-.057-2.629 1.494-.192.01.457-.949.124.014.678.885-.113.01.453-.885.115.021 1.039zm1.461-.188l-.056-2.629.554-.07.045 2.168 1.058-.137.01.461-1.611.207zm2.062-.268l-.057-2.629.555-.072.055 2.631-.553.07zm2.169-1.761l1.034-.133.027 1.361a3.58 3.58 0 0 1-.424.164c-.146.047-.313.08-.5.105-.261.033-.479.01-.664-.07s-.324-.214-.422-.402-.148-.432-.154-.725c-.006-.275.039-.521.142-.736a1.29 1.29 0 0 1 .452-.525 1.69 1.69 0 0 1 .738-.264 1.82 1.82 0 0 1 .41-.007 1.83 1.83 0 0 1 .367.069l-.174.47a1.14 1.14 0 0 0-.273-.065 1.08 1.08 0 0 0-.321-.002c-.16.021-.302.076-.417.166s-.205.205-.27.35-.09.303-.087.482c.005.17.03.319.079.447a.54.54 0 0 0 .227.282c.102.061.232.083.395.062a1.17 1.17 0 0 0 .195-.037l.154-.045-.013-.547-.495.063-.006-.463zm3.824.988l-.554.07-.021-1.133-1.033.132.024 1.136-.554.069-.056-2.628.552-.068.021 1.027 1.033-.134-.021-1.029.551-.071.058 2.629zm1.666-.215l-.556.07-.045-2.164-.707.091-.011-.463 1.97-.254.01.463-.709.093.048 2.164z"/><path d="M71.957 69.17c.003.154-.031.297-.104.422s-.181.228-.322.308a1.38 1.38 0 0 1-.518.161 1.94 1.94 0 0 1-.269.02 2.2 2.2 0 0 1-.249-.021 1.48 1.48 0 0 1-.229-.059l-.011-.521.39.101c.135.026.268.031.396.017a.63.63 0 0 0 .216-.063c.056-.031.097-.068.12-.115s.035-.095.033-.147c-.001-.063-.023-.118-.068-.159s-.107-.077-.185-.107l-.263-.099a2.1 2.1 0 0 1-.199-.079c-.072-.031-.141-.072-.207-.126a.62.62 0 0 1-.163-.196c-.041-.08-.063-.182-.065-.301-.005-.158.028-.298.098-.419a.79.79 0 0 1 .301-.294 1.2 1.2 0 0 1 .47-.148c.136-.02.267-.021.388-.002a2.23 2.23 0 0 1 .393.086l-.172.455-.323-.069a.95.95 0 0 0-.292-.004c-.068.009-.127.028-.176.057s-.086.063-.108.106-.034.092-.034.145c.002.063.021.113.057.151s.095.069.169.103l.276.103c.135.048.248.1.344.155s.173.127.226.215c.051.074.077.188.08.324z"/></g><linearGradient id="H" gradientUnits="userSpaceOnUse" x1="87.295" y1="33.52" x2="24.706" y2="-1.138"><stop offset="0" stop-color="#f3850b"/><stop offset="1" stop-color="#e83819"/></linearGradient><path fill="url(#H)" d="M77.582 6.7l-52.935 5.31c-.824.094-1.58.401-2.127.869s-.852 1.063-.854 1.678l.094 3.898c0 .285.085.566.247.824s.397.484.691.669a3.08 3.08 0 0 0 1.009.392 3.6 3.6 0 0 0 1.145.044l52.934-5.307c.825-.093 1.582-.401 2.129-.869s.853-1.063.854-1.679l-.097-3.891a1.54 1.54 0 0 0-.24-.828c-.161-.26-.396-.487-.69-.672s-.638-.318-1.011-.396a3.57 3.57 0 0 0-1.149-.042h0z"/><text transform="matrix(.9954 -.0961 .0961 .9954 23.9878 17.6631)" font-family="SinkinSans-800Black" font-size="4" class="D">Book Now, Save More!</text><linearGradient id="I" gradientUnits="userSpaceOnUse" x1="60.914" y1="30.357" x2="80.34" y2="40.562"><stop offset="0" stop-color="#303b45"/><stop offset=".147" stop-color="#384551"/><stop offset=".411" stop-color="#4e6170"/><stop offset=".761" stop-color="#718da3"/><stop offset="1" stop-color="#8caeca"/></linearGradient><path fill="url(#I)" d="M80.877 39.479c-2.073-1.414-10.856-7.424-12.114-8.576l-7.142 3.404s5.247 1.033 8.668 2.401c2.925 1.169 8.255 3.095 9.735 3.627.242.087.518.046.713-.108l.16-.125c.213-.166.206-.47-.02-.623z"/><g class="C"><path d="M68.763 30.902c1.258 1.152 10.041 7.162 12.114 8.576a.38.38 0 0 1 .166.403c-1.005-.664-11.712-7.762-12.28-8.979z"/><path d="M76.998 37.65s-2.031.225-2.396.704-.729.876-.527 1.028 3.554-1.58 2.923-1.732z"/></g><path d="M74.604 38.354c.361-.479 2.395-.704 2.395-.704l-2.424 1.246c-.001 0 .272-.452.029-.542z" class="B"/><path d="M73.002 36.17s-2.03.226-2.396.705-.729.875-.527 1.027 3.554-1.581 2.923-1.732z" class="C"/><path d="M70.606 36.875c.363-.479 2.396-.705 2.396-.705l-2.425 1.246c0 0 .272-.451.029-.541z" class="B"/><path d="M69.006 34.771s-2.03.225-2.396.705-.729.875-.527 1.027 3.555-1.58 2.923-1.732z" class="C"/><path d="M66.61 35.476c.361-.48 2.396-.705 2.396-.705l-2.425 1.246s.273-.452.029-.541z" class="B"/><path d="M53.576 37.736l-2.446-1.774-3.905.214 5.238 1.926a.71.71 0 0 0 .242.042c.193-.001.563-.015.813-.092.148-.047.182-.226.058-.316z" class="C"/><path d="M52.463 38.102l-5.238-1.926 3.741-.205 2.435 1.766c.123.09.092.269-.06.315-.204.063-.485.084-.688.09-.066-.005-.13-.018-.19-.04zm-1.527-6.394l-2.599-6.489-1.758.715-.565 8.508z" class="B"/><linearGradient id="J" gradientUnits="userSpaceOnUse" x1="60.572" y1="27.655" x2="62.417" y2="31.714"><stop offset="0" stop-color="#eaeeef"/><stop offset=".405" stop-color="#dee6eb"/><stop offset="1" stop-color="#c5d6e3"/></linearGradient><path fill="url(#J)" d="M43.253 35.812c.39.28 6.782 1.209 11.231.357s4.948-1.193 4.948-1.193 1.088.29 2.895-.154 6.283-2.235 6.783-2.637 1.339-1.283 1.339-1.283 7.995-2.447 9.459-4.583-.935-2.563-.935-2.563.119-1.082-2.477-1.281-5.846 1.281-7.737 1.965l-10.262 3.702s-17.205 6.256-15.244 7.67z"/><linearGradient id="K" gradientUnits="userSpaceOnUse" x1="46.327" y1="34.106" x2="46.327" y2="34.106"><stop offset="0" stop-color="#8caeca"/><stop offset=".016" stop-color="#86a7c2"/><stop offset=".05" stop-color="#7e9db6"/><stop offset=".099" stop-color="#7997af"/><stop offset=".23" stop-color="#7895ad"/><stop offset=".608" stop-color="#809fb9"/><stop offset="1" stop-color="#8caeca"/></linearGradient><path fill="url(#K)" d="M46.32 34.105z"/><linearGradient id="L" gradientUnits="userSpaceOnUse" x1="61.778" y1="23.992" x2="61.709" y2="36.585"><stop offset="0" stop-color="#8caeca"/><stop offset=".016" stop-color="#86a7c2"/><stop offset=".05" stop-color="#7e9db6"/><stop offset=".099" stop-color="#7997af"/><stop offset=".23" stop-color="#7895ad"/><stop offset=".608" stop-color="#809fb9"/><stop offset="1" stop-color="#8caeca"/></linearGradient><path fill="url(#L)" d="M43.253 35.812c-.071-.051-.116-.108-.14-.171.641.323 1.104.171 1.104.171-.124-.531.249-1.111.249-1.111.384-.665 1.718-.604 1.854-.596-.08-.002-.545.03-.828 1.044-.311 1.111 3.641.767 7.749-.448s3.857-2.544 3.857-2.544c.498-1.709 5.942-3.417 5.942-3.417l.56.749c-1.182.778-1.058 1.671-1.058 1.671 3.33-.769 3.858-2.107 3.858-2.107.343.37.156 1.111.156 1.111l11.946-4.271c1.806-.655 1.291-1.802 1.291-1.802h0c.521.343.947 1.006.108 2.229-1.463 2.136-9.459 4.583-9.459 4.583s-.84.88-1.338 1.283-4.979 2.193-6.783 2.637-2.895.154-2.895.154-.498.342-4.948 1.193-10.835-.077-11.225-.358z"/><linearGradient id="M" gradientUnits="userSpaceOnUse" x1="78.265" y1="22.635" x2="78.259" y2="23.752"><stop offset="0" stop-color="#8caeca"/><stop offset=".016" stop-color="#86a7c2"/><stop offset=".05" stop-color="#7e9db6"/><stop offset=".099" stop-color="#7997af"/><stop offset=".23" stop-color="#7895ad"/><stop offset=".608" stop-color="#809fb9"/><stop offset="1" stop-color="#8caeca"/></linearGradient><path fill="url(#M)" d="M77.548 22.63c1.512.362 1.43 1.125 1.43 1.125l-.436-.113c.002-.684-.993-1.012-.994-1.012z"/><path d="M71.077 24.7l.123-.045c.074-.027.126-.094.128-.167l.009-.303c.004-.134-.145-.228-.277-.178l-.134.048c-.075.028-.127.097-.127.173v.3c0 .132.143.222.278.172zm-.973.361l.123-.045c.074-.028.125-.094.127-.167l.011-.303c.004-.134-.146-.228-.278-.178l-.133.049c-.077.028-.128.097-.128.173v.3c0 .13.148.22.278.171zm-.97.36l.124-.045a.19.19 0 0 0 .128-.167l.01-.304c.004-.133-.145-.229-.278-.177l-.132.049c-.077.028-.129.097-.129.173v.3c-.003.13.144.221.277.171zm-.971.361l.123-.045c.074-.028.126-.094.128-.168l.008-.303c.004-.133-.144-.228-.276-.178l-.133.049c-.076.028-.129.096-.129.173v.299c0 .132.144.222.279.173zm-.973.361l.123-.045c.074-.028.125-.094.127-.168l.011-.303c.004-.133-.144-.227-.279-.177l-.132.049c-.077.028-.128.096-.128.172v.3c0 .131.148.22.278.172zm-.968.36l.122-.045c.075-.028.125-.094.128-.168l.01-.303c.004-.133-.145-.227-.278-.178l-.134.049c-.076.028-.127.096-.127.172v.3c-.003.132.144.222.279.173zm-.973.361l.123-.045c.074-.028.126-.094.128-.168l.009-.303c.004-.133-.144-.227-.277-.177l-.133.049c-.076.028-.129.096-.129.172v.3c.002.131.145.221.279.172zm-.973.361l.123-.045c.076-.028.125-.094.127-.168l.011-.303c.004-.133-.146-.228-.279-.178l-.132.048c-.077.028-.128.097-.128.173v.3c0 .131.148.221.278.173zm-.968.36l.123-.045c.074-.028.125-.094.127-.168l.01-.303c.004-.133-.146-.227-.279-.177l-.133.048c-.076.029-.127.097-.127.173v.3c-.005.131.144.221.279.172zm-.973.361l.123-.045c.075-.028.125-.094.128-.168l.011-.303c.004-.133-.146-.227-.279-.178l-.133.048c-.076.028-.127.097-.127.173v.3c0 .131.142.222.277.173zm-.973.36l.123-.045c.074-.028.125-.094.127-.168l.01-.303c.005-.134-.145-.227-.278-.177l-.132.048c-.077.029-.128.097-.128.173v.3c0 .131.145.221.278.172zm-.968.361l.123-.046c.073-.027.125-.093.127-.167l.01-.303c.004-.134-.145-.228-.279-.178l-.132.048c-.077.028-.128.097-.128.173v.3c-.005.131.143.222.279.173zm-.974.36l.124-.046c.075-.027.125-.093.127-.167l.01-.303c.004-.134-.145-.227-.277-.177l-.133.048c-.078.029-.127.097-.127.173v.3c0 .131.143.221.276.172zm-.971.361l.122-.046c.074-.027.127-.093.129-.167l.009-.303c.003-.134-.146-.227-.278-.178l-.133.048c-.076.028-.128.097-.128.173v.3c0 .132.143.222.279.173zm-.97.361l.123-.046c.074-.027.125-.094.127-.167l.01-.303c.004-.134-.146-.228-.279-.177l-.132.048c-.077.028-.127.097-.127.173v.3c-.002.131.143.22.278.172zm-.973.359l.123-.045c.076-.028.126-.094.128-.167l.01-.303c.004-.134-.145-.228-.277-.178l-.133.048c-.078.028-.129.097-.129.173v.3c0 .132.145.222.278.172zm-.972.361l.124-.045c.074-.028.125-.094.128-.167l.009-.303c.003-.134-.145-.228-.279-.178l-.132.049c-.077.028-.128.097-.128.173v.3c0 .13.144.221.278.171zm-.971.361l.123-.045c.076-.028.127-.094.127-.168l.01-.303c.006-.133-.143-.227-.277-.177l-.132.049c-.077.028-.128.096-.128.173v.3c-.002.13.144.22.277.171zm-.971.36l.123-.045c.075-.028.126-.094.128-.168l.009-.303c.004-.133-.144-.228-.279-.178l-.131.049c-.078.028-.129.096-.129.173v.299c0 .132.145.222.279.173zm-.972.361l.124-.045c.074-.028.125-.094.127-.168l.009-.303c.004-.133-.144-.227-.278-.177l-.133.049c-.076.028-.127.096-.127.172v.3c0 .131.144.221.278.172zm-.972.36l.123-.045c.076-.028.127-.094.129-.168l.009-.303c.003-.133-.144-.227-.279-.178l-.133.049c-.076.028-.127.096-.127.172v.3c0 .132.146.222.278.173zm-.97.361l.123-.045c.076-.028.125-.094.129-.168l.008-.303c.004-.133-.144-.227-.277-.177l-.133.048a.19.19 0 0 0-.128.173v.3c-.002.131.144.221.278.172zm-.972.361l.123-.045c.075-.028.126-.094.128-.168l.009-.303c.005-.133-.144-.228-.278-.178l-.133.048c-.076.028-.128.097-.128.173v.3c0 .131.145.222.279.173zm25.785-9.237c-.6.05-.953.144-.953.144.305-.42.813-.617 1.375-.687l-.422.543zm1.53-.546c.904.086 1.685.335 1.69.343h.001c.291.294.262.563.262.563-.697-.203-1.352-.31-1.931-.357l-.022-.549zm-.813-.022a5.47 5.47 0 0 1 .587.005l-.022.546-.978-.003.413-.548z" fill="#001b4b"/><linearGradient id="N" gradientUnits="userSpaceOnUse" x1="73.697" y1="38.535" x2="44.233" y2="21.961"><stop offset="0" stop-color="#303b45"/><stop offset=".147" stop-color="#384551"/><stop offset=".411" stop-color="#4e6170"/><stop offset=".761" stop-color="#718da3"/><stop offset="1" stop-color="#8caeca"/></linearGradient><path fill="url(#N)" d="M63.024 28.319s.268.718-.17 1.082-5.756 2.756-5.756 2.756l-6.432-3.963c-1.037-.508-10.401-4.359-10.963-4.655s-5.757-3.001-5.788-3.343 2.085-.199 2.583 0 23.773 7.989 26.526 8.123z"/><path d="M58.709 27.748c-2.814-.714-22.218-7.205-22.604-7.649a2.2 2.2 0 0 1 .396.098c.498.199 23.771 7.988 26.525 8.123 0 0 .236.642-.104 1.02-.389-.223-1.831-.989-4.213-1.592zm-22.604 3.456s1.412-.323 1.861-.22 8.652 2.763 8.652 2.763-.043.536-2.557.928l-7.956-3.471z" class="C"/><path d="M46.538 33.878c-.177.183-.729.525-2.476.797l-7.785-3.395c.429-.087 1.277-.241 1.607-.165.452.102 8.626 2.754 8.654 2.763z" class="B"/><linearGradient id="O" gradientUnits="userSpaceOnUse" x1="72.374" y1="33.645" x2="73.061" y2="36.165"><stop offset="0" stop-color="#c5d6e3"/><stop offset=".287" stop-color="#b9cede"/><stop offset=".803" stop-color="#9ab8d0"/><stop offset="1" stop-color="#8caeca"/></linearGradient><path fill="url(#O)" d="M70.128 35.812c0-.464.204-.872.516-1.111h0 0l.043-.031c2.394-1.788 4.387-1.549 4.387-1.549s.714 1.885.627 3.145c-1.124 1.232-4.52.872-4.52.872h0c-.591-.057-1.053-.628-1.053-1.326z"/><path d="M71.181 37.138h0a1.05 1.05 0 0 1-.594-.26l.021-.003c1.863-.212 3.609-1.099 4.963-2.006.097.473.158.97.129 1.396-1.126 1.233-4.519.873-4.519.873z" class="B"/><ellipse fill="#2d364d" cx="75.069" cy="34.777" rx="1.43" ry="1.656"/><ellipse fill="#000a22" cx="75.371" cy="34.701" rx="1.128" ry="1.336"/><path d="M55.302 28.891s-2.03.225-2.395.705-.728.875-.528 1.028 3.555-1.581 2.923-1.733z" class="C"/><path d="M52.907 29.596c.362-.48 2.395-.705 2.395-.705l-2.425 1.246s.271-.451.03-.541z" class="B"/><path d="M49.923 26.281s-2.03.225-2.394.705-.729.875-.528 1.027 3.554-1.58 2.922-1.732z" class="C"/><path d="M47.529 26.986c.361-.48 2.394-.705 2.394-.705l-2.424 1.246s.272-.451.03-.541z" class="B"/><path d="M43.982 23.756s-2.03.226-2.395.706-.729.875-.527 1.027 3.553-1.581 2.922-1.733z" class="C"/><path d="M41.589 24.461c.363-.48 2.396-.706 2.396-.706l-2.424 1.246c0 .001.269-.45.028-.54z" class="B"/><linearGradient id="P" gradientUnits="userSpaceOnUse" x1="56.881" y1="26.657" x2="57.108" y2="29.61"><stop offset="0" stop-color="#c5d6e3"/><stop offset=".287" stop-color="#b9cede"/><stop offset=".803" stop-color="#9ab8d0"/><stop offset="1" stop-color="#8caeca"/></linearGradient><path fill="url(#P)" d="M54.279 29.057c0-.463.205-.872.516-1.11h0 0l.043-.032c2.396-1.788 4.388-1.548 4.388-1.548s.715 1.884.627 3.145c-1.125 1.231-4.521.873-4.521.873v-.002c-.59-.056-1.053-.628-1.053-1.326z"/><path d="M55.331 30.384h0c-.222-.022-.424-.116-.591-.261.007-.001.013-.002.021-.002 1.862-.212 3.608-1.099 4.962-2.005.096.472.157.97.129 1.396-1.124 1.231-4.521.872-4.521.872z" class="B"/><ellipse fill="#2d364d" cx="59.226" cy="28.022" rx="1.428" ry="1.656"/><ellipse fill="#000a22" cx="59.522" cy="27.946" rx="1.127" ry="1.337"/></svg>