<?xml version="1.0" encoding="utf-8"?>
<!-- Generator: Adobe Illustrator 16.0.0, SVG Export Plug-In . SVG Version: 6.00 Build 0)  -->
<!DOCTYPE svg PUBLIC "-//W3C//DTD SVG 1.1//EN" "http://www.w3.org/Graphics/SVG/1.1/DTD/svg11.dtd">
<svg version="1.1" id="Layer_1" xmlns="http://www.w3.org/2000/svg" xmlns:xlink="http://www.w3.org/1999/xlink" x="0px" y="0px"
	 width="800px" height="600px" viewBox="0 0 800 600" enable-background="new 0 0 800 600" xml:space="preserve">
<g id="_x32_0_x2C__Card_x2C__Credit_Card_x2C__Debit_Card_x2C__Payment_Method_x2C__Pay_Card">
	<g>
		<g>
			<path fill="#EF6614" d="M651.953,71.484H218.359c-25.847,0-46.875,21.028-46.875,46.875v23.438h-23.438
				c-25.847,0-46.875,21.028-46.875,46.875v292.969c0,25.847,21.028,46.875,46.875,46.875h433.594
				c25.847,0,46.875-21.028,46.875-46.875h23.438c25.847,0,46.875-21.028,46.875-46.875V118.359
				C698.828,92.513,677.8,71.484,651.953,71.484z M148.047,165.234h433.594c12.924,0,23.438,10.514,23.438,23.438v175.781H124.609
				V188.672C124.609,175.749,135.124,165.234,148.047,165.234z M124.609,387.891h480.469v46.875H124.609V387.891z M605.078,481.641
				c0,12.924-10.514,23.438-23.438,23.438H148.047c-12.923,0-23.438-10.514-23.438-23.438v-23.438h480.469V481.641z
				 M675.391,434.766c0,12.924-10.514,23.438-23.438,23.438h-23.438V188.672c0-25.847-21.028-46.875-46.875-46.875H194.922v-23.438
				c0-12.923,10.514-23.438,23.438-23.438h433.594c12.924,0,23.438,10.514,23.438,23.438V434.766z"/>
			<path fill="#EF6614" d="M159.766,317.578h117.188c6.471,0,11.719-5.246,11.719-11.719v-82.031
				c0-6.472-5.248-11.719-11.719-11.719H159.766c-6.471,0-11.719,5.247-11.719,11.719v82.031
				C148.047,312.332,153.294,317.578,159.766,317.578z M171.484,235.547h93.75v58.594h-93.75V235.547z"/>
			<path fill="#EF6614" d="M323.828,258.984h246.094c6.471,0,11.719-5.247,11.719-11.719s-5.248-11.719-11.719-11.719H323.828
				c-6.471,0-11.719,5.247-11.719,11.719S317.357,258.984,323.828,258.984z"/>
			<path fill="#EF6614" d="M323.828,305.859h199.219c6.471,0,11.719-5.246,11.719-11.719c0-6.472-5.248-11.719-11.719-11.719
				H323.828c-6.471,0-11.719,5.247-11.719,11.719C312.109,300.613,317.357,305.859,323.828,305.859z"/>
		</g>
	</g>
</g>
<g id="Layer_1_1_">
</g>
</svg>
