<?xml version="1.0" encoding="utf-8"?>
<!-- Generator: Adobe Illustrator 16.0.0, SVG Export Plug-In . SVG Version: 6.00 Build 0)  -->
<!DOCTYPE svg PUBLIC "-//W3C//DTD SVG 1.1//EN" "http://www.w3.org/Graphics/SVG/1.1/DTD/svg11.dtd">
<svg version="1.1" id="Capa_1" xmlns="http://www.w3.org/2000/svg" xmlns:xlink="http://www.w3.org/1999/xlink" x="0px" y="0px"
	 width="960px" height="560px" viewBox="0 0 960 560" enable-background="new 0 0 960 560" xml:space="preserve">
<g>
	
		<polyline fill="none" stroke="#FFFFFF" stroke-width="15" stroke-linecap="round" stroke-linejoin="round" stroke-miterlimit="10" points="
		610.813,202.891 662,202.891 621.094,295.969 	"/>
	<path fill="none" stroke="#FFFFFF" stroke-width="15" stroke-linecap="round" stroke-linejoin="round" stroke-miterlimit="10" d="
		M514.891,268.516h-58.405c0,0,30.952-56.109,36.094-62.344c5.141-6.344,10.063-2.406,10.5,3.172
		c0.437,5.578-0.219,86.625-0.219,86.625"/>
	<path fill="none" stroke="#FFFFFF" stroke-width="15" stroke-linecap="round" stroke-linejoin="round" stroke-miterlimit="10" d="
		M441.391,296.625c0,0-45.28,0.547-47.469-0.109c-2.188-0.766,3.391-4.483,33.141-46.922c5.578-7.875,8.642-14.656,9.845-20.234
		l0.438-3.609c0-13.125-10.608-23.844-23.844-23.844c-11.594,0-21.219,8.203-23.406,19.141"/>
	<g>
		
			<line fill="none" stroke="#FFFFFF" stroke-width="15" stroke-linecap="round" stroke-linejoin="round" stroke-miterlimit="10" x1="578.984" y1="202.891" x2="541.578" y2="296.844"/>
	</g>
	<path fill="none" stroke="#FFFFFF" stroke-width="15" stroke-linecap="round" stroke-linejoin="round" stroke-miterlimit="10" d="
		M226.688,305.047C214,276.5,206.016,246.422,208.75,218.203c0.656-7,3.938-13.563,8.969-18.594l41.234-41.234
		c11.813-11.813,31.281-10.391,41.234,2.953l46.594,61.906c4.922,6.563,4.266,15.859-1.75,21.656l-30.188,29.203
		c-3.719,3.609-4.375,9.298-1.641,13.673l0,0c40.141,64.53,94.608,118.999,159.141,159.141l0,0
		c4.375,2.733,10.063,1.969,13.672-1.642l29.203-30.188c5.797-5.906,15.095-6.672,21.656-1.75l61.906,46.594
		c13.344,9.953,14.766,29.422,2.953,41.234L560.5,542.391c-5.141,5.142-12.031,8.313-19.25,8.97
		c-99.313,8.75-220.281-112.22-220.281-112.22s-43.969-43.969-77-100.733"/>
	<path fill="none" stroke="#FFFFFF" stroke-width="15" stroke-linecap="round" stroke-linejoin="round" stroke-miterlimit="10" d="
		M374.234,97.016C454.516,25.047,578,27.672,655.219,104.781c79.844,79.844,79.844,209.344,0,289.188
		c-22.313,22.313-48.344,38.281-76.233,48.125"/>
	<path fill="none" stroke="#FFFFFF" stroke-width="15" stroke-linecap="round" stroke-linejoin="round" stroke-miterlimit="10" d="
		M317.578,181.672c7.219-20.781,17.938-40.578,32.156-58.625"/>
	<path fill="none" stroke="#FFFFFF" stroke-width="15" stroke-linecap="round" stroke-linejoin="round" stroke-miterlimit="10" d="
		M692.078,90.563c83.125,94.719,79.406,238.984-10.938,329.438c-21.438,21.438-45.827,37.953-71.858,49.656"/>
	<path fill="none" stroke="#FFFFFF" stroke-width="15" stroke-linecap="round" stroke-linejoin="round" stroke-miterlimit="10" d="
		M290.563,150.391c11.703-25.922,28.109-50.203,49.438-71.531c89.358-89.36,231.327-93.954,326.155-13.782"/>
</g>
</svg>
