<?xml version="1.0" encoding="utf-8"?>
<!-- Generator: Adobe Illustrator 24.3.0, SVG Export Plug-In . SVG Version: 6.00 Build 0)  -->
<svg version="1.1" id="Capa_1" xmlns="http://www.w3.org/2000/svg" xmlns:xlink="http://www.w3.org/1999/xlink" x="0px" y="0px"
	 viewBox="0 0 512 512" style="enable-background:new 0 0 512 512;" xml:space="preserve">
<style type="text/css">
	.st0{fill:none;stroke:#FF0B00;stroke-width:15;stroke-linecap:round;stroke-linejoin:round;}
</style>
<polyline class="st0" points="375.6,185.5 422.4,185.5 385,270.6 "/>
<path class="st0" d="M287.9,245.5h-53.4c0,0,28.3-51.3,33-57s9.2-2.2,9.6,2.9s-0.2,79.2-0.2,79.2"/>
<path class="st0" d="M220.7,271.2c0,0-41.4,0.5-43.4-0.1s3.1-4.1,30.3-42.9c5.1-7.2,7.9-13.4,9-18.5l0.4-3.3
	c-0.2-12-10.2-21.6-22.2-21.3c-10.1,0.2-18.7,7.3-20.8,17.1"/>
<line class="st0" x1="346.5" y1="185.5" x2="312.3" y2="271.4"/>
<path class="st0" d="M24.4,278.9C12.8,252.8,5.5,225.3,8,199.5c0.6-6.4,3.5-12.5,8.1-17l37.7-37.7c9.8-9.8,25.6-9.8,35.4,0
	c0.9,0.9,1.7,1.8,2.4,2.7l42.6,56.6c4.5,6,3.9,14.5-1.6,19.8L105,250.6c-3.4,3.3-4,8.5-1.5,12.5l0,0c36.7,59,86.4,108.8,145.4,145.5
	l0,0c4,2.5,9.2,1.8,12.5-1.6l26.6-27.5c5.3-5.4,13.8-6.1,19.8-1.6l56.6,42.6c11.1,8.2,13.4,23.9,5.1,35c-0.7,1-1.5,1.9-2.4,2.7
	l-37.7,37.7c-4.7,4.7-11,7.6-17.6,8.2c-90.8,8-201.4-102.6-201.4-102.6s-40.2-40.2-70.4-92"/>
<path class="st0" d="M159.3,88.7c73.4-65.8,186.3-63.4,256.9,7.1c73,73,73,191.4,0,264.4c-19.6,19.7-43.4,34.7-69.7,44"/>
<path class="st0" d="M107.5,166.1c6.8-19.4,16.7-37.5,29.4-53.6"/>
<path class="st0" d="M449.9,82.8c76,86.6,72.6,218.5-10,301.2c-19,19-41.2,34.4-65.8,45.4"/>
<path class="st0" d="M82.8,137.5c11-24.4,26.3-46.5,45.2-65.4c81.7-81.7,211.6-85.9,298.2-12.6"/>
</svg>
