<?xml version="1.0" encoding="utf-8"?>
<!-- Generator: Adobe Illustrator 16.0.0, SVG Export Plug-In . SVG Version: 6.00 Build 0)  -->
<!DOCTYPE svg PUBLIC "-//W3C//DTD SVG 1.1//EN" "http://www.w3.org/Graphics/SVG/1.1/DTD/svg11.dtd">
<svg version="1.1" id="Capa_1" xmlns="http://www.w3.org/2000/svg" xmlns:xlink="http://www.w3.org/1999/xlink" x="0px" y="0px"
	 width="800px" height="600px" viewBox="0 0 800 600" enable-background="new 0 0 800 600" xml:space="preserve">
<path fill="#F44336" d="M672.424,300.021l26.323-68.658c2.888-7.575,0.638-16.162-5.699-21.298l-57.071-46.272L624.428,91.16
	c-1.275-8.024-7.574-14.287-15.6-15.561l-72.632-11.549L489.962,6.94c-5.1-6.337-13.874-8.587-21.262-5.7l-68.695,26.361
	L331.348,1.278c-7.612-2.925-16.124-0.6-21.261,5.7l-46.272,57.109l-72.632,11.549c-7.987,1.275-14.287,7.575-15.562,15.562
	l-11.549,72.633l-57.108,46.271c-6.3,5.1-8.587,13.687-5.7,21.261l26.323,68.658l-26.323,68.658c-2.925,7.574-0.6,16.161,5.7,21.261
	l57.108,46.234l11.549,72.633c1.275,8.024,7.537,14.323,15.562,15.599l72.632,11.549l46.272,57.071
	c5.137,6.375,13.724,8.625,21.298,5.7l68.62-26.286l68.658,26.323c2.175,0.825,4.425,1.237,6.712,1.237
	c5.513,0,10.949-2.438,14.587-6.975l46.234-57.071l72.632-11.549c8.025-1.275,14.324-7.574,15.6-15.599l11.549-72.633l57.071-46.234
	c6.337-5.137,8.587-13.687,5.699-21.261L672.424,300.021z"/>
<g>
	<path fill="#FAFAFA" d="M343.759,262.523c-31.01,0-56.246-25.236-56.246-56.246s25.236-56.246,56.246-56.246
		s56.246,25.236,56.246,56.246S374.77,262.523,343.759,262.523z M343.759,187.528c-10.35,0-18.749,8.399-18.749,18.749
		s8.399,18.749,18.749,18.749c10.349,0,18.749-8.4,18.749-18.749S354.108,187.528,343.759,187.528z"/>
	<path fill="#FAFAFA" d="M456.252,450.011c-31.011,0-56.247-25.236-56.247-56.247c0-31.01,25.236-56.246,56.247-56.246
		c31.01,0,56.246,25.236,56.246,56.246C512.498,424.774,487.262,450.011,456.252,450.011z M456.252,375.016
		c-10.313,0-18.749,8.437-18.749,18.748c0,10.313,8.437,18.749,18.749,18.749c10.312,0,18.748-8.437,18.748-18.749
		C475,383.452,466.563,375.016,456.252,375.016z"/>
	<path fill="#FAFAFA" d="M306.262,450.011c-3.787,0-7.575-1.125-10.874-3.487c-8.437-6.037-10.387-17.736-4.35-26.174
		l187.488-262.482c6.037-8.437,17.735-10.387,26.173-4.35c8.437,6,10.35,17.736,4.35,26.136L321.561,442.136
		C317.849,447.273,312.111,450.011,306.262,450.011z"/>
</g>
</svg>
