<?xml version="1.0" encoding="utf-8"?>
<!-- Generator: Adobe Illustrator 16.0.0, SVG Export Plug-In . SVG Version: 6.00 Build 0)  -->
<!DOCTYPE svg PUBLIC "-//W3C//DTD SVG 1.1//EN" "http://www.w3.org/Graphics/SVG/1.1/DTD/svg11.dtd">
<svg version="1.1" id="Capa_1" xmlns="http://www.w3.org/2000/svg" xmlns:xlink="http://www.w3.org/1999/xlink" x="0px" y="0px"
	 width="512px" height="512px" viewBox="0 0 512 512" enable-background="new 0 0 512 512" xml:space="preserve">
<g>
	<circle fill="#089E04" cx="316" cy="344.945" r="15"/>
	<circle fill="#089E04" cx="196" cy="164.945" r="15"/>
	<path fill="#089E04" d="M488.588,221.107c-17.021-11.133-23.408-34.995-14.253-53.174c8.013-15.864,8.862-29.487,2.505-40.488
		c-6.356-11.001-18.574-17.08-36.328-18.091c-20.316-1.143-37.777-18.604-38.921-38.936c-1.011-17.739-7.09-29.956-18.091-36.313
		c-11.001-6.313-24.624-5.493-40.488,2.505c-18.179,9.082-42.056,2.769-53.188-14.253c-19.482-29.736-48.164-29.736-67.646,0
		c-11.147,17.007-34.995,23.379-53.188,14.253c-15.879-7.998-29.502-8.818-40.488-2.505c-11.001,6.357-17.08,18.574-18.091,36.328
		c-1.143,20.317-18.604,37.778-38.936,38.921c-17.739,1.011-29.956,7.09-36.313,18.091s-5.508,24.624,2.505,40.488
		c9.155,18.179,2.769,42.041-14.268,53.188C8.544,230.878,0,242.245,0,254.945s8.544,24.083,23.412,33.823
		c17.021,11.147,23.408,35.011,14.253,53.188c-8.013,15.864-8.862,29.487-2.505,40.488s18.574,17.08,36.328,18.091
		c20.317,1.143,37.778,18.604,38.921,38.936c1.011,17.739,7.09,29.956,18.091,36.313c11.016,6.343,24.609,5.493,40.488-2.505
		c18.179-9.142,42.026-2.783,53.188,14.268c9.756,14.854,21.123,24.397,33.823,24.397s24.067-9.544,33.838-24.412
		c11.118-17.051,34.937-23.467,53.175-14.253c15.863,7.998,29.53,8.848,40.487,2.505c11.001-6.357,17.08-18.574,18.091-36.328
		c1.144-20.317,18.604-37.778,38.937-38.921c17.738-1.011,29.956-7.09,36.313-18.091c6.357-11.001,5.508-24.624-2.505-40.488
		c-9.155-18.179-2.769-42.041,14.253-53.188c14.869-9.74,23.413-21.123,23.413-33.822C512,242.245,503.456,230.878,488.588,221.107
		L488.588,221.107z M196,119.945c24.814,0,45,20.186,45,45s-20.186,45-45,45s-45-20.186-45-45S171.186,119.945,196,119.945z
		 M177.997,383.939l-23.994-17.988l180-240l23.994,17.988L177.997,383.939z M316,389.945c-24.814,0-45-20.187-45-45
		c0-24.814,20.186-45,45-45s45,20.186,45,45C361,369.759,340.814,389.945,316,389.945z"/>
</g>
</svg>
