<?xml version="1.0" encoding="utf-8"?>
<!-- Generator: Adobe Illustrator 16.0.0, SVG Export Plug-In . SVG Version: 6.00 Build 0)  -->
<!DOCTYPE svg PUBLIC "-//W3C//DTD SVG 1.1//EN" "http://www.w3.org/Graphics/SVG/1.1/DTD/svg11.dtd">
<svg version="1.1"
	 id="Layer_1" text-rendering="geometricPrecision" shape-rendering="geometricPrecision" image-rendering="optimizeQuality"
	 xmlns="http://www.w3.org/2000/svg" xmlns:xlink="http://www.w3.org/1999/xlink" x="0px" y="0px" width="512px" height="512px"
	 viewBox="0 0 512 512" enable-background="new 0 0 512 512" xml:space="preserve">
<g id="Layer_x0020_1">
	<path fill="#FFFFFF" d="M338.334,199.461c-7.799,0-11.998-9.598-6.299-15.297l78.885-80.084
		c8.398-8.398,21.296,4.199,12.897,12.598l-78.885,80.084C343.133,198.561,340.733,199.461,338.334,199.461z M392.623,71.386
		l43.191-43.792c16.197-16.197,42.892-16.797,59.389-0.3l4.199,4.199c16.497,16.197,16.797,42.892,0.3,59.389l-23.096,23.396
		l-83.683,84.883v241.753c0,30.894-25.195,55.789-55.789,55.789H55.789C24.895,496.703,0,471.808,0,440.914V73.186
		c0-30.594,24.895-55.489,55.789-55.489h282.545C368.328,17.696,391.123,42.592,392.623,71.386z M230.955,308.34
		c-5.699,0-10.198-5.699-8.698-11.697l21.596-74.086L374.927,89.683V73.186c0-20.696-17.097-37.493-37.792-37.493H55.789
		c-20.996,0-37.792,16.797-37.792,37.493v367.729c0,20.695,16.796,37.792,37.792,37.792h281.346
		c20.695,0,37.792-17.097,37.792-37.792V217.458l-67.487,67.787L230.955,308.34z M304.74,233.654
		c-8.098,0-11.998-9.598-6.299-15.297l14.098-14.397c8.398-8.398,20.996,4.199,12.897,12.598l-14.397,14.397
		C309.24,232.754,307.141,233.654,304.74,233.654z M283.445,120.577H71.686c-11.998,0-11.998-17.997,0-17.997h211.759
		C295.143,102.58,295.143,120.577,283.445,120.577z M229.155,194.062H71.686c-11.998,0-11.998-17.997,0-17.997h157.469
		C240.853,176.065,240.853,194.062,229.155,194.062z M189.263,267.548H71.686c-11.998,0-11.998-17.997,0-17.997h117.577
		C200.961,249.551,200.961,267.548,189.263,267.548z M224.656,340.733H71.686c-11.998,0-11.998-17.996,0-17.996h152.97
		C236.654,322.737,236.654,340.733,224.656,340.733z M321.537,414.219H71.686c-11.998,0-11.998-17.996,0-17.996h249.851
		C333.535,396.223,333.535,414.219,321.537,414.219z M256.15,244.152l-11.998,41.691l41.691-12.598L256.15,244.152z
		 M264.549,227.056l38.092,37.792l155.07-156.869l-38.393-37.792L264.549,227.056z M431.916,57.289l38.393,37.792l16.796-16.797
		c9.299-9.598,8.999-24.595-0.3-33.893c-11.098-11.098-25.495-16.797-38.093-3.899L431.916,57.289z"/>
</g>
</svg>
