<?xml version="1.0" encoding="utf-8"?>
<!-- Generator: Adobe Illustrator 16.0.0, SVG Export Plug-In . SVG Version: 6.00 Build 0)  -->
<!DOCTYPE svg PUBLIC "-//W3C//DTD SVG 1.1//EN" "http://www.w3.org/Graphics/SVG/1.1/DTD/svg11.dtd">
<svg version="1.1" id="Layer_1" xmlns="http://www.w3.org/2000/svg" xmlns:xlink="http://www.w3.org/1999/xlink" x="0px" y="0px"
	 width="512px" height="512px" viewBox="0 0 512 512" enable-background="new 0 0 512 512" xml:space="preserve">
<circle fill="#E83719" cx="257.928" cy="252.814" r="217.5"/>
<g>
	<path fill="#FFFFFF" d="M330.664,260.989c-5.345,0-9.666,4.331-9.666,9.666v77.331c0,5.326-4.331,9.666-9.666,9.666h-135.33
		c-5.336,0-9.666-4.34-9.666-9.666v-135.33c0-5.326,4.33-9.666,9.666-9.666h77.332c5.346,0,9.666-4.331,9.666-9.666
		c0-5.336-4.32-9.667-9.666-9.667h-77.332c-15.988,0-28.999,13.011-28.999,28.999v135.33c0,15.988,13.011,28.999,28.999,28.999
		h135.33c15.988,0,28.999-13.011,28.999-28.999v-77.331C340.331,265.31,336.01,260.989,330.664,260.989z"/>
	<path fill="#FFFFFF" d="M237.635,252.184c-0.676,0.676-1.131,1.536-1.324,2.463l-6.834,34.182
		c-0.318,1.585,0.184,3.219,1.324,4.369c0.919,0.918,2.156,1.41,3.423,1.41c0.308,0,0.628-0.027,0.947-0.096l34.171-6.834
		c0.946-0.194,1.807-0.647,2.474-1.325l76.48-76.48l-34.17-34.169L237.635,252.184z"/>
	<path fill="#FFFFFF" d="M371.92,152.069c-9.424-9.425-24.755-9.425-34.171,0l-13.377,13.377l34.17,34.171l13.378-13.379
		c4.563-4.552,7.076-10.623,7.076-17.08C378.996,162.701,376.483,156.63,371.92,152.069z"/>
</g>
</svg>
