<svg id="Layer_1" data-name="Layer 1" xmlns="http://www.w3.org/2000/svg" viewBox="0 0 468 468"><defs><style>.cls-1{fill:#efeded;stroke:#828181;stroke-miterlimit:10;stroke-width:2px;}.cls-2{fill:#63605f;}</style></defs><circle class="cls-1" cx="234" cy="234" r="233"/><path class="cls-2" d="M123.37,208H255.8V239.1a8.77,8.77,0,0,0,13.93,7.09l92.06-67.06a8.77,8.77,0,0,0,1.91-12.26,9.1,9.1,0,0,0-1.91-1.91L269.73,97.9A8.78,8.78,0,0,0,255.8,105v31.13H123.37a8.77,8.77,0,0,0-8.77,8.77v54.34A8.77,8.77,0,0,0,123.37,208Z" transform="translate(-6 -6)"/><path class="cls-2" d="M356.64,272H224.19V240.9a8.77,8.77,0,0,0-13.93-7.09L118.2,300.87a8.77,8.77,0,0,0,0,14.18l92.06,67.06A8.78,8.78,0,0,0,224.19,375V343.89H356.64a8.77,8.77,0,0,0,8.77-8.77V280.79A8.77,8.77,0,0,0,356.64,272Z" transform="translate(-6 -6)"/></svg>