<?xml version="1.0" encoding="utf-8"?>
<!-- Generator: Adobe Illustrator 16.0.0, SVG Export Plug-In . SVG Version: 6.00 Build 0)  -->
<!DOCTYPE svg PUBLIC "-//W3C//DTD SVG 1.1//EN" "http://www.w3.org/Graphics/SVG/1.1/DTD/svg11.dtd">
<svg version="1.1" id="Layer_1" xmlns="http://www.w3.org/2000/svg" xmlns:xlink="http://www.w3.org/1999/xlink" x="0px" y="0px"
	 width="512px" height="512px" viewBox="0 0 512 512" enable-background="new 0 0 512 512" xml:space="preserve">
<circle fill="#F9F7F7" cx="271.372" cy="253.128" r="146.5"/>
<g id="_x30_1._Facebook">
	<path id="Icon_11_" fill="#E83719" d="M246.955,266.295c-0.767,0-17.643,0-25.313,0c-4.091,0-5.369-1.532-5.369-5.369
		c0-10.227,0-20.71,0-30.938c0-4.09,1.535-5.369,5.369-5.369h25.313c0-0.767,0-15.597,0-22.5c0-10.226,1.79-19.943,6.903-28.892
		c5.37-9.204,13.041-15.34,22.756-18.92c6.394-2.302,12.784-3.325,19.688-3.325h25.056c3.58,0,5.114,1.535,5.114,5.114v29.148
		c0,3.579-1.534,5.114-5.114,5.114c-6.902,0-13.808,0-20.71,0.255c-6.903,0-10.481,3.323-10.481,10.483
		c-0.256,7.67,0,15.086,0,23.01h29.657c4.092,0,5.626,1.535,5.626,5.625v30.938c0,4.092-1.279,5.368-5.626,5.368
		c-9.204,0-28.891,0-29.657,0v83.354c0,4.346-1.28,5.882-5.883,5.882c-10.739,0-21.221,0-31.959,0c-3.834,0-5.369-1.534-5.369-5.369
		C246.955,323.057,246.955,267.063,246.955,266.295L246.955,266.295z"/>
</g>
</svg>
