<?xml version="1.0" encoding="utf-8"?>
<!-- Generator: Adobe Illustrator 16.0.0, SVG Export Plug-In . SVG Version: 6.00 Build 0)  -->
<!DOCTYPE svg PUBLIC "-//W3C//DTD SVG 1.1//EN" "http://www.w3.org/Graphics/SVG/1.1/DTD/svg11.dtd">
<svg version="1.1" id="Layer_1" xmlns="http://www.w3.org/2000/svg" xmlns:xlink="http://www.w3.org/1999/xlink" x="0px" y="0px"
	 width="512px" height="512px" viewBox="0 0 512 512" enable-background="new 0 0 512 512" xml:space="preserve">
<circle fill="#E83719" cx="256.928" cy="254.814" r="217.5"/>
<path fill="#FFFFFF" d="M371.075,148.663H145.752c-5.274,0-9.548,4.543-9.548,10.149c0,28.262,11.398,55.243,31.271,74.021
	l41.816,39.504c7.25,6.852,11.409,16.694,11.409,27.008v98.968c0,8.087,8.504,12.936,14.842,8.44l56.333-39.912
	c2.655-1.885,4.253-5.053,4.253-8.445v-59.051c0-10.313,4.156-20.156,11.405-27.008l41.816-39.504
	c19.872-18.778,31.272-45.759,31.272-74.021C380.623,153.206,376.347,148.663,371.075,148.663z M336.665,217.661l-41.813,39.509
	c-11.325,10.698-17.822,26.072-17.822,42.174v53.621l-37.234,26.385v-80.004c0-16.104-6.496-31.478-17.819-42.176l-41.814-39.507
	c-13.4-12.664-21.955-30.016-24.245-48.704h204.992C358.618,187.647,350.067,204.999,336.665,217.661z"/>
</svg>
