<?xml version="1.0" encoding="utf-8"?>
<!-- Generator: Adobe Illustrator 16.0.0, SVG Export Plug-In . SVG Version: 6.00 Build 0)  -->
<!DOCTYPE svg PUBLIC "-//W3C//DTD SVG 1.1//EN" "http://www.w3.org/Graphics/SVG/1.1/DTD/svg11.dtd">
<svg version="1.1" id="Capa_1" xmlns="http://www.w3.org/2000/svg" xmlns:xlink="http://www.w3.org/1999/xlink" x="0px" y="0px"
	 width="512px" height="512px" viewBox="0 0 512 512" enable-background="new 0 0 512 512" xml:space="preserve">
<path fill="#EF6614" d="M256,0C114.844,0,0,114.844,0,256s114.844,256,256,256s256-114.844,256-256S397.156,0,256,0z
	 M272.652,407.892c-12.162,2.027-36.363,7.092-48.652,8.109c-10.402,0.861-20.219-5.093-26.203-13.641
	c-6-8.547-7.438-19.484-3.875-29.297l48.391-133.063H192c-0.043-27.727,20.754-48.113,47.354-55.938
	c12.693-3.735,36.344-8.846,48.646-8.063c7.371,0.469,20.219,5.094,26.203,13.641c5.999,8.547,7.438,19.484,3.875,29.297
	l-48.391,133.062h50.297C319.994,379.695,299.973,403.339,272.652,407.892L272.652,407.892z M288,160c-17.674,0-32-14.329-32-32
	c0-17.673,14.327-32,32-32s32,14.327,32,32C320,145.673,305.674,160,288,160L288,160z"/>
</svg>
