<?xml version="1.0" encoding="utf-8"?>
<!-- Generator: Adobe Illustrator 16.0.0, SVG Export Plug-In . SVG Version: 6.00 Build 0)  -->
<!DOCTYPE svg PUBLIC "-//W3C//DTD SVG 1.1//EN" "http://www.w3.org/Graphics/SVG/1.1/DTD/svg11.dtd">
<svg version="1.1" id="Layer_1" xmlns="http://www.w3.org/2000/svg" xmlns:xlink="http://www.w3.org/1999/xlink" x="0px" y="0px"
	 width="682px" height="682px" viewBox="0 0 682 682" enable-background="new 0 0 682 682" xml:space="preserve">
<ellipse fill="#F7F5F5" cx="367.408" cy="352.51" rx="209.691" ry="204"/>
<g>
	<path fill="#E83719" d="M432.44,210.714H302.377c-42.33,0-76.766,34.436-76.766,76.767v130.063
		c0,42.325,34.436,76.763,76.766,76.763h130.064c42.325,0,76.764-34.438,76.764-76.763V287.48
		C509.205,245.15,474.767,210.714,432.44,210.714z M492.58,417.544c0,33.158-26.979,60.138-60.14,60.138H302.377
		c-33.162,0-60.141-26.979-60.141-60.138V287.48c0-33.163,26.979-60.141,60.141-60.141h130.064c33.16,0,60.139,26.979,60.139,60.141
		V417.544z"/>
	<path fill="#E83719" d="M367.408,257.946c-52.145,0-94.565,42.421-94.565,94.565c0,52.146,42.42,94.564,94.565,94.564
		s94.563-42.419,94.563-94.564C461.972,300.367,419.553,257.946,367.408,257.946z M367.408,426.803
		c-40.961,0-74.29-33.328-74.29-74.292c0-40.962,33.329-74.29,74.29-74.29c40.963,0,74.291,33.328,74.291,74.29
		C441.699,393.475,408.371,426.803,367.408,426.803z"/>
	<path fill="#E83719" d="M367.407,324.567c-15.41,0-27.942,12.536-27.942,27.942c0,15.41,12.532,27.946,27.942,27.946
		c15.407,0,27.944-12.536,27.944-27.946C395.352,337.1,382.814,324.567,367.407,324.567z M367.407,360.177
		c-4.227,0-7.669-3.439-7.669-7.668c0-4.229,3.442-7.667,7.669-7.667c4.229,0,7.67,3.438,7.67,7.667
		C375.077,356.737,371.636,360.177,367.407,360.177z"/>
</g>
</svg>
