<svg viewBox="0 0 24 24" xmlns="http://www.w3.org/2000/svg"><g id="Layer_2" data-name="Layer 2"><path d="m20.18164 4.18164a17.30282 17.30282 0 0 1 -3.93164-.88864 17.35207 17.35207 0 0 1 -3.33789-1.59815 1.74662 1.74662 0 0 0 -1.82422 0 17.34992 17.34992 0 0 1 -3.33789 1.59815 17.30282 17.30282 0 0 1 -3.93164.88867 1.74674 1.74674 0 0 0 -1.56836 1.73874v5.19531a10.75708 10.75708 0 0 0 5.5293 9.39746l3.37011 1.87207a1.73915 1.73915 0 0 0 1.7002.00049l3.37109-1.87256a10.75708 10.75708 0 0 0 5.5293-9.39746v-5.19531a1.74674 1.74674 0 0 0 -1.56836-1.73877z" fill="#0db561"/><path d="m11.2998 15.2334a1.19325 1.19325 0 0 1 -.79687-.30371l-2.84961-2.53269a1.19964 1.19964 0 1 1 1.59375-1.79345l1.97656 1.75634 3.95117-4.21438a1.201 1.201 0 0 1 1.69532-.05469 1.20132 1.20132 0 0 1 .05566 1.69678l-4.75 5.06689a1.19292 1.19292 0 0 1 -.87598.37891z" fill="#fff"/></g></svg>