<?xml version="1.0" encoding="utf-8"?>
<!-- Generator: Adobe Illustrator 24.3.0, SVG Export Plug-In . SVG Version: 6.00 Build 0)  -->
<svg version="1.1" id="Layer_1" xmlns="http://www.w3.org/2000/svg" xmlns:xlink="http://www.w3.org/1999/xlink" x="0px" y="0px"
	 viewBox="0 0 433.3 97" style="enable-background:new 0 0 433.3 97;" xml:space="preserve">
<style type="text/css">
	.st0{fill:#FFFFFF;}
	.st1{fill:#4A494A;}
</style>
<path class="st0" d="M23.8,0.2h0.6v9.1h-0.6c-4.7,0-7.6,1.6-8.9,4.9c-0.6,1.5-1,3.1-1,4.7v4.2h10.2v9.1H13.9v36.6H0.8V32.2H0v-9.1
	h0.8v-4.2c-0.1-5.6,2.2-11,6.4-14.8c1.6-1.2,3.3-2.2,5.2-2.9C14.6,0.5,21,0.2,23.8,0.2z"/>
<path class="st0" d="M30.2,0.2h11.1v68.6H30.2V0.2z"/>
<path class="st0" d="M50.5,9.8c2.7,0,4.4,1.5,5.3,4.4l0.1,1.2c0,2.6-1.4,4.4-4.1,5.4l-1.1,0.1h-0.5c-2.5,0-4.3-1.4-5.2-4.1l-0.1-1.1
	v-0.3c0-2.5,1.3-4.3,4-5.2L50.5,9.8z M45.8,23.1h11.1v45.7H45.8V23.1z"/>
<path class="st0" d="M98.1,64.2H98c-3.9,2.9-8.7,4.5-13.6,4.5h-0.3c-7.5,0-13.7-3.3-18.7-9.9c-2.4-3.6-3.8-7.8-3.9-12.1V45
	c0-5.2,2-10.1,6.1-14.8C71.9,25.6,78,23,84.3,23c4.9,0,13.8,4.5,13.8,4.5L98.1,64.2z M72.1,45.4v1c0,3.4,1.6,6.5,4.7,9.2
	c2.1,1.7,4.8,2.6,7.5,2.6c4.8,0,8.6-2.4,11.2-7.2c0.6-1.6,1-3.3,1.1-5.1c-0.1-6.7-5.5-12.2-12.3-12.2c-4.5,0-8.1,2.1-10.8,6.4
	C72.7,41.7,72.2,43.5,72.1,45.4L72.1,45.4z"/>
<path class="st0" d="M112.7,0.2h11.1v27.4h0.1c4.1-3,7.7-4.5,12.9-4.5c6.9,0,12.9,2.9,17.9,8.8c3,3.9,4.6,8.7,4.7,13.6v23.3h-11.1
	v-23c0-4.7-0.2-7.5-4.5-10.5c-2.2-1.4-4.8-2.1-7.4-2.1c-4.3,0-6,0.9-9,4.8c-1.8,2.5-2.7,5.6-2.6,8.7l-1,22.1h-11.1V0.2z"/>
<path class="st0" d="M169.7,0h11.1v23.1h7.8v9.1h-7.8v36.6h-11.1V32.2h-7.9v-9.1h7.9L169.7,0z"/>
<path class="st0" d="M208.6,23.1H235v10.1h-26.4c-2.5,0-4,0.4-4.6,1.2c-0.9,1.2-1.3,1.4-1.3,2.6c-0.1,1.9,1,3.6,2.8,4.1l1.7,0.3
	h12.2c7.4,0,12.2,2.8,14.5,8.5c0.6,1.7,0.9,3.5,0.9,5.3c0.2,5.2-2.7,10-7.5,12.2c-1.8,0.9-3.7,1.4-5.7,1.4h-27.8V58.7h27.3
	c1.9,0.2,3.6-0.9,4.3-2.7l0.3-0.9c0-3.1-1.9-4.6-5.6-4.6H207c-3.6,0-7-1.5-9.6-4c-2.5-2.6-3.8-6-3.7-9.6c0-3.5,1.3-6.9,3.6-9.6
	C199.6,24.5,203.4,23.1,208.6,23.1z"/>
<path class="st0" d="M247.8,23.1h10.1v2.4h0.1c7.5-4.3,17.1-2.7,22.8,3.8c6.7-7.6,18.3-8.3,25.9-1.6c0.5,0.4,0.9,0.9,1.3,1.3
	c3.1,3.5,4.8,8,4.8,12.6v27.2h-10.1V41.6c0-4.2-1.1-7.2-5.4-9c-0.9-0.2-1.9-0.4-2.8-0.4c-3.7,0-6.6,1.9-8.5,5.7
	c-0.5,1.5-0.7,3-0.7,4.6v26.3h-10.1V41.1c0-3.3-0.8-6-4.3-8.1c-1.3-0.5-2.6-0.7-4-0.8c-3.3,0-6.1,1.8-8.2,5.3
	c-0.5,1.2-0.7,2.4-0.8,3.7v27.6h-10.1V23.1z"/>
<path class="st0" d="M342.4,23.1c6,0,11.8,2.4,16,6.7c4.3,4.3,6.7,10.1,6.7,16.2c0,6.4-2.5,12-7.4,16.8c-4.2,3.9-9.7,6-15.4,6h-0.2
	c-6.8,0-12.6-2.7-17.4-8.1c-6.7-7.9-7.2-19.3-1.3-27.8C328.3,26.3,334.7,23.1,342.4,23.1z M342.1,45.9L342.1,45.9c0,0,0,0.1,0.1,0.1
	c0,0,0.1,0,0.1,0c0,0,0.1,0,0.1-0.1c0,0,0-0.1,0-0.1c0-0.1,0-0.1-0.1-0.1h-0.1C342.2,45.8,342.1,45.8,342.1,45.9
	C342.1,45.9,342.1,45.9,342.1,45.9L342.1,45.9z"/>
<path class="st0" d="M371.8,23.1h11.1v49.7c0.1,6.5-2.4,12.9-6.9,17.6c-4.2,3.9-11.5,5.9-17.9,5.9v-9.1c6.5,0,10.8-3,12.8-8.9
	c0.6-1.8,0.9-3.7,0.9-5.6L371.8,23.1z M376.4,10.8c2.2,0,3.6,1.2,4.4,3.6l0.1,1c0,2.1-1.1,3.6-3.4,4.4l-0.9,0.1h-0.4
	c-2.1,0-3.5-1.1-4.3-3.4l-0.1-0.9v-0.2c0-2.1,1.1-3.5,3.3-4.3L376.4,10.8z"/>
<path class="st0" d="M97.3,23.8h11.1v49.7c0.1,6.6-2.4,12.9-6.9,17.6C97.3,95.1,90,97,83.6,97v-9.1c6.5,0,10.8-3,12.8-8.9
	c0.6-1.8,0.9-3.7,0.9-5.6V23.8z"/>
<path class="st0" d="M410.6,23.1c6,0,11.8,2.4,16,6.7c4.3,4.3,6.7,10.1,6.7,16.2c0,6.4-2.5,12-7.4,16.8c-4.2,3.9-9.7,6-15.4,6h-0.2
	c-6.8,0-12.6-2.7-17.4-8.1c-6.7-7.9-7.2-19.3-1.3-27.8C396.5,26.3,402.8,23.1,410.6,23.1z M398.1,45.3v0.5l-0.1,0.1l0.1,0.1v0.6
	c0,3.3,1.6,6.4,4.8,9.2c2.2,1.6,4.8,2.5,7.6,2.5c4,0,7.8-1.9,10.1-5.2c1.5-2.1,2.3-4.6,2.3-7.1c0-4.3-2-7.8-5.9-10.6
	c-2-1.2-4.3-1.8-6.7-1.8c-4.1,0-7.5,1.9-10.3,5.8C398.8,41.1,398.1,43.2,398.1,45.3z"/>
<path class="st1" d="M341.4,44.8l-3.9-1.5l0.5-0.9l4.3,0.4c0,0,2.2-4.1,2.9-5.4l-1.4-1l-7.3-2.9l0.5-0.6l4.5,0.2l0.7-1.1
	c0,0,0-0.3,0.6,0l0.9,0.6l-0.2,0.7c0,0,3.8,0.3,4.2,0.4c0,0,2.7-5.1,5.2-5.2c0,0,1.4,0.1,0.2,3l-2.3,3.8l1.7,4.1l0.3-0.3
	c0.1-0.2,0.3-0.2,0.5-0.1c0,0,0,0,0,0l0.9,0.6c0,0,0.3,0.2,0,0.6l-0.8,1.1l2.1,4l-0.5,0.7l-5.5-5.6l-1.5-1.2l-3.8,5l2,3.7l-0.6,1
	l-2.9-3.1c-0.6,0.6-1.3,1.2-2,1.7C340.8,46.5,341.1,45.6,341.4,44.8z"/>
<path class="st1" d="M340.8,44.3l2,1.2c0,0-4,14.6-16.9,17.4c0,0-5.7-4.8-6.8-14.8C319.2,48.1,330.3,57.3,340.8,44.3z"/>
</svg>
