<?xml version="1.0" encoding="utf-8"?>
<!-- Generator: Adobe Illustrator 16.0.0, SVG Export Plug-In . SVG Version: 6.00 Build 0)  -->
<!DOCTYPE svg PUBLIC "-//W3C//DTD SVG 1.1//EN" "http://www.w3.org/Graphics/SVG/1.1/DTD/svg11.dtd">
<svg version="1.1" id="Capa_1" xmlns="http://www.w3.org/2000/svg" xmlns:xlink="http://www.w3.org/1999/xlink" x="0px" y="0px"
	 width="800px" height="600px" viewBox="0 0 800 600" enable-background="new 0 0 800 600" xml:space="preserve">
<g>
	<g>
		<path fill="#F9F7F7" d="M694.715,119.204L512.747,300l181.968,180.796c3.289-6.876,5.285-14.477,5.285-22.593V141.797
			C700,133.679,698.004,126.08,694.715,119.204z"/>
	</g>
</g>
<g>
	<g>
		<path fill="#F9F7F7" d="M647.266,89.063H152.734c-8.118,0-15.717,1.996-22.593,5.285L362.716,325.75
			c20.564,20.563,54.005,20.563,74.568,0L669.858,94.348C662.982,91.058,655.383,89.063,647.266,89.063z"/>
	</g>
</g>
<g>
	<g>
		<path fill="#F9F7F7" d="M105.285,119.204c-3.29,6.875-5.285,14.475-5.285,22.593v316.406c0,8.117,1.996,15.719,5.285,22.593
			L287.253,300L105.285,119.204z"/>
	</g>
</g>
<g>
	<g>
		<path fill="#F9F7F7" d="M487.891,324.856l-25.75,25.75c-34.264,34.265-90.019,34.265-124.283,0l-25.749-25.75L130.142,505.652
			c6.875,3.289,14.475,5.285,22.593,5.285h494.531c8.117,0,15.717-1.996,22.593-5.285L487.891,324.856z"/>
	</g>
</g>
</svg>
