<?xml version="1.0" encoding="utf-8"?>
<!-- Generator: Adobe Illustrator 16.0.0, SVG Export Plug-In . SVG Version: 6.00 Build 0)  -->
<!DOCTYPE svg PUBLIC "-//W3C//DTD SVG 1.1//EN" "http://www.w3.org/Graphics/SVG/1.1/DTD/svg11.dtd">
<svg version="1.1" id="Capa_1" xmlns="http://www.w3.org/2000/svg" xmlns:xlink="http://www.w3.org/1999/xlink" x="0px" y="0px"
	 width="512px" height="512px" viewBox="0 0 512 512" enable-background="new 0 0 512 512" xml:space="preserve">
<g>
	<g id="grip-solid-horizontal_1_">
		<path fill="#EA4218" d="M480,448.001H32c-17.674,0-32-14.328-32-32C0,398.328,14.326,384,32,384h448.001
			c17.673,0,32,14.328,32,32.001C512,433.673,497.674,448.001,480,448.001z"/>
		<path fill="#EA4218" d="M480,288H32c-17.674,0-32-14.326-32-32c0-17.673,14.326-32,32-32h448.001c17.673,0,32,14.326,32,32
			C512.001,273.674,497.674,288,480,288z"/>
		<path fill="#EA4218" d="M480,128H32c-17.674,0-32-14.327-32-32s14.326-32,32-32h448.001c17.673,0,32,14.326,32,32
			S497.674,128,480,128z"/>
	</g>
</g>
</svg>
