<?xml version="1.0" encoding="utf-8"?>
<!-- Generator: Adobe Illustrator 16.0.0, SVG Export Plug-In . SVG Version: 6.00 Build 0)  -->
<!DOCTYPE svg PUBLIC "-//W3C//DTD SVG 1.1//EN" "http://www.w3.org/Graphics/SVG/1.1/DTD/svg11.dtd">
<svg version="1.1" id="Layer_1" xmlns="http://www.w3.org/2000/svg" xmlns:xlink="http://www.w3.org/1999/xlink" x="0px" y="0px"
	 width="512px" height="512px" viewBox="0 0 512 512" enable-background="new 0 0 512 512" xml:space="preserve">
<g id="_03-banking">
	<g id="linear_color-2">
		<path fill="#EF6614" d="M496,446h-22v-30c0-5.522-4.478-10-10-10h-22V210h22c5.522,0,10-4.477,10-10v-56
			c0-3.473-1.802-6.697-4.759-8.517l-208-128c-3.214-1.978-7.268-1.978-10.482,0l-208,128c-4.373,2.691-5.998,8.256-3.759,12.877
			V200c0,5.523,4.477,10,10,10h21v196H48c-5.523,0-10,4.478-10,10v30H16c-5.523,0-10,4.478-10,10v40c0,5.522,4.477,10,10,10h480
			c5.522,0,10-4.478,10-10v-40C506,450.478,501.522,446,496,446z M422,406h-28V210h28V406z M138,406V210h236v196H138z M59,148.973
			L256,27.742l198,121.846V190H59V148.973z M90,210h28v196H90V210z M58,426h396v20H58V426z M486,486H26v-20h460V486z"/>
		<path fill="#EF6614" d="M265,301h-17c-7.732,0-14-6.268-14-14s6.268-14,14-14h24.813c3.041,0,5.506,2.466,5.505,5.507
			c0,0.079-0.002,0.159-0.005,0.238c-0.237,5.519,4.044,10.184,9.563,10.421c5.518,0.236,10.184-4.045,10.42-9.563
			c0.604-14.076-10.317-25.977-24.394-26.58c-0.362-0.016-0.726-0.023-1.089-0.023H267v-6c0-5.523-4.477-10-10-10
			c-5.523,0-10,4.477-10,10v6.025c-18.767,0.558-33.528,16.223-32.971,34.99c0.546,18.37,15.592,32.98,33.971,32.985h17
			c7.729,0.008,13.992,6.271,14,14v1c-0.008,7.729-6.271,13.992-14,14h-25.209c-3.042,0.001-5.507-2.465-5.508-5.506
			c0-0.034,0-0.068,0.001-0.104l0.019-1.038c0.099-5.522-4.298-10.08-9.821-10.179s-10.08,4.298-10.179,9.821l0,0l-0.019,1.036
			c-0.254,14.086,10.959,25.711,25.045,25.965c0.154,0.003,0.308,0.004,0.462,0.004H247v6c0,5.522,4.477,10,10,10
			c5.523,0,10-4.478,10-10v-6.064c17.959-1.077,31.979-15.944,32-33.936v-1C298.979,316.231,283.77,301.021,265,301z"/>
		<path fill="#EF6614" d="M256,110c-11.146-0.031-21.84,4.398-29.7,12.3c-3.905,3.906-3.905,10.238,0,14.143
			c3.906,3.906,10.238,3.906,14.143,0c8.592-8.591,22.52-8.591,31.112,0c3.906,3.906,10.238,3.907,14.145,0.001
			c3.906-3.905,3.906-10.238,0.001-14.144l0,0C277.841,114.397,267.146,109.968,256,110z"/>
		<path fill="#EF6614" d="M206.5,102.5c27.336-27.336,71.657-27.336,98.994,0c3.904,3.906,10.236,3.908,14.143,0.003
			s3.908-10.236,0.004-14.143c-35.147-35.147-92.132-35.147-127.28,0c0,0,0,0-0.001,0c-3.829,3.98-3.706,10.311,0.274,14.14
			C196.506,106.225,202.628,106.225,206.5,102.5z"/>
		<circle fill="#EF6614" cx="256" cy="162" r="10"/>
	</g>
</g>
</svg>
