<?xml version="1.0" encoding="utf-8"?>
<!-- Generator: Adobe Illustrator 16.0.0, SVG Export Plug-In . SVG Version: 6.00 Build 0)  -->
<!DOCTYPE svg PUBLIC "-//W3C//DTD SVG 1.1//EN" "http://www.w3.org/Graphics/SVG/1.1/DTD/svg11.dtd">
<svg version="1.1" id="Layer_1" xmlns="http://www.w3.org/2000/svg" xmlns:xlink="http://www.w3.org/1999/xlink" x="0px" y="0px"
	 width="512px" height="512px" viewBox="0 0 512 512" enable-background="new 0 0 512 512" xml:space="preserve">
<g id="Layer_4_copy">
	<g>
		<circle fill="#FFFFFF" cx="256" cy="256" r="220.944"/>
		
			<linearGradient id="SVGID_1_" gradientUnits="userSpaceOnUse" x1="-118.7813" y1="525.8096" x2="-118.7813" y2="549.0029" gradientTransform="matrix(16 0 0 -16 2156.5 8854.5)">
			<stop  offset="0" style="stop-color:#FF2D76"/>
			<stop  offset="1" style="stop-color:#FB0000"/>
		</linearGradient>
		<circle fill="url(#SVGID_1_)" cx="256" cy="256" r="185.552"/>
	</g>
</g>
<g id="Official_copy_2">
	<path fill="#FFFFFF" d="M355.584,212.016c0,57.968-32.225,101.28-79.729,101.28c-15.967,0-30.959-8.624-36.096-18.432
		c0,0-8.576,34.048-10.384,40.624c-6.4,23.216-25.216,46.447-26.672,48.352c-1.024,1.328-3.264,0.912-3.52-0.848
		c-0.4-2.96-5.2-32.256,0.448-56.16c2.832-12,19.008-80.528,19.008-80.528s-4.704-9.44-4.704-23.376
		c0-21.904,12.688-38.256,28.496-38.256c13.44,0,19.919,10.08,19.919,22.176c0,13.52-8.592,33.728-13.04,52.431
		c-3.712,15.681,7.856,28.465,23.329,28.465c28,0,46.848-35.968,46.848-78.576c0-32.384-21.809-56.624-61.488-56.624
		c-44.816,0-72.752,33.424-72.752,70.768c0,12.88,3.808,21.968,9.76,28.976c2.72,3.232,3.12,4.528,2.128,8.239
		c-0.72,2.721-2.336,9.265-3.024,11.856c-0.976,3.744-4.016,5.072-7.392,3.696c-20.64-8.432-30.256-31.04-30.256-56.464
		c0-41.968,35.408-92.32,105.616-92.32C318.464,127.36,355.584,168.176,355.584,212.016L355.584,212.016z"/>
</g>
</svg>
