<?xml version="1.0" encoding="utf-8"?>
<!-- Generator: Adobe Illustrator 16.0.0, SVG Export Plug-In . SVG Version: 6.00 Build 0)  -->
<!DOCTYPE svg PUBLIC "-//W3C//DTD SVG 1.1//EN" "http://www.w3.org/Graphics/SVG/1.1/DTD/svg11.dtd">
<svg version="1.1" id="svg477" xmlns:svg="http://www.w3.org/2000/svg"
	 xmlns="http://www.w3.org/2000/svg" xmlns:xlink="http://www.w3.org/1999/xlink" x="0px" y="0px" width="682.667px"
	 height="682.667px" viewBox="0 0 682.667 682.667" enable-background="new 0 0 682.667 682.667" xml:space="preserve">
<g id="g485">
	<g>
		<g id="g493" transform="translate(64.8018,226.9282)">
			
				<path id="path495" fill="none" stroke="#FFFFFF" stroke-width="15" stroke-linecap="round" stroke-linejoin="round" stroke-miterlimit="10" d="
				M21.601,153.167c-7.401-25.713-33.745-40.811-59.507-34.541v42.066c23.81,0.553,43.464,17.83,47.695,40.539
				C21.569,188.864,26.666,170.765,21.601,153.167z"/>
		</g>
		<g id="g497" transform="translate(188.3887,67.0859)">
			
				<path id="path499" fill="none" stroke="#FFFFFF" stroke-width="15" stroke-linecap="round" stroke-linejoin="round" stroke-miterlimit="10" d="
				M62.796,526.132h353.879c26.094,0,47.24-21.146,47.24-47.24v-58.961c-0.393,0.012-0.785,0.029-1.178,0.029
				c-27.461,0-49.729-22.27-49.729-49.729c0-27.461,22.268-49.727,49.729-49.727c0.393,0,0.785,0.014,1.178,0.027v-10.756
				c-4.115,2.85-8.748,5.098-13.824,6.559L-60.121,463.191c-25.076,7.219-51.248-7.256-58.464-32.332l-7.702-26.756
				c-8.831,9.475-21.308,15.504-35.207,15.828v58.961c0,26.094,21.149,47.24,47.241,47.24H14.176"/>
		</g>
		<g id="g501" transform="translate(443.877,336.0376)">
			
				<path id="path503" fill="none" stroke="#FFFFFF" stroke-width="15" stroke-linecap="round" stroke-linejoin="round" stroke-miterlimit="10" d="
				M147.958-101.421c7.596,26.389,35.154,41.628,61.541,34.032c0.379-0.108,0.752-0.23,1.125-0.353l16.309,56.663
				c7.219,25.075-7.256,51.247-32.33,58.463L-315.61,194.239c-25.075,7.217-51.247-7.256-58.462-32.33l-16.311-56.664
				c25.699-8.047,40.396-35.176,32.91-61.188c-7.487-26.01-34.359-41.174-60.403-34.33l-14.144-49.143
				c-7.217-25.073,7.256-51.247,32.331-58.463l510.213-146.856c25.074-7.216,51.246,7.256,58.465,32.331l14.145,49.143
				c-0.381,0.095-0.762,0.189-1.141,0.299C155.603-155.368,140.365-127.811,147.958-101.421z"/>
		</g>
		<g id="g505" transform="translate(357.7646,189.5786)">
			<path id="path507" fill="none" d="M119.254,240.317L35.173-51.801"/>
		</g>
		<g id="g509" transform="translate(357.7637,189.5786)">
			<path id="path511" fill="none" stroke="#FFFFFF" stroke-width="15" stroke-linecap="round" stroke-linejoin="round" d="
				M119.255,240.317l-3.873-13.455"/>
		</g>
		<g id="g513" transform="translate(344.7412,234.8247)">
			
				<path id="path515" fill="none" stroke="#FFFFFF" stroke-width="15" stroke-linecap="round" stroke-linejoin="round" stroke-dasharray="20.217,36.583" d="
				M114.915,134.743L58.817-60.156"/>
		</g>
		<g id="g517" transform="translate(297.6084,398.5767)">
			<path id="path519" fill="none" stroke="#FFFFFF" stroke-width="15" stroke-linecap="round" stroke-linejoin="round" d="
				M99.204-247.346l-3.873-13.453"/>
		</g>
		<g id="g521" transform="translate(214.2949,285.748)">
			
				<path id="path523" fill="none" stroke="#FFFFFF" stroke-width="15" stroke-linecap="round" stroke-linejoin="round" stroke-miterlimit="10" d="
				M71.432,15.921L9.033-43.153l-30.749,8.852L25.177,31.7C41.651,26.047,57.868,20.507,71.432,15.921z"/>
		</g>
		<g id="g525" transform="translate(187.7334,245.6685)">
			
				<path id="path527" fill="none" stroke="#FFFFFF" stroke-width="15" stroke-linecap="round" stroke-linejoin="round" stroke-miterlimit="10" d="
				M62.578,109.44l-4.629,80.834l30.75-8.852l21.447-83.207C96.216,101.542,79.538,105.472,62.578,109.44z"/>
		</g>
		<g id="g529" transform="translate(420.9219,380.2949)">
			
				<path id="path531" fill="none" stroke="#FFFFFF" stroke-width="15" stroke-linecap="round" stroke-linejoin="round" stroke-miterlimit="10" d="
				M140.308-204.688L38.277-175.32l-11.35-39.432l102.031-29.368L140.308-204.688z"/>
		</g>
		<g id="g533" transform="translate(413.5,268.0522)">
			
				<path id="path535" fill="none" stroke="#FFFFFF" stroke-width="15" stroke-linecap="round" stroke-linejoin="round" stroke-miterlimit="10" d="
				M137.833,57.211l54.51-15.69"/>
		</g>
		<g id="g537" transform="translate(421.043,241.8457)">
			
				<path id="path539" fill="none" stroke="#FFFFFF" stroke-width="15" stroke-linecap="round" stroke-linejoin="round" stroke-miterlimit="10" d="
				M140.347,118.361l54.512-15.689"/>
		</g>
		<g id="g541" transform="translate(89.917,157.8887)">
			
				<path id="path543" fill="none" stroke="#FFFFFF" stroke-width="15" stroke-linecap="round" stroke-linejoin="round" stroke-miterlimit="10" d="
				M29.972,314.259l76.874-22.127"/>
		</g>
		<g id="g545" transform="translate(305.5283,236.9751)">
			
				<path id="path547" fill="none" stroke="#FFFFFF" stroke-width="15" stroke-linecap="round" stroke-linejoin="round" stroke-miterlimit="10" d="
				M101.842,129.726l22.127,76.873L68.061,222.69l-22.127-76.873L101.842,129.726z"/>
		</g>
		
			<path id="path549" fill="none" stroke="#FFFFFF" stroke-width="15" stroke-linecap="round" stroke-linejoin="round" stroke-miterlimit="10" d="
			M585.4,551.041H473.41v-39.271H585.4V551.041z"/>
		<g id="g551" transform="translate(317.8096,114.9702)">
			
				<path id="path553" fill="none" stroke="#FFFFFF" stroke-width="15" stroke-linecap="round" stroke-linejoin="round" stroke-miterlimit="10" d="
				M105.936,414.402H-1.893"/>
		</g>
		<g id="g555" transform="translate(111.0137,250.23)">
			
				<path id="path557" fill="none" stroke="#FFFFFF" stroke-width="15" stroke-linecap="round" stroke-linejoin="round" stroke-miterlimit="10" d="
				M37.004,98.797c0,0,152.731-53.042,170.9-58.271c18.17-5.229,38.584,13.109,38.584,13.109s-7.54,26.387-25.711,31.616
				c-18.169,5.23-175.728,41.5-175.728,41.5l-18.895,6.48L0.486,89.315L37.004,98.797z"/>
		</g>
	</g>
</g>
</svg>
