<svg id="Layer_1" enable-background="new 0 0 512 512" viewBox="0 0 512 512" xmlns="http://www.w3.org/2000/svg"><g id="Layer_2_00000127736869356276977400000010254600488177106082_"><g id="rupee"><path d="m298.1 512c-9.6 0-18.7-4-25.2-11l-192-206.8c-12.9-13.9-12.1-35.7 1.8-48.6 6.4-5.9 14.7-9.2 23.4-9.2h95c33 0 62.9-19.4 76.4-49.4h-139.6c-19-.3-34.2-16-33.8-35 .3-18.6 15.3-33.5 33.8-33.8h139.5c-13.6-30-43.4-49.3-76.3-49.3h-95c-19 0-34.4-15.4-34.4-34.4s15.4-34.4 34.4-34.4h299.7c19 0 34.4 15.4 34.4 34.4s-15.4 34.4-34.4 34.4h-77.2c9.9 15 17.1 31.7 21.1 49.3h56.2c19 .3 34.2 16 33.8 35-.3 18.6-15.3 33.5-33.8 33.8h-56.1c-16.1 69.2-77.7 118.2-148.7 118.3h-16l138.3 149c12.9 13.9 12.1 35.7-1.8 48.6-6.4 5.8-14.8 9.1-23.5 9.1z"/></g></g></svg>