<svg id="Layer_1" viewBox="0 0 64 64" xmlns="http://www.w3.org/2000/svg" data-name="Layer 1"><g fill="rgb(0,0,0)"><path d="m44.5 53h-21.5c-.08 0-.16 0-.24-.03-14.28-3.57-17.62-33.55-17.75-34.82 0-.04 0-.07 0-.11v-10.51c0-1.77.73-3.5 2-4.73 1.25-1.21 2.89-1.85 4.61-1.79 6.82.22 7.39 4.56 7.39 8.99s-2.17 7.46-3 8.4v3.2c4.56 4.84 9.92 16.77 11.5 20.41h17c3.03 0 5.5 2.47 5.5 5.5s-2.47 5.5-5.5 5.5zm-21.37-2h21.37c1.93 0 3.5-1.57 3.5-3.5s-1.57-3.5-3.5-3.5h-17.66c-.4 0-.76-.24-.92-.61-.69-1.62-6.87-15.93-11.63-20.69-.19-.19-.29-.44-.29-.71v-4c0-.27.11-.54.31-.73.02-.02 2.69-2.64 2.69-7.27s-.76-6.84-5.46-6.99c-1.19-.04-2.29.4-3.15 1.23-.89.86-1.39 2.06-1.39 3.29v10.46c.16 1.39 3.55 29.7 16.13 33.02z"/><path d="m42 37.96c-.55 0-1-.45-1-1v-1.65c0-1.27-1.09-2.31-2.42-2.31h-23.58c-.55 0-1-.45-1-1s.45-1 1-1h23.58c2.44 0 4.42 1.93 4.42 4.31v1.65c0 .55-.45 1-1 1z"/><path d="m35 25c-4.96 0-9-4.04-9-9v-6c0-4.96 4.04-9 9-9s9 4.04 9 9v6c0 4.96-4.04 9-9 9zm0-22c-3.86 0-7 3.14-7 7v6c0 3.86 3.14 7 7 7s7-3.14 7-7v-6c0-3.86-3.14-7-7-7z"/><path d="m27 9h16v2h-16z"/><path d="m35 15c-.55 0-1-.45-1-1v-4c0-.55.45-1 1-1s1 .45 1 1v4c0 .55-.45 1-1 1z"/><path d="m35 63c-.09 0-.18-.01-.28-.04-7.47-2.13-9.61-10.37-9.7-10.72-.13-.54.19-1.08.73-1.21.53-.13 1.08.19 1.21.72.02.07 1.96 7.47 8.3 9.28.53.15.84.71.69 1.24-.13.44-.53.73-.96.73z"/><path d="m58 63h-46c-.55 0-1-.45-1-1s.45-1 1-1h46c.55 0 1 .45 1 1s-.45 1-1 1z"/></g></svg>