<?xml version="1.0" encoding="utf-8"?>
<!-- Generator: Adobe Illustrator 16.0.0, SVG Export Plug-In . SVG Version: 6.00 Build 0)  -->
<!DOCTYPE svg PUBLIC "-//W3C//DTD SVG 1.1//EN" "http://www.w3.org/Graphics/SVG/1.1/DTD/svg11.dtd">
<svg version="1.1" id="Layer_1" xmlns="http://www.w3.org/2000/svg" xmlns:xlink="http://www.w3.org/1999/xlink" x="0px" y="0px"
	 width="682px" height="682px" viewBox="0 0 682 682" enable-background="new 0 0 682 682" xml:space="preserve">
<ellipse fill="#F7F5F5" cx="369.475" cy="353.476" rx="209.691" ry="204"/>
<g>
	<path fill="#E83719" d="M268.77,226.395c-19.497,0-32.246,12.804-32.246,29.632c0,16.456,12.369,29.625,31.498,29.625h0.37
		c19.879,0,32.25-13.168,32.25-29.625C300.271,239.199,288.271,226.395,268.77,226.395z"/>
	<path fill="#E83719" d="M239.893,309.066h57.002v171.49h-57.002V309.066z"/>
	<path fill="#E83719" d="M436.804,305.042c-30.749,0-51.369,28.895-51.369,28.895v-24.87h-57.001v171.49h56.999V384.79
		c0-5.127,0.372-10.246,1.878-13.912c4.121-10.236,13.498-20.844,29.245-20.844c20.626,0,28.876,15.728,28.876,38.781v91.741h56.996
		v-98.329C502.427,329.552,474.305,305.042,436.804,305.042z"/>
</g>
<ellipse fill="#F9F7F7" cx="368.75" cy="353.75" rx="209.75" ry="204.75"/>
<path fill="#E83719" d="M391.234,335.698l87.98-99.834h-20.848l-76.395,86.684l-61.016-86.684h-70.375l92.268,131.081
	l-92.268,104.692h20.85l80.676-91.543l64.437,91.543h70.374l-95.688-135.939H391.234z M362.678,368.1l-9.35-13.053l-74.384-103.862
	h32.024l60.029,83.82l9.349,13.054l78.031,108.952h-32.025l-63.674-88.906V368.1z"/>
</svg>
