<svg id="Layer_1" data-name="Layer 1" xmlns="http://www.w3.org/2000/svg" viewBox="0 0 487 487"><defs><style>.cls-1{fill:none;stroke:#828181;stroke-miterlimit:10;stroke-width:2px;}.cls-2,.cls-3{fill:#e83b18;}.cls-3{fill-rule:evenodd;}</style></defs><circle class="cls-1" cx="243.5" cy="243.5" r="242.5"/><g id="Icon"><circle class="cls-2" cx="231.44" cy="155.05" r="88.45"/><path class="cls-3" d="M270.88,412.89A100.43,100.43,0,0,1,272.1,274.7q-11.82-.92-24.14-.93c-53.43,0-100.73,13.37-130.09,33.39-22.41,15.28-34.76,34.69-34.76,55.07v23.32a27.35,27.35,0,0,0,27.34,27.34Z" transform="translate(-16.52 -16.41)"/><path class="cls-3" d="M344.45,260a84.44,84.44,0,1,0,84.44,84.44A84.47,84.47,0,0,0,344.45,260ZM305.6,358.49l24.12,16.09a12.08,12.08,0,0,0,15.22-1.51l40.2-40.21a12.05,12.05,0,0,0-17-17.05L334.87,349,319,338.42a12.06,12.06,0,1,0-13.38,20.07Z" transform="translate(-16.52 -16.41)"/></g></svg>