<?xml version="1.0" encoding="utf-8"?>
<!-- Generator: Adobe Illustrator 16.0.0, SVG Export Plug-In . SVG Version: 6.00 Build 0)  -->
<!DOCTYPE svg PUBLIC "-//W3C//DTD SVG 1.1//EN" "http://www.w3.org/Graphics/SVG/1.1/DTD/svg11.dtd">
<svg version="1.1" id="Layer_1" xmlns="http://www.w3.org/2000/svg" xmlns:xlink="http://www.w3.org/1999/xlink" x="0px" y="0px"
	 width="800px" height="600px" viewBox="0 0 800 600" enable-background="new 0 0 800 600" xml:space="preserve">
<g>
	<g>
		<g>
			<path fill="#EF6614" d="M672.723,302.517v-84.329c0-28.595-22.18-51.85-50.203-54.105L544.205,27.295
				c-7.257-12.651-18.977-21.693-32.999-25.448c-13.956-3.729-28.55-1.771-41.041,5.5L201.7,163.643h-47.151
				c-30.082,0-54.545,24.462-54.545,54.545v327.268c0,30.082,24.462,54.545,54.545,54.545h463.629
				c30.082,0,54.545-24.462,54.545-54.545v-84.329c15.838-5.647,27.272-20.642,27.272-38.396v-81.816
				C699.995,323.158,688.561,308.164,672.723,302.517z M590.829,163.643H471.977l89.141-51.897L590.829,163.643z M547.567,88.078
				l-129.793,75.564h-53.837l170.169-99.075L547.567,88.078z M483.894,30.917c6.166-3.609,13.369-4.568,20.255-2.729
				c6.965,1.864,12.771,6.365,16.38,12.664l0.028,0.05L309.737,163.643h-53.834L483.894,30.917z M645.45,545.455
				c0,15.034-12.238,27.271-27.272,27.271H154.549c-15.034,0-27.272-12.237-27.272-27.271V218.188
				c0-15.034,12.238-27.271,27.272-27.271h463.629c15.034,0,27.272,12.238,27.272,27.271v81.817h-81.817
				c-45.117,0-81.816,36.7-81.816,81.817s36.699,81.816,81.816,81.816h81.817V545.455L645.45,545.455z M672.723,422.729
				c0,7.523-6.111,13.637-13.637,13.637h-95.453c-30.082,0-54.545-24.462-54.545-54.545c0-30.082,24.462-54.545,54.545-54.545
				h95.453c7.523,0,13.637,6.112,13.637,13.637V422.729z"/>
			<path fill="#EF6614" d="M563.633,354.55c-15.033,0-27.271,12.237-27.271,27.271s12.238,27.271,27.271,27.271
				c15.034,0,27.272-12.237,27.272-27.271C590.906,366.787,578.668,354.55,563.633,354.55z"/>
		</g>
	</g>
</g>
</svg>
