<?xml version="1.0" encoding="utf-8"?>
<!-- Generator: Adobe Illustrator 16.0.0, SVG Export Plug-In . SVG Version: 6.00 Build 0)  -->
<!DOCTYPE svg PUBLIC "-//W3C//DTD SVG 1.1//EN" "http://www.w3.org/Graphics/SVG/1.1/DTD/svg11.dtd">
<svg version="1.1" id="Layer_1" xmlns="http://www.w3.org/2000/svg" xmlns:xlink="http://www.w3.org/1999/xlink" x="0px" y="0px"
	 width="682px" height="682px" viewBox="0 0 682 682" enable-background="new 0 0 682 682" xml:space="preserve">
<ellipse fill="#F9F7F7" cx="348.874" cy="350.375" rx="209.75" ry="204.75"/>
<path fill="#E83719" d="M381.106,366.157c-5.109,2.09-8.374,10.089-11.686,14.176c-1.698,2.095-3.724,2.422-6.334,1.373
	c-19.179-7.643-33.882-20.441-44.466-38.092c-1.792-2.736-1.471-4.898,0.691-7.44c3.196-3.764,7.214-8.042,8.079-13.114
	c1.919-11.222-12.751-46.032-32.126-30.26c-55.75,45.431,93.002,165.924,119.849,100.755
	C422.708,375.081,389.576,362.688,381.106,366.157z M348.875,461.793c-19.717,0-39.118-5.242-56.104-15.167
	c-2.727-1.598-6.022-2.02-9.07-1.192l-36.909,10.13l12.857-28.323c1.75-3.854,1.301-8.342-1.171-11.77
	c-13.753-19.064-21.026-41.571-21.026-65.096c0-61.441,49.982-111.423,111.423-111.423s111.418,49.982,111.418,111.423
	C460.293,411.811,410.311,461.793,348.875,461.793L348.875,461.793z M348.875,215.375c-74.44,0-135,60.56-135,135
	c0,26.188,7.436,51.337,21.563,73.164l-20.509,45.167c-1.893,4.171-1.202,9.054,1.761,12.53c2.278,2.662,5.574,4.139,8.976,4.139
	c7.604,0,49.069-13.031,59.621-15.926c19.507,10.437,41.386,15.926,63.587,15.926c74.435,0,135-60.565,135-135
	C483.875,275.935,423.31,215.375,348.875,215.375z"/>
</svg>
