<?xml version="1.0" encoding="UTF-8"?>
<svg version="1.1" xmlns="http://www.w3.org/2000/svg" width="512" height="512">
<path d="M0 0 C168.96 0 337.92 0 512 0 C512 168.96 512 337.92 512 512 C343.04 512 174.08 512 0 512 C0 343.04 0 174.08 0 0 Z " fill="#E32526" transform="translate(0,0)"/>
<path d="M0 0 C2.08203125 2.37109375 2.08203125 2.37109375 3.8125 5.4375 C4.39644531 6.44683594 4.98039062 7.45617187 5.58203125 8.49609375 C6.28392578 9.73552734 6.28392578 9.73552734 7 11 C7.495 11.495 7.495 11.495 8 12 C7.80042597 19.34795283 4.94699098 25.66253528 2.19421387 32.37130737 C-3.77875876 46.98043657 -8.33236728 61.63040091 -12 77 C-10.99839844 76.79503906 -9.99679688 76.59007812 -8.96484375 76.37890625 C-7.62241711 76.10666588 -6.27996799 75.8345364 -4.9375 75.5625 C-4.28072266 75.42779297 -3.62394531 75.29308594 -2.94726562 75.15429688 C3.58563512 73.83484402 10.00565923 72.84489005 16.6875 72.75 C18.33298828 72.71132812 18.33298828 72.71132812 20.01171875 72.671875 C23.38712851 73.04250823 24.7779314 73.42650936 27 76 C27.56353894 81.09717289 26.23168867 84.16345685 23.82421875 88.61328125 C23.4983931 89.22713181 23.17256744 89.84098236 22.83686829 90.47343445 C21.79863285 92.42624056 20.74446657 94.36977757 19.6875 96.3125 C18.30760842 98.86646774 16.93588781 101.42455041 15.57421875 103.98828125 C15.24976776 104.59890411 14.92531677 105.20952698 14.59103394 105.83865356 C12.18005432 110.4603455 10.42460012 114.99479574 9 120 C13.84317183 117.92536645 16.95996955 115.34115843 20.25 111.3125 C20.71817139 110.74724609 21.18634277 110.18199219 21.66870117 109.59960938 C30.7292113 98.37791856 37.99145941 85.77104037 43.0234375 72.25 C44.40873109 69.05828357 45.80349717 68.32029465 49 67 C52.56781689 66.49130736 55.80236469 66.28890404 59 68.1875 C60.30894168 70.55995679 60.21620175 72.3335118 60 75 C60.721875 74.2575 61.44375 73.515 62.1875 72.75 C63.115625 71.8425 64.04375 70.935 65 70 C65.763125 69.236875 66.52625 68.47375 67.3125 67.6875 C70.88359122 65.44518691 73.94850289 65.21660505 78 66 C81.55454648 67.74495918 83.44474795 68.8602721 85.1875 72.4375 C85 75 85 75 82.94140625 77.5078125 C79.58159701 80.35450346 76.969816 81.25230477 72.75 82.4375 C57.92713657 87.03262356 51.24518911 95.77997491 44.125 109.125 C41.42794763 114.82495604 39.7349343 120.90861317 38.62109375 127.109375 C38.09834549 129.684598 37.50375931 131.56035551 35.49609375 133.3125 C32.12198925 135.41129502 29.01887292 136.89308287 25 136 C22.88686932 133.79058759 22.05513998 132.48523183 21.70703125 129.421875 C21.74183594 128.54015625 21.77664062 127.6584375 21.8125 126.75 C21.85310547 125.41195312 21.85310547 125.41195312 21.89453125 124.046875 C21.92933594 123.37140625 21.96414062 122.6959375 22 122 C21.43152344 122.72445312 20.86304688 123.44890625 20.27734375 124.1953125 C7.51160769 140.17912226 7.51160769 140.17912226 -0.9375 141.4375 C-4 141 -4 141 -6.875 139.3125 C-10.70673245 133.3395053 -9.68750104 126.84795359 -8.4765625 120.0703125 C-5.3695372 108.47280221 0.68374954 97.70245158 6 87 C4.91460937 87.20496094 3.82921875 87.40992188 2.7109375 87.62109375 C1.26563115 87.89326183 -0.1796817 88.16539542 -1.625 88.4375 C-2.69427734 88.63956055 -2.69427734 88.63956055 -3.78515625 88.84570312 C-7.84995013 89.61018271 -11.91714075 90.33669637 -16 91 C-16.10957031 91.89976562 -16.21914062 92.79953125 -16.33203125 93.7265625 C-17.10558336 100.00302597 -17.89225589 106.27557208 -18.765625 112.5390625 C-18.89662598 113.47935303 -19.02762695 114.41964355 -19.16259766 115.38842773 C-19.42895653 117.29440597 -19.69685754 119.20016934 -19.96630859 121.10571289 C-20.65766018 126.09632501 -21.17672016 131.02696551 -21.4375 136.0625 C-21.69937204 139.49154142 -22.02384208 141.04676716 -23.625 144.1875 C-26.84810484 146.6472379 -28.95712169 147.07092769 -33 147 C-37.08309384 144.64087911 -38.59832337 142.41497265 -40 138 C-41.43470089 123.96995989 -38.74672161 109.21384665 -34 96 C-34.68102783 96.18175781 -35.36205566 96.36351562 -36.0637207 96.55078125 C-39.14564333 97.37101486 -42.22903886 98.18557005 -45.3125 99 C-46.38435547 99.28617187 -47.45621094 99.57234375 -48.56054688 99.8671875 C-50.10258789 100.27324219 -50.10258789 100.27324219 -51.67578125 100.6875 C-52.62364502 100.93886719 -53.57150879 101.19023437 -54.5480957 101.44921875 C-57 102 -57 102 -60 102 C-60.24105469 102.82371094 -60.48210937 103.64742188 -60.73046875 104.49609375 C-62.22085625 108.60956324 -64.20686924 112.23874741 -66.3125 116.0625 C-70.73672997 124.3116225 -74.7775122 132.71902705 -78.625 141.25 C-78.90251099 141.86512451 -79.18002197 142.48024902 -79.46594238 143.11401367 C-83.69027257 152.53747201 -87.37590627 162.08290228 -90.46533203 171.94433594 C-93.15153481 180.31887748 -93.15153481 180.31887748 -97 183 C-100.60029633 183.20001646 -102.84986703 182.85316209 -105.78515625 180.67578125 C-108.84099984 177.57659236 -110.18648367 175.40006632 -110.4609375 171.0078125 C-110.26427425 164.76805043 -107.707137 159.49569627 -105.1875 153.875 C-104.69701172 152.75005127 -104.20652344 151.62510254 -103.70117188 150.46606445 C-90.74919445 121.02093997 -90.74919445 121.02093997 -85 112 C-87.58390632 113.12369879 -90.16713708 114.24890752 -92.75 115.375 C-93.47960937 115.69210937 -94.20921875 116.00921875 -94.9609375 116.3359375 C-95.66992188 116.6453125 -96.37890625 116.9546875 -97.109375 117.2734375 C-98.08342285 117.69761963 -98.08342285 117.69761963 -99.07714844 118.13037109 C-100.42283209 118.73897002 -101.74705128 119.39628208 -103.05175781 120.08837891 C-105.8332361 121.38988767 -107.97215892 121.32211075 -111 121 C-113.03667615 119.45493534 -113.86073078 118.27853844 -115 116 C-115.34450111 112.9979189 -115.54476345 110.90353301 -115 108 C-108.37990882 99.82224031 -95.13402249 96.93386424 -85.4375 93.625 C-84.67598633 93.36211182 -83.91447266 93.09922363 -83.12988281 92.82836914 C-79.30692298 91.56325671 -76.08368367 90.6603669 -72 91 C-71.7225293 90.26458984 -71.44505859 89.52917969 -71.15917969 88.77148438 C-70.09153572 86.21885288 -68.90519245 84.00521356 -67.453125 81.65625 C-66.94523437 80.83294189 -66.43734375 80.00963379 -65.9140625 79.16137695 C-65.36492187 78.28312256 -64.81578125 77.40486816 -64.25 76.5 C-63.38761719 75.11590942 -63.38761719 75.11590942 -62.5078125 73.70385742 C-14.92158495 -2.22681816 -14.92158495 -2.22681816 0 0 Z " fill="#FEFAFA" transform="translate(150,163)"/>
<path d="M0 0 C3.37450079 2.29466054 5.06524386 6.51743896 7 10 C7.495 10.495 7.495 10.495 8 11 C8.97108552 18.5004796 6.10904154 24.52180628 3.26965332 31.31417847 C-2.95312789 46.25747964 -7.4046733 61.20347013 -11 77 C-10.01 76.67 -9.02 76.34 -8 76 C-6.33541327 75.90691456 -4.66718003 75.87003815 -3 75.875 C-2.13375 75.87242187 -1.2675 75.86984375 -0.375 75.8671875 C2 76 2 76 5 77 C5.3125 80.25 5.3125 80.25 5 84 C1.29557308 87.81668228 -2.16516858 88.78788198 -7.3125 89.75 C-8.56675781 89.99234375 -9.82101562 90.2346875 -11.11328125 90.484375 C-12.06589844 90.65453125 -13.01851563 90.8246875 -14 91 C-16.83781238 105.29439556 -19.63505763 119.47741372 -20.375 134.0625 C-20.76637591 139.27870683 -21.0894596 142.3902704 -25 146 C-27.77819328 147.16242397 -30.02657001 147.56636762 -33 147 C-36.15220922 144.65129509 -37.76250591 141.71248228 -39 138 C-39.60780159 129.95831736 -38.92326763 122.18658396 -37.6875 114.25 C-37.51105957 113.09951172 -37.51105957 113.09951172 -37.33105469 111.92578125 C-36.36205721 106.12666594 -34.79338154 100.59505701 -33 95 C-33.71655762 95.21205078 -34.43311523 95.42410156 -35.17138672 95.64257812 C-38.40510833 96.5978408 -41.64003101 97.54897053 -44.875 98.5 C-46.00292969 98.83386719 -47.13085938 99.16773438 -48.29296875 99.51171875 C-49.36933594 99.82753906 -50.44570313 100.14335937 -51.5546875 100.46875 C-52.54968262 100.76201172 -53.54467773 101.05527344 -54.56982422 101.35742188 C-57 102 -57 102 -59 102 C-59.27223389 102.7110791 -59.54446777 103.4221582 -59.82495117 104.15478516 C-61.01483956 107.03593191 -62.36389921 109.75762144 -63.80078125 112.5234375 C-70.36945079 125.31520662 -76.56370247 138.17377394 -82.125 151.4375 C-82.39422272 152.07427673 -82.66344543 152.71105347 -82.94082642 153.36712646 C-86.11509929 160.9008901 -88.85118412 168.36893007 -90.94091797 176.27758789 C-92.14877796 179.38243961 -93.38027773 180.95759255 -96 183 C-101.29133708 183 -104.23012825 181.65899317 -108 178 C-110.25817147 173.48365706 -109.61025416 167.29983844 -108.34570312 162.53417969 C-107.40800111 160.09348702 -106.36430141 157.74024914 -105.25 155.375 C-104.85603027 154.49763184 -104.46206055 153.62026367 -104.05615234 152.71630859 C-102.73236618 149.79683722 -101.37213937 146.89704919 -100 144 C-99.22994629 142.37288086 -99.22994629 142.37288086 -98.44433594 140.71289062 C-95.8564613 135.26688364 -93.24228185 129.83462458 -90.6015625 124.4140625 C-88.61401054 120.31888614 -86.7413822 116.20537877 -85 112 C-85.54414551 112.27263672 -86.08829102 112.54527344 -86.64892578 112.82617188 C-89.13501897 114.06313936 -91.62973893 115.28163939 -94.125 116.5 C-95.40890625 117.14388672 -95.40890625 117.14388672 -96.71875 117.80078125 C-104.90103382 121.76604187 -104.90103382 121.76604187 -110 121 C-113.18590992 118.36338489 -113.60403253 114.99047859 -114.27734375 111.09765625 C-113.83433015 107.74697593 -112.38815347 106.36227565 -110 104 C-107.33534144 102.40047231 -104.55222321 101.19614547 -101.6875 100 C-100.49785645 99.48735596 -100.49785645 99.48735596 -99.28417969 98.96435547 C-91.16095397 95.52585861 -82.60615657 92.06004737 -73.921875 90.41796875 C-69.39127978 88.21929754 -67.85953981 84.50235405 -65.5 80.1875 C-64.45242766 78.35938681 -63.40017811 76.53394745 -62.34375 74.7109375 C-61.79847656 73.76702148 -61.25320313 72.82310547 -60.69140625 71.85058594 C-17.00772114 -1.77105195 -17.00772114 -1.77105195 0 0 Z " fill="#FEFBFB" transform="translate(334,163)"/>
<path d="M0 0 C3.29207175 2.25926492 5.51299293 4.14773762 7.5 7.625 C9.46738564 10.74002726 11.67591367 11.55474507 15 13 C16 14 16 14 16.29296875 16.14453125 C15.90758319 19.90075582 14.25267985 22.54119231 12.3125 25.6875 C11.57757 26.92728644 10.84450482 28.16818016 10.11328125 29.41015625 C9.75314941 30.01746582 9.39301758 30.62477539 9.02197266 31.25048828 C7.60734039 33.67219272 6.28517661 36.13242404 5 38.625 C4.608125 39.38039063 4.21625 40.13578125 3.8125 40.9140625 C2.75803237 43.2481068 2.75803237 43.2481068 3 47 C7.7948614 46.58901188 10.02553287 44.52822431 13 41 C15.70668872 37.69743578 18.36855616 34.36276322 21 31 C22.65 31.33 24.3 31.66 26 32 C23.24307418 44.28085139 13.97016788 55.52079552 3.4375 62.25 C-1.54949858 64.78883564 -5.47853586 65.63398858 -11 65 C-12.9375 63.8125 -12.9375 63.8125 -14 62 C-14.36003006 60.33889578 -14.69619408 58.67230106 -15 57 C-15.49628906 57.44730469 -15.99257813 57.89460938 -16.50390625 58.35546875 C-30.12066904 70.47361248 -30.12066904 70.47361248 -39.00390625 70.26171875 C-42.46193984 69.80831709 -43.78045094 68.66345887 -46 66 C-47.27332573 62.72426686 -48.19742373 59.41910541 -49 56 C-49.31710937 56.46148437 -49.63421875 56.92296875 -49.9609375 57.3984375 C-55.57284703 65.24270883 -61.95804427 73.16989543 -71 77 C-75.08339824 77.49282393 -77.06490808 77.71362278 -80.375 75.1875 C-83.23477764 71.33779933 -83.53486334 67.62737826 -83 63 C-80.69756189 51.32840988 -74.70011853 40.9563794 -69.28613281 30.49609375 C-67.65350125 27.32752407 -66.0750305 24.13504936 -64.5 20.9375 C-59.26660108 10.3271028 -59.26660108 10.3271028 -54 8 C-50.19489054 7.4450882 -48.47081117 7.74956853 -45.0625 9.5625 C-43 12 -43 12 -43.12109375 15.1875 C-44.12087889 19.52434575 -45.72996338 22.65758534 -48 26.4375 C-48.39574219 27.12054199 -48.79148437 27.80358398 -49.19921875 28.50732422 C-50.45650491 30.6773327 -51.72737933 32.83895512 -53 35 C-54.67973463 37.86763788 -56.34345491 40.74392005 -58 43.625 C-58.57814453 44.6003772 -58.57814453 44.6003772 -59.16796875 45.59545898 C-61.35489279 49.39741063 -62.56964835 52.62924108 -63 57 C-57.99715462 54.02932963 -54.82671314 50.72496264 -51.3125 46.125 C-50.79776123 45.46733643 -50.28302246 44.80967285 -49.75268555 44.13208008 C-48.15991396 42.09453086 -46.5789873 40.04824259 -45 38 C-38.59518344 29.73346593 -32.15862527 21.639531 -25 14 C-24.44183594 13.36578125 -23.88367188 12.7315625 -23.30859375 12.078125 C-17.44355862 5.69018312 -9.04868333 -1.04984724 0 0 Z " fill="#FEF8F8" transform="translate(452,218)"/>
<path d="M0 0 C1.81752138 0.9109826 3.4040807 1.9197057 4.84765625 3.36328125 C5.54323793 10.20316775 5.54323793 10.20316775 3.73046875 13.2265625 C2.50996516 14.67116986 1.18491453 16.02602297 -0.15234375 17.36328125 C-2.52734375 17.17578125 -2.52734375 17.17578125 -5.15234375 16.36328125 C-6.46484375 13.80078125 -6.46484375 13.80078125 -7.15234375 11.36328125 C-12.66338696 10.89572169 -12.66338696 10.89572169 -17.65234375 12.80078125 C-19.89732067 16.63595016 -19.90391581 20.02845653 -19.15234375 24.36328125 C-17.52461993 27.51359657 -17.52461993 27.51359657 -15.15234375 30.36328125 C-11.29314964 35.38132685 -9.30519273 39.33562818 -9.671875 45.77734375 C-10.96391256 52.73123697 -14.44173818 58.80320916 -20.07421875 63.11328125 C-27.63257945 67.65966363 -35.6722936 69.86222524 -44.34765625 67.85546875 C-48.92669349 66.38544572 -51.66651323 64.63890975 -54.15234375 60.36328125 C-55.21484375 57.61328125 -55.21484375 57.61328125 -55.15234375 54.36328125 C-53.73934755 51.19442947 -52.02556653 48.28006413 -50.15234375 45.36328125 C-45.79781134 45.36328125 -45.2311076 45.71218878 -42.02734375 48.30078125 C-37.81748922 51.66072175 -35.68429097 52.70902795 -30.15234375 52.36328125 C-29.49234375 51.70328125 -28.83234375 51.04328125 -28.15234375 50.36328125 C-28.47032894 46.40834041 -29.89228321 43.87572273 -32.15234375 40.67578125 C-35.9567403 35.23439677 -36.71349778 32.00360398 -36.15234375 25.36328125 C-34.09059212 15.17683041 -28.40161994 7.79279302 -20.203125 1.67578125 C-14.68236427 -1.85750562 -6.18126028 -1.82857609 0 0 Z " fill="#FEFAFA" transform="translate(374.15234375,233.63671875)"/>
<path d="M0 0 C0.495 0.99 0.495 0.99 1 2 C0.26334192 4.04969717 -0.57028823 6.06453419 -1.4375 8.0625 C-5.29106548 17.23456532 -8.19253302 26.69487944 -11.16796875 36.1796875 C-11.64435791 37.65767822 -11.64435791 37.65767822 -12.13037109 39.16552734 C-12.68766324 40.98196804 -13.19090816 42.8164052 -13.62353516 44.66650391 C-15.07679482 50.40451325 -15.07679482 50.40451325 -17.68432617 52.08642578 C-19.79187071 52.82567175 -21.79750144 53.2605296 -24 53.625 C-24.72445312 53.78355469 -25.44890625 53.94210938 -26.1953125 54.10546875 C-29.57437575 54.79749093 -31.68496312 55.10501229 -35 54 C-24.15478115 35.32667249 -12.52263448 17.57902469 0 0 Z " fill="#E3292A" transform="translate(136,192)"/>
<path d="M0 0 C0.495 0.99 0.495 0.99 1 2 C0.07026405 4.77391613 -0.92924057 7.46798482 -2 10.1875 C-5.62954175 19.68192325 -8.62601539 29.31069626 -11.51953125 39.05078125 C-11.78523926 39.91316406 -12.05094727 40.77554688 -12.32470703 41.6640625 C-13.09024748 44.17541554 -13.09024748 44.17541554 -13.66796875 47.51953125 C-15 50 -15 50 -16.71411133 50.82836914 C-18.96651967 51.49740388 -21.18738448 51.96108359 -23.5 52.375 C-24.67755859 52.62056641 -24.67755859 52.62056641 -25.87890625 52.87109375 C-31.40959821 54 -31.40959821 54 -34 54 C-32.25307043 48.98136418 -29.5394947 44.59393502 -26.8125 40.0625 C-26.29292725 39.19729736 -25.77335449 38.33209473 -25.23803711 37.44067383 C-17.41610016 24.57744732 -8.7856622 12.21990587 0 0 Z " fill="#E32829" transform="translate(320,193)"/>
<path d="M0 0 C-0.50837525 5.82748664 -2.9022989 10.25186514 -5.625 15.3125 C-6.07721924 16.15973633 -6.52943848 17.00697266 -6.99536133 17.87988281 C-10.16901213 23.71692219 -13.49814971 29.0830855 -18 34 C-18.59683594 34.69867188 -19.19367188 35.39734375 -19.80859375 36.1171875 C-21.46385321 37.94687215 -22.99325533 39.56524906 -25 41 C-27.9375 40.9375 -27.9375 40.9375 -30 40 C-29.45962688 34.54480468 -27.5014079 30.49209046 -24.9375 25.75 C-24.33240601 24.62392334 -24.33240601 24.62392334 -23.71508789 23.47509766 C-19.05350289 15.00662767 -10.7549671 0 0 0 Z " fill="#E3292A" transform="translate(451,232)"/>
<path d="M0 0 C2.5 1 2.5 1 4 3 C4.62409557 7.75872869 4.49137775 9.99834537 2.375 14.3125 C-1.04584184 18.18345261 -4.02222824 19.72311195 -9.125 20.4375 C-12 20 -12 20 -14.375 18.5 C-16.23402328 15.63996418 -16.62613162 13.43679036 -16.4609375 10.03125 C-14.65816682 2.08683682 -7.47751817 -0.9177638 0 0 Z " fill="#FEF8F8" transform="translate(417,197)"/>
<path d="M0 0 C0.7734375 -0.01675781 1.546875 -0.03351563 2.34375 -0.05078125 C5.04520094 0.40435451 5.90000489 1.11250673 7.5 3.3125 C8.34759302 9.77539678 8.34759302 9.77539678 6.515625 13.09765625 C4.25021617 15.9434013 2.01453209 18.30834797 -1.5 19.3125 C-8.43336573 20.08757137 -8.43336573 20.08757137 -11.21484375 18.06640625 C-13.25323203 15.28453289 -13.02934887 12.88747661 -12.92578125 9.53515625 C-12.24669107 5.99018093 -10.28425724 4.44925556 -7.5 2.3125 C-4.40219052 0.24729368 -3.5459519 0.01772976 0 0 Z " fill="#FEFBFB" transform="translate(184.5,204.6875)"/>
<path d="M0 0 C1 2 1 2 0.3984375 4.27734375 C-2.37103746 11.47586455 -2.37103746 11.47586455 -5.625 14.1875 C-6.40875 14.455625 -7.1925 14.72375 -8 15 C-8.66 14.67 -9.32 14.34 -10 14 C-6.7 9.38 -3.4 4.76 0 0 Z " fill="#E43334" transform="translate(320,193)"/>
</svg>
