<?xml version="1.0" encoding="UTF-8"?>
<svg version="1.1" xmlns="http://www.w3.org/2000/svg" width="512" height="512">
<path d="M0 0 C168.96 0 337.92 0 512 0 C512 168.96 512 337.92 512 512 C343.04 512 174.08 512 0 512 C0 343.04 0 174.08 0 0 Z " fill="#FEFEFE" transform="translate(0,0)"/>
<path d="M0 0 C1.093125 0.61875 2.18625 1.2375 3.3125 1.875 C3.93511719 2.21917969 4.55773437 2.56335938 5.19921875 2.91796875 C15.08100315 9.22755604 20.60950766 20.90824509 23.65625 31.83984375 C25.43564064 40.06952547 25.52958817 48.11571041 25.5625 56.5 C25.583125 57.79035156 25.60375 59.08070313 25.625 60.41015625 C25.69509991 77.81245891 21.35558063 95.76745297 9.3125 108.875 C2.66724111 114.51097897 -2.55472178 117.2495375 -11.25390625 117.078125 C-20.35696576 116.31831907 -23.30770175 113.166198 -29.6875 105.875 C-30.0175 122.705 -30.3475 139.535 -30.6875 156.875 C-35.3075 156.875 -39.9275 156.875 -44.6875 156.875 C-44.6875 105.395 -44.6875 53.915 -44.6875 0.875 C-40.3975 0.875 -36.1075 0.875 -31.6875 0.875 C-31.3575 5.165 -31.0275 9.455 -30.6875 13.875 C-29.4190625 12.080625 -29.4190625 12.080625 -28.125 10.25 C-20.63993047 0.26399492 -12.47501144 -3.80593569 0 0 Z " fill="#E4204B" transform="translate(198.6875,192.125)"/>
<path d="M0 0 C11.56771117 8.09910649 16.61354465 18.63326999 20 32 C20.226875 32.88300781 20.45375 33.76601562 20.6875 34.67578125 C22.50204206 42.97983136 22.4142413 51.54177058 22 60 C21 61 21 61 18.71580505 61.12025452 C17.70542679 61.11803391 16.69504852 61.11581329 15.65405273 61.11352539 C14.5129454 61.11344986 13.37183807 61.11337433 12.19615173 61.11329651 C10.9545076 61.10813522 9.71286346 61.10297394 8.43359375 61.09765625 C6.53795433 61.09553383 6.53795433 61.09553383 4.60401917 61.09336853 C1.23875111 61.08870582 -2.1264499 61.0797148 -5.49169922 61.06866455 C-8.9234967 61.05844846 -12.35530109 61.05387049 -15.78710938 61.04882812 C-22.52475824 61.0377738 -29.26237525 61.0210171 -36 61 C-35.68804959 63.08567013 -35.37360574 65.17096742 -35.05810547 67.25610352 C-34.8832663 68.41739273 -34.70842712 69.57868195 -34.52828979 70.77516174 C-33.00837815 80.05315511 -30.60394689 88.94414203 -23.375 95.3125 C-18.24473215 98.95769031 -13.14018063 98.5552719 -7 98 C1.45834753 94.30908471 4.61937228 85.01333978 8 77 C12.29 77.33 16.58 77.66 21 78 C18.86582985 91.19305184 14.65872073 102.26895067 3.859375 110.6640625 C-4.34346738 115.65831007 -14.31499226 114.98461354 -23.51953125 113.62890625 C-31.85543504 111.16718314 -38.24334099 103.88640146 -42.39648438 96.56713867 C-53.48633191 75.2118999 -53.03474736 46.18740187 -45.93359375 23.609375 C-42.19981084 13.80049315 -35.60303695 3.68970911 -25.875 -1.03125 C-17.26955838 -4.25829061 -8.32517354 -4.00322281 0 0 Z " fill="#E4204B" transform="translate(325,193)"/>
<path d="M0 0 C11.0062174 6.2334278 16.46722871 17.25055839 20 29 C22 39 22 39 22 61 C3.19 61 -15.62 61 -35 61 C-33.18371882 79.6316894 -33.18371882 79.6316894 -24 95 C-18.46513013 99.20871136 -12.66600953 98.69858433 -6 98 C0.19082417 95.74879121 2.03827882 90.63903616 4.703125 84.97265625 C5.8530783 82.33676932 6.93195038 79.67012406 8 77 C12.29 77.33 16.58 77.66 21 78 C20.82555743 89.51320946 15.7780193 99.60259785 8 108 C5.68359375 109.64453125 5.68359375 109.64453125 3.4375 110.8125 C2.69371094 111.21082031 1.94992188 111.60914063 1.18359375 112.01953125 C-6.202928 115.33619844 -16.83357423 115.33351698 -24.6484375 113.31640625 C-26.63170195 112.37180796 -28.26066385 111.33795089 -30 110 C-30.598125 109.5875 -31.19625 109.175 -31.8125 108.75 C-41.39835138 101.47797482 -46.39125517 88.70221734 -48.58984375 77.18945312 C-49.40034617 70.88683189 -49.37187252 64.55321268 -49.37060547 58.20654297 C-49.37496693 55.7684882 -49.41135198 53.33226604 -49.44921875 50.89453125 C-49.56844429 34.37345804 -45.8873137 17.166599 -34.1015625 4.7578125 C-23.90709033 -3.76916236 -12.02648418 -5.82498221 0 0 Z " fill="#E4204B" transform="translate(54,193)"/>
<path d="M0 0 C3.12413796 2.04542384 4.1490334 4.93657403 5.84545898 8.20825195 C-3.51470841 14.17234965 -13.08584423 19.47754179 -22.96704102 24.52075195 C-23.68154419 24.88720825 -24.39604736 25.25366455 -25.13220215 25.63122559 C-42.10073923 34.32638597 -59.22832058 42.65828679 -77.15454102 49.20825195 C-78.69856138 49.82741448 -80.24027514 50.45236237 -81.77954102 51.08325195 C-89.12131177 54.03918584 -96.57556534 56.70382948 -104.0090332 59.41821289 C-105.7421365 60.05639249 -107.46892517 60.71170501 -109.19360352 61.37231445 C-115.41767073 63.74247008 -121.74485594 65.55909522 -128.17236328 67.28295898 C-132.52158098 68.452901 -136.81084351 69.73486916 -141.09985352 71.1105957 C-149.34155529 73.66596694 -157.72704861 75.45249161 -166.15454102 77.27075195 C-168.49336857 77.7807018 -170.83185246 78.29220266 -173.17027283 78.80401611 C-174.69566627 79.13734662 -176.22135086 79.46934764 -177.74732971 79.79998779 C-182.13564914 80.75315541 -186.50393926 81.76747268 -190.86938477 82.8215332 C-197.76301025 84.4235577 -204.70495635 85.40719745 -211.71704102 86.33325195 C-212.94100586 86.50211914 -214.1649707 86.67098633 -215.42602539 86.8449707 C-229.24446126 88.71292318 -242.82777948 89.44568122 -256.76000977 89.50341797 C-258.67544979 89.51488864 -260.5908591 89.53526168 -262.50610352 89.56494141 C-291.52365834 90.01209553 -319.42231691 83.6697763 -341.15454102 63.20825195 C-346.59674548 57.35132273 -352.26060273 50.77573424 -355.15454102 43.20825195 C-354.82454102 42.54825195 -354.49454102 41.88825195 -354.15454102 41.20825195 C-353.59766602 42.06547852 -353.04079102 42.92270508 -352.46704102 43.8059082 C-340.38518177 62.06893533 -323.50240094 71.03518766 -302.27954102 75.89575195 C-299.90880255 76.355785 -297.53355903 76.79315612 -295.15454102 77.20825195 C-294.0034082 77.41450195 -292.85227539 77.62075195 -291.66625977 77.83325195 C-270.56919355 81.04125357 -249.1235619 79.57655634 -228.15454102 76.20825195 C-226.57745361 75.95881836 -226.57745361 75.95881836 -224.96850586 75.7043457 C-196.33138224 71.08752327 -167.83603202 64.90147814 -140.15454102 56.20825195 C-138.60001223 55.72726994 -137.04533235 55.24677592 -135.49047852 54.7668457 C-132.91953573 53.97026829 -130.35261216 53.16379133 -127.78735352 52.34887695 C-125.02415256 51.48129128 -122.25805958 50.65355634 -119.47875977 49.84106445 C-113.51943501 48.05913161 -107.6865815 45.95723474 -101.84204102 43.83325195 C-100.80370117 43.45942383 -99.76536133 43.0855957 -98.69555664 42.70043945 C-85.87373964 38.0639434 -73.25914844 33.06962543 -60.77954102 27.58325195 C-59.73789291 27.12638 -59.73789291 27.12638 -58.67520142 26.66027832 C-44.14650639 20.28043878 -29.59392373 13.85109092 -15.66235352 6.2355957 C-14.34811401 5.52064941 -14.34811401 5.52064941 -13.00732422 4.79125977 C-11.35908212 3.88579587 -9.718939 2.96536865 -8.08886719 2.02758789 C-7.36417236 1.62701172 -6.63947754 1.22643555 -5.89282227 0.8137207 C-5.2641626 0.45431396 -4.63550293 0.09490723 -3.98779297 -0.27539062 C-2.15454102 -0.79174805 -2.15454102 -0.79174805 0 0 Z " fill="#E4214C" transform="translate(361.154541015625,293.791748046875)"/>
<path d="M0 0 C5.28 0 10.56 0 16 0 C18.26230122 4.92870698 20.52258694 9.85833123 22.78100586 14.78881836 C23.54965711 16.4661559 24.31885953 18.14324097 25.08862305 19.82006836 C26.19464632 22.22964452 27.29868748 24.64012019 28.40234375 27.05078125 C28.74716293 27.80087967 29.09198212 28.55097809 29.44725037 29.32380676 C30.75856839 32.19206367 32.00184119 35.00552357 33 38 C39.40490324 25.51222777 45.25696964 12.80413327 51 0 C56.28 0 61.56 0 67 0 C65.80081906 3.59754283 64.73685236 6.77810675 63.16821289 10.15014648 C62.81767349 10.90790878 62.46713409 11.66567108 62.10597229 12.44639587 C61.731978 13.24654617 61.3579837 14.04669647 60.97265625 14.87109375 C60.38828041 16.13192528 60.38828041 16.13192528 59.792099 17.41822815 C58.55190879 20.09272812 57.30742057 22.76519907 56.0625 25.4375 C54.82191544 28.10657799 53.58225486 30.77608024 52.34361267 33.44606018 C51.57469961 35.10286315 50.80455592 36.75909573 50.03297424 38.41465759 C49.33584681 39.91442293 48.64360324 41.4164714 47.95706177 42.92111206 C47.33642849 44.26922467 46.69825985 45.60945469 46.0397644 46.93948364 C44.21342644 50.77476105 43.58357532 52.97024279 45 57 C46.05897834 59.60987264 47.15442928 62.16760451 48.31640625 64.73046875 C48.65115463 65.47976151 48.98590302 66.22905426 49.33079529 67.00105286 C50.40323643 69.39871719 51.48268509 71.79314883 52.5625 74.1875 C53.26154381 75.7465314 53.96011561 77.30577454 54.65820312 78.86523438 C58.9665575 88.48321732 58.9665575 88.48321732 63.31201172 98.08447266 C64.0505499 99.71903297 64.78899705 101.35363443 65.52734375 102.98828125 C65.87624161 103.74884323 66.22513947 104.50940521 66.58460999 105.29301453 C69 110.66072242 69 110.66072242 69 114 C64.05 114 59.1 114 54 114 C50.62203954 106.78344811 47.25499273 99.56310511 43.93359375 92.3203125 C43.39895508 91.15612793 42.86431641 89.99194336 42.31347656 88.79248047 C41.23650796 86.44611194 40.16160977 84.09879192 39.08886719 81.75048828 C38.5890332 80.6623584 38.08919922 79.57422852 37.57421875 78.453125 C36.90265747 76.98601074 36.90265747 76.98601074 36.2175293 75.48925781 C34.99215449 72.84446311 34.99215449 72.84446311 33 70 C30.47150886 75.4618913 27.94470053 80.92455672 25.41943359 86.38793945 C24.56051856 88.24557407 23.70114785 90.10299807 22.84130859 91.96020508 C21.60393716 94.63307043 20.36821807 97.30669431 19.1328125 99.98046875 C18.74940704 100.80773972 18.36600159 101.63501068 17.97097778 102.48735046 C17.61075531 103.26778214 17.25053284 104.04821381 16.87939453 104.85229492 C16.40640427 105.87488655 16.40640427 105.87488655 15.92385864 106.9181366 C14.88794493 109.25250979 13.94849539 111.62876153 13 114 C7.72 114 2.44 114 -3 114 C-0.37363627 105.04005914 3.72490142 96.83137019 7.75 88.4375 C10.17691824 83.35980512 12.59330534 78.27745628 14.97924805 73.18035889 C15.67009119 71.7046958 16.36369454 70.23032231 17.05981445 68.75714111 C18.0805888 66.58541821 19.08181692 64.4056929 20.078125 62.22265625 C20.54372833 61.24189369 20.54372833 61.24189369 21.01873779 60.24131775 C22.7605925 56.36116981 23.43396019 54.03333111 22 50 C20.9203897 47.47175156 19.80442818 45.00535311 18.61328125 42.53125 C18.27378952 41.81449097 17.93429779 41.09773193 17.58451843 40.35925293 C16.49905571 38.07031643 15.40603107 35.78509119 14.3125 33.5 C13.59647841 31.99504219 12.88097877 30.48983593 12.16601562 28.984375 C11.81546112 28.24646729 11.46490662 27.50855957 11.10372925 26.74829102 C9.72744967 23.85045723 8.35125987 20.95258128 6.97613525 18.05419922 C6.33614261 16.70738546 5.69455578 15.36132783 5.0512085 14.01611328 C4.18888806 12.21123232 3.33444898 10.40259206 2.48046875 8.59375 C1.75766724 7.07297852 1.75766724 7.07297852 1.02026367 5.52148438 C0 3 0 3 0 0 Z " fill="#E41F4A" transform="translate(78,194)"/>
<path d="M0 0 C8.34535102 5.45002515 12.47776858 13.05948695 14.66699219 22.68066406 C17.18341465 37.43746247 16.30185299 55.80460364 7.42578125 68.41796875 C4.35537161 71.98105157 0.7392205 75.70633102 -4.109375 76.23828125 C-9.95596537 76.40659218 -13.36942863 76.02425335 -17.9375 72 C-28.68442391 60.62090409 -28.51464547 45.24614788 -28.24609375 30.49609375 C-27.80736072 19.73166047 -24.31229864 11.82225833 -16.9375 4 C-11.64946054 -0.8073086 -6.95101599 -2.36630332 0 0 Z " fill="#FEFCFC" transform="translate(195.9375,212)"/>
<path d="M0 0 C8.51164674 5.00945876 12.86656343 11.13761251 15.5625 20.51171875 C16.25 24.32421875 16.25 24.32421875 15.25 29.32421875 C9.31 29.81921875 9.31 29.81921875 3.25 30.32421875 C2.8375 28.94234375 2.425 27.56046875 2 26.13671875 C0.31644599 21.12539209 -1.83578133 17.95693468 -5.875 14.51171875 C-11.22680668 12.30118991 -17.18219443 12.47854777 -22.625 14.44921875 C-26.40493003 16.71717677 -27.89530889 18.31808594 -29.75 22.32421875 C-30.56557102 27.0158541 -30.38209334 30.14149517 -28.11328125 34.38671875 C-25.4346715 37.71616426 -23.28630511 39.01301635 -19.4375 40.82421875 C-18.52750244 41.26012329 -18.52750244 41.26012329 -17.59912109 41.70483398 C-13.1060249 43.8168307 -8.50916858 45.61256426 -3.875 47.38671875 C3.76858111 50.32543299 10.87990146 54.10405594 15.25 61.32421875 C15.06741574 64.26382541 14.25901379 65.31450486 12.23828125 67.4921875 C9.23209779 69.76108801 6.87624933 71.25312019 3.25 72.32421875 C-1.29358179 71.07172042 -5.00676492 68.79030428 -8.97705078 66.33886719 C-11.71286732 64.77317543 -14.60001379 63.75700263 -17.5625 62.69921875 C-27.43804118 58.99139102 -35.83040114 54.96813396 -40.84765625 45.18359375 C-44.15785921 36.13057357 -44.45039275 23.86125155 -41.1875 14.76171875 C-37.51227451 7.23198848 -32.31362239 1.62590232 -24.62109375 -1.828125 C-16.43720953 -4.24431939 -7.71371885 -3.61580571 0 0 Z " fill="#E41F4A" transform="translate(401.75,193.67578125)"/>
<path d="M0 0 C25.02483542 9.40755329 25.02483542 9.40755329 30.12890625 19.23828125 C34.61334689 29.61893089 34.01813301 42.99340033 29.88671875 53.4375 C26.29878434 60.71365271 21.91475374 65.36641487 14.62890625 68.98828125 C13.901875 69.35308594 13.17484375 69.71789062 12.42578125 70.09375 C4.47638769 72.63622364 -6.55096375 72.43924617 -14.12109375 68.92578125 C-23.22313473 63.28376269 -26.9553406 54.93316257 -30.37109375 44.98828125 C-31.00668225 41.89757638 -31.26200444 39.15187113 -31.37109375 35.98828125 C-27.03375389 34.68707929 -22.85400377 33.69310138 -18.37109375 32.98828125 C-18.16355469 33.92929687 -17.95601563 34.8703125 -17.7421875 35.83984375 C-15.55510138 45.15365542 -15.55510138 45.15365542 -9.16015625 51.9453125 C-8.56976563 52.28949219 -7.979375 52.63367188 -7.37109375 52.98828125 C-5.88609375 53.91640625 -5.88609375 53.91640625 -4.37109375 54.86328125 C0.7924593 56.79961364 4.82679328 56.57574415 9.81640625 54.36328125 C14.62214207 51.74620418 16.91293022 48.13620934 18.62890625 42.98828125 C19.05316857 37.57893665 19.15001782 32.32526013 15.62890625 27.98828125 C11.53004314 25.48700652 7.25677054 23.66996721 2.81054688 21.87792969 C-0.20112366 20.64980442 -3.16879116 19.3282848 -6.1418457 18.01000977 C-9.21056119 16.65147645 -12.29067222 15.32002722 -15.37109375 13.98828125 C-13.77657691 10.00665148 -11.16168848 7.57732179 -8.05859375 4.67578125 C-7.11371094 3.77214844 -6.16882813 2.86851562 -5.1953125 1.9375 C-2.37109375 -0.01171875 -2.37109375 -0.01171875 0 0 Z " fill="#E41F4A" transform="translate(461.37109375,237.01171875)"/>
<path d="M0 0 C4.29 0 8.58 0 13 0 C13.33 3.63 13.66 7.26 14 11 C14.886875 9.741875 15.77375 8.48375 16.6875 7.1875 C21.13135027 1.3755199 21.13135027 1.3755199 25 0 C30.22933491 -0.63361573 35.16384485 -1.02654071 39.6875 2 C40.450625 2.66 41.21375 3.32 42 4 C41.50130596 9.36891879 40.97772468 14.69235173 40 20 C38.989375 19.67 37.97875 19.34 36.9375 19 C32.10136436 17.651744 27.94042746 16.93738496 23.375 19.4375 C16.22349409 27.15359848 13.78886717 36.26875202 13.68115234 46.609375 C13.67110672 47.32255386 13.6610611 48.03573273 13.65071106 48.77052307 C13.62014456 51.09700815 13.60291891 53.42337963 13.5859375 55.75 C13.56720441 57.3752539 13.54762943 59.0004983 13.5272522 60.62573242 C13.47615094 64.88021208 13.43640819 69.1347232 13.39910889 73.38934326 C13.35893045 77.74010865 13.30790158 82.09074567 13.2578125 86.44140625 C13.16131414 94.96084947 13.07682681 103.48035677 13 112 C8.71 112 4.42 112 0 112 C0 75.04 0 38.08 0 0 Z " fill="#E41C48" transform="translate(233,195)"/>
<path d="M0 0 C5.49923749 -0.07411371 10.99818479 -0.12858464 16.49780273 -0.16479492 C18.36894799 -0.17988873 20.24005783 -0.20036589 22.11108398 -0.22631836 C24.79940526 -0.26267593 27.48725913 -0.27972015 30.17578125 -0.29296875 C31.43217155 -0.31619453 31.43217155 -0.31619453 32.71394348 -0.33988953 C38.55978196 -0.3415865 38.55978196 -0.3415865 40.75163269 1.35917664 C42 3 42 3 41.89453125 5.59375 C40.73757033 9.99929551 39.27075978 14.23150507 37.6875 18.5 C37.39166016 19.32886719 37.09582031 20.15773437 36.79101562 21.01171875 C34.91076165 26.12048656 32.92407637 31.07592363 29 35 C25.97022196 35.08871273 22.96332978 35.1151935 19.93359375 35.09765625 C19.02497086 35.0962413 18.11634796 35.09482635 17.18019104 35.09336853 C14.26592779 35.08775193 11.35174019 35.07519665 8.4375 35.0625 C6.46679798 35.05748714 4.49609476 35.05292386 2.52539062 35.04882812 C-2.31643559 35.03777711 -7.15820495 35.02050138 -12 35 C-11.38404218 30.39717094 -10.16273187 26.39974025 -8.49609375 22.0703125 C-8.13198143 21.11751907 -8.13198143 21.11751907 -7.76051331 20.14547729 C-6.99143407 18.13658597 -6.21461315 16.13079531 -5.4375 14.125 C-4.91159295 12.75540652 -4.38619716 11.38561661 -3.86132812 10.015625 C-2.58012222 6.67479163 -1.29196034 3.33669147 0 0 Z " fill="#E4224D" transform="translate(236,129)"/>
<path d="M0 0 C0.74886475 0.00523682 1.49772949 0.01047363 2.26928711 0.01586914 C3.07817383 0.0190918 3.88706055 0.02231445 4.72045898 0.02563477 C5.5705957 0.03401367 6.42073242 0.04239258 7.29663086 0.05102539 C8.15063477 0.05553711 9.00463867 0.06004883 9.88452148 0.06469727 C12.00108749 0.07652166 14.11761771 0.0944577 16.23413086 0.11352539 C17.55413086 3.74352539 18.87413086 7.37352539 20.23413086 11.11352539 C22.38679928 8.96085697 23.16887548 7.26578795 24.35913086 4.48852539 C24.97788086 3.04477539 25.59663086 1.60102539 26.23413086 0.11352539 C31.18413086 0.11352539 36.13413086 0.11352539 41.23413086 0.11352539 C38.97323327 7.94252352 36.33706274 15.58375214 33.54663086 23.23852539 C33.1309082 24.38579102 32.71518555 25.53305664 32.28686523 26.71508789 C31.27173229 29.51545464 30.25327566 32.31461619 29.23413086 35.11352539 C22.96413086 35.11352539 16.69413086 35.11352539 10.23413086 35.11352539 C7.23413086 26.11352539 7.23413086 26.11352539 7.23413086 23.11352539 C6.57413086 23.11352539 5.91413086 23.11352539 5.23413086 23.11352539 C5.13100586 23.79415039 5.02788086 24.47477539 4.92163086 25.17602539 C4.08688067 28.74268528 2.73940332 31.77574733 1.23413086 35.11352539 C-3.71586914 35.11352539 -8.66586914 35.11352539 -13.76586914 35.11352539 C-11.71182674 27.27199244 -9.3304575 19.63365566 -6.64086914 11.98852539 C-6.2812207 10.94954102 -5.92157227 9.91055664 -5.55102539 8.84008789 C-2.51820031 0.16189177 -2.51820031 0.16189177 0 0 Z " fill="#E4214C" transform="translate(187.765869140625,128.886474609375)"/>
<path d="M0 0 C5.37515933 -0.02467759 10.75028585 -0.04284928 16.12548828 -0.05493164 C17.95492121 -0.05996737 19.78435009 -0.06679627 21.61376953 -0.07543945 C24.23991898 -0.08753824 26.86601532 -0.09323583 29.4921875 -0.09765625 C30.31306854 -0.10281754 31.13394958 -0.10797882 31.97970581 -0.11329651 C37.77225659 -0.11387171 37.77225659 -0.11387171 40 1 C40.71606468 8.44707268 38.57163893 14.46037942 35 21 C32 23 32 23 29 23 C30.98 26.63 32.96 30.26 35 34 C29.06 34 23.12 34 17 34 C15.35 31.03 13.7 28.06 12 25 C9.64856825 28.39277666 9.64856825 28.39277666 7 34 C1.06 34 -4.88 34 -11 34 C-9.56409727 26.77537947 -7.40488486 19.99677838 -4.9375 13.0625 C-4.57333984 12.02287109 -4.20917969 10.98324219 -3.83398438 9.91210938 C-1.16567651 2.33135302 -1.16567651 2.33135302 0 0 Z " fill="#E41F4A" transform="translate(90,130)"/>
<path d="M0 0 C1.29349365 0.00523682 2.5869873 0.01047363 3.91967773 0.01586914 C4.9496714 0.01799156 4.9496714 0.01799156 6.00047302 0.02015686 C8.20144949 0.0257706 10.40232557 0.03832532 12.60327148 0.05102539 C14.09220231 0.05603863 15.58113473 0.06060184 17.07006836 0.06469727 C20.72700223 0.07574446 24.38387707 0.09301826 28.04077148 0.11352539 C26.8010804 8.41178055 25.44252667 16.67589273 23.91577148 24.92602539 C23.73401367 25.91666992 23.55225586 26.90731445 23.36499023 27.92797852 C22.92523905 30.32346523 22.48325282 32.71854147 22.04077148 35.11352539 C16.43077148 35.11352539 10.82077148 35.11352539 5.04077148 35.11352539 C5.37077148 33.46352539 5.70077148 31.81352539 6.04077148 30.11352539 C3.07077148 30.11352539 0.10077148 30.11352539 -2.95922852 30.11352539 C-3.94922852 32.58852539 -3.94922852 32.58852539 -4.95922852 35.11352539 C-10.56922852 35.11352539 -16.17922852 35.11352539 -21.95922852 35.11352539 C-20.30494898 30.97782656 -18.45253808 27.19070417 -16.29907227 23.31665039 C-15.94913712 22.6824115 -15.59920197 22.04817261 -15.23866272 21.39471436 C-14.50294552 20.06274902 -13.76581424 18.73156387 -13.02734375 17.40112305 C-11.8936552 15.35798665 -10.76498435 13.31213879 -9.63696289 11.26586914 C-8.92045914 9.97013409 -8.20367228 8.67455554 -7.48657227 7.37915039 C-7.14802719 6.76565735 -6.80948212 6.15216431 -6.4606781 5.52008057 C-3.46541614 0.13294435 -3.46541614 0.13294435 0 0 Z " fill="#E4214C" transform="translate(318.959228515625,128.886474609375)"/>
<path d="M0 0 C10.23 0 20.46 0 31 0 C29.97437745 8.67834461 28.85277342 17.31380205 27.4375 25.9375 C27.31076904 26.72431152 27.18403809 27.51112305 27.0534668 28.32177734 C26.12162677 33.87837323 26.12162677 33.87837323 25 35 C22.13732433 35.07325168 19.299281 35.09238205 16.4375 35.0625 C15.63119141 35.05798828 14.82488281 35.05347656 13.99414062 35.04882812 C11.99606244 35.03700518 9.99802217 35.01906914 8 35 C8.33 33.35 8.66 31.7 9 30 C4.92584936 30.17173709 4.92584936 30.17173709 1 31 C0.34 32.32 -0.32 33.64 -1 35 C-6.61 35 -12.22 35 -18 35 C-16.5394722 30.61841661 -15.30510256 27.47933959 -13.06640625 23.59375 C-12.49986328 22.60246094 -11.93332031 21.61117187 -11.34960938 20.58984375 C-10.46499023 19.06037109 -10.46499023 19.06037109 -9.5625 17.5 C-8.39580481 15.46951397 -7.23040059 13.43828552 -6.06640625 11.40625 C-5.55021729 10.51228516 -5.03402832 9.61832031 -4.50219727 8.69726562 C-2.91381758 5.84525543 -1.45992549 2.91985098 0 0 Z " fill="#E4214C" transform="translate(23,129)"/>
<path d="M0 0 C3.59380876 2.54492448 5.97476905 5.23383722 8.54296875 8.80078125 C7.12723054 12.19265404 5.50065909 13.89775666 2.54296875 16.05078125 C1.84171875 16.5715625 1.14046875 17.09234375 0.41796875 17.62890625 C-1.45703125 18.80078125 -1.45703125 18.80078125 -3.45703125 18.80078125 C-4.22015625 18.01703125 -4.98328125 17.23328125 -5.76953125 16.42578125 C-9.80792378 12.48130483 -12.86440852 11.68241868 -18.39453125 11.42578125 C-23.15460538 11.5320329 -25.84703862 12.54298302 -29.45703125 15.80078125 C-32.64302178 19.5177702 -32.91515686 22.85930532 -32.75 27.5859375 C-32.11477537 32.38823571 -29.85421994 35.54633158 -26.45703125 38.80078125 C-28.38812003 40.30972504 -30.32609131 41.80789659 -32.26953125 43.30078125 C-32.81673828 43.73003906 -33.36394531 44.15929687 -33.92773438 44.6015625 C-38.1171875 47.80078125 -38.1171875 47.80078125 -41.45703125 47.80078125 C-46.60289834 37.9317433 -48.33436384 28.57694061 -45.6875 17.61328125 C-42.71022358 8.88310019 -38.47640991 2.53820779 -30.45703125 -2.19921875 C-20.20601328 -6.35657604 -9.52791879 -5.38758161 0 0 Z " fill="#E4214C" transform="translate(478.45703125,195.19921875)"/>
<path d="M0 0 C7.33286376 5.41235183 10.8521239 11.97926135 12.625 20.9375 C12.625 24.2375 12.625 27.5375 12.625 30.9375 C-1.565 30.9375 -15.755 30.9375 -30.375 30.9375 C-30.375 19.09858831 -27.67788475 10.22725382 -19.375 1.5625 C-13.82118751 -3.00769991 -6.48770436 -2.04242545 0 0 Z " fill="#FEFBFC" transform="translate(49.375,207.0625)"/>
<path d="M0 0 C5.25376034 2.55651731 8.41600223 7.25761868 10.875 12.4140625 C12.92769929 18.86540312 13.875 24.63079362 13.875 31.4140625 C-0.315 31.4140625 -14.505 31.4140625 -29.125 31.4140625 C-29.125 20.77336706 -28.19002551 13.27146823 -21.625 4.8515625 C-15.36357594 -1.25332596 -8.42352347 -2.32266272 0 0 Z " fill="#FEFCFC" transform="translate(319.125,206.5859375)"/>
<path d="M0 0 C0.76508992 10.79626881 -1.28985206 20.73988352 -8.29296875 29.25 C-14.44572341 35.55762949 -20.50139759 39.21044265 -29.38476562 39.37915039 C-30.16529297 39.37778076 -30.94582031 39.37641113 -31.75 39.375 C-32.55115234 39.37556396 -33.35230469 39.37612793 -34.17773438 39.37670898 C-40.1814577 39.26496352 -44.86930555 38.25903805 -50 35 C-50.66 34.67 -51.32 34.34 -52 34 C-52 33.34 -52 32.68 -52 32 C-38.44945455 23.25267383 -38.44945455 23.25267383 -30.24609375 23.953125 C-26.19312872 24.03770862 -23.12294495 22.49835596 -20 20 C-17.55283648 17.02931393 -15.24674584 13.89919529 -14.7421875 10.015625 C-13.53289012 6.7314279 -10.94174454 5.59874203 -8.0625 3.75 C-6.98097656 3.04359375 -5.89945312 2.3371875 -4.78515625 1.609375 C-2 0 -2 0 0 0 Z " fill="#E4224C" transform="translate(421,269)"/>
<path d="M0 0 C6.27 0 12.54 0 19 0 C17.26697976 5.19906072 15.53321131 10.38972389 13.73828125 15.56640625 C13.34189453 16.71044922 12.94550781 17.85449219 12.53710938 19.03320312 C11.93092773 20.78020508 11.93092773 20.78020508 11.3125 22.5625 C10.89677734 23.76197266 10.48105469 24.96144531 10.05273438 26.19726562 C9.03562862 29.13167419 8.01787988 32.06585987 7 35 C0.73 35 -5.54 35 -12 35 C-9.91787123 26.88037164 -7.31571617 19.13427354 -4.3125 11.3125 C-3.89677734 10.21744141 -3.48105469 9.12238281 -3.05273438 7.99414062 C-2.03971612 5.32769027 -1.02050893 2.6635925 0 0 Z " fill="#E5244E" transform="translate(65,129)"/>
<path d="M0 0 C0.74886475 0.00523682 1.49772949 0.01047363 2.26928711 0.01586914 C3.07817383 0.0190918 3.88706055 0.02231445 4.72045898 0.02563477 C5.5705957 0.03401367 6.42073242 0.04239258 7.29663086 0.05102539 C8.15063477 0.05553711 9.00463867 0.06004883 9.88452148 0.06469727 C12.00108749 0.07652166 14.11761771 0.0944577 16.23413086 0.11352539 C15.52637567 4.22121461 14.3180732 8.01156448 12.94897461 11.94555664 C12.72842911 12.58216721 12.50788361 13.21877777 12.28065491 13.87467957 C11.58069792 15.89287002 10.87623901 17.90945469 10.17163086 19.92602539 C9.69411833 21.3002705 9.21690166 22.67461844 8.73999023 24.04907227 C7.57533842 27.40529499 6.40460278 30.75930548 5.23413086 34.11352539 C-1.03586914 34.11352539 -7.30586914 34.11352539 -13.76586914 34.11352539 C-12.99468402 29.48641469 -12.12319978 25.97079083 -10.51586914 21.65649414 C-9.85071289 19.86501953 -9.85071289 19.86501953 -9.17211914 18.03735352 C-8.70805664 16.80436523 -8.24399414 15.57137695 -7.76586914 14.30102539 C-7.29668749 13.03621147 -6.82793342 11.77123885 -6.35961914 10.50610352 C-2.49758467 0.16056641 -2.49758467 0.16056641 0 0 Z " fill="#E4204B" transform="translate(161.765869140625,129.886474609375)"/>
<path d="M0 0 C6.27 0 12.54 0 19 0 C15.04 11.22 11.08 22.44 7 34 C0.73 34 -5.54 34 -12 34 C-9.88853909 26.72276366 -7.49100694 19.6101727 -4.875 12.5 C-4.51535156 11.51257813 -4.15570313 10.52515625 -3.78515625 9.5078125 C-1.14580676 2.29161352 -1.14580676 2.29161352 0 0 Z " fill="#E4204B" transform="translate(286,130)"/>
<path d="M0 0 C0.69821417 2.10063576 1.38324472 4.20565737 2.0625 6.3125 C2.44535156 7.48425781 2.82820313 8.65601563 3.22265625 9.86328125 C4 13 4 13 3 16 C1.00390625 17.38671875 1.00390625 17.38671875 -1.4375 18.6875 C-2.24058594 19.12449219 -3.04367187 19.56148438 -3.87109375 20.01171875 C-6 21 -6 21 -8 21 C-8.67812114 19.1291122 -9.3419946 17.25305707 -10 15.375 C-10.556875 13.80878906 -10.556875 13.80878906 -11.125 12.2109375 C-12.00483564 8.98225494 -12.15988262 6.32755706 -12 3 C-10.56445975 2.49440092 -9.1264798 1.9957251 -7.6875 1.5 C-6.88699219 1.2215625 -6.08648437 0.943125 -5.26171875 0.65625 C-3 0 -3 0 0 0 Z " fill="#E5244E" transform="translate(369,270)"/>
<path d="M0 0 C0.66 0.33 1.32 0.66 2 1 C3.17169312 4.98375661 3.08089427 8.87439224 3 13 C0.00519083 13.8723412 -2.63575911 14.10829766 -5.75 14.0625 C-6.54921875 14.05347656 -7.3484375 14.04445312 -8.171875 14.03515625 C-8.77515625 14.02355469 -9.3784375 14.01195312 -10 14 C-9.54261927 9.31808451 -7.80889606 7.36895826 -4.4375 4.1875 C-3.61121094 3.39730469 -2.78492188 2.60710937 -1.93359375 1.79296875 C-1.29550781 1.20128906 -0.65742188 0.60960937 0 0 Z " fill="#E52952" transform="translate(488,210)"/>
<path d="M0 0 C1.65 0.33 3.3 0.66 5 1 C3.90301833 6.69139902 2.45946923 11.74567937 0 17 C-1.65 17 -3.3 17 -5 17 C-4.46246904 10.81839396 -2.45417612 5.673142 0 0 Z " fill="#FDEFF2" transform="translate(252,138)"/>
<path d="M0 0 C1.29065057 3.8719517 0.22324098 6.44232601 -0.9375 10.1875 C-1.13279297 10.84169922 -1.32808594 11.49589844 -1.52929688 12.16992188 C-2.01182563 13.78227407 -2.50490205 15.39146289 -3 17 C-4.65 17 -6.3 17 -8 17 C-7.41734728 12.57676318 -5.73233789 9.4844136 -3.4375 5.6875 C-2.79683594 4.61886719 -2.15617187 3.55023438 -1.49609375 2.44921875 C-1.00238281 1.64097656 -0.50867188 0.83273438 0 0 Z " fill="#FBDDE4" transform="translate(330,134)"/>
<path d="M0 0 C1.48478748 2.96957496 0.44702974 4.89881672 -0.375 8.0625 C-0.65085937 9.14660156 -0.92671875 10.23070312 -1.2109375 11.34765625 C-2 14 -2 14 -3 15 C-4.66617115 15.04063832 -6.33388095 15.042721 -8 15 C-6.62712658 11.30123909 -4.93644547 8.0485524 -2.875 4.6875 C-2.33617187 3.80449219 -1.79734375 2.92148438 -1.2421875 2.01171875 C-0.83226562 1.34785156 -0.42234375 0.68398437 0 0 Z " fill="#FCE6EA" transform="translate(37,136)"/>
<path d="M0 0 C1.98 0 3.96 0 6 0 C5.125 6.875 5.125 6.875 4 8 C2.33382885 8.04063832 0.66611905 8.042721 -1 8 C-0.67 5.36 -0.34 2.72 0 0 Z " fill="#FCE5EA" transform="translate(105,139)"/>
<path d="M0 0 C0 3.43344882 -0.33204625 3.73756719 -2.5546875 6.13671875 C-3.08707031 6.71357422 -3.61945313 7.29042969 -4.16796875 7.88476562 C-4.73128906 8.47966797 -5.29460937 9.07457031 -5.875 9.6875 C-6.43058594 10.29400391 -6.98617188 10.90050781 -7.55859375 11.52539062 C-8.99275882 13.06150237 -10.49222135 14.53607641 -12 16 C-12.66 16 -13.32 16 -14 16 C-13.4335018 12.26777655 -11.93650077 10.5855045 -9.25 8 C-8.53328125 7.3090625 -7.8165625 6.618125 -7.078125 5.90625 C-4.80259869 3.81892511 -2.47065712 1.85299284 0 0 Z " fill="#E7355C" transform="translate(502,192)"/>
<path d="M0 0 C2.82928932 2.55071314 4.67893264 5.46621272 6.6875 8.6875 C7.31011719 9.68136719 7.93273437 10.67523438 8.57421875 11.69921875 C9.04472656 12.45847656 9.51523438 13.21773438 10 14 C9.01 14 8.02 14 7 14 C5.17578125 11.4453125 5.17578125 11.4453125 3.3125 8.125 C2.68988281 7.03445313 2.06726563 5.94390625 1.42578125 4.8203125 C0 2 0 2 0 0 Z " fill="#EB5677" transform="translate(6,335)"/>
</svg>
