<?xml version="1.0" standalone="no"?>
<!DOCTYPE svg PUBLIC "-//W3C//DTD SVG 20010904//EN"
 "http://www.w3.org/TR/2001/REC-SVG-20010904/DTD/svg10.dtd">
<svg version="1.0" xmlns="http://www.w3.org/2000/svg"
 width="226.000000pt" height="225.000000pt" viewBox="0 0 226.000000 225.000000"
 preserveAspectRatio="xMidYMid meet">

<g transform="translate(0.000000,225.000000) scale(0.100000,-0.100000)"
fill="#000000" stroke="none">
<path d="M2232 1862 c-1 -7 -6 -10 -12 -7 -12 8 -13 -1 -1 -43 6 -18 7 -31 3
-28 -4 2 -17 0 -30 -5 -22 -8 -23 -13 -20 -84 2 -41 0 -75 -4 -75 -5 0 -8 36
-8 80 l0 80 -35 0 c-24 0 -35 -5 -35 -15 0 -11 -11 -15 -40 -15 -22 0 -40 -4
-40 -10 0 -5 -18 -10 -40 -10 -33 0 -40 3 -40 20 0 11 -4 20 -8 20 -12 0 -12
-43 0 -57 8 -10 5 -13 -11 -13 -16 0 -21 6 -21 28 l-1 27 -19 -23 c-17 -20
-19 -21 -23 -5 -4 17 -5 17 -6 1 0 -10 -6 -18 -12 -18 -5 0 -7 -4 -4 -10 3 -5
1 -10 -4 -10 -11 0 -10 -27 2 -46 3 -6 3 -14 -1 -18 -3 -4 -7 -23 -9 -43 -3
-45 -29 -76 -43 -53 -12 20 -211 22 -217 3 -3 -7 -13 -13 -23 -13 -10 0 -28
-9 -41 -21 l-24 -21 29 17 29 17 -19 -25 c-14 -19 -23 -23 -36 -16 -11 6 -19
5 -24 -3 -4 -7 -3 -8 5 -4 7 4 -8 -13 -33 -39 -26 -26 -46 -52 -46 -57 0 -14
-69 -118 -78 -118 -4 0 -20 28 -35 63 -15 34 -39 86 -52 115 -30 63 -31 78 -7
100 10 10 12 13 5 8 -10 -6 -12 -5 -8 7 4 8 2 18 -4 22 -6 3 -11 18 -11 33 l0
26 -16 -23 c-12 -17 -13 -26 -5 -34 16 -16 13 -27 -8 -27 -14 0 -18 -5 -14
-20 3 -11 -2 -27 -12 -37 -17 -16 -17 -15 -11 18 5 30 5 31 -4 10 -6 -14 -9
-30 -6 -37 2 -6 -1 -18 -7 -25 -8 -8 -5 -8 7 1 18 14 19 13 14 -15 -7 -38 4
-75 17 -55 5 9 4 15 -3 18 -14 4 -16 22 -3 22 9 0 15 -15 27 -65 4 -16 3 -17
-5 -5 -6 8 -11 10 -11 4 0 -6 10 -24 22 -40 13 -15 17 -25 10 -21 -8 6 -10 3
-6 -7 3 -9 10 -16 15 -16 4 0 5 -7 2 -17 -5 -12 -3 -14 7 -8 10 6 12 4 8 -7
-4 -8 2 -30 13 -47 23 -38 24 -62 4 -100 -8 -16 -11 -31 -8 -35 4 -3 2 -6 -4
-6 -14 0 -35 -49 -27 -63 4 -7 4 -9 -1 -5 -7 7 -41 -58 -75 -142 -8 -19 -29
-61 -47 -93 -18 -32 -32 -63 -30 -70 1 -6 -2 -11 -8 -12 -5 0 -30 -20 -55 -44
-61 -59 -113 -86 -197 -105 -85 -19 -130 -20 -224 -5 l-69 12 0 110 c0 109 0
109 22 103 81 -24 213 -12 246 20 7 8 19 17 25 21 41 26 174 263 161 285 -4 6
-3 8 3 5 6 -4 18 11 27 32 17 37 17 38 -12 94 -15 32 -32 54 -37 50 -4 -5 -5
-3 -2 4 10 16 -10 66 -23 58 -5 -3 -7 0 -4 8 5 14 -20 47 -36 47 -12 0 -20
-28 -14 -45 4 -10 0 -15 -10 -15 -15 0 -15 3 -1 37 9 21 20 40 25 43 5 3 1 18
-9 34 l-19 28 -7 -31 -7 -31 -114 0 -114 0 0 -25 c0 -22 -4 -25 -40 -25 -29 0
-40 -4 -40 -15 0 -15 -8 -16 -212 -18 -23 0 -28 -5 -28 -24 0 -20 -5 -23 -40
-23 -36 0 -40 2 -40 26 0 14 -4 23 -10 19 -5 -3 -10 -22 -10 -41 0 -29 -3 -34
-24 -34 -21 0 -25 5 -28 38 -2 25 -8 37 -18 37 -8 0 -18 5 -22 10 -4 6 -8 -64
-8 -154 0 -90 -3 -161 -6 -158 -4 4 -10 75 -14 159 -4 98 -7 -79 -8 -489 l-2
-643 1115 0 1115 0 -1 828 c-1 679 -8 1088 -17 1014z m-385 -314 c-3 -8 -6 -5
-6 6 -1 11 2 17 5 13 3 -3 4 -12 1 -19z m-242 -19 c10 -14 1 -21 -19 -13 -9 3
-13 10 -10 15 7 12 21 11 29 -2z m-405 -113 c5 -7 8 -23 5 -36 -7 -35 -15 -37
-15 -4 0 16 -9 53 -20 82 -11 29 -20 58 -19 65 0 6 9 -12 20 -42 10 -29 23
-59 29 -65z m560 84 c-20 -13 -33 -13 -25 0 3 6 14 10 23 10 15 0 15 -2 2 -10z
m-580 -109 c0 -10 -8 -4 -20 14 -11 17 -20 41 -20 55 1 22 3 20 20 -14 11 -22
20 -47 20 -55z m244 14 c-9 -14 -18 -25 -21 -25 -5 0 5 18 20 38 17 22 18 13
1 -13z m-72 -117 c-7 -7 -12 -8 -12 -2 0 6 3 14 7 17 3 4 9 5 12 2 2 -3 -1
-11 -7 -17z m-435 -90 c-3 -8 -6 -5 -6 6 -1 11 2 17 5 13 3 -3 4 -12 1 -19z
m43 -63 c0 -5 -5 -3 -10 5 -5 8 -10 20 -10 25 0 6 5 3 10 -5 5 -8 10 -19 10
-25z m369 -158 c13 -23 33 -60 45 -81 28 -52 104 -128 152 -152 41 -20 175
-27 242 -12 l33 8 -3 -107 -3 -107 -30 -8 c-16 -5 -77 -9 -135 -10 -83 -1
-118 4 -168 21 -71 24 -148 76 -185 124 -14 17 -34 41 -44 52 -56 59 -57 65
-18 154 20 45 33 86 29 93 -4 6 -3 8 3 5 5 -3 15 10 22 29 7 18 18 34 24 34 7
0 23 -19 36 -43z"/>
<path d="M1360 1767 c8 -7 14 -22 12 -34 -3 -18 0 -21 13 -17 13 5 14 9 4 15
-10 6 -7 11 11 18 19 7 20 10 7 10 -10 1 -15 6 -12 11 4 6 -6 10 -22 10 -24
-1 -26 -3 -13 -13z"/>
<path d="M1448 1773 c7 -3 16 -2 19 1 4 3 -2 6 -13 5 -11 0 -14 -3 -6 -6z"/>
<path d="M1759 1769 c-11 -7 -9 -9 8 -9 38 0 55 -11 42 -26 -6 -8 -7 -14 -3
-14 16 0 33 36 23 51 -6 9 -9 10 -9 2 0 -9 -7 -10 -23 -4 -14 6 -30 6 -38 0z"/>
<path d="M1290 1750 c0 -5 5 -10 10 -10 6 0 10 5 10 10 0 6 -4 10 -10 10 -5 0
-10 -4 -10 -10z"/>
<path d="M950 1731 c0 -6 5 -13 10 -16 6 -3 10 1 10 9 0 9 -4 16 -10 16 -5 0
-10 -4 -10 -9z"/>
<path d="M1235 1690 c3 -5 8 -10 11 -10 2 0 4 5 4 10 0 6 -5 10 -11 10 -5 0
-7 -4 -4 -10z"/>
<path d="M1299 1684 c17 -13 25 -14 34 -5 9 9 8 11 -5 6 -11 -4 -18 -2 -18 4
0 6 -8 11 -17 11 -14 0 -13 -3 6 -16z"/>
<path d="M440 1640 c0 -29 3 -50 7 -46 7 7 5 87 -3 95 -2 2 -4 -20 -4 -49z"/>
<path d="M1020 1680 c0 -5 5 -10 10 -10 6 0 10 5 10 10 0 6 -4 10 -10 10 -5 0
-10 -4 -10 -10z"/>
<path d="M1210 1660 c0 -5 5 -10 10 -10 6 0 10 5 10 10 0 6 -4 10 -10 10 -5 0
-10 -4 -10 -10z"/>
<path d="M1267 1645 c-16 -14 -26 -29 -22 -34 3 -5 1 -12 -4 -15 -5 -4 -13 -1
-17 5 -5 8 -3 9 7 4 12 -8 12 -6 0 8 -7 9 -14 17 -15 17 0 0 -1 -16 -2 -35 -1
-44 11 -44 36 -2 33 55 43 66 53 60 6 -3 7 -1 3 5 -9 15 -6 16 -39 -13z"/>
<path d="M985 1630 c10 -11 20 -20 22 -20 2 0 -1 9 -7 20 -6 11 -16 20 -22 20
-6 0 -3 -9 7 -20z"/>
<path d="M422 1600 c0 -14 2 -19 5 -12 2 6 2 18 0 25 -3 6 -5 1 -5 -13z"/>
<path d="M1020 1605 c-8 -10 -9 -15 -1 -15 6 0 11 -8 12 -17 0 -13 3 -11 10 6
12 30 -3 48 -21 26z"/>
<path d="M420 1550 c0 -6 7 -10 15 -10 8 0 15 2 15 4 0 2 -7 6 -15 10 -8 3
-15 1 -15 -4z"/>
<path d="M684 1531 c3 -5 16 -11 28 -14 22 -6 22 -5 4 8 -22 17 -40 20 -32 6z"/>
<path d="M1063 1513 c10 -28 12 -30 24 -15 7 9 12 24 12 32 0 12 -2 12 -12 -2
-12 -15 -14 -15 -24 0 -9 13 -9 9 0 -15z"/>
<path d="M450 1511 c0 -12 5 -21 10 -21 6 0 10 6 10 14 0 8 -4 18 -10 21 -5 3
-10 -3 -10 -14z"/>
<path d="M740 1500 c0 -5 -8 -6 -17 -3 -17 7 -17 6 0 -11 9 -10 29 -19 43 -21
l25 -2 -22 23 c-25 27 -29 29 -29 14z"/>
<path d="M650 1475 c0 -8 4 -15 8 -15 5 0 9 7 9 15 0 8 -4 15 -9 15 -4 0 -8
-7 -8 -15z"/>
</g>
</svg>
