<svg id="Layer_1" data-name="Layer 1" xmlns="http://www.w3.org/2000/svg" viewBox="0 0 512 512"><defs><style>.cls-1{fill:#7a7777;}.cls-2{fill:#fafafa;}</style></defs><path class="cls-1" d="M256,0C114.84,0,0,114.84,0,256S114.84,512,256,512,512,397.16,512,256,397.16,0,256,0Z"/><path class="cls-2" d="M391,347.83A30.55,30.55,0,1,1,347.83,391L256,299.21,164.17,391A30.55,30.55,0,0,1,121,347.83L212.79,256,121,164.17A30.55,30.55,0,0,1,164.17,121L256,212.79,347.83,121A30.55,30.55,0,0,1,391,164.17L299.21,256Z"/></svg>