<svg id="Capa_1" data-name="Capa 1" xmlns="http://www.w3.org/2000/svg" viewBox="0 0 512 512"><defs><style>.cls-1{fill:none;stroke:#000;stroke-linecap:round;stroke-linejoin:round;stroke-width:15px;}</style></defs><polyline class="cls-1" points="375.63 185.5 422.43 185.5 385.03 270.57"/><path class="cls-1" d="M287.94,245.46H234.52s28.28-51.27,33-57,9.19-2.18,9.61,2.92-.21,79.18-.21,79.18" transform="translate(0 0)"/><path class="cls-1" d="M220.68,271.2s-41.39.52-43.35-.13,3.15-4.1,30.28-42.88c5.07-7.24,7.86-13.35,9-18.47l.42-3.29A21.77,21.77,0,0,0,174,202.21" transform="translate(0 0)"/><line class="cls-1" x1="346.51" y1="185.5" x2="312.34" y2="271.4"/><path class="cls-1" d="M24.36,278.92C12.76,252.82,5.53,225.34,8,199.49a27.74,27.74,0,0,1,8.15-17l37.68-37.68a25,25,0,0,1,37.73,2.74l42.56,56.58a15,15,0,0,1-1.56,19.8L105,250.64a10,10,0,0,0-1.53,12.47h0A453.13,453.13,0,0,0,248.89,408.56h0A10,10,0,0,0,261.36,407L288,379.46a15,15,0,0,1,19.8-1.56l56.58,42.56a25,25,0,0,1,2.74,37.73l-37.68,37.68a28.49,28.49,0,0,1-17.64,8.22c-90.81,8-201.37-102.56-201.37-102.56s-40.21-40.21-70.38-92" transform="translate(0 0)"/><path class="cls-1" d="M159.29,88.7c73.41-65.81,186.33-63.43,256.88,7.13,73,73,73,191.39,0,264.41a186.33,186.33,0,0,1-69.66,44" transform="translate(0 0)"/><path class="cls-1" d="M107.5,166.13a186,186,0,0,1,29.4-53.58" transform="translate(0 0)"/><path class="cls-1" d="M449.93,82.8c76,86.62,72.62,218.53-10,301.17a219.94,219.94,0,0,1-65.75,45.37" transform="translate(0 0)"/><path class="cls-1" d="M82.8,137.51A220.09,220.09,0,0,1,128,72.09C209.72-9.6,339.57-13.8,426.22,59.49" transform="translate(0 0)"/></svg>