<svg id="Layer_1" data-name="Layer 1" xmlns="http://www.w3.org/2000/svg" viewBox="0 0 68 68"><defs><style>.cls-1{fill:#333;fill-rule:evenodd;}</style></defs><path class="cls-1" d="M34,0A34,34,0,1,1,0,34,34,34,0,0,1,34,0ZM54,49.73a2.61,2.61,0,0,0,0-3.68L47.31,39.4a2.61,2.61,0,0,0-3.68,0l-1.81,1.81a4,4,0,0,1-4.68.7,26.51,26.51,0,0,1-11-11,4,4,0,0,1,.7-4.68l1.81-1.81a2.61,2.61,0,0,0,0-3.68L22,14a2.61,2.61,0,0,0-3.68,0c-.28.28-.62.61-1,1a23.82,23.82,0,0,0-2.56,2.66c-2.47,3.62-1.28,8.46.14,11.88a45.34,45.34,0,0,0,9.77,13.85,45.1,45.1,0,0,0,13.84,9.76c3.42,1.43,8.26,2.61,11.88.14A22.54,22.54,0,0,0,53,50.73C53.32,50.38,53.65,50.05,54,49.73Z"/></svg>